<svg width="80" height="80" viewBox="0 0 80 80" fill="none" xmlns="http://www.w3.org/2000/svg">
<g opacity="0.3" filter="url(#filter0_f_40_3748)">
<path d="M34.3114 44.0741L35.456 35.4543L25.5129 28.5514L34.5976 31.6273L36.7436 28.3368L44.5764 23.4726L61.8517 32.9865L62.7458 47.5076L55.056 58.2018L48.9757 59.1317L52.1231 53.3733V47.8295L49.8341 43.5018L47.5093 41.9638L43.9326 45.6478V49.5463L41.1428 52.1573L37.602 52.5865L36.0282 53.4806L33.4531 52.658L32.3801 48.7952L34.3114 46.077V44.0741Z" fill="white"/>
<path d="M50.1918 28.4797C48.2961 28.0863 46.2217 28.1936 46.2217 28.1936C46.2217 28.1936 45.5421 31.3411 41.3217 32.1637C41.3575 32.1637 46.9013 34.0593 50.1918 28.4797Z" fill="#94A6C3"/>
<path d="M51.9085 57.0212C54.1976 55.2329 55.9144 52.765 56.7012 49.9753C56.737 49.868 57.0589 49.6891 57.2735 49.5461C57.6312 49.3315 57.9888 49.1526 58.0604 48.8665C58.2034 48.0439 58.275 47.1855 58.275 46.3271C58.275 46.0052 57.9531 45.6833 57.6312 45.3614C57.3808 45.1468 57.1304 44.8964 57.1304 44.7176C56.7728 41.4628 55.2706 38.4227 52.8742 36.2052L52.6238 36.4555C54.9487 38.6373 56.4509 41.6059 56.7728 44.7534C56.8085 45.0395 57.0947 45.3256 57.3808 45.6118C57.6312 45.8264 57.9173 46.1483 57.9173 46.2913C57.9173 47.1139 57.8458 47.9366 57.7027 48.7592C57.6669 48.9023 57.345 49.0453 57.0947 49.1884C56.737 49.3672 56.4151 49.5461 56.3436 49.8322C55.4852 52.8723 53.518 55.5191 50.9071 57.2358C51.372 56.2344 52.8385 52.9796 53.6253 51.3344L53.4822 46.0409L48.9399 41.6417L46.3647 41.9993L43.5392 46.5774C43.5392 46.5774 44.8625 48.2585 43.0027 50.2256C41.1786 52.157 39.7479 52.5862 39.7479 52.5862L38.4246 51.8709C38.818 51.3701 39.6049 50.6191 40.2129 50.1183C41.2501 49.2599 42.2874 49.1884 42.2874 48.2585C42.3231 46.3271 40.2487 46.8636 40.2487 46.8636L39.4976 47.5789L39.1757 50.2256L37.6019 52.1928L37.4231 52.157L34.8479 51.5847C34.8479 51.5847 36.4217 50.7621 36.672 49.8322C36.9224 48.938 36.1713 45.9694 36.1355 45.7906C36.1713 45.8264 36.8866 46.4344 37.2085 47.4358C37.7808 45.8621 38.5319 44.3599 38.7465 44.2169C38.9611 44.0738 41.8582 42.5358 41.8582 42.5358L40.8925 45.0753L41.6078 44.6818L43.3246 40.4614C43.3246 40.4614 45.0056 39.6388 46.2574 39.6388C48.5107 39.603 51.837 36.849 50.3348 31.9132C50.764 32.092 58.2034 35.8117 59.491 43.1081C60.4567 48.7234 57.2735 53.9811 51.9085 57.0212Z" fill="#94A6C3"/>
<path d="M35.3484 48.6164L35.6345 47.1857C35.6345 47.1857 34.4542 49.2602 34.3469 49.5464C34.2396 49.8683 34.4185 50.4405 34.8834 50.4048C35.3484 50.369 35.9207 49.6894 35.9207 49.1887C35.9207 48.5449 35.3484 48.6164 35.3484 48.6164Z" fill="#1B314F"/>
<path d="M43.3971 29.2665C44.2198 28.3008 43.8979 26.8701 43.8979 26.8701L41.5015 30.411C41.4658 30.411 42.3599 30.4468 43.3971 29.2665Z" fill="#1B314F"/>
<path d="M56.5947 25.8689C56.5947 25.8689 58.383 25.9404 60.2428 26.155C56.0582 22.8645 52.0881 21.8988 48.8691 21.8988C44.4341 21.8988 41.4297 23.7229 41.2509 23.8302L42.6458 21.6127C42.6458 21.6127 37.0662 21.0762 35.099 26.9777C34.5983 25.7258 34.1333 23.9017 34.1333 23.9017C34.1333 23.9017 31.2363 26.4412 32.5954 30.6616C29.2691 29.4455 24.5122 27.7645 24.3333 27.7288C24.083 27.693 24.0114 27.8003 24.0114 27.8003C24.0114 27.8003 23.9399 27.9076 24.1545 28.0864C24.5479 28.4083 32.0589 33.9521 33.7042 35.0251C33.3465 36.3127 33.3465 36.9207 33.7042 37.5288C34.2049 38.3514 34.2406 38.7806 34.1691 39.3886C34.0976 39.9966 33.4538 45.2543 33.3107 45.8981C33.1677 46.5419 31.6655 48.8309 31.737 49.5105C31.8085 50.19 32.7385 53.0871 33.5611 53.409C34.1691 53.6236 35.6713 54.0886 36.6728 54.0886C37.0304 54.0886 37.3523 54.017 37.4954 53.874C38.1034 53.3375 38.2823 53.2302 38.7115 53.2302C38.7472 53.2302 38.783 53.2302 38.8188 53.2302C38.9976 53.2302 39.2122 53.2659 39.4625 53.2659C40.0348 53.2659 40.7859 53.1587 41.3224 52.658C42.1093 51.8711 43.4684 50.7981 43.8976 50.2973C44.4341 49.6178 44.7202 48.6878 44.5771 47.7579C44.4698 46.8995 44.9348 46.1484 45.4713 45.3973C46.1509 44.5032 47.4027 42.8937 47.4027 42.8937C49.8706 44.7536 51.4085 47.5791 51.4085 50.7265C51.4085 56.3061 46.5443 60.8127 40.5355 60.8127C39.6056 60.8127 38.7115 60.7054 37.8173 60.4908C40.5713 61.4565 42.8961 61.7784 44.7917 61.7784C48.8334 61.7784 50.9793 60.3119 50.9793 60.3119C50.9793 60.3119 50.2282 61.2776 49.0122 62.3864C49.048 62.3864 49.048 62.3864 49.048 62.3864C55.7363 61.4565 58.991 55.9484 58.991 55.9484C58.991 55.9484 58.7407 57.7368 58.4188 58.9528C67.3246 52.2645 65.8224 43.8952 65.7866 43.6091C65.8582 43.7164 66.7523 44.7893 67.2173 45.3616C68.6481 30.6258 56.5947 25.8689 56.5947 25.8689ZM42.8961 49.4032C42.7531 49.582 42.145 50.1185 41.7158 50.512C41.2866 50.9054 40.8217 51.2988 40.464 51.6565C40.3209 51.7995 40.0348 51.8711 39.6056 51.8711C39.4625 51.8711 39.3195 51.8711 39.2122 51.8711C39.1406 51.8711 39.0691 51.8711 38.9976 51.8711C38.926 51.8711 38.8903 51.8711 38.8545 51.8711C38.7472 51.8711 38.6399 51.8711 38.5326 51.8711C39.0691 51.1557 40.6428 49.5105 41.1793 49.1528C41.8231 48.7236 42.145 48.2944 41.7516 47.5433C41.3582 46.7922 40.3209 46.9711 40.3209 46.9711C40.3209 46.9711 40.929 46.7207 41.4655 46.7207C40.7859 46.5419 39.9275 46.7207 39.5341 47.1142C39.1049 47.5076 39.1764 48.9025 38.9976 49.7966C38.8188 50.7266 38.2107 51.1915 37.2808 52.0499C36.7801 52.5149 36.4224 52.658 36.1363 52.658C35.5282 52.5507 34.8129 52.3718 34.3122 52.193C33.9545 51.728 33.418 50.19 33.275 49.5462C33.3823 49.1886 33.8114 48.4375 34.026 48.0083C34.4552 47.1857 34.7056 46.7207 34.7771 46.2915C34.9202 45.6835 35.3852 41.928 35.564 40.3543C36.029 40.9623 36.6728 41.9638 36.5297 42.6076C37.5669 41.1412 36.8158 39.7105 36.4582 39.1383C36.1363 38.566 35.7071 37.4215 36.0647 36.2054C36.4224 34.9893 37.71 31.6273 37.71 31.6273C37.71 31.6273 38.1392 32.3784 38.7472 32.2353C39.3552 32.0923 44.2552 24.7244 44.2552 24.7244C44.2552 24.7244 45.5786 27.6215 44.1837 29.7317C42.7531 31.8419 41.3582 32.2353 41.3582 32.2353C41.3582 32.2353 43.3253 32.593 45.1494 31.2696C45.9005 33.0222 46.6158 34.8463 46.6516 35.0966C46.5443 35.347 45.1136 38.7806 44.9706 38.9952C44.899 39.0667 44.3983 39.2098 44.0407 39.2813C43.4326 39.4601 43.075 39.5674 42.9319 39.6747C42.6815 39.8893 41.537 43.0367 41.0005 44.5747C40.3567 44.7535 39.7129 45.1112 39.2479 45.8265C39.4983 45.6477 40.2852 45.5404 40.8574 45.4689C41.3582 45.4331 42.8961 46.2557 43.2896 47.7937C43.2896 47.8294 43.2896 47.8295 43.2896 47.8652C43.3611 48.4375 43.1823 48.974 42.8961 49.4032ZM39.5341 49.8324C39.856 49.3674 39.8202 48.5805 39.856 48.3302C39.8917 48.0798 39.9633 47.6149 40.2494 47.5433C40.5355 47.4718 41.2151 47.5791 41.2151 48.0798C41.2151 48.5448 40.7144 48.6521 40.3567 48.974C40.1063 49.2243 39.6056 49.7608 39.5341 49.8324ZM53.8049 43.001C54.1626 41.1769 54.1983 39.6032 54.091 38.3156C55.4859 40.1755 56.3443 42.4287 56.5947 44.7535C56.6304 45.0397 56.9166 45.3258 57.2027 45.6119C57.4531 45.8265 57.7392 46.1127 57.7392 46.2915C57.7392 47.1141 57.6677 47.9367 57.5246 48.7594C57.4888 48.8667 57.1669 49.0455 56.9166 49.1886C56.5589 49.3674 56.237 49.5462 56.1655 49.8324C55.3786 52.5864 53.6976 55.0185 51.4443 56.7353C54.7706 53.2659 56.3801 47.5434 53.8049 43.001ZM51.5516 57.0572C53.8764 55.2689 55.6647 52.7652 56.4516 49.9397C56.4874 49.8324 56.8093 49.6535 57.0239 49.5105C57.3815 49.3316 57.7392 49.117 57.8107 48.8309C57.9538 48.0083 58.0253 47.1499 58.0253 46.2915C58.0253 45.9696 57.7034 45.6477 57.3815 45.3258C57.2027 45.1112 56.9166 44.8608 56.9166 44.682C56.6304 42.0711 55.5932 39.6032 53.9837 37.5645C53.2684 33.2726 50.4071 31.9492 50.3355 31.9134C50.4071 32.0207 52.2669 34.7032 50.9793 37.8507C49.656 41.0339 46.2582 40.5331 45.972 40.5689C45.6859 40.5689 44.5771 41.9995 43.1823 44.6462C43.0034 44.5747 42.2523 44.3959 41.3939 44.5389C42.0377 42.7506 43.0034 40.2112 43.1823 39.9966C43.2538 39.9251 43.7903 39.782 44.1479 39.6747C44.8275 39.4959 45.1494 39.3886 45.2567 39.2455C45.3282 39.1383 45.6859 38.3156 46.0436 37.4572C46.3655 37.4572 47.1881 37.3857 47.2596 37.3499C47.3312 37.2784 48.0107 35.5258 48.0107 35.3112C48.0107 35.1324 46.6158 31.6631 46.0793 30.3397C46.3297 30.0536 46.5801 29.6959 46.8304 29.3025C54.1626 30.0893 59.8852 36.3127 59.8852 43.8594C59.8852 49.6536 56.4874 54.6966 51.5516 57.0572Z" fill="#1B314F"/>
<path d="M61.9232 53.874C61.3867 54.5893 60.7787 55.3404 60.0634 56.0557C64.6773 47.1856 60.278 39.0666 60.0992 38.7448C60.421 39.0666 60.7429 39.4243 61.0291 39.7462C64.57 43.6805 64.9992 49.582 61.9232 53.874Z" fill="#D82122"/>
<path d="M42.0379 37.7431C42.7175 36.9562 42.3598 35.4898 41.108 35.2394C41.4299 34.4883 41.8948 32.9861 41.8948 32.9861C41.8948 32.9861 38.2467 38.7088 37.9248 38.8161C37.6029 38.9234 37.281 37.6716 37.281 37.6716C36.6014 40.2825 38.4255 40.6402 38.6401 39.8175C39.6416 39.5672 41.3583 38.4942 42.0379 37.7431Z" fill="#1B314F"/>
<path d="M38.9254 39.1384L40.7853 35.9551C40.7853 35.9551 41.8583 36.4916 41.3218 37.35C40.6422 38.3515 38.9254 39.1384 38.9254 39.1384Z" fill="#FFD923"/>
<path d="M66.2151 42.4646C64.6056 38.1369 62.3166 34.4529 57.2735 31.1266C52.4092 27.9077 47.1873 28.158 46.9012 28.1938C46.8654 28.1938 46.8297 28.1938 46.8297 28.1938C47.0085 28.1222 47.1873 28.0865 47.3662 28.0507C48.4749 27.6931 49.9056 27.4069 51.3363 27.2281C55.1275 26.6916 58.9545 27.9792 61.5655 30.7332C61.6012 30.769 61.6012 30.769 61.637 30.8047C64.6056 33.9522 66.1436 37.8865 66.2151 42.4646Z" fill="#D82122"/>
<path d="M36.4224 31.6275C32.2377 31.4844 33.6326 26.6202 33.7041 26.334C33.7041 26.3698 33.9902 30.161 36.4224 31.6275Z" fill="#D82122"/>
<path d="M35.2433 32.9145C35.4579 33.0933 35.6725 33.4152 35.4222 33.8802C35.2791 34.1305 35.0645 34.0948 34.7426 33.9517C34.3134 33.7371 31.7382 32.2349 29.4134 30.697C32.0601 31.6269 34.7426 32.6283 35.1718 32.8429C35.1718 32.8429 35.2076 32.8787 35.2433 32.9145Z" fill="white"/>
<path d="M56.129 24.7597C50.7998 23.7583 47.3663 24.259 44.8984 25.1889C44.8268 24.9028 44.5765 24.3305 44.3619 23.8656C43.6108 24.7597 42.8239 25.8327 42.3232 26.5123C40.9641 27.4422 40.3918 28.3364 40.3918 28.3364C41.1787 25.6539 43.4677 23.651 46.2575 23.1503C47.0444 23.0072 47.9028 22.9357 48.8327 22.9357C51.3006 22.9714 53.7684 23.5795 56.129 24.7597Z" fill="#D82122"/>
<path d="M40.5351 22.8647C37.3161 24.7961 37.9599 29.41 37.9599 29.41C34.884 24.7246 40.2847 22.972 40.5351 22.8647Z" fill="#D82122"/>
</g>
<path d="M26.9541 42.6385L28.1885 33.3421L17.4649 25.8972L27.2627 29.2146L29.5772 25.6658L38.025 20.4197L56.6564 30.6804L57.6207 46.3416L49.3273 57.8753L42.7696 58.8782L46.1641 52.6678V46.6888L43.6954 42.0213L41.188 40.3626L37.3306 44.3357V48.5403L34.3218 51.3562L30.503 51.8191L28.8057 52.7835L26.0283 51.8963L24.8711 47.7303L26.9541 44.7986V42.6385Z" fill="white"/>
<path d="M44.0811 25.8199C42.0367 25.3956 39.7994 25.5113 39.7994 25.5113C39.7994 25.5113 39.0665 28.9059 34.5147 29.7931C34.5533 29.7931 40.5323 31.8375 44.0811 25.8199Z" fill="#94A6C3"/>
<path d="M45.9327 56.6021C48.4014 54.6734 50.253 52.0118 51.1016 49.003C51.1402 48.8872 51.4874 48.6944 51.7188 48.5401C52.1046 48.3086 52.4903 48.1158 52.5674 47.8072C52.7217 46.92 52.7989 45.9942 52.7989 45.0684C52.7989 44.7212 52.4517 44.3741 52.1046 44.0269C51.8345 43.7954 51.5645 43.5254 51.5645 43.3325C51.1788 39.8223 49.5587 36.5435 46.9742 34.1519L46.7042 34.4219C49.2115 36.7749 50.8316 39.9766 51.1788 43.3711C51.2174 43.6797 51.5259 43.9883 51.8345 44.2969C52.1046 44.5284 52.4132 44.8755 52.4132 45.0298C52.4132 45.917 52.336 46.8042 52.1817 47.6914C52.1431 47.8457 51.796 48 51.5259 48.1543C51.1402 48.3472 50.793 48.5401 50.7159 48.8487C49.7901 52.1275 47.6685 54.982 44.8526 56.8336C45.3541 55.7535 46.9356 52.2432 47.7842 50.4688L47.6299 44.7598L42.731 40.0152L39.9537 40.4009L36.9063 45.3384C36.9063 45.3384 38.3335 47.1514 36.3277 49.273C34.3604 51.356 32.8174 51.8189 32.8174 51.8189L31.3902 51.0474C31.8145 50.5074 32.6631 49.6973 33.3189 49.1573C34.4375 48.2315 35.5562 48.1543 35.5562 47.1514C35.5948 45.0684 33.3574 45.647 33.3574 45.647L32.5474 46.4185L32.2002 49.273L30.503 51.3946L30.3101 51.356L27.5327 50.7388C27.5327 50.7388 29.23 49.8516 29.5 48.8487C29.77 47.8843 28.96 44.6826 28.9214 44.4898C28.96 44.5284 29.7315 45.1841 30.0786 46.2642C30.6958 44.5669 31.5059 42.9468 31.7373 42.7925C31.9688 42.6382 35.0933 40.9795 35.0933 40.9795L34.0518 43.7183L34.8233 43.294L36.6748 38.7422C36.6748 38.7422 38.4878 37.855 39.8379 37.855C42.2681 37.8164 45.8555 34.8462 44.2354 29.5229C44.6983 29.7158 52.7217 33.7275 54.1104 41.5967C55.1519 47.6529 51.7188 53.3233 45.9327 56.6021Z" fill="#94A6C3"/>
<path d="M28.0725 47.5374L28.3811 45.9944C28.3811 45.9944 27.1081 48.2317 26.9924 48.5403C26.8766 48.8875 27.0695 49.5047 27.571 49.4661C28.0725 49.4276 28.6897 48.6946 28.6897 48.1546C28.6897 47.4602 28.0725 47.5374 28.0725 47.5374Z" fill="#1B314F"/>
<path d="M36.7531 26.6683C37.6403 25.6268 37.2931 24.0839 37.2931 24.0839L34.7087 27.9027C34.6701 27.9027 35.6344 27.9413 36.7531 26.6683Z" fill="#1B314F"/>
<path d="M50.9867 23.0041C50.9867 23.0041 52.9154 23.0812 54.9213 23.3127C50.4081 19.7638 46.1263 18.7223 42.6546 18.7223C37.8714 18.7223 34.6312 20.6896 34.4383 20.8053L35.9427 18.4137C35.9427 18.4137 29.9251 17.8351 27.8035 24.1999C27.2635 22.8498 26.762 20.8825 26.762 20.8825C26.762 20.8825 23.6375 23.6213 25.1033 28.173C21.5159 26.8615 16.3855 25.0485 16.1927 25.0099C15.9227 24.9714 15.8455 25.0871 15.8455 25.0871C15.8455 25.0871 15.7684 25.2028 15.9998 25.3957C16.4241 25.7429 24.5247 31.7219 26.2991 32.8791C25.9134 34.2678 25.9134 34.9235 26.2991 35.5793C26.8392 36.4665 26.8778 36.9294 26.8006 37.5852C26.7235 38.2409 26.0291 43.9113 25.8748 44.6056C25.7205 45.3 24.1004 47.7687 24.1776 48.5016C24.2547 49.2346 25.2576 52.3591 26.1448 52.7062C26.8006 52.9377 28.4207 53.4392 29.5008 53.4392C29.8865 53.4392 30.2337 53.362 30.388 53.2077C31.0438 52.6291 31.2367 52.5134 31.6995 52.5134C31.7381 52.5134 31.7767 52.5134 31.8153 52.5134C32.0081 52.5134 32.2396 52.5519 32.5096 52.5519C33.1268 52.5519 33.9369 52.4363 34.5155 51.8962C35.3641 51.0476 36.8299 49.8903 37.2928 49.3503C37.8714 48.6174 38.18 47.6144 38.0257 46.6115C37.91 45.6857 38.4115 44.8757 38.9901 44.0656C39.723 43.1012 41.0731 41.3654 41.0731 41.3654C43.7347 43.3713 45.3934 46.4186 45.3934 49.8132C45.3934 55.8308 40.1473 60.6911 33.6668 60.6911C32.6639 60.6911 31.6995 60.5754 30.7352 60.3439C33.7054 61.3855 36.2127 61.7327 38.2572 61.7327C42.6161 61.7327 44.9305 60.1511 44.9305 60.1511C44.9305 60.1511 44.1205 61.1926 42.8089 62.3884C42.8475 62.3884 42.8475 62.3884 42.8475 62.3884C50.0609 61.3855 53.5712 55.445 53.5712 55.445C53.5712 55.445 53.3012 57.3737 52.954 58.6853C62.559 51.4719 60.9389 42.4455 60.9003 42.1369C60.9774 42.2527 61.9418 43.4098 62.4433 44.027C63.9864 28.1344 50.9867 23.0041 50.9867 23.0041ZM36.2127 48.3859C36.0584 48.5788 35.4027 49.1575 34.9398 49.5818C34.4769 50.0061 33.9754 50.4304 33.5897 50.8161C33.4354 50.9704 33.1268 51.0475 32.6639 51.0475C32.5096 51.0475 32.3553 51.0475 32.2396 51.0475C32.1624 51.0475 32.0853 51.0475 32.0081 51.0475C31.931 51.0475 31.8924 51.0475 31.8538 51.0475C31.7381 51.0475 31.6224 51.0475 31.5067 51.0475C32.0853 50.2761 33.7826 48.5016 34.3612 48.1159C35.0555 47.653 35.4027 47.1901 34.9784 46.3801C34.554 45.57 33.4354 45.7629 33.4354 45.7629C33.4354 45.7629 34.0912 45.4928 34.6698 45.4928C33.9369 45.3 33.0111 45.4929 32.5868 45.9172C32.1239 46.3415 32.201 47.8459 32.0081 48.8103C31.8153 49.8132 31.1595 50.3146 30.1566 51.2404C29.6165 51.7419 29.2308 51.8962 28.9222 51.8962C28.2664 51.7805 27.4949 51.5876 26.9549 51.3947C26.5692 50.8932 25.9905 49.2346 25.8362 48.5402C25.952 48.1545 26.4149 47.3445 26.6463 46.8816C27.1092 45.9944 27.3792 45.4928 27.4564 45.03C27.6107 44.3742 28.1121 40.3239 28.305 38.6267C28.8065 39.2824 29.5008 40.3625 29.3465 41.0569C30.4652 39.4753 29.6551 37.9323 29.2694 37.3151C28.9222 36.698 28.4593 35.4636 28.845 34.1521C29.2308 32.8405 30.6195 29.2145 30.6195 29.2145C30.6195 29.2145 31.0824 30.0246 31.7381 29.8703C32.3939 29.716 37.6786 21.7697 37.6786 21.7697C37.6786 21.7697 39.1058 24.8942 37.6014 27.1701C36.0584 29.446 34.554 29.8703 34.554 29.8703C34.554 29.8703 36.6756 30.2561 38.6429 28.8288C39.453 30.7189 40.2245 32.6862 40.263 32.9563C40.1473 33.2263 38.6043 36.9294 38.45 37.1608C38.3729 37.238 37.8329 37.3923 37.4471 37.4694C36.7914 37.6623 36.4056 37.778 36.2513 37.8938C35.9813 38.1252 34.7469 41.5197 34.1683 43.1784C33.474 43.3713 32.7796 43.757 32.2782 44.5285C32.5482 44.3356 33.3968 44.2199 34.014 44.1427C34.554 44.1042 36.2127 44.9914 36.6371 46.6501C36.6371 46.6887 36.6371 46.6887 36.6371 46.7272C36.7142 47.3444 36.5213 47.923 36.2127 48.3859ZM32.5868 48.8488C32.9339 48.3473 32.8953 47.4987 32.9339 47.2287C32.9725 46.9587 33.0496 46.4572 33.3582 46.3801C33.6668 46.3029 34.3997 46.4186 34.3997 46.9587C34.3997 47.4601 33.8597 47.5759 33.474 47.923C33.2039 48.193 32.6639 48.7717 32.5868 48.8488ZM47.9779 41.4812C48.3636 39.5139 48.4022 37.8166 48.2865 36.4279C49.7909 38.4338 50.7167 40.8639 50.9867 43.3713C51.0253 43.6799 51.3339 43.9885 51.6425 44.297C51.9125 44.5285 52.2211 44.8371 52.2211 45.03C52.2211 45.9172 52.1439 46.8044 51.9896 47.6916C51.9511 47.8073 51.6039 48.0002 51.3339 48.1545C50.9481 48.3473 50.6009 48.5402 50.5238 48.8488C49.6752 51.819 47.8622 54.4421 45.432 56.2936C49.0194 52.5519 50.7552 46.3801 47.9779 41.4812ZM45.5477 56.6408C48.055 54.7121 49.9838 52.0119 50.8324 48.9645C50.871 48.8488 51.2181 48.6559 51.4496 48.5016C51.8353 48.3088 52.2211 48.0773 52.2982 47.7687C52.4525 46.8815 52.5297 45.9557 52.5297 45.03C52.5297 44.6828 52.1825 44.3357 51.8353 43.9885C51.6425 43.7571 51.3339 43.487 51.3339 43.2941C51.0253 40.4782 49.9066 37.8166 48.1708 35.6179C47.3993 30.989 44.3133 29.5617 44.2362 29.5231C44.3133 29.6389 46.3192 32.5319 44.9305 35.9265C43.5033 39.3596 39.8387 38.8195 39.5301 38.8581C39.2215 38.8581 38.0257 40.401 36.5213 43.2555C36.3285 43.1784 35.5184 42.9855 34.5926 43.1398C35.287 41.2111 36.3285 38.4724 36.5213 38.2409C36.5985 38.1638 37.1771 38.0095 37.5628 37.8938C38.2957 37.7009 38.6429 37.5852 38.7586 37.4309C38.8358 37.3151 39.2215 36.4279 39.6073 35.5022C39.9544 35.5022 40.8417 35.425 40.9188 35.3864C40.9959 35.3093 41.7289 33.4191 41.7289 33.1877C41.7289 32.9948 40.2245 29.2531 39.6458 27.8259C39.9159 27.5173 40.1859 27.1315 40.4559 26.7072C48.3636 27.5559 54.5355 34.2678 54.5355 42.407C54.5355 48.656 50.871 54.0949 45.5477 56.6408Z" fill="#1B314F"/>
<path d="M56.7336 53.2076C56.155 53.9791 55.4992 54.7892 54.7277 55.5607C59.7038 45.9942 54.9592 37.2379 54.7663 36.8907C55.1135 37.2379 55.4606 37.6236 55.7692 37.9708C59.5881 42.2139 60.051 48.5787 56.7336 53.2076Z" fill="#D82122"/>
<path d="M35.2872 35.8104C36.0201 34.9618 35.6343 33.3803 34.2842 33.1102C34.6314 32.3002 35.1329 30.6801 35.1329 30.6801C35.1329 30.6801 31.1983 36.8519 30.8511 36.9677C30.504 37.0834 30.1568 35.7333 30.1568 35.7333C29.4239 38.5492 31.3912 38.935 31.6226 38.0477C32.7027 37.7777 34.5543 36.6205 35.2872 35.8104Z" fill="#1B314F"/>
<path d="M31.9303 37.3154L33.9361 33.8823C33.9361 33.8823 35.0934 34.4609 34.5148 35.3867C33.7818 36.4667 31.9303 37.3154 31.9303 37.3154Z" fill="#FFD923"/>
<path d="M61.3624 40.9026C59.6265 36.2351 57.1578 32.262 51.7188 28.6746C46.4727 25.2029 40.8409 25.4729 40.5323 25.5115C40.4937 25.5115 40.4551 25.5115 40.4551 25.5115C40.648 25.4343 40.8409 25.3957 41.0337 25.3572C42.2295 24.9714 43.7725 24.6628 45.3155 24.47C49.4043 23.8913 53.5318 25.28 56.3477 28.2502C56.3863 28.2888 56.3863 28.2888 56.4249 28.3274C59.6265 31.7219 61.2852 35.9651 61.3624 40.9026Z" fill="#D82122"/>
<path d="M29.2308 29.2146C24.7175 29.0604 26.222 23.8143 26.2991 23.5057C26.2991 23.5443 26.6077 27.6331 29.2308 29.2146Z" fill="#D82122"/>
<path d="M27.9591 30.6027C28.1906 30.7955 28.422 31.1427 28.152 31.6442C27.9977 31.9142 27.7663 31.8756 27.4191 31.7213C26.9562 31.4899 24.1789 29.8698 21.6715 28.2111C24.526 29.214 27.4191 30.2941 27.882 30.5255C27.882 30.5255 27.9206 30.5641 27.9591 30.6027Z" fill="white"/>
<path d="M50.4845 21.8079C44.7369 20.7278 41.0338 21.2679 38.3722 22.2708C38.295 21.9622 38.025 21.345 37.7935 20.8436C36.9835 21.8079 36.1348 22.9651 35.5948 23.698C34.129 24.701 33.5118 25.6653 33.5118 25.6653C34.3604 22.7723 36.8292 20.6121 39.838 20.0721C40.6866 19.9178 41.6124 19.8406 42.6153 19.8406C45.277 19.8792 47.9386 20.535 50.4845 21.8079Z" fill="#D82122"/>
<path d="M33.6663 19.764C30.1946 21.847 30.889 26.8231 30.889 26.8231C27.5716 21.7698 33.3963 19.8797 33.6663 19.764Z" fill="#D82122"/>
<defs>
<filter id="filter0_f_40_3748" x="16" y="13.6" width="59.3353" height="56.7864" filterUnits="userSpaceOnUse" color-interpolation-filters="sRGB">
<feFlood flood-opacity="0" result="BackgroundImageFix"/>
<feBlend mode="normal" in="SourceGraphic" in2="BackgroundImageFix" result="shape"/>
<feGaussianBlur stdDeviation="4" result="effect1_foregroundBlur_40_3748"/>
</filter>
</defs>
</svg>
