<svg width="80" height="80" viewBox="0 0 80 80" fill="none" xmlns="http://www.w3.org/2000/svg">
<g opacity="0.5" filter="url(#filter0_f_1981_1635)">
<path d="M18.3342 30.7751L19.7787 37.7089L18.861 38.3887L20.2206 39.4254L19.1839 40.2411L20.5435 41.4817L19.6937 42.0935L21.6481 44.3877L18.6923 53.5988L21.4458 62.9966L31.0817 60.3455L32.951 61.8759L36.7408 64.5101H43.2497L47.0565 61.8759L48.9256 60.3455L58.5615 62.9966L61.3316 53.5987L58.3398 44.3878L60.31 42.0935L59.4603 41.4817L60.8198 40.2411L59.7662 39.4254L61.1257 38.3887L60.225 37.709L61.6695 30.7752L59.5118 24.3359L45.7301 29.4845L34.2778 29.4858L20.4774 24.3342L18.3342 30.7751Z" fill="#F6851B"/>
</g>
<path d="M59.5127 18.3352L42.6031 30.8941L45.7301 23.4845L59.5127 18.3352Z" fill="#E2761B"/>
<path d="M20.4774 18.3342L37.251 31.0121L34.277 23.4836L20.4774 18.3342Z" fill="#E4761B"/>
<path d="M53.4292 47.4458L48.9257 54.3456L58.5616 56.9967L61.3317 47.5987L53.4292 47.4458Z" fill="#E4761B"/>
<path d="M18.6927 47.5987L21.4459 56.9967L31.0817 54.3456L26.5782 47.4458L18.6927 47.5987Z" fill="#E4761B"/>
<path d="M30.5385 35.7883L27.8534 39.85L37.4213 40.2748L37.0814 29.9932L30.5385 35.7883Z" fill="#E4761B"/>
<path d="M49.4523 35.7879L42.8244 29.8738L42.6035 40.2744L52.1544 39.8496L49.4523 35.7879Z" fill="#E4761B"/>
<path d="M31.082 54.3449L36.8262 51.5408L31.8638 47.666L31.082 54.3449Z" fill="#E4761B"/>
<path d="M43.1642 51.5408L48.9254 54.3449L48.1266 47.666L43.1642 51.5408Z" fill="#E4761B"/>
<path d="M48.9255 54.3466L43.1644 51.5425L43.6232 55.2983L43.5722 56.8787L48.9255 54.3466Z" fill="#D7C1B3"/>
<path d="M31.0816 54.3468L36.4349 56.879L36.4009 55.2985L36.8258 51.5427L31.0816 54.3468Z" fill="#D7C1B3"/>
<path d="M43.5726 56.8786L43.6236 55.2981L43.1987 54.9242H36.7918L36.4009 55.2981L36.4349 56.8786L31.0816 54.3464L32.951 55.8759L36.7408 58.5101H43.2497L47.0564 55.8759L48.9258 54.3464L43.5726 56.8786Z" fill="#C0AD9E"/>
<path d="M43.4694 45.1866L44.8799 42.2295L48.2788 43.776L43.4694 45.1866Z" fill="#233447"/>
<path d="M36.5194 45.1866L31.727 43.776L35.1089 42.2295L36.5194 45.1866Z" fill="#233447"/>
<path d="M31.0809 54.3463L31.8966 47.4465L26.5773 47.5995L31.0809 54.3463Z" fill="#CD6116"/>
<path d="M48.1092 47.4465L48.9249 54.3463L53.4285 47.5995L48.1092 47.4465Z" fill="#CD6116"/>
<path d="M52.1539 39.8501L42.603 40.275L43.4867 45.1864L44.8972 42.2293L48.2961 43.7758L52.1539 39.8501Z" fill="#CD6116"/>
<path d="M31.7262 43.7758L35.1252 42.2293L36.5187 45.1864L37.4194 40.275L27.8515 39.8501L31.7262 43.7758Z" fill="#CD6116"/>
<path d="M27.8517 39.8508L31.8624 47.6683L31.7264 43.7766L27.8517 39.8508Z" fill="#E4751F"/>
<path d="M48.2983 43.7758L48.1284 47.6676L52.1561 39.8501L48.2983 43.7758Z" fill="#E4751F"/>
<path d="M37.4213 40.2747L36.5206 45.1861L37.6423 50.9812L37.8972 43.3507L37.4213 40.2747Z" fill="#E4751F"/>
<path d="M42.6036 40.2747L42.1448 43.3337L42.3487 50.9812L43.4874 45.1861L42.6036 40.2747Z" fill="#E4751F"/>
<path d="M43.4879 45.1859L42.3492 50.9811L43.165 51.5419L48.1274 47.6671L48.2973 43.7754L43.4879 45.1859Z" fill="#F6851B"/>
<path d="M31.727 43.7754L31.8629 47.6671L36.8254 51.5419L37.6411 50.9811L36.5195 45.1859L31.727 43.7754Z" fill="#F6851B"/>
<path d="M43.164 51.5427L42.3483 50.9819H37.6408L36.8251 51.5427L36.4002 55.2985L36.7911 54.9246H43.198L43.6229 55.2985L43.164 51.5427Z" fill="#161616"/>
<path d="M60.225 31.7089L61.6695 24.7751L59.5112 18.3342L43.1625 30.4683L49.4505 35.7876L58.3386 38.3877L60.31 36.0935L59.4602 35.4817L60.8198 34.2411L59.7662 33.4254L61.1257 32.3887L60.225 31.7089Z" fill="#763D16"/>
<path d="M18.3342 24.7751L19.7787 31.7089L18.861 32.3887L20.2206 33.4254L19.1839 34.2411L20.5435 35.4817L19.6937 36.0935L21.6481 38.3877L30.5362 35.7876L36.8242 30.4683L20.4755 18.3342L18.3342 24.7751Z" fill="#763D16"/>
<path d="M58.3397 38.3878L49.4516 35.7876L52.1537 39.8493L48.126 47.6668L53.4283 47.5988H61.3308L58.3397 38.3878Z" fill="#F6851B"/>
<path d="M30.5375 35.7876L21.6494 38.3878L18.6923 47.5988H26.5778L31.8631 47.6668L27.8524 39.8493L30.5375 35.7876Z" fill="#F6851B"/>
<path d="M42.6025 40.2764L43.1633 30.4706L45.7465 23.4858H34.2752L36.8244 30.4706L37.4192 40.2764L37.6231 43.3694L37.6401 50.983H42.3476L42.3816 43.3694L42.6025 40.2764Z" fill="#F6851B"/>
<defs>
<filter id="filter0_f_1981_1635" x="3.33417" y="9.33423" width="73.3354" height="70.1758" filterUnits="userSpaceOnUse" color-interpolation-filters="sRGB">
<feFlood flood-opacity="0" result="BackgroundImageFix"/>
<feBlend mode="normal" in="SourceGraphic" in2="BackgroundImageFix" result="shape"/>
<feGaussianBlur stdDeviation="7.5" result="effect1_foregroundBlur_1981_1635"/>
</filter>
</defs>
</svg>
