<svg viewBox="0 0 40 40" fill="none" xmlns="http://www.w3.org/2000/svg">
<g clip-path="url(#clip0_4406_6715)">
<g opacity="0.5" filter="url(#filter0_f_4406_6715)">
<path fill-rule="evenodd" clip-rule="evenodd" d="M29.3059 27.5332C28.2832 28.6898 27.1458 29.2824 26.3716 29.5787C24.2115 30.3912 22.0227 30.3625 19.8817 29.4831C17.6929 28.5846 15.7335 26.7207 14.7777 24.6274C14.3476 23.6907 14.1182 22.7062 14.0895 21.7025C14.0799 21.4922 14.0799 21.2533 14.0799 21.2055V20.89C14.1086 19.4563 14.6821 18.0703 15.6761 16.9997C16.1254 16.5218 16.6415 16.149 17.2341 15.891C17.8171 15.6329 18.4575 15.4991 19.1457 15.4799C18.9068 15.6711 18.6869 15.8718 18.4766 16.1012C17.2819 17.3821 16.6224 19.1408 16.6224 21.0621C16.6224 22.9834 17.2819 24.7421 18.4766 26.023C19.1648 26.759 19.9868 27.3038 20.9235 27.6288C21.583 27.8582 22.2999 27.9729 23.0454 27.9729C24.2975 27.9729 26.104 27.6383 27.5855 26.0325C28.092 25.4877 28.503 24.8473 28.8089 24.1399H31.2558C30.8352 25.4112 30.1757 26.5773 29.3059 27.5332ZM12.9999 27.5332C11.4132 25.8413 10.5339 23.5377 10.5339 21.043C10.5339 18.5482 11.4132 16.2255 12.9999 14.5145C14.6056 12.7844 16.8327 11.8382 19.2508 11.8382C19.853 11.8382 20.4552 11.8955 21.0286 12.0102C24.0872 12.6315 26.4958 14.8778 27.4708 17.9651H25.0239C24.718 17.2578 24.3071 16.627 23.8005 16.0726C23.1219 15.3366 22.3094 14.8013 21.3823 14.4763C20.7228 14.2469 20.0059 14.1322 19.2604 14.1322C18.3428 14.1322 17.4826 14.3042 16.6893 14.6579C15.9342 14.9925 15.2651 15.4704 14.6917 16.0821C14.5483 16.2351 14.4145 16.388 14.2902 16.5505C13.4873 17.4394 12.9712 18.6151 12.7992 20.068C12.7609 20.3261 12.7418 20.5842 12.7418 20.8423V21.043V21.1099V21.1481V21.1672C12.7418 21.3297 12.7418 21.4922 12.7514 21.6452V21.7121C12.78 22.8973 13.0477 24.0635 13.5542 25.1627C14.4623 27.1509 16.154 28.9479 18.123 30.0853C16.1349 29.8559 14.3476 28.967 12.9999 27.5332ZM28.5413 13.7881C29.8412 14.8778 30.7396 16.3115 31.1793 17.9747H28.8567C28.1494 15.3844 26.5723 13.2719 24.46 11.9624C25.9893 12.1918 27.3847 12.8131 28.5413 13.7881ZM23.7909 26.0134C24.2975 25.4686 24.7085 24.8281 25.0143 24.1208H27.3083C27.1076 24.484 26.8686 24.809 26.5914 25.1053C25.4731 26.3097 24.1159 26.5965 23.141 26.6156C23.3704 26.4435 23.5902 26.2332 23.7909 26.0134ZM32.7946 22.7922H24.0872L23.9247 23.2414C23.6667 23.9583 23.2939 24.5892 22.8064 25.1149C22.319 25.6406 21.7551 26.0325 21.1147 26.281C20.4743 26.023 19.9103 25.6311 19.4324 25.1149C18.4671 24.0826 17.9414 22.6393 17.9414 21.0621C17.9414 19.4849 18.4671 18.0512 19.4324 17.0093C19.8817 16.5314 20.3978 16.1586 20.9904 15.9005C21.0382 15.8814 21.0955 15.8527 21.1433 15.8336C21.7742 16.0917 22.3285 16.474 22.8064 16.9902C23.2939 17.5159 23.6667 18.1468 23.9247 18.8636L24.0872 19.3129H32.8042C32.8042 16.6843 31.1315 14.2087 29.4111 12.7653C27.6428 11.2838 25.4349 10.5095 23.0263 10.5095C22.3954 10.5095 21.7742 10.5669 21.1625 10.6816C20.5412 10.5669 19.9008 10.5 19.2508 10.5C16.4599 10.5 13.8888 11.5992 12.025 13.6065C10.1994 15.566 9.19577 18.2041 9.19577 21.043C9.19577 23.8819 10.1994 26.5104 12.025 28.4413C13.8792 30.4103 16.4408 31.5 19.2413 31.5C19.8817 31.5 20.8184 31.5 21.5161 31.347C22.0896 31.4522 22.6631 31.5 23.2365 31.5C24.4409 31.5 25.6356 31.2706 26.8399 30.8213C27.7575 30.4772 29.0956 29.7794 30.2904 28.4221L30.3 28.4126C31.5043 27.1031 32.6512 25.1531 32.7946 22.7922Z" fill="url(#paint0_linear_4406_6715)"/>
</g>
<path fill-rule="evenodd" clip-rule="evenodd" d="M28.3059 26.5333C27.2832 27.6898 26.1458 28.2825 25.3716 28.5788C23.2115 29.3912 21.0227 29.3626 18.8817 28.4832C16.6929 27.5847 14.7335 25.7208 13.7777 23.6275C13.3476 22.6907 13.1182 21.7062 13.0895 20.7026C13.08 20.4923 13.08 20.2533 13.08 20.2055V19.8901C13.1086 18.4563 13.6821 17.0704 14.6762 15.9998C15.1254 15.5219 15.6415 15.1491 16.2341 14.891C16.8172 14.6329 17.4576 14.4991 18.1457 14.48C17.9068 14.6712 17.6869 14.8719 17.4767 15.1013C16.2819 16.3821 15.6224 18.1409 15.6224 20.0622C15.6224 21.9834 16.2819 23.7422 17.4767 25.023C18.1649 25.759 18.9868 26.3039 19.9235 26.6288C20.583 26.8582 21.2999 26.973 22.0454 26.973C23.2975 26.973 25.104 26.6384 26.5855 25.0326C27.0921 24.4877 27.5031 23.8473 27.8089 23.14H30.2558C29.8352 24.4113 29.1757 25.5774 28.3059 26.5333ZM11.9999 26.5333C10.4133 24.8414 9.53393 22.5378 9.53393 20.043C9.53393 17.5483 10.4133 15.2256 11.9999 13.5146C13.6057 11.7845 15.8327 10.8382 18.2509 10.8382C18.853 10.8382 19.4552 10.8956 20.0287 11.0103C23.0872 11.6316 25.4959 13.8778 26.4708 16.9652H24.0239C23.7181 16.2579 23.3071 15.627 22.8005 15.0726C22.1219 14.3366 21.3094 13.8014 20.3823 13.4764C19.7228 13.247 19.006 13.1323 18.2604 13.1323C17.3429 13.1323 16.4826 13.3043 15.6893 13.658C14.9342 13.9925 14.2652 14.4704 13.6917 15.0822C13.5483 15.2351 13.4145 15.3881 13.2902 15.5506C12.4874 16.4395 11.9712 17.6152 11.7992 19.0681C11.761 19.3262 11.7418 19.5842 11.7418 19.8423V20.043V20.11V20.1482V20.1673C11.7418 20.3298 11.7418 20.4923 11.7514 20.6452V20.7121C11.7801 21.8974 12.0477 23.0635 12.5543 24.1628C13.4623 26.1509 15.1541 27.9479 17.123 29.0854C15.1349 28.856 13.3476 27.967 11.9999 26.5333ZM27.5413 12.7882C28.8412 13.8778 29.7397 15.3116 30.1793 16.9748H27.8567C27.1494 14.3844 25.5723 12.272 23.46 10.9625C24.9893 11.1919 26.3848 11.8132 27.5413 12.7882ZM22.7909 25.0135C23.2975 24.4686 23.7085 23.8282 24.0144 23.1209H26.3083C26.1076 23.4841 25.8686 23.8091 25.5915 24.1054C24.4732 25.3098 23.1159 25.5965 22.141 25.6156C22.3704 25.4436 22.5902 25.2333 22.7909 25.0135ZM31.7946 21.7922H23.0872L22.9248 22.2415C22.6667 22.9584 22.2939 23.5892 21.8065 24.115C21.319 24.6407 20.7551 25.0326 20.1147 25.2811C19.4743 25.023 18.9104 24.6311 18.4325 24.115C17.4671 23.0826 16.9414 21.6393 16.9414 20.0622C16.9414 18.485 17.4671 17.0512 18.4325 16.0094C18.8817 15.5314 19.3978 15.1587 19.9904 14.9006C20.0382 14.8815 20.0956 14.8528 20.1434 14.8337C20.7742 15.0917 21.3286 15.4741 21.8065 15.9902C22.2939 16.516 22.6667 17.1468 22.9248 17.8637L23.0872 18.313H31.8042C31.8042 15.6844 30.1315 13.2087 28.4111 11.7654C26.6428 10.2838 24.4349 9.50959 22.0263 9.50959C21.3955 9.50959 20.7742 9.56694 20.1625 9.68164C19.5412 9.56694 18.9008 9.50003 18.2509 9.50003C15.4599 9.50003 12.8888 10.5993 11.025 12.6065C9.1994 14.566 8.1958 17.2042 8.1958 20.043C8.1958 22.8819 9.1994 25.5105 11.025 27.4413C12.8792 29.4104 15.4408 30.5 18.2413 30.5C18.8817 30.5 19.8184 30.5 20.5161 30.3471C21.0896 30.4522 21.6631 30.5 22.2366 30.5C23.4409 30.5 24.6357 30.2706 25.84 29.8214C26.7575 29.4773 28.0957 28.7795 29.2904 27.4222L29.3 27.4126C30.5043 26.1031 31.6513 24.1532 31.7946 21.7922Z" fill="url(#paint1_linear_4406_6715)"/>
</g>
<defs>
<filter id="filter0_f_4406_6715" x="0.774717" y="2.07892" width="40.4505" height="37.8421" filterUnits="userSpaceOnUse" color-interpolation-filters="sRGB">
<feFlood flood-opacity="0" result="BackgroundImageFix"/>
<feBlend mode="normal" in="SourceGraphic" in2="BackgroundImageFix" result="shape"/>
<feGaussianBlur stdDeviation="4.21053" result="effect1_foregroundBlur_4406_6715"/>
</filter>
<linearGradient id="paint0_linear_4406_6715" x1="28.2259" y1="30.892" x2="13.0468" y2="9.70154" gradientUnits="userSpaceOnUse">
<stop stop-color="#B9775D"/>
<stop offset="0.22" stop-color="#E89077"/>
<stop offset="0.78" stop-color="#FDBDA4"/>
<stop offset="1" stop-color="#B57359"/>
</linearGradient>
<linearGradient id="paint1_linear_4406_6715" x1="27.2259" y1="29.8921" x2="12.0468" y2="8.7016" gradientUnits="userSpaceOnUse">
<stop stop-color="#B9775D"/>
<stop offset="0.22" stop-color="#E89077"/>
<stop offset="0.78" stop-color="#FDBDA4"/>
<stop offset="1" stop-color="#B57359"/>
</linearGradient>
<clipPath id="clip0_4406_6715">
<rect width="40" height="40" fill="white"/>
</clipPath>
</defs>
</svg>
