<svg viewBox="0 0 40 40" fill="none" xmlns="http://www.w3.org/2000/svg">
<g clip-path="url(#clip0_4406_6644)">
<path fill-rule="evenodd" clip-rule="evenodd" d="M16.9816 28.5C15.7672 28.5 14.6927 27.7239 14.3256 26.5814L12.438 20.7083H11.2776C10.0632 20.7083 8.98872 19.9322 8.62158 18.7898L7.5 15.3H11.7069L9.48801 12H30.512L28.2931 15.3H32.5L31.3784 18.7898C31.0114 19.9322 29.9368 20.7083 28.7225 20.7083H27.5619L25.6744 26.5814C25.3073 27.7239 24.2328 28.5 23.0184 28.5H16.9816ZM15.5556 19.1041C15.5556 19.9901 16.2258 20.7083 17.0525 20.7083C17.8792 20.7083 18.5495 19.9901 18.5495 19.1041C18.5495 18.2182 17.8792 17.5 17.0525 17.5C16.2258 17.5 15.5556 18.2182 15.5556 19.1041ZM24.4445 19.1041C24.4445 19.9901 23.7742 20.7083 22.9476 20.7083C22.1208 20.7083 21.4506 19.9901 21.4506 19.1041C21.4506 18.2182 22.1208 17.5 22.9476 17.5C23.7742 17.5 24.4445 18.2182 24.4445 19.1041Z" fill="#1E64D7"/>
<g opacity="0.4" filter="url(#filter0_f_4406_6644)">
<path fill-rule="evenodd" clip-rule="evenodd" d="M17.9816 27.5C16.7672 27.5 15.6927 26.7239 15.3256 25.5814L13.438 19.7083H12.2776C11.0632 19.7083 9.98872 18.9322 9.62158 17.7898L8.5 14.3H12.7069L10.488 11H31.512L29.2931 14.3H33.5L32.3784 17.7898C32.0114 18.9322 30.9368 19.7083 29.7225 19.7083H28.5619L26.6744 25.5814C26.3073 26.7239 25.2328 27.5 24.0184 27.5H17.9816ZM16.5556 18.1042C16.5556 18.9901 17.2258 19.7083 18.0525 19.7083C18.8792 19.7083 19.5495 18.9901 19.5495 18.1042C19.5495 17.2182 18.8792 16.5 18.0525 16.5C17.2258 16.5 16.5556 17.2182 16.5556 18.1042ZM25.4445 18.1042C25.4445 18.9901 24.7742 19.7083 23.9476 19.7083C23.1208 19.7083 22.4506 18.9901 22.4506 18.1042C22.4506 17.2182 23.1208 16.5 23.9476 16.5C24.7742 16.5 25.4445 17.2182 25.4445 18.1042Z" fill="#1E64D7"/>
</g>
</g>
<defs>
<filter id="filter0_f_4406_6644" x="-4.13158" y="-1.63156" width="50.2632" height="41.7632" filterUnits="userSpaceOnUse" color-interpolation-filters="sRGB">
<feFlood flood-opacity="0" result="BackgroundImageFix"/>
<feBlend mode="normal" in="SourceGraphic" in2="BackgroundImageFix" result="shape"/>
<feGaussianBlur stdDeviation="6.31579" result="effect1_foregroundBlur_4406_6644"/>
</filter>
<clipPath id="clip0_4406_6644">
<rect width="40" height="40" fill="white"/>
</clipPath>
</defs>
</svg>
