<svg viewBox="0 0 40 40" fill="none" xmlns="http://www.w3.org/2000/svg">
<g clip-path="url(#clip0_4406_6641)">
<g opacity="0.5" filter="url(#filter0_f_4406_6641)">
<path d="M9.16669 14.3868L9.88892 17.8535L9.43009 18.1934L10.1098 18.7117L9.59153 19.1195L10.2713 19.7398L9.84644 20.0457L10.8236 21.1928L9.34576 25.7981L10.7224 30.4968L15.5402 29.1713L16.4748 29.9365L18.3696 31.2535H21.6239L23.5272 29.9365L24.4617 29.1713L29.2795 30.4968L30.6644 25.798L29.1686 21.1928L30.1536 20.0457L29.7288 19.7398L30.4085 19.1196L29.8817 18.7117L30.5615 18.1934L30.1112 17.8535L30.8334 14.3868L29.7546 11.1673L22.864 13.7415L17.1382 13.7422L10.2382 11.1665L9.16669 14.3868Z" fill="#F6851B"/>
</g>
<path d="M29.755 9.16711L21.3006 15.4463L22.864 11.7417L29.755 9.16711Z" fill="#E2761B"/>
<path d="M10.2382 9.16672L18.6246 15.5054L17.1377 11.7413L10.2382 9.16672Z" fill="#E4761B"/>
<path d="M26.7134 23.7218L24.4617 27.1715L29.2794 28.497L30.6644 23.7983L26.7134 23.7218Z" fill="#E4761B"/>
<path d="M9.34592 23.7983L10.7224 28.497L15.5401 27.1715L13.2885 23.7218L9.34592 23.7983Z" fill="#E4761B"/>
<path d="M15.2685 17.8934L13.926 19.9241L18.7098 20.1365L18.5398 14.9959L15.2685 17.8934Z" fill="#E4761B"/>
<path d="M24.725 17.8932L21.4112 14.9362L21.3008 20.1363L26.076 19.9239L24.725 17.8932Z" fill="#E4761B"/>
<path d="M15.5403 27.1712L18.4122 25.7693L15.9311 23.832L15.5403 27.1712Z" fill="#E4761B"/>
<path d="M21.5811 25.7693L24.4615 27.1712L24.0622 23.832L21.5811 25.7693Z" fill="#E4761B"/>
<path d="M24.4616 27.172L21.5812 25.7701L21.8106 27.6479L21.7851 28.4381L24.4616 27.172Z" fill="#D7C1B3"/>
<path d="M15.5401 27.1722L18.2166 28.4382L18.1996 27.648L18.412 25.7702L15.5401 27.1722Z" fill="#D7C1B3"/>
<path d="M21.7853 28.438L21.8108 27.6478L21.5984 27.4609H18.395L18.1996 27.6478L18.2166 28.438L15.5401 27.172L16.4748 27.9367L18.3696 29.2537H21.6239L23.5272 27.9367L24.4618 27.172L21.7853 28.438Z" fill="#C0AD9E"/>
<path d="M21.7337 22.5922L22.4389 21.1137L24.1383 21.8869L21.7337 22.5922Z" fill="#233447"/>
<path d="M18.2589 22.5922L15.8628 21.8869L17.5536 21.1137L18.2589 22.5922Z" fill="#233447"/>
<path d="M15.5397 27.1719L15.9476 23.7222L13.2881 23.7987L15.5397 27.1719Z" fill="#CD6116"/>
<path d="M24.0535 23.7222L24.4613 27.1719L26.713 23.7987L24.0535 23.7222Z" fill="#CD6116"/>
<path d="M26.0757 19.9242L21.3005 20.1366L21.7423 22.5922L22.4476 21.1138L24.147 21.887L26.0757 19.9242Z" fill="#CD6116"/>
<path d="M15.8624 21.887L17.5618 21.1138L18.2585 22.5922L18.7088 20.1366L13.9251 19.9242L15.8624 21.887Z" fill="#CD6116"/>
<path d="M13.9252 19.9246L15.9305 23.8331L15.8625 21.8873L13.9252 19.9246Z" fill="#E4751F"/>
<path d="M24.148 21.887L24.0631 23.8328L26.0768 19.9242L24.148 21.887Z" fill="#E4751F"/>
<path d="M18.7098 20.1365L18.2595 22.5921L18.8203 25.4895L18.9477 21.6744L18.7098 20.1365Z" fill="#E4751F"/>
<path d="M21.3008 20.1365L21.0714 21.6659L21.1734 25.4895L21.7427 22.5921L21.3008 20.1365Z" fill="#E4751F"/>
<path d="M21.7429 22.5919L21.1736 25.4893L21.5815 25.7697L24.0626 23.8324L24.1475 21.8867L21.7429 22.5919Z" fill="#F6851B"/>
<path d="M15.8628 21.8867L15.9307 23.8324L18.4118 25.7697L18.8197 25.4893L18.2589 22.5919L15.8628 21.8867Z" fill="#F6851B"/>
<path d="M21.581 25.7703L21.1732 25.4899H18.8195L18.4117 25.7703L18.1993 27.6481L18.3947 27.4611H21.598L21.8104 27.6481L21.581 25.7703Z" fill="#161616"/>
<path d="M30.1111 15.8538L30.8334 12.3871L29.7543 9.16675L21.5803 15.2335L24.7241 17.893L29.168 19.1931L30.1536 18.046L29.7288 17.7401L30.4085 17.1198L29.8817 16.712L30.5615 16.1937L30.1111 15.8538Z" fill="#763D16"/>
<path d="M9.16666 12.387L9.88889 15.8538L9.43006 16.1936L10.1098 16.7119L9.5915 17.1198L10.2712 17.7401L9.84641 18.0459L10.8235 19.193L15.2674 17.893L18.4112 15.2335L10.2373 9.16672L9.16666 12.387Z" fill="#763D16"/>
<path d="M29.1685 19.1929L24.7247 17.8929L26.0757 19.9237L24.0619 23.8322L26.7129 23.7982H30.664L29.1685 19.1929Z" fill="#F6851B"/>
<path d="M15.268 17.8929L10.8242 19.1929L9.34573 23.7982H13.2883L15.9308 23.8322L13.9255 19.9237L15.268 17.8929Z" fill="#F6851B"/>
<path d="M21.3003 20.1372L21.5807 15.2345L22.8722 11.7423H17.1368L18.4113 15.2345L18.7087 20.1372L18.8107 21.6836L18.8192 25.4902H21.1728L21.1898 21.6836L21.3003 20.1372Z" fill="#F6851B"/>
</g>
<defs>
<filter id="filter0_f_4406_6641" x="-2.41226" y="-0.412475" width="44.8246" height="43.2449" filterUnits="userSpaceOnUse" color-interpolation-filters="sRGB">
<feFlood flood-opacity="0" result="BackgroundImageFix"/>
<feBlend mode="normal" in="SourceGraphic" in2="BackgroundImageFix" result="shape"/>
<feGaussianBlur stdDeviation="5.78947" result="effect1_foregroundBlur_4406_6641"/>
</filter>
<clipPath id="clip0_4406_6641">
<rect width="40" height="40" fill="white"/>
</clipPath>
</defs>
</svg>
