<svg viewBox="0 0 81 80" fill="none" xmlns="http://www.w3.org/2000/svg">
<g opacity="0.4" filter="url(#filter0_f_1174_27032)">
<path fill-rule="evenodd" clip-rule="evenodd" d="M63.6397 40.2459C63.6397 51.3411 43.2749 61 43.2749 61C43.2749 61 22.9099 51.3411 22.9099 40.2459C22.9099 37.3649 22.9111 34.8215 22.9122 32.3898C22.9145 27.5552 22.9165 23.162 22.9087 17.434C35.84 11.5168 50.7115 11.5229 63.6397 17.4469V40.2459Z" fill="white"/>
<path fill-rule="evenodd" clip-rule="evenodd" d="M63.6397 40.2459C63.6397 51.3411 43.2749 61 43.2749 61C43.2749 61 22.9099 51.3411 22.9099 40.2459C22.9099 37.3649 22.9111 34.8215 22.9122 32.3898C22.9145 27.5552 22.9165 23.162 22.9087 17.434C35.84 11.5168 50.7115 11.5229 63.6397 17.4469V40.2459ZM41.6852 20.9253H39.0574V23.5314H36.4297V45.2527H39.0574V47.8595H41.6852V45.2527H44.3129V47.8595H46.9406V45.0022C50.2793 44.2981 52.1961 42.1423 52.1961 38.9415C52.1961 36.7051 50.751 34.6831 48.2786 34.0397C50.4621 33.3964 51.7145 31.5275 51.7145 29.4443C51.7145 26.48 49.9224 24.4015 46.9406 23.7492V20.9253H44.3129V23.5314H41.6852V20.9253ZM44.0079 26.9321C46.2235 26.9321 47.5079 27.9431 47.5079 29.6587C47.5079 31.3743 46.2877 32.3854 44.2326 32.3854H40.5399V26.9321H44.0079ZM44.2647 35.6941C46.7372 35.6941 47.9896 36.7051 47.9896 38.7271C47.9896 40.5652 46.4804 41.6989 44.04 41.6989H40.5399V35.6941H44.2647Z" fill="#1647DB"/>
</g>
<path fill-rule="evenodd" clip-rule="evenodd" d="M60.6397 43.2459C60.6397 54.3411 40.2749 64 40.2749 64C40.2749 64 19.9099 54.3411 19.9099 43.2459C19.9099 40.3649 19.9111 37.8215 19.9122 35.3898C19.9145 30.5552 19.9165 26.162 19.9087 20.434C32.84 14.5168 47.7115 14.5229 60.6397 20.4469V43.2459Z" fill="white"/>
<path fill-rule="evenodd" clip-rule="evenodd" d="M60.6397 43.2459C60.6397 54.3411 40.2749 64 40.2749 64C40.2749 64 19.9099 54.3411 19.9099 43.2459C19.9099 40.3649 19.9111 37.8215 19.9122 35.3898C19.9145 30.5552 19.9165 26.162 19.9087 20.434C32.84 14.5168 47.7115 14.5229 60.6397 20.4469V43.2459ZM38.6852 23.9253H36.0574V26.5314H33.4297V48.2527H36.0574V50.8595H38.6852V48.2527H41.3129V50.8595H43.9406V48.0022C47.2793 47.2981 49.1961 45.1423 49.1961 41.9415C49.1961 39.7051 47.751 37.6831 45.2786 37.0397C47.4621 36.3964 48.7145 34.5275 48.7145 32.4443C48.7145 29.48 46.9224 27.4015 43.9406 26.7492V23.9253H41.3129V26.5314H38.6852V23.9253ZM41.0079 29.9321C43.2235 29.9321 44.5079 30.9431 44.5079 32.6587C44.5079 34.3743 43.2877 35.3854 41.2326 35.3854H37.5399V29.9321H41.0079ZM41.2647 38.6941C43.7372 38.6941 44.9896 39.7051 44.9896 41.7271C44.9896 43.5652 43.4804 44.6989 41.04 44.6989H37.5399V38.6941H41.2647Z" fill="#1647DB"/>
<defs>
<filter id="filter0_f_1174_27032" x="10.9087" y="1" width="64.731" height="72" filterUnits="userSpaceOnUse" color-interpolation-filters="sRGB">
<feFlood flood-opacity="0" result="BackgroundImageFix"/>
<feBlend mode="normal" in="SourceGraphic" in2="BackgroundImageFix" result="shape"/>
<feGaussianBlur stdDeviation="6" result="effect1_foregroundBlur_1174_27032"/>
</filter>
</defs>
</svg>
