<svg viewBox="0 0 40 40" fill="none" xmlns="http://www.w3.org/2000/svg">
<g clip-path="url(#clip0_4406_6718)">
<g opacity="0.5" filter="url(#filter0_f_4406_6718)">
<path fill-rule="evenodd" clip-rule="evenodd" d="M26.9788 10.7026L27.828 10.5L34.4718 23.6332L34.2652 24.2405L21.1938 30.5H20.8062L7.7348 24.2409L7.52817 23.6335L14.172 10.5004L15.0212 10.703V22.765L20.6853 17.1948L21.3147 17.1948L26.9788 22.7646V10.7026ZM27.6099 24.2841L23.2705 28.5103L32.0954 24.2843L27.6099 24.2841ZM33.3413 23.3869L27.8763 23.3866V12.5838L33.3413 23.3869ZM21.4488 29.0317L26.7859 23.8337L21.4488 18.5855V29.0317ZM20.5513 18.5855V29.0317L15.2141 23.8342L20.5513 18.5855ZM14.1237 23.387L8.6586 23.3873L14.1237 12.5842V23.387ZM9.90468 24.2847L18.7293 28.5104L14.39 24.2845L9.90468 24.2847Z" fill="#00F554"/>
</g>
<path fill-rule="evenodd" clip-rule="evenodd" d="M25.9788 10.2026L26.828 10L33.4718 23.1332L33.2652 23.7405L20.1938 30H19.8062L6.7348 23.7409L6.52817 23.1335L13.172 10.0004L14.0212 10.203V22.265L19.6853 16.6949L20.3147 16.6948L25.9788 22.2646V10.2026ZM26.6099 23.7841L22.2705 28.0103L31.0954 23.7843L26.6099 23.7841ZM32.3413 22.8869L26.8763 22.8866V12.0839L32.3413 22.8869ZM20.4488 28.5318L25.7859 23.3338L20.4488 18.0855V28.5318ZM19.5513 18.0856V28.5318L14.2141 23.3342L19.5513 18.0856ZM13.1237 22.887L7.6586 22.8873L13.1237 12.0843V22.887ZM8.90468 23.7848L17.7293 28.0104L13.39 23.7845L8.90468 23.7848Z" fill="#00F554"/>
</g>
<defs>
<filter id="filter0_f_4406_6718" x="-0.892885" y="2.07893" width="43.7858" height="36.8421" filterUnits="userSpaceOnUse" color-interpolation-filters="sRGB">
<feFlood flood-opacity="0" result="BackgroundImageFix"/>
<feBlend mode="normal" in="SourceGraphic" in2="BackgroundImageFix" result="shape"/>
<feGaussianBlur stdDeviation="4.21053" result="effect1_foregroundBlur_4406_6718"/>
</filter>
<clipPath id="clip0_4406_6718">
<rect width="40" height="40" fill="white"/>
</clipPath>
</defs>
</svg>
