<svg width="80" height="80" viewBox="0 0 80 80" fill="none" xmlns="http://www.w3.org/2000/svg">
<path d="M31.3675 21.7448C30.8116 21.6584 30.7881 21.6482 31.0498 21.608C31.5512 21.5307 32.7351 21.636 33.551 21.8303C35.4557 22.2838 37.189 23.4455 39.039 25.5085L39.5306 26.0566L40.2336 25.9434C43.1958 25.4667 46.2092 25.8455 48.7296 27.0117C49.4229 27.3325 50.5162 27.9712 50.6527 28.1353C50.6963 28.1875 50.7763 28.5243 50.8303 28.8835C51.0175 30.1264 50.9239 31.0791 50.5443 31.7906C50.3377 32.1779 50.3262 32.3006 50.4651 32.632C50.5759 32.8965 50.8849 33.0921 51.191 33.0918C51.8174 33.0909 52.4915 32.0768 52.8038 30.6658L52.9279 30.1053L53.1737 30.3841C54.522 31.9141 55.581 34.0006 55.7628 35.4857L55.8102 35.8729L55.5837 35.5209C55.1936 34.9152 54.8017 34.5028 54.2999 34.1702C53.3953 33.5707 52.4388 33.3667 49.9057 33.233C47.6179 33.1122 46.3231 32.9166 45.0391 32.4972C42.8547 31.7839 41.7535 30.8339 39.1587 27.4241C38.0061 25.9097 37.2937 25.0717 36.5851 24.3969C34.975 22.8636 33.3928 22.0594 31.3675 21.7448Z" fill="#FF007A"/>
<path d="M51.1688 25.1267C51.2264 24.1119 51.3638 23.4424 51.6401 22.8312C51.7494 22.5892 51.8519 22.3911 51.8677 22.3911C51.8835 22.3911 51.836 22.5697 51.7621 22.788C51.5612 23.3813 51.5283 24.1927 51.6665 25.1369C51.8422 26.3348 51.942 26.5076 53.2062 27.8016C53.7991 28.4086 54.4888 29.174 54.7388 29.5027L55.1934 30.1003L54.7388 29.6732C54.1828 29.151 52.9043 28.1325 52.6219 27.9868C52.4326 27.8892 52.4044 27.8908 52.2876 28.0073C52.1799 28.1146 52.1573 28.2758 52.1423 29.038C52.1191 30.2259 51.9574 30.9884 51.5673 31.7508C51.3563 32.1631 51.323 32.0751 51.514 31.6097C51.6565 31.2622 51.671 31.1094 51.67 29.9594C51.6678 27.6489 51.3939 27.0934 49.7877 26.1418C49.3808 25.9008 48.7104 25.5531 48.2979 25.3692C47.8854 25.1854 47.5577 25.0252 47.5696 25.0133C47.6151 24.9679 49.1815 25.4258 49.812 25.6686C50.7497 26.03 50.9045 26.0768 51.0185 26.0332C51.0948 26.004 51.1317 25.7813 51.1688 25.1267Z" fill="#FF007A"/>
<path d="M32.4475 29.0794C31.3188 27.523 30.6205 25.1367 30.7716 23.3528L30.8184 22.8008L31.0753 22.8478C31.5578 22.9359 32.3897 23.2461 32.7793 23.483C33.8482 24.1333 34.311 24.9893 34.7819 27.1877C34.9198 27.8316 35.1007 28.5602 35.184 28.807C35.318 29.2041 35.8245 30.1316 36.2363 30.7339C36.5329 31.1677 36.3359 31.3733 35.6802 31.314C34.6789 31.2235 33.3226 30.286 32.4475 29.0794Z" fill="#FF007A"/>
<path d="M49.7997 40.6628C44.5248 38.5356 42.667 36.6892 42.667 33.5738C42.667 33.1154 42.6828 32.7402 42.7019 32.7402C42.7211 32.7402 42.9253 32.8916 43.1555 33.0765C44.2251 33.9357 45.4229 34.3028 48.7389 34.7873C50.6901 35.0724 51.7882 35.3027 52.8012 35.6392C56.0208 36.7086 58.0127 38.8788 58.4877 41.8349C58.6258 42.6938 58.5448 44.3045 58.321 45.1534C58.1443 45.824 57.6052 47.0325 57.4622 47.0789C57.4225 47.0917 57.3837 46.9396 57.3735 46.7325C57.3193 45.6226 56.7592 44.5419 55.8187 43.7324C54.7494 42.8121 53.3126 42.0793 49.7997 40.6628Z" fill="#FF007A"/>
<path d="M46.0966 41.5463C46.0305 41.1525 45.9159 40.6494 45.8418 40.4285L45.7073 40.0269L45.9573 40.3079C46.3032 40.6968 46.5766 41.1945 46.8083 41.8573C46.9851 42.3632 47.005 42.5137 47.0037 43.3358C47.0024 44.1429 46.9803 44.3121 46.817 44.7674C46.5595 45.4855 46.2399 45.9947 45.7037 46.5412C44.7401 47.5234 43.5013 48.0671 41.7136 48.2927C41.4028 48.3319 40.4972 48.398 39.7009 48.4394C37.6942 48.5439 36.3735 48.7599 35.1868 49.1772C35.0162 49.2373 34.8638 49.2737 34.8484 49.2583C34.8004 49.2104 35.6084 48.7279 36.2758 48.406C37.2168 47.952 38.1535 47.7043 40.2523 47.3542C41.2891 47.1812 42.3598 46.9714 42.6317 46.8879C45.1992 46.0995 46.5189 44.0649 46.0966 41.5463Z" fill="#FF007A"/>
<path d="M48.5146 45.8474C47.8138 44.3384 47.6529 42.8816 48.0368 41.5228C48.0779 41.3776 48.1439 41.2588 48.1837 41.2588C48.2234 41.2588 48.3888 41.3484 48.5512 41.4578C48.8741 41.6756 49.5218 42.0423 51.2475 42.9846C53.4009 44.1605 54.6286 45.071 55.4636 46.1112C56.1947 47.0223 56.6472 48.0599 56.865 49.3252C56.9883 50.0419 56.9161 51.7664 56.7325 52.4881C56.1535 54.7637 54.8079 56.5511 52.8886 57.5941C52.6074 57.7469 52.355 57.8724 52.3277 57.873C52.3004 57.8735 52.4028 57.6126 52.5554 57.2931C53.201 55.9414 53.2745 54.6266 52.7864 53.163C52.4875 52.2669 51.8782 51.1735 50.6478 49.3255C49.2173 47.1769 48.8665 46.6051 48.5146 45.8474Z" fill="#FF007A"/>
<path d="M28.7015 53.9889C30.659 52.3335 33.0945 51.1575 35.3132 50.7966C36.2693 50.6409 37.8621 50.7027 38.7475 50.9296C40.1667 51.2934 41.4362 52.1082 42.0965 53.0789C42.7418 54.0277 43.0186 54.8544 43.3069 56.694C43.4205 57.4196 43.5442 58.1482 43.5816 58.3132C43.798 59.2665 44.2193 60.0286 44.7412 60.4112C45.5702 61.0189 46.9978 61.0568 48.402 60.5082C48.6404 60.415 48.8473 60.3506 48.8619 60.3652C48.9128 60.4158 48.2057 60.89 47.7068 61.1395C47.0356 61.4753 46.5018 61.6052 45.7925 61.6052C44.5064 61.6052 43.4386 60.9498 42.5475 59.6137C42.3723 59.3507 41.9781 58.563 41.6718 57.8634C40.7311 55.7143 40.2665 55.0596 39.1742 54.3432C38.2236 53.7197 36.9977 53.6081 36.0755 54.061C34.864 54.6559 34.526 56.2064 35.3937 57.1891C35.7385 57.5796 36.3816 57.9164 36.9075 57.9819C37.8912 58.1045 38.7366 57.3549 38.7366 56.3602C38.7366 55.7142 38.4887 55.3457 37.8647 55.0636C37.0124 54.6785 36.0964 55.1286 36.1008 55.9306C36.1027 56.2725 36.2513 56.4872 36.5935 56.6423C36.8131 56.7418 36.8182 56.7497 36.6391 56.7124C35.8571 56.55 35.674 55.6059 36.3027 54.979C37.0575 54.2265 38.6185 54.5586 39.1546 55.5858C39.3797 56.0171 39.4059 56.8764 39.2096 57.3953C38.7701 58.5565 37.4889 59.1672 36.1892 58.8349C35.3043 58.6086 34.9441 58.3636 33.8772 57.263C32.0233 55.3503 31.3036 54.9797 28.6309 54.5618L28.1187 54.4817L28.7015 53.9889Z" fill="#FF007A"/>
<path fill-rule="evenodd" clip-rule="evenodd" d="M14.7221 11.144C20.9132 18.67 30.458 30.3874 30.932 31.0435C31.3232 31.5851 31.176 32.0721 30.5057 32.4537C30.133 32.666 29.3666 32.881 28.9829 32.881C28.549 32.881 28.0601 32.6717 27.7041 32.3334C27.4524 32.0944 26.4368 30.5755 24.0922 26.9319C22.2983 24.144 20.797 21.8312 20.7561 21.7925C20.6614 21.7029 20.663 21.706 23.9093 27.5236C25.9477 31.1766 26.6359 32.4681 26.6359 32.6408C26.6359 32.9921 26.5402 33.1768 26.1075 33.6602C25.3862 34.4661 25.0638 35.3717 24.831 37.2459C24.57 39.3469 23.8363 40.831 21.8028 43.371C20.6125 44.8579 20.4177 45.1304 20.1173 45.7297C19.739 46.4843 19.635 46.907 19.5928 47.8599C19.5483 48.8675 19.6351 49.5184 19.9424 50.4817C20.2115 51.3251 20.4923 51.8819 21.2103 52.9958C21.8299 53.957 22.1868 54.6713 22.1868 54.9507C22.1868 55.1731 22.2291 55.1734 23.1893 54.9562C25.4871 54.4365 27.3529 53.5225 28.4023 52.4023C29.0517 51.709 29.2042 51.3262 29.2091 50.3761C29.2123 49.7547 29.1905 49.6245 29.0229 49.267C28.7498 48.6852 28.2528 48.2013 27.1573 47.4513C25.7219 46.4686 25.1089 45.6774 24.9395 44.5893C24.8005 43.6965 24.9618 43.0666 25.7558 41.3997C26.5777 39.6744 26.7814 38.9392 26.9192 37.2001C27.0082 36.0765 27.1314 35.6333 27.4537 35.2777C27.7898 34.9068 28.0925 34.7812 28.9244 34.6674C30.2807 34.4818 31.1443 34.1304 31.8542 33.4752C32.47 32.9068 32.7277 32.3592 32.7673 31.5347L32.7973 30.9098L32.4531 30.508C31.2069 29.0526 13.8874 10 13.8107 10C13.7944 10 14.2045 10.5149 14.7221 11.144ZM22.8863 49C23.1681 48.5002 23.0184 47.8576 22.5471 47.5438C22.1017 47.2472 21.4099 47.3869 21.4099 47.7734C21.4099 47.8913 21.475 47.9772 21.6218 48.0528C21.8688 48.1802 21.8868 48.3233 21.6924 48.6161C21.4955 48.9125 21.5114 49.1731 21.7372 49.3501C22.1012 49.6356 22.6164 49.4786 22.8863 49Z" fill="#FF007A"/>
<path fill-rule="evenodd" clip-rule="evenodd" d="M33.6532 34.9951C33.0165 35.191 32.3976 35.8669 32.2059 36.5756C32.089 37.0079 32.1554 37.7663 32.3305 38.0005C32.6133 38.3788 32.8868 38.4785 33.6275 38.4733C35.0774 38.4632 36.3379 37.8403 36.4845 37.0616C36.6047 36.4234 36.051 35.5388 35.2885 35.1505C34.8949 34.9501 34.0581 34.8707 33.6532 34.9951ZM35.3482 36.3226C35.5719 36.0045 35.474 35.6605 35.0937 35.428C34.3695 34.985 33.2743 35.3515 33.2743 36.0368C33.2743 36.3779 33.8454 36.75 34.369 36.75C34.7174 36.75 35.1942 36.542 35.3482 36.3226Z" fill="#FF007A"/>
<g opacity="0.5" filter="url(#filter0_f_1687_1314)">
<path d="M33.5572 21.7448C33.0013 21.6584 32.9778 21.6482 33.2395 21.608C33.7409 21.5307 34.9248 21.636 35.7408 21.8303C37.6455 22.2838 39.3787 23.4455 41.2288 25.5085L41.7203 26.0566L42.4234 25.9434C45.3855 25.4667 48.3989 25.8455 50.9193 27.0117C51.6127 27.3325 52.7059 27.9712 52.8425 28.1353C52.8861 28.1875 52.966 28.5243 53.0201 28.8835C53.2072 30.1264 53.1136 31.0791 52.734 31.7906C52.5275 32.1779 52.516 32.3006 52.6548 32.632C52.7657 32.8965 53.0747 33.0921 53.3807 33.0918C54.0071 33.0909 54.6812 32.0768 54.9936 30.6658L55.1177 30.1053L55.3635 30.3841C56.7117 31.9141 57.7707 34.0006 57.9526 35.4857L58 35.8729L57.7734 35.5209C57.3833 34.9152 56.9914 34.5028 56.4896 34.1702C55.585 33.5707 54.6285 33.3667 52.0954 33.233C49.8076 33.1122 48.5128 32.9166 47.2289 32.4972C45.0445 31.7839 43.9432 30.8339 41.3484 27.4241C40.1959 25.9097 39.4835 25.0717 38.7749 24.3969C37.1647 22.8636 35.5825 22.0594 33.5572 21.7448Z" fill="#FF007A"/>
<path d="M53.3585 25.1267C53.4161 24.1119 53.5535 23.4424 53.8298 22.8312C53.9391 22.5892 54.0416 22.3911 54.0574 22.3911C54.0732 22.3911 54.0257 22.5697 53.9518 22.788C53.7509 23.3813 53.718 24.1927 53.8563 25.1369C54.0319 26.3348 54.1318 26.5076 55.3959 27.8016C55.9889 28.4086 56.6785 29.174 56.9285 29.5027L57.3831 30.1003L56.9285 29.6732C56.3726 29.151 55.094 28.1325 54.8116 27.9868C54.6223 27.8892 54.5942 27.8908 54.4773 28.0073C54.3697 28.1146 54.347 28.2758 54.3321 29.038C54.3089 30.2259 54.1472 30.9884 53.757 31.7508C53.546 32.1631 53.5127 32.0751 53.7037 31.6097C53.8463 31.2622 53.8607 31.1094 53.8597 29.9594C53.8575 27.6489 53.5836 27.0934 51.9774 26.1418C51.5705 25.9008 50.9001 25.5531 50.4876 25.3692C50.0751 25.1854 49.7475 25.0252 49.7594 25.0133C49.8048 24.9679 51.3712 25.4258 52.0017 25.6686C52.9394 26.03 53.0943 26.0768 53.2082 26.0332C53.2845 26.004 53.3214 25.7813 53.3585 25.1267Z" fill="#FF007A"/>
<path d="M34.6373 29.0794C33.5085 27.523 32.8102 25.1367 32.9613 23.3528L33.0081 22.8008L33.265 22.8478C33.7476 22.9359 34.5794 23.2461 34.969 23.483C36.038 24.1333 36.5008 24.9893 36.9716 27.1877C37.1095 27.8316 37.2904 28.5602 37.3737 28.807C37.5078 29.2041 38.0142 30.1316 38.426 30.7339C38.7226 31.1677 38.5256 31.3733 37.87 31.314C36.8687 31.2235 35.5123 30.286 34.6373 29.0794Z" fill="#FF007A"/>
<path d="M51.9894 40.6628C46.7145 38.5356 44.8567 36.6892 44.8567 33.5738C44.8567 33.1154 44.8725 32.7402 44.8916 32.7402C44.9109 32.7402 45.115 32.8916 45.3452 33.0765C46.4148 33.9357 47.6127 34.3028 50.9286 34.7873C52.8799 35.0724 53.978 35.3027 54.9909 35.6392C58.2105 36.7086 60.2024 38.8788 60.6774 41.8349C60.8155 42.6938 60.7345 44.3045 60.5107 45.1534C60.3341 45.824 59.795 47.0325 59.6519 47.0789C59.6122 47.0917 59.5734 46.9396 59.5632 46.7325C59.509 45.6226 58.9489 44.5419 58.0084 43.7324C56.9391 42.8121 55.5023 42.0793 51.9894 40.6628Z" fill="#FF007A"/>
<path d="M48.2863 41.5463C48.2202 41.1525 48.1056 40.6494 48.0316 40.4285L47.897 40.0269L48.147 40.3079C48.4929 40.6968 48.7663 41.1945 48.998 41.8573C49.1749 42.3632 49.1948 42.5137 49.1934 43.3358C49.1921 44.1429 49.17 44.3121 49.0067 44.7674C48.7492 45.4855 48.4296 45.9947 47.8934 46.5412C46.9299 47.5234 45.691 48.0671 43.9034 48.2927C43.5926 48.3319 42.6869 48.398 41.8906 48.4394C39.8839 48.5439 38.5632 48.7599 37.3766 49.1772C37.2059 49.2373 37.0536 49.2737 37.0381 49.2583C36.9901 49.2104 37.7981 48.7279 38.4655 48.406C39.4065 47.952 40.3432 47.7043 42.442 47.3542C43.4788 47.1812 44.5495 46.9714 44.8214 46.8879C47.3889 46.0995 48.7087 44.0649 48.2863 41.5463Z" fill="#FF007A"/>
<path d="M50.7043 45.8474C50.0036 44.3384 49.8426 42.8816 50.2265 41.5228C50.2676 41.3776 50.3337 41.2588 50.3735 41.2588C50.4131 41.2588 50.5785 41.3484 50.7409 41.4578C51.0639 41.6756 51.7116 42.0423 53.4373 42.9846C55.5906 44.1605 56.8183 45.071 57.6533 46.1112C58.3844 47.0223 58.8369 48.0599 59.0548 49.3252C59.178 50.0419 59.1058 51.7664 58.9222 52.4881C58.3432 54.7637 56.9976 56.5511 55.0784 57.5941C54.7971 57.7469 54.5448 57.8724 54.5175 57.873C54.4901 57.8735 54.5925 57.6126 54.7451 57.2931C55.3908 55.9414 55.4642 54.6266 54.9761 53.163C54.6772 52.2669 54.0679 51.1735 52.8375 49.3255C51.407 47.1769 51.0563 46.6051 50.7043 45.8474Z" fill="#FF007A"/>
<path d="M30.8912 53.9889C32.8487 52.3335 35.2843 51.1575 37.5029 50.7966C38.459 50.6409 40.0518 50.7027 40.9372 50.9296C42.3565 51.2934 43.6259 52.1082 44.2862 53.0789C44.9315 54.0277 45.2083 54.8544 45.4966 56.694C45.6102 57.4196 45.7339 58.1482 45.7713 58.3132C45.9877 59.2665 46.409 60.0286 46.9309 60.4112C47.76 61.0189 49.1875 61.0568 50.5918 60.5082C50.8301 60.415 51.037 60.3506 51.0516 60.3652C51.1025 60.4158 50.3954 60.89 49.8965 61.1395C49.2253 61.4753 48.6915 61.6052 47.9823 61.6052C46.6961 61.6052 45.6283 60.9498 44.7373 59.6137C44.562 59.3507 44.1678 58.563 43.8615 57.8634C42.9208 55.7143 42.4562 55.0596 41.3639 54.3432C40.4133 53.7197 39.1874 53.6081 38.2652 54.061C37.0537 54.6559 36.7157 56.2064 37.5834 57.1891C37.9282 57.5796 38.5713 57.9164 39.0972 57.9819C40.0809 58.1045 40.9263 57.3549 40.9263 56.3602C40.9263 55.7142 40.6784 55.3457 40.0545 55.0636C39.2022 54.6785 38.2861 55.1286 38.2905 55.9306C38.2924 56.2725 38.441 56.4872 38.7833 56.6423C39.0028 56.7418 39.0079 56.7497 38.8288 56.7124C38.0469 56.55 37.8637 55.6059 38.4924 54.979C39.2473 54.2265 40.8082 54.5586 41.3443 55.5858C41.5695 56.0171 41.5956 56.8764 41.3993 57.3953C40.9598 58.5565 39.6786 59.1672 38.3789 58.8349C37.4941 58.6086 37.1338 58.3636 36.0669 57.263C34.213 55.3503 33.4933 54.9797 30.8206 54.5618L30.3084 54.4817L30.8912 53.9889Z" fill="#FF007A"/>
<path fill-rule="evenodd" clip-rule="evenodd" d="M16.9118 11.144C23.1029 18.67 32.6478 30.3874 33.1217 31.0435C33.5129 31.5851 33.3657 32.0721 32.6954 32.4537C32.3227 32.666 31.5563 32.881 31.1726 32.881C30.7387 32.881 30.2498 32.6717 29.8938 32.3334C29.6421 32.0944 28.6265 30.5755 26.282 26.9319C24.488 24.144 22.9867 21.8312 22.9458 21.7925C22.8511 21.7029 22.8527 21.706 26.0991 27.5236C28.1375 31.1766 28.8256 32.4681 28.8256 32.6408C28.8256 32.9921 28.73 33.1768 28.2973 33.6602C27.5759 34.4661 27.2535 35.3717 27.0207 37.2459C26.7597 39.3469 26.026 40.831 23.9925 43.371C22.8022 44.8579 22.6074 45.1304 22.3071 45.7297C21.9287 46.4843 21.8247 46.907 21.7825 47.8599C21.738 48.8675 21.8248 49.5184 22.1322 50.4817C22.4012 51.3251 22.682 51.8819 23.4 52.9958C24.0196 53.957 24.3765 54.6713 24.3765 54.9507C24.3765 55.1731 24.4189 55.1734 25.3791 54.9562C27.6768 54.4365 29.5427 53.5225 30.592 52.4023C31.2414 51.709 31.3939 51.3262 31.3988 50.3761C31.4021 49.7547 31.3803 49.6245 31.2126 49.267C30.9396 48.6852 30.4425 48.2013 29.347 47.4513C27.9117 46.4686 27.2986 45.6774 27.1292 44.5893C26.9903 43.6965 27.1515 43.0666 27.9455 41.3997C28.7675 39.6744 28.9711 38.9392 29.1089 37.2001C29.1979 36.0765 29.3211 35.6333 29.6434 35.2777C29.9796 34.9068 30.2822 34.7812 31.1141 34.6674C32.4704 34.4818 33.334 34.1304 34.0439 33.4752C34.6597 32.9068 34.9174 32.3592 34.957 31.5347L34.987 30.9098L34.6429 30.508C33.3966 29.0526 16.0772 10 16.0005 10C15.9841 10 16.3942 10.5149 16.9118 11.144ZM25.0761 49C25.3578 48.5002 25.2081 47.8576 24.7368 47.5438C24.2914 47.2472 23.5996 47.3869 23.5996 47.7734C23.5996 47.8913 23.6648 47.9772 23.8115 48.0528C24.0586 48.1802 24.0766 48.3233 23.8821 48.6161C23.6852 48.9125 23.7011 49.1731 23.927 49.3501C24.291 49.6356 24.8062 49.4786 25.0761 49Z" fill="#FF007A"/>
<path fill-rule="evenodd" clip-rule="evenodd" d="M35.8429 34.9951C35.2062 35.191 34.5873 35.8669 34.3956 36.5756C34.2788 37.0079 34.3451 37.7663 34.5202 38.0005C34.803 38.3788 35.0765 38.4785 35.8172 38.4733C37.2671 38.4632 38.5277 37.8403 38.6742 37.0616C38.7944 36.4234 38.2407 35.5388 37.4782 35.1505C37.0847 34.9501 36.2478 34.8707 35.8429 34.9951ZM37.538 36.3226C37.7616 36.0045 37.6638 35.6605 37.2835 35.428C36.5593 34.985 35.464 35.3515 35.464 36.0368C35.464 36.3779 36.0351 36.75 36.5587 36.75C36.9071 36.75 37.384 36.542 37.538 36.3226Z" fill="#FF007A"/>
</g>
<defs>
<filter id="filter0_f_1687_1314" x="8" y="2" width="60.7453" height="67.605" filterUnits="userSpaceOnUse" color-interpolation-filters="sRGB">
<feFlood flood-opacity="0" result="BackgroundImageFix"/>
<feBlend mode="normal" in="SourceGraphic" in2="BackgroundImageFix" result="shape"/>
<feGaussianBlur stdDeviation="4" result="effect1_foregroundBlur_1687_1314"/>
</filter>
</defs>
</svg>
