<svg xmlns="http://www.w3.org/2000/svg" fill="none" viewBox="0 0 80 80"><g filter="url(#a)"><path fill="#9391F7" d="M40 59c11.598 0 21-9.402 21-21s-9.402-21-21-21-21 9.402-21 21 9.402 21 21 21"/></g><path fill="#9391F7" d="M40 61c11.598 0 21-9.402 21-21s-9.402-21-21-21-21 9.402-21 21 9.402 21 21 21"/><path fill="#fff" d="M36.096 41.024a3.303 3.303 0 1 0-1.059-6.521 3.303 3.303 0 0 0 1.059 6.521m8.634 0a3.303 3.303 0 1 0-1.06-6.521 3.303 3.303 0 0 0 1.06 6.521"/><path fill="#fff" d="M39.878 24.128c-8.97 0-16.24 7.41-16.238 16.548h4.148c0-6.848 5.37-12.4 12.09-12.4s12.09 5.552 12.09 12.4h4.148c.002-9.138-7.27-16.548-16.238-16.548"/><defs><filter id="a" width="70" height="70" x="5" y="3" color-interpolation-filters="sRGB" filterUnits="userSpaceOnUse"><feFlood flood-opacity="0" result="BackgroundImageFix"/><feBlend in="SourceGraphic" in2="BackgroundImageFix" result="shape"/><feGaussianBlur result="effect1_foregroundBlur_69_8622" stdDeviation="7"/></filter></defs></svg>