<svg width="160" height="34" viewBox="0 0 160 34" fill="none" xmlns="http://www.w3.org/2000/svg">
<g clip-path="url(#clip0_7037_5561)">
<path d="M65.6246 25.812H64.8438V29.5123H65.6246V25.812Z" fill="black"/>
<path d="M65.6246 24.3906H64.8438V25.1787H65.6246V24.3906Z" fill="black"/>
<path d="M50.466 25.6754C49.3966 25.6754 48.5479 26.549 48.5479 27.6626C48.5479 28.7761 49.4306 29.6497 50.5169 29.6497C51.128 29.6497 51.6882 29.3757 52.0786 28.8789L51.3827 28.4848C51.162 28.7246 50.8564 28.8446 50.5339 28.8446C50.0416 28.8446 49.6003 28.5362 49.4136 28.0737V28.0395H52.3841V27.6454C52.3841 26.5319 51.5354 25.6582 50.466 25.6582V25.6754ZM49.3966 27.2685V27.2343C49.5664 26.7546 49.9907 26.4634 50.466 26.4634C50.9413 26.4634 51.3657 26.7717 51.5354 27.2343V27.2685H49.3966Z" fill="black"/>
<path d="M46.511 27.2856C45.798 27.1657 45.6622 27.0115 45.6622 26.7888C45.6622 26.5147 45.8999 26.3434 46.3073 26.3434C46.6807 26.3434 46.9523 26.5147 47.0372 26.8745H47.852C47.7671 26.1207 47.207 25.6924 46.2903 25.6924C45.3737 25.6924 44.8135 26.1721 44.8135 26.8402C44.8135 27.5083 45.204 27.8166 46.1885 27.988C46.9354 28.125 47.0712 28.2621 47.0712 28.519C47.0712 28.8103 46.7996 28.9987 46.3582 28.9987C46.0357 28.9987 45.6283 28.9131 45.4926 28.3991H44.6777C44.7626 29.2043 45.3568 29.6839 46.3412 29.6839C47.3258 29.6839 47.9029 29.1872 47.9029 28.4505C47.9029 27.7996 47.4785 27.4569 46.477 27.3027L46.511 27.2856Z" fill="black"/>
<path d="M60.0569 27.8168C60.0569 28.4164 59.6325 28.8446 59.0383 28.8446C58.4442 28.8446 58.0199 28.4164 58.0199 27.8168V25.8296H57.2051V27.8168C57.2051 28.3479 57.3918 28.8276 57.7483 29.153C58.0877 29.4785 58.563 29.667 59.0553 29.667C59.5476 29.667 60.0229 29.4956 60.3623 29.153C60.7188 28.8276 60.9055 28.3307 60.9055 27.8168V25.8296H60.0908V27.8168H60.0569Z" fill="black"/>
<path d="M54.9642 26.4633C55.3376 26.4633 55.6771 26.6347 55.8977 26.9259L56.6107 26.5662C56.2372 26.0008 55.6262 25.6753 54.9642 25.6753C53.8777 25.6753 52.9951 26.5662 52.9951 27.6625C52.9951 28.7589 53.8777 29.6497 54.9642 29.6497C55.6262 29.6497 56.2372 29.3242 56.6107 28.7589L55.8977 28.3992C55.6771 28.6905 55.3376 28.8617 54.9642 28.8617C54.3021 28.8617 53.776 28.3135 53.776 27.6625C53.776 27.0115 54.3191 26.4633 54.9642 26.4633Z" fill="black"/>
<path d="M67.5764 24.853H66.7617V27.8167C66.7617 28.3478 66.9483 28.8275 67.3048 29.1529C67.3727 29.2215 67.4576 29.29 67.5425 29.3414C67.848 29.547 68.2215 29.6669 68.6119 29.6669H68.9514V28.8445H68.6119C68.0008 28.8445 67.5934 28.4163 67.5934 27.8167V26.6347H68.9514V25.8467H67.5934V24.8702L67.5764 24.853Z" fill="black"/>
<path d="M62.7048 25.8121H61.873V29.5124H62.7048V27.9364C62.7048 27.1826 63.2989 26.583 64.0458 26.583V25.7607C63.5365 25.7607 63.0782 25.9492 62.7048 26.2404V25.8121Z" fill="black"/>
<path d="M72.0917 25.8292L71.4127 28.7072H71.2769C71.2769 28.7072 71.1072 28.6215 71.0902 28.5359L70.4112 25.8292H69.5625L70.2923 28.7415C70.4112 29.1868 70.7846 29.4952 71.209 29.5295L70.8695 30.9856H71.6674L72.0069 29.5295V29.4952L72.8895 25.812H72.0748L72.0917 25.8292Z" fill="black"/>
<path d="M12.7825 25.6753C11.6962 25.6753 10.8135 26.5661 10.8135 27.6624C10.8135 28.7588 11.6962 29.6496 12.7825 29.6496C13.8689 29.6496 14.7516 28.7588 14.7516 27.6624C14.7516 26.5661 13.8689 25.6753 12.7825 25.6753ZM12.7825 28.8445C12.1375 28.8445 11.6283 28.3135 11.6283 27.6796C11.6283 27.0457 12.1545 26.5147 12.7825 26.5147C13.4106 26.5147 13.9368 27.0457 13.9368 27.6796C13.9368 28.3135 13.4106 28.8445 12.7825 28.8445Z" fill="black"/>
<path d="M41.4527 26.172C41.1132 25.8465 40.6549 25.6753 40.1457 25.6753C39.7723 25.6753 39.4158 25.7781 39.1102 25.9665V25.8123H38.2954V29.5126H39.1102V27.5083C39.1102 26.9087 39.5346 26.4804 40.1457 26.4804C40.7568 26.4804 41.1811 26.9087 41.1811 27.5083V29.4955H41.996V27.5083C41.996 26.9772 41.7923 26.4975 41.4527 26.1549V26.172Z" fill="black"/>
<path d="M28.9254 25.6751C28.5521 25.6751 28.1956 25.7779 27.89 25.9663V24.356H27.0752V29.5296H27.89V27.5253C27.89 26.9257 28.3144 26.4974 28.9254 26.4974C29.5365 26.4974 29.9609 26.9257 29.9609 27.5253V29.5125H30.7757V27.5253C30.7757 26.9941 30.572 26.5145 30.2325 26.1719C29.893 25.8464 29.4347 25.6751 28.9254 25.6751Z" fill="black"/>
<path d="M6.97687 25.6755C6.5525 25.6755 6.14511 25.8125 5.8226 26.0524V24.3564H5.00781V29.53H5.8226V29.2901C6.14511 29.53 6.5525 29.667 6.97687 29.667C8.06325 29.667 8.94594 28.7762 8.94594 27.6798C8.94594 26.5835 8.06325 25.6926 6.97687 25.6926V25.6755ZM6.97687 28.8448C6.33183 28.8448 5.8226 28.3137 5.8226 27.6798C5.8226 27.046 6.34881 26.5149 6.97687 26.5149C7.60493 26.5149 8.13115 27.046 8.13115 27.6798C8.13115 28.3137 7.60493 28.8448 6.97687 28.8448Z" fill="black"/>
<path d="M34.6118 26.0864L34.5779 26.0522C34.2385 25.8123 33.848 25.6753 33.4236 25.6753C32.3372 25.6753 31.4546 26.5661 31.4546 27.6624C31.4546 28.7588 32.3372 29.6496 33.4236 29.6496C33.848 29.6496 34.2385 29.5126 34.5779 29.2728L34.6118 29.2386V29.4955H35.3927V25.8123H34.6118V26.0864ZM33.4236 28.8788C32.7616 28.8788 32.2354 28.3306 32.2354 27.6796C32.2354 27.0286 32.7786 26.4804 33.4236 26.4804C34.0687 26.4804 34.6118 27.0114 34.6118 27.6796C34.6118 28.3477 34.0687 28.8788 33.4236 28.8788Z" fill="black"/>
<path d="M17.0941 26.4633C17.4675 26.4633 17.807 26.6346 18.0276 26.9259L18.7406 26.5661C18.3671 26.0008 17.7561 25.6753 17.0941 25.6753C16.0076 25.6753 15.125 26.5661 15.125 27.6624C15.125 28.7588 16.0076 29.6496 17.0941 29.6496C17.7561 29.6496 18.3671 29.3241 18.7406 28.7588L18.0276 28.3991C17.807 28.6904 17.4675 28.8616 17.0941 28.8616C16.432 28.8616 15.9058 28.3306 15.9058 27.6624C15.9058 26.9943 16.449 26.4633 17.0941 26.4633Z" fill="black"/>
<path d="M24.7664 26.4633C25.1399 26.4633 25.4794 26.6346 25.7001 26.9259L26.4129 26.5661C26.0395 26.0008 25.4285 25.6753 24.7664 25.6753C23.6801 25.6753 22.7974 26.5661 22.7974 27.6624C22.7974 28.7588 23.6801 29.6496 24.7664 29.6496C25.4285 29.6496 26.0395 29.3241 26.4129 28.7588L25.7001 28.3991C25.4794 28.6904 25.1399 28.8616 24.7664 28.8616C24.1044 28.8616 23.5782 28.3306 23.5782 27.6624C23.5782 26.9943 24.1214 26.4633 24.7664 26.4633Z" fill="black"/>
<path d="M22.7633 25.8292H21.7449L20.5736 27.2512H20.1152V24.356H19.3345V29.5296H20.1152V28.1077H20.5736L21.7449 29.5296H22.7633L21.2356 27.6794L22.7633 25.8292Z" fill="black"/>
<path d="M10.2872 24.356H9.50635V29.5296H10.2872V24.356Z" fill="black"/>
<path d="M37.2941 25.8296H36.5132V29.5299H37.2941V25.8296Z" fill="black"/>
<path d="M37.2941 24.4077H36.5132V25.1957H37.2941V24.4077Z" fill="black"/>
<path fill-rule="evenodd" clip-rule="evenodd" d="M41.9126 20.0017L38.0688 15.3472H36.5537V20.0017H33.9872V3.07959H36.5537V12.5649H38.0688L41.9094 7.91043H45.247L40.2583 13.9561L45.2507 20.0017H41.9126ZM11.4851 10.015C9.32873 10.015 7.57403 11.7831 7.57403 13.9561C7.57403 16.1289 9.32873 17.897 11.4851 17.897C13.6415 17.897 15.3957 16.1289 15.3957 13.9561C15.3957 11.7831 13.6415 10.015 11.4851 10.015ZM11.4853 20.483C7.91372 20.483 5.00781 17.5549 5.00781 13.956C5.00781 10.3571 7.91372 7.42902 11.4853 7.42902C12.8521 7.42902 14.1613 7.85701 15.2711 8.66517L15.3959 8.75614V7.91038H17.9624V20.0016H15.3959V19.1559L15.2711 19.2464C14.1618 20.0554 12.8521 20.483 11.4853 20.483ZM26.6322 20.483C23.0611 20.483 20.1552 17.5549 20.1552 13.956C20.1552 10.3571 23.0611 7.42902 26.6322 7.42902C28.8112 7.42902 30.8215 8.51848 32.0276 10.3465L29.6994 11.5125C28.9535 10.56 27.8392 10.015 26.6322 10.015C24.4759 10.015 22.7216 11.7831 22.7211 13.956C22.7216 16.1289 24.4759 17.897 26.6322 17.897C27.8392 17.897 28.9535 17.3525 29.6994 16.3995L32.0276 17.5656C30.8215 19.3936 28.8112 20.483 26.6322 20.483ZM52.0987 10.015C50.4964 10.015 49.1255 11.0135 48.6054 12.5583L48.5703 12.6628H55.6269L55.5914 12.5583C55.0718 11.0135 53.7008 10.015 52.0987 10.015ZM52.2928 20.483C48.7212 20.483 45.8153 17.5549 45.8153 13.956C45.8153 10.2963 48.5751 7.42902 52.0984 7.42902C55.6216 7.42902 58.381 10.2963 58.381 13.956V15.2488H48.5963L48.6369 15.356C49.2118 16.8762 50.6818 17.897 52.2928 17.897C53.361 17.897 54.352 17.4764 55.0904 16.7105L57.3934 17.9796C56.1559 19.5718 54.3026 20.483 52.2928 20.483ZM66.6241 10.015C65.0218 10.015 63.6509 11.0135 63.1308 12.5583L63.0958 12.6628H70.1519L70.1169 12.5583C69.5972 11.0135 68.2259 10.015 66.6241 10.015ZM66.8182 20.483C63.2466 20.483 60.3407 17.5549 60.3407 13.956C60.3407 10.2963 63.1005 7.42902 66.6238 7.42902C70.1465 7.42902 72.9064 10.2963 72.9064 13.956V15.2488H63.1217L63.1624 15.356C63.7373 16.8762 65.2063 17.897 66.8182 17.897C67.8861 17.897 68.8769 17.4764 69.6159 16.7105L71.9188 17.9796C70.6814 19.5718 68.8277 20.483 66.8182 20.483Z" fill="black"/>
</g>
<defs>
<clipPath id="clip0_7037_5561">
<rect width="68" height="28" fill="white" transform="translate(5 3)"/>
</clipPath>
</defs>
</svg>
