<svg viewBox="0 0 40 40" fill="none" xmlns="http://www.w3.org/2000/svg">
<g clip-path="url(#clip0_4406_6643)">
<path d="M29.2466 20.261C29.9507 20.2612 30.521 20.7965 30.521 21.4739V25.2972C30.521 25.9747 29.9499 26.5237 29.2456 26.5237H27.4234C26.7192 26.5237 26.1482 27.0045 26.148 27.6819V29.5023C26.148 30.1799 25.5856 30.7288 24.8814 30.7288H14.9576C14.2533 30.7288 13.6822 30.1799 13.6822 29.5023V27.2337C13.6822 26.5562 14.2533 26.0071 14.9576 26.0071H24.3384C25.0427 26.0071 25.6138 25.4582 25.6138 24.7806V21.4876C25.614 20.8102 26.1841 20.2611 26.8882 20.261H29.2466ZM20.8033 17.8763C21.5411 17.8765 22.1399 18.4531 22.1402 19.1624V21.3421C22.14 22.052 21.5407 22.628 20.8033 22.6282H18.5376C17.7998 22.6281 17.2008 22.0516 17.2007 21.3421V19.1624C17.201 18.4526 17.8003 17.8764 18.5376 17.8763H20.8033ZM24.3326 9.80597C25.0365 9.80611 25.6068 10.3552 25.607 11.0325V13.3011C25.607 13.9785 25.0366 14.5275 24.3326 14.5276H14.9566C14.2526 14.5278 13.6824 15.0769 13.6822 15.7542L13.6841 19.0345C13.684 19.7119 13.1139 20.261 12.4097 20.261H10.0513C9.34712 20.261 8.77396 19.7394 8.77396 19.0618V15.2337C8.77412 14.5562 9.34519 14.0071 10.0493 14.0071H11.8638C12.568 14.0071 13.1382 13.458 13.1382 12.7806V11.0325C13.1384 10.3551 13.7094 9.80597 14.4136 9.80597H24.3326Z" fill="#6AF583"/>
<g opacity="0.6" filter="url(#filter0_f_4406_6643)">
<path d="M30.8885 20.0231C31.6408 20.0231 32.2498 20.5943 32.2499 21.3181V25.403C32.2498 26.1266 31.6407 26.7125 30.8885 26.7126H28.9413C28.1892 26.7126 27.5801 27.2263 27.58 27.9499V29.8942C27.58 30.618 26.9787 31.2047 26.2264 31.2048H15.6259C14.8736 31.2048 14.2635 30.618 14.2635 29.8942V27.4714C14.2635 26.7477 14.8736 26.1608 15.6259 26.1608H25.6464C26.3986 26.1608 27.0077 25.5741 27.0077 24.8503V21.3337C27.0077 20.6099 27.6177 20.0231 28.37 20.0231H30.8885ZM21.87 17.4753C22.6582 17.4754 23.2975 18.0915 23.2977 18.8493V21.1774C23.2977 21.9359 22.6578 22.5513 21.87 22.5515H19.4501C18.6618 22.5514 18.0224 21.9354 18.0223 21.1774V18.8493C18.0226 18.091 18.6624 17.4754 19.4501 17.4753H21.87ZM25.6395 8.85516C26.3917 8.85516 27.0018 9.4419 27.0018 10.1657V12.5886C27.0018 13.3123 26.3917 13.8991 25.6395 13.8991H15.6249C14.8728 13.8992 14.2637 14.4851 14.2635 15.2087L14.2655 18.7126C14.2654 19.4362 13.6563 20.023 12.9042 20.0231H10.3846C9.63255 20.0229 9.02039 19.4655 9.02039 18.7419V14.653C9.02039 13.9292 9.6304 13.3425 10.3827 13.3425H12.3212C13.0732 13.3423 13.6823 12.7563 13.6825 12.0329V10.1657C13.6825 9.4419 14.2925 8.85516 15.0448 8.85516H25.6395Z" fill="#6AF583"/>
</g>
</g>
<defs>
<filter id="filter0_f_4406_6643" x="0.599333" y="0.434111" width="40.0716" height="39.1917" filterUnits="userSpaceOnUse" color-interpolation-filters="sRGB">
<feFlood flood-opacity="0" result="BackgroundImageFix"/>
<feBlend mode="normal" in="SourceGraphic" in2="BackgroundImageFix" result="shape"/>
<feGaussianBlur stdDeviation="4.21053" result="effect1_foregroundBlur_4406_6643"/>
</filter>
<clipPath id="clip0_4406_6643">
<rect width="40" height="40" fill="white"/>
</clipPath>
</defs>
</svg>
