<svg xmlns="http://www.w3.org/2000/svg" width="198" height="42" fill="none" opt="1"><g clip-path="url(#a)"><path fill="#000" d="M112.497 27.112c-2.629 0-4.746-2.305-4.746-5.12s2.141-5.12 4.746-5.12 4.747 2.304 4.747 5.12c0 2.815-2.116 5.12-4.747 5.12m4.77-11.592v2.048c-1.164-1.419-2.863-2.305-4.77-2.305-3.491 0-6.308 3.003-6.308 6.705 0 3.7 2.839 6.702 6.308 6.702 1.908 0 3.607-.884 4.77-2.305v2.049h1.559V15.52zM100.14 17.941V15.52h-1.56v12.895h1.56v-6.262c0-2.327 1.604-4.375 3.84-4.888a9 9 0 0 1 1.839-.187v-1.56c-.768 0-1.513.069-2.163.232a6.53 6.53 0 0 0-3.513 2.19h-.002zM90.297 27.112a5.12 5.12 0 0 1-5.12-5.12c0-2.816 2.304-5.12 5.12-5.12 2.814 0 5.119 2.304 5.119 5.12a5.12 5.12 0 0 1-5.12 5.12m0-11.824a6.706 6.706 0 0 0-6.703 6.702c0 3.7 3.002 6.704 6.703 6.704a6.704 6.704 0 0 0 0-13.406M78.497 17.081h4.072v-1.56h-4.072V12.66h-1.56v2.862h-1.769v1.56h1.77v11.336h5.63v-1.56h-4.071v-9.776M67.795 17.941V15.52h-1.56v12.895h1.56v-6.262c0-2.327 1.604-4.375 3.84-4.888a9 9 0 0 1 1.84-.187v-1.56c-.77 0-1.514.069-2.164.232a6.54 6.54 0 0 0-3.514 2.19zM58.09 16.87c2.467 0 4.538 1.886 4.91 4.329h-9.797c.35-2.468 2.421-4.33 4.887-4.33m0 10.22c-2.467 0-4.538-1.887-4.91-4.33h11.427v-.768c0-3.678-2.934-6.68-6.515-6.68-3.582 0-6.516 3.002-6.516 6.68s2.934 6.68 6.516 6.68c2.583 0 4.909-1.56 5.956-3.98h-1.745c-.906 1.488-2.488 2.421-4.211 2.397zM44.127 27.09c-2.724 0-4.956-2.305-4.956-5.12s2.234-5.121 4.956-5.121c1.77 0 3.327.953 4.211 2.398h1.745c-1.023-2.328-3.304-3.958-5.956-3.958-3.585 0-6.516 3.003-6.516 6.68s2.934 6.68 6.516 6.68c2.582 0 4.91-1.558 5.956-3.957h-1.745a4.87 4.87 0 0 1-4.211 2.397"/><path stroke="#000" stroke-miterlimit="10" stroke-width=".83" d="M30.267 13.852V5.493H.552v8.359m29.715 0-14.855 8.357-14.86-8.357m29.715 0v16.715m0-16.715v2.89m0-2.89L15.41 5.493M.552 13.852v16.715m0-16.715v2.89m0-2.89L15.41 5.493m0 0L.552 30.567M15.41 5.493l14.857 25.074M15.41 5.493V22.21M.552 30.567l14.858-8.358M.552 30.567l14.86 8.356 14.855-8.356m0 0L15.41 22.209m0 0v16.715"/><path stroke="#000" stroke-miterlimit="10" stroke-width=".83" d="M30.267 13.852V5.493H.552v8.359m29.715 0-14.855 8.357-14.86-8.357m29.715 0v16.715m0-16.715v2.89m0-2.89L15.41 5.493M.552 13.852v16.715m0-16.715v2.89m0-2.89L15.41 5.493m0 0L.552 30.567M15.41 5.493l14.857 25.074M15.41 5.493V22.21M.552 30.567l14.858-8.358M.552 30.567l14.86 8.356 14.855-8.356m0 0L15.41 22.209m0 0v16.715"/></g><defs><clipPath id="a"><path fill="#fff" d="M0 4.941h118.851V39.53H0z"/></clipPath></defs></svg>