<svg xmlns="http://www.w3.org/2000/svg" width="198" height="42" fill="none" opt="1"><g clip-path="url(#a)"><path fill="#000" d="M46.236 17.096c.013-.39.17-.762.443-1.042q.212-.196.474-.315a1.9 1.9 0 0 1 .567-.127h5.523a1.49 1.49 0 0 1 1.357.916c.072.181.115.373.127.568v1.329h-1.452v-1.33h-5.523v7.291h5.523v-1.329h1.452v1.33a1.49 1.49 0 0 1-.915 1.356 1.9 1.9 0 0 1-.568.127H47.72a1.49 1.49 0 0 1-1.357-.916 1.8 1.8 0 0 1-.126-.568v-7.29M65.802 15.644v10.193H64.35v-4.356h-5.838v4.356h-1.484V15.644h1.484v4.386h5.838v-4.386zM72.935 15.644l3.945 10.193h-1.452l-.916-2.335h-4.608l-.915 2.335h-1.45l3.944-10.193zm-2.462 6.406h3.47l-1.736-4.512zM80.069 15.644h-1.452v10.193h1.452zM84.17 25.838H82.72V15.643h1.451l6.123 7.922v-7.922h1.451v10.193h-1.451l-6.123-7.921zM95.848 21.482a1.49 1.49 0 0 1-1.357-.915 1.8 1.8 0 0 1-.126-.568v-2.903c.013-.39.17-.762.443-1.042q.212-.196.473-.315a1.9 1.9 0 0 1 .568-.127h4.955a1.49 1.49 0 0 1 1.357.916c.072.181.115.373.126.568v1.329h-1.451v-1.33H95.88V20h4.955a1.49 1.49 0 0 1 1.357.916c.072.18.115.373.126.567v2.904a1.49 1.49 0 0 1-.915 1.357 1.9 1.9 0 0 1-.568.126h-5.081a1.49 1.49 0 0 1-1.357-.916 1.8 1.8 0 0 1-.127-.567v-1.33h1.452v1.33h5.081v-2.904zM104.874 15.644h7.448v1.451h-5.996v2.935h5.113v1.452h-5.113v2.904h5.996v1.451h-7.448zM114.499 17.096a1.57 1.57 0 0 1 .443-1.042q.212-.196.473-.315.274-.109.568-.127h5.523a1.49 1.49 0 0 1 1.357.916c.072.181.114.373.126.568v1.329h-1.451v-1.33h-5.523v7.291h5.523v-1.329h1.452v1.33a1.49 1.49 0 0 1-.916 1.356 1.9 1.9 0 0 1-.567.127h-5.523a1.49 1.49 0 0 1-1.357-.916 1.8 1.8 0 0 1-.126-.568v-7.29M125.293 15.644h1.452v8.742h5.839v-8.742h1.452v8.742a1.49 1.49 0 0 1-.916 1.357 1.8 1.8 0 0 1-.568.126h-5.838a1.49 1.49 0 0 1-1.358-.915 1.9 1.9 0 0 1-.126-.568v-8.742M144.733 19.274c0 1.42-.599 2.24-1.829 2.43l1.925 4.134h-1.61l-1.894-4.071h-3.188v4.071h-1.451V15.644h5.587c1.64 0 2.46.82 2.46 2.493zm-6.627 1.041h4.04c.305.018.606-.07.852-.252a1.2 1.2 0 0 0 .253-.852V18.2a1.3 1.3 0 0 0-.253-.852 1.2 1.2 0 0 0-.852-.253h-4.04zM148.616 15.644h-1.452v10.193h1.452zM150.352 15.644h8.174v1.451h-3.346v8.743h-1.451v-8.743h-3.377zM160.955 15.644l2.968 4.765 2.967-4.765h1.703l-3.944 6.154v4.04h-1.452v-4.04l-3.945-6.154z"/><path stroke="#000" stroke-miterlimit="10" stroke-width=".28" d="M29.508 29.265 15.176 4.445M.842 12.71l28.665 16.556M29.507 12.71.842 29.266M15.176 37.556V4.444M29.507 29.266H.842M15.175 4.444.841 29.264M29.507 12.71H.842M15.176 37.557 29.508 12.71M.842 12.71l14.333 24.847M29.507 29.265V12.709L15.174 4.444.842 12.71v16.556l14.333 8.29zM.842 21h28.665M7.88 33.344l14.568-24.69M22.106 33.555 8.218 8.447"/><path stroke="#000" stroke-linecap="round" stroke-linejoin="round" stroke-miterlimit="10" stroke-width="3" d="m22.237 16.868-2.328-4.054-9.415-.104-2.59 4.158 14.333 8.265-2.59 4.135h-9.362l-2.38-4.135"/><path stroke="#000" stroke-linecap="round" stroke-linejoin="round" stroke-miterlimit="10" stroke-width="2" d="m22.342 8.653-7.271-4.209L.738 12.71v16.556l14.333 8.29 6.957-4.001"/></g><defs><clipPath id="a"><path fill="#fff" d="M0 3.706h169.235v34.588H0z"/></clipPath></defs></svg>