<svg width="300" height="300" viewBox="0 0 300 300" fill="none" xmlns="http://www.w3.org/2000/svg">
<g clip-path="url(#clip0_17373_454761)">
<g opacity="0.5" filter="url(#filter0_f_17373_454761)">
<ellipse cx="134.374" cy="207.815" rx="82.1734" ry="46.5829" fill="url(#paint0_radial_17373_454761)"/>
<g filter="url(#filter1_f_17373_454761)">
<ellipse cx="137.617" cy="152.133" rx="49.3761" ry="28.0218" fill="url(#paint1_radial_17373_454761)"/>
</g>
<path d="M212.146 154.292L215.855 152.148L216.01 206.963L212.301 209.107L207.604 211.821L203.894 213.964L203.826 190.008L193.772 219.815L190.596 221.652L190.327 221.173L190.063 221.959L186.886 223.796L176.698 205.687L176.766 229.644L173.055 231.788L168.36 234.501L164.651 236.645L164.496 181.831L168.205 179.687L172.57 177.165L176.279 175.021L190.266 199.094L204.07 158.956L207.779 156.812L212.144 154.29L212.146 154.292ZM192.134 202.308L207.221 158.439L204.775 159.854L190.903 200.19L192.134 202.308ZM189.353 221.068L189.697 220.05L176.675 196.909L176.691 202.716L187.592 222.087L189.353 221.068ZM168.36 233.205L168.212 180.99L165.634 182.48L165.782 234.695L168.36 233.205ZM207.601 210.522L207.513 179.085L204.95 186.681L205.023 212.012L207.601 210.522Z" fill="url(#paint2_radial_17373_454761)"/>
<path d="M212.146 154.292L215.855 152.148L216.01 206.963L212.301 209.107L207.604 211.821L203.894 213.964L203.826 190.008L193.772 219.815L190.596 221.652L190.327 221.173L190.063 221.959L186.886 223.796L176.698 205.687L176.766 229.644L173.055 231.788L168.36 234.501L164.651 236.645L164.496 181.831L168.205 179.687L172.57 177.165L176.279 175.021L190.266 199.094L204.07 158.956L207.779 156.812L212.144 154.29L212.146 154.292ZM192.134 202.308L207.221 158.439L204.775 159.854L190.903 200.19L192.134 202.308ZM189.353 221.068L189.697 220.05L176.675 196.909L176.691 202.716L187.592 222.087L189.353 221.068ZM168.36 233.205L168.212 180.99L165.634 182.48L165.782 234.695L168.36 233.205ZM207.601 210.522L207.513 179.085L204.95 186.681L205.023 212.012L207.601 210.522Z" fill="url(#paint3_radial_17373_454761)"/>
<path d="M148.705 227.317L164.426 236.405V181.874L148.705 172.662V227.317Z" fill="url(#paint4_linear_17373_454761)"/>
<path d="M188.13 149.693L178.059 178.556L190.218 198.821L204.096 158.905L188.13 149.693Z" fill="url(#paint5_linear_17373_454761)"/>
<path d="M160.373 165.66L148.337 172.538L164.426 181.749L176.34 174.994L160.373 165.66Z" fill="url(#paint6_linear_17373_454761)"/>
<path d="M200.044 142.816L188.008 149.694L204.097 158.906L216.011 152.151L200.044 142.816Z" fill="url(#paint7_linear_17373_454761)"/>
<path d="M132.986 226.862C133.944 229.363 134.421 232.104 134.413 235.086C134.403 238.26 133.819 240.696 132.657 242.396C131.495 244.096 129.935 245.155 127.98 245.575C126.022 245.995 123.811 245.875 121.345 245.216C118.877 244.558 116.334 243.475 113.716 241.964C113.033 241.569 112.36 241.153 111.702 240.726C111.043 240.394 110.38 240.038 109.712 239.653C105.902 237.452 102.468 234.696 99.4147 231.384C98.4371 230.323 97.5135 229.228 96.6488 228.093C93.4187 227.909 89.7243 226.614 85.5583 224.209C84.5242 223.612 83.522 222.976 82.5443 222.311C81.9597 222.109 81.3677 221.787 80.7634 221.439C75.6198 218.469 71.1885 214.625 67.4695 209.901C63.7506 205.177 60.8913 199.923 58.8943 194.136C56.8948 188.354 55.9049 182.397 55.9221 176.266C55.9393 170.14 56.9611 165.342 58.9852 161.879C61.0117 158.418 63.8881 156.475 67.6218 156.055C71.3555 155.635 75.7942 156.909 80.9378 159.877C81.5421 160.226 82.1366 160.592 82.7187 160.962C83.6964 161.525 84.6986 162.051 85.7327 162.648C90.8985 165.63 95.3371 169.481 99.0463 174.202C99.3189 174.22 99.5965 174.247 99.879 174.286C102.728 174.669 105.873 175.856 109.309 177.84L109.528 177.966C110.107 178.309 110.677 178.668 111.237 179.034C111.928 179.38 112.63 179.756 113.347 180.169C117.081 182.38 120.245 184.907 123.025 187.855C125.808 190.805 128.137 194.099 130.009 197.744C131.687 201.009 132.944 204.485 133.777 208.174L129.989 206.87C130.009 206.966 130.029 207.064 130.051 207.162L119.542 203.151C119.166 201.016 118.469 198.997 117.449 197.091C116.43 195.185 115.209 193.482 113.797 191.982C112.876 191.004 111.928 190.144 110.947 189.402C110.299 189.149 109.663 188.96 109.049 188.85C107.703 188.607 106.605 188.747 105.757 189.272C104.91 189.798 104.485 190.758 104.48 192.151C104.477 193.438 104.819 194.681 105.507 195.887C106.197 197.093 107.064 198.245 108.11 199.343C109.157 200.441 110.228 201.471 111.321 202.429L120.242 210.375C121.574 211.554 123.048 212.947 124.666 214.551C126.283 216.155 127.835 217.982 129.319 220.033C130.802 222.082 132.023 224.357 132.984 226.855L132.986 226.862ZM112.392 230.598C113.286 230.974 114.168 231.252 115.03 231.419C116.531 231.709 117.766 231.574 118.734 231.009C119.702 230.444 120.188 229.341 120.193 227.7C120.193 227.098 120.117 226.472 119.965 225.821C119.81 225.17 119.559 224.497 119.203 223.799C118.847 223.099 118.341 222.342 117.69 221.527C117.037 220.711 116.209 219.837 115.212 218.901L101.866 206.676C100.866 205.769 99.707 204.634 98.388 203.269C97.0689 201.905 95.7891 200.304 94.556 198.469C93.3204 196.632 92.2961 194.553 91.4782 192.232C90.6626 189.911 90.2598 187.342 90.2672 184.522C90.2745 181.702 90.7363 179.403 91.6501 177.757C89.9306 175.986 87.9483 174.45 85.7081 173.158C82.4461 171.274 79.7244 170.54 77.5407 170.948C75.357 171.36 73.7136 172.768 72.6107 175.173C71.5054 177.577 70.9478 180.832 70.9379 184.937C70.9281 189.041 71.4636 192.925 72.5518 196.595C73.6375 200.262 75.2685 203.561 77.4424 206.491C79.6163 209.417 82.3331 211.822 85.5951 213.706C87.1746 214.617 88.6239 215.258 89.9478 215.634C89.093 213.111 88.5109 210.537 88.1989 207.911L98.3487 212.045C98.3953 212.293 98.4445 212.542 98.4985 212.787L102.353 214.357C103.058 218.159 104.526 221.628 106.759 224.752C108.459 227.13 110.338 229.08 112.397 230.603M68.1033 209.063C70.3926 211.972 73.0062 214.553 75.9072 216.784C74.6274 215.497 73.414 214.126 72.2693 212.672C68.5479 207.951 65.6911 202.696 63.6916 196.912C61.6921 191.127 60.7022 185.17 60.7194 179.041C60.7366 172.91 61.756 168.115 63.7825 164.654C65.809 161.193 68.6854 159.248 72.4216 158.83C73.5712 158.7 74.7871 158.732 76.0693 158.924C73.1683 157.804 70.5498 157.366 68.2482 157.624C64.7356 158.02 61.9844 159.877 60.0758 163.141C58.1451 166.44 57.1601 171.095 57.1429 176.976C57.1257 182.645 58.1746 188.901 59.9874 194.146C61.8714 199.601 64.6029 204.622 68.1033 209.068M93.8658 177.545C93.4384 177.941 93.0699 178.42 92.7579 178.98C91.9179 180.483 91.4904 182.574 91.4831 185.224C91.4757 187.875 91.8393 190.159 92.5639 192.217C93.2983 194.303 94.2219 196.182 95.3101 197.801C96.4474 199.491 97.6339 200.979 98.8375 202.225C100.112 203.544 101.242 204.652 102.2 205.521L103.455 206.671C103.112 206.324 102.758 205.963 102.387 205.58C101.068 204.217 99.7905 202.615 98.555 200.78C97.3219 198.943 96.2951 196.862 95.4771 194.544C94.6616 192.222 94.2588 189.653 94.2662 186.836C94.2784 182.868 95.1554 180.073 96.9018 178.449C98.5353 176.931 100.677 176.295 103.328 176.541C102.284 176.212 101.277 175.981 100.316 175.853C97.6142 175.497 95.4575 176.069 93.8682 177.55M99.9085 230.385C101.129 231.706 102.426 232.944 103.79 234.091C103.667 233.961 103.541 233.828 103.419 233.696C100.363 230.382 97.8598 226.72 95.9021 222.696C94.0647 218.918 92.8636 215.02 92.3011 210.996L89.6162 209.903C89.9454 211.93 90.4514 213.934 91.1294 215.897C91.6182 217.314 92.1979 218.709 92.8636 220.078C94.2514 222.932 95.9586 225.622 97.9532 228.108C98.5771 228.886 99.228 229.645 99.9109 230.385M122.736 233.318C123.703 232.753 124.19 231.65 124.192 230.006C124.192 229.405 124.119 228.778 123.966 228.127C123.811 227.476 123.558 226.803 123.205 226.103C122.849 225.406 122.343 224.647 121.692 223.831C121.038 223.015 120.213 222.141 119.213 221.208L117.027 219.203C117.501 219.702 117.928 220.191 118.304 220.66C119.09 221.64 119.692 222.549 120.144 223.436C120.596 224.327 120.93 225.211 121.132 226.061C121.321 226.867 121.416 227.653 121.414 228.395C121.409 230.412 120.797 231.79 119.601 232.487C118.854 232.92 117.963 233.131 116.946 233.121C117.651 233.386 118.348 233.588 119.036 233.72C120.537 234.01 121.773 233.875 122.74 233.31M117.803 194.296C116.88 193.315 115.929 192.456 114.949 191.711C116.246 193.202 117.39 194.868 118.363 196.683C119.279 198.395 119.972 200.201 120.427 202.068L122.962 203.035C122.581 201.785 122.08 200.574 121.453 199.407C120.434 197.501 119.216 195.799 117.801 194.298" fill="url(#paint8_radial_17373_454761)"/>
<path d="M132.986 226.862C133.944 229.363 134.421 232.104 134.413 235.086C134.403 238.26 133.819 240.696 132.657 242.396C131.495 244.096 129.935 245.155 127.98 245.575C126.022 245.995 123.811 245.875 121.345 245.216C118.877 244.558 116.334 243.475 113.716 241.964C113.033 241.569 112.36 241.153 111.702 240.726C111.043 240.394 110.38 240.038 109.712 239.653C105.902 237.452 102.468 234.696 99.4147 231.384C98.4371 230.323 97.5135 229.228 96.6488 228.093C93.4187 227.909 89.7243 226.614 85.5583 224.209C84.5242 223.612 83.522 222.976 82.5443 222.311C81.9597 222.109 81.3677 221.787 80.7634 221.439C75.6198 218.469 71.1885 214.625 67.4695 209.901C63.7506 205.177 60.8913 199.923 58.8943 194.136C56.8948 188.354 55.9049 182.397 55.9221 176.266C55.9393 170.14 56.9611 165.342 58.9852 161.879C61.0117 158.418 63.8881 156.475 67.6218 156.055C71.3555 155.635 75.7942 156.909 80.9378 159.877C81.5421 160.226 82.1366 160.592 82.7187 160.962C83.6964 161.525 84.6986 162.051 85.7327 162.648C90.8985 165.63 95.3371 169.481 99.0463 174.202C99.3189 174.22 99.5965 174.247 99.879 174.286C102.728 174.669 105.873 175.856 109.309 177.84L109.528 177.966C110.107 178.309 110.677 178.668 111.237 179.034C111.928 179.38 112.63 179.756 113.347 180.169C117.081 182.38 120.245 184.907 123.025 187.855C125.808 190.805 128.137 194.099 130.009 197.744C131.687 201.009 132.944 204.485 133.777 208.174L129.989 206.87C130.009 206.966 130.029 207.064 130.051 207.162L119.542 203.151C119.166 201.016 118.469 198.997 117.449 197.091C116.43 195.185 115.209 193.482 113.797 191.982C112.876 191.004 111.928 190.144 110.947 189.402C110.299 189.149 109.663 188.96 109.049 188.85C107.703 188.607 106.605 188.747 105.757 189.272C104.91 189.798 104.485 190.758 104.48 192.151C104.477 193.438 104.819 194.681 105.507 195.887C106.197 197.093 107.064 198.245 108.11 199.343C109.157 200.441 110.228 201.471 111.321 202.429L120.242 210.375C121.574 211.554 123.048 212.947 124.666 214.551C126.283 216.155 127.835 217.982 129.319 220.033C130.802 222.082 132.023 224.357 132.984 226.855L132.986 226.862ZM112.392 230.598C113.286 230.974 114.168 231.252 115.03 231.419C116.531 231.709 117.766 231.574 118.734 231.009C119.702 230.444 120.188 229.341 120.193 227.7C120.193 227.098 120.117 226.472 119.965 225.821C119.81 225.17 119.559 224.497 119.203 223.799C118.847 223.099 118.341 222.342 117.69 221.527C117.037 220.711 116.209 219.837 115.212 218.901L101.866 206.676C100.866 205.769 99.707 204.634 98.388 203.269C97.0689 201.905 95.7891 200.304 94.556 198.469C93.3204 196.632 92.2961 194.553 91.4782 192.232C90.6626 189.911 90.2598 187.342 90.2672 184.522C90.2745 181.702 90.7363 179.403 91.6501 177.757C89.9306 175.986 87.9483 174.45 85.7081 173.158C82.4461 171.274 79.7244 170.54 77.5407 170.948C75.357 171.36 73.7136 172.768 72.6107 175.173C71.5054 177.577 70.9478 180.832 70.9379 184.937C70.9281 189.041 71.4636 192.925 72.5518 196.595C73.6375 200.262 75.2685 203.561 77.4424 206.491C79.6163 209.417 82.3331 211.822 85.5951 213.706C87.1746 214.617 88.6239 215.258 89.9478 215.634C89.093 213.111 88.5109 210.537 88.1989 207.911L98.3487 212.045C98.3953 212.293 98.4445 212.542 98.4985 212.787L102.353 214.357C103.058 218.159 104.526 221.628 106.759 224.752C108.459 227.13 110.338 229.08 112.397 230.603M68.1033 209.063C70.3926 211.972 73.0062 214.553 75.9072 216.784C74.6274 215.497 73.414 214.126 72.2693 212.672C68.5479 207.951 65.6911 202.696 63.6916 196.912C61.6921 191.127 60.7022 185.17 60.7194 179.041C60.7366 172.91 61.756 168.115 63.7825 164.654C65.809 161.193 68.6854 159.248 72.4216 158.83C73.5712 158.7 74.7871 158.732 76.0693 158.924C73.1683 157.804 70.5498 157.366 68.2482 157.624C64.7356 158.02 61.9844 159.877 60.0758 163.141C58.1451 166.44 57.1601 171.095 57.1429 176.976C57.1257 182.645 58.1746 188.901 59.9874 194.146C61.8714 199.601 64.6029 204.622 68.1033 209.068M93.8658 177.545C93.4384 177.941 93.0699 178.42 92.7579 178.98C91.9179 180.483 91.4904 182.574 91.4831 185.224C91.4757 187.875 91.8393 190.159 92.5639 192.217C93.2983 194.303 94.2219 196.182 95.3101 197.801C96.4474 199.491 97.6339 200.979 98.8375 202.225C100.112 203.544 101.242 204.652 102.2 205.521L103.455 206.671C103.112 206.324 102.758 205.963 102.387 205.58C101.068 204.217 99.7905 202.615 98.555 200.78C97.3219 198.943 96.2951 196.862 95.4771 194.544C94.6616 192.222 94.2588 189.653 94.2662 186.836C94.2784 182.868 95.1554 180.073 96.9018 178.449C98.5353 176.931 100.677 176.295 103.328 176.541C102.284 176.212 101.277 175.981 100.316 175.853C97.6142 175.497 95.4575 176.069 93.8682 177.55M99.9085 230.385C101.129 231.706 102.426 232.944 103.79 234.091C103.667 233.961 103.541 233.828 103.419 233.696C100.363 230.382 97.8598 226.72 95.9021 222.696C94.0647 218.918 92.8636 215.02 92.3011 210.996L89.6162 209.903C89.9454 211.93 90.4514 213.934 91.1294 215.897C91.6182 217.314 92.1979 218.709 92.8636 220.078C94.2514 222.932 95.9586 225.622 97.9532 228.108C98.5771 228.886 99.228 229.645 99.9109 230.385M122.736 233.318C123.703 232.753 124.19 231.65 124.192 230.006C124.192 229.405 124.119 228.778 123.966 228.127C123.811 227.476 123.558 226.803 123.205 226.103C122.849 225.406 122.343 224.647 121.692 223.831C121.038 223.015 120.213 222.141 119.213 221.208L117.027 219.203C117.501 219.702 117.928 220.191 118.304 220.66C119.09 221.64 119.692 222.549 120.144 223.436C120.596 224.327 120.93 225.211 121.132 226.061C121.321 226.867 121.416 227.653 121.414 228.395C121.409 230.412 120.797 231.79 119.601 232.487C118.854 232.92 117.963 233.131 116.946 233.121C117.651 233.386 118.348 233.588 119.036 233.72C120.537 234.01 121.773 233.875 122.74 233.31M117.803 194.296C116.88 193.315 115.929 192.456 114.949 191.711C116.246 193.202 117.39 194.868 118.363 196.683C119.279 198.395 119.972 200.201 120.427 202.068L122.962 203.035C122.581 201.785 122.08 200.574 121.453 199.407C120.434 197.501 119.216 195.799 117.801 194.298" fill="url(#paint9_radial_17373_454761)"/>
<path d="M82.4509 146.408L62.3086 157.953C65.0925 156.929 69.9234 154.518 81.3455 160.164C89.8937 164.389 96.616 171.34 98.9086 174.288L116.103 164.217L116.09 164.203C114.155 162.103 108.778 156.268 101.365 151.444C93.6274 146.408 89.3287 144.524 82.4509 146.408Z" fill="url(#paint10_linear_17373_454761)"/>
<path d="M115.98 164.093L96.4521 175.516C99.236 174.492 108.12 176.932 115.366 181.576C123.395 186.72 133.543 201.553 133.543 207.817L149.387 198.932C149.387 196.476 149.019 182.639 133.543 171.708C126.304 166.594 119.296 163.602 115.98 164.093Z" fill="url(#paint11_linear_17373_454761)"/>
<path d="M148.159 234.347L130.719 244.541C132.152 243.026 136 239.996 133.789 229.434C131.579 218.876 116.595 206.958 109.225 200.817C103.33 195.905 103.903 191.565 104.927 190.009L120.279 181.289C120.648 182.353 122.171 185.588 125.315 190.009C129.245 195.536 147.176 205.976 150.615 218.258C153.367 228.083 150.124 233.078 148.159 234.347Z" fill="url(#paint12_linear_17373_454761)"/>
<path d="M79.1346 170.807C82.377 170.807 87.1997 173.918 89.2058 175.474C88.5916 176.702 88.002 181.173 90.5567 189.229C93.1113 197.286 101.119 204.705 104.804 207.407L90.0654 215.636C84.7842 214.407 77.9064 208.389 74.5903 201.88C71.2742 195.37 70.4145 190.458 71.0286 181.615C71.6427 172.772 75.0816 170.807 79.1346 170.807Z" fill="url(#paint13_linear_17373_454761)"/>
<g clip-path="url(#clip1_17373_454761)">
<g filter="url(#filter2_b_17373_454761)">
<path d="M139.78 162.626C159.9 162.626 176.21 146.411 176.21 126.409C176.21 118.734 173.808 111.616 169.711 105.758L139.759 123.911L109.361 106.473C105.562 112.191 103.35 119.044 103.35 126.409C103.35 146.411 119.66 162.626 139.78 162.626Z" fill="url(#paint14_radial_17373_454761)"/>
<path d="M139.651 123.911L169.711 105.768C139.699 161.842 139.938 162.606 139.938 162.606C139.938 150.394 139.651 136.736 139.651 123.911Z" fill="url(#paint15_radial_17373_454761)"/>
<path opacity="0.3" d="M139.651 123.911L109.287 106.467L139.892 162.579C139.892 150.367 139.651 136.737 139.651 123.911Z" fill="url(#paint16_radial_17373_454761)"/>
<path opacity="0.2" d="M139.774 85.4746V114.868L113.922 100.181L139.774 85.4746Z" fill="#00A3FF"/>
<path opacity="0.8" d="M139.783 85.4746L165.653 100.181L139.783 114.868V85.4746Z" fill="url(#paint17_radial_17373_454761)"/>
<path d="M139.783 60.7539L165.653 100.189L139.783 85.4419V60.7539Z" fill="url(#paint18_radial_17373_454761)"/>
<path opacity="0.5" d="M139.774 85.4377L113.903 100.185L139.774 60.7305V85.4377Z" fill="url(#paint19_radial_17373_454761)"/>
</g>
<g opacity="0.6" filter="url(#filter3_f_17373_454761)">
<path d="M129.097 162.626C149.217 162.626 165.527 146.411 165.527 126.409C165.527 118.734 163.125 111.616 159.028 105.758L129.076 123.911L98.6784 106.473C94.8789 112.191 92.667 119.044 92.667 126.409C92.667 146.411 108.977 162.626 129.097 162.626Z" fill="url(#paint20_radial_17373_454761)"/>
<path d="M128.969 123.911L159.028 105.768C129.017 161.842 129.256 162.606 129.256 162.606C129.256 150.394 128.969 136.736 128.969 123.911Z" fill="url(#paint21_radial_17373_454761)"/>
<path opacity="0.3" d="M128.968 123.911L98.6045 106.467L129.21 162.579C129.21 150.367 128.968 136.737 128.968 123.911Z" fill="url(#paint22_radial_17373_454761)"/>
<path opacity="0.2" d="M129.092 85.4746V114.868L103.24 100.181L129.092 85.4746Z" fill="#00A3FF"/>
<path opacity="0.8" d="M129.1 85.4746L154.971 100.181L129.1 114.868V85.4746Z" fill="url(#paint23_radial_17373_454761)"/>
<path d="M129.1 60.7539L154.971 100.189L129.1 85.4419V60.7539Z" fill="url(#paint24_radial_17373_454761)"/>
<path opacity="0.5" d="M129.092 85.4377L103.22 100.185L129.092 60.7305V85.4377Z" fill="url(#paint25_radial_17373_454761)"/>
</g>
</g>
<path d="M219.633 85.988C224.865 88.9794 224.893 93.8286 219.694 96.8184L149.215 137.365C144.016 140.357 135.558 140.357 130.326 137.365L59.387 96.82C54.1547 93.8286 54.1263 88.9794 59.3253 85.9896L129.805 45.4428C135.004 42.4514 143.462 42.4514 148.694 45.4428L219.634 85.988H219.633Z" fill="url(#paint26_radial_17373_454761)"/>
<path d="M219.633 99.2222C224.865 102.219 224.893 107.078 219.694 110.073L149.215 150.695C144.016 153.693 135.558 153.693 130.326 150.695L59.387 110.075C54.1547 107.078 54.1263 102.219 59.3253 99.2239L129.805 58.6013C135.004 55.6043 143.462 55.6043 148.694 58.6013L219.634 99.2222H219.633Z" fill="url(#paint27_radial_17373_454761)"/>
</g>
<ellipse cx="145.602" cy="207.815" rx="82.1734" ry="46.5829" fill="url(#paint28_radial_17373_454761)"/>
<g filter="url(#filter4_f_17373_454761)">
<ellipse cx="148.846" cy="152.133" rx="49.3761" ry="28.0218" fill="url(#paint29_radial_17373_454761)"/>
</g>
<path d="M223.374 154.292L227.084 152.148L227.238 206.963L223.529 209.107L218.832 211.821L215.123 213.964L215.055 190.008L205.001 219.815L201.824 221.652L201.556 221.173L201.292 221.959L198.115 223.796L187.927 205.687L187.995 229.644L184.283 231.788L179.589 234.501L175.879 236.645L175.725 181.831L179.434 179.687L183.799 177.165L187.508 175.021L201.494 199.094L215.298 158.956L219.007 156.812L223.372 154.29L223.374 154.292ZM203.362 202.308L218.45 158.439L216.004 159.854L202.131 200.19L203.362 202.308ZM200.582 221.068L200.925 220.05L187.904 196.909L187.92 202.716L198.82 222.087L200.582 221.068ZM179.589 233.205L179.441 180.99L176.862 182.48L177.01 234.695L179.589 233.205ZM218.83 210.522L218.741 179.085L216.179 186.681L216.252 212.012L218.83 210.522Z" fill="url(#paint30_radial_17373_454761)"/>
<path d="M223.374 154.292L227.084 152.148L227.238 206.963L223.529 209.107L218.832 211.821L215.123 213.964L215.055 190.008L205.001 219.815L201.824 221.652L201.556 221.173L201.292 221.959L198.115 223.796L187.927 205.687L187.995 229.644L184.283 231.788L179.589 234.501L175.879 236.645L175.725 181.831L179.434 179.687L183.799 177.165L187.508 175.021L201.494 199.094L215.298 158.956L219.007 156.812L223.372 154.29L223.374 154.292ZM203.362 202.308L218.45 158.439L216.004 159.854L202.131 200.19L203.362 202.308ZM200.582 221.068L200.925 220.05L187.904 196.909L187.92 202.716L198.82 222.087L200.582 221.068ZM179.589 233.205L179.441 180.99L176.862 182.48L177.01 234.695L179.589 233.205ZM218.83 210.522L218.741 179.085L216.179 186.681L216.252 212.012L218.83 210.522Z" fill="url(#paint31_radial_17373_454761)"/>
<path d="M159.934 227.317L175.654 236.405V181.874L159.934 172.662V227.317Z" fill="url(#paint32_linear_17373_454761)"/>
<path d="M199.358 149.693L189.287 178.556L201.446 198.821L215.325 158.905L199.358 149.693Z" fill="url(#paint33_linear_17373_454761)"/>
<path d="M171.602 165.66L159.565 172.538L175.655 181.749L187.568 174.994L171.602 165.66Z" fill="url(#paint34_linear_17373_454761)"/>
<path d="M211.273 142.816L199.236 149.694L215.326 158.906L227.239 152.151L211.273 142.816Z" fill="url(#paint35_linear_17373_454761)"/>
<path d="M144.215 226.862C145.173 229.363 145.649 232.104 145.642 235.086C145.632 238.26 145.047 240.696 143.885 242.396C142.724 244.096 141.164 245.155 139.208 245.575C137.251 245.995 135.04 245.875 132.574 245.216C130.105 244.558 127.563 243.475 124.944 241.964C124.261 241.569 123.588 241.153 122.93 240.726C122.272 240.394 121.608 240.038 120.94 239.653C117.131 237.452 113.697 234.696 110.643 231.384C109.666 230.323 108.742 229.228 107.877 228.093C104.647 227.909 100.953 226.614 96.7868 224.209C95.7527 223.612 94.7505 222.976 93.7728 222.311C93.1882 222.109 92.5962 221.787 91.992 221.439C86.8483 218.469 82.417 214.625 78.698 209.901C74.9791 205.177 72.1199 199.923 70.1228 194.136C68.1233 188.354 67.1334 182.397 67.1506 176.266C67.1678 170.14 68.1897 165.342 70.2137 161.879C72.2402 158.418 75.1166 156.475 78.8503 156.055C82.584 155.635 87.0227 156.909 92.1664 159.877C92.7706 160.226 93.3651 160.592 93.9472 160.962C94.9249 161.525 95.9271 162.051 96.9612 162.648C102.127 165.63 106.566 169.481 110.275 174.202C110.547 174.22 110.825 174.247 111.107 174.286C113.957 174.669 117.101 175.856 120.538 177.84L120.756 177.966C121.336 178.309 121.906 178.668 122.466 179.034C123.156 179.38 123.859 179.756 124.576 180.169C128.309 182.38 131.473 184.907 134.254 187.855C137.037 190.805 139.366 194.099 141.237 197.744C142.915 201.009 144.173 204.485 145.005 208.174L141.218 206.87C141.237 206.966 141.257 207.064 141.279 207.162L130.771 203.151C130.395 201.016 129.697 198.997 128.678 197.091C127.659 195.185 126.438 193.482 125.025 191.982C124.104 191.004 123.156 190.144 122.176 189.402C121.527 189.149 120.891 188.96 120.277 188.85C118.931 188.607 117.833 188.747 116.986 189.272C116.138 189.798 115.713 190.758 115.708 192.151C115.706 193.438 116.047 194.681 116.735 195.887C117.425 197.093 118.292 198.245 119.339 199.343C120.385 200.441 121.456 201.471 122.549 202.429L131.471 210.375C132.802 211.554 134.276 212.947 135.895 214.551C137.511 216.155 139.064 217.982 140.547 220.033C142.031 222.082 143.252 224.357 144.212 226.855L144.215 226.862ZM123.62 230.598C124.514 230.974 125.396 231.252 126.258 231.419C127.759 231.709 128.995 231.574 129.963 231.009C130.93 230.444 131.417 229.341 131.422 227.7C131.422 227.098 131.346 226.472 131.193 225.821C131.039 225.17 130.788 224.497 130.432 223.799C130.076 223.099 129.57 222.342 128.919 221.527C128.265 220.711 127.437 219.837 126.44 218.901L113.095 206.676C112.095 205.769 110.936 204.634 109.616 203.269C108.297 201.905 107.018 200.304 105.785 198.469C104.549 196.632 103.525 194.553 102.707 192.232C101.891 189.911 101.488 187.342 101.496 184.522C101.503 181.702 101.965 179.403 102.879 177.757C101.159 175.986 99.1769 174.45 96.9366 173.158C93.6746 171.274 90.9529 170.54 88.7692 170.948C86.5855 171.36 84.9422 172.768 83.8392 175.173C82.7339 177.577 82.1763 180.832 82.1664 184.937C82.1566 189.041 82.6921 192.925 83.7803 196.595C84.866 200.262 86.497 203.561 88.6709 206.491C90.8448 209.417 93.5616 211.822 96.8237 213.706C98.4031 214.617 99.8524 215.258 101.176 215.634C100.322 213.111 99.7394 210.537 99.4274 207.911L109.577 212.045C109.624 212.293 109.673 212.542 109.727 212.787L113.581 214.357C114.286 218.159 115.755 221.628 117.988 224.752C119.688 227.13 121.567 229.08 123.625 230.603M79.3318 209.063C81.6211 211.972 84.2347 214.553 87.1357 216.784C85.8559 215.497 84.6425 214.126 83.4978 212.672C79.7764 207.951 76.9196 202.696 74.9201 196.912C72.9206 191.127 71.9307 185.17 71.9479 179.041C71.9651 172.91 72.9845 168.115 75.011 164.654C77.0375 161.193 79.9139 159.248 83.6501 158.83C84.7997 158.7 86.0156 158.732 87.2978 158.924C84.3968 157.804 81.7783 157.366 79.4767 157.624C75.9641 158.02 73.213 159.877 71.3043 163.141C69.3736 166.44 68.3886 171.095 68.3714 176.976C68.3542 182.645 69.4031 188.901 71.2159 194.146C73.1 199.601 75.8314 204.622 79.3318 209.068M105.094 177.545C104.667 177.941 104.298 178.42 103.986 178.98C103.146 180.483 102.719 182.574 102.712 185.224C102.704 187.875 103.068 190.159 103.792 192.217C104.527 194.303 105.45 196.182 106.539 197.801C107.676 199.491 108.862 200.979 110.066 202.225C111.341 203.544 112.471 204.652 113.429 205.521L114.684 206.671C114.34 206.324 113.986 205.963 113.615 205.58C112.296 204.217 111.019 202.615 109.783 200.78C108.55 198.943 107.524 196.862 106.706 194.544C105.89 192.222 105.487 189.653 105.495 186.836C105.507 182.868 106.384 180.073 108.13 178.449C109.764 176.931 111.906 176.295 114.556 176.541C113.512 176.212 112.505 175.981 111.545 175.853C108.843 175.497 106.686 176.069 105.097 177.55M111.137 230.385C112.358 231.706 113.655 232.944 115.018 234.091C114.895 233.961 114.77 233.828 114.647 233.696C111.591 230.382 109.088 226.72 107.131 222.696C105.293 218.918 104.092 215.02 103.53 210.996L100.845 209.903C101.174 211.93 101.68 213.934 102.358 215.897C102.847 217.314 103.426 218.709 104.092 220.078C105.48 222.932 107.187 225.622 109.182 228.108C109.806 228.886 110.457 229.645 111.139 230.385M133.964 233.318C134.932 232.753 135.418 231.65 135.421 230.006C135.421 229.405 135.347 228.778 135.195 228.127C135.04 227.476 134.787 226.803 134.433 226.103C134.077 225.406 133.571 224.647 132.92 223.831C132.267 223.015 131.441 222.141 130.442 221.208L128.255 219.203C128.73 219.702 129.157 220.191 129.533 220.66C130.319 221.64 130.921 222.549 131.373 223.436C131.825 224.327 132.159 225.211 132.36 226.061C132.549 226.867 132.645 227.653 132.643 228.395C132.638 230.412 132.026 231.79 130.83 232.487C130.083 232.92 129.191 233.131 128.174 233.121C128.879 233.386 129.577 233.588 130.265 233.72C131.766 234.01 133.001 233.875 133.969 233.31M129.032 194.296C128.108 193.315 127.157 192.456 126.177 191.711C127.474 193.202 128.619 194.868 129.592 196.683C130.508 198.395 131.201 200.201 131.655 202.068L134.19 203.035C133.809 201.785 133.308 200.574 132.682 199.407C131.662 197.501 130.444 195.799 129.029 194.298" fill="url(#paint36_radial_17373_454761)"/>
<path d="M144.215 226.862C145.173 229.363 145.649 232.104 145.642 235.086C145.632 238.26 145.047 240.696 143.885 242.396C142.724 244.096 141.164 245.155 139.208 245.575C137.251 245.995 135.04 245.875 132.574 245.216C130.105 244.558 127.563 243.475 124.944 241.964C124.261 241.569 123.588 241.153 122.93 240.726C122.272 240.394 121.608 240.038 120.94 239.653C117.131 237.452 113.697 234.696 110.643 231.384C109.666 230.323 108.742 229.228 107.877 228.093C104.647 227.909 100.953 226.614 96.7868 224.209C95.7527 223.612 94.7505 222.976 93.7728 222.311C93.1882 222.109 92.5962 221.787 91.992 221.439C86.8483 218.469 82.417 214.625 78.698 209.901C74.9791 205.177 72.1199 199.923 70.1228 194.136C68.1233 188.354 67.1334 182.397 67.1506 176.266C67.1678 170.14 68.1897 165.342 70.2137 161.879C72.2402 158.418 75.1166 156.475 78.8503 156.055C82.584 155.635 87.0227 156.909 92.1664 159.877C92.7706 160.226 93.3651 160.592 93.9472 160.962C94.9249 161.525 95.9271 162.051 96.9612 162.648C102.127 165.63 106.566 169.481 110.275 174.202C110.547 174.22 110.825 174.247 111.107 174.286C113.957 174.669 117.101 175.856 120.538 177.84L120.756 177.966C121.336 178.309 121.906 178.668 122.466 179.034C123.156 179.38 123.859 179.756 124.576 180.169C128.309 182.38 131.473 184.907 134.254 187.855C137.037 190.805 139.366 194.099 141.237 197.744C142.915 201.009 144.173 204.485 145.005 208.174L141.218 206.87C141.237 206.966 141.257 207.064 141.279 207.162L130.771 203.151C130.395 201.016 129.697 198.997 128.678 197.091C127.659 195.185 126.438 193.482 125.025 191.982C124.104 191.004 123.156 190.144 122.176 189.402C121.527 189.149 120.891 188.96 120.277 188.85C118.931 188.607 117.833 188.747 116.986 189.272C116.138 189.798 115.713 190.758 115.708 192.151C115.706 193.438 116.047 194.681 116.735 195.887C117.425 197.093 118.292 198.245 119.339 199.343C120.385 200.441 121.456 201.471 122.549 202.429L131.471 210.375C132.802 211.554 134.276 212.947 135.895 214.551C137.511 216.155 139.064 217.982 140.547 220.033C142.031 222.082 143.252 224.357 144.212 226.855L144.215 226.862ZM123.62 230.598C124.514 230.974 125.396 231.252 126.258 231.419C127.759 231.709 128.995 231.574 129.963 231.009C130.93 230.444 131.417 229.341 131.422 227.7C131.422 227.098 131.346 226.472 131.193 225.821C131.039 225.17 130.788 224.497 130.432 223.799C130.076 223.099 129.57 222.342 128.919 221.527C128.265 220.711 127.437 219.837 126.44 218.901L113.095 206.676C112.095 205.769 110.936 204.634 109.616 203.269C108.297 201.905 107.018 200.304 105.785 198.469C104.549 196.632 103.525 194.553 102.707 192.232C101.891 189.911 101.488 187.342 101.496 184.522C101.503 181.702 101.965 179.403 102.879 177.757C101.159 175.986 99.1769 174.45 96.9366 173.158C93.6746 171.274 90.9529 170.54 88.7692 170.948C86.5855 171.36 84.9422 172.768 83.8392 175.173C82.7339 177.577 82.1763 180.832 82.1664 184.937C82.1566 189.041 82.6921 192.925 83.7803 196.595C84.866 200.262 86.497 203.561 88.6709 206.491C90.8448 209.417 93.5616 211.822 96.8237 213.706C98.4031 214.617 99.8524 215.258 101.176 215.634C100.322 213.111 99.7394 210.537 99.4274 207.911L109.577 212.045C109.624 212.293 109.673 212.542 109.727 212.787L113.581 214.357C114.286 218.159 115.755 221.628 117.988 224.752C119.688 227.13 121.567 229.08 123.625 230.603M79.3318 209.063C81.6211 211.972 84.2347 214.553 87.1357 216.784C85.8559 215.497 84.6425 214.126 83.4978 212.672C79.7764 207.951 76.9196 202.696 74.9201 196.912C72.9206 191.127 71.9307 185.17 71.9479 179.041C71.9651 172.91 72.9845 168.115 75.011 164.654C77.0375 161.193 79.9139 159.248 83.6501 158.83C84.7997 158.7 86.0156 158.732 87.2978 158.924C84.3968 157.804 81.7783 157.366 79.4767 157.624C75.9641 158.02 73.213 159.877 71.3043 163.141C69.3736 166.44 68.3886 171.095 68.3714 176.976C68.3542 182.645 69.4031 188.901 71.2159 194.146C73.1 199.601 75.8314 204.622 79.3318 209.068M105.094 177.545C104.667 177.941 104.298 178.42 103.986 178.98C103.146 180.483 102.719 182.574 102.712 185.224C102.704 187.875 103.068 190.159 103.792 192.217C104.527 194.303 105.45 196.182 106.539 197.801C107.676 199.491 108.862 200.979 110.066 202.225C111.341 203.544 112.471 204.652 113.429 205.521L114.684 206.671C114.34 206.324 113.986 205.963 113.615 205.58C112.296 204.217 111.019 202.615 109.783 200.78C108.55 198.943 107.524 196.862 106.706 194.544C105.89 192.222 105.487 189.653 105.495 186.836C105.507 182.868 106.384 180.073 108.13 178.449C109.764 176.931 111.906 176.295 114.556 176.541C113.512 176.212 112.505 175.981 111.545 175.853C108.843 175.497 106.686 176.069 105.097 177.55M111.137 230.385C112.358 231.706 113.655 232.944 115.018 234.091C114.895 233.961 114.77 233.828 114.647 233.696C111.591 230.382 109.088 226.72 107.131 222.696C105.293 218.918 104.092 215.02 103.53 210.996L100.845 209.903C101.174 211.93 101.68 213.934 102.358 215.897C102.847 217.314 103.426 218.709 104.092 220.078C105.48 222.932 107.187 225.622 109.182 228.108C109.806 228.886 110.457 229.645 111.139 230.385M133.964 233.318C134.932 232.753 135.418 231.65 135.421 230.006C135.421 229.405 135.347 228.778 135.195 228.127C135.04 227.476 134.787 226.803 134.433 226.103C134.077 225.406 133.571 224.647 132.92 223.831C132.267 223.015 131.441 222.141 130.442 221.208L128.255 219.203C128.73 219.702 129.157 220.191 129.533 220.66C130.319 221.64 130.921 222.549 131.373 223.436C131.825 224.327 132.159 225.211 132.36 226.061C132.549 226.867 132.645 227.653 132.643 228.395C132.638 230.412 132.026 231.79 130.83 232.487C130.083 232.92 129.191 233.131 128.174 233.121C128.879 233.386 129.577 233.588 130.265 233.72C131.766 234.01 133.001 233.875 133.969 233.31M129.032 194.296C128.108 193.315 127.157 192.456 126.177 191.711C127.474 193.202 128.619 194.868 129.592 196.683C130.508 198.395 131.201 200.201 131.655 202.068L134.19 203.035C133.809 201.785 133.308 200.574 132.682 199.407C131.662 197.501 130.444 195.799 129.029 194.298" fill="url(#paint37_radial_17373_454761)"/>
<path d="M93.6794 146.408L73.5371 157.953C76.321 156.929 81.1519 154.518 92.574 160.164C101.122 164.389 107.845 171.34 110.137 174.288L127.332 164.217L127.319 164.203C125.384 162.103 120.006 156.268 112.594 151.444C104.856 146.408 100.557 144.524 93.6794 146.408Z" fill="url(#paint38_linear_17373_454761)"/>
<path d="M127.209 164.093L107.681 175.516C110.465 174.492 119.348 176.932 126.595 181.576C134.623 186.72 144.772 201.553 144.772 207.817L160.616 198.932C160.616 196.476 160.247 182.639 144.772 171.708C137.532 166.594 130.525 163.602 127.209 164.093Z" fill="url(#paint39_linear_17373_454761)"/>
<path d="M159.388 234.347L141.947 244.541C143.38 243.026 147.228 239.996 145.018 229.434C142.808 218.876 127.823 206.958 120.454 200.817C114.559 195.905 115.132 191.565 116.155 190.009L131.508 181.289C131.876 182.353 133.399 185.588 136.543 190.009C140.473 195.536 158.405 205.976 161.844 218.258C164.595 228.083 161.353 233.078 159.388 234.347Z" fill="url(#paint40_linear_17373_454761)"/>
<path d="M90.3631 170.807C93.6055 170.807 98.4282 173.918 100.434 175.474C99.8201 176.702 99.2306 181.173 101.785 189.229C104.34 197.286 112.348 204.705 116.032 207.407L101.294 215.636C96.0127 214.407 89.1349 208.389 85.8188 201.88C82.5027 195.37 81.643 190.458 82.2571 181.615C82.8712 172.772 86.3101 170.807 90.3631 170.807Z" fill="url(#paint41_linear_17373_454761)"/>
<path d="M151.008 162.626C171.128 162.626 187.439 146.411 187.439 126.409C187.439 118.734 185.037 111.616 180.939 105.758L150.987 123.911L120.59 106.473C116.79 112.191 114.578 119.044 114.578 126.409C114.578 146.411 130.888 162.626 151.008 162.626Z" fill="url(#paint42_radial_17373_454761)"/>
<path d="M150.88 123.911L180.939 105.768C150.928 161.842 151.167 162.606 151.167 162.606C151.167 150.394 150.88 136.736 150.88 123.911Z" fill="url(#paint43_radial_17373_454761)"/>
<path opacity="0.3" d="M150.88 123.911L120.516 106.467L151.121 162.579C151.121 150.367 150.88 136.737 150.88 123.911Z" fill="url(#paint44_radial_17373_454761)"/>
<path opacity="0.2" d="M151.003 85.4746V114.868L125.151 100.181L151.003 85.4746Z" fill="#00A3FF"/>
<path opacity="0.8" d="M151.011 85.4746L176.882 100.181L151.011 114.868V85.4746Z" fill="url(#paint45_radial_17373_454761)"/>
<path d="M151.011 60.7539L176.882 100.189L151.011 85.4419V60.7539Z" fill="url(#paint46_radial_17373_454761)"/>
<path opacity="0.5" d="M151.003 85.4377L125.131 100.185L151.003 60.7305V85.4377Z" fill="url(#paint47_radial_17373_454761)"/>
<g opacity="0.6" filter="url(#filter5_f_17373_454761)">
<path d="M140.326 162.626C160.446 162.626 176.756 146.411 176.756 126.409C176.756 118.734 174.354 111.616 170.257 105.758L140.305 123.911L109.907 106.473C106.107 112.191 103.896 119.044 103.896 126.409C103.896 146.411 120.206 162.626 140.326 162.626Z" fill="url(#paint48_radial_17373_454761)"/>
<path d="M140.197 123.911L170.257 105.768C140.245 161.842 140.484 162.606 140.484 162.606C140.484 150.394 140.197 136.736 140.197 123.911Z" fill="url(#paint49_radial_17373_454761)"/>
<path opacity="0.3" d="M140.197 123.911L109.833 106.467L140.438 162.579C140.438 150.367 140.197 136.737 140.197 123.911Z" fill="url(#paint50_radial_17373_454761)"/>
<path opacity="0.2" d="M140.32 85.4746V114.868L114.468 100.181L140.32 85.4746Z" fill="#00A3FF"/>
<path opacity="0.8" d="M140.329 85.4746L166.199 100.181L140.329 114.868V85.4746Z" fill="url(#paint51_radial_17373_454761)"/>
<path d="M140.329 60.7539L166.199 100.189L140.329 85.4419V60.7539Z" fill="url(#paint52_radial_17373_454761)"/>
<path opacity="0.5" d="M140.32 85.4377L114.449 100.185L140.32 60.7305V85.4377Z" fill="url(#paint53_radial_17373_454761)"/>
</g>
<path d="M230.861 85.988C236.094 88.9794 236.122 93.8286 230.923 96.8184L160.443 137.365C155.244 140.357 146.787 140.357 141.554 137.365L70.6155 96.82C65.3832 93.8286 65.3548 88.9794 70.5538 85.9896L141.033 45.4428C146.232 42.4514 154.69 42.4514 159.923 45.4428L230.863 85.988H230.861Z" fill="url(#paint54_radial_17373_454761)"/>
<path d="M230.861 99.2222C236.094 102.219 236.122 107.078 230.923 110.073L160.443 150.695C155.244 153.693 146.787 153.693 141.554 150.695L70.6155 110.075C65.3832 107.078 65.3548 102.219 70.5538 99.2239L141.033 58.6013C146.232 55.6043 154.69 55.6043 159.923 58.6013L230.863 99.2222H230.861Z" fill="url(#paint55_radial_17373_454761)"/>
</g>
<defs>
<filter id="filter0_f_17373_454761" x="28.2002" y="19.1992" width="219.375" height="259.199" filterUnits="userSpaceOnUse" color-interpolation-filters="sRGB">
<feFlood flood-opacity="0" result="BackgroundImageFix"/>
<feBlend mode="normal" in="SourceGraphic" in2="BackgroundImageFix" result="shape"/>
<feGaussianBlur stdDeviation="12" result="effect1_foregroundBlur_17373_454761"/>
</filter>
<filter id="filter1_f_17373_454761" x="-51.7588" y="-15.8887" width="378.752" height="336.043" filterUnits="userSpaceOnUse" color-interpolation-filters="sRGB">
<feFlood flood-opacity="0" result="BackgroundImageFix"/>
<feBlend mode="normal" in="SourceGraphic" in2="BackgroundImageFix" result="shape"/>
<feGaussianBlur stdDeviation="70" result="effect1_foregroundBlur_17373_454761"/>
</filter>
<filter id="filter2_b_17373_454761" x="69.3496" y="26.7305" width="140.86" height="169.895" filterUnits="userSpaceOnUse" color-interpolation-filters="sRGB">
<feFlood flood-opacity="0" result="BackgroundImageFix"/>
<feGaussianBlur in="BackgroundImageFix" stdDeviation="17"/>
<feComposite in2="SourceAlpha" operator="in" result="effect1_backgroundBlur_17373_454761"/>
<feBlend mode="normal" in="SourceGraphic" in2="effect1_backgroundBlur_17373_454761" result="shape"/>
</filter>
<filter id="filter3_f_17373_454761" x="-9.33301" y="-41.2695" width="276.86" height="305.895" filterUnits="userSpaceOnUse" color-interpolation-filters="sRGB">
<feFlood flood-opacity="0" result="BackgroundImageFix"/>
<feBlend mode="normal" in="SourceGraphic" in2="BackgroundImageFix" result="shape"/>
<feGaussianBlur stdDeviation="51" result="effect1_foregroundBlur_17373_454761"/>
</filter>
<filter id="filter4_f_17373_454761" x="-40.5303" y="-15.8887" width="378.752" height="336.043" filterUnits="userSpaceOnUse" color-interpolation-filters="sRGB">
<feFlood flood-opacity="0" result="BackgroundImageFix"/>
<feBlend mode="normal" in="SourceGraphic" in2="BackgroundImageFix" result="shape"/>
<feGaussianBlur stdDeviation="70" result="effect1_foregroundBlur_17373_454761"/>
</filter>
<filter id="filter5_f_17373_454761" x="1.89551" y="-41.2695" width="276.86" height="305.895" filterUnits="userSpaceOnUse" color-interpolation-filters="sRGB">
<feFlood flood-opacity="0" result="BackgroundImageFix"/>
<feBlend mode="normal" in="SourceGraphic" in2="BackgroundImageFix" result="shape"/>
<feGaussianBlur stdDeviation="51" result="effect1_foregroundBlur_17373_454761"/>
</filter>
<radialGradient id="paint0_radial_17373_454761" cx="0" cy="0" r="1" gradientUnits="userSpaceOnUse" gradientTransform="translate(134.374 254.398) rotate(-29.5038) scale(94.4171 79.1567)">
<stop offset="0.347139" stop-color="#FFC7EF"/>
<stop offset="1" stop-color="#E6E8FF" stop-opacity="0"/>
</radialGradient>
<radialGradient id="paint1_radial_17373_454761" cx="0" cy="0" r="1" gradientUnits="userSpaceOnUse" gradientTransform="translate(141.582 152.223) scale(36.7618 22.347)">
<stop offset="0.0404544" stop-color="#00A3FF"/>
<stop offset="0.929325" stop-color="#00A3FF" stop-opacity="0"/>
</radialGradient>
<radialGradient id="paint2_radial_17373_454761" cx="0" cy="0" r="1" gradientUnits="userSpaceOnUse" gradientTransform="translate(155.583 190.47) rotate(65.216) scale(114.579 60.1443)">
<stop stop-color="#FF67A8" stop-opacity="0.87"/>
<stop offset="0.723967" stop-color="#6BAFFF" stop-opacity="0"/>
</radialGradient>
<radialGradient id="paint3_radial_17373_454761" cx="0" cy="0" r="1" gradientUnits="userSpaceOnUse" gradientTransform="translate(237.995 209.016) rotate(-139.549) scale(111.688 31.4383)">
<stop stop-color="#2238FF"/>
<stop offset="1" stop-color="#0047FF" stop-opacity="0"/>
</radialGradient>
<linearGradient id="paint4_linear_17373_454761" x1="141.311" y1="162.225" x2="181.366" y2="193.94" gradientUnits="userSpaceOnUse">
<stop stop-color="#F981E6"/>
<stop offset="1" stop-color="#F981B7" stop-opacity="0"/>
</linearGradient>
<linearGradient id="paint5_linear_17373_454761" x1="180.215" y1="182.311" x2="204.126" y2="186.334" gradientUnits="userSpaceOnUse">
<stop stop-color="#357CE6" stop-opacity="0.42"/>
<stop offset="1" stop-color="#FFB5F8" stop-opacity="0"/>
<stop offset="1" stop-color="#D6B5FF" stop-opacity="0"/>
</linearGradient>
<linearGradient id="paint6_linear_17373_454761" x1="197.71" y1="180.644" x2="157.554" y2="153.488" gradientUnits="userSpaceOnUse">
<stop stop-color="#D97ABE"/>
<stop offset="0.780546" stop-color="#FFB5F8" stop-opacity="0.3"/>
</linearGradient>
<linearGradient id="paint7_linear_17373_454761" x1="223.38" y1="152.765" x2="184.805" y2="143.361" gradientUnits="userSpaceOnUse">
<stop stop-color="#7572FD"/>
<stop offset="1" stop-color="#BBB5FF" stop-opacity="0"/>
</linearGradient>
<radialGradient id="paint8_radial_17373_454761" cx="0" cy="0" r="1" gradientUnits="userSpaceOnUse" gradientTransform="translate(134.374 207.637) rotate(151.153) scale(156.872 115.957)">
<stop stop-color="#FF67CB" stop-opacity="0.47"/>
<stop offset="0.723967" stop-color="#FF33D2" stop-opacity="0"/>
</radialGradient>
<radialGradient id="paint9_radial_17373_454761" cx="0" cy="0" r="1" gradientUnits="userSpaceOnUse" gradientTransform="translate(76.5848 245.489) rotate(-87.1259) scale(118.026 47.5468)">
<stop stop-color="#2238FF"/>
<stop offset="1" stop-color="#0047FF" stop-opacity="0"/>
</radialGradient>
<linearGradient id="paint10_linear_17373_454761" x1="66.7848" y1="164.653" x2="104.363" y2="187.145" gradientUnits="userSpaceOnUse">
<stop stop-color="#72AAFD"/>
<stop offset="1" stop-color="#FFB5F8" stop-opacity="0"/>
<stop offset="1" stop-color="#D6B5FF" stop-opacity="0"/>
</linearGradient>
<linearGradient id="paint11_linear_17373_454761" x1="101.665" y1="182.012" x2="133.302" y2="207.713" gradientUnits="userSpaceOnUse">
<stop stop-color="#5F82FF"/>
<stop offset="0.780546" stop-color="#FFB5E6" stop-opacity="0.3"/>
</linearGradient>
<linearGradient id="paint12_linear_17373_454761" x1="138.456" y1="260.507" x2="117.823" y2="195.659" gradientUnits="userSpaceOnUse">
<stop stop-color="#EF81F9"/>
<stop offset="1" stop-color="#F981B7" stop-opacity="0"/>
</linearGradient>
<linearGradient id="paint13_linear_17373_454761" x1="73.6704" y1="200.532" x2="104.122" y2="207.872" gradientUnits="userSpaceOnUse">
<stop stop-color="#B8BFFF"/>
<stop offset="1" stop-color="#FFB5F8" stop-opacity="0"/>
<stop offset="1" stop-color="#D6B5FF" stop-opacity="0"/>
</linearGradient>
<radialGradient id="paint14_radial_17373_454761" cx="0" cy="0" r="1" gradientUnits="userSpaceOnUse" gradientTransform="translate(87.7907 139.43) rotate(-4.20059) scale(118.459 157.831)">
<stop offset="0.104397" stop-color="#E3F5FF" stop-opacity="0"/>
<stop offset="0.668358" stop-color="#00A3FF" stop-opacity="0.45726"/>
<stop offset="0.927101" stop-color="#00A3FF"/>
</radialGradient>
<radialGradient id="paint15_radial_17373_454761" cx="0" cy="0" r="1" gradientUnits="userSpaceOnUse" gradientTransform="translate(139.692 124.972) rotate(68.2829) scale(40.5091 50.9765)">
<stop stop-color="#00A3FF"/>
<stop offset="1" stop-color="#00A3FF" stop-opacity="0"/>
</radialGradient>
<radialGradient id="paint16_radial_17373_454761" cx="0" cy="0" r="1" gradientUnits="userSpaceOnUse" gradientTransform="translate(141.486 126.23) rotate(147.681) scale(68.0599 36.1224)">
<stop stop-color="#00A3FF"/>
<stop offset="1" stop-color="#00A3FF" stop-opacity="0"/>
</radialGradient>
<radialGradient id="paint17_radial_17373_454761" cx="0" cy="0" r="1" gradientUnits="userSpaceOnUse" gradientTransform="translate(137.707 112.195) rotate(-27.2912) scale(46.4813 40.5324)">
<stop stop-color="#00A3FF"/>
<stop offset="1" stop-color="#00A3FF" stop-opacity="0"/>
</radialGradient>
<radialGradient id="paint18_radial_17373_454761" cx="0" cy="0" r="1" gradientUnits="userSpaceOnUse" gradientTransform="translate(152.718 80.4716) rotate(136.216) scale(54.1084 35.2801)">
<stop stop-color="#00A3FF"/>
<stop offset="1" stop-color="#00A3FF" stop-opacity="0"/>
</radialGradient>
<radialGradient id="paint19_radial_17373_454761" cx="0" cy="0" r="1" gradientUnits="userSpaceOnUse" gradientTransform="translate(139.798 87.763) rotate(-134.539) scale(33.5468 42.4709)">
<stop stop-color="#00A3FF"/>
<stop offset="0.490775" stop-color="#00A3FF" stop-opacity="0.509225"/>
<stop offset="1" stop-color="#00A3FF" stop-opacity="0"/>
</radialGradient>
<radialGradient id="paint20_radial_17373_454761" cx="0" cy="0" r="1" gradientUnits="userSpaceOnUse" gradientTransform="translate(95.5402 138.85) rotate(-4.64276) scale(100.037 133.286)">
<stop offset="0.104397" stop-color="#00A3FF" stop-opacity="0"/>
<stop offset="0.668358" stop-color="#00A3FF" stop-opacity="0.45726"/>
<stop offset="0.927101" stop-color="#00A3FF"/>
</radialGradient>
<radialGradient id="paint21_radial_17373_454761" cx="0" cy="0" r="1" gradientUnits="userSpaceOnUse" gradientTransform="translate(129.009 124.972) rotate(68.2829) scale(40.5091 50.9765)">
<stop stop-color="#00A3FF"/>
<stop offset="1" stop-color="#00A3FF" stop-opacity="0"/>
</radialGradient>
<radialGradient id="paint22_radial_17373_454761" cx="0" cy="0" r="1" gradientUnits="userSpaceOnUse" gradientTransform="translate(130.803 126.23) rotate(147.681) scale(68.0599 36.1224)">
<stop stop-color="#00A3FF"/>
<stop offset="1" stop-color="#00A3FF" stop-opacity="0"/>
</radialGradient>
<radialGradient id="paint23_radial_17373_454761" cx="0" cy="0" r="1" gradientUnits="userSpaceOnUse" gradientTransform="translate(127.024 112.195) rotate(-27.2911) scale(46.4813 40.5324)">
<stop stop-color="#00A3FF"/>
<stop offset="1" stop-color="#00A3FF" stop-opacity="0"/>
</radialGradient>
<radialGradient id="paint24_radial_17373_454761" cx="0" cy="0" r="1" gradientUnits="userSpaceOnUse" gradientTransform="translate(142.035 80.4716) rotate(136.216) scale(54.1084 35.2801)">
<stop stop-color="#00A3FF"/>
<stop offset="1" stop-color="#00A3FF" stop-opacity="0"/>
</radialGradient>
<radialGradient id="paint25_radial_17373_454761" cx="0" cy="0" r="1" gradientUnits="userSpaceOnUse" gradientTransform="translate(129.115 87.763) rotate(-134.539) scale(33.5468 42.4709)">
<stop stop-color="#00A3FF"/>
<stop offset="0.490775" stop-color="#00A3FF" stop-opacity="0.509225"/>
<stop offset="1" stop-color="#00A3FF" stop-opacity="0"/>
</radialGradient>
<radialGradient id="paint26_radial_17373_454761" cx="0" cy="0" r="1" gradientUnits="userSpaceOnUse" gradientTransform="translate(139.6 133.752) rotate(-91.2594) scale(126.423 182.161)">
<stop offset="0.374977" stop-color="#FF6BBB" stop-opacity="0"/>
<stop offset="1" stop-color="#FF27CF"/>
</radialGradient>
<radialGradient id="paint27_radial_17373_454761" cx="0" cy="0" r="1" gradientUnits="userSpaceOnUse" gradientTransform="translate(136.821 121.076) rotate(-90) scale(100.629 144.724)">
<stop offset="0.347213" stop-color="#FF6BBB" stop-opacity="0"/>
<stop offset="1" stop-color="#FF27CF"/>
</radialGradient>
<radialGradient id="paint28_radial_17373_454761" cx="0" cy="0" r="1" gradientUnits="userSpaceOnUse" gradientTransform="translate(145.602 254.398) rotate(-29.5038) scale(94.4171 79.1567)">
<stop offset="0.347139" stop-color="#FFC7EF"/>
<stop offset="1" stop-color="#E6E8FF" stop-opacity="0"/>
</radialGradient>
<radialGradient id="paint29_radial_17373_454761" cx="0" cy="0" r="1" gradientUnits="userSpaceOnUse" gradientTransform="translate(152.81 152.223) scale(36.7618 22.347)">
<stop offset="0.0404544" stop-color="#00A3FF"/>
<stop offset="0.929325" stop-color="#00A3FF" stop-opacity="0"/>
</radialGradient>
<radialGradient id="paint30_radial_17373_454761" cx="0" cy="0" r="1" gradientUnits="userSpaceOnUse" gradientTransform="translate(166.812 190.47) rotate(65.216) scale(114.579 60.1443)">
<stop stop-color="#FF67A8" stop-opacity="0.87"/>
<stop offset="0.723967" stop-color="#6BAFFF" stop-opacity="0"/>
</radialGradient>
<radialGradient id="paint31_radial_17373_454761" cx="0" cy="0" r="1" gradientUnits="userSpaceOnUse" gradientTransform="translate(249.223 209.016) rotate(-139.549) scale(111.688 31.4383)">
<stop stop-color="#2238FF"/>
<stop offset="1" stop-color="#0047FF" stop-opacity="0"/>
</radialGradient>
<linearGradient id="paint32_linear_17373_454761" x1="152.539" y1="162.225" x2="192.594" y2="193.94" gradientUnits="userSpaceOnUse">
<stop stop-color="#F981E6"/>
<stop offset="1" stop-color="#F981B7" stop-opacity="0"/>
</linearGradient>
<linearGradient id="paint33_linear_17373_454761" x1="191.443" y1="182.311" x2="215.354" y2="186.334" gradientUnits="userSpaceOnUse">
<stop stop-color="#357CE6" stop-opacity="0.42"/>
<stop offset="1" stop-color="#FFB5F8" stop-opacity="0"/>
<stop offset="1" stop-color="#D6B5FF" stop-opacity="0"/>
</linearGradient>
<linearGradient id="paint34_linear_17373_454761" x1="208.939" y1="180.644" x2="168.782" y2="153.488" gradientUnits="userSpaceOnUse">
<stop stop-color="#D97ABE"/>
<stop offset="0.780546" stop-color="#FFB5F8" stop-opacity="0.3"/>
</linearGradient>
<linearGradient id="paint35_linear_17373_454761" x1="234.608" y1="152.765" x2="196.033" y2="143.361" gradientUnits="userSpaceOnUse">
<stop stop-color="#7572FD"/>
<stop offset="1" stop-color="#BBB5FF" stop-opacity="0"/>
</linearGradient>
<radialGradient id="paint36_radial_17373_454761" cx="0" cy="0" r="1" gradientUnits="userSpaceOnUse" gradientTransform="translate(145.602 207.637) rotate(151.153) scale(156.872 115.957)">
<stop stop-color="#FF67CB" stop-opacity="0.47"/>
<stop offset="0.723967" stop-color="#FF33D2" stop-opacity="0"/>
</radialGradient>
<radialGradient id="paint37_radial_17373_454761" cx="0" cy="0" r="1" gradientUnits="userSpaceOnUse" gradientTransform="translate(87.8133 245.489) rotate(-87.1259) scale(118.026 47.5467)">
<stop stop-color="#2238FF"/>
<stop offset="1" stop-color="#0047FF" stop-opacity="0"/>
</radialGradient>
<linearGradient id="paint38_linear_17373_454761" x1="78.0133" y1="164.653" x2="115.591" y2="187.145" gradientUnits="userSpaceOnUse">
<stop stop-color="#72AAFD"/>
<stop offset="1" stop-color="#FFB5F8" stop-opacity="0"/>
<stop offset="1" stop-color="#D6B5FF" stop-opacity="0"/>
</linearGradient>
<linearGradient id="paint39_linear_17373_454761" x1="112.894" y1="182.012" x2="144.531" y2="207.713" gradientUnits="userSpaceOnUse">
<stop stop-color="#5F82FF"/>
<stop offset="0.780546" stop-color="#FFB5E6" stop-opacity="0.3"/>
</linearGradient>
<linearGradient id="paint40_linear_17373_454761" x1="149.685" y1="260.507" x2="129.051" y2="195.659" gradientUnits="userSpaceOnUse">
<stop stop-color="#EF81F9"/>
<stop offset="1" stop-color="#F981B7" stop-opacity="0"/>
</linearGradient>
<linearGradient id="paint41_linear_17373_454761" x1="84.8989" y1="200.532" x2="115.35" y2="207.872" gradientUnits="userSpaceOnUse">
<stop stop-color="#B8BFFF"/>
<stop offset="1" stop-color="#FFB5F8" stop-opacity="0"/>
<stop offset="1" stop-color="#D6B5FF" stop-opacity="0"/>
</linearGradient>
<radialGradient id="paint42_radial_17373_454761" cx="0" cy="0" r="1" gradientUnits="userSpaceOnUse" gradientTransform="translate(99.0192 139.43) rotate(-4.20059) scale(118.459 157.831)">
<stop offset="0.104397" stop-color="#E3F5FF" stop-opacity="0"/>
<stop offset="0.668358" stop-color="#00A3FF" stop-opacity="0.45726"/>
<stop offset="0.927101" stop-color="#00A3FF"/>
</radialGradient>
<radialGradient id="paint43_radial_17373_454761" cx="0" cy="0" r="1" gradientUnits="userSpaceOnUse" gradientTransform="translate(150.92 124.972) rotate(68.2829) scale(40.5091 50.9765)">
<stop stop-color="#00A3FF"/>
<stop offset="1" stop-color="#00A3FF" stop-opacity="0"/>
</radialGradient>
<radialGradient id="paint44_radial_17373_454761" cx="0" cy="0" r="1" gradientUnits="userSpaceOnUse" gradientTransform="translate(152.714 126.23) rotate(147.681) scale(68.0599 36.1224)">
<stop stop-color="#00A3FF"/>
<stop offset="1" stop-color="#00A3FF" stop-opacity="0"/>
</radialGradient>
<radialGradient id="paint45_radial_17373_454761" cx="0" cy="0" r="1" gradientUnits="userSpaceOnUse" gradientTransform="translate(148.935 112.195) rotate(-27.2912) scale(46.4813 40.5324)">
<stop stop-color="#00A3FF"/>
<stop offset="1" stop-color="#00A3FF" stop-opacity="0"/>
</radialGradient>
<radialGradient id="paint46_radial_17373_454761" cx="0" cy="0" r="1" gradientUnits="userSpaceOnUse" gradientTransform="translate(163.947 80.4716) rotate(136.216) scale(54.1084 35.2801)">
<stop stop-color="#00A3FF"/>
<stop offset="1" stop-color="#00A3FF" stop-opacity="0"/>
</radialGradient>
<radialGradient id="paint47_radial_17373_454761" cx="0" cy="0" r="1" gradientUnits="userSpaceOnUse" gradientTransform="translate(151.026 87.763) rotate(-134.539) scale(33.5468 42.4709)">
<stop stop-color="#00A3FF"/>
<stop offset="0.490775" stop-color="#00A3FF" stop-opacity="0.509225"/>
<stop offset="1" stop-color="#00A3FF" stop-opacity="0"/>
</radialGradient>
<radialGradient id="paint48_radial_17373_454761" cx="0" cy="0" r="1" gradientUnits="userSpaceOnUse" gradientTransform="translate(106.769 138.85) rotate(-4.64276) scale(100.037 133.286)">
<stop offset="0.104397" stop-color="#00A3FF" stop-opacity="0"/>
<stop offset="0.668358" stop-color="#00A3FF" stop-opacity="0.45726"/>
<stop offset="0.927101" stop-color="#00A3FF"/>
</radialGradient>
<radialGradient id="paint49_radial_17373_454761" cx="0" cy="0" r="1" gradientUnits="userSpaceOnUse" gradientTransform="translate(140.238 124.972) rotate(68.2829) scale(40.5091 50.9765)">
<stop stop-color="#00A3FF"/>
<stop offset="1" stop-color="#00A3FF" stop-opacity="0"/>
</radialGradient>
<radialGradient id="paint50_radial_17373_454761" cx="0" cy="0" r="1" gradientUnits="userSpaceOnUse" gradientTransform="translate(142.032 126.23) rotate(147.681) scale(68.0599 36.1224)">
<stop stop-color="#00A3FF"/>
<stop offset="1" stop-color="#00A3FF" stop-opacity="0"/>
</radialGradient>
<radialGradient id="paint51_radial_17373_454761" cx="0" cy="0" r="1" gradientUnits="userSpaceOnUse" gradientTransform="translate(138.253 112.195) rotate(-27.2911) scale(46.4813 40.5324)">
<stop stop-color="#00A3FF"/>
<stop offset="1" stop-color="#00A3FF" stop-opacity="0"/>
</radialGradient>
<radialGradient id="paint52_radial_17373_454761" cx="0" cy="0" r="1" gradientUnits="userSpaceOnUse" gradientTransform="translate(153.264 80.4716) rotate(136.216) scale(54.1084 35.2801)">
<stop stop-color="#00A3FF"/>
<stop offset="1" stop-color="#00A3FF" stop-opacity="0"/>
</radialGradient>
<radialGradient id="paint53_radial_17373_454761" cx="0" cy="0" r="1" gradientUnits="userSpaceOnUse" gradientTransform="translate(140.344 87.763) rotate(-134.539) scale(33.5468 42.4709)">
<stop stop-color="#00A3FF"/>
<stop offset="0.490775" stop-color="#00A3FF" stop-opacity="0.509225"/>
<stop offset="1" stop-color="#00A3FF" stop-opacity="0"/>
</radialGradient>
<radialGradient id="paint54_radial_17373_454761" cx="0" cy="0" r="1" gradientUnits="userSpaceOnUse" gradientTransform="translate(150.828 133.752) rotate(-91.2594) scale(126.423 182.161)">
<stop offset="0.374977" stop-color="#FF6BBB" stop-opacity="0"/>
<stop offset="1" stop-color="#FF27CF"/>
</radialGradient>
<radialGradient id="paint55_radial_17373_454761" cx="0" cy="0" r="1" gradientUnits="userSpaceOnUse" gradientTransform="translate(148.05 121.076) rotate(-90) scale(100.629 144.724)">
<stop offset="0.347213" stop-color="#FF6BBB" stop-opacity="0"/>
<stop offset="1" stop-color="#FF27CF"/>
</radialGradient>
<clipPath id="clip0_17373_454761">
<rect width="300" height="300" rx="20" fill="white"/>
</clipPath>
<clipPath id="clip1_17373_454761">
<rect x="71.3018" y="43.1992" width="136.956" height="136.956" rx="20" fill="white"/>
</clipPath>
</defs>
</svg>
