<svg width="80" height="80" viewBox="0 0 80 80" fill="none" xmlns="http://www.w3.org/2000/svg">
<g opacity="0.8" filter="url(#filter0_f_5972_736)">
<path d="M23.0812 23.6407C23.7266 22.7524 24.4409 21.9161 25.2173 21.1396L25.4779 21.2832L39.9021 35.785L40.039 35.9613L23.0812 23.6407Z" fill="url(#paint0_radial_5972_736)"/>
<path d="M25.2173 21.1396C28.3474 18.0095 32.3879 15.9508 36.76 15.2583L36.905 15.6569L40.039 35.6834V35.9613L25.2173 21.1396Z" fill="url(#paint1_radial_5972_736)"/>
<path d="M49.5576 17.2861C50.5353 17.7845 51.4723 18.3588 52.3602 19.0039L52.3227 19.3303L40.115 35.9007L40.0391 35.9614L49.5576 17.2861Z" fill="url(#paint2_radial_5972_736)"/>
<path d="M61 35.9609C61 38.1605 60.6538 40.3463 59.9741 42.4382L59.4785 42.518L40.1932 36.0395L40.0391 35.9609H61Z" fill="url(#paint3_radial_5972_736)"/>
<path d="M59.9744 42.4378C59.2947 44.5297 58.2901 46.5016 56.9972 48.281L56.5196 48.2001L40.1381 36.0639L40.0391 35.9609L59.9744 42.4378Z" fill="url(#paint4_radial_5972_736)"/>
<path d="M46.5163 55.8961C43.3704 56.9181 40.0271 57.1813 36.76 56.6638L36.6292 56.2621L39.9445 36.3176L40.039 35.9609L46.5163 55.8961Z" fill="url(#paint5_radial_5972_736)"/>
<path d="M36.76 56.6638C35.6754 56.4922 34.6061 56.2355 33.5617 55.8961L33.5039 55.4114L39.9195 36.1797L40.039 35.9609L36.76 56.6638Z" fill="url(#paint6_radial_5972_736)"/>
<path d="M33.5617 55.8961C31.4698 55.2164 29.4979 54.2118 27.7184 52.9189V52.5393L39.8249 36.1746L40.039 35.9609L33.5617 55.8961Z" fill="url(#paint7_radial_5972_736)"/>
<path d="M21.3626 45.4767C19.8609 42.5295 19.078 39.2686 19.078 35.9607L19.3461 35.8618H39.3609L40.039 35.9607L21.3626 45.4767Z" fill="url(#paint8_radial_5972_736)"/>
<path d="M36.7588 15.2583C40.0264 14.7405 43.3702 15.0036 46.5167 16.026L40.039 35.961L36.7588 15.2583Z" fill="url(#paint9_radial_5972_736)"/>
<path d="M52.3596 19.0034C55.9406 21.6051 58.6059 25.2736 59.9738 29.4832L40.039 35.9612L52.3596 19.0034Z" fill="url(#paint10_radial_5972_736)"/>
<path d="M27.7184 52.9188C25.939 51.6259 24.3741 50.0609 23.0812 48.2815L40.039 35.9609L27.7184 52.9188Z" fill="url(#paint11_radial_5972_736)"/>
<path d="M19.078 35.9612C19.078 33.7616 19.4242 31.5758 20.1039 29.4839L40.039 35.9612H19.078Z" fill="url(#paint12_radial_5972_736)"/>
<path d="M56.9975 48.2806C55.7046 50.0601 54.1399 51.6253 52.3605 52.9182L40.039 35.9609L56.9975 48.2806Z" fill="url(#paint13_radial_5972_736)"/>
</g>
<path d="M23.0107 27.6566C23.6573 26.7666 24.3729 25.9288 25.1508 25.1509L25.4118 25.2947L39.8629 39.8235L40 40.0001L23.0107 27.6566Z" fill="url(#paint14_radial_5972_736)"/>
<path d="M25.1507 25.151C28.2866 22.0151 32.3347 19.9525 36.7149 19.2588L36.8601 19.6581L40 39.7219V40.0003L25.1507 25.151Z" fill="url(#paint15_radial_5972_736)"/>
<path d="M49.5363 21.2905C50.5158 21.7898 51.4545 22.3652 52.3441 23.0115L52.3066 23.3385L40.0761 39.9397L40.0001 40.0005L49.5363 21.2905Z" fill="url(#paint16_radial_5972_736)"/>
<path d="M61 40C61 42.2036 60.6532 44.3935 59.9722 46.4893L59.4756 46.5693L40.1545 40.0787L40.0001 40H61Z" fill="url(#paint17_radial_5972_736)"/>
<path d="M59.9725 46.4889C59.2916 48.5847 58.2851 50.5603 56.9898 52.343L56.5112 52.2619L40.0993 40.1031L40.0001 40L59.9725 46.4889Z" fill="url(#paint18_radial_5972_736)"/>
<path d="M46.4894 59.9722C43.3375 60.9962 39.9881 61.2599 36.7149 60.7414L36.5838 60.3389L39.9053 40.3573L40 40L46.4894 59.9722Z" fill="url(#paint19_radial_5972_736)"/>
<path d="M36.7149 60.7414C35.6283 60.5694 34.5569 60.3123 33.5107 59.9722L33.4527 59.4866L39.8803 40.2191L40 40L36.7149 60.7414Z" fill="url(#paint20_radial_5972_736)"/>
<path d="M33.5106 59.9722C31.4148 59.2913 29.4393 58.2848 27.6565 56.9895V56.6092L39.7855 40.2141L40 40L33.5106 59.9722Z" fill="url(#paint21_radial_5972_736)"/>
<path d="M21.2889 49.5331C19.7843 46.5805 19 43.3135 19 39.9995L19.2686 39.9004H39.3206L40 39.9995L21.2889 49.5331Z" fill="url(#paint22_radial_5972_736)"/>
<path d="M36.7136 19.2587C39.9874 18.74 43.3374 19.0036 46.4897 20.0279L40 40L36.7136 19.2587Z" fill="url(#paint23_radial_5972_736)"/>
<path d="M52.3435 23.0107C55.9312 25.6173 58.6014 29.2926 59.9719 33.51L40 40.0001L52.3435 23.0107Z" fill="url(#paint24_radial_5972_736)"/>
<path d="M27.6565 56.9894C25.8737 55.6941 24.3059 54.1262 23.0107 52.3435L40 40L27.6565 56.9894Z" fill="url(#paint25_radial_5972_736)"/>
<path d="M19 40.0001C19 37.7964 19.3469 35.6065 20.0278 33.5107L40 40.0001H19Z" fill="url(#paint26_radial_5972_736)"/>
<path d="M56.99 52.3426C55.6947 54.1253 54.1271 55.6935 52.3444 56.9888L40 40L56.99 52.3426Z" fill="url(#paint27_radial_5972_736)"/>
<defs>
<filter id="filter0_f_5972_736" x="5.078" y="1" width="69.922" height="69.9219" filterUnits="userSpaceOnUse" color-interpolation-filters="sRGB">
<feFlood flood-opacity="0" result="BackgroundImageFix"/>
<feBlend mode="normal" in="SourceGraphic" in2="BackgroundImageFix" result="shape"/>
<feGaussianBlur stdDeviation="7" result="effect1_foregroundBlur_5972_736"/>
</filter>
<radialGradient id="paint0_radial_5972_736" cx="0" cy="0" r="1" gradientUnits="userSpaceOnUse" gradientTransform="translate(40.039 35.9613) rotate(-139.191) scale(21.088)">
<stop stop-color="#A273FF"/>
<stop offset="1" stop-color="#4331E9"/>
</radialGradient>
<radialGradient id="paint1_radial_5972_736" cx="0" cy="0" r="1" gradientUnits="userSpaceOnUse" gradientTransform="translate(40.039 35.9612) rotate(-98.9946) scale(21.4642 21.4642)">
<stop stop-color="#F7A7F9"/>
<stop offset="1" stop-color="#00DDFB"/>
</radialGradient>
<radialGradient id="paint2_radial_5972_736" cx="0" cy="0" r="1" gradientUnits="userSpaceOnUse" gradientTransform="translate(40.0391 35.9614) rotate(180) scale(21.4789 21.4789)">
<stop stop-color="#FFF3D0"/>
<stop offset="1" stop-color="#FFC044"/>
</radialGradient>
<radialGradient id="paint3_radial_5972_736" cx="0" cy="0" r="1" gradientUnits="userSpaceOnUse" gradientTransform="translate(40.0391 35.9609) rotate(-90) scale(21.4424 21.4425)">
<stop stop-color="#A273FF"/>
<stop offset="0.5" stop-color="#9FAEFF"/>
<stop offset="1" stop-color="#AAF2E1"/>
</radialGradient>
<radialGradient id="paint4_radial_5972_736" cx="0" cy="0" r="1" gradientUnits="userSpaceOnUse" gradientTransform="translate(40.039 35.961) rotate(35.9904) scale(21.3812)">
<stop stop-color="#0075FF"/>
<stop offset="1" stop-color="#00DDFB"/>
</radialGradient>
<radialGradient id="paint5_radial_5972_736" cx="0" cy="0" r="1" gradientUnits="userSpaceOnUse" gradientTransform="translate(40.039 35.9609) rotate(90) scale(21.46 21.4599)">
<stop stop-color="#FFCD6B"/>
<stop offset="1" stop-color="#EB5EDF"/>
</radialGradient>
<radialGradient id="paint6_radial_5972_736" cx="0" cy="0" r="1" gradientUnits="userSpaceOnUse" gradientTransform="translate(40.039 35.9609) rotate(90) scale(21.5043 21.5044)">
<stop stop-color="#D5FAFF"/>
<stop offset="1" stop-color="#00DDFB"/>
</radialGradient>
<radialGradient id="paint7_radial_5972_736" cx="0" cy="0" r="1" gradientUnits="userSpaceOnUse" gradientTransform="translate(40.039 35.961) rotate(114.172) scale(22.9754 22.9754)">
<stop stop-color="#FFD2B9"/>
<stop offset="0.289583" stop-color="#C99BED"/>
<stop offset="1" stop-color="#0075FF"/>
</radialGradient>
<radialGradient id="paint8_radial_5972_736" cx="0" cy="0" r="1" gradientUnits="userSpaceOnUse" gradientTransform="translate(40.039 35.9607) rotate(-180) scale(27.9203 27.9203)">
<stop stop-color="#6D28FF"/>
<stop offset="1" stop-color="#F7A7F9"/>
</radialGradient>
<radialGradient id="paint9_radial_5972_736" cx="0" cy="0" r="1" gradientUnits="userSpaceOnUse" gradientTransform="translate(40.039 35.961) rotate(-90) scale(21.4426 21.4425)">
<stop stop-color="#A273FF"/>
<stop offset="0.5" stop-color="#9FAEFF"/>
<stop offset="1" stop-color="#AAF2E1"/>
</radialGradient>
<radialGradient id="paint10_radial_5972_736" cx="0" cy="0" r="1" gradientUnits="userSpaceOnUse" gradientTransform="translate(40.039 35.9612) rotate(90) scale(21.46 21.4599)">
<stop stop-color="#FFCD6B"/>
<stop offset="1" stop-color="#EB5EDF"/>
</radialGradient>
<radialGradient id="paint11_radial_5972_736" cx="0" cy="0" r="1" gradientUnits="userSpaceOnUse" gradientTransform="translate(40.039 35.9609) rotate(-139.191) scale(21.088)">
<stop stop-color="#A273FF"/>
<stop offset="1" stop-color="#4331E9"/>
</radialGradient>
<radialGradient id="paint12_radial_5972_736" cx="0" cy="0" r="1" gradientUnits="userSpaceOnUse" gradientTransform="translate(40.039 35.9612) rotate(180) scale(21.4789 21.4789)">
<stop stop-color="#FFF3D0"/>
<stop offset="1" stop-color="#FFC044"/>
</radialGradient>
<radialGradient id="paint13_radial_5972_736" cx="0" cy="0" r="1" gradientUnits="userSpaceOnUse" gradientTransform="translate(40.039 35.9609) rotate(-139.191) scale(21.088 21.088)">
<stop stop-color="#A273FF"/>
<stop offset="1" stop-color="#4331E9"/>
</radialGradient>
<radialGradient id="paint14_radial_5972_736" cx="0" cy="0" r="1" gradientUnits="userSpaceOnUse" gradientTransform="translate(40 40.0001) rotate(-139.191) scale(21.1273)">
<stop stop-color="#A273FF"/>
<stop offset="1" stop-color="#4331E9"/>
</radialGradient>
<radialGradient id="paint15_radial_5972_736" cx="0" cy="0" r="1" gradientUnits="userSpaceOnUse" gradientTransform="translate(40 40.0003) rotate(-98.9946) scale(21.5041 21.5041)">
<stop stop-color="#F7A7F9"/>
<stop offset="1" stop-color="#00DDFB"/>
</radialGradient>
<radialGradient id="paint16_radial_5972_736" cx="0" cy="0" r="1" gradientUnits="userSpaceOnUse" gradientTransform="translate(40.0001 40.0005) rotate(180) scale(21.5188)">
<stop stop-color="#FFF3D0"/>
<stop offset="1" stop-color="#FFC044"/>
</radialGradient>
<radialGradient id="paint17_radial_5972_736" cx="0" cy="0" r="1" gradientUnits="userSpaceOnUse" gradientTransform="translate(40.0001 40) rotate(-90) scale(21.4823 21.4824)">
<stop stop-color="#A273FF"/>
<stop offset="0.5" stop-color="#9FAEFF"/>
<stop offset="1" stop-color="#AAF2E1"/>
</radialGradient>
<radialGradient id="paint18_radial_5972_736" cx="0" cy="0" r="1" gradientUnits="userSpaceOnUse" gradientTransform="translate(40 40) rotate(35.9904) scale(21.421)">
<stop stop-color="#0075FF"/>
<stop offset="1" stop-color="#00DDFB"/>
</radialGradient>
<radialGradient id="paint19_radial_5972_736" cx="0" cy="0" r="1" gradientUnits="userSpaceOnUse" gradientTransform="translate(40 40) rotate(90) scale(21.4999 21.4999)">
<stop stop-color="#FFCD6B"/>
<stop offset="1" stop-color="#EB5EDF"/>
</radialGradient>
<radialGradient id="paint20_radial_5972_736" cx="0" cy="0" r="1" gradientUnits="userSpaceOnUse" gradientTransform="translate(40 40) rotate(90) scale(21.5443 21.5444)">
<stop stop-color="#D5FAFF"/>
<stop offset="1" stop-color="#00DDFB"/>
</radialGradient>
<radialGradient id="paint21_radial_5972_736" cx="0" cy="0" r="1" gradientUnits="userSpaceOnUse" gradientTransform="translate(40 40) rotate(114.172) scale(23.0182)">
<stop stop-color="#FFD2B9"/>
<stop offset="0.289583" stop-color="#C99BED"/>
<stop offset="1" stop-color="#0075FF"/>
</radialGradient>
<radialGradient id="paint22_radial_5972_736" cx="0" cy="0" r="1" gradientUnits="userSpaceOnUse" gradientTransform="translate(40 39.9995) rotate(-180) scale(27.9723 27.9723)">
<stop stop-color="#6D28FF"/>
<stop offset="1" stop-color="#F7A7F9"/>
</radialGradient>
<radialGradient id="paint23_radial_5972_736" cx="0" cy="0" r="1" gradientUnits="userSpaceOnUse" gradientTransform="translate(40 40) rotate(-90) scale(21.4825 21.4824)">
<stop stop-color="#A273FF"/>
<stop offset="0.5" stop-color="#9FAEFF"/>
<stop offset="1" stop-color="#AAF2E1"/>
</radialGradient>
<radialGradient id="paint24_radial_5972_736" cx="0" cy="0" r="1" gradientUnits="userSpaceOnUse" gradientTransform="translate(40 40.0001) rotate(90) scale(21.4999 21.4999)">
<stop stop-color="#FFCD6B"/>
<stop offset="1" stop-color="#EB5EDF"/>
</radialGradient>
<radialGradient id="paint25_radial_5972_736" cx="0" cy="0" r="1" gradientUnits="userSpaceOnUse" gradientTransform="translate(40 40) rotate(-139.191) scale(21.1273)">
<stop stop-color="#A273FF"/>
<stop offset="1" stop-color="#4331E9"/>
</radialGradient>
<radialGradient id="paint26_radial_5972_736" cx="0" cy="0" r="1" gradientUnits="userSpaceOnUse" gradientTransform="translate(40 40.0001) rotate(180) scale(21.5188 21.5188)">
<stop stop-color="#FFF3D0"/>
<stop offset="1" stop-color="#FFC044"/>
</radialGradient>
<radialGradient id="paint27_radial_5972_736" cx="0" cy="0" r="1" gradientUnits="userSpaceOnUse" gradientTransform="translate(40 40) rotate(-139.191) scale(21.1273 21.1273)">
<stop stop-color="#A273FF"/>
<stop offset="1" stop-color="#4331E9"/>
</radialGradient>
</defs>
</svg>
