<svg width="46" height="46" viewBox="0 0 46 46" fill="none" xmlns="http://www.w3.org/2000/svg">
<g clip-path="url(#clip0_16517_147327)">
<g opacity="0.7" filter="url(#filter0_f_16517_147327)">
<path opacity="0.6" d="M30.8464 20.624L31.0702 20.9674C33.5946 24.8398 33.0308 29.9114 29.7148 33.1606C27.7639 35.072 25.2071 36.0279 22.6502 36.0282C22.6502 36.0282 22.6502 36.0282 30.8464 20.624Z" fill="#00A3FF"/>
<path opacity="0.2" d="M22.6491 25.3057L30.8452 20.624C22.6491 36.0282 22.6491 36.0282 22.6491 36.0282C22.6491 32.6732 22.6491 28.829 22.6491 25.3057Z" fill="#00A3FF"/>
<path d="M14.4451 20.624L14.2213 20.9674C11.6969 24.8398 12.2607 29.9114 15.5768 33.1606C17.5276 35.072 20.0844 36.0279 22.6413 36.0282C22.6413 36.0282 22.6413 36.0282 14.4451 20.624Z" fill="#00A3FF"/>
<path opacity="0.6" d="M22.639 25.3057L14.4429 20.624C22.639 36.0282 22.639 36.0282 22.639 36.0282C22.639 32.6732 22.639 28.829 22.639 25.3057Z" fill="#00A3FF"/>
<path opacity="0.2" d="M22.6523 14.8467V22.9213L29.7124 18.8866L22.6523 14.8467Z" fill="#00A3FF"/>
<path opacity="0.6" d="M22.6502 14.8467L15.585 18.8865L22.6502 22.9213V14.8467Z" fill="#00A3FF"/>
<path d="M22.6502 8.05664L15.585 18.8899L22.6502 14.8386V8.05664Z" fill="#00A3FF"/>
<path opacity="0.6" d="M22.6523 14.8371L29.7178 18.8884L22.6523 8.0498V14.8371Z" fill="#00A3FF"/>
</g>
<path opacity="0.6" d="M31.4913 20.3955L31.723 20.7483C34.3369 24.7276 33.7531 29.939 30.3195 33.2777C28.2995 35.2419 25.6521 36.2241 23.0046 36.2244C23.0046 36.2244 23.0046 36.2244 31.4913 20.3955Z" fill="#00A3FF"/>
<path opacity="0.2" d="M23.0036 25.2063L31.4902 20.3955C23.0036 36.2244 23.0036 36.2244 23.0036 36.2244C23.0036 32.777 23.0036 28.8267 23.0036 25.2063Z" fill="#00A3FF"/>
<path d="M14.5087 20.3955L14.277 20.7483C11.6631 24.7276 12.2469 29.939 15.6805 33.2777C17.7005 35.2419 20.3479 36.2241 22.9954 36.2244C22.9954 36.2244 22.9954 36.2244 14.5087 20.3955Z" fill="#00A3FF"/>
<path opacity="0.6" d="M22.993 25.2063L14.5063 20.3955C22.993 36.2244 22.993 36.2244 22.993 36.2244C22.993 32.777 22.993 28.8267 22.993 25.2063Z" fill="#00A3FF"/>
<path opacity="0.2" d="M23.0068 14.459V22.7563L30.3171 18.6103L23.0068 14.459Z" fill="#00A3FF"/>
<path opacity="0.6" d="M23.0046 14.459L15.689 18.6102L23.0046 22.7563V14.459Z" fill="#00A3FF"/>
<path d="M23.0046 7.48145L15.689 18.6134L23.0046 14.4505V7.48145Z" fill="#00A3FF"/>
<path opacity="0.6" d="M23.0068 14.449L30.3227 18.6121L23.0068 7.47461V14.449Z" fill="#00A3FF"/>
</g>
<defs>
<filter id="filter0_f_16517_147327" x="-5.3501" y="-9.9502" width="55.9917" height="63.9785" filterUnits="userSpaceOnUse" color-interpolation-filters="sRGB">
<feFlood flood-opacity="0" result="BackgroundImageFix"/>
<feBlend mode="normal" in="SourceGraphic" in2="BackgroundImageFix" result="shape"/>
<feGaussianBlur stdDeviation="9" result="effect1_foregroundBlur_16517_147327"/>
</filter>
<clipPath id="clip0_16517_147327">
<rect width="46" height="46" rx="23" fill="white"/>
</clipPath>
</defs>
</svg>
