<svg width="80" height="80" viewBox="0 0 80 80" fill="none" xmlns="http://www.w3.org/2000/svg">
<path d="M60 50.1772C60 47.5719 55.7183 45.3081 49.4233 44.158V44.1597C46.6883 44.861 43.4583 45.2652 40 45.2652C36.5417 45.2652 33.3117 44.861 30.5767 44.158C24.2833 45.3081 20 47.5719 20 50.1772C20 53.9459 28.955 57 40 57C51.045 57 60 53.9475 60 50.1772Z" fill="black"/>
<path d="M56.0433 37.9887C56.0433 35.842 52.36 33.9891 47.0133 33.108C44.9583 33.6228 42.5617 33.9198 40 33.9198C37.4383 33.9198 35.0417 33.6244 32.9867 33.108C27.64 33.9891 23.9567 35.8437 23.9567 37.9887C23.9567 40.9834 31.14 43.4123 40 43.4123C48.86 43.4123 56.0433 40.9834 56.0433 37.9887Z" fill="black"/>
<path d="M52.0883 28.1069C52.0883 25.8381 46.7083 24 40.0733 24C33.4383 24 28.0583 25.8381 28.0583 28.1069C28.0583 30.374 33.4383 32.2121 40.0733 32.2121C46.7083 32.2121 52.0883 30.374 52.0883 28.1069Z" fill="black"/>
<g opacity="0.7" filter="url(#filter0_f_40_3786)">
<path d="M69 56.3503C69 53.4291 64.2902 50.8909 57.3657 49.6014V49.6033C54.3572 50.3895 50.8042 50.8428 47 50.8428C43.1958 50.8428 39.6428 50.3895 36.6343 49.6014C29.7117 50.8909 25 53.4291 25 56.3503C25 60.5756 34.8505 64 47 64C59.1495 64 69 60.5775 69 56.3503Z" fill="black" fill-opacity="0.22"/>
<path d="M64.6477 42.6843C64.6477 40.2774 60.596 38.1999 54.7147 37.212C52.4542 37.7892 49.8178 38.1222 47 38.1222C44.1822 38.1222 41.5458 37.791 39.2853 37.212C33.404 38.1999 29.3523 40.2793 29.3523 42.6843C29.3523 46.042 37.254 48.7653 47 48.7653C56.746 48.7653 64.6477 46.042 64.6477 42.6843Z" fill="black" fill-opacity="0.22"/>
<path d="M60.2972 31.6047C60.2972 29.0609 54.3792 27 47.0807 27C39.7822 27 33.8642 29.0609 33.8642 31.6047C33.8642 34.1466 39.7822 36.2075 47.0807 36.2075C54.3792 36.2075 60.2972 34.1466 60.2972 31.6047Z" fill="black" fill-opacity="0.22"/>
</g>
<defs>
<filter id="filter0_f_40_3786" x="14" y="16" width="66" height="59" filterUnits="userSpaceOnUse" color-interpolation-filters="sRGB">
<feFlood flood-opacity="0" result="BackgroundImageFix"/>
<feBlend mode="normal" in="SourceGraphic" in2="BackgroundImageFix" result="shape"/>
<feGaussianBlur stdDeviation="5.5" result="effect1_foregroundBlur_40_3786"/>
</filter>
</defs>
</svg>
