<svg xmlns="http://www.w3.org/2000/svg" width="863" height="554" fill="none" opt="1"><g filter="url(#a)" opacity=".8"><path fill="url(#b)" d="M126.132 441.591 21.63 381.563c-6.06-3.693-6.228-16.324-.17-20.016l104.672-63.75a43.67 43.67 0 0 1 45.52 0l104.671 63.758c6.059 3.693 5.89 13.942-.169 17.635L171.652 441.6a43.67 43.67 0 0 1-45.52 0z" opacity=".2"/><path fill="url(#c)" d="m126.132 410.353-104.503-60.56c-6.058-3.725-6.228-16.468-.169-20.193l104.672-64.313c14.001-8.609 31.51-8.609 45.52 0l104.671 64.322c6.059 3.725 5.89 14.065-.169 17.79l-104.502 62.963c-14.002 8.608-31.51 8.608-45.52 0z"/><path fill="url(#d)" d="M126.132 377.87 21.629 318.107c-6.058-3.676-6.228-16.251-.169-19.927l104.672-63.467a43.83 43.83 0 0 1 45.52 0l104.671 63.476c6.059 3.676 5.89 13.88-.169 17.556l-104.502 62.134a43.84 43.84 0 0 1-45.52 0z"/><path fill="url(#e)" d="M126.132 377.87 21.629 318.107c-6.058-3.676-6.228-16.251-.169-19.927l104.672-63.467a43.83 43.83 0 0 1 45.52 0l104.671 63.476c6.059 3.676 5.89 13.88-.169 17.556l-104.502 62.134a43.84 43.84 0 0 1-45.52 0z"/><path fill="url(#f)" d="M126.132 347.381 21.63 287.618c-6.06-3.676-6.228-16.251-.17-19.927l104.672-63.467a43.83 43.83 0 0 1 45.52 0l104.671 63.475c6.059 3.677 5.89 13.88-.169 17.557L171.652 347.39a43.84 43.84 0 0 1-45.52 0z"/><path fill="url(#g)" fill-opacity=".3" d="M126.132 347.381 21.63 287.618c-6.06-3.676-6.228-16.251-.17-19.927l104.672-63.467a43.83 43.83 0 0 1 45.52 0l104.671 63.475c6.059 3.677 5.89 13.88-.169 17.557L171.652 347.39a43.84 43.84 0 0 1-45.52 0z"/><path fill="url(#h)" d="M126.132 316.836 21.63 256.541c-6.06-3.709-6.228-16.395-.17-20.104l104.672-64.031c14.001-8.571 31.51-8.571 45.52 0l104.671 64.04c6.059 3.709 5.89 14.003-.169 17.712l-104.502 62.686c-14.002 8.571-31.51 8.571-45.52 0z"/><path fill="url(#i)" fill-opacity=".6" d="M126.132 316.836 21.63 256.541c-6.06-3.709-6.228-16.395-.17-20.104l104.672-64.031c14.001-8.571 31.51-8.571 45.52 0l104.671 64.04c6.059 3.709 5.89 14.003-.169 17.712l-104.502 62.686c-14.002 8.571-31.51 8.571-45.52 0z"/><path fill="url(#j)" d="M126.132 284.989 21.629 224.96c-6.058-3.692-6.228-16.323-.169-20.015l104.672-63.75a43.67 43.67 0 0 1 45.52 0l104.671 63.758c6.059 3.693 5.89 13.942-.169 17.635l-104.502 62.41a43.67 43.67 0 0 1-45.52 0z"/><path fill="url(#k)" d="M126.132 253.864 21.629 194.367c-6.058-3.66-6.228-16.179-.169-19.839l104.672-63.185a44 44 0 0 1 45.52 0l104.671 63.194c6.059 3.66 5.89 13.818-.169 17.478l-104.502 61.858a44.01 44.01 0 0 1-45.52 0z"/><path fill="url(#l)" d="M126.132 253.864 21.629 194.367c-6.058-3.66-6.228-16.179-.169-19.839l104.672-63.185a44 44 0 0 1 45.52 0l104.671 63.194c6.059 3.66 5.89 13.818-.169 17.478l-104.502 61.858a44.01 44.01 0 0 1-45.52 0z"/></g><g filter="url(#m)" opacity=".5"><path fill="url(#n)" d="m653.801 390.592-104.502-60.029c-6.058-3.693-6.227-16.323-.169-20.016l104.671-63.749a43.67 43.67 0 0 1 45.521 0l104.671 63.758c6.059 3.692 5.89 13.941-.169 17.634L699.322 390.6a43.67 43.67 0 0 1-45.521 0z" opacity=".2"/><path fill="url(#o)" d="m653.801 359.353-104.502-60.56c-6.058-3.725-6.228-16.467-.169-20.193l104.671-64.313c14.002-8.609 31.511-8.609 45.521 0l104.671 64.322c6.059 3.725 5.89 14.065-.169 17.79l-104.502 62.963c-14.002 8.608-31.51 8.608-45.521 0z"/><path fill="url(#p)" d="m653.801 326.871-104.502-59.764c-6.058-3.676-6.228-16.25-.169-19.927l104.671-63.467a43.84 43.84 0 0 1 45.521 0l104.671 63.476c6.059 3.676 5.89 13.88-.169 17.556l-104.502 62.134a43.84 43.84 0 0 1-45.521 0z"/><path fill="url(#q)" d="m653.801 326.871-104.502-59.764c-6.058-3.676-6.228-16.25-.169-19.927l104.671-63.467a43.84 43.84 0 0 1 45.521 0l104.671 63.476c6.059 3.676 5.89 13.88-.169 17.556l-104.502 62.134a43.84 43.84 0 0 1-45.521 0z"/><path fill="url(#r)" d="m653.801 296.381-104.502-59.763c-6.058-3.676-6.227-16.251-.169-19.927l104.671-63.467a43.84 43.84 0 0 1 45.521 0L803.993 216.7c6.059 3.676 5.89 13.88-.169 17.556L699.322 296.39a43.84 43.84 0 0 1-45.521 0z"/><path fill="url(#s)" fill-opacity=".3" d="m653.801 296.381-104.502-59.763c-6.058-3.676-6.227-16.251-.169-19.927l104.671-63.467a43.84 43.84 0 0 1 45.521 0L803.993 216.7c6.059 3.676 5.89 13.88-.169 17.556L699.322 296.39a43.84 43.84 0 0 1-45.521 0z"/><path fill="url(#t)" d="m653.801 265.836-104.502-60.294c-6.058-3.709-6.227-16.396-.169-20.105l104.671-64.031c14.002-8.571 31.511-8.571 45.521 0l104.671 64.04c6.059 3.709 5.89 14.003-.169 17.712l-104.502 62.687c-14.002 8.57-31.51 8.57-45.521 0z"/><path fill="url(#u)" fill-opacity=".6" d="m653.801 265.836-104.502-60.294c-6.058-3.709-6.227-16.396-.169-20.105l104.671-64.031c14.002-8.571 31.511-8.571 45.521 0l104.671 64.04c6.059 3.709 5.89 14.003-.169 17.712l-104.502 62.687c-14.002 8.57-31.51 8.57-45.521 0z"/><path fill="url(#v)" d="m653.801 233.99-104.502-60.029c-6.058-3.693-6.228-16.323-.169-20.016l104.671-63.75a43.67 43.67 0 0 1 45.521 0l104.671 63.759c6.059 3.692 5.89 13.941-.169 17.634l-104.502 62.41a43.67 43.67 0 0 1-45.521 0z"/><path fill="url(#w)" d="m653.801 202.865-104.502-59.498c-6.058-3.66-6.228-16.179-.169-19.839l104.671-63.185a44.01 44.01 0 0 1 45.521 0l104.671 63.194c6.059 3.66 5.89 13.818-.169 17.478l-104.502 61.858a44 44 0 0 1-45.521 0z"/><path fill="url(#x)" d="m653.801 202.865-104.502-59.498c-6.058-3.66-6.228-16.179-.169-19.839l104.671-63.185a44.01 44.01 0 0 1 45.521 0l104.671 63.194c6.059 3.66 5.89 13.818-.169 17.478l-104.502 61.858a44 44 0 0 1-45.521 0z"/></g><path fill="url(#y)" d="m377.462 543.835-164.188-94.314c-9.519-5.802-9.785-25.646-.266-31.448l164.454-100.159c21.999-13.407 49.507-13.407 71.519 0l164.454 100.173c9.519 5.801 9.253 21.904-.266 27.706l-164.188 98.056c-21.999 13.406-49.507 13.406-71.519 0z" opacity=".2"/><path fill="url(#z)" d="m377.462 494.755-164.189-95.149c-9.519-5.853-9.784-25.873-.265-31.726l164.454-101.046c21.999-13.525 49.507-13.525 71.519 0l164.454 101.06c9.519 5.853 9.253 22.098-.266 27.951l-164.188 98.923c-21.999 13.526-49.507 13.526-71.519 0z"/><path fill="url(#A)" d="m377.462 443.72-164.189-93.897c-9.519-5.776-9.784-25.533-.265-31.308l164.454-99.717a68.88 68.88 0 0 1 71.519 0l164.454 99.73c9.519 5.776 9.253 21.808-.266 27.584l-164.188 97.621a68.87 68.87 0 0 1-71.519 0z"/><path fill="url(#B)" d="m377.462 443.72-164.189-93.897c-9.519-5.776-9.784-25.533-.265-31.308l164.454-99.717a68.88 68.88 0 0 1 71.519 0l164.454 99.73c9.519 5.776 9.253 21.808-.266 27.584l-164.188 97.621a68.87 68.87 0 0 1-71.519 0z"/><path fill="url(#C)" d="M377.462 395.817 213.274 301.92c-9.519-5.776-9.785-25.532-.266-31.308l164.454-99.717a68.88 68.88 0 0 1 71.519 0l164.454 99.73c9.519 5.776 9.253 21.808-.266 27.584L448.981 395.83a68.87 68.87 0 0 1-71.519 0z"/><path fill="url(#D)" fill-opacity=".3" d="M377.462 395.817 213.274 301.92c-9.519-5.776-9.785-25.532-.266-31.308l164.454-99.717a68.88 68.88 0 0 1 71.519 0l164.454 99.73c9.519 5.776 9.253 21.808-.266 27.584L448.981 395.83a68.87 68.87 0 0 1-71.519 0z"/><path fill="url(#E)" d="m377.462 347.826-164.188-94.732c-9.519-5.827-9.785-25.759-.266-31.586l164.454-100.603c21.999-13.466 49.507-13.466 71.519 0l164.454 100.616c9.519 5.827 9.253 22.002-.266 27.829l-164.188 98.489c-21.999 13.466-49.507 13.466-71.519 0z"/><path fill="url(#F)" fill-opacity=".6" d="m377.462 347.826-164.188-94.732c-9.519-5.827-9.785-25.759-.266-31.586l164.454-100.603c21.999-13.466 49.507-13.466 71.519 0l164.454 100.616c9.519 5.827 9.253 22.002-.266 27.829l-164.188 98.489c-21.999 13.466-49.507 13.466-71.519 0z"/><path fill="url(#G)" d="m377.462 297.79-164.189-94.314c-9.519-5.802-9.784-25.646-.265-31.448l164.454-100.16c21.999-13.406 49.507-13.406 71.519 0l164.454 100.174c9.519 5.801 9.253 21.905-.266 27.706l-164.188 98.056c-21.999 13.406-49.507 13.406-71.519 0z"/><path fill="url(#H)" d="m377.462 248.888-164.189-93.479c-9.519-5.751-9.784-25.419-.265-31.17l164.454-99.273a69.14 69.14 0 0 1 71.519 0l164.454 99.287c9.519 5.75 9.253 21.71-.266 27.461l-164.188 97.187a69.14 69.14 0 0 1-71.519 0z"/><path fill="url(#I)" d="m377.462 248.888-164.189-93.479c-9.519-5.751-9.784-25.419-.265-31.17l164.454-99.273a69.14 69.14 0 0 1 71.519 0l164.454 99.287c9.519 5.75 9.253 21.71-.266 27.461l-164.188 97.187a69.14 69.14 0 0 1-71.519 0z"/><g filter="url(#J)"><path fill="url(#K)" d="m460.609 136.3 15.916-41.825-70 7.081 11.069 26.466 43.032 8.262zm4.798-35.504-11.036 29.021-29.867-5.74-7.679-18.366z"/><path fill="url(#L)" d="m457.531 144.287.507-1.31-49.925-9.587-12.837-30.702-2.194.226c-25.004 2.538-42.95 15.359-43.163 30.832-.213 18.204 24.021 33.741 54.117 34.727 25.593.825 47.829-9.231 53.478-24.17z"/></g><path fill="url(#M)" d="m460.609 128.679 15.916-41.825-70 7.081 11.069 26.467 43.032 8.261zm4.798-35.503-11.036 29.02-29.867-5.739-7.679-18.367z"/><path fill="url(#N)" d="m457.531 136.666.507-1.309-49.925-9.588-12.837-30.702-2.194.227c-25.004 2.538-42.95 15.359-43.163 30.831-.213 18.205 24.021 33.742 54.117 34.728 25.593.824 47.829-9.232 53.478-24.171z"/><defs><radialGradient id="b" cx="0" cy="0" r="1" gradientTransform="matrix(233.90524 125.62343 -162.02372 301.68098 99.85 343.894)" gradientUnits="userSpaceOnUse"><stop stop-color="#7CDEFD" stop-opacity="0"/><stop offset=".356" stop-color="#B6E3FC"/><stop offset="1" stop-color="#70B5FD"/></radialGradient><radialGradient id="c" cx="0" cy="0" r="1" gradientTransform="matrix(276.86758 137.17395 -177.77928 358.8241 56.888 301.353)" gradientUnits="userSpaceOnUse"><stop stop-color="#D7E4FF" stop-opacity="0"/><stop offset=".356" stop-color="#C6E0FF"/><stop offset="1" stop-color="#BBCDFB"/></radialGradient><radialGradient id="d" cx="0" cy="0" r="1" gradientTransform="matrix(164.21095 103.80745 -93.78797 148.36134 99.85 280.606)" gradientUnits="userSpaceOnUse"><stop stop-color="#B0D5FF"/><stop offset=".204" stop-color="#81ACFF" stop-opacity="0"/><stop offset="1" stop-color="#4971D8"/></radialGradient><radialGradient id="f" cx="0" cy="0" r="1" gradientTransform="rotate(15.453 -1032.857 450.382)scale(234.094 141.765)" gradientUnits="userSpaceOnUse"><stop stop-color="#ADD1FF" stop-opacity=".1"/><stop offset=".365" stop-color="#7FA3FF"/><stop offset="1" stop-color="#627FFB"/></radialGradient><radialGradient id="h" cx="0" cy="0" r="1" gradientTransform="rotate(-75.595 257.038 53.227)scale(95.942 209.546)" gradientUnits="userSpaceOnUse"><stop offset=".283" stop-color="#7492FE" stop-opacity=".4"/><stop offset=".541" stop-color="#777CFF"/><stop offset="1" stop-color="#4055EB"/></radialGradient><radialGradient id="j" cx="0" cy="0" r="1" gradientTransform="rotate(32.261 -243.133 280.632)scale(261.93 225.513)" gradientUnits="userSpaceOnUse"><stop offset=".178" stop-color="#8779FA"/><stop offset=".516" stop-color="#5D46F2"/><stop offset=".972" stop-color="#485AE9"/><stop offset="1" stop-color="#7989FC"/></radialGradient><radialGradient id="k" cx="0" cy="0" r="1" gradientTransform="matrix(99.92725 151.80002 -152.13496 100.14774 114.807 85.269)" gradientUnits="userSpaceOnUse"><stop offset="0" stop-color="#ECD4FF"/><stop offset=".49" stop-color="#9476ED"/><stop offset="1" stop-color="#563DEC"/></radialGradient><radialGradient id="l" cx="0" cy="0" r="1" gradientTransform="matrix(38.82507 109.15583 -185.50602 65.98167 133.584 89.406)" gradientUnits="userSpaceOnUse"><stop stop-color="#E3BBF9"/><stop offset="1" stop-color="#E3BBF9" stop-opacity="0"/></radialGradient><radialGradient id="n" cx="0" cy="0" r="1" gradientTransform="matrix(233.90524 125.62343 -162.02372 301.68098 627.52 292.895)" gradientUnits="userSpaceOnUse"><stop stop-color="#7CDEFD" stop-opacity="0"/><stop offset=".356" stop-color="#B6E3FC"/><stop offset="1" stop-color="#70B5FD"/></radialGradient><radialGradient id="o" cx="0" cy="0" r="1" gradientTransform="matrix(276.86758 137.17395 -177.77928 358.8241 584.558 250.353)" gradientUnits="userSpaceOnUse"><stop stop-color="#D7E4FF" stop-opacity="0"/><stop offset=".356" stop-color="#C6E0FF"/><stop offset="1" stop-color="#BBCDFB"/></radialGradient><radialGradient id="p" cx="0" cy="0" r="1" gradientTransform="matrix(164.21095 103.80745 -93.78797 148.36134 627.52 229.606)" gradientUnits="userSpaceOnUse"><stop stop-color="#B0D5FF"/><stop offset=".204" stop-color="#81ACFF" stop-opacity="0"/><stop offset="1" stop-color="#4971D8"/></radialGradient><radialGradient id="r" cx="0" cy="0" r="1" gradientTransform="rotate(15.453 -581.077 2369.447)scale(234.094 141.765)" gradientUnits="userSpaceOnUse"><stop stop-color="#ADD1FF" stop-opacity=".1"/><stop offset=".365" stop-color="#7FA3FF"/><stop offset="1" stop-color="#627FFB"/></radialGradient><radialGradient id="t" cx="0" cy="0" r="1" gradientTransform="rotate(-75.595 487.995 -312.437)scale(95.942 209.546)" gradientUnits="userSpaceOnUse"><stop offset=".283" stop-color="#7492FE" stop-opacity=".4"/><stop offset=".541" stop-color="#777CFF"/><stop offset="1" stop-color="#4055EB"/></radialGradient><radialGradient id="v" cx="0" cy="0" r="1" gradientTransform="rotate(32.261 108.872 1167.376)scale(261.93 225.513)" gradientUnits="userSpaceOnUse"><stop offset=".178" stop-color="#8779FA"/><stop offset=".516" stop-color="#5D46F2"/><stop offset=".972" stop-color="#485AE9"/><stop offset="1" stop-color="#7989FC"/></radialGradient><radialGradient id="w" cx="0" cy="0" r="1" gradientTransform="matrix(99.92725 151.80002 -152.13496 100.14774 642.477 34.27)" gradientUnits="userSpaceOnUse"><stop offset="0" stop-color="#ECD4FF"/><stop offset=".49" stop-color="#9476ED"/><stop offset="1" stop-color="#563DEC"/></radialGradient><radialGradient id="x" cx="0" cy="0" r="1" gradientTransform="matrix(38.82507 109.15583 -185.50602 65.98167 661.253 38.406)" gradientUnits="userSpaceOnUse"><stop stop-color="#E3BBF9"/><stop offset="1" stop-color="#E3BBF9" stop-opacity="0"/></radialGradient><radialGradient id="y" cx="0" cy="0" r="1" gradientTransform="matrix(367.50005 197.37316 -254.56363 473.98616 336.17 390.339)" gradientUnits="userSpaceOnUse"><stop stop-color="#7CDEFD" stop-opacity="0"/><stop offset=".356" stop-color="#B6E3FC"/><stop offset="1" stop-color="#70B5FD"/></radialGradient><radialGradient id="z" cx="0" cy="0" r="1" gradientTransform="rotate(26.356 -556.48 735.479)scale(485.463 629.166)" gradientUnits="userSpaceOnUse"><stop stop-color="#D7E4FF" stop-opacity="0"/><stop offset=".356" stop-color="#C6E0FF"/><stop offset="1" stop-color="#BBCDFB"/></radialGradient><radialGradient id="A" cx="0" cy="0" r="1" gradientTransform="rotate(32.299 -334.208 725.905)scale(305.229 275.768)" gradientUnits="userSpaceOnUse"><stop stop-color="#B0D5FF"/><stop offset=".204" stop-color="#81ACFF" stop-opacity="0"/><stop offset="1" stop-color="#4971D8"/></radialGradient><radialGradient id="C" cx="0" cy="0" r="1" gradientTransform="rotate(15.453 -980.455 1293.351)scale(367.797 222.734)" gradientUnits="userSpaceOnUse"><stop stop-color="#ADD1FF" stop-opacity=".1"/><stop offset=".365" stop-color="#7FA3FF"/><stop offset="1" stop-color="#627FFB"/></radialGradient><radialGradient id="E" cx="0" cy="0" r="1" gradientTransform="rotate(-75.595 396.81 -106.938)scale(150.739 329.227)" gradientUnits="userSpaceOnUse"><stop offset=".283" stop-color="#7492FE" stop-opacity=".4"/><stop offset=".541" stop-color="#777CFF"/><stop offset="1" stop-color="#4055EB"/></radialGradient><radialGradient id="G" cx="0" cy="0" r="1" gradientTransform="rotate(32.261 -33.08 675.89)scale(411.531 354.314)" gradientUnits="userSpaceOnUse"><stop offset=".178" stop-color="#8779FA"/><stop offset=".516" stop-color="#5D46F2"/><stop offset=".972" stop-color="#485AE9"/><stop offset="1" stop-color="#7989FC"/></radialGradient><radialGradient id="H" cx="0" cy="0" r="1" gradientTransform="rotate(56.644 194.679 325.684)scale(285.537 286.167)" gradientUnits="userSpaceOnUse"><stop offset="0" stop-color="#ECD4FF"/><stop offset=".49" stop-color="#9476ED"/><stop offset="1" stop-color="#563DEC"/></radialGradient><radialGradient id="I" cx="0" cy="0" r="1" gradientTransform="matrix(60.99981 171.49963 -291.45751 103.667 389.17 -9.5)" gradientUnits="userSpaceOnUse"><stop stop-color="#E3BBF9"/><stop offset="1" stop-color="#E3BBF9" stop-opacity="0"/></radialGradient><radialGradient id="K" cx="0" cy="0" r="1" gradientTransform="matrix(0 20.9127 -34.9998 0 441.525 115.387)" gradientUnits="userSpaceOnUse"><stop stop-color="#fff"/><stop offset="1" stop-color="#fff" stop-opacity=".6"/></radialGradient><radialGradient id="L" cx="0" cy="0" r="1" gradientTransform="matrix(0 32.9165 -54.0601 0 403.978 135.604)" gradientUnits="userSpaceOnUse"><stop stop-color="#fff"/><stop offset="1" stop-color="#fff" stop-opacity=".6"/></radialGradient><radialGradient id="M" cx="0" cy="0" r="1" gradientTransform="matrix(0 20.9127 -34.9998 0 441.525 107.767)" gradientUnits="userSpaceOnUse"><stop stop-color="#fff"/><stop offset="1" stop-color="#fff" stop-opacity=".6"/></radialGradient><radialGradient id="N" cx="0" cy="0" r="1" gradientTransform="matrix(0 32.9165 -54.0601 0 403.978 127.984)" gradientUnits="userSpaceOnUse"><stop stop-color="#fff"/><stop offset="1" stop-color="#fff" stop-opacity=".6"/></radialGradient><linearGradient id="e" x1="96.031" x2="292.703" y1="355.454" y2="288.942" gradientUnits="userSpaceOnUse"><stop stop-color="#C1DEFF" stop-opacity="0"/><stop offset="1" stop-color="#98B5FF"/></linearGradient><linearGradient id="g" x1="50.205" x2="280.928" y1="229.749" y2="388.869" gradientUnits="userSpaceOnUse"><stop offset=".204" stop-color="#6A4BE6" stop-opacity=".837"/><stop offset=".45" stop-color="#6A4BE6" stop-opacity="0"/><stop offset=".819" stop-color="#6A4BE6" stop-opacity="0"/><stop offset="1" stop-color="#6A4BE6"/></linearGradient><linearGradient id="i" x1="17" x2="326.436" y1="251.181" y2="236.114" gradientUnits="userSpaceOnUse"><stop offset=".1" stop-color="#7445F8"/><stop offset=".34" stop-color="#5345F8" stop-opacity="0"/><stop offset=".57" stop-color="#5345F8" stop-opacity=".9"/><stop offset=".81" stop-color="#7445F8"/></linearGradient><linearGradient id="q" x1="623.701" x2="820.373" y1="304.454" y2="237.942" gradientUnits="userSpaceOnUse"><stop stop-color="#C1DEFF" stop-opacity="0"/><stop offset="1" stop-color="#98B5FF"/></linearGradient><linearGradient id="s" x1="577.875" x2="808.598" y1="178.75" y2="337.869" gradientUnits="userSpaceOnUse"><stop offset=".204" stop-color="#6A4BE6" stop-opacity=".837"/><stop offset=".45" stop-color="#6A4BE6" stop-opacity="0"/><stop offset=".819" stop-color="#6A4BE6" stop-opacity="0"/><stop offset="1" stop-color="#6A4BE6"/></linearGradient><linearGradient id="u" x1="544.67" x2="854.106" y1="200.181" y2="185.114" gradientUnits="userSpaceOnUse"><stop offset=".1" stop-color="#7445F8"/><stop offset=".34" stop-color="#5345F8" stop-opacity="0"/><stop offset=".57" stop-color="#5345F8" stop-opacity=".9"/><stop offset=".81" stop-color="#7445F8"/></linearGradient><linearGradient id="B" x1="330.17" x2="639.17" y1="408.5" y2="304" gradientUnits="userSpaceOnUse"><stop stop-color="#C1DEFF" stop-opacity="0"/><stop offset="1" stop-color="#98B5FF"/></linearGradient><linearGradient id="D" x1="258.17" x2="620.67" y1="211" y2="461" gradientUnits="userSpaceOnUse"><stop offset=".204" stop-color="#6A4BE6" stop-opacity=".837"/><stop offset=".45" stop-color="#6A4BE6" stop-opacity="0"/><stop offset=".819" stop-color="#6A4BE6" stop-opacity="0"/><stop offset="1" stop-color="#6A4BE6"/></linearGradient><linearGradient id="F" x1="206" x2="692.17" y1="244.672" y2="221" gradientUnits="userSpaceOnUse"><stop offset=".1" stop-color="#7445F8"/><stop offset=".34" stop-color="#5345F8" stop-opacity="0"/><stop offset=".57" stop-color="#5345F8" stop-opacity=".9"/><stop offset=".81" stop-color="#7445F8"/></linearGradient><filter id="a" width="297.783" height="377" x="0" y="88" color-interpolation-filters="sRGB" filterUnits="userSpaceOnUse"><feFlood flood-opacity="0" result="BackgroundImageFix"/><feBlend in="SourceGraphic" in2="BackgroundImageFix" result="shape"/><feGaussianBlur result="effect1_foregroundBlur_11562_340467" stdDeviation="8.5"/></filter><filter id="m" width="371.783" height="451" x="490.67" y="0" color-interpolation-filters="sRGB" filterUnits="userSpaceOnUse"><feFlood flood-opacity="0" result="BackgroundImageFix"/><feBlend in="SourceGraphic" in2="BackgroundImageFix" result="shape"/><feGaussianBlur result="effect1_foregroundBlur_11562_340467" stdDeviation="27"/></filter><filter id="J" width="234.607" height="182.046" x="295.918" y="40.475" color-interpolation-filters="sRGB" filterUnits="userSpaceOnUse"><feFlood flood-opacity="0" result="BackgroundImageFix"/><feBlend in="SourceGraphic" in2="BackgroundImageFix" result="shape"/><feGaussianBlur result="effect1_foregroundBlur_11562_340467" stdDeviation="27"/></filter></defs></svg>