<svg xmlns="http://www.w3.org/2000/svg" fill="none" viewBox="0 0 38 38" opt="1"><g clip-path="url(#a)"><g clip-path="url(#b)" filter="url(#c)" opacity=".7"><mask id="d" width="21" height="21" x="8" y="6" maskUnits="userSpaceOnUse" style="mask-type:luminance"><path fill="#fff" d="M28.024 6.175H8.074v19.95h19.95z"/></mask><g mask="url(#d)"><path fill="url(#e)" d="M18.05 26.125c5.508 0 9.974-4.466 9.974-9.975s-4.466-9.975-9.975-9.975-9.975 4.466-9.975 9.975c0 5.51 4.466 9.975 9.975 9.975"/><path fill="#fff" fill-rule="evenodd" d="M19.046 23.133a6.983 6.983 0 1 0 0-13.965 6.983 6.983 0 0 0 0 13.965m0 .997a7.98 7.98 0 1 0 0-15.96 7.98 7.98 0 0 0 0 15.96" clip-rule="evenodd"/><path fill="#fff" fill-rule="evenodd" d="M21.04 19.143a2.993 2.993 0 1 0 0-5.985 2.993 2.993 0 0 0 0 5.985m0 .997a3.99 3.99 0 1 0 0-7.98 3.99 3.99 0 0 0 0 7.98" clip-rule="evenodd"/></g></g><g clip-path="url(#f)"><mask id="g" width="38" height="38" x="0" y="0" maskUnits="userSpaceOnUse" style="mask-type:luminance"><path fill="#fff" d="M38 0H0v38h38z"/></mask><g mask="url(#g)"><path fill="url(#h)" d="M19 38c10.493 0 19-8.507 19-19S29.493 0 19 0 0 8.507 0 19s8.507 19 19 19"/><path fill="#fff" fill-rule="evenodd" d="M20.9 32.3c7.345 0 13.3-5.955 13.3-13.3S28.244 5.7 20.9 5.7 7.6 11.655 7.6 19s5.954 13.3 13.3 13.3m0 1.9c8.394 0 15.2-6.805 15.2-15.2S29.293 3.8 20.9 3.8C12.504 3.8 5.7 10.605 5.7 19s6.805 15.2 15.2 15.2" clip-rule="evenodd"/><path fill="#fff" fill-rule="evenodd" d="M24.7 24.7a5.7 5.7 0 1 0 0-11.4 5.7 5.7 0 0 0 0 11.4m0 1.9a7.6 7.6 0 1 0 0-15.2 7.6 7.6 0 0 0 0 15.2" clip-rule="evenodd"/></g></g></g><defs><clipPath id="a"><path fill="#fff" d="M0 0h38v38H0z"/></clipPath><clipPath id="b"><path fill="#fff" d="M8.074 6.175h19.95v19.95H8.074z"/></clipPath><clipPath id="f"><path fill="#fff" d="M0 0h38v38H0z"/></clipPath><linearGradient id="e" x1="18.049" x2="18.049" y1="6.175" y2="26.125" gradientUnits="userSpaceOnUse"><stop stop-color="#F50D3C"/><stop offset="1" stop-color="#D7002B"/></linearGradient><linearGradient id="h" x1="19" x2="19" y1="0" y2="38" gradientUnits="userSpaceOnUse"><stop stop-color="#F50D3C"/><stop offset="1" stop-color="#D7002B"/></linearGradient><filter id="c" width="47.949" height="47.95" x="-5.926" y="-7.825" color-interpolation-filters="sRGB" filterUnits="userSpaceOnUse"><feFlood flood-opacity="0" result="BackgroundImageFix"/><feBlend in="SourceGraphic" in2="BackgroundImageFix" result="shape"/><feGaussianBlur result="effect1_foregroundBlur_12878_49175" stdDeviation="7"/></filter></defs></svg>