<svg xmlns="http://www.w3.org/2000/svg" width="56" height="56" fill="none" opt="1"><g clip-path="url(#a)"><g filter="url(#b)" opacity=".5"><path fill="#F6851B" d="m12.833 21.542 1.011 4.853-.642.476.951.726-.725.57.951.869-.594.428 1.368 1.606-2.07 6.447 1.928 6.579 6.745-1.856 1.308 1.071 2.653 1.844h4.556l2.665-1.844 1.308-1.071 6.745 1.856 1.939-6.579-2.094-6.447 1.379-1.606-.595-.428.952-.869-.738-.57.952-.726-.63-.476 1.01-4.853-1.51-4.508-9.647 3.604-8.016.001-9.66-3.606z"/></g><path fill="#E2761B" d="m41.656 12.834-11.836 8.79 2.19-5.186z"/><path fill="#E4761B" d="m14.333 12.833 11.741 8.874-2.082-5.27zM37.398 33.21l-3.152 4.83 6.745 1.856 1.939-6.578zM13.084 33.318l1.927 6.578 6.745-1.856-3.152-4.83z"/><path fill="#E4761B" d="m21.376 25.05-1.88 2.844 6.697.297-.238-7.197zM34.614 25.05l-4.639-4.14-.155 7.28 6.686-.297zM21.756 38.04l4.02-1.963-3.473-2.712zM30.213 36.077l4.032 1.963-.559-4.675z"/><path fill="#D7C1B3" d="m34.247 38.04-4.033-1.962.321 2.629-.036 1.106zM21.756 38.04l3.747 1.773-.024-1.106.298-2.629z"/><path fill="#C0AD9E" d="m30.5 39.813.035-1.106-.298-.262h-4.484l-.274.262.024 1.106-3.747-1.773 1.308 1.071 2.653 1.844h4.556l2.665-1.844 1.308-1.07z"/><path fill="#233447" d="m30.427 31.629.987-2.07 2.38 1.083zM25.563 31.629l-3.355-.987 2.367-1.083z"/><path fill="#CD6116" d="m21.755 38.04.57-4.829-3.722.107zM33.674 33.211l.57 4.83 3.153-4.723zM36.506 27.894l-6.686.297.619 3.438.987-2.07 2.38 1.083zM22.206 30.642l2.38-1.083.975 2.07.63-3.438-6.697-.297z"/><path fill="#E4751F" d="m19.495 27.894 2.807 5.472-.095-2.724zM33.807 30.642l-.119 2.724 2.82-5.472zM26.194 28.19l-.63 3.439.785 4.056.178-5.341zM29.821 28.19l-.321 2.142.143 5.353.797-4.056z"/><path fill="#F6851B" d="m30.44 31.629-.797 4.056.57.392 3.474-2.712.119-2.724zM22.208 30.641l.095 2.724 3.474 2.712.57-.392-.784-4.057z"/><path fill="#161616" d="m30.213 36.078-.571-.392h-3.295l-.571.392-.297 2.63.273-.262h4.485l.297.261z"/><path fill="#763D16" d="m42.155 22.195 1.011-4.853-1.51-4.509-11.444 8.494 4.401 3.723 6.222 1.82 1.38-1.606-.595-.428.951-.868-.737-.571.952-.726zM12.833 17.342l1.011 4.853-.642.476.951.726-.725.57.951.869-.594.428 1.368 1.606 6.221-1.82 4.401-3.723-11.443-8.494z"/><path fill="#F6851B" d="m40.836 26.87-6.222-1.82 1.892 2.843-2.82 5.472 3.712-.047h5.531zM21.375 25.05l-6.221 1.82-2.07 6.448h5.52l3.7.047-2.808-5.472zM29.82 28.192l.393-6.864 1.808-4.889h-8.03l1.785 4.89.416 6.863.143 2.165.011 5.33h3.296l.023-5.33z"/></g><defs><clipPath id="a"><path fill="#fff" d="M0 0h56v56H0z"/></clipPath><filter id="b" width="60.333" height="58.122" x="-2.167" y="2.033" color-interpolation-filters="sRGB" filterUnits="userSpaceOnUse"><feFlood flood-opacity="0" result="BackgroundImageFix"/><feBlend in="SourceGraphic" in2="BackgroundImageFix" result="shape"/><feGaussianBlur result="effect1_foregroundBlur_11115_31757" stdDeviation="7.5"/></filter></defs></svg>