<svg xmlns="http://www.w3.org/2000/svg" width="199" height="42" fill="none" opt="1"><path fill="#000" d="m10.749 18.553.128-2.792h-.154l-2.867 4.687h-.614L4.246 15.76h-.129l.154 2.51v9.83H.941V10.18h3.56l3.073 4.967h.102l3.047-4.967h3.534v17.922H10.75zM16.79 25.286h4.508v-7.17H16.79v-2.815h7.835v9.985h4.738v2.816H16.79zm3.892-13.468q0-.792.591-1.356.589-.565 1.638-.565 1.076.001 1.716.565.641.564.641 1.357 0 .82-.64 1.345-.641.524-1.717.524-1.05 0-1.638-.524-.592-.525-.591-1.345M36.045 21.497 31.589 15.3h3.97l2.893 4.275 3.021-4.276h3.61l-4.378 6.146 4.632 6.655h-3.864l-3.251-4.71-3.303 4.71h-3.637zM59.65 14.351q0 .668-.166 1.331c-.11.446-.294.848-.55 1.217q-.384.552-1 .973-.614.424-1.485.628v.153q.77.127 1.46.437.693.306 1.205.844.51.538.806 1.306.294.77.294 1.816 0 1.383-.59 2.396a4.84 4.84 0 0 1-1.574 1.65 7.3 7.3 0 0 1-2.24.947c-.84.205-1.7.307-2.588.307h-1.114q-.679.001-1.46-.036a38 38 0 0 1-1.588-.117 11 11 0 0 1-1.472-.231V10.307q.486-.078 1.113-.155.628-.072 1.347-.126c.476-.034.969-.06 1.47-.079a52 52 0 0 1 1.5-.024q1.255 0 2.444.191 1.192.192 2.124.678a3.9 3.9 0 0 1 1.5 1.359q.565.87.565 2.2m-7.58 3.355q.363-.002.847-.024a9 9 0 0 0 .798-.077 4.8 4.8 0 0 0 1.71-.913q.718-.607.718-1.594 0-.661-.262-1.091a2 2 0 0 0-.69-.684 3 3 0 0 0-.98-.354 6.3 6.3 0 0 0-1.15-.103q-.677 0-1.253.027a8 8 0 0 0-.886.074v4.739zm1.129 7.708q.639 0 1.242-.155.601-.15 1.061-.466c.31-.212.555-.479.744-.8q.28-.481.281-1.142.001-.837-.334-1.315a2.25 2.25 0 0 0-.872-.748 3.6 3.6 0 0 0-1.202-.342q-.665-.075-1.33-.075H50.92v4.89q.126.052.409.078.282.025.602.037.32.014.666.028.345.01.602.01M69.073 24.493h.975l2.484-9.193h3.43l-3.637 11.548a66 66 0 0 1-.946 2.622 9.5 9.5 0 0 1-1.076 2.063 4.5 4.5 0 0 1-1.446 1.344q-.831.475-2.037.475-.587 0-1.113-.153a6 6 0 0 1-.96-.37 5.6 5.6 0 0 1-.769-.462 4.5 4.5 0 0 1-.535-.447l1.714-2.28q.335.283.794.525.46.243.87.243.77 0 1.217-.537.449-.537.857-1.768h-1.817l-5.325-12.8h3.61zM79.697 18.114h-2.533v-2.815h2.533v-2.92l3.328-.946v3.866h6.708v2.815h-6.709v3.663q0 1.97.743 2.854t2.075.885a4.47 4.47 0 0 0 2.266-.59 6 6 0 0 0 .818-.562q.372-.309.678-.563l1.537 2.304q-.435.509-1.088.934-.652.422-1.408.744a9 9 0 0 1-1.575.497 7.5 7.5 0 0 1-1.614.18q-2.865 0-4.314-1.6-1.445-1.601-1.446-5.083v-3.663M105.763 26.744a4.5 4.5 0 0 1-.857.602q-.525.295-1.229.551c-.472.171-.985.306-1.549.41a10 10 0 0 1-1.794.151q-1.638.001-2.932-.46-1.292-.458-2.188-1.344a5.8 5.8 0 0 1-1.368-2.125q-.477-1.238-.475-2.827 0-1.689.536-2.959.538-1.264 1.474-2.111a6.2 6.2 0 0 1 2.187-1.269 8.5 8.5 0 0 1 4.723-.164q1.038.255 1.909.883.871.626 1.42 1.677.551 1.05.552 2.664 0 1.099-.257 2.38h-9.217q.025.821.345 1.383.32.564.844.921.524.359 1.204.524t1.446.166q1.537 0 2.521-.358.987-.36 1.601-.87zm-5.528-9.14q-.667 0-1.256.183a3.5 3.5 0 0 0-1.061.535 2.9 2.9 0 0 0-.782.873 2.75 2.75 0 0 0-.358 1.174h6.299q0-1.278-.706-2.021-.703-.743-2.136-.744M117.745 24.568q.001-.51-.628-.822a9 9 0 0 0-1.547-.56 61 61 0 0 0-2.024-.528 9.2 9.2 0 0 1-2.024-.742 5.1 5.1 0 0 1-1.547-1.203q-.629-.732-.629-1.882 0-.949.422-1.664a3.8 3.8 0 0 1 1.152-1.216q.73-.501 1.741-.756a9 9 0 0 1 2.19-.255q1.252 0 2.201.178.948.179 1.652.436.704.254 1.205.576.498.32.857.575l-1.407 2.279a11.927 11.927 0 0 0-1.934-.92 8.4 8.4 0 0 0-1.152-.336 5.8 5.8 0 0 0-1.191-.126q-1.076 0-1.741.282-.665.28-.666.87-.001.462.628.743.626.282 1.55.524.918.245 2.021.527a10.7 10.7 0 0 1 2.024.728q.92.45 1.549 1.165.627.719.629 1.845 0 1.946-1.425 3.059-1.42 1.113-4.21 1.114-2.203 0-3.803-.652-1.6-.654-2.573-1.522l1.538-2.409q.333.282.882.629.551.345 1.24.628.692.28 1.474.473a6.5 6.5 0 0 0 1.549.193q.82 0 1.408-.282.59-.285.589-.95M134.37 8.648q-1.651 2.992-2.45 5.8a20.3 20.3 0 0 0-.803 5.61q0 2.78.803 5.602.798 2.826 2.45 5.83h-2.851q-1.987-2.892-2.951-5.707a17.5 17.5 0 0 1-.962-5.727q0-2.905.969-5.729.971-2.824 2.944-5.68h2.851zM142.095 8.65h2.85q1.975 2.856 2.944 5.68a17.5 17.5 0 0 1 .97 5.728 17.5 17.5 0 0 1-.963 5.727q-.963 2.815-2.951 5.707h-2.85q1.65-3.005 2.451-5.83.802-2.822.802-5.602 0-2.805-.802-5.61-.8-2.81-2.451-5.8"/></svg>