<svg width="300" height="300" viewBox="0 0 300 300" fill="none" xmlns="http://www.w3.org/2000/svg">
<g clip-path="url(#clip0_17373_436747)">
<g opacity="0.7" filter="url(#filter0_f_17373_436747)">
<path d="M231.672 133.818L164.316 174.311L237.939 216.031C255.609 180.446 241.079 146.396 231.672 133.818Z" fill="url(#paint0_radial_17373_436747)"/>
<path d="M231.672 133.818L164.316 174.311L237.939 216.031C255.609 180.446 241.079 146.396 231.672 133.818Z" fill="url(#paint1_linear_17373_436747)" fill-opacity="0.5"/>
<path d="M231.672 133.818L164.316 174.311L237.939 216.031C255.609 180.446 241.079 146.396 231.672 133.818Z" fill="url(#paint2_radial_17373_436747)"/>
<path d="M139.775 257.444C161.147 264.397 210.699 265.604 237.939 216.031L139.775 257.444Z" fill="url(#paint3_radial_17373_436747)"/>
<path d="M139.775 257.444C161.147 264.397 210.699 265.604 237.939 216.031L139.775 257.444Z" fill="url(#paint4_linear_17373_436747)" fill-opacity="0.5"/>
<path d="M139.775 257.444C161.147 264.397 210.699 265.604 237.939 216.031L139.775 257.444Z" fill="url(#paint5_radial_17373_436747)"/>
<path d="M87.8003 208.361C75.5746 176.151 88.3419 145.679 96.5222 135.352L130.266 196.704L139.776 257.443C129.346 253.762 100.026 240.571 87.8003 208.361Z" fill="url(#paint6_radial_17373_436747)"/>
<path d="M87.8003 208.361C75.5746 176.151 88.3419 145.679 96.5222 135.352L130.266 196.704L139.776 257.443C129.346 253.762 100.026 240.571 87.8003 208.361Z" fill="url(#paint7_linear_17373_436747)"/>
<path d="M87.8003 208.361C75.5746 176.151 88.3419 145.679 96.5222 135.352L130.266 196.704L139.776 257.443C129.346 253.762 100.026 240.571 87.8003 208.361Z" fill="url(#paint8_radial_17373_436747)"/>
<path d="M130.266 196.704L164.317 174.31L96.5225 135.352L130.266 196.704Z" fill="url(#paint9_linear_17373_436747)"/>
<path d="M130.266 196.704L164.317 174.31L96.5225 135.352L130.266 196.704Z" fill="url(#paint10_radial_17373_436747)"/>
<path d="M164.316 174.311L130.266 196.704L139.775 257.443L164.316 174.311Z" fill="url(#paint11_radial_17373_436747)"/>
<path d="M164.316 174.311L130.266 196.704L139.775 257.443L164.316 174.311Z" fill="url(#paint12_linear_17373_436747)" fill-opacity="0.8"/>
<path d="M164.316 174.311L139.775 257.443L237.939 216.03L164.316 174.311Z" fill="url(#paint13_radial_17373_436747)"/>
<path d="M164.316 174.311L139.775 257.443L237.939 216.03L164.316 174.311Z" fill="url(#paint14_radial_17373_436747)" fill-opacity="0.2"/>
<path d="M140.724 69.0898L106.674 121.239L140.111 102.834L140.724 69.0898Z" fill="url(#paint15_radial_17373_436747)" fill-opacity="0.98"/>
<path d="M180.604 57.4336L140.111 102.834L140.725 69.0906L180.604 57.4336Z" fill="url(#paint16_radial_17373_436747)" fill-opacity="0.6"/>
<path d="M180.604 57.4336L140.111 102.834L140.725 69.0906L180.604 57.4336Z" fill="url(#paint17_radial_17373_436747)"/>
<path d="M180.604 57.4336L140.111 102.834L140.725 69.0906L180.604 57.4336Z" fill="url(#paint18_linear_17373_436747)"/>
<path d="M164.652 32.8926L140.725 69.0905L180.604 57.4336L164.652 32.8926Z" fill="url(#paint19_radial_17373_436747)"/>
<path d="M139.759 102.697L106.629 120.796L163.993 153.927L190.068 139.202L139.759 102.697Z" fill="url(#paint20_radial_17373_436747)"/>
<path d="M139.759 102.697L106.629 120.796L163.993 153.927L190.068 139.202L139.759 102.697Z" fill="url(#paint21_linear_17373_436747)"/>
<path d="M180.604 57.4336L140.111 102.834L190.42 139.339L180.604 57.4336Z" fill="url(#paint22_radial_17373_436747)" fill-opacity="0.9"/>
<path d="M180.604 57.4336L140.111 102.834L190.42 139.339L180.604 57.4336Z" fill="url(#paint23_radial_17373_436747)"/>
<path d="M180.604 57.4336L140.111 102.834L190.42 139.339L180.604 57.4336Z" fill="url(#paint24_linear_17373_436747)" fill-opacity="0.6"/>
<path d="M180.604 57.4336L190.42 139.339L222.323 121.24L180.604 57.4336Z" fill="url(#paint25_radial_17373_436747)" fill-opacity="0.9"/>
<path d="M180.604 57.4336L190.42 139.339L222.323 121.24L180.604 57.4336Z" fill="url(#paint26_radial_17373_436747)"/>
<path d="M107.122 126.081C108.156 126.081 109.157 125.727 109.961 125.084C112.416 125.768 116.202 127.523 118.95 128.883L154.1 149.181C156.493 150.919 158.529 153.486 159.822 155.344C160.387 157.264 162.175 158.599 164.181 158.599C166.686 158.599 168.721 156.559 168.721 154.059C168.721 153.832 168.704 153.601 168.671 153.375C169.141 152.777 169.8 152.093 170.579 151.389L180.516 145.774C183.989 144.34 186.386 143.833 187.346 143.673C188.113 144.208 189.007 144.488 189.946 144.488C192.443 144.488 194.474 142.466 194.486 139.973C196.95 137.435 201.897 133.999 205.613 131.561L211.41 128.269C215.571 126.324 218.574 125.735 219.748 125.566C220.391 125.9 221.116 126.077 221.845 126.077C224.35 126.077 226.385 124.038 226.385 121.537C226.385 119.036 224.346 116.993 221.845 116.993C221.598 116.993 221.351 117.014 221.108 117.051C220.189 116.449 218.813 114.991 217.128 112.84L188.302 68.7589C186.003 64.7339 184.549 61.8294 183.976 60.128C184.425 59.407 184.66 58.5789 184.66 57.7261C184.66 55.1843 182.551 53.1161 180.005 53.1862C177.854 50.6402 175.387 48.2013 174.085 46.953L170.876 42.0093C170.015 39.9123 169.191 37.5558 168.56 35.706C169.063 34.9562 169.327 34.087 169.327 33.1806C169.327 30.6758 167.287 28.6406 164.787 28.6406C162.286 28.6406 160.247 30.6799 160.247 33.1806C160.247 33.7409 160.345 34.2847 160.543 34.7997C159.451 37.9801 155.983 44.5347 154.545 47.2084L145.139 61.4381C143.199 63.4361 141.452 64.5114 140.492 64.8451C140.41 64.841 140.328 64.8369 140.245 64.8369C137.74 64.8369 135.705 66.8761 135.705 69.3768C135.705 70.345 136.006 71.2678 136.574 72.0464C136.323 73.4842 135.178 76.0509 133.18 79.6598L113.244 110.195C109.017 115.93 106.962 117.042 106.537 116.989L106.315 116.96L106.29 117.063C104.16 117.459 102.578 119.345 102.578 121.529C102.578 124.034 104.617 126.069 107.118 126.069L107.122 126.081ZM186.765 117.018C187.544 125.616 188.426 135.363 187.548 135.713C186.444 135.478 183.997 134.127 180.281 131.713L150.73 110.27C147.685 107.67 145.588 105.594 144.657 104.251C144.748 103.884 144.797 103.509 144.797 103.13C144.797 102.516 144.678 101.923 144.443 101.363C145.251 99.1298 147.298 96.1017 148.872 93.9595L173.916 65.8792C177.199 62.674 178.221 62.0725 178.534 61.9777C178.58 61.9942 178.629 62.0107 178.674 62.0272C179.432 62.8388 180.734 68.1903 182.085 76.0632L186.131 109.812C186.341 112.255 186.555 114.632 186.761 116.898L186.774 117.01L186.765 117.018ZM174.814 147.722L174.802 147.702C174.53 147.842 174.225 148.019 173.899 148.225C170.336 150.194 167.86 150.347 166.665 150.252C165.928 149.766 165.067 149.51 164.181 149.51C162.85 149.51 161.602 150.083 160.737 151.092C160.065 150.948 159.344 150.746 158.595 150.491L116.837 126.374C113.652 124.087 111.811 122.266 111.658 121.265C111.658 121.203 111.65 121.146 111.646 121.109C111.646 121.059 111.65 121.014 111.662 120.973C111.786 120.425 112.527 119.341 115.345 117.302L131.206 108.568C134.576 107.172 136.546 106.657 137.221 106.5C138.058 107.254 139.129 107.666 140.257 107.666C141.242 107.666 142.202 107.345 142.985 106.755C144.789 107.744 147.512 109.466 151.076 111.88L179.638 132.603C183.416 136.055 185.414 138.696 185.414 140.241C185.414 140.624 184.907 141.613 181.542 143.916L174.822 147.71L174.814 147.722ZM175.597 57.4625C174.62 58.237 173.096 59.0527 171.09 59.889L157.074 63.9841C152.93 64.9275 145.815 66.5054 143.891 66.6743C143.772 66.5136 143.636 66.357 143.496 66.2129C143.524 66.0769 143.574 65.9121 143.644 65.7308L157.083 45.3998C162.587 38.4827 164.309 37.7371 164.795 37.7371C165.808 37.7371 167.815 39.7145 170.295 43.1463L175.976 51.8843C176.429 52.9184 176.713 53.8412 176.816 54.6281C176.087 55.4026 175.659 56.4037 175.593 57.4625H175.597ZM144.723 70.1843C145.836 69.2203 148.365 67.9844 152.036 66.6125L171.955 60.7871C175.803 60.0209 176.178 60.3999 176.202 60.4534C176.141 60.8118 175.514 62.0601 171.971 66.39L152.481 88.2454C149.214 91.3105 146.783 93.704 144.983 95.4797C143.31 97.1276 142.206 98.2152 141.638 98.6395C141.563 98.6972 141.535 98.6848 141.522 98.6807C141.423 98.6354 140.925 98.2275 140.653 94.5857L140.834 84.6323C141.329 80.9698 142.144 75.952 143.253 72.8045C144.027 72.1206 144.55 71.1978 144.727 70.1884L144.723 70.1843ZM139.541 94.8905C139.125 97.0905 138.56 98.52 138.346 99.0144C136.743 99.756 135.713 101.367 135.713 103.138C135.713 103.616 135.788 104.082 135.932 104.531C135.664 104.741 135.371 104.955 135.079 105.169L111.967 117.796C110.41 118.32 110.13 118.077 110.088 118.023C110.08 118.011 109.944 117.743 110.632 116.251L128.351 89.1146C136.752 77.2209 138.494 76.0426 138.844 76.0014C139.339 76.8048 139.66 80.0511 139.73 84.9248L139.549 94.8946L139.541 94.8905ZM217.524 122.934C217.124 123.391 216.56 123.91 215.851 124.483L202.486 132.067C197.069 134.877 193.716 136.171 192.245 136.035C192.039 135.915 191.829 135.812 191.61 135.726C190.58 134.197 189.266 124.689 187.746 113.693L187.429 111.386L181.64 63.0777C181.723 62.0807 181.9 61.9654 181.9 61.9654C182.052 62.0148 182.576 62.365 184.191 64.4867L215.987 113.112C217.211 115.835 217.779 118.011 218.018 119.119C217.557 119.844 217.314 120.684 217.314 121.55C217.314 122.023 217.388 122.493 217.532 122.942L217.524 122.934Z" fill="url(#paint27_radial_17373_436747)"/>
<path d="M246.498 172.458C245.204 160.292 241.468 150.503 238.571 144.464C237.401 141.094 236.446 138.202 236.062 137.024C236.359 136.41 236.516 135.726 236.516 135.042C236.516 132.537 234.476 130.502 231.976 130.502C229.475 130.502 227.436 132.541 227.436 135.042C227.436 135.112 227.436 135.186 227.44 135.256C226.398 136.22 224.746 137.501 222.529 139.059L178.266 165.668C172.177 168.705 168.317 170.064 166.69 170.336C166.018 169.965 165.26 169.767 164.49 169.767C163.46 169.767 162.459 170.118 161.655 170.76C159.072 170.105 155.047 168.293 152.118 166.884L108.997 142.107C104.86 139.162 101.96 136.195 101.523 135.26C101.322 132.933 99.3482 131.116 96.9999 131.116C94.4951 131.116 92.4599 133.155 92.4599 135.66C92.4599 136.587 92.736 137.477 93.2592 138.235C93.1479 138.939 92.9543 139.743 92.6865 140.637C88.8964 147.228 85.8477 155.472 84.1092 163.847C81.8886 174.546 80.6568 191.042 87.4256 208.868C92.221 221.499 100.11 232.52 110.875 241.62C119.972 249.308 129.216 254.008 135.433 256.612C135.413 256.785 135.404 256.962 135.404 257.139C135.404 259.644 137.444 261.679 139.944 261.679C141.555 261.679 143.038 260.831 143.854 259.451C150.112 261.012 156.942 261.795 163.851 261.795C170.385 261.795 176.993 261.094 183.247 259.694C200.843 255.751 215.736 246.7 227.502 232.804C233.331 226.913 236.104 223.856 237.595 222.208L237.632 222.167C238.073 221.681 238.403 221.318 238.674 221.034C240.656 220.502 242.032 218.706 242.032 216.646C242.032 215.67 241.727 214.743 241.155 213.96C241.266 212.675 241.599 210.767 242.139 208.295C246.337 196.842 247.8 184.784 246.49 172.466L246.498 172.458ZM232.964 216.263C232.857 216.634 231.654 217.952 222.793 222.179L151.348 252.323C145.181 254.354 143.59 253.984 143.187 253.584C142.919 253.316 142.581 252.245 143.335 248.117L161.075 188.022C163.93 180.038 165.615 178.654 166.36 178.538C166.455 178.522 166.57 178.514 166.698 178.514C167.876 178.514 170.542 179.206 176.536 182.094L209.156 200.579L209.148 200.596C222.813 208.283 233.273 215.167 232.96 216.263H232.964ZM152.423 253.069L227.168 221.532C231.432 220.235 233.681 220 234.398 219.963C234.596 220.148 234.81 220.313 235.037 220.461C224.849 237.047 211.179 248.723 194.399 255.166C181.686 260.052 166.999 261.774 153.066 260.023C145.617 258.552 145.403 257.547 145.403 257.44C145.403 257.292 145.741 256.373 152.419 253.073L152.423 253.069ZM223.464 207.41L175.902 180.458C170.476 176.792 169.211 174.987 169.104 174.122C169.075 173.891 169.129 173.706 169.269 173.549C170.439 172.248 174.983 169.096 182.052 164.675L217.091 143.611C220.053 142.078 225.574 139.429 229.413 138.791C230.167 139.306 231.049 139.578 231.972 139.578C232.388 139.578 232.8 139.52 233.199 139.409C235.333 141.094 237.628 145.288 239.185 148.526C243.775 159.443 250.202 181.476 241.641 206.396C240.322 209.099 238.769 211.105 237.908 212.11C236.915 212.02 235.927 212.259 235.09 212.782C232.828 211.929 228.915 210.12 223.464 207.41ZM157.416 178.58L139.343 190.465C136.916 191.816 135.034 192.657 133.74 192.97C132.9 192.2 131.816 191.788 130.691 191.788C130.522 191.788 130.354 191.796 130.185 191.816C129.027 190.7 123.811 182.852 118.6 174.377L105.437 150.446C100.975 141.831 100.436 139.895 100.535 139.528C101.305 139.121 103.081 140.093 105.132 141.222C105.713 141.539 106.327 141.877 106.949 142.202L154.957 169.792C159.299 172.923 159.946 174.349 159.946 174.921C159.946 175.494 159.501 176.643 157.416 178.584V178.58ZM127.445 199.516C127.873 199.949 128.368 200.287 128.924 200.517C129.843 201.943 131 206.017 132.195 212.011L136.694 240.755C137.398 246.972 137.6 251.351 137.283 253.444C136.784 253.806 136.356 254.272 136.039 254.799C134.58 254.647 131.573 253.514 127.536 251.598C114.505 244.57 97.1482 231.378 88.4514 208.464C81.7815 190.889 82.9927 174.616 85.1844 164.062C86.3751 158.335 88.1218 152.815 90.3753 147.673C93.3375 142.181 95.1666 140.674 96.1801 140.381C96.3284 140.34 96.4685 140.315 96.6003 140.315C96.8063 140.315 96.9958 140.365 97.1771 140.468C98.0175 140.937 100.65 144.732 104.395 150.87L119.164 177.723C123.63 186.473 126.25 192.105 126.753 194.033C125.715 195.804 125.987 198.045 127.437 199.516H127.445ZM132.912 209.412C132.624 205.094 132.665 201.922 133.035 200.212C133.336 200.031 133.616 199.809 133.872 199.562C134.791 198.655 135.281 197.407 135.223 196.117C136.591 194.733 139.891 191.903 143.31 189.184L157.256 180.009C160.275 178.39 161.264 178.555 161.581 178.794C161.668 178.864 162.026 179.498 160.823 184.978L143.442 243.857C140.941 251.343 140.13 252.435 139.924 252.579C139.878 252.538 139.755 252.389 139.569 251.915L132.916 209.412H132.912Z" fill="url(#paint28_linear_17373_436747)"/>
<path d="M246.498 172.458C245.204 160.292 241.468 150.503 238.571 144.464C237.401 141.094 236.446 138.202 236.062 137.024C236.359 136.41 236.516 135.726 236.516 135.042C236.516 132.537 234.476 130.502 231.976 130.502C229.475 130.502 227.436 132.541 227.436 135.042C227.436 135.112 227.436 135.186 227.44 135.256C226.398 136.22 224.746 137.501 222.529 139.059L178.266 165.668C172.177 168.705 168.317 170.064 166.69 170.336C166.018 169.965 165.26 169.767 164.49 169.767C163.46 169.767 162.459 170.118 161.655 170.76C159.072 170.105 155.047 168.293 152.118 166.884L108.997 142.107C104.86 139.162 101.96 136.195 101.523 135.26C101.322 132.933 99.3482 131.116 96.9999 131.116C94.4951 131.116 92.4599 133.155 92.4599 135.66C92.4599 136.587 92.736 137.477 93.2592 138.235C93.1479 138.939 92.9543 139.743 92.6865 140.637C88.8964 147.228 85.8477 155.472 84.1092 163.847C81.8886 174.546 80.6568 191.042 87.4256 208.868C92.221 221.499 100.11 232.52 110.875 241.62C119.972 249.308 129.216 254.008 135.433 256.612C135.413 256.785 135.404 256.962 135.404 257.139C135.404 259.644 137.444 261.679 139.944 261.679C141.555 261.679 143.038 260.831 143.854 259.451C150.112 261.012 156.942 261.795 163.851 261.795C170.385 261.795 176.993 261.094 183.247 259.694C200.843 255.751 215.736 246.7 227.502 232.804C233.331 226.913 236.104 223.856 237.595 222.208L237.632 222.167C238.073 221.681 238.403 221.318 238.674 221.034C240.656 220.502 242.032 218.706 242.032 216.646C242.032 215.67 241.727 214.743 241.155 213.96C241.266 212.675 241.599 210.767 242.139 208.295C246.337 196.842 247.8 184.784 246.49 172.466L246.498 172.458ZM232.964 216.263C232.857 216.634 231.654 217.952 222.793 222.179L151.348 252.323C145.181 254.354 143.59 253.984 143.187 253.584C142.919 253.316 142.581 252.245 143.335 248.117L161.075 188.022C163.93 180.038 165.615 178.654 166.36 178.538C166.455 178.522 166.57 178.514 166.698 178.514C167.876 178.514 170.542 179.206 176.536 182.094L209.156 200.579L209.148 200.596C222.813 208.283 233.273 215.167 232.96 216.263H232.964ZM152.423 253.069L227.168 221.532C231.432 220.235 233.681 220 234.398 219.963C234.596 220.148 234.81 220.313 235.037 220.461C224.849 237.047 211.179 248.723 194.399 255.166C181.686 260.052 166.999 261.774 153.066 260.023C145.617 258.552 145.403 257.547 145.403 257.44C145.403 257.292 145.741 256.373 152.419 253.073L152.423 253.069ZM223.464 207.41L175.902 180.458C170.476 176.792 169.211 174.987 169.104 174.122C169.075 173.891 169.129 173.706 169.269 173.549C170.439 172.248 174.983 169.096 182.052 164.675L217.091 143.611C220.053 142.078 225.574 139.429 229.413 138.791C230.167 139.306 231.049 139.578 231.972 139.578C232.388 139.578 232.8 139.52 233.199 139.409C235.333 141.094 237.628 145.288 239.185 148.526C243.775 159.443 250.202 181.476 241.641 206.396C240.322 209.099 238.769 211.105 237.908 212.11C236.915 212.02 235.927 212.259 235.09 212.782C232.828 211.929 228.915 210.12 223.464 207.41ZM157.416 178.58L139.343 190.465C136.916 191.816 135.034 192.657 133.74 192.97C132.9 192.2 131.816 191.788 130.691 191.788C130.522 191.788 130.354 191.796 130.185 191.816C129.027 190.7 123.811 182.852 118.6 174.377L105.437 150.446C100.975 141.831 100.436 139.895 100.535 139.528C101.305 139.121 103.081 140.093 105.132 141.222C105.713 141.539 106.327 141.877 106.949 142.202L154.957 169.792C159.299 172.923 159.946 174.349 159.946 174.921C159.946 175.494 159.501 176.643 157.416 178.584V178.58ZM127.445 199.516C127.873 199.949 128.368 200.287 128.924 200.517C129.843 201.943 131 206.017 132.195 212.011L136.694 240.755C137.398 246.972 137.6 251.351 137.283 253.444C136.784 253.806 136.356 254.272 136.039 254.799C134.58 254.647 131.573 253.514 127.536 251.598C114.505 244.57 97.1482 231.378 88.4514 208.464C81.7815 190.889 82.9927 174.616 85.1844 164.062C86.3751 158.335 88.1218 152.815 90.3753 147.673C93.3375 142.181 95.1666 140.674 96.1801 140.381C96.3284 140.34 96.4685 140.315 96.6003 140.315C96.8063 140.315 96.9958 140.365 97.1771 140.468C98.0175 140.937 100.65 144.732 104.395 150.87L119.164 177.723C123.63 186.473 126.25 192.105 126.753 194.033C125.715 195.804 125.987 198.045 127.437 199.516H127.445ZM132.912 209.412C132.624 205.094 132.665 201.922 133.035 200.212C133.336 200.031 133.616 199.809 133.872 199.562C134.791 198.655 135.281 197.407 135.223 196.117C136.591 194.733 139.891 191.903 143.31 189.184L157.256 180.009C160.275 178.39 161.264 178.555 161.581 178.794C161.668 178.864 162.026 179.498 160.823 184.978L143.442 243.857C140.941 251.343 140.13 252.435 139.924 252.579C139.878 252.538 139.755 252.389 139.569 251.915L132.916 209.412H132.912Z" fill="url(#paint29_linear_17373_436747)"/>
</g>
<path d="M217.499 133.818L150.144 174.311L223.767 216.031C241.436 180.446 226.906 146.396 217.499 133.818Z" fill="url(#paint30_radial_17373_436747)"/>
<path d="M217.499 133.818L150.144 174.311L223.767 216.031C241.436 180.446 226.906 146.396 217.499 133.818Z" fill="url(#paint31_linear_17373_436747)" fill-opacity="0.5"/>
<path d="M217.499 133.818L150.144 174.311L223.767 216.031C241.436 180.446 226.906 146.396 217.499 133.818Z" fill="url(#paint32_radial_17373_436747)"/>
<path d="M125.603 257.444C146.974 264.397 196.526 265.604 223.767 216.031L125.603 257.444Z" fill="url(#paint33_radial_17373_436747)"/>
<path d="M125.603 257.444C146.974 264.397 196.526 265.604 223.767 216.031L125.603 257.444Z" fill="url(#paint34_linear_17373_436747)" fill-opacity="0.5"/>
<path d="M125.603 257.444C146.974 264.397 196.526 265.604 223.767 216.031L125.603 257.444Z" fill="url(#paint35_radial_17373_436747)"/>
<path d="M73.6275 208.361C61.4017 176.151 74.1691 145.679 82.3494 135.352L116.093 196.704L125.603 257.443C115.173 253.762 85.8532 240.571 73.6275 208.361Z" fill="url(#paint36_radial_17373_436747)"/>
<path d="M73.6275 208.361C61.4017 176.151 74.1691 145.679 82.3494 135.352L116.093 196.704L125.603 257.443C115.173 253.762 85.8532 240.571 73.6275 208.361Z" fill="url(#paint37_linear_17373_436747)"/>
<path d="M73.6275 208.361C61.4017 176.151 74.1691 145.679 82.3494 135.352L116.093 196.704L125.603 257.443C115.173 253.762 85.8532 240.571 73.6275 208.361Z" fill="url(#paint38_radial_17373_436747)"/>
<path d="M116.093 196.704L150.144 174.31L82.3496 135.352L116.093 196.704Z" fill="url(#paint39_linear_17373_436747)"/>
<path d="M116.093 196.704L150.144 174.31L82.3496 135.352L116.093 196.704Z" fill="url(#paint40_radial_17373_436747)"/>
<path d="M150.143 174.311L116.093 196.704L125.602 257.443L150.143 174.311Z" fill="url(#paint41_radial_17373_436747)"/>
<path d="M150.143 174.311L116.093 196.704L125.602 257.443L150.143 174.311Z" fill="url(#paint42_linear_17373_436747)" fill-opacity="0.8"/>
<path d="M150.144 174.311L125.603 257.443L223.767 216.03L150.144 174.311Z" fill="url(#paint43_radial_17373_436747)"/>
<path d="M150.144 174.311L125.603 257.443L223.767 216.03L150.144 174.311Z" fill="url(#paint44_radial_17373_436747)" fill-opacity="0.2"/>
<path d="M126.552 69.0898L92.501 121.239L125.938 102.834L126.552 69.0898Z" fill="url(#paint45_radial_17373_436747)" fill-opacity="0.98"/>
<path d="M166.431 57.4336L125.938 102.834L126.552 69.0906L166.431 57.4336Z" fill="url(#paint46_radial_17373_436747)" fill-opacity="0.6"/>
<path d="M166.431 57.4336L125.938 102.834L126.552 69.0906L166.431 57.4336Z" fill="url(#paint47_radial_17373_436747)"/>
<path d="M166.431 57.4336L125.938 102.834L126.552 69.0906L166.431 57.4336Z" fill="url(#paint48_linear_17373_436747)"/>
<path d="M150.479 32.8926L126.552 69.0905L166.431 57.4336L150.479 32.8926Z" fill="url(#paint49_radial_17373_436747)"/>
<path d="M125.586 102.697L92.4561 120.796L149.821 153.927L175.895 139.202L125.586 102.697Z" fill="url(#paint50_radial_17373_436747)"/>
<path d="M125.586 102.697L92.4561 120.796L149.821 153.927L175.895 139.202L125.586 102.697Z" fill="url(#paint51_linear_17373_436747)"/>
<path d="M166.431 57.4336L125.938 102.834L176.248 139.339L166.431 57.4336Z" fill="url(#paint52_radial_17373_436747)" fill-opacity="0.9"/>
<path d="M166.431 57.4336L125.938 102.834L176.248 139.339L166.431 57.4336Z" fill="url(#paint53_radial_17373_436747)" fill-opacity="0.7"/>
<path d="M166.431 57.4336L125.938 102.834L176.248 139.339L166.431 57.4336Z" fill="url(#paint54_linear_17373_436747)" fill-opacity="0.6"/>
<path d="M166.431 57.4336L176.247 139.339L208.15 121.24L166.431 57.4336Z" fill="url(#paint55_radial_17373_436747)" fill-opacity="0.9"/>
<path d="M166.431 57.4336L176.247 139.339L208.15 121.24L166.431 57.4336Z" fill="url(#paint56_radial_17373_436747)" fill-opacity="0.7"/>
<path d="M92.9494 126.081C93.9834 126.081 94.9845 125.727 95.7879 125.084C98.2433 125.768 102.029 127.523 104.777 128.883L139.927 149.181C142.321 150.919 144.356 153.486 145.649 155.344C146.214 157.264 148.002 158.599 150.008 158.599C152.513 158.599 154.548 156.559 154.548 154.059C154.548 153.832 154.532 153.601 154.499 153.375C154.968 152.777 155.627 152.093 156.406 151.389L166.343 145.774C169.816 144.34 172.214 143.833 173.173 143.673C173.94 144.208 174.834 144.488 175.773 144.488C178.27 144.488 180.301 142.466 180.313 139.973C182.777 137.435 187.724 133.999 191.441 131.561L197.237 128.269C201.398 126.324 204.401 125.735 205.575 125.566C206.218 125.9 206.943 126.077 207.672 126.077C210.177 126.077 212.212 124.038 212.212 121.537C212.212 119.036 210.173 116.993 207.672 116.993C207.425 116.993 207.178 117.014 206.935 117.051C206.016 116.449 204.64 114.991 202.955 112.84L174.129 68.7589C171.83 64.7339 170.376 61.8294 169.804 60.128C170.253 59.407 170.487 58.5789 170.487 57.7261C170.487 55.1843 168.378 53.1161 165.832 53.1862C163.682 50.6402 161.214 48.2013 159.912 46.953L156.703 42.0093C155.842 39.9123 155.018 37.5558 154.387 35.706C154.89 34.9562 155.154 34.087 155.154 33.1806C155.154 30.6758 153.114 28.6406 150.614 28.6406C148.113 28.6406 146.074 30.6799 146.074 33.1806C146.074 33.7409 146.173 34.2847 146.37 34.7997C145.279 37.9801 141.81 44.5347 140.372 47.2084L130.967 61.4381C129.026 63.4361 127.279 64.5114 126.319 64.8451C126.237 64.841 126.155 64.8369 126.072 64.8369C123.567 64.8369 121.532 66.8761 121.532 69.3768C121.532 70.345 121.833 71.2678 122.402 72.0464C122.15 73.4842 121.005 76.0509 119.007 79.6598L99.0713 110.195C94.8445 115.93 92.7887 117.042 92.3644 116.989L92.1419 116.96L92.1172 117.063C89.9873 117.459 88.4053 119.345 88.4053 121.529C88.4053 124.034 90.4446 126.069 92.9453 126.069L92.9494 126.081ZM172.593 117.018C173.371 125.616 174.253 135.363 173.375 135.713C172.271 135.478 169.824 134.127 166.108 131.713L136.557 110.27C133.513 107.67 131.416 105.594 130.485 104.251C130.575 103.884 130.625 103.509 130.625 103.13C130.625 102.516 130.505 101.923 130.27 101.363C131.078 99.1298 133.125 96.1017 134.699 93.9595L159.743 65.8792C163.027 62.674 164.048 62.0725 164.361 61.9777C164.407 61.9942 164.456 62.0107 164.501 62.0272C165.259 62.8388 166.561 68.1903 167.913 76.0632L171.958 109.812C172.168 112.255 172.382 114.632 172.588 116.898L172.601 117.01L172.593 117.018ZM160.641 147.722L160.629 147.702C160.357 147.842 160.052 148.019 159.727 148.225C156.163 150.194 153.687 150.347 152.492 150.252C151.755 149.766 150.894 149.51 150.008 149.51C148.677 149.51 147.429 150.083 146.564 151.092C145.892 150.948 145.171 150.746 144.422 150.491L102.664 126.374C99.4792 124.087 97.6377 122.266 97.4852 121.265C97.4852 121.203 97.477 121.146 97.4729 121.109C97.4729 121.059 97.477 121.014 97.4893 120.973C97.6129 120.425 98.3545 119.341 101.172 117.302L117.033 108.568C120.403 107.172 122.373 106.657 123.048 106.5C123.885 107.254 124.956 107.666 126.085 107.666C127.069 107.666 128.029 107.345 128.812 106.755C130.616 107.744 133.34 109.466 136.903 111.88L165.465 132.603C169.243 136.055 171.241 138.696 171.241 140.241C171.241 140.624 170.735 141.613 167.369 143.916L160.649 147.71L160.641 147.722ZM161.424 57.4625C160.448 58.237 158.923 59.0527 156.917 59.889L142.901 63.9841C138.757 64.9275 131.642 66.5054 129.718 66.6743C129.599 66.5136 129.463 66.357 129.323 66.2129C129.352 66.0769 129.401 65.9121 129.471 65.7308L142.91 45.3998C148.414 38.4827 150.136 37.7371 150.622 37.7371C151.635 37.7371 153.642 39.7145 156.122 43.1463L161.803 51.8843C162.256 52.9184 162.54 53.8412 162.643 54.6281C161.914 55.4026 161.486 56.4037 161.42 57.4625H161.424ZM130.55 70.1843C131.663 69.2203 134.192 67.9844 137.863 66.6125L157.782 60.7871C161.63 60.0209 162.005 60.3999 162.03 60.4534C161.968 60.8118 161.342 62.0601 157.799 66.39L138.308 88.2454C135.041 91.3105 132.61 93.704 130.81 95.4797C129.137 97.1276 128.033 98.2152 127.465 98.6395C127.391 98.6972 127.362 98.6848 127.349 98.6807C127.251 98.6354 126.752 98.2275 126.48 94.5857L126.661 84.6323C127.156 80.9698 127.971 75.952 129.08 72.8045C129.854 72.1206 130.377 71.1978 130.555 70.1884L130.55 70.1843ZM125.368 94.8905C124.952 97.0905 124.387 98.52 124.173 99.0144C122.57 99.756 121.541 101.367 121.541 103.138C121.541 103.616 121.615 104.082 121.759 104.531C121.491 104.741 121.199 104.955 120.906 105.169L97.7942 117.796C96.2369 118.32 95.9568 118.077 95.9156 118.023C95.9074 118.011 95.7714 117.743 96.4594 116.251L114.179 89.1146C122.579 77.2209 124.321 76.0426 124.672 76.0014C125.166 76.8048 125.487 80.0511 125.557 84.9248L125.376 94.8946L125.368 94.8905ZM203.351 122.934C202.951 123.391 202.387 123.91 201.678 124.483L188.314 132.067C182.896 134.877 179.543 136.171 178.072 136.035C177.866 135.915 177.656 135.812 177.437 135.726C176.408 134.197 175.093 124.689 173.573 113.693L173.256 111.386L167.468 63.0777C167.55 62.0807 167.727 61.9654 167.727 61.9654C167.88 62.0148 168.403 62.365 170.018 64.4867L201.814 113.112C203.038 115.835 203.606 118.011 203.845 119.119C203.384 119.844 203.141 120.684 203.141 121.55C203.141 122.023 203.215 122.493 203.359 122.942L203.351 122.934Z" fill="url(#paint57_radial_17373_436747)" fill-opacity="0.7"/>
<path d="M232.325 172.458C231.031 160.292 227.295 150.503 224.399 144.464C223.229 141.094 222.273 138.202 221.89 137.024C222.186 136.41 222.343 135.726 222.343 135.042C222.343 132.537 220.304 130.502 217.803 130.502C215.302 130.502 213.263 132.541 213.263 135.042C213.263 135.112 213.263 135.186 213.267 135.256C212.225 136.22 210.573 137.501 208.356 139.059L164.094 165.668C158.004 168.705 154.144 170.064 152.517 170.336C151.845 169.965 151.087 169.767 150.317 169.767C149.287 169.767 148.286 170.118 147.483 170.76C144.9 170.105 140.875 168.293 137.945 166.884L94.8238 142.107C90.6876 139.162 87.7873 136.195 87.3506 135.26C87.1487 132.933 85.1753 131.116 82.8271 131.116C80.3223 131.116 78.2871 133.155 78.2871 135.66C78.2871 136.587 78.5631 137.477 79.0863 138.235C78.9751 138.939 78.7815 139.743 78.5137 140.637C74.7235 147.228 71.6749 155.472 69.9363 163.847C67.7158 174.546 66.484 191.042 73.2527 208.868C78.0481 221.499 85.9375 232.52 96.7024 241.62C105.799 249.308 115.044 254.008 121.26 256.612C121.24 256.785 121.231 256.962 121.231 257.139C121.231 259.644 123.271 261.679 125.771 261.679C127.382 261.679 128.865 260.831 129.681 259.451C135.939 261.012 142.77 261.795 149.678 261.795C156.212 261.795 162.82 261.094 169.074 259.694C186.67 255.751 201.563 246.7 213.329 232.804C219.158 226.913 221.931 223.856 223.422 222.208L223.459 222.167C223.9 221.681 224.23 221.318 224.502 221.034C226.483 220.502 227.859 218.706 227.859 216.646C227.859 215.67 227.554 214.743 226.982 213.96C227.093 212.675 227.427 210.767 227.966 208.295C232.164 196.842 233.627 184.784 232.317 172.466L232.325 172.458ZM218.792 216.263C218.684 216.634 217.481 217.952 208.62 222.179L137.175 252.323C131.008 254.354 129.417 253.984 129.014 253.584C128.746 253.316 128.408 252.245 129.162 248.117L146.902 188.022C149.757 180.038 151.442 178.654 152.187 178.538C152.282 178.522 152.397 178.514 152.525 178.514C153.703 178.514 156.369 179.206 162.363 182.094L194.983 200.579L194.975 200.596C208.64 208.283 219.101 215.167 218.787 216.263H218.792ZM138.25 253.069L212.995 221.532C217.259 220.235 219.508 220 220.225 219.963C220.423 220.148 220.637 220.313 220.864 220.461C210.676 237.047 197.006 248.723 180.226 255.166C167.513 260.052 152.826 261.774 138.893 260.023C131.444 258.552 131.23 257.547 131.23 257.44C131.23 257.292 131.568 256.373 138.246 253.073L138.25 253.069ZM209.291 207.41L161.729 180.458C156.303 176.792 155.038 174.987 154.931 174.122C154.902 173.891 154.956 173.706 155.096 173.549C156.266 172.248 160.81 169.096 167.88 164.675L202.918 143.611C205.88 142.078 211.401 139.429 215.24 138.791C215.994 139.306 216.876 139.578 217.799 139.578C218.215 139.578 218.627 139.52 219.026 139.409C221.16 141.094 223.455 145.288 225.012 148.526C229.602 159.443 236.029 181.476 227.468 206.396C226.149 209.099 224.596 211.105 223.735 212.11C222.742 212.02 221.754 212.259 220.917 212.782C218.656 211.929 214.742 210.12 209.291 207.41ZM143.243 178.58L125.17 190.465C122.743 191.816 120.861 192.657 119.567 192.97C118.727 192.2 117.643 191.788 116.518 191.788C116.35 191.788 116.181 191.796 116.012 191.816C114.854 190.7 109.638 182.852 104.427 174.377L91.2643 150.446C86.8026 141.831 86.263 139.895 86.3618 139.528C87.1322 139.121 88.9078 140.093 90.9595 141.222C91.5404 141.539 92.1542 141.877 92.7763 142.202L140.784 169.792C145.126 172.923 145.773 174.349 145.773 174.921C145.773 175.494 145.328 176.643 143.243 178.584V178.58ZM113.272 199.516C113.701 199.949 114.195 200.287 114.751 200.517C115.67 201.943 116.827 206.017 118.022 212.011L122.521 240.755C123.225 246.972 123.427 251.351 123.11 253.444C122.612 253.806 122.183 254.272 121.866 254.799C120.408 254.647 117.4 253.514 113.363 251.598C100.332 244.57 82.9754 231.378 74.2786 208.464C67.6087 190.889 68.8199 174.616 71.0116 164.062C72.2022 158.335 73.949 152.815 76.2025 147.673C79.1646 142.181 80.9938 140.674 82.0072 140.381C82.1556 140.34 82.2956 140.315 82.4275 140.315C82.6334 140.315 82.823 140.365 83.0042 140.468C83.8447 140.937 86.4772 144.732 90.222 150.87L104.991 177.723C109.457 186.473 112.077 192.105 112.58 194.033C111.542 195.804 111.814 198.045 113.264 199.516H113.272ZM118.739 209.412C118.451 205.094 118.492 201.922 118.863 200.212C119.163 200.031 119.444 199.809 119.699 199.562C120.618 198.655 121.108 197.407 121.05 196.117C122.418 194.733 125.718 191.903 129.137 189.184L143.083 180.009C146.103 178.39 147.091 178.555 147.408 178.794C147.495 178.864 147.853 179.498 146.65 184.978L129.269 243.857C126.768 251.343 125.957 252.435 125.751 252.579C125.706 252.538 125.582 252.389 125.397 251.915L118.743 209.412H118.739Z" fill="url(#paint58_linear_17373_436747)" fill-opacity="0.7"/>
<path d="M232.325 172.458C231.031 160.292 227.295 150.503 224.399 144.464C223.229 141.094 222.273 138.202 221.89 137.024C222.186 136.41 222.343 135.726 222.343 135.042C222.343 132.537 220.304 130.502 217.803 130.502C215.302 130.502 213.263 132.541 213.263 135.042C213.263 135.112 213.263 135.186 213.267 135.256C212.225 136.22 210.573 137.501 208.356 139.059L164.094 165.668C158.004 168.705 154.144 170.064 152.517 170.336C151.845 169.965 151.087 169.767 150.317 169.767C149.287 169.767 148.286 170.118 147.483 170.76C144.9 170.105 140.875 168.293 137.945 166.884L94.8238 142.107C90.6876 139.162 87.7873 136.195 87.3506 135.26C87.1487 132.933 85.1753 131.116 82.8271 131.116C80.3223 131.116 78.2871 133.155 78.2871 135.66C78.2871 136.587 78.5631 137.477 79.0863 138.235C78.9751 138.939 78.7815 139.743 78.5137 140.637C74.7235 147.228 71.6749 155.472 69.9363 163.847C67.7158 174.546 66.484 191.042 73.2527 208.868C78.0481 221.499 85.9375 232.52 96.7024 241.62C105.799 249.308 115.044 254.008 121.26 256.612C121.24 256.785 121.231 256.962 121.231 257.139C121.231 259.644 123.271 261.679 125.771 261.679C127.382 261.679 128.865 260.831 129.681 259.451C135.939 261.012 142.77 261.795 149.678 261.795C156.212 261.795 162.82 261.094 169.074 259.694C186.67 255.751 201.563 246.7 213.329 232.804C219.158 226.913 221.931 223.856 223.422 222.208L223.459 222.167C223.9 221.681 224.23 221.318 224.502 221.034C226.483 220.502 227.859 218.706 227.859 216.646C227.859 215.67 227.554 214.743 226.982 213.96C227.093 212.675 227.427 210.767 227.966 208.295C232.164 196.842 233.627 184.784 232.317 172.466L232.325 172.458ZM218.792 216.263C218.684 216.634 217.481 217.952 208.62 222.179L137.175 252.323C131.008 254.354 129.417 253.984 129.014 253.584C128.746 253.316 128.408 252.245 129.162 248.117L146.902 188.022C149.757 180.038 151.442 178.654 152.187 178.538C152.282 178.522 152.397 178.514 152.525 178.514C153.703 178.514 156.369 179.206 162.363 182.094L194.983 200.579L194.975 200.596C208.64 208.283 219.101 215.167 218.787 216.263H218.792ZM138.25 253.069L212.995 221.532C217.259 220.235 219.508 220 220.225 219.963C220.423 220.148 220.637 220.313 220.864 220.461C210.676 237.047 197.006 248.723 180.226 255.166C167.513 260.052 152.826 261.774 138.893 260.023C131.444 258.552 131.23 257.547 131.23 257.44C131.23 257.292 131.568 256.373 138.246 253.073L138.25 253.069ZM209.291 207.41L161.729 180.458C156.303 176.792 155.038 174.987 154.931 174.122C154.902 173.891 154.956 173.706 155.096 173.549C156.266 172.248 160.81 169.096 167.88 164.675L202.918 143.611C205.88 142.078 211.401 139.429 215.24 138.791C215.994 139.306 216.876 139.578 217.799 139.578C218.215 139.578 218.627 139.52 219.026 139.409C221.16 141.094 223.455 145.288 225.012 148.526C229.602 159.443 236.029 181.476 227.468 206.396C226.149 209.099 224.596 211.105 223.735 212.11C222.742 212.02 221.754 212.259 220.917 212.782C218.656 211.929 214.742 210.12 209.291 207.41ZM143.243 178.58L125.17 190.465C122.743 191.816 120.861 192.657 119.567 192.97C118.727 192.2 117.643 191.788 116.518 191.788C116.35 191.788 116.181 191.796 116.012 191.816C114.854 190.7 109.638 182.852 104.427 174.377L91.2643 150.446C86.8026 141.831 86.263 139.895 86.3618 139.528C87.1322 139.121 88.9078 140.093 90.9595 141.222C91.5404 141.539 92.1542 141.877 92.7763 142.202L140.784 169.792C145.126 172.923 145.773 174.349 145.773 174.921C145.773 175.494 145.328 176.643 143.243 178.584V178.58ZM113.272 199.516C113.701 199.949 114.195 200.287 114.751 200.517C115.67 201.943 116.827 206.017 118.022 212.011L122.521 240.755C123.225 246.972 123.427 251.351 123.11 253.444C122.612 253.806 122.183 254.272 121.866 254.799C120.408 254.647 117.4 253.514 113.363 251.598C100.332 244.57 82.9754 231.378 74.2786 208.464C67.6087 190.889 68.8199 174.616 71.0116 164.062C72.2022 158.335 73.949 152.815 76.2025 147.673C79.1646 142.181 80.9938 140.674 82.0072 140.381C82.1556 140.34 82.2956 140.315 82.4275 140.315C82.6334 140.315 82.823 140.365 83.0042 140.468C83.8447 140.937 86.4772 144.732 90.222 150.87L104.991 177.723C109.457 186.473 112.077 192.105 112.58 194.033C111.542 195.804 111.814 198.045 113.264 199.516H113.272ZM118.739 209.412C118.451 205.094 118.492 201.922 118.863 200.212C119.163 200.031 119.444 199.809 119.699 199.562C120.618 198.655 121.108 197.407 121.05 196.117C122.418 194.733 125.718 191.903 129.137 189.184L143.083 180.009C146.103 178.39 147.091 178.555 147.408 178.794C147.495 178.864 147.853 179.498 146.65 184.978L129.269 243.857C126.768 251.343 125.957 252.435 125.751 252.579C125.706 252.538 125.582 252.389 125.397 251.915L118.743 209.412H118.739Z" fill="url(#paint59_linear_17373_436747)"/>
</g>
<defs>
<filter id="filter0_f_17373_436747" x="48.3496" y="-5.35938" width="232.604" height="301.154" filterUnits="userSpaceOnUse" color-interpolation-filters="sRGB">
<feFlood flood-opacity="0" result="BackgroundImageFix"/>
<feBlend mode="normal" in="SourceGraphic" in2="BackgroundImageFix" result="shape"/>
<feGaussianBlur stdDeviation="17" result="effect1_foregroundBlur_17373_436747"/>
</filter>
<radialGradient id="paint0_radial_17373_436747" cx="0" cy="0" r="1" gradientUnits="userSpaceOnUse" gradientTransform="translate(256.382 209.605) rotate(-133.877) scale(89.1583 126.339)">
<stop stop-color="#8AFBED" stop-opacity="0.7"/>
<stop offset="0.671495" stop-color="#00A3FF" stop-opacity="0.45726"/>
<stop offset="1" stop-color="#0066FF"/>
</radialGradient>
<linearGradient id="paint1_linear_17373_436747" x1="151.802" y1="54.0075" x2="261.88" y2="74.2647" gradientUnits="userSpaceOnUse">
<stop stop-color="#2A26FF"/>
<stop offset="1" stop-color="#00A3FF" stop-opacity="0"/>
</linearGradient>
<radialGradient id="paint2_radial_17373_436747" cx="0" cy="0" r="1" gradientUnits="userSpaceOnUse" gradientTransform="translate(241.026 121.786) rotate(90.1471) scale(59.9919 59.798)">
<stop stop-color="#2A6BFF"/>
<stop offset="1" stop-color="#2A6BFF" stop-opacity="0"/>
</radialGradient>
<radialGradient id="paint3_radial_17373_436747" cx="0" cy="0" r="1" gradientUnits="userSpaceOnUse" gradientTransform="translate(225.297 252.499) rotate(-157.781) scale(79.1412 78.9948)">
<stop stop-color="#8AFBED" stop-opacity="0.6"/>
<stop offset="0.582168" stop-color="#00A3FF" stop-opacity="0.45726"/>
<stop offset="1" stop-color="#198CF6" stop-opacity="0.19"/>
</radialGradient>
<linearGradient id="paint4_linear_17373_436747" x1="124.784" y1="172.428" x2="242.025" y2="219.735" gradientUnits="userSpaceOnUse">
<stop stop-color="#35C2FF"/>
<stop offset="1" stop-color="#00A3FF" stop-opacity="0"/>
</linearGradient>
<radialGradient id="paint5_radial_17373_436747" cx="0" cy="0" r="1" gradientUnits="userSpaceOnUse" gradientTransform="translate(231.666 209.458) rotate(90.3226) scale(32.7759 71.6315)">
<stop stop-color="#2A6BFF"/>
<stop offset="1" stop-color="#2A6BFF" stop-opacity="0"/>
</radialGradient>
<radialGradient id="paint6_radial_17373_436747" cx="0" cy="0" r="1" gradientUnits="userSpaceOnUse" gradientTransform="translate(132.431 234.48) rotate(-119.642) scale(145.464 170.367)">
<stop stop-color="#8AFBED" stop-opacity="0"/>
<stop offset="0.671495" stop-color="#00A3FF" stop-opacity="0.45726"/>
<stop offset="1" stop-color="#198CF6"/>
</radialGradient>
<linearGradient id="paint7_linear_17373_436747" x1="74.0369" y1="16.8265" x2="152.654" y2="23.6063" gradientUnits="userSpaceOnUse">
<stop stop-color="#35C2FF"/>
<stop offset="1" stop-color="#00A3FF" stop-opacity="0"/>
</linearGradient>
<radialGradient id="paint8_radial_17373_436747" cx="0" cy="0" r="1" gradientUnits="userSpaceOnUse" gradientTransform="translate(136.131 117.483) rotate(90.0689) scale(89.0922 41.6159)">
<stop stop-color="#2A6BFF"/>
<stop offset="1" stop-color="#2A6BFF" stop-opacity="0"/>
</radialGradient>
<linearGradient id="paint9_linear_17373_436747" x1="66.8728" y1="132.565" x2="186.153" y2="79.9298" gradientUnits="userSpaceOnUse">
<stop stop-color="#1BBBFF"/>
<stop offset="1" stop-color="#00A3FF" stop-opacity="0"/>
</linearGradient>
<radialGradient id="paint10_radial_17373_436747" cx="0" cy="0" r="1" gradientUnits="userSpaceOnUse" gradientTransform="translate(122.902 131.329) rotate(47.132) scale(54.321 60.0248)">
<stop stop-color="#2A6BFF"/>
<stop offset="1" stop-color="#2A6BFF" stop-opacity="0"/>
</radialGradient>
<radialGradient id="paint11_radial_17373_436747" cx="0" cy="0" r="1" gradientUnits="userSpaceOnUse" gradientTransform="translate(175.428 244.623) rotate(-137.021) scale(61.9422 66.939)">
<stop stop-color="#8AFBED" stop-opacity="0"/>
<stop offset="0.449372" stop-color="#00A3FF" stop-opacity="0.15"/>
<stop offset="1" stop-color="#198CF6"/>
</radialGradient>
<linearGradient id="paint12_linear_17373_436747" x1="130.111" y1="187.358" x2="161.116" y2="242.227" gradientUnits="userSpaceOnUse">
<stop stop-color="#35C2FF"/>
<stop offset="1" stop-color="#00A3FF" stop-opacity="0"/>
</linearGradient>
<radialGradient id="paint13_radial_17373_436747" cx="0" cy="0" r="1" gradientUnits="userSpaceOnUse" gradientTransform="translate(225.071 238.649) rotate(-142.264) scale(81.7866 115.006)">
<stop stop-color="#8AFBED" stop-opacity="0.3"/>
<stop offset="0.590599" stop-color="#00A3FF" stop-opacity="0.6573"/>
<stop offset="1" stop-color="#0066FF"/>
</radialGradient>
<radialGradient id="paint14_radial_17373_436747" cx="0" cy="0" r="1" gradientUnits="userSpaceOnUse" gradientTransform="translate(122.489 121.648) rotate(61.1443) scale(103.719 250.027)">
<stop stop-color="#2A6BFF"/>
<stop offset="1" stop-color="#2A6BFF" stop-opacity="0"/>
</radialGradient>
<radialGradient id="paint15_radial_17373_436747" cx="0" cy="0" r="1" gradientUnits="userSpaceOnUse" gradientTransform="translate(106.629 102.49) rotate(2.33052) scale(35.4593 90.6493)">
<stop stop-color="#0085FF"/>
<stop offset="1" stop-color="#0085FF" stop-opacity="0"/>
</radialGradient>
<radialGradient id="paint16_radial_17373_436747" cx="0" cy="0" r="1" gradientUnits="userSpaceOnUse" gradientTransform="translate(185.151 59.0486) rotate(100.806) scale(76.2207 57.4357)">
<stop stop-color="#FFBFAB"/>
<stop offset="0.364808" stop-color="#FF67A8" stop-opacity="0.87"/>
<stop offset="0.723967" stop-color="#6BAFFF" stop-opacity="0"/>
</radialGradient>
<radialGradient id="paint17_radial_17373_436747" cx="0" cy="0" r="1" gradientUnits="userSpaceOnUse" gradientTransform="translate(180.604 95.7333) rotate(-147.305) scale(32.6757 45.8385)">
<stop stop-color="#2238FF"/>
<stop offset="1" stop-color="#0047FF" stop-opacity="0"/>
</radialGradient>
<linearGradient id="paint18_linear_17373_436747" x1="139.897" y1="97.3484" x2="159.806" y2="72.624" gradientUnits="userSpaceOnUse">
<stop stop-color="#7572FF"/>
<stop offset="0.504042" stop-color="#5FC1FE" stop-opacity="0.495958"/>
<stop offset="1" stop-color="#29EDFE" stop-opacity="0"/>
</linearGradient>
<radialGradient id="paint19_radial_17373_436747" cx="0" cy="0" r="1" gradientUnits="userSpaceOnUse" gradientTransform="translate(194.38 39.8703) rotate(-170.92) scale(91.3678 83.5021)">
<stop stop-color="#FFBFAB"/>
<stop offset="0.280518" stop-color="#FF67A8" stop-opacity="0.87"/>
<stop offset="0.723967" stop-color="#6BAFFF" stop-opacity="0"/>
</radialGradient>
<radialGradient id="paint20_radial_17373_436747" cx="0" cy="0" r="1" gradientUnits="userSpaceOnUse" gradientTransform="translate(106.629 100.019) rotate(39.6556) scale(90.7008 92.9129)">
<stop stop-color="#3448FB"/>
<stop offset="1" stop-color="#0085FF" stop-opacity="0"/>
</radialGradient>
<linearGradient id="paint21_linear_17373_436747" x1="154.83" y1="166.76" x2="128.052" y2="128.24" gradientUnits="userSpaceOnUse">
<stop stop-color="#5FC5FF"/>
<stop offset="1" stop-color="#00A2FF" stop-opacity="0"/>
</linearGradient>
<radialGradient id="paint22_radial_17373_436747" cx="0" cy="0" r="1" gradientUnits="userSpaceOnUse" gradientTransform="translate(196.07 60.3472) rotate(97.4887) scale(136.23 72.0282)">
<stop stop-color="#FFBFAB"/>
<stop offset="0.364808" stop-color="#FF67A8" stop-opacity="0.87"/>
<stop offset="0.723967" stop-color="#6BAFFF" stop-opacity="0"/>
</radialGradient>
<radialGradient id="paint23_radial_17373_436747" cx="0" cy="0" r="1" gradientUnits="userSpaceOnUse" gradientTransform="translate(190.42 126.528) rotate(-137.016) scale(46.7028 71.8841)">
<stop stop-color="#2238FF"/>
<stop offset="1" stop-color="#0047FF" stop-opacity="0"/>
</radialGradient>
<linearGradient id="paint24_linear_17373_436747" x1="139.845" y1="129.442" x2="169.517" y2="111.98" gradientUnits="userSpaceOnUse">
<stop stop-color="#29EDFE"/>
<stop offset="1" stop-color="#29EDFE" stop-opacity="0"/>
</linearGradient>
<radialGradient id="paint25_radial_17373_436747" cx="0" cy="0" r="1" gradientUnits="userSpaceOnUse" gradientTransform="translate(188.612 36.1626) rotate(81.5451) scale(161.002 70.9688)">
<stop stop-color="#FFBFAB"/>
<stop offset="0.364808" stop-color="#FF67A8" stop-opacity="0.87"/>
<stop offset="0.723967" stop-color="#6BAFFF" stop-opacity="0"/>
</radialGradient>
<radialGradient id="paint26_radial_17373_436747" cx="0" cy="0" r="1" gradientUnits="userSpaceOnUse" gradientTransform="translate(210.859 128.651) rotate(-124.256) scale(57.8192 88.61)">
<stop stop-color="#2238FF"/>
<stop offset="1" stop-color="#0047FF" stop-opacity="0"/>
</radialGradient>
<radialGradient id="paint27_radial_17373_436747" cx="0" cy="0" r="1" gradientUnits="userSpaceOnUse" gradientTransform="translate(180.678 50.9168) rotate(117.51) scale(112.379 105.197)">
<stop offset="0.237514" stop-color="#E13793"/>
<stop offset="0.510163" stop-color="#4E38DA"/>
<stop offset="1" stop-color="#0E34FF"/>
</radialGradient>
<linearGradient id="paint28_linear_17373_436747" x1="187.901" y1="138.214" x2="164.615" y2="261.788" gradientUnits="userSpaceOnUse">
<stop stop-color="#000AFF"/>
<stop offset="0.946758" stop-color="#057EFF"/>
<stop offset="1" stop-color="#0085FF"/>
</linearGradient>
<linearGradient id="paint29_linear_17373_436747" x1="37.352" y1="119.348" x2="169.04" y2="208.708" gradientUnits="userSpaceOnUse">
<stop stop-color="#5CA5FF"/>
<stop offset="1" stop-color="#3D94FF" stop-opacity="0"/>
</linearGradient>
<radialGradient id="paint30_radial_17373_436747" cx="0" cy="0" r="1" gradientUnits="userSpaceOnUse" gradientTransform="translate(242.209 209.605) rotate(-133.877) scale(89.1583 126.339)">
<stop stop-color="#8AFBED" stop-opacity="0.7"/>
<stop offset="0.671495" stop-color="#00A3FF" stop-opacity="0.45726"/>
<stop offset="1" stop-color="#0066FF"/>
</radialGradient>
<linearGradient id="paint31_linear_17373_436747" x1="137.629" y1="54.0075" x2="247.708" y2="74.2647" gradientUnits="userSpaceOnUse">
<stop stop-color="#2A26FF"/>
<stop offset="1" stop-color="#00A3FF" stop-opacity="0"/>
</linearGradient>
<radialGradient id="paint32_radial_17373_436747" cx="0" cy="0" r="1" gradientUnits="userSpaceOnUse" gradientTransform="translate(226.853 121.786) rotate(90.1471) scale(59.9919 59.798)">
<stop stop-color="#2A6BFF"/>
<stop offset="1" stop-color="#2A6BFF" stop-opacity="0"/>
</radialGradient>
<radialGradient id="paint33_radial_17373_436747" cx="0" cy="0" r="1" gradientUnits="userSpaceOnUse" gradientTransform="translate(211.125 252.499) rotate(-157.781) scale(79.1412 78.9948)">
<stop stop-color="#8AFBED" stop-opacity="0.6"/>
<stop offset="0.582168" stop-color="#00A3FF" stop-opacity="0.45726"/>
<stop offset="1" stop-color="#198CF6" stop-opacity="0.19"/>
</radialGradient>
<linearGradient id="paint34_linear_17373_436747" x1="110.612" y1="172.428" x2="227.852" y2="219.735" gradientUnits="userSpaceOnUse">
<stop stop-color="#35C2FF"/>
<stop offset="1" stop-color="#00A3FF" stop-opacity="0"/>
</linearGradient>
<radialGradient id="paint35_radial_17373_436747" cx="0" cy="0" r="1" gradientUnits="userSpaceOnUse" gradientTransform="translate(217.493 209.458) rotate(90.3226) scale(32.7759 71.6315)">
<stop stop-color="#2A6BFF"/>
<stop offset="1" stop-color="#2A6BFF" stop-opacity="0"/>
</radialGradient>
<radialGradient id="paint36_radial_17373_436747" cx="0" cy="0" r="1" gradientUnits="userSpaceOnUse" gradientTransform="translate(118.258 234.48) rotate(-119.642) scale(145.464 170.367)">
<stop stop-color="#8AFBED" stop-opacity="0"/>
<stop offset="0.671495" stop-color="#00A3FF" stop-opacity="0.45726"/>
<stop offset="1" stop-color="#198CF6"/>
</radialGradient>
<linearGradient id="paint37_linear_17373_436747" x1="59.864" y1="16.8265" x2="138.481" y2="23.6063" gradientUnits="userSpaceOnUse">
<stop stop-color="#35C2FF"/>
<stop offset="1" stop-color="#00A3FF" stop-opacity="0.3"/>
</linearGradient>
<radialGradient id="paint38_radial_17373_436747" cx="0" cy="0" r="1" gradientUnits="userSpaceOnUse" gradientTransform="translate(121.958 117.483) rotate(90.0689) scale(89.0922 41.6159)">
<stop stop-color="#2A6BFF"/>
<stop offset="1" stop-color="#2A6BFF" stop-opacity="0"/>
</radialGradient>
<linearGradient id="paint39_linear_17373_436747" x1="52.7" y1="132.565" x2="171.98" y2="79.9298" gradientUnits="userSpaceOnUse">
<stop stop-color="#1BBBFF"/>
<stop offset="1" stop-color="#00A3FF" stop-opacity="0"/>
</linearGradient>
<radialGradient id="paint40_radial_17373_436747" cx="0" cy="0" r="1" gradientUnits="userSpaceOnUse" gradientTransform="translate(108.729 131.329) rotate(47.132) scale(54.321 60.0248)">
<stop stop-color="#2A6BFF"/>
<stop offset="1" stop-color="#2A6BFF" stop-opacity="0"/>
</radialGradient>
<radialGradient id="paint41_radial_17373_436747" cx="0" cy="0" r="1" gradientUnits="userSpaceOnUse" gradientTransform="translate(161.255 244.623) rotate(-137.021) scale(61.9422 66.939)">
<stop stop-color="#8AFBED" stop-opacity="0"/>
<stop offset="0.449372" stop-color="#00A3FF" stop-opacity="0.15"/>
<stop offset="1" stop-color="#198CF6"/>
</radialGradient>
<linearGradient id="paint42_linear_17373_436747" x1="115.938" y1="187.358" x2="146.943" y2="242.227" gradientUnits="userSpaceOnUse">
<stop stop-color="#35C2FF"/>
<stop offset="1" stop-color="#00A3FF" stop-opacity="0"/>
</linearGradient>
<radialGradient id="paint43_radial_17373_436747" cx="0" cy="0" r="1" gradientUnits="userSpaceOnUse" gradientTransform="translate(210.898 238.649) rotate(-142.264) scale(81.7866 115.006)">
<stop stop-color="#8AFBED" stop-opacity="0.3"/>
<stop offset="0.590599" stop-color="#00A3FF" stop-opacity="0.6573"/>
<stop offset="1" stop-color="#0066FF"/>
</radialGradient>
<radialGradient id="paint44_radial_17373_436747" cx="0" cy="0" r="1" gradientUnits="userSpaceOnUse" gradientTransform="translate(108.316 121.648) rotate(61.1443) scale(103.719 250.027)">
<stop stop-color="#2A6BFF"/>
<stop offset="1" stop-color="#2A6BFF" stop-opacity="0"/>
</radialGradient>
<radialGradient id="paint45_radial_17373_436747" cx="0" cy="0" r="1" gradientUnits="userSpaceOnUse" gradientTransform="translate(92.4559 102.49) rotate(2.33052) scale(35.4593 90.6493)">
<stop stop-color="#0085FF"/>
<stop offset="1" stop-color="#0085FF" stop-opacity="0"/>
</radialGradient>
<radialGradient id="paint46_radial_17373_436747" cx="0" cy="0" r="1" gradientUnits="userSpaceOnUse" gradientTransform="translate(170.978 59.0486) rotate(100.806) scale(76.2207 57.4358)">
<stop stop-color="#FFBFAB"/>
<stop offset="0.364808" stop-color="#FF67A8" stop-opacity="0.87"/>
<stop offset="0.723967" stop-color="#6BAFFF" stop-opacity="0"/>
</radialGradient>
<radialGradient id="paint47_radial_17373_436747" cx="0" cy="0" r="1" gradientUnits="userSpaceOnUse" gradientTransform="translate(166.431 95.7333) rotate(-147.305) scale(32.6757 45.8385)">
<stop stop-color="#2238FF"/>
<stop offset="1" stop-color="#0047FF" stop-opacity="0"/>
</radialGradient>
<linearGradient id="paint48_linear_17373_436747" x1="125.724" y1="97.3484" x2="145.634" y2="72.624" gradientUnits="userSpaceOnUse">
<stop stop-color="#7572FF"/>
<stop offset="0.504042" stop-color="#5FC1FE" stop-opacity="0.495958"/>
<stop offset="1" stop-color="#29EDFE" stop-opacity="0"/>
</linearGradient>
<radialGradient id="paint49_radial_17373_436747" cx="0" cy="0" r="1" gradientUnits="userSpaceOnUse" gradientTransform="translate(180.207 39.8703) rotate(-170.92) scale(91.3678 83.5021)">
<stop stop-color="#FFBFAB"/>
<stop offset="0.280518" stop-color="#FF67A8" stop-opacity="0.87"/>
<stop offset="0.723967" stop-color="#6BAFFF" stop-opacity="0"/>
</radialGradient>
<radialGradient id="paint50_radial_17373_436747" cx="0" cy="0" r="1" gradientUnits="userSpaceOnUse" gradientTransform="translate(92.4561 100.019) rotate(39.6556) scale(90.7008 92.9129)">
<stop stop-color="#3448FB"/>
<stop offset="1" stop-color="#0085FF" stop-opacity="0"/>
</radialGradient>
<linearGradient id="paint51_linear_17373_436747" x1="140.657" y1="166.76" x2="113.879" y2="128.24" gradientUnits="userSpaceOnUse">
<stop stop-color="#5FC5FF"/>
<stop offset="1" stop-color="#00A2FF" stop-opacity="0"/>
</linearGradient>
<radialGradient id="paint52_radial_17373_436747" cx="0" cy="0" r="1" gradientUnits="userSpaceOnUse" gradientTransform="translate(181.897 60.3472) rotate(97.4887) scale(136.23 72.0282)">
<stop stop-color="#FFBFAB"/>
<stop offset="0.364808" stop-color="#FF67A8" stop-opacity="0.87"/>
<stop offset="0.723967" stop-color="#6BAFFF" stop-opacity="0"/>
</radialGradient>
<radialGradient id="paint53_radial_17373_436747" cx="0" cy="0" r="1" gradientUnits="userSpaceOnUse" gradientTransform="translate(176.248 126.528) rotate(-137.016) scale(46.7028 71.8841)">
<stop stop-color="#2238FF"/>
<stop offset="1" stop-color="#0047FF" stop-opacity="0"/>
</radialGradient>
<linearGradient id="paint54_linear_17373_436747" x1="125.673" y1="129.442" x2="155.344" y2="111.98" gradientUnits="userSpaceOnUse">
<stop stop-color="#29EDFE"/>
<stop offset="1" stop-color="#29EDFE" stop-opacity="0"/>
</linearGradient>
<radialGradient id="paint55_radial_17373_436747" cx="0" cy="0" r="1" gradientUnits="userSpaceOnUse" gradientTransform="translate(174.439 36.1626) rotate(81.5451) scale(161.002 70.9689)">
<stop stop-color="#FFBFAB"/>
<stop offset="0.364808" stop-color="#FF67A8" stop-opacity="0.87"/>
<stop offset="0.723967" stop-color="#6BAFFF" stop-opacity="0"/>
</radialGradient>
<radialGradient id="paint56_radial_17373_436747" cx="0" cy="0" r="1" gradientUnits="userSpaceOnUse" gradientTransform="translate(196.686 128.651) rotate(-124.256) scale(57.8192 88.61)">
<stop stop-color="#2238FF"/>
<stop offset="1" stop-color="#0047FF" stop-opacity="0"/>
</radialGradient>
<radialGradient id="paint57_radial_17373_436747" cx="0" cy="0" r="1" gradientUnits="userSpaceOnUse" gradientTransform="translate(166.505 50.9168) rotate(117.51) scale(112.379 105.197)">
<stop offset="0.237514" stop-color="#FF1175" stop-opacity="0.84"/>
<stop offset="0.510163" stop-color="#4E38DA"/>
<stop offset="1" stop-color="#0E34FF"/>
</radialGradient>
<linearGradient id="paint58_linear_17373_436747" x1="173.728" y1="138.214" x2="150.442" y2="261.788" gradientUnits="userSpaceOnUse">
<stop stop-color="#000AFF"/>
<stop offset="0.946758" stop-color="#057EFF"/>
<stop offset="1" stop-color="#0085FF"/>
</linearGradient>
<linearGradient id="paint59_linear_17373_436747" x1="23.1791" y1="119.348" x2="154.868" y2="208.708" gradientUnits="userSpaceOnUse">
<stop stop-color="#5CA5FF"/>
<stop offset="1" stop-color="#3D94FF" stop-opacity="0"/>
</linearGradient>
<clipPath id="clip0_17373_436747">
<rect width="300" height="300" rx="20" fill="white"/>
</clipPath>
</defs>
</svg>
