<svg xmlns="http://www.w3.org/2000/svg" width="110" height="110" fill="none" opt="1"><g filter="url(#a)"><ellipse cx="54.582" cy="55" fill="url(#b)" rx="54.582" ry="55"/><path stroke="#000" stroke-opacity=".1" d="M108.664 55c0 30.103-24.217 54.5-54.082 54.5S.5 85.103.5 55 24.717.5 54.582.5s54.082 24.397 54.082 54.5Z"/></g><path fill="url(#c)" fill-rule="evenodd" d="M54.152 31c-4.782 0-8.659 3.907-8.659 8.726v.823h3.268v-.823c0-3 2.414-5.433 5.391-5.433 2.978 0 5.392 2.432 5.392 5.433v7.408H44.513c-3.61 0-6.535 2.949-6.535 6.585v11.196c0 3.637 2.925 6.585 6.535 6.585h19.606c3.61 0 6.535-2.948 6.535-6.585V53.719c0-3.636-2.926-6.585-6.535-6.585h-1.307v-7.408c0-4.82-3.877-8.726-8.66-8.726m-1.797 22.72c0-1.092.878-1.976 1.96-1.976 1.084 0 1.961.884 1.961 1.975v3.952a1.97 1.97 0 0 1-1.96 1.975 1.97 1.97 0 0 1-1.96-1.975z" clip-rule="evenodd"/><defs><radialGradient id="b" cx="0" cy="0" r="1" gradientTransform="matrix(0 55 -54.5819 0 54.582 55)" gradientUnits="userSpaceOnUse"><stop stop-color="#39CE87"/><stop offset="1" stop-color="#39CE87" stop-opacity=".2"/></radialGradient><radialGradient id="c" cx="0" cy="0" r="1" gradientTransform="rotate(68.578 -5.175 58.365)scale(45.6279 36.8893)" gradientUnits="userSpaceOnUse"><stop stop-color="#fff"/><stop offset="1" stop-color="#fff" stop-opacity=".9"/></radialGradient><filter id="a" width="197.164" height="198" x="-44" y="-44" color-interpolation-filters="sRGB" filterUnits="userSpaceOnUse"><feFlood flood-opacity="0" result="BackgroundImageFix"/><feGaussianBlur in="BackgroundImageFix" stdDeviation="22"/><feComposite in2="SourceAlpha" operator="in" result="effect1_backgroundBlur_10840_559708"/><feBlend in="SourceGraphic" in2="effect1_backgroundBlur_10840_559708" result="shape"/></filter></defs></svg>