<svg xmlns="http://www.w3.org/2000/svg" width="39" height="38" fill="none" opt="1"><g clip-path="url(#a)"><path fill="#2FE4AB" d="M23.875 25.65c-1.594 0-3.22-.604-4.853-1.807-1.225-.9-2.218-1.712-3.094-2.428l-.082-.067-.465.439c-1.388 1.305-2.515 2.114-3.845 2.114-1.932 0-3.626-1.579-3.626-3.38 0-1.907 1.822-3.39 3.39-3.39 1.64 0 2.896.76 4.46 1.984 2.19-2.055 4.369-4.046 6.018-5.142 2.117-1.407 5.372-1.755 7.496.301 2.409 2.333 1.521 6.824-.122 8.77-.613.727-1.935 2.012-3.898 2.451a6.3 6.3 0 0 1-1.38.155m-6.79-5.465a71 71 0 0 0 2.936 2.301c1.475 1.085 2.773 1.475 3.877 1.475 1.979 0 3.333-1.253 3.966-2.003 1.776-2.103 1.368-5.376.237-6.471-1.658-1.606-4.131-.945-5.39-.11-1.5.998-3.545 2.859-5.626 4.808M11.3 18.818c-.751 0-1.704.803-1.704 1.704 0 .87.943 1.694 1.939 1.694.67 0 1.423-.464 2.69-1.656l.292-.275c-1.215-.933-2.148-1.467-3.217-1.467"/><path fill="url(#b)" d="M14.225 20.56c-1.267 1.191-2.021 1.656-2.69 1.656q-.248-.001-.487-.065v1.717q.242.033.487.033c1.33 0 2.458-.809 3.845-2.114l.466-.438-1.33-1.065z" opacity=".92"/><path fill="url(#c)" d="m15.76 19.116 1.325 1.07a122 122 0 0 1 2.76-2.525l-1.193-1.195c-.931.82-1.91 1.729-2.892 2.65" opacity=".92"/><g filter="url(#d)" opacity=".7"><path fill="#2FE4AB" d="M24.432 24.374c-1.789 0-3.615-.678-5.448-2.028-1.376-1.012-2.49-1.922-3.474-2.726l-.092-.075-.522.492c-1.559 1.465-2.824 2.373-4.318 2.373-2.168.001-4.07-1.772-4.07-3.794 0-2.141 2.046-3.806 3.806-3.806 1.84 0 3.252.853 5.007 2.228 2.46-2.308 4.905-4.543 6.757-5.774 2.377-1.58 6.032-1.97 8.416.338 2.705 2.62 1.708 7.661-.136 9.847-.689.816-2.173 2.258-4.377 2.752a7 7 0 0 1-1.549.173m-7.623-6.136a79 79 0 0 0 3.296 2.584c1.656 1.218 3.114 1.656 4.353 1.656 2.222 0 3.743-1.407 4.454-2.25 1.993-2.36 1.535-6.034.265-7.264-1.861-1.803-4.638-1.062-6.05-.123-1.685 1.12-3.982 3.21-6.318 5.397m-6.495-1.534c-.843 0-1.913.902-1.913 1.913 0 .977 1.058 1.902 2.177 1.902.75 0 1.597-.521 3.02-1.86l.327-.308c-1.364-1.047-2.411-1.647-3.611-1.647"/><path fill="url(#e)" d="M13.597 18.66c-1.422 1.337-2.269 1.859-3.02 1.859a2.1 2.1 0 0 1-.547-.073v1.927q.272.038.547.038c1.494 0 2.76-.908 4.318-2.373l.523-.492-1.493-1.196z" opacity=".92"/><path fill="url(#f)" d="m15.321 17.039 1.489 1.2c1.058-.992 2.11-1.964 3.099-2.834l-1.34-1.342c-1.046.922-2.145 1.94-3.248 2.975" opacity=".92"/></g></g><defs><linearGradient id="b" x1="14.753" x2="12.085" y1="20.444" y2="23.112" gradientUnits="userSpaceOnUse"><stop stop-color="#0F7C76"/><stop offset="1" stop-color="#2FE4AB"/></linearGradient><linearGradient id="c" x1="16.494" x2="19.126" y1="19.697" y2="17.065" gradientUnits="userSpaceOnUse"><stop stop-color="#0F7C76"/><stop offset="1" stop-color="#2FE4AB"/></linearGradient><linearGradient id="e" x1="14.191" x2="11.195" y1="18.53" y2="21.525" gradientUnits="userSpaceOnUse"><stop stop-color="#0F7C76"/><stop offset="1" stop-color="#2FE4AB"/></linearGradient><linearGradient id="f" x1="16.146" x2="19.101" y1="17.691" y2="14.735" gradientUnits="userSpaceOnUse"><stop stop-color="#0F7C76"/><stop offset="1" stop-color="#2FE4AB"/></linearGradient><clipPath id="a"><path fill="#fff" d="M.333 0h38v38h-38z"/></clipPath><filter id="d" width="53.65" height="42.399" x="-7.492" y="-4.025" color-interpolation-filters="sRGB" filterUnits="userSpaceOnUse"><feFlood flood-opacity="0" result="BackgroundImageFix"/><feBlend in="SourceGraphic" in2="BackgroundImageFix" result="shape"/><feGaussianBlur result="effect1_foregroundBlur_14086_31621" stdDeviation="7"/></filter></defs></svg>