<svg xmlns="http://www.w3.org/2000/svg" width="198" height="42" fill="none" opt="1"><g clip-path="url(#a)"><g clip-path="url(#b)"><path fill="url(#c)" d="M81.693 15.277 71.53 21.07v11.694l10.337-5.882z"/><path fill="#000" d="M71.529 33.289a1.9 1.9 0 0 1-.944-.252l-9.084-5.222a1.88 1.88 0 0 1-.943-1.627V15.743c0-.668.362-1.293.943-1.627l9.084-5.218a1.9 1.9 0 0 1 1.887 0l9.085 5.222c.581.334.943.957.943 1.627v10.445c0 .668-.362 1.293-.943 1.627l-9.085 5.223a1.9 1.9 0 0 1-.943.251zm0-23.387a.64.64 0 0 0-.312.083l-9.084 5.222a.62.62 0 0 0-.311.536v10.445c0 .22.12.425.311.536l9.084 5.222c.192.11.432.11.623 0l9.085-5.222a.62.62 0 0 0 .312-.536V15.743a.62.62 0 0 0-.312-.536L71.84 9.985a.63.63 0 0 0-.311-.083"/><path fill="#212121" d="M71.527 27.884a1.3 1.3 0 0 1-.653-.174l-4.886-2.807a1.3 1.3 0 0 1-.653-1.126V18.16c0-.465.25-.894.653-1.126l4.886-2.808a1.31 1.31 0 0 1 1.307 0l4.885 2.808c.404.232.654.664.654 1.126v5.617c0 .462-.25.894-.654 1.126l-4.885 2.808c-.2.115-.427.173-.654.173m0-12.575s-.015 0-.022.006l-4.885 2.808a.05.05 0 0 0-.022.037v5.617q.002.023.022.037l4.885 2.807q.023.012.042 0l4.885-2.807a.04.04 0 0 0 .022-.037V18.16a.05.05 0 0 0-.022-.037l-4.885-2.808s-.013-.006-.022-.006z"/><path fill="#212121" d="M70.468 20.528v.875c0 .106.057.204.148.256l.76.438a.3.3 0 0 0 .297 0l.76-.438a.3.3 0 0 0 .149-.256v-.875a.3.3 0 0 0-.149-.256l-.76-.438a.3.3 0 0 0-.296 0l-.76.438a.3.3 0 0 0-.15.256"/><path fill="#212121" d="m81.383 14.634-10.2 5.791.626 1.093 10.2-5.79zM11.485 9.873c-6.17 0-11.191 5-11.191 11.144s5.02 11.145 11.191 11.145S22.68 27.163 22.68 21.017c0-6.147-5.02-11.144-11.194-11.144m0 21.024c-5.469 0-9.92-4.432-9.92-9.88s4.451-9.879 9.92-9.879 9.923 4.43 9.923 9.879-4.451 9.88-9.923 9.88M123.965 10.15h-1.301v21.736h1.301zM147.206 9.873c-6.171 0-11.193 5-11.193 11.144s5.022 11.145 11.193 11.145S158.4 27.163 158.4 21.017c0-6.147-5.021-11.144-11.194-11.144m0 21.024c-5.471 0-9.921-4.432-9.921-9.88s4.45-9.879 9.921-9.879c5.472 0 9.923 4.433 9.923 9.879s-4.451 9.88-9.923 9.88M41.746 21.021l9.555 10.866h-1.708l-8.701-9.891-8.7 9.891H30.48l9.557-10.868-9.56-10.867h1.709l8.705 9.9 8.703-9.9h1.708zM104.642 21.588a5.756 5.756 0 0 0 4.685-3.801l.072-.217q.036-.119.067-.24c.04-.157.075-.322.1-.48q.014-.063.02-.116.02-.14.033-.286a5.84 5.84 0 0 0 .022-.848 5.65 5.65 0 0 0-1.345-3.396 5.76 5.76 0 0 0-4.419-2.052H93.161v11.193h.218v.078h-.218v10.464h1.303V21.64h8.683l5.596 10.247h1.486zM94.464 11.416h9.383c1.266 0 2.48.534 3.336 1.476a3.8 3.8 0 0 1 1 1.714c.035.143.092.397.102.47.029.211.061.489.061.782q.001.107-.006.219-.004.083-.011.182-.002.073-.013.145l-.004.046c-.018.154-.04.297-.07.438-.009.041-.017.08-.031.126l-.026.102a1 1 0 0 1-.035.122q-.026.09-.059.184a3.46 3.46 0 0 1-.168.401q-.05.103-.1.196a2 2 0 0 1-.067.11 2 2 0 0 1-.126.198c-.042.06-.083.119-.136.184a4.478 4.478 0 0 1-3.647 1.864h-9.383z"/></g></g><defs><clipPath id="a"><path fill="#fff" d="M.294 0H197.94v42H.294z"/></clipPath><clipPath id="b"><path fill="#fff" d="M.294 8.647h158.118v24.706H.294z"/></clipPath><linearGradient id="c" x1="76.699" x2="76.699" y1="30.885" y2="14.439" gradientUnits="userSpaceOnUse"><stop stop-opacity="0"/><stop offset="1"/></linearGradient></defs></svg>