<svg width="46" height="46" viewBox="0 0 46 46" fill="none" xmlns="http://www.w3.org/2000/svg">
<g clip-path="url(#clip0_16517_147522)">
<path d="M14.3708 33.4989L12.936 32.0806L32.2046 13.0749L33.6393 14.4791L14.3708 33.4989ZM29.3351 33.9244C28.3882 33.9244 27.5226 33.6975 26.7382 33.2436C25.9635 32.7803 25.3418 32.1657 24.8731 31.3998C24.4044 30.6244 24.1701 29.764 24.1701 28.8184C24.1701 27.8918 24.4092 27.0408 24.8874 26.2654C25.3657 25.4901 25.997 24.8707 26.7813 24.4074C27.5656 23.9441 28.4169 23.7124 29.3351 23.7124C30.2821 23.7124 31.1477 23.9441 31.932 24.4074C32.7163 24.8613 33.3381 25.4759 33.7972 26.2512C34.2659 27.0171 34.5002 27.8729 34.5002 28.8184C34.5002 29.764 34.2659 30.6244 33.7972 31.3998C33.3381 32.1657 32.7163 32.7803 31.932 33.2436C31.1477 33.6975 30.2821 33.9244 29.3351 33.9244ZM29.3351 32.038C29.9186 32.038 30.459 31.8915 30.9564 31.5983C31.4538 31.3052 31.8507 30.9175 32.1472 30.4353C32.4437 29.9436 32.592 29.4047 32.592 28.8184C32.592 28.2322 32.4437 27.6979 32.1472 27.2157C31.8507 26.724 31.4538 26.3316 30.9564 26.0385C30.459 25.7454 29.9186 25.5988 29.3351 25.5988C28.7421 25.5988 28.1969 25.7454 27.6995 26.0385C27.2117 26.3316 26.8148 26.724 26.5087 27.2157C26.2122 27.6979 26.0639 28.2322 26.0639 28.8184C26.0639 29.4047 26.2122 29.9436 26.5087 30.4353C26.8148 30.9175 27.2117 31.3052 27.6995 31.5983C28.1969 31.8915 28.7421 32.038 29.3351 32.038ZM17.2403 22.8614C16.2933 22.8614 15.4277 22.6345 14.6434 22.1806C13.8591 21.7173 13.2326 21.1027 12.7639 20.3368C12.3048 19.5614 12.0752 18.701 12.0752 17.7554C12.0752 16.8288 12.3143 15.9778 12.7926 15.2024C13.2708 14.4271 13.9021 13.8077 14.6864 13.3444C15.4707 12.8811 16.322 12.6494 17.2403 12.6494C18.1872 12.6494 19.048 12.8811 19.8228 13.3444C20.6071 13.7983 21.2336 14.4129 21.7023 15.1882C22.171 15.9541 22.4053 16.8099 22.4053 17.7554C22.4053 18.701 22.171 19.5614 21.7023 20.3368C21.2336 21.1027 20.6071 21.7173 19.8228 22.1806C19.048 22.6345 18.1872 22.8614 17.2403 22.8614ZM17.2403 20.975C17.8333 20.975 18.3737 20.8285 18.8615 20.5353C19.3589 20.2422 19.7558 19.8545 20.0524 19.3723C20.3489 18.8806 20.4971 18.3417 20.4971 17.7554C20.4971 17.1692 20.3489 16.6349 20.0524 16.1527C19.7558 15.661 19.3589 15.2686 18.8615 14.9755C18.3737 14.6824 17.8333 14.5358 17.2403 14.5358C16.6472 14.5358 16.102 14.6824 15.6047 14.9755C15.1168 15.2686 14.7247 15.661 14.4282 16.1527C14.1317 16.6349 13.9834 17.1692 13.9834 17.7554C13.9834 18.3417 14.1317 18.8806 14.4282 19.3723C14.7247 19.8545 15.1168 20.2422 15.6047 20.5353C16.102 20.8285 16.6472 20.975 17.2403 20.975Z" fill="url(#paint0_radial_16517_147522)"/>
<path d="M14.3708 33.4989L12.936 32.0806L32.2046 13.0749L33.6393 14.4791L14.3708 33.4989ZM29.3351 33.9244C28.3882 33.9244 27.5226 33.6975 26.7382 33.2436C25.9635 32.7803 25.3418 32.1657 24.8731 31.3998C24.4044 30.6244 24.1701 29.764 24.1701 28.8184C24.1701 27.8918 24.4092 27.0408 24.8874 26.2654C25.3657 25.4901 25.997 24.8707 26.7813 24.4074C27.5656 23.9441 28.4169 23.7124 29.3351 23.7124C30.2821 23.7124 31.1477 23.9441 31.932 24.4074C32.7163 24.8613 33.3381 25.4759 33.7972 26.2512C34.2659 27.0171 34.5002 27.8729 34.5002 28.8184C34.5002 29.764 34.2659 30.6244 33.7972 31.3998C33.3381 32.1657 32.7163 32.7803 31.932 33.2436C31.1477 33.6975 30.2821 33.9244 29.3351 33.9244ZM29.3351 32.038C29.9186 32.038 30.459 31.8915 30.9564 31.5983C31.4538 31.3052 31.8507 30.9175 32.1472 30.4353C32.4437 29.9436 32.592 29.4047 32.592 28.8184C32.592 28.2322 32.4437 27.6979 32.1472 27.2157C31.8507 26.724 31.4538 26.3316 30.9564 26.0385C30.459 25.7454 29.9186 25.5988 29.3351 25.5988C28.7421 25.5988 28.1969 25.7454 27.6995 26.0385C27.2117 26.3316 26.8148 26.724 26.5087 27.2157C26.2122 27.6979 26.0639 28.2322 26.0639 28.8184C26.0639 29.4047 26.2122 29.9436 26.5087 30.4353C26.8148 30.9175 27.2117 31.3052 27.6995 31.5983C28.1969 31.8915 28.7421 32.038 29.3351 32.038ZM17.2403 22.8614C16.2933 22.8614 15.4277 22.6345 14.6434 22.1806C13.8591 21.7173 13.2326 21.1027 12.7639 20.3368C12.3048 19.5614 12.0752 18.701 12.0752 17.7554C12.0752 16.8288 12.3143 15.9778 12.7926 15.2024C13.2708 14.4271 13.9021 13.8077 14.6864 13.3444C15.4707 12.8811 16.322 12.6494 17.2403 12.6494C18.1872 12.6494 19.048 12.8811 19.8228 13.3444C20.6071 13.7983 21.2336 14.4129 21.7023 15.1882C22.171 15.9541 22.4053 16.8099 22.4053 17.7554C22.4053 18.701 22.171 19.5614 21.7023 20.3368C21.2336 21.1027 20.6071 21.7173 19.8228 22.1806C19.048 22.6345 18.1872 22.8614 17.2403 22.8614ZM17.2403 20.975C17.8333 20.975 18.3737 20.8285 18.8615 20.5353C19.3589 20.2422 19.7558 19.8545 20.0524 19.3723C20.3489 18.8806 20.4971 18.3417 20.4971 17.7554C20.4971 17.1692 20.3489 16.6349 20.0524 16.1527C19.7558 15.661 19.3589 15.2686 18.8615 14.9755C18.3737 14.6824 17.8333 14.5358 17.2403 14.5358C16.6472 14.5358 16.102 14.6824 15.6047 14.9755C15.1168 15.2686 14.7247 15.661 14.4282 16.1527C14.1317 16.6349 13.9834 17.1692 13.9834 17.7554C13.9834 18.3417 14.1317 18.8806 14.4282 19.3723C14.7247 19.8545 15.1168 20.2422 15.6047 20.5353C16.102 20.8285 16.6472 20.975 17.2403 20.975Z" fill="url(#paint1_radial_16517_147522)"/>
<g filter="url(#filter0_f_16517_147522)">
<path d="M14.3708 31.7743L12.936 30.356L32.2046 11.3503L33.6393 12.7545L14.3708 31.7743ZM29.3351 32.1998C28.3882 32.1998 27.5226 31.9729 26.7382 31.519C25.9635 31.0557 25.3418 30.4411 24.8731 29.6752C24.4044 28.8998 24.1701 28.0394 24.1701 27.0938C24.1701 26.1672 24.4092 25.3162 24.8874 24.5408C25.3657 23.7654 25.997 23.1461 26.7813 22.6828C27.5656 22.2195 28.4169 21.9878 29.3351 21.9878C30.2821 21.9878 31.1477 22.2195 31.932 22.6828C32.7163 23.1367 33.3381 23.7513 33.7972 24.5266C34.2659 25.2925 34.5002 26.1482 34.5002 27.0938C34.5002 28.0394 34.2659 28.8998 33.7972 29.6752C33.3381 30.4411 32.7163 31.0557 31.932 31.519C31.1477 31.9729 30.2821 32.1998 29.3351 32.1998ZM29.3351 30.3134C29.9186 30.3134 30.459 30.1669 30.9564 29.8737C31.4538 29.5806 31.8507 29.1929 32.1472 28.7107C32.4437 28.219 32.592 27.68 32.592 27.0938C32.592 26.5076 32.4437 25.9733 32.1472 25.4911C31.8507 24.9994 31.4538 24.607 30.9564 24.3139C30.459 24.0207 29.9186 23.8742 29.3351 23.8742C28.7421 23.8742 28.1969 24.0207 27.6995 24.3139C27.2117 24.607 26.8148 24.9994 26.5087 25.4911C26.2122 25.9733 26.0639 26.5076 26.0639 27.0938C26.0639 27.68 26.2122 28.219 26.5087 28.7107C26.8148 29.1929 27.2117 29.5806 27.6995 29.8737C28.1969 30.1669 28.7421 30.3134 29.3351 30.3134ZM17.2403 21.1368C16.2933 21.1368 15.4277 20.9099 14.6434 20.456C13.8591 19.9927 13.2326 19.3781 12.7639 18.6122C12.3048 17.8368 12.0752 16.9764 12.0752 16.0308C12.0752 15.1042 12.3143 14.2532 12.7926 13.4778C13.2708 12.7024 13.9021 12.0831 14.6864 11.6198C15.4707 11.1565 16.322 10.9248 17.2403 10.9248C18.1872 10.9248 19.048 11.1565 19.8228 11.6198C20.6071 12.0737 21.2336 12.6883 21.7023 13.4636C22.171 14.2295 22.4053 15.0852 22.4053 16.0308C22.4053 16.9764 22.171 17.8368 21.7023 18.6122C21.2336 19.3781 20.6071 19.9927 19.8228 20.456C19.048 20.9099 18.1872 21.1368 17.2403 21.1368ZM17.2403 19.2504C17.8333 19.2504 18.3737 19.1039 18.8615 18.8107C19.3589 18.5176 19.7558 18.1299 20.0524 17.6477C20.3489 17.156 20.4971 16.617 20.4971 16.0308C20.4971 15.4446 20.3489 14.9103 20.0524 14.4281C19.7558 13.9364 19.3589 13.544 18.8615 13.2509C18.3737 12.9577 17.8333 12.8112 17.2403 12.8112C16.6472 12.8112 16.102 12.9577 15.6047 13.2509C15.1168 13.544 14.7247 13.9364 14.4282 14.4281C14.1317 14.9103 13.9834 15.4446 13.9834 16.0308C13.9834 16.617 14.1317 17.156 14.4282 17.6477C14.7247 18.1299 15.1168 18.5176 15.6047 18.8107C16.102 19.1039 16.6472 19.2504 17.2403 19.2504Z" fill="url(#paint2_radial_16517_147522)"/>
<path d="M14.3708 31.7743L12.936 30.356L32.2046 11.3503L33.6393 12.7545L14.3708 31.7743ZM29.3351 32.1998C28.3882 32.1998 27.5226 31.9729 26.7382 31.519C25.9635 31.0557 25.3418 30.4411 24.8731 29.6752C24.4044 28.8998 24.1701 28.0394 24.1701 27.0938C24.1701 26.1672 24.4092 25.3162 24.8874 24.5408C25.3657 23.7654 25.997 23.1461 26.7813 22.6828C27.5656 22.2195 28.4169 21.9878 29.3351 21.9878C30.2821 21.9878 31.1477 22.2195 31.932 22.6828C32.7163 23.1367 33.3381 23.7513 33.7972 24.5266C34.2659 25.2925 34.5002 26.1482 34.5002 27.0938C34.5002 28.0394 34.2659 28.8998 33.7972 29.6752C33.3381 30.4411 32.7163 31.0557 31.932 31.519C31.1477 31.9729 30.2821 32.1998 29.3351 32.1998ZM29.3351 30.3134C29.9186 30.3134 30.459 30.1669 30.9564 29.8737C31.4538 29.5806 31.8507 29.1929 32.1472 28.7107C32.4437 28.219 32.592 27.68 32.592 27.0938C32.592 26.5076 32.4437 25.9733 32.1472 25.4911C31.8507 24.9994 31.4538 24.607 30.9564 24.3139C30.459 24.0207 29.9186 23.8742 29.3351 23.8742C28.7421 23.8742 28.1969 24.0207 27.6995 24.3139C27.2117 24.607 26.8148 24.9994 26.5087 25.4911C26.2122 25.9733 26.0639 26.5076 26.0639 27.0938C26.0639 27.68 26.2122 28.219 26.5087 28.7107C26.8148 29.1929 27.2117 29.5806 27.6995 29.8737C28.1969 30.1669 28.7421 30.3134 29.3351 30.3134ZM17.2403 21.1368C16.2933 21.1368 15.4277 20.9099 14.6434 20.456C13.8591 19.9927 13.2326 19.3781 12.7639 18.6122C12.3048 17.8368 12.0752 16.9764 12.0752 16.0308C12.0752 15.1042 12.3143 14.2532 12.7926 13.4778C13.2708 12.7024 13.9021 12.0831 14.6864 11.6198C15.4707 11.1565 16.322 10.9248 17.2403 10.9248C18.1872 10.9248 19.048 11.1565 19.8228 11.6198C20.6071 12.0737 21.2336 12.6883 21.7023 13.4636C22.171 14.2295 22.4053 15.0852 22.4053 16.0308C22.4053 16.9764 22.171 17.8368 21.7023 18.6122C21.2336 19.3781 20.6071 19.9927 19.8228 20.456C19.048 20.9099 18.1872 21.1368 17.2403 21.1368ZM17.2403 19.2504C17.8333 19.2504 18.3737 19.1039 18.8615 18.8107C19.3589 18.5176 19.7558 18.1299 20.0524 17.6477C20.3489 17.156 20.4971 16.617 20.4971 16.0308C20.4971 15.4446 20.3489 14.9103 20.0524 14.4281C19.7558 13.9364 19.3589 13.544 18.8615 13.2509C18.3737 12.9577 17.8333 12.8112 17.2403 12.8112C16.6472 12.8112 16.102 12.9577 15.6047 13.2509C15.1168 13.544 14.7247 13.9364 14.4282 14.4281C14.1317 14.9103 13.9834 15.4446 13.9834 16.0308C13.9834 16.617 14.1317 17.156 14.4282 17.6477C14.7247 18.1299 15.1168 18.5176 15.6047 18.8107C16.102 19.1039 16.6472 19.2504 17.2403 19.2504Z" fill="url(#paint3_radial_16517_147522)"/>
</g>
</g>
<defs>
<filter id="filter0_f_16517_147522" x="1.0752" y="-0.0751953" width="44.4248" height="43.2754" filterUnits="userSpaceOnUse" color-interpolation-filters="sRGB">
<feFlood flood-opacity="0" result="BackgroundImageFix"/>
<feBlend mode="normal" in="SourceGraphic" in2="BackgroundImageFix" result="shape"/>
<feGaussianBlur stdDeviation="5.5" result="effect1_foregroundBlur_16517_147522"/>
</filter>
<radialGradient id="paint0_radial_16517_147522" cx="0" cy="0" r="1" gradientUnits="userSpaceOnUse" gradientTransform="translate(29.6538 43.0262) rotate(127.03) scale(13.6752 46.9728)">
<stop stop-color="#00A3FF"/>
<stop offset="0.943718" stop-color="#00A3FF" stop-opacity="0.29"/>
</radialGradient>
<radialGradient id="paint1_radial_16517_147522" cx="0" cy="0" r="1" gradientUnits="userSpaceOnUse" gradientTransform="translate(11.3852 8.24768) rotate(58.1012) scale(29.38 77.0423)">
<stop stop-color="#5200FF"/>
<stop offset="1" stop-color="#6100FF" stop-opacity="0"/>
</radialGradient>
<radialGradient id="paint2_radial_16517_147522" cx="0" cy="0" r="1" gradientUnits="userSpaceOnUse" gradientTransform="translate(29.6538 41.3016) rotate(127.03) scale(13.6752 46.9728)">
<stop stop-color="#00A3FF"/>
<stop offset="0.943718" stop-color="#00A3FF" stop-opacity="0.29"/>
</radialGradient>
<radialGradient id="paint3_radial_16517_147522" cx="0" cy="0" r="1" gradientUnits="userSpaceOnUse" gradientTransform="translate(11.3852 6.52307) rotate(58.1012) scale(29.38 77.0423)">
<stop stop-color="#5200FF"/>
<stop offset="1" stop-color="#6100FF" stop-opacity="0"/>
</radialGradient>
<clipPath id="clip0_16517_147522">
<rect width="46" height="46" fill="white"/>
</clipPath>
</defs>
</svg>
