<svg xmlns="http://www.w3.org/2000/svg" width="110" height="110" fill="none" opt="1"><g filter="url(#a)"><ellipse cx="54.582" cy="55" fill="url(#b)" rx="54.582" ry="55"/><path stroke="#000" stroke-opacity=".1" d="M108.664 55c0 30.103-24.217 54.5-54.082 54.5S.5 85.103.5 55 24.717.5 54.582.5s54.082 24.397 54.082 54.5Z"/></g><path fill="#fff" fill-rule="evenodd" d="M30.758 40a1 1 0 0 0-1 1v11.55a1 1 0 0 0 1 1h6.768a1 1 0 0 0 1-1V41a1 1 0 0 0-1-1zm10.62 1a1 1 0 0 1 1-1h26.695a1 1 0 0 1 1 1v11.55a1 1 0 0 1-1 1H42.377a1 1 0 0 1-1-1zm31.147 0a1 1 0 0 1 1-1h5.604a1 1 0 0 1 1 1v11.306a1 1 0 0 1-1 1h-5.604a1 1 0 0 1-1-1zM29.758 57.402a1 1 0 0 1 1-1H52.67a1 1 0 0 1 1 1v11.55a1 1 0 0 1-1 1H30.758a1 1 0 0 1-1-1zm27.764-1a1 1 0 0 0-1 1v11.55a1 1 0 0 0 1 1h21.913a1 1 0 0 0 1-1v-11.55a1 1 0 0 0-1-1z" clip-rule="evenodd"/><defs><radialGradient id="b" cx="0" cy="0" r="1" gradientTransform="matrix(129.8181 121.99987 -108.0418 114.96555 7.94 46.5)" gradientUnits="userSpaceOnUse"><stop stop-color="#EE9E8C"/><stop offset=".944" stop-color="#FFB198" stop-opacity="0"/></radialGradient><filter id="a" width="117.164" height="118" x="-4" y="-4" color-interpolation-filters="sRGB" filterUnits="userSpaceOnUse"><feFlood flood-opacity="0" result="BackgroundImageFix"/><feGaussianBlur in="BackgroundImageFix" stdDeviation="2"/><feComposite in2="SourceAlpha" operator="in" result="effect1_backgroundBlur_10840_559822"/><feBlend in="SourceGraphic" in2="effect1_backgroundBlur_10840_559822" result="shape"/></filter></defs></svg>