<svg xmlns="http://www.w3.org/2000/svg" width="198" height="42" fill="none" opt="1"><g fill="#000" clip-path="url(#a)"><path d="M47.656 34.645q-2.446 0-3.724-1.132-1.25-1.133-1.44-3.01h2.99q.108.635.598 1.076.489.442 1.304.442t1.277-.414q.49-.442.49-.967 0-.442-.49-.69a5.6 5.6 0 0 0-1.168-.442 35 35 0 0 0-1.55-.442 6.2 6.2 0 0 1-1.521-.636 4.3 4.3 0 0 1-1.196-1.104q-.462-.691-.462-1.796 0-.772.299-1.464a3.6 3.6 0 0 1 .924-1.243q.598-.525 1.413-.829.816-.33 1.848-.33 2.256 0 3.452 1.104 1.222 1.105 1.44 2.762h-2.99q-.108-.414-.597-.829-.462-.414-1.169-.414t-1.114.36q-.38.358-.38.883 0 .443.461.69.49.25 1.196.47.706.194 1.522.442a5.6 5.6 0 0 1 1.549.663q.706.443 1.168 1.16.49.69.49 1.823 0 .774-.326 1.492a3.7 3.7 0 0 1-.924 1.215q-.598.525-1.468.857-.843.303-1.902.303M54.583 21.801h3.125v12.706h-3.125zm1.63-1.519q-.705 0-1.25-.525a1.8 1.8 0 0 1-.516-1.27q0-.719.517-1.243.543-.553 1.25-.553.705 0 1.223.553.543.525.543 1.243t-.543 1.27q-.517.525-1.223.525M66.123 39.203q-1.74 0-2.827-.635-1.06-.636-1.685-1.437a6.4 6.4 0 0 1-1.06-2.071h3.126q.19.359.516.635.3.22.761.414.462.194 1.169.194 1.331 0 2.092-.746.76-.718.761-1.878v-.967a4.7 4.7 0 0 1-.87.69q-.435.277-1.032.498a4.4 4.4 0 0 1-1.359.193 5.4 5.4 0 0 1-2.228-.47 5.8 5.8 0 0 1-1.821-1.298 6.5 6.5 0 0 1-1.223-1.961q-.435-1.133-.435-2.486 0-1.352.435-2.486a6.5 6.5 0 0 1 1.223-1.961 5.8 5.8 0 0 1 1.82-1.298 5.4 5.4 0 0 1 2.23-.47q.815 0 1.467.221.651.22 1.114.47.515.303.951.69l.543-1.243h2.31V33.68q0 2.485-1.576 4.005-1.549 1.52-4.402 1.519m0-8.148q.597 0 1.141-.249t.951-.663q.408-.442.653-1.022.244-.58.244-1.243t-.244-1.243a3.1 3.1 0 0 0-.653-.994 3 3 0 0 0-.95-.69 2.7 2.7 0 0 0-1.142-.25q-.626 0-1.169.25a2.95 2.95 0 0 0-.951.69 3.1 3.1 0 0 0-.652.994 3.5 3.5 0 0 0-.218 1.243q0 .663.218 1.243.244.58.652 1.022.408.414.951.663t1.169.249M75.099 21.801h2.31l.543 1.243q.38-.387.843-.69.38-.25.924-.47a3.2 3.2 0 0 1 1.223-.22q.95 0 1.63.275.68.249 1.114.553.49.36.788.828.436-.47 1.006-.828a6.4 6.4 0 0 1 1.169-.553 3.9 3.9 0 0 1 1.494-.276q2.04 0 3.261 1.326 1.224 1.326 1.224 3.922v7.596h-3.126v-7.32q0-1.159-.625-1.823-.598-.663-1.413-.663t-1.44.663q-.599.663-.598 1.823v7.32H82.3v-7.32q0-1.159-.625-1.823-.599-.663-1.413-.663t-1.44.663q-.599.663-.598 1.823v7.32h-3.125zM99.15 34.645q-2.038 0-3.125-.994-1.088-1.022-1.088-2.596 0-.939.354-1.713.38-.8 1.25-1.354.87-.579 2.283-.883 1.44-.332 3.587-.332 0-1.05-.571-1.63-.543-.58-1.467-.58-.625 0-1.006.221a2.5 2.5 0 0 0-.57.47 1.6 1.6 0 0 0-.327.69h-3.125q.109-.883.49-1.657a4.6 4.6 0 0 1 1.086-1.353q.679-.58 1.604-.912.95-.36 2.12-.359 1.059 0 1.956.387.897.36 1.549 1.022.652.663 1.006 1.574.38.911.38 1.989v7.872h-2.31l-.543-1.243q-.435.387-.951.69-.463.277-1.115.498a5.2 5.2 0 0 1-1.467.193m.543-2.486q1.224 0 1.957-.718.76-.745.761-1.906v-.552q-1.386 0-2.228.138-.843.11-1.332.36-.462.22-.625.551t-.163.746q0 .526.462.967.461.414 1.168.414M108.65 22.077h1.495l.544 1.381q.38-.414.924-.745a4.7 4.7 0 0 1 1.141-.525q.68-.249 1.603-.249 1.169 0 2.202.47a5.3 5.3 0 0 1 1.821 1.326 5.8 5.8 0 0 1 1.223 1.989q.461 1.16.462 2.568 0 1.41-.462 2.57a6.1 6.1 0 0 1-1.223 2.016 5.4 5.4 0 0 1-1.821 1.298 5.3 5.3 0 0 1-2.202.47q-.924 0-1.603-.25a6.6 6.6 0 0 1-1.141-.58 4 4 0 0 1-.924-.828v5.939h-2.039zm5.572 10.635q.76 0 1.44-.304a3.8 3.8 0 0 0 1.223-.912q.516-.579.815-1.38.326-.829.326-1.824 0-.994-.326-1.795a4.3 4.3 0 0 0-.815-1.409 3.45 3.45 0 0 0-1.223-.884 3.24 3.24 0 0 0-1.44-.331q-.762 0-1.468.331a3.5 3.5 0 0 0-1.196.884 4.7 4.7 0 0 0-.842 1.409q-.3.801-.299 1.795 0 .995.299 1.823.326.802.842 1.382t1.196.911q.706.304 1.468.304M122.77 22.077h1.494l.544 1.381q.381-.414.897-.745a4.9 4.9 0 0 1 1.114-.525q.652-.249 1.522-.249h.271v2.072h-.543q-1.441 0-2.364.94-.897.938-.897 2.513v7.043h-2.038zM130.917 22.078h2.039v12.43h-2.039zm1.006-2.21q-.543 0-.924-.36a1.34 1.34 0 0 1-.353-.938q0-.58.353-.94.381-.386.924-.386.57 0 .924.386.38.36.38.94 0 .551-.38.939-.354.36-.924.359M136.49 22.077h1.495l.543 1.381q.299-.414.734-.745a3.7 3.7 0 0 1 .924-.525q.543-.249 1.332-.249.924 0 1.549.36.652.33 1.06.745.488.498.788 1.105a5 5 0 0 1 .87-1.105 5 5 0 0 1 1.141-.746q.68-.359 1.658-.359.815 0 1.549.36.734.33 1.304.994.572.663.897 1.63.327.94.326 2.126v7.458h-2.038V27.05q0-1.575-.707-2.375-.707-.801-1.739-.801-1.034 0-1.821.856-.76.857-.761 2.32v7.458h-2.038V27.05q0-1.575-.706-2.375-.708-.801-1.74-.801a2.14 2.14 0 0 0-.978.248q-.462.222-.815.663a3.3 3.3 0 0 0-.571.995q-.218.58-.218 1.27v7.458h-2.038zM161.078 34.645a5.6 5.6 0 0 1-2.283-.47 6 6 0 0 1-1.875-1.297 6.5 6.5 0 0 1-1.25-2.017q-.435-1.16-.435-2.569 0-1.408.462-2.568a6.5 6.5 0 0 1 1.278-1.99 5.6 5.6 0 0 1 1.82-1.325 5.1 5.1 0 0 1 2.147-.47q1.114 0 2.12.442a5.2 5.2 0 0 1 1.794 1.27q.76.802 1.196 1.962.461 1.132.462 2.541 0 .276-.028.47-.027.194-.054.331-.027.166-.054.304h-8.969q.054.663.354 1.298.326.636.815 1.105.49.47 1.141.774a3.45 3.45 0 0 0 1.359.276 3.4 3.4 0 0 0 1.087-.166q.489-.166.843-.386.38-.222.625-.47.272-.276.435-.497h2.174q-.3.662-.761 1.298-.463.635-1.114 1.105-.625.469-1.468.773a5.7 5.7 0 0 1-1.821.276m3.397-7.181a4.7 4.7 0 0 0-.434-1.437q-.3-.663-.789-1.132a3.6 3.6 0 0 0-1.059-.746 2.95 2.95 0 0 0-1.251-.276q-.651 0-1.25.276a4 4 0 0 0-1.087.746q-.462.47-.788 1.132-.298.663-.408 1.437z"/><path fill-rule="evenodd" d="M36.735 1.235H33.03v10.673h3.706zM6.47 21.952c0-3.467 2.766-6.278 6.177-6.278h6.176v7.533H18.7c-.572 2.866-3.065 5.023-6.053 5.023-3.411 0-6.177-2.811-6.177-6.278m6.177 12.555c6.405 0 11.672-4.955 12.292-11.3h.06v-7.533h5.56V9.396H12.647C5.825 9.396.294 15.018.294 21.952s5.53 12.555 12.353 12.555" clip-rule="evenodd"/></g><defs><clipPath id="a"><path fill="#fff" d="M.294 1.235h166.765V39.53H.294z"/></clipPath></defs></svg>