<svg width="200" height="84" viewBox="0 0 200 84" fill="none" xmlns="http://www.w3.org/2000/svg">
<path d="M133.705 39.879V62.7673C133.705 63.4143 134.228 63.9373 134.875 63.9373H141.311C141.958 63.9373 142.481 63.4143 142.481 62.7673V43.1145C142.481 42.0109 143.372 41.12 144.475 41.12H149.253C150.357 41.12 151.248 42.0109 151.248 43.1145V62.7673C151.248 63.4143 151.771 63.9373 152.418 63.9373H158.854C159.501 63.9373 160.024 63.4143 160.024 62.7673V39.879C160.024 35.7171 156.651 32.3441 152.489 32.3441H141.24C137.078 32.3441 133.705 35.7171 133.705 39.879Z" fill="black"/>
<path d="M116.739 32.3441H110.303C109.656 32.3441 109.133 32.8671 109.133 33.5142V62.7673C109.133 63.4143 109.656 63.9373 110.303 63.9373H116.739C117.386 63.9373 117.909 63.4143 117.909 62.7673V33.5142C117.909 32.8671 117.386 32.3441 116.739 32.3441Z" fill="black"/>
<path d="M51.8108 44.5423L55.6535 40.6995C55.9151 40.438 56.3361 40.438 56.5932 40.6995L60.436 44.5423C60.888 44.9943 61.6149 44.9943 62.067 44.5423L65.4356 41.1737C65.8876 40.7217 65.8876 39.9947 65.4356 39.5427L58.632 32.7392C57.2491 31.3563 55.002 31.3563 53.6191 32.7392L46.8156 39.5427C46.3635 39.9947 46.3635 40.7217 46.8156 41.1737L50.1841 44.5423C50.6362 44.9943 51.3631 44.9943 51.8152 44.5423H51.8108Z" fill="black"/>
<path d="M71.2328 45.3491L69.5574 43.6737C69.1053 43.2216 68.3785 43.2216 67.9264 43.6737L63.7467 47.8533L56.5931 55.007C56.3316 55.2685 55.9105 55.2685 55.6534 55.007L48.4998 47.8533L44.3202 43.6693C43.8681 43.2172 43.1412 43.2172 42.6891 43.6693L41.0137 45.3447C39.6308 46.7275 39.6308 48.9747 41.0137 50.3575L53.619 62.9631C55.0019 64.3456 57.2491 64.3456 58.6319 62.9631L71.2373 50.3575C72.6201 48.9747 72.6201 46.7275 71.2373 45.3447L71.2328 45.3491Z" fill="black"/>
<path d="M107.183 62.1152L98.2788 48.7609C98.0263 48.3841 98.0171 47.8921 98.252 47.5021L106.421 34.1211C106.899 33.341 106.336 32.3393 105.424 32.3393H98.5049C98.0972 32.3393 97.7202 32.5521 97.5077 32.8978L92.202 41.585C91.9759 41.9529 91.5774 42.21 91.112 42.21C90.4025 42.21 89.8267 41.6338 89.8267 40.9246V24.3037C89.8267 23.6565 89.3033 23.1335 88.6562 23.1335H82.2208C81.5738 23.1335 81.0508 23.6565 81.0508 24.3037V62.7666C81.0508 63.4137 81.5738 63.9367 82.2208 63.9367H88.6562C89.3033 63.9367 89.8267 63.4137 89.8267 62.7666V54.8197C89.8267 54.1106 90.4025 53.5344 91.112 53.5344C91.555 53.5344 91.9407 53.756 92.1756 54.0973L98.3897 63.4185C98.607 63.7418 98.9703 63.9415 99.3649 63.9415H106.212C107.148 63.9415 107.706 62.8999 107.188 62.124" fill="black"/>
<path d="M129.025 21.8129H122.589C121.942 21.8129 121.419 22.3359 121.419 22.983V62.7668C121.419 63.4138 121.942 63.9368 122.589 63.9368H129.025C129.672 63.9368 130.195 63.4138 130.195 62.7668V22.983C130.195 22.3359 129.672 21.8129 129.025 21.8129Z" fill="black"/>
<path d="M113.521 19.9999C110.857 19.9999 108.694 22.1628 108.694 24.8266C108.694 27.4904 110.857 29.6533 113.521 29.6533C116.185 29.6533 118.348 27.4904 118.348 24.8266C118.348 22.1628 116.189 19.9999 113.521 19.9999Z" fill="black"/>
</svg>
