<svg width="200" height="84" viewBox="0 0 200 84" fill="none" xmlns="http://www.w3.org/2000/svg">
<path d="M54.8047 34.0356H59.6091C60.6142 34.0356 61.4769 34.1869 62.1975 34.4897C62.918 34.7924 63.472 35.2405 63.8595 35.8338C64.247 36.4272 64.4407 37.1568 64.4407 38.0226C64.4407 38.7068 64.3196 39.3001 64.0774 39.8027C63.8352 40.3052 63.4932 40.726 63.0512 41.0651C62.6152 41.4041 62.1006 41.6705 61.5072 41.8643L60.7262 42.2639H56.4849L56.4667 40.2931H59.6363C60.151 40.2931 60.5778 40.2023 60.9169 40.0206C61.256 39.839 61.5102 39.5877 61.6798 39.2668C61.8554 38.9459 61.9432 38.5796 61.9432 38.1679C61.9432 37.7259 61.8584 37.3445 61.6889 37.0236C61.5193 36.6966 61.262 36.4453 60.9169 36.2697C60.5718 36.0942 60.1358 36.0064 59.6091 36.0064H57.3022V47.259H54.8047V34.0356ZM62.2701 47.259L59.2095 41.3375L61.8523 41.3284L64.9493 47.1319V47.259H62.2701Z" fill="black"/>
<path d="M73.221 42.4455V42.2548C73.221 41.5343 73.3239 40.8713 73.5298 40.2658C73.7356 39.6543 74.0353 39.1245 74.4289 38.6765C74.8224 38.2284 75.3038 37.8803 75.8729 37.6321C76.4421 37.3778 77.0899 37.2506 77.8165 37.2506C78.5552 37.2506 79.2091 37.3778 79.7782 37.6321C80.3534 37.8803 80.8378 38.2284 81.2313 38.6765C81.6249 39.1245 81.9246 39.6543 82.1305 40.2658C82.3363 40.8713 82.4392 41.5343 82.4392 42.2548V42.4455C82.4392 43.16 82.3363 43.823 82.1305 44.4345C81.9246 45.04 81.6249 45.5697 81.2313 46.0238C80.8378 46.4719 80.3564 46.82 79.7873 47.0683C79.2181 47.3165 78.5673 47.4406 77.8347 47.4406C77.1081 47.4406 76.4572 47.3165 75.882 47.0683C75.3068 46.82 74.8224 46.4719 74.4289 46.0238C74.0353 45.5697 73.7356 45.04 73.5298 44.4345C73.3239 43.823 73.221 43.16 73.221 42.4455ZM75.6186 42.2548V42.4455C75.6186 42.8754 75.661 43.278 75.7458 43.6534C75.8306 44.0288 75.9607 44.3588 76.1363 44.6434C76.3119 44.9279 76.5389 45.152 76.8175 45.3154C77.102 45.4729 77.4411 45.5516 77.8347 45.5516C78.2222 45.5516 78.5552 45.4729 78.8337 45.3154C79.1122 45.152 79.3392 44.9279 79.5148 44.6434C79.6965 44.3588 79.8297 44.0288 79.9144 43.6534C79.9992 43.278 80.0416 42.8754 80.0416 42.4455V42.2548C80.0416 41.831 79.9992 41.4344 79.9144 41.0651C79.8297 40.6897 79.6965 40.3597 79.5148 40.0751C79.3392 39.7845 79.1092 39.5574 78.8246 39.394C78.5461 39.2244 78.21 39.1397 77.8165 39.1397C77.429 39.1397 77.096 39.2244 76.8175 39.394C76.5389 39.5574 76.3119 39.7845 76.1363 40.0751C75.9607 40.3597 75.8306 40.6897 75.7458 41.0651C75.661 41.4344 75.6186 41.831 75.6186 42.2548Z" fill="black"/>
<path d="M95.4154 45.5516C95.7545 45.5516 96.0572 45.485 96.3236 45.3518C96.59 45.2186 96.8019 45.0309 96.9593 44.7887C97.1228 44.5465 97.2106 44.265 97.2227 43.9441H99.4841C99.472 44.6101 99.2843 45.2065 98.9211 45.7332C98.5578 46.26 98.0734 46.6777 97.4679 46.9865C96.8685 47.2893 96.1965 47.4406 95.4517 47.4406C94.6949 47.4406 94.0349 47.3135 93.4719 47.0592C92.9088 46.8049 92.4395 46.4507 92.0641 45.9966C91.6948 45.5425 91.4163 45.0157 91.2286 44.4163C91.0469 43.8169 90.9561 43.1751 90.9561 42.4909V42.2003C90.9561 41.5161 91.0469 40.8743 91.2286 40.2749C91.4163 39.6755 91.6948 39.1488 92.0641 38.6946C92.4395 38.2405 92.9088 37.8863 93.4719 37.6321C94.0349 37.3778 94.6919 37.2506 95.4426 37.2506C96.2358 37.2506 96.9321 37.405 97.5315 37.7138C98.137 38.0226 98.6092 38.4585 98.9483 39.0216C99.2934 39.5847 99.472 40.2477 99.4841 41.0106H97.2227C97.2106 40.6594 97.1319 40.3446 96.9866 40.066C96.8413 39.7875 96.6354 39.5635 96.369 39.394C96.1026 39.2244 95.7787 39.1397 95.3972 39.1397C94.9916 39.1397 94.6525 39.2244 94.3801 39.394C94.1136 39.5635 93.9048 39.7966 93.7534 40.0933C93.6081 40.3839 93.5051 40.7109 93.4446 41.0741C93.3901 41.4314 93.3629 41.8068 93.3629 42.2003V42.4909C93.3629 42.8905 93.3901 43.272 93.4446 43.6353C93.5051 43.9986 93.6081 44.3255 93.7534 44.6161C93.9048 44.9007 94.1136 45.1278 94.3801 45.2973C94.6525 45.4668 94.9976 45.5516 95.4154 45.5516Z" fill="black"/>
<path d="M110.68 33.2999V47.259H108.283V33.2999H110.68ZM116.838 37.4322L112.56 42.2366L110.244 44.5889L109.481 42.7271L111.271 40.4747L113.941 37.4322H116.838ZM114.386 47.259L111.343 42.6817L112.942 41.1286L117.165 47.259H114.386Z" fill="black"/>
<path d="M133.783 45.8331V47.259H127.171V45.8331H133.783ZM127.516 34.0356V47.259H125.763V34.0356H127.516Z" fill="black"/>
<path d="M142.291 42.4546V42.2457C142.291 41.5373 142.394 40.8804 142.599 40.2749C142.805 39.6634 143.102 39.1336 143.489 38.6856C143.877 38.2315 144.346 37.8803 144.897 37.6321C145.448 37.3778 146.066 37.2506 146.75 37.2506C147.44 37.2506 148.061 37.3778 148.612 37.6321C149.169 37.8803 149.641 38.2315 150.029 38.6856C150.422 39.1336 150.722 39.6634 150.928 40.2749C151.134 40.8804 151.236 41.5373 151.236 42.2457V42.4546C151.236 43.163 151.134 43.8199 150.928 44.4254C150.722 45.0309 150.422 45.5607 150.029 46.0148C149.641 46.4628 149.172 46.814 148.621 47.0683C148.076 47.3165 147.458 47.4406 146.768 47.4406C146.078 47.4406 145.457 47.3165 144.906 47.0683C144.355 46.814 143.883 46.4628 143.489 46.0148C143.102 45.5607 142.805 45.0309 142.599 44.4254C142.394 43.8199 142.291 43.163 142.291 42.4546ZM143.971 42.2457V42.4546C143.971 42.945 144.028 43.4082 144.143 43.8442C144.258 44.274 144.431 44.6555 144.661 44.9885C144.897 45.3215 145.191 45.5849 145.542 45.7786C145.893 45.9663 146.302 46.0602 146.768 46.0602C147.228 46.0602 147.631 45.9663 147.976 45.7786C148.327 45.5849 148.618 45.3215 148.848 44.9885C149.078 44.6555 149.251 44.274 149.366 43.8442C149.487 43.4082 149.547 42.945 149.547 42.4546V42.2457C149.547 41.7613 149.487 41.3042 149.366 40.8743C149.251 40.4384 149.075 40.0539 148.839 39.7209C148.609 39.3819 148.318 39.1155 147.967 38.9217C147.622 38.728 147.216 38.6311 146.75 38.6311C146.29 38.6311 145.884 38.728 145.533 38.9217C145.188 39.1155 144.897 39.3819 144.661 39.7209C144.431 40.0539 144.258 40.4384 144.143 40.8743C144.028 41.3042 143.971 41.7613 143.971 42.2457Z" fill="black"/>
<path d="M166.91 37.4322H168.436V47.0501C168.436 47.9159 168.26 48.6546 167.909 49.2661C167.558 49.8776 167.067 50.3408 166.438 50.6557C165.814 50.9766 165.094 51.137 164.276 51.137C163.937 51.137 163.538 51.0825 163.077 50.9735C162.623 50.8706 162.175 50.692 161.733 50.4377C161.297 50.1895 160.931 49.8534 160.634 49.4296L161.515 48.4306C161.927 48.9271 162.357 49.2722 162.805 49.4659C163.259 49.6597 163.707 49.7566 164.149 49.7566C164.682 49.7566 165.142 49.6567 165.53 49.4569C165.917 49.257 166.217 48.9604 166.429 48.5668C166.647 48.1793 166.756 47.701 166.756 47.1319V39.5938L166.91 37.4322ZM160.144 42.4546V42.2639C160.144 41.5131 160.232 40.832 160.407 40.2204C160.589 39.6029 160.846 39.0731 161.179 38.6311C161.518 38.1891 161.927 37.85 162.405 37.6139C162.884 37.3717 163.422 37.2506 164.022 37.2506C164.639 37.2506 165.178 37.3596 165.639 37.5776C166.105 37.7895 166.498 38.1013 166.819 38.513C167.146 38.9187 167.403 39.4091 167.591 39.9843C167.779 40.5595 167.909 41.2104 167.982 41.9369V42.7725C167.915 43.493 167.785 44.1408 167.591 44.716C167.403 45.2912 167.146 45.7817 166.819 46.1873C166.498 46.593 166.105 46.9048 165.639 47.1228C165.172 47.3347 164.627 47.4406 164.004 47.4406C163.416 47.4406 162.884 47.3165 162.405 47.0683C161.933 46.82 161.527 46.4719 161.188 46.0238C160.849 45.5758 160.589 45.049 160.407 44.4436C160.232 43.832 160.144 43.1691 160.144 42.4546ZM161.824 42.2639V42.4546C161.824 42.945 161.872 43.4052 161.969 43.8351C162.072 44.265 162.227 44.6434 162.433 44.9703C162.644 45.2973 162.914 45.5546 163.241 45.7423C163.568 45.9239 163.958 46.0148 164.412 46.0148C164.969 46.0148 165.43 45.8967 165.793 45.6606C166.156 45.4244 166.444 45.1126 166.656 44.7251C166.874 44.3376 167.043 43.9168 167.164 43.4627V41.2739C167.098 40.9409 166.995 40.62 166.855 40.3113C166.722 39.9964 166.547 39.7179 166.329 39.4757C166.117 39.2275 165.853 39.0307 165.539 38.8854C165.224 38.7401 164.854 38.6674 164.431 38.6674C163.97 38.6674 163.574 38.7643 163.241 38.958C162.914 39.1457 162.644 39.4061 162.433 39.7391C162.227 40.066 162.072 40.4475 161.969 40.8834C161.872 41.3133 161.824 41.7735 161.824 42.2639Z" fill="black"/>
<path d="M180.013 37.4322V47.259H178.324V37.4322H180.013ZM178.197 34.8257C178.197 34.5532 178.279 34.3232 178.442 34.1355C178.612 33.9478 178.86 33.8539 179.187 33.8539C179.508 33.8539 179.753 33.9478 179.922 34.1355C180.098 34.3232 180.186 34.5532 180.186 34.8257C180.186 35.0861 180.098 35.3101 179.922 35.4978C179.753 35.6794 179.508 35.7702 179.187 35.7702C178.86 35.7702 178.612 35.6794 178.442 35.4978C178.279 35.3101 178.197 35.0861 178.197 34.8257Z" fill="black"/>
<path d="M193.843 46.0602C194.243 46.0602 194.612 45.9784 194.951 45.815C195.29 45.6515 195.569 45.4275 195.787 45.1429C196.005 44.8523 196.129 44.5223 196.159 44.1529H197.758C197.727 44.7342 197.53 45.2761 197.167 45.7786C196.81 46.2751 196.341 46.6777 195.759 46.9865C195.178 47.2893 194.539 47.4406 193.843 47.4406C193.104 47.4406 192.46 47.3105 191.909 47.0501C191.364 46.7898 190.91 46.4325 190.546 45.9784C190.189 45.5243 189.92 45.0036 189.738 44.4163C189.563 43.823 189.475 43.1963 189.475 42.5363V42.1549C189.475 41.4949 189.563 40.8713 189.738 40.284C189.92 39.6906 190.189 39.1669 190.546 38.7128C190.91 38.2587 191.364 37.9015 191.909 37.6411C192.46 37.3808 193.104 37.2506 193.843 37.2506C194.612 37.2506 195.284 37.408 195.859 37.7229C196.435 38.0317 196.886 38.4555 197.213 38.9944C197.546 39.5272 197.727 40.1326 197.758 40.8108H196.159C196.129 40.4051 196.014 40.0388 195.814 39.7118C195.62 39.3849 195.354 39.1245 195.015 38.9308C194.682 38.731 194.291 38.6311 193.843 38.6311C193.329 38.6311 192.896 38.734 192.544 38.9399C192.199 39.1397 191.924 39.4121 191.718 39.7572C191.518 40.0963 191.373 40.4747 191.282 40.8925C191.197 41.3042 191.155 41.725 191.155 42.1549V42.5363C191.155 42.9662 191.197 43.3901 191.282 43.8078C191.367 44.2256 191.509 44.604 191.709 44.9431C191.915 45.2821 192.19 45.5546 192.535 45.7605C192.887 45.9603 193.322 46.0602 193.843 46.0602Z" fill="black"/>
<g opacity="0.8">
<path d="M2.24219 24H26.8422C33.3039 24 38.5422 29.2383 38.5422 35.7C38.5422 42.1617 33.3039 47.4 26.8422 47.4H2.24219V24Z" fill="black"/>
</g>
<path opacity="0.8" d="M2.24219 24L38.5422 60H2.24219V24Z" fill="black"/>
<path d="M2.24219 47.4H25.8372L2.24219 24V47.4Z" fill="black"/>
</svg>
