<svg width="200" height="84" viewBox="0 0 200 84" fill="none" xmlns="http://www.w3.org/2000/svg">
<path d="M35 28.0176L63.9434 22L80.1444 29.6105V31.9113L63.9434 26.2477L35 30.4954V28.0176Z" fill="black"/>
<path d="M35.0026 31.9136L62.2355 27.8429L80.1471 33.1525V35.4534L62.2355 31.9136L35.0026 34.9224V31.9136Z" fill="black"/>
<path d="M60.225 33.8611L35.0026 36.3389V39.1707L60.225 37.5778L80.1471 39.1707V36.6929L60.225 33.8611Z" fill="black"/>
<path d="M35.0026 40.5845L57.5054 40.0535L80.1471 40.5845V43.0623L57.5054 43.9473L35.0026 43.0623V40.5845Z" fill="black"/>
<path d="M55.7545 46.2493L35.0026 44.4794V46.7803L55.7545 50.1431L80.1471 47.1343V44.4794L55.7545 46.2493Z" fill="black"/>
<path d="M35.0026 48.1952L53.5375 52.266L80.1471 48.9032V51.735L53.5375 55.8057L35.0026 50.6731V48.1952Z" fill="black"/>
<path d="M51.5189 57.7523L35.0026 51.7347V54.2125L51.5189 62L80.1471 55.8054V53.3276L51.5189 57.7523Z" fill="black"/>
<path d="M87.5799 37.0374H85.3538C85.3704 37.6198 85.4701 38.1294 85.6362 38.5952C85.8023 39.0611 86.0681 39.4396 86.4004 39.7599C86.7327 40.0802 87.1646 40.3277 87.6796 40.5024C88.178 40.6771 88.7927 40.7645 89.4905 40.7645C90.0885 40.7645 90.6368 40.6917 91.1185 40.5316C91.6003 40.386 92.0157 40.1676 92.3479 39.8764C92.6802 39.5998 92.9294 39.2649 93.1121 38.8573C93.2782 38.4642 93.3779 38.0274 93.3779 37.5324C93.3779 36.9792 93.245 36.5133 92.9792 36.1639C92.7134 35.8145 92.3645 35.5379 91.9658 35.3049C91.5671 35.0866 91.1352 34.9119 90.67 34.7663C90.2048 34.6207 89.7563 34.4751 89.3575 34.3295C88.9588 34.1839 88.6266 34.0238 88.3608 33.8345C88.0949 33.6598 87.962 33.4123 87.962 33.092C87.962 32.9464 87.9787 32.8154 88.0285 32.6698C88.0617 32.5388 88.1448 32.4223 88.2611 32.3058C88.3774 32.2039 88.5269 32.1166 88.7262 32.0438C88.9256 31.9855 89.1748 31.9419 89.4905 31.9419C89.7895 31.9419 90.0387 32.0001 90.238 32.1166C90.4374 32.233 90.5869 32.3641 90.7032 32.5242C90.8195 32.6989 90.9026 32.8882 90.9524 33.092C90.9902 33.2464 91.0184 33.4007 91.0443 33.5424C91.0525 33.5876 91.0607 33.6321 91.0687 33.6744H93.2949C93.2949 33.2958 93.2118 32.8882 93.0789 32.4805C92.9294 32.0729 92.6968 31.6944 92.3978 31.345C92.0987 31.0101 91.7 30.7335 91.2182 30.5151C90.7364 30.2967 90.155 30.1803 89.4905 30.1803C88.7927 30.1803 88.2112 30.2676 87.7128 30.4132C87.2145 30.5588 86.7991 30.7772 86.4835 31.0392C86.1678 31.3013 85.9352 31.6216 85.7857 31.9855C85.6362 32.3641 85.5697 32.7572 85.5697 33.1939C85.5697 33.8054 85.7027 34.3004 85.9685 34.6789C86.2343 35.0574 86.5665 35.3632 86.9653 35.5961C87.364 35.8291 87.7959 36.0183 88.2611 36.1494C88.7262 36.2949 89.1582 36.426 89.5569 36.5424C89.9556 36.6589 90.2879 36.8045 90.5537 36.9646C90.8195 37.1394 90.9524 37.3577 90.9524 37.6344C90.9524 38.0129 90.8361 38.3186 90.6035 38.5807C90.371 38.8427 89.9888 38.9592 89.4905 38.9592C88.8592 38.9592 88.394 38.7991 88.0949 38.4496C87.7959 38.1148 87.6132 37.6489 87.5799 37.0374Z" fill="black"/>
<path d="M94.2258 30.3986V32.1748H96.9006V40.5898H99.3095V32.1748H101.934V30.3986H94.2258Z" fill="black"/>
<path fill-rule="evenodd" clip-rule="evenodd" d="M110.853 40.5898L109.806 38.3186H104.872L103.875 40.5898H101.467L106.118 30.3986H108.444L113.262 40.5898H110.853ZM108.926 36.3532L107.298 32.7863L105.703 36.3532H108.926Z" fill="black"/>
<path d="M116.437 36.4988L120.142 40.5898H122.883L118.348 35.4797L122.883 30.3986H120.142L116.437 34.4751V30.3986H114.029V40.5898H116.437V36.4988Z" fill="black"/>
<path d="M123.897 40.5898V30.3986H126.306V40.5898H123.897Z" fill="black"/>
<path d="M130.735 33.6744L136.035 40.5898H138.344V30.3986H135.935V36.9938L130.851 30.3986H128.326V40.5898H130.735V33.6744Z" fill="black"/>
<path d="M145.398 36.8627V35.0866H151.611V36.4114C151.511 37.0666 151.329 37.6635 151.046 38.1876C150.764 38.7263 150.398 39.1921 149.933 39.5707C149.468 39.9492 148.903 40.2549 148.239 40.4588C147.574 40.6626 146.81 40.7645 145.963 40.7645C145.132 40.7645 144.351 40.6335 143.653 40.3568C142.956 40.0802 142.341 39.7017 141.826 39.2213C141.294 38.7554 140.896 38.1876 140.597 37.547C140.298 36.9064 140.165 36.2076 140.165 35.4797C140.165 34.7517 140.298 34.0529 140.597 33.4123C140.896 32.7717 141.294 32.2039 141.809 31.7235C142.324 31.2576 142.939 30.8791 143.653 30.6025C144.351 30.3258 145.132 30.1803 145.963 30.1803C147.524 30.1803 148.787 30.5151 149.767 31.1848C150.731 31.8545 151.362 32.8154 151.628 34.0966H149.418C149.252 33.4851 148.87 33.0192 148.255 32.6844C147.641 32.3495 146.876 32.1748 145.979 32.1748C145.498 32.1748 145.049 32.2622 144.634 32.4223C144.218 32.597 143.853 32.8154 143.554 33.1066C143.238 33.3977 142.989 33.7472 142.823 34.1548C142.64 34.5624 142.557 35.0138 142.557 35.4942C142.557 35.9892 142.64 36.426 142.823 36.8336C142.989 37.2413 143.238 37.6052 143.554 37.8964C143.853 38.1876 144.218 38.4205 144.634 38.5807C145.049 38.7554 145.498 38.8282 145.979 38.8282C146.444 38.8282 146.86 38.7845 147.225 38.6826C147.591 38.5807 147.89 38.4351 148.156 38.2604C148.421 38.0857 148.637 37.8673 148.804 37.6344C148.97 37.4014 149.103 37.1394 149.202 36.8627H145.398Z" fill="black"/>
<path d="M85.8522 43.6873V53.8784H88.2611V50.0349H92.1319V48.2587H88.2611V45.6527H92.4642V43.6873H85.8522Z" fill="black"/>
<path fill-rule="evenodd" clip-rule="evenodd" d="M102.125 53.8784L101.078 51.6072H96.1439L95.1471 53.8784H92.7382L97.3899 43.6873H99.7157L104.534 53.8784H102.125ZM100.197 49.6418L98.5694 46.0749L96.9745 49.6418H100.197Z" fill="black"/>
<path d="M116.505 49.9039H114.146C114.046 50.2096 113.914 50.4862 113.731 50.7483C113.531 51.0103 113.299 51.2287 113.016 51.418C112.734 51.6072 112.402 51.7528 112.036 51.8547C111.654 51.9712 111.239 52.0149 110.774 52.0149C110.259 52.0149 109.794 51.9421 109.378 51.7674C108.946 51.6072 108.597 51.3743 108.298 51.0831C107.999 50.7919 107.767 50.4571 107.601 50.064C107.434 49.6709 107.351 49.2487 107.351 48.7828C107.351 48.3315 107.434 47.9093 107.601 47.5162C107.767 47.1231 107.999 46.7737 108.298 46.4825C108.597 46.1914 108.946 45.973 109.378 45.7983C109.794 45.6381 110.259 45.5508 110.774 45.5508C111.671 45.5508 112.418 45.7546 113.016 46.1331C113.598 46.5117 113.98 47.0212 114.146 47.6618H116.522C116.422 47.0795 116.206 46.5408 115.891 46.0312C115.558 45.5217 115.143 45.0703 114.645 44.6918C114.13 44.3133 113.548 44.0221 112.884 43.8037C112.219 43.5853 111.521 43.4689 110.757 43.4689C109.926 43.4689 109.146 43.6145 108.448 43.8911C107.733 44.1677 107.119 44.5462 106.604 45.0121C106.089 45.4925 105.69 46.0603 105.391 46.7009C105.092 47.3415 104.959 48.0403 104.959 48.7683C104.959 49.4962 105.092 50.195 105.391 50.8356C105.69 51.4762 106.089 52.044 106.62 52.5099C107.135 52.9903 107.75 53.3689 108.448 53.6455C109.146 53.9221 109.926 54.0531 110.757 54.0531C111.521 54.0531 112.219 53.9512 112.884 53.7328C113.548 53.529 114.13 53.2378 114.628 52.8593C115.126 52.4808 115.542 52.044 115.874 51.5344C116.19 51.0394 116.406 50.4862 116.505 49.9039Z" fill="black"/>
<path d="M120.757 53.8784H118.348V43.6873H120.757V53.8784Z" fill="black"/>
<path d="M122.777 53.8784H128.891V52.1022H125.186V43.6873H122.777V53.8784Z" fill="black"/>
<path d="M132.779 53.8784H130.37V43.6873H132.779V53.8784Z" fill="black"/>
<path d="M134.201 43.6873V45.4634H136.876V53.8784H139.285V45.4634H141.91V43.6873H134.201Z" fill="black"/>
<path d="M145.758 53.8784H143.349V43.6873H145.758V53.8784Z" fill="black"/>
<path d="M147.778 53.8784H154.723V52.0149H150.187V49.6855H154.39V47.9093H150.187V45.5508H154.723V43.6873H147.778V53.8784Z" fill="black"/>
<path d="M155.976 50.3261H158.202C158.235 50.9375 158.418 51.4034 158.717 51.7383C159.016 52.0877 159.481 52.2478 160.113 52.2478C160.611 52.2478 160.993 52.1314 161.226 51.8693C161.458 51.6072 161.574 51.3015 161.574 50.923C161.574 50.6464 161.442 50.428 161.176 50.2533C160.91 50.0931 160.578 49.9475 160.179 49.8311C159.78 49.7146 159.348 49.5836 158.883 49.438C158.418 49.3069 157.986 49.1177 157.587 48.8847C157.189 48.6518 156.856 48.3461 156.591 47.9675C156.325 47.589 156.192 47.094 156.192 46.4825C156.192 46.0458 156.258 45.6527 156.408 45.2742C156.557 44.9102 156.79 44.5899 157.106 44.3278C157.421 44.0658 157.837 43.8474 158.335 43.7018C158.833 43.5562 159.415 43.4689 160.113 43.4689C160.777 43.4689 161.359 43.5853 161.84 43.8037C162.322 44.0221 162.721 44.2987 163.02 44.6336C163.319 44.983 163.551 45.3615 163.701 45.7692C163.834 46.1768 163.917 46.5845 163.917 46.963H161.691L161.681 46.9108L161.666 46.8312C161.64 46.6895 161.612 46.5349 161.574 46.3806C161.525 46.1768 161.442 45.9875 161.325 45.8128C161.209 45.6527 161.059 45.5217 160.86 45.4052C160.661 45.2887 160.412 45.2305 160.113 45.2305C159.797 45.2305 159.548 45.2742 159.348 45.3324C159.149 45.4052 158.999 45.4925 158.883 45.5945C158.767 45.7109 158.684 45.8274 158.651 45.9584C158.601 46.104 158.584 46.235 158.584 46.3806C158.584 46.7009 158.717 46.9484 158.983 47.1231C159.249 47.3124 159.581 47.4725 159.98 47.6181C160.378 47.7637 160.827 47.9093 161.292 48.0549C161.757 48.2005 162.189 48.3752 162.588 48.5936C162.987 48.8265 163.335 49.1031 163.601 49.4525C163.867 49.8019 164 50.2678 164 50.8211C164 51.3161 163.9 51.7528 163.734 52.1459C163.551 52.5536 163.302 52.8884 162.97 53.165C162.638 53.4562 162.222 53.6746 161.741 53.8202C161.259 53.9803 160.711 54.0531 160.113 54.0531C159.415 54.0531 158.8 53.9658 158.302 53.7911C157.787 53.6163 157.355 53.3688 157.022 53.0486C156.69 52.7283 156.424 52.3497 156.258 51.8839C156.092 51.418 155.992 50.9084 155.976 50.3261Z" fill="black"/>
</svg>
