<svg width="200" height="84" viewBox="0 0 200 84" fill="none" xmlns="http://www.w3.org/2000/svg">
<path d="M54.4472 36.5537C55.7478 36.5541 57.006 37.0202 57.998 37.8691C58.99 38.7181 59.6516 39.8947 59.8647 41.1898L66.1422 39.7205C65.7642 37.7244 64.889 35.8584 63.5989 34.2983C62.3088 32.7382 60.6463 31.5354 58.7683 30.8034C56.8903 30.0713 54.8585 29.8341 52.8645 30.1141C50.8706 30.3941 48.9801 31.1821 47.3713 32.4037L51.2894 37.5635C52.2134 36.9058 53.3166 36.5531 54.4472 36.5537Z" fill="black"/>
<path d="M31.1155 36.5538C32.0023 36.5559 32.8752 36.7768 33.6581 37.1971C34.6593 37.7248 35.4768 38.5489 36.0009 39.5589L41.0181 35.7499C39.9504 33.9949 38.4574 32.5434 36.68 31.5324L33.6581 37.1971L36.6756 31.5302C34.6216 30.365 32.2695 29.8461 29.9212 30.04C27.5729 30.2339 25.3357 31.1319 23.4966 32.6186C21.6389 34.0999 20.2642 36.1099 19.5504 38.3885C18.8368 40.6666 18.8166 43.1085 19.4926 45.3984C20.0446 47.2944 21.052 49.0233 22.4264 50.4306C23.8007 51.838 25.4987 52.8802 27.3688 53.4645C29.239 54.0487 31.2233 54.1569 33.1449 53.7793C35.0666 53.4016 36.8658 52.55 38.3823 51.3002L34.6343 46.3663C33.6471 47.1984 32.4016 47.6538 31.1154 47.6529C29.9563 47.6528 28.8268 47.2829 27.8883 46.5961C26.9499 45.9093 26.2504 44.9406 25.8899 43.8285C25.709 43.2717 25.6165 42.6894 25.6157 42.1033C25.6166 41.2016 25.8354 40.3137 26.253 39.5167C26.6706 38.7196 27.2746 38.0375 28.0124 37.5293L23.4966 32.6186L28.0157 37.5226C28.9286 36.889 30.011 36.5511 31.1188 36.5538H31.1155Z" fill="black"/>
<path d="M49.701 44.8957L44.6663 48.7634C46.1545 50.9579 48.3206 52.5933 50.8265 53.4139C51.1878 52.2982 51.6094 51.0313 51.9945 49.8739C52.3108 48.9234 52.6025 48.0467 52.8162 47.3882C51.5067 46.9776 50.3966 46.0885 49.701 44.8957Z" fill="black"/>
<path d="M54.4472 47.6529C53.8956 47.6511 53.3475 47.5644 52.8217 47.3961C52.6198 48.0165 52.3487 48.8297 52.0532 49.7162L52.0527 49.7176C51.6532 50.9162 51.209 52.2487 50.8308 53.4195C52.6717 54.0213 54.6308 54.1576 56.536 53.8164C58.4412 53.4753 60.2344 52.6672 61.7579 51.4631L60.7947 50.258L61.7591 51.4628C63.1915 50.345 64.3515 48.9109 65.1501 47.2705C65.9486 45.6301 66.3645 43.827 66.366 41.9992C66.3668 41.2349 66.2933 40.4724 66.1466 39.7226L59.8691 41.1898C59.9216 41.4915 59.9492 41.797 59.9514 42.1033H59.947C59.9479 42.955 59.7536 43.7954 59.3793 44.5587C59.0056 45.3211 58.4623 45.9859 57.7921 46.5015L57.7894 46.4981C56.8325 47.2449 55.6568 47.6495 54.4472 47.6486V47.6529Z" fill="black"/>
<path d="M76.8851 46.6232V36.9547H78.4207L82.4331 43.3314V36.9547H84.3493V46.6232H82.8138L78.8134 40.2477V46.6232H76.8851Z" fill="black"/>
<path d="M90.1387 46.6299C90.3743 46.6668 90.6122 46.6864 90.8506 46.6885C91.274 46.6878 91.7226 46.683 92.1964 46.6741C92.6674 46.6601 93.1332 46.6383 93.5939 46.6088C94.0545 46.5793 94.4754 46.5424 94.8564 46.4981V44.8804H91.2444C91.1095 44.8808 90.9756 44.8565 90.8494 44.8084C90.7231 44.7592 90.6179 44.6667 90.5523 44.5471C90.4705 44.3834 90.4327 44.2009 90.4425 44.0178V42.6891L94.2345 42.5784V41.0504L90.4425 40.9397V39.5445C90.4425 39.2755 90.5149 39.0739 90.6619 38.9433C90.8382 38.8027 91.0596 38.7329 91.2838 38.7473H94.8564V37.1252C94.5273 37.0898 94.1653 37.0621 93.7683 37.0399C93.3712 37.0185 92.9248 36.999 92.429 36.9812C91.9332 36.9635 91.3618 36.9547 90.7145 36.9547C90.4552 36.9556 90.197 36.9909 89.9467 37.0599C89.6889 37.1292 89.4471 37.2488 89.2349 37.412C89.0089 37.5915 88.8309 37.8252 88.7172 38.0918C88.5779 38.4307 88.5117 38.7958 88.523 39.1625V44.5593C88.523 45.0554 88.6031 45.4451 88.7632 45.7286C88.9038 45.9924 89.1142 46.2116 89.3709 46.3619C89.6081 46.4987 89.8685 46.5896 90.1387 46.6299Z" fill="black"/>
<path d="M100.843 46.6232V38.693H98.2106V36.9547H105.394V38.693H102.758V46.6232H100.843Z" fill="black"/>
<path d="M109.022 36.9547V46.6232H110.939V42.7168H114.55V46.6232H116.478V36.9547H114.55V40.9795H110.939V36.9547H109.022Z" fill="black"/>
<path d="M123.041 46.6885C122.802 46.6864 122.565 46.6669 122.329 46.6299C122.059 46.5892 121.798 46.4984 121.561 46.3619C121.304 46.2116 121.094 45.9924 120.953 45.7286C120.794 45.4451 120.714 45.0554 120.715 44.5593V39.1625C120.701 38.7964 120.764 38.4315 120.899 38.0918C121.014 37.8251 121.192 37.5914 121.418 37.412C121.63 37.2486 121.873 37.129 122.131 37.0599C122.381 36.9908 122.639 36.9555 122.898 36.9547C123.545 36.9547 124.117 36.9635 124.613 36.9812C125.108 36.999 125.555 37.0185 125.953 37.0399C126.349 37.0621 126.712 37.0898 127.04 37.1252V38.7473H123.468C123.243 38.7328 123.022 38.8026 122.846 38.9433C122.7 39.0739 122.627 39.2744 122.627 39.5445V40.9397L126.42 41.0504V42.5784L122.627 42.6891V44.0178C122.617 44.2009 122.655 44.3834 122.737 44.5471C122.803 44.667 122.909 44.7597 123.035 44.8084C123.161 44.8565 123.295 44.8808 123.43 44.8804H127.042V46.4981C126.662 46.5424 126.24 46.5793 125.78 46.6088C125.319 46.6383 124.853 46.6601 124.382 46.6741C123.911 46.683 123.464 46.6878 123.041 46.6885Z" fill="black"/>
<path fill-rule="evenodd" clip-rule="evenodd" d="M131.026 36.9547V46.6233L132.947 46.6221V43.0157C133.06 43.0291 133.186 43.0291 133.324 43.0291H133.737C133.875 43.0291 134.012 43.0313 134.146 43.0357C134.28 43.0402 134.398 43.0424 134.501 43.0424L136.036 46.6221H137.989L136.203 42.7467C136.398 42.6652 136.584 42.5643 136.759 42.4456C136.949 42.3159 137.114 42.1523 137.245 41.9628C137.404 41.7267 137.52 41.4643 137.589 41.1877C137.682 40.8165 137.725 40.4344 137.718 40.0517C137.733 39.529 137.661 39.0075 137.504 38.5093C137.389 38.1513 137.186 37.8281 136.915 37.5692C136.667 37.3437 136.37 37.1802 136.048 37.092C135.701 36.9979 135.345 36.9517 134.987 36.9547H131.026ZM134.65 41.4889H132.941V38.693H134.65C134.807 38.6908 134.965 38.7105 135.116 38.7518C135.253 38.7894 135.377 38.8614 135.478 38.961C135.592 39.0774 135.674 39.2211 135.718 39.3785C135.78 39.5972 135.808 39.8242 135.802 40.0517C135.809 40.2897 135.78 40.5274 135.718 40.757C135.673 40.9197 135.591 41.0696 135.478 41.1944C135.38 41.3013 135.254 41.3803 135.116 41.4236C134.965 41.4688 134.808 41.4908 134.65 41.4889Z" fill="black"/>
<path d="M141.472 46.6232L142.584 36.9547H144.423L146.622 44.3633L148.81 36.9547H150.635L151.762 46.6232H149.91L149.175 40.3008L147.503 46.6232H145.703L144.032 40.389L143.328 46.6232H141.472Z" fill="black"/>
<path d="M155.748 36.9547V46.6232H157.663V36.9547H155.748Z" fill="black"/>
<path d="M161.973 46.6232V36.9547H163.509L167.522 43.3314V36.9547H169.436V46.6232H167.901L163.898 40.2477V46.6232H161.973Z" fill="black"/>
<path fill-rule="evenodd" clip-rule="evenodd" d="M173.609 36.9547V46.6232L177.659 46.6265C178.411 46.6265 179.032 46.4501 179.524 46.0973C180.015 45.7444 180.384 45.2111 180.63 44.4973C180.877 43.7834 181 42.8818 181 41.7923C181.005 41.1356 180.952 40.4799 180.844 39.8324C180.758 39.2922 180.577 38.7722 180.307 38.2978C180.063 37.8748 179.707 37.5295 179.278 37.3012C178.847 37.0702 178.307 36.9547 177.66 36.9547H173.609ZM177.466 44.8859H175.525V38.6909H177.466C177.707 38.6857 177.947 38.7302 178.171 38.8215C178.385 38.9186 178.563 39.0834 178.676 39.291C178.832 39.586 178.936 39.9071 178.981 40.2388C179.057 40.7518 179.092 41.2702 179.084 41.789C179.095 42.3639 179.04 42.9381 178.923 43.5007C178.815 43.9628 178.644 44.309 178.41 44.5394C178.284 44.6581 178.135 44.75 177.973 44.8096C177.811 44.8691 177.638 44.8951 177.466 44.8859Z" fill="black"/>
</svg>
