<svg width="200" height="84" viewBox="0 0 200 84" fill="none" xmlns="http://www.w3.org/2000/svg">
<path d="M82.5484 48.6617C81.7682 48.3294 81.1512 47.8497 80.6994 47.2227C80.2456 46.5957 80.0127 45.8573 79.9988 45.0034H82.9983C83.0381 45.5767 83.2411 46.0305 83.6073 46.3629C83.9735 46.6973 84.4771 46.8625 85.116 46.8625C85.7549 46.8625 86.2824 46.7052 86.6566 46.3927C87.0288 46.0802 87.2159 45.6702 87.2159 45.1627C87.2159 44.7507 87.0885 44.4103 86.8357 44.1436C86.5829 43.8769 86.2665 43.6679 85.8863 43.5127C85.5061 43.3594 84.9827 43.1902 84.3159 43.0031C83.4103 42.7364 82.6718 42.4737 82.1066 42.2129C81.5393 41.9522 81.0537 41.5601 80.6476 41.0327C80.2416 40.5072 80.0386 39.8026 80.0386 38.9229C80.0386 38.0969 80.2456 37.3763 80.6576 36.7633C81.0716 36.1503 81.6508 35.6806 82.3972 35.3541C83.1436 35.0277 83.9974 34.8645 84.9568 34.8645C86.3958 34.8645 87.5662 35.2148 88.4658 35.9154C89.3655 36.616 89.8631 37.5913 89.9566 38.8452H86.8775C86.8496 38.3656 86.6466 37.9695 86.2684 37.655C85.8883 37.3425 85.3847 37.1853 84.7578 37.1853C84.2104 37.1853 83.7745 37.3246 83.4481 37.6052C83.1217 37.8859 82.9585 38.2919 82.9585 38.8253C82.9585 39.1995 83.0819 39.508 83.3287 39.7548C83.5755 40.0016 83.882 40.2027 84.2482 40.3539C84.6144 40.5072 85.1319 40.6843 85.7987 40.8834C86.7043 41.1501 87.4447 41.4168 88.018 41.6835C88.5912 41.9502 89.0848 42.3503 89.4968 42.8837C89.8889 43.3912 90.0959 44.0481 90.1158 44.8562C90.1258 45.2542 90.08 45.6563 89.9745 46.0404C89.658 47.1769 88.9475 48.0288 87.8388 48.5921C87.0925 48.9722 86.2067 49.1613 85.1797 49.1613C84.2064 49.1613 83.3307 48.9941 82.5504 48.6617H82.5484Z" fill="black"/>
<path d="M95.6472 48.2418C94.5544 47.6287 93.6866 46.7789 93.0477 45.6921C92.4068 44.6054 92.0884 43.3753 92.0884 42.002C92.0884 40.6286 92.4088 39.4185 93.0477 38.3337C93.6866 37.247 94.5544 36.3971 95.6472 35.7841C96.7399 35.171 97.9401 34.8645 99.2457 34.8645C100.551 34.8645 101.768 35.171 102.854 35.7841C103.941 36.3971 104.801 37.247 105.434 38.3337C106.067 39.4205 106.383 40.6425 106.383 42.002C106.383 43.3614 106.067 44.6054 105.434 45.6921C104.801 46.7789 103.937 47.6287 102.844 48.2418C101.752 48.8548 100.551 49.1613 99.2457 49.1613C97.9401 49.1613 96.7399 48.8548 95.6472 48.2418ZM101.467 46.0922C102.106 45.712 102.607 45.1686 102.966 44.4621C103.326 43.7555 103.505 42.9355 103.505 42.002C103.505 41.0685 103.326 40.2524 102.966 39.5518C102.605 38.8512 102.106 38.3158 101.467 37.9416C100.826 37.5694 100.088 37.3823 99.2477 37.3823C98.4078 37.3823 97.6654 37.5694 97.0185 37.9416C96.3717 38.3158 95.8681 38.8512 95.5098 39.5518C95.1496 40.2524 94.9704 41.0685 94.9704 42.002C94.9704 42.9355 95.1496 43.7555 95.5098 44.4621C95.8701 45.1686 96.3736 45.712 97.0185 46.0922C97.6654 46.4723 98.4078 46.6614 99.2477 46.6614C100.088 46.6614 100.828 46.4703 101.467 46.0922Z" fill="black"/>
<path d="M111.158 46.8027H115.758V49.0219H108.36V35.0635H111.16V46.8007L111.158 46.8027Z" fill="black"/>
<path d="M120.278 48.6617C119.498 48.3294 118.881 47.8497 118.429 47.2227C117.975 46.5957 117.742 45.8573 117.728 45.0034H120.728C120.768 45.5767 120.971 46.0305 121.337 46.3629C121.703 46.6973 122.207 46.8625 122.848 46.8625C123.488 46.8625 124.014 46.7052 124.388 46.3927C124.762 46.0802 124.949 45.6702 124.949 45.1627C124.949 44.7507 124.822 44.4103 124.569 44.1436C124.316 43.8769 124 43.6679 123.62 43.5127C123.24 43.3594 122.716 43.1902 122.049 43.0031C121.142 42.7364 120.405 42.4737 119.84 42.2129C119.273 41.9522 118.787 41.5601 118.381 41.0327C117.975 40.5072 117.772 39.8026 117.772 38.9229C117.772 38.0969 117.979 37.3763 118.391 36.7633C118.805 36.1503 119.384 35.6806 120.131 35.3541C120.877 35.0277 121.731 34.8645 122.69 34.8645C124.129 34.8645 125.3 35.2148 126.199 35.9154C127.099 36.616 127.597 37.5913 127.69 38.8452H124.611C124.585 38.3656 124.382 37.9695 124.002 37.655C123.622 37.3425 123.118 37.1853 122.493 37.1853C121.946 37.1853 121.51 37.3246 121.184 37.6052C120.857 37.8859 120.694 38.2919 120.694 38.8253C120.694 39.1995 120.817 39.508 121.064 39.7548C121.311 40.0016 121.617 40.2027 121.984 40.3539C122.35 40.5072 122.867 40.6843 123.534 40.8834C124.44 41.1501 125.18 41.4168 125.753 41.6835C126.327 41.9502 126.82 42.3503 127.232 42.8837C127.628 43.3972 127.835 44.062 127.851 44.882C127.859 45.2781 127.811 45.6782 127.704 46.0603C127.384 47.1869 126.675 48.0308 125.572 48.5921C124.826 48.9722 123.94 49.1613 122.913 49.1613C121.94 49.1613 121.064 48.9941 120.284 48.6617H120.278Z" fill="black"/>
<path d="M140.056 35.0635V37.3225H136.336V49.0199H133.536V37.3225H129.816V35.0635H140.054H140.056Z" fill="black"/>
<path d="M150.384 38.3337C151.003 37.247 151.851 36.4011 152.924 35.794C153.997 35.1869 155.201 34.8844 156.532 34.8844C158.093 34.8844 159.458 35.2845 160.633 36.0846C161.805 36.8847 162.625 37.9914 163.093 39.4045H159.874C159.554 38.7378 159.104 38.2382 158.525 37.9058C157.946 37.5734 157.275 37.4062 156.514 37.4062C155.7 37.4062 154.978 37.5973 154.345 37.9754C153.712 38.3556 153.218 38.893 152.866 39.5857C152.512 40.2783 152.337 41.0924 152.337 42.0258C152.337 42.9593 152.514 43.7555 152.866 44.4561C153.218 45.1567 153.712 45.6961 154.345 46.0762C154.978 46.4564 155.7 46.6455 156.514 46.6455C157.275 46.6455 157.944 46.4763 158.525 46.136C159.104 45.7956 159.554 45.292 159.874 44.6253H163.093C162.625 46.0524 161.809 47.161 160.642 47.9552C159.476 48.7493 158.107 49.1454 156.532 49.1454C155.199 49.1454 153.997 48.8429 152.924 48.2358C151.851 47.6287 151.003 46.7868 150.384 45.706C149.765 44.6253 149.455 43.3992 149.455 42.0258C149.455 40.6525 149.765 39.4224 150.384 38.3377V38.3337Z" fill="black"/>
<path d="M168.146 37.3226V40.8217H172.846V43.0409H168.146V46.741H173.445V49.02H165.346V35.0416H173.445V37.3206H168.146V37.3226Z" fill="black"/>
<path d="M142.835 48.9722H140.056L146.113 35.0436H148.891L142.835 48.9722Z" fill="black"/>
<path d="M58.0429 22.9681L40.8879 62.256C51.421 65.9919 63.204 60.9941 67.744 50.5924C72.286 40.1907 67.941 28.153 58.0409 22.9661L58.0429 22.9681ZM47.6592 53.5362L56.2038 33.8136C56.8945 34.5022 57.4896 35.2705 57.9792 36.0985L50.5392 53.2694C49.5998 53.4764 48.6325 53.568 47.6592 53.5362ZM58.6361 46.6156C57.5871 49.018 55.8177 50.883 53.692 52.0712L59.2471 39.1657C59.8542 41.5641 59.7029 44.1735 58.6361 46.6156Z" fill="black"/>
<path d="M37.4666 37.3744C39.8432 31.9328 45.9058 29.2458 51.447 30.9595L55.4397 21.8157C44.8489 17.9265 32.9306 22.9204 28.3567 33.3957C23.7829 43.871 28.2234 56.0083 38.2747 61.1315L42.2674 51.9877C37.2437 49.0878 35.0941 42.8141 37.4686 37.3724L37.4666 37.3744Z" fill="black"/>
</svg>
