<svg width="200" height="84" viewBox="0 0 200 84" fill="none" xmlns="http://www.w3.org/2000/svg">
<path d="M48.6234 32.8912C49.1955 32.9101 49.7767 32.9294 50.3694 32.9294C50.3694 33.6179 50.3694 34.2298 50.3313 34.8035C50.3694 35.951 50.8267 36.4482 51.9701 36.4864C53.9138 36.5629 55.7051 37.0984 57.344 38.2076C57.6107 38.3988 58.1824 38.5518 58.4111 38.3988C58.6779 38.2459 58.8303 37.7486 58.8303 37.3661C58.8684 34.2681 55.6289 31.017 52.5037 31.017C50.9298 30.9915 49.3728 31 47.8102 31.0085C47.0268 31.0127 46.242 31.017 45.4529 31.017C45.1861 31.017 44.8812 31.017 44.6144 31.0935C41.3368 31.8585 38.5927 34.727 39.05 39.0491C39.393 42.1854 42.3277 44.8627 45.7959 45.054C46.9012 45.1305 47.511 44.8245 47.4728 44.136C47.4392 43.2251 46.8125 43.207 46.1943 43.1891C46.1117 43.1867 46.0292 43.1843 45.9484 43.1798C45.7645 43.1798 45.5625 43.1435 45.3673 43.1084C45.2793 43.0925 45.1928 43.077 45.1099 43.0651C42.5945 42.5679 40.9175 40.5025 40.9175 37.9781C40.9175 35.5303 42.6326 33.2736 45.0337 32.9676C46.2044 32.811 47.3929 32.8504 48.6234 32.8912Z" fill="black"/>
<path d="M130.609 39.8306C130.075 40.4256 129.54 41.0214 128.995 41.6117C128.966 41.5971 128.937 41.5881 128.912 41.5804C128.872 41.5679 128.843 41.5588 128.843 41.5352V33.1589C128.805 32.1645 128.233 31.5525 127.433 31.5525C126.632 31.5525 126.022 32.1645 126.022 33.1207V51.1737C126.022 52.1681 126.518 52.7418 127.394 52.7418C128.271 52.7801 128.767 52.2446 128.805 51.2119C128.83 50.7274 128.822 50.243 128.813 49.7585C128.809 49.5163 128.805 49.274 128.805 49.0318V44.4803C129.005 44.5138 129.176 44.5327 129.331 44.5497C129.529 44.5715 129.701 44.5903 129.872 44.6333C133.607 45.3982 135.855 47.8461 136.427 51.8239C136.541 52.7418 137.037 52.8183 137.723 52.7418C138.523 52.6271 139.095 51.9004 138.981 51.0972C138.447 47.2724 136.389 44.5568 132.959 42.8356C132.692 42.7209 132.425 42.6061 132.044 42.4149L132.314 42.1113C133.821 40.4192 135.296 38.763 136.77 37.1749C137.266 36.6395 137.304 36.104 136.961 35.5303C136.58 34.9566 135.97 34.8418 135.436 35.1861C134.674 35.6833 133.912 36.257 133.302 36.9072C132.375 37.8609 131.492 38.8452 130.609 39.8306Z" fill="black"/>
<path d="M82.803 31.6672C85.3565 31.782 87.5671 32.5469 89.0916 34.7271C89.4346 35.2243 89.6632 35.9127 89.6251 36.4865C89.5489 37.4044 88.6723 37.7869 87.8339 37.3279C87.4527 37.0984 87.0335 36.7542 86.8429 36.3335C85.6233 34.1533 81.8883 33.8856 80.097 35.0713C78.2295 36.2952 78.2677 38.9343 80.3257 39.8523C81.2395 40.2664 82.2672 40.4975 83.2679 40.7225C83.561 40.7885 83.852 40.8539 84.137 40.9232C84.4062 40.9983 84.6755 41.0498 84.9425 41.1008C85.3557 41.1798 85.7633 41.2578 86.1569 41.4204C89.2059 42.5296 90.4636 44.0595 90.1587 47.8843C89.9681 50.2175 88.0244 52.2446 85.3565 52.7418C83.489 53.086 81.6215 53.0478 79.8303 52.3976C76.9718 51.4031 74.99 48.5345 75.1424 45.5512C75.1805 44.595 75.676 44.0213 76.4764 43.983C77.2767 43.9448 77.9246 44.4803 77.9246 45.3982C77.9628 49.5672 81.1642 50.6382 84.3656 50.2175C85.6615 50.0262 86.7286 49.4907 87.2241 48.1903C87.9482 46.3927 87.2622 44.595 85.3947 44.0213C84.4243 43.7269 83.4272 43.5129 82.435 43.3C81.7515 43.1534 81.0704 43.0072 80.4019 42.8356C78.6488 42.3384 77.0481 41.5352 76.362 39.661C75.1805 36.257 76.5907 33.1589 80.1733 32.1262C80.864 31.9056 81.6064 31.8149 82.3366 31.7256C82.4928 31.7065 82.6486 31.6874 82.803 31.6672Z" fill="black"/>
<path fill-rule="evenodd" clip-rule="evenodd" d="M118.095 39.3168C118.113 39.1896 118.123 39.0797 118.132 38.9748C118.142 38.8588 118.151 38.7488 118.171 38.6284C118.286 37.7869 118.857 37.2514 119.62 37.2514C120.382 37.2897 120.953 37.8634 120.992 38.7049C121.017 39.5194 121.009 40.317 121 41.1202C120.996 41.5239 120.992 41.929 120.992 42.3384V48.4581C120.992 49.0318 121.106 49.3378 121.716 49.4525C122.516 49.6438 122.935 50.2557 122.783 51.0972C122.63 51.9004 121.868 52.3594 120.953 52.2064C119.734 52.0151 118.895 51.2502 118.247 50.141C117.371 51.4032 116.266 52.2829 114.779 52.5124C111.616 53.0478 108.643 51.4414 107.576 48.3816C106.661 45.819 106.699 43.2181 107.995 40.6938C109.901 36.9455 115.503 36.1805 117.828 39.1256C117.857 39.2117 117.907 39.2332 117.994 39.2708C118.024 39.2834 118.057 39.2977 118.095 39.3168ZM118.091 44.2605C118.048 43.913 117.998 43.501 117.904 43.1034C117.485 41.4587 116.037 40.2348 114.436 40.12C112.454 39.967 110.968 40.8085 110.282 42.6062C109.672 44.1361 109.672 45.7425 110.168 47.2724C110.93 49.6438 113.75 50.6765 115.923 49.4525C117.638 48.4963 118.095 46.8899 118.171 44.8245C118.142 44.676 118.118 44.4811 118.091 44.2605Z" fill="black"/>
<path d="M150.986 39.6227C151.178 39.4121 151.331 39.2337 151.465 39.0764C151.623 38.891 151.756 38.7349 151.901 38.59C154.683 36.1039 159.561 37.4426 160.59 41.0379C160.819 41.8029 160.933 42.6061 160.971 43.371C161.01 45.9336 161.01 48.458 160.971 51.0206C160.971 52.168 160.438 52.7418 159.523 52.7418C158.647 52.7418 158.151 52.168 158.151 51.0588V44.7479C158.151 44.3655 158.151 43.983 158.113 43.6005C157.961 41.4586 156.932 40.1964 155.216 40.1199C152.968 40.0052 151.329 41.1526 151.1 43.2945C150.957 44.586 150.943 45.899 150.929 47.2173L150.929 47.2261C150.924 47.6619 150.919 48.0982 150.91 48.5345C150.893 48.9443 150.898 49.3541 150.903 49.7639C150.909 50.3103 150.915 50.8567 150.872 51.4031C150.834 52.168 150.414 52.7418 149.576 52.78C148.737 52.8182 148.28 52.3593 148.128 51.5561C148.089 51.2883 148.089 50.9823 148.089 50.7146V39.2402C148.089 38.8578 148.089 38.3988 148.318 38.1693C148.661 37.7868 149.271 37.3279 149.652 37.4043C150.045 37.4702 150.411 37.9322 150.723 38.3279C150.774 38.3921 150.824 38.4548 150.872 38.5135C150.96 38.6245 150.959 38.8 150.957 39.0323C150.956 39.2003 150.954 39.3981 150.986 39.6227Z" fill="black"/>
<path d="M102.621 37.7486H99.0007V36.4482C99.0007 35.2243 99.0007 33.962 98.9245 32.7381C98.8864 31.9732 98.3528 31.5524 97.5525 31.5907C96.7902 31.6289 96.3329 32.0497 96.2567 32.8529C96.2186 33.2353 96.2185 33.6178 96.2185 34.0003V37.7868C95.7842 37.7868 95.3725 37.7823 94.9757 37.7779C94.2237 37.7695 93.5251 37.7618 92.8265 37.7868C92.0262 37.8251 91.4164 38.2076 91.3402 39.0873C91.2639 39.814 91.95 40.3494 92.9028 40.3877C93.665 40.4259 94.4654 40.4259 95.2657 40.3877C95.9899 40.3494 96.2567 40.5789 96.2185 41.3056C96.1804 42.0132 96.19 42.7304 96.1995 43.4475C96.209 44.1647 96.2185 44.8818 96.1804 45.5894C95.9899 49.07 98.6196 52.3593 102.469 52.6653C103.917 52.78 104.756 52.3593 104.832 51.3648C104.908 50.4086 104.336 49.9879 102.85 49.8732C100.83 49.7202 99.2675 48.5727 99.1151 46.8133C98.9838 45.3644 99.0153 43.9154 99.0476 42.429C99.0622 41.7575 99.077 41.078 99.077 40.3877H100.335C100.611 40.3877 100.887 40.3901 101.164 40.3925C101.993 40.3996 102.822 40.4068 103.65 40.3494C104.413 40.3112 104.832 39.8522 104.832 39.0873C104.832 38.3606 104.451 37.9398 103.765 37.8251C103.384 37.7868 103.003 37.7486 102.621 37.7486Z" fill="black"/>
<path d="M49.3856 50.9914C50.6408 51.0405 51.8375 51.0873 52.9992 50.9059C55.5908 50.4852 57.1153 48.2286 57.001 45.5512C56.8866 43.1034 54.9429 41.1145 52.4275 40.8467C52.1607 40.8085 51.932 40.8085 51.6652 40.8085C50.9792 40.8085 50.4075 40.6172 50.4456 39.814C50.4837 39.0873 51.0173 38.8961 51.6652 38.8961C53.3041 38.8961 54.8286 39.3551 56.1244 40.3113C58.5254 42.1089 59.5164 45.2835 58.6398 48.0756C57.7251 50.9442 55.0953 52.9331 52.0463 52.9713C50.0645 53.0096 48.0446 53.0096 46.0627 52.9713C42.6707 52.9331 40.1553 50.9442 39.2025 47.7314C39.0881 47.3871 39.0119 46.9664 39.05 46.6222C39.0881 46.2397 39.2025 45.7042 39.4693 45.5512C39.6979 45.3982 40.2696 45.5512 40.5745 45.7425C42.2134 46.8134 44.0046 47.3871 45.9484 47.4636C47.0155 47.5019 47.4729 47.9608 47.5491 49.07V50.9442C48.1762 50.9442 48.7876 50.9681 49.3856 50.9914Z" fill="black"/>
<path d="M144.202 50.9824C144.202 52.1681 143.707 52.7418 142.792 52.7418C141.877 52.7418 141.382 52.1681 141.382 50.9824V38.9726C141.382 37.8252 141.877 37.2514 142.83 37.2514C143.707 37.2897 144.202 37.8634 144.202 38.9344V50.9824Z" fill="black"/>
<path d="M144.659 33.6179C144.659 32.5087 143.897 31.7055 142.754 31.7055C141.687 31.7055 140.81 32.5852 140.848 33.6179C140.848 34.6123 141.763 35.492 142.716 35.5303C143.783 35.5685 144.659 34.6888 144.659 33.6179Z" fill="black"/>
</svg>
