<svg width="200" height="84" viewBox="0 0 200 84" fill="none" xmlns="http://www.w3.org/2000/svg">
<path fill-rule="evenodd" clip-rule="evenodd" d="M61.7014 31.8046L56.6239 36.882L49.179 29.4364C47.7654 28.0227 45.474 28.0227 44.0603 29.4364C42.6479 30.8489 42.6479 33.1414 44.0603 34.5539L51.5033 42.0027L46.4424 47.0637C45.0299 48.4762 45.0299 50.7675 46.4424 52.1812C47.8561 53.5949 50.1474 53.5949 51.5611 52.1812L56.6192 47.1229L64.0693 54.5635C65.4829 55.9772 67.7743 55.9772 69.1879 54.5635C70.6004 53.1499 70.6004 50.8585 69.1879 49.446L61.7426 41.9995L66.82 36.9221C68.2325 35.5096 68.2325 33.2171 66.82 31.8046C65.4064 30.3909 63.115 30.3909 61.7014 31.8046ZM56.6239 36.882L54.4912 39.014C52.842 40.6628 52.8419 43.3364 54.4909 44.9854L56.6237 47.1182L58.7565 44.9854C60.4055 43.3364 60.4053 40.6628 58.7561 39.014L56.6239 36.882ZM123.525 51.8995V31.0902H127.747V42.5504L131.969 37.7251H136.794L131.366 44.3599L137.512 51.3444L144.334 42.2488L137.096 31.995H142.524L146.746 38.3282L150.969 31.995H156.397L149.461 42.2488L157 51.8995H151.27L146.746 45.2647L141.921 51.8995H132.874L127.747 46.1694V51.8995H123.525ZM98.4931 51.8995C102.491 51.8995 105.731 48.6589 105.731 44.6615C105.731 40.6641 102.491 37.4235 98.4931 37.4235C94.4956 37.4235 91.2551 40.6641 91.2551 44.6615C91.2551 48.6589 94.4956 51.8995 98.4931 51.8995ZM98.4931 48.2805C100.492 48.2805 102.112 46.6602 102.112 44.6615C102.112 42.6628 100.492 41.0425 98.4931 41.0425C96.4943 41.0425 94.8741 42.6628 94.8741 44.6615C94.8741 46.6602 96.4943 48.2805 98.4931 48.2805ZM121.185 46.471C120.382 49.5928 117.548 51.8995 114.175 51.8995C110.178 51.8995 106.937 48.6589 106.937 44.6615C106.937 40.6641 110.178 37.4235 114.175 37.4235C117.762 37.4235 120.739 40.0319 121.313 43.4552H117.589C117.092 42.0495 115.751 41.0425 114.175 41.0425C112.177 41.0425 110.556 42.6628 110.556 44.6615C110.556 46.6602 112.177 48.2805 114.175 48.2805C115.515 48.2805 116.685 47.5527 117.31 46.471H121.185ZM75.2711 32.2966V51.8995H79.7949V43.4552L87.0329 51.8995H92.4614L85.2234 43.1536C86.6308 42.9525 89.4456 41.5853 89.4456 37.7251C89.4456 33.8648 86.6308 32.4976 85.2234 32.2966H75.2711ZM83.1123 35.614H79.7949V39.8362H83.1123C84.2782 39.8362 85.2234 38.891 85.2234 37.7251C85.2234 36.5591 84.2782 35.614 83.1123 35.614Z" fill="black"/>
</svg>
