<svg width="200" height="84" viewBox="0 0 200 84" fill="none" xmlns="http://www.w3.org/2000/svg">
<path fill-rule="evenodd" clip-rule="evenodd" d="M82.0207 36.9729C83.5343 36.9729 84.3935 37.8167 84.7333 39.1056H87.9192C87.3761 36.0435 85.0946 34.3545 81.9985 34.3545C80.2816 34.3545 78.8348 34.903 77.6595 36.0007C76.9591 36.6555 76.5296 37.3944 76.3493 38.2603C76.169 39.1048 76.0777 40.3502 76.0777 41.9979C76.0777 43.6441 76.169 44.8902 76.3493 45.7354C76.5296 46.5792 76.9591 47.3388 77.6595 47.9936C78.8348 49.092 80.2816 49.6398 81.9985 49.6398C85.0716 49.6398 87.3761 47.9515 87.9192 44.8902H84.7333C84.3935 46.1776 83.5343 47.0228 82.0207 47.0228C81.1623 47.0228 80.4849 46.7696 80.01 46.2411C79.3549 45.5863 79.2191 44.9116 79.2191 41.9971C79.2191 39.0835 79.3549 38.408 80.0093 37.7532C80.4841 37.2254 81.1623 36.9722 82.0207 36.9722V36.9729ZM100.029 40.6248H100.029V40.4964V40.6248H100.029ZM100.029 34.4836V40.4943H96.8872V43.5007H100.029V43.2225H100.029V49.5157H103.17V34.4807H100.029V34.4843L100.029 34.4836ZM91.442 49.5143H94.5834V34.4815H91.442V49.5143ZM114.779 46.2204C114.327 46.7054 113.626 47.0228 112.768 47.0228C111.909 47.0228 111.186 46.7061 110.735 46.2204C110.124 45.5863 109.965 44.8902 109.965 41.9979C109.965 39.1041 110.124 38.408 110.734 37.7753C111.187 37.2896 111.909 36.9729 112.767 36.9729C113.626 36.9729 114.327 37.2896 114.779 37.7753C115.389 38.408 115.57 39.1041 115.57 41.9979C115.57 44.8902 115.389 45.5863 114.779 46.2204H114.779ZM112.768 34.3545C110.938 34.3545 109.537 34.9451 108.407 36.0007C106.78 37.5214 106.826 39.4009 106.826 41.9979C106.826 44.5942 106.78 46.4729 108.407 47.9936C109.537 49.0492 110.938 49.6398 112.768 49.6398C114.599 49.6398 115.976 49.0492 117.107 47.9936C118.734 46.4729 118.712 44.5949 118.712 41.9979C118.712 39.4009 118.734 37.5214 117.107 36.0007C115.976 34.9451 114.599 34.3545 112.768 34.3545ZM128.181 41.0685H125.221V37.0991H128.181C129.559 37.0991 130.463 37.923 130.463 39.0842C130.463 40.2454 129.559 41.0685 128.181 41.0685ZM133.605 39.0842C133.605 36.5713 131.661 34.4815 128.384 34.4815H122.08V49.5143H125.22V43.5178H127.48L130.621 49.5143H134.259L130.666 43.0328C132.225 42.505 133.604 41.1947 133.604 39.0842H133.605ZM145.714 44.2568C145.714 45.9879 144.606 47.0228 142.912 47.0228C141.217 47.0228 140.132 45.9879 140.132 44.2568V34.4807H136.991V44.3631C136.991 47.5506 139.613 49.6405 142.912 49.6405C146.211 49.6405 148.832 47.5506 148.832 44.3623V34.4815H145.714V44.2575V44.2568ZM161.757 41.8916C161.079 41.301 160.153 40.9201 158.683 40.7311L156.785 40.4772C156.13 40.393 155.61 40.1605 155.294 39.8859C154.957 39.5906 154.82 39.1897 154.82 38.8088C154.82 37.7746 155.632 36.9087 157.306 36.9087C158.367 36.9087 159.588 37.0357 160.604 37.9437L162.593 36.107C161.215 34.8609 159.61 34.3538 157.396 34.3538C153.916 34.3538 151.792 36.2332 151.792 38.9144C151.792 40.1812 152.176 41.1534 152.944 41.8709C153.667 42.5257 154.684 42.9265 156.063 43.1163L158.007 43.3695C158.752 43.4757 159.113 43.6234 159.43 43.8973C159.768 44.1933 159.927 44.6362 159.927 45.1648C159.927 46.3673 158.933 47.0221 157.08 47.0221C155.589 47.0221 154.21 46.7054 153.192 45.7553L151.159 47.6555C152.741 49.1548 154.594 49.6405 157.034 49.6405C160.402 49.6405 163 47.9936 163 45.0799C163 43.7496 162.616 42.6519 161.757 41.8916ZM37.0074 52.8845L40.2586 55.995L43.5084 52.8845L40.2586 49.7739L37.0082 52.8837L37.0074 52.8845ZM66.261 31.1106L63.0112 28L59.76 31.1106L63.0105 34.2211L66.261 31.1106ZM54.8847 45.1077L51.6349 48.2183L48.3837 45.1084L45.134 41.9971L48.3837 38.8873L51.6342 35.776L54.8847 38.8866L58.1344 41.9971L54.8847 45.1077ZM64.6354 41.9979L61.3856 38.8866L58.1352 35.7767L54.8847 32.6655L51.6349 29.5556L48.3837 32.6655L45.134 35.776L41.8835 38.8866L38.6323 41.9971L41.882 45.1077L45.1325 48.2183L48.383 51.3288L51.6335 54.4394L54.8832 51.3295L58.1344 48.2183L61.3842 45.1084L64.6346 41.9971L64.6354 41.9979ZM59.7563 52.8902L63.0068 56L66.2573 52.8902L63.0075 49.7796L59.7563 52.8894V52.8902ZM43.5002 31.1127L40.2505 28.0021L37 31.1127L40.2497 34.2233L43.5002 31.1127Z" fill="black"/>
</svg>
