<svg width="200" height="84" viewBox="0 0 200 84" fill="none" xmlns="http://www.w3.org/2000/svg">
<path fill-rule="evenodd" clip-rule="evenodd" d="M35.4924 29C35.2205 29 35 29.2156 35 29.4815V43.9259C35 44.1918 35.2205 44.4074 35.4924 44.4074H73.9015C74.1735 44.4074 74.3939 44.1918 74.3939 43.9259V29.4815C74.3939 29.2156 74.1735 29 73.9015 29H35.4924ZM69.2235 39.5926C69.3595 39.5926 69.4697 39.4848 69.4697 39.3519V34.0556C69.4697 33.9226 69.3595 33.8148 69.2235 33.8148H40.1705C40.0345 33.8148 39.9242 33.9226 39.9242 34.0556V39.3519C39.9242 39.4848 40.0345 39.5926 40.1705 39.5926H69.2235Z" fill="black"/>
<path d="M39.9242 50.6667C39.9242 50.4008 39.7038 50.1852 39.4318 50.1852H35.4924C35.2205 50.1852 35 50.4008 35 50.6667V54.5185C35 54.7844 35.2205 55 35.4924 55H39.4318C39.7038 55 39.9242 54.7844 39.9242 54.5185V50.6667Z" fill="black"/>
<path d="M130.53 50.6667C130.53 50.4008 130.31 50.1852 130.038 50.1852H126.098C125.827 50.1852 125.606 50.4008 125.606 50.6667V54.5185C125.606 54.7844 125.827 55 126.098 55H130.038C130.31 55 130.53 54.7844 130.53 54.5185V50.6667Z" fill="black"/>
<path d="M80.303 50.6667C80.303 50.4008 80.5235 50.1852 80.7955 50.1852H119.205C119.477 50.1852 119.697 50.4008 119.697 50.6667V54.5185C119.697 54.7844 119.477 55 119.205 55H80.7955C80.5235 55 80.303 54.7844 80.303 54.5185V50.6667Z" fill="black"/>
<path fill-rule="evenodd" clip-rule="evenodd" d="M125.606 29.4815C125.606 29.2156 125.827 29 126.098 29H164.508C164.78 29 165 29.2156 165 29.4815V43.9259C165 44.1918 164.78 44.4074 164.508 44.4074H126.098C125.827 44.4074 125.606 44.1918 125.606 43.9259V29.4815ZM159.83 33.8148C159.966 33.8148 160.076 33.9226 160.076 34.0556V39.3519C160.076 39.4848 159.966 39.5926 159.83 39.5926H130.777C130.641 39.5926 130.53 39.4848 130.53 39.3519V34.0556C130.53 33.9226 130.641 33.8148 130.777 33.8148H159.83Z" fill="black"/>
<path d="M80.7955 29C80.5235 29 80.303 29.2156 80.303 29.4815V33.3333C80.303 33.5992 80.5235 33.8148 80.7955 33.8148H114.527C114.662 33.8148 114.773 33.9226 114.773 34.0556V39.3519C114.773 39.4848 114.662 39.5926 114.527 39.5926H80.7955C80.5235 39.5926 80.303 39.8082 80.303 40.0741V43.9259C80.303 44.1918 80.5235 44.4074 80.7955 44.4074H119.205C119.477 44.4074 119.697 44.1918 119.697 43.9259V29.4815C119.697 29.2156 119.477 29 119.205 29H80.7955Z" fill="black"/>
</svg>
