<svg width="200" height="84" viewBox="0 0 200 84" fill="none" xmlns="http://www.w3.org/2000/svg">
<path fill-rule="evenodd" clip-rule="evenodd" d="M27.9145 29L19.0047 34.3091L19 35.9348L23.7132 38.7253L19.0066 41.5298L19.0019 43.1556L23.1389 45.605L19.0066 48.0651L19.0019 49.6909L27.969 55L36.8788 49.6909L36.8835 48.0651L32.7485 45.6167L36.8788 43.1556L36.8836 41.5298L32.1701 38.7392L36.8769 35.9342L36.8817 34.3084L27.9145 29ZM24.3202 39.0847L27.9672 41.2439L31.5634 39.1008L36.2734 41.8898V42.7971L27.9711 47.7455L19.6141 42.7971V41.8898L24.3202 39.0847Z" fill="black"/>
<path fill-rule="evenodd" clip-rule="evenodd" d="M62.4864 33.2578V39.5426C63.1452 38.3678 64.9838 37.7232 66.1664 37.7232C69.4374 37.7232 71.8687 39.75 71.8687 43.6645C71.8687 47.3951 69.3929 49.6059 66.0983 49.6059C65.3923 49.6463 64.688 49.4998 64.0548 49.1808C63.4215 48.8618 62.881 48.3813 62.4864 47.7865V49.352H59.7149V33.2578H62.4864ZM62.668 43.6669C62.6556 44.1027 62.7295 44.5365 62.8853 44.9428C63.0413 45.3491 63.276 45.7197 63.5757 46.0324C63.8754 46.3452 64.234 46.5938 64.6302 46.7636C65.0264 46.9333 65.4521 47.0208 65.8822 47.0208C66.3124 47.0208 66.7381 46.9333 67.1343 46.7636C67.5305 46.5938 67.889 46.3452 68.1887 46.0324C68.4884 45.7197 68.7232 45.3491 68.8791 44.9428C69.035 44.5364 69.109 44.1025 69.0966 43.6666C69.1221 43.2322 69.058 42.7971 68.9085 42.3892C68.7589 41.9812 68.527 41.6094 68.2278 41.2973C67.9285 40.9852 67.5683 40.7398 67.1703 40.5768C66.7723 40.4137 66.3451 40.3365 65.916 40.3501C65.4854 40.3428 65.0579 40.4239 64.659 40.5883C64.2601 40.7528 63.8981 40.9973 63.5948 41.3071C63.2914 41.6169 63.0529 41.9857 62.8937 42.3913C62.7344 42.7968 62.6577 43.2307 62.668 43.6669Z" fill="black"/>
<path d="M77.2292 33.2584V49.3554H74.4807V33.2584H77.2292Z" fill="black"/>
<path fill-rule="evenodd" clip-rule="evenodd" d="M90.9843 45.9955C91.2653 45.2614 91.3923 44.476 91.3573 43.6894C91.3656 42.9084 91.221 42.1334 90.9319 41.4094C90.6428 40.6854 90.215 40.0267 89.6731 39.4714C89.1312 38.9162 88.486 38.4753 87.7749 38.1745C87.0639 37.8736 86.3011 37.7187 85.5305 37.7187C84.76 37.7187 83.9972 37.8736 83.2861 38.1745C82.575 38.4753 81.9299 38.9162 81.388 39.4714C80.8461 40.0267 80.4182 40.6854 80.1291 41.4094C79.84 42.1334 79.6954 42.9084 79.7037 43.6894C79.7037 46.9594 81.8846 49.6075 85.5194 49.6075C86.2954 49.643 87.0701 49.5142 87.7942 49.2293C88.5183 48.9445 89.1761 48.5098 89.7253 47.953C90.2746 47.3963 90.7033 46.7296 90.9843 45.9955ZM85.5194 47.0286C83.4978 47.0286 82.4752 45.4165 82.4752 43.6894C82.4752 41.9857 83.5215 40.3277 85.5194 40.327C85.938 40.3425 86.3493 40.442 86.7296 40.6199C87.1099 40.7978 87.4515 41.0504 87.7347 41.3632C88.0179 41.676 88.237 42.0427 88.3793 42.4421C88.5216 42.8414 88.5842 43.2654 88.5635 43.6894C88.5635 45.4165 87.541 47.0286 85.5194 47.0286Z" fill="black"/>
<path d="M103.446 47.9044C102.89 48.4923 102.219 48.9557 101.475 49.2651C100.732 49.5744 99.9333 49.7227 99.1301 49.7006C95.8814 49.7006 93.1781 47.7203 93.1781 43.6901C93.1781 39.6599 95.8814 37.6797 99.1301 37.6797C99.8832 37.6535 100.633 37.7899 101.33 38.0797C102.028 38.3696 102.656 38.8063 103.174 39.3609L101.424 41.2262C100.809 40.6577 100.008 40.338 99.1754 40.3277C98.741 40.3165 98.309 40.3966 97.9066 40.5628C97.5042 40.729 97.14 40.9779 96.837 41.2937C96.534 41.6095 96.2988 41.9854 96.1461 42.3978C95.9934 42.8103 95.9265 43.2502 95.9496 43.6901C95.9181 44.1256 95.978 44.5628 96.1252 44.9732C96.2724 45.3835 96.5036 45.7576 96.8037 46.0708C97.1038 46.384 97.4658 46.6293 97.8661 46.7905C98.2664 46.9517 98.6958 47.0251 99.1261 47.006C99.5766 47.0231 100.026 46.9484 100.447 46.7862C100.869 46.624 101.254 46.3776 101.58 46.0617L103.446 47.9044Z" fill="black"/>
<path d="M107.939 42.5642V33.2584H105.165V49.3554H107.936V44.2201L112.324 49.3554H115.663V49.1501L110.461 43.347L115.027 38.1659V38.0044H111.71L107.939 42.5642Z" fill="black"/>
<path d="M124.815 41.0201C124.444 40.6717 124.007 40.4025 123.531 40.2284C123.055 40.0543 122.549 39.979 122.044 40.0067C120.726 40.0067 119.999 40.4214 119.999 41.1351C119.999 41.872 120.658 42.2866 122.092 42.3783C124.204 42.5152 126.884 43.0003 126.884 46.0165C126.884 48.0199 125.271 49.747 122.068 49.747C121.111 49.8141 120.151 49.6674 119.256 49.3172C118.361 48.967 117.553 48.4218 116.889 47.7203L118.252 45.7168C119.317 46.6864 120.683 47.2484 122.113 47.3056C123.158 47.3282 124.138 46.776 124.138 45.9467C124.138 45.1639 123.502 44.8409 121.911 44.7492C119.798 44.5878 117.276 43.805 117.276 41.2261C117.276 38.6006 119.957 37.6796 122.001 37.6796C122.79 37.6264 123.581 37.7312 124.329 37.9879C125.077 38.2447 125.768 38.6484 126.363 39.1761L124.815 41.0201Z" fill="black"/>
<path d="M136.861 49.265C137.604 48.9557 138.275 48.4923 138.831 47.9044L136.969 46.0617C136.643 46.3776 136.258 46.6239 135.837 46.7861C135.415 46.9483 134.966 47.0231 134.515 47.006C134.085 47.0256 133.655 46.9525 133.254 46.7916C132.854 46.6306 132.491 46.3854 132.191 46.0722C131.89 45.7589 131.658 45.3846 131.511 44.9741C131.363 44.5635 131.303 44.1259 131.335 43.6901C131.312 43.2502 131.379 42.8102 131.531 42.3978C131.684 41.9854 131.919 41.6095 132.222 41.2937C132.525 40.9779 132.889 40.729 133.292 40.5628C133.694 40.3966 134.126 40.3165 134.561 40.3277C135.394 40.338 136.194 40.6577 136.81 41.2261L138.559 39.3609C138.041 38.8063 137.412 38.3696 136.715 38.0798C136.018 37.79 135.268 37.6536 134.515 37.6797C131.267 37.6797 128.563 39.6599 128.563 43.6901C128.563 47.7203 131.267 49.7006 134.515 49.7006C135.319 49.7227 136.118 49.5744 136.861 49.265Z" fill="black"/>
<path fill-rule="evenodd" clip-rule="evenodd" d="M149.419 38.0017H152.167V49.3547H149.419V47.6968C148.783 49.0324 147.033 49.677 145.784 49.7003C142.467 49.7235 140.014 47.6475 140.014 43.6672C140.014 39.7527 142.579 37.7027 145.852 37.7259C146.552 37.6995 147.247 37.8548 147.871 38.1772C148.495 38.4996 149.028 38.9783 149.418 39.5679L149.419 38.0017ZM142.786 43.6666C142.758 44.1198 142.824 44.5739 142.979 44.9997C143.135 45.4256 143.376 45.8137 143.689 46.139C144.001 46.4644 144.378 46.7199 144.793 46.8889C145.209 47.058 145.655 47.1369 146.103 47.1206C150.464 47.1206 150.464 40.2351 146.103 40.2351C145.656 40.216 145.211 40.2922 144.795 40.4589C144.379 40.6255 144.003 40.8789 143.69 41.2025C143.377 41.5261 143.135 41.9128 142.979 42.3374C142.823 42.762 142.758 43.2144 142.786 43.6666Z" fill="black"/>
<path fill-rule="evenodd" clip-rule="evenodd" d="M155.073 38.0026V54.0995L157.845 54.1009V48.0213C158.64 49.2646 160.389 49.6334 161.57 49.6334C165.159 49.6334 167.226 47.008 167.226 43.6921C167.262 42.912 167.139 42.1328 166.864 41.4031C166.59 40.6735 166.169 40.0091 165.63 39.4515C165.091 38.894 164.444 38.4551 163.729 38.1625C163.015 37.8699 162.249 37.7297 161.479 37.7508C160.774 37.7405 160.077 37.9 159.445 38.2163C158.813 38.5327 158.265 38.9967 157.844 39.5702V38.0026H155.073ZM163.523 41.4109C164.12 42.0155 164.455 42.8356 164.455 43.6907C164.455 44.5458 164.12 45.3659 163.523 45.9706C162.927 46.5752 162.118 46.9149 161.274 46.9149C160.431 46.9149 159.622 46.5752 159.025 45.9706C158.429 45.3659 158.094 44.5458 158.094 43.6907C158.094 42.8356 158.429 42.0155 159.025 41.4109C159.622 40.8062 160.431 40.4666 161.274 40.4666C162.118 40.4666 162.927 40.8062 163.523 41.4109Z" fill="black"/>
<path fill-rule="evenodd" clip-rule="evenodd" d="M172.202 44.6814C172.384 46.0861 173.588 47.0995 175.542 47.0995C176.633 47.1166 177.696 46.7414 178.54 46.0403L180.312 47.8139C179.003 49.0365 177.276 49.6968 175.496 49.6559C171.635 49.6559 169.34 47.2377 169.34 43.5989C169.34 40.1448 171.658 37.6576 175.292 37.6576C179.041 37.6576 181.381 40.0066 180.949 44.6814H172.202ZM178.291 42.3549C178.109 40.8811 176.973 40.1441 175.383 40.1441C174.689 40.0895 173.998 40.2797 173.426 40.6826C172.855 41.0856 172.438 41.6764 172.248 42.3549H178.291Z" fill="black"/>
</svg>
