<svg width="200" height="84" viewBox="0 0 200 84" fill="none" xmlns="http://www.w3.org/2000/svg">
<path d="M151.14 54.6352C150.868 54.6081 150.616 54.4734 150.439 54.2598C150.262 54.0461 150.173 53.7703 150.192 53.4909C150.184 53.2096 150.285 52.9366 150.474 52.7314C150.662 52.5262 150.922 52.4053 151.197 52.3952C151.405 52.3848 151.611 52.4447 151.782 52.5656C151.953 52.6865 152.081 52.8618 152.145 53.0643H153.151C153.073 52.6443 152.847 52.2682 152.515 52.0073C152.153 51.6855 151.686 51.5157 151.207 51.5322C150.703 51.5322 150.221 51.7365 149.865 52.1002C149.51 52.4639 149.31 52.9572 149.31 53.4715C149.299 53.7451 149.345 54.0178 149.445 54.2718C149.544 54.5259 149.696 54.7555 149.888 54.9455C150.255 55.3147 150.749 55.5233 151.263 55.5273C151.702 55.5382 152.131 55.3935 152.476 55.1177C152.822 54.8419 153.064 54.4521 153.16 54.0146H152.155C152.073 54.2153 151.93 54.3839 151.747 54.4956C151.565 54.6072 151.352 54.6562 151.14 54.6352ZM154.706 51.9394C154.507 51.4648 154.22 51.0336 153.862 50.6691C153.501 50.2967 153.071 50.0018 152.597 49.802C152.123 49.6021 151.615 49.5013 151.102 49.5055C150.581 49.5063 150.066 49.6117 149.585 49.8158C148.648 50.2188 147.902 50.9811 147.508 51.9394C147.308 52.4347 147.205 52.965 147.204 53.5006C147.205 54.0331 147.308 54.5603 147.508 55.0521C147.707 55.5245 147.99 55.9551 148.342 56.3224C148.697 56.6884 149.119 56.9785 149.585 57.1758C150.064 57.388 150.58 57.497 151.102 57.4958C151.624 57.497 152.141 57.388 152.62 57.1758C153.082 56.9788 153.502 56.6886 153.852 56.3224C154.213 55.9598 154.499 55.5281 154.696 55.0521C154.896 54.5603 154.999 54.0331 155 53.5006C155.002 52.9656 154.902 52.4353 154.706 51.9394ZM153.919 54.7128C153.691 55.2917 153.298 55.7867 152.79 56.1329C152.282 56.479 151.684 56.66 151.074 56.6521C150.667 56.6542 150.263 56.5718 149.888 56.4097C149.535 56.2469 149.214 56.0202 148.94 55.7406C148.669 55.4579 148.448 55.1299 148.286 54.7709C148.132 54.3861 148.051 53.9746 148.049 53.5588C148.051 53.1399 148.132 52.7252 148.286 52.337C148.593 51.5832 149.18 50.9839 149.917 50.6691C150.293 50.5108 150.695 50.4285 151.102 50.4267C151.504 50.4232 151.902 50.5021 152.274 50.6587C152.645 50.8152 152.982 51.0463 153.264 51.3382C153.854 51.9221 154.195 52.7199 154.213 53.5588C154.189 53.9594 154.089 54.3513 153.919 54.7128ZM64.0904 28.4633C61.3478 27.0902 58.3119 26.4434 55.2612 26.5821H53.5352V33.4959H56.1906C60.6289 33.4959 63.3602 36.5408 63.3602 42.0389C63.3602 47.5371 60.591 50.5043 56.1527 50.5043H53.5352V57.4182H55.7449C65.1526 57.4182 71.0134 52.1625 71.0134 42.0001C71.0514 35.6971 68.358 30.9554 64.0904 28.4633ZM45 57.4182H52.7007V50.5043V33.4959V26.5821H45V57.4182ZM86.9648 39.1298L86.6329 38.9747L84.831 45.2098C86.3768 46.0049 87.5812 46.9843 87.5812 48.4583C87.5875 48.8443 87.5186 49.2278 87.3784 49.5864C87.2383 49.945 87.0297 50.2714 86.7649 50.5467C86.5001 50.822 86.1843 51.0406 85.836 51.1898C85.4877 51.339 85.1138 51.4159 84.7362 51.4158C82.8395 51.4158 81.5971 49.7479 81.5592 47.2074H73.8964V47.8764C73.8964 54.4994 78.1925 58 84.7646 58C91.3367 58 95.2629 54.4994 95.2629 48.5455C95.2629 44.5019 93.5938 42.0389 86.9648 39.1298ZM81.5497 43.7941C82.3653 44.1237 83.2283 44.4631 84.0439 44.8219L85.7794 38.6062C83.2473 37.4329 81.9859 36.599 81.9859 34.9893C82.0251 34.3109 82.3255 33.6759 82.8213 33.2234C83.3172 32.7709 83.9682 32.5377 84.6319 32.5747C86.1397 32.5747 87.0407 33.3602 87.3631 35.5711H94.95C94.95 31.4499 93.3662 28.9869 90.1513 27.2802C88.523 26.4272 86.7175 25.9881 84.8879 26.0002C79.3495 26.0002 74.3991 29.879 74.3991 35.0862C74.3991 39.0814 76.6277 41.748 81.5497 43.7941ZM114.069 37.6365C114.15 38.5781 113.897 39.5182 113.355 40.2841C112.813 41.05 112.02 41.5905 111.119 41.8062L114.913 46.6546C118.981 45.4716 121.447 41.6995 121.447 37.1711C121.513 35.2107 121.026 33.2722 120.044 31.5872C119.062 29.9021 117.626 28.5416 115.909 27.6681C113.624 26.8326 111.201 26.4636 108.777 26.5821H107.023V33.4959H109.223C112.115 33.4959 114.069 34.999 114.069 37.6365ZM118.08 52.1819L116.525 50.2425L113.946 46.9164L110.152 42.0195C109.818 42.0591 109.483 42.0785 109.147 42.0777H106.302H106.16V26.5821H98.4494V57.4182H106.15V47.4595H106.378L113.339 57.4182H122.13L118.08 52.1819ZM143.221 26.5821L137.74 45.8207L137.067 48.2061L134.43 57.4182H141.012L151.102 26.5821H143.221ZM130.893 26.5821H123.021L133.074 57.4182H133.52L136.564 46.7516L130.893 26.5821Z" fill="black"/>
</svg>
