<svg width="200" height="84" viewBox="0 0 200 84" fill="none" xmlns="http://www.w3.org/2000/svg">
<g clip-path="url(#clip0_1272_19654)">
<path d="M40.3721 37.9874L31.493 29.1083C30.7525 28.3678 29.7842 28 28.816 28C27.8478 28 26.8796 28.3678 26.1391 29.1083L17.26 37.9874C17.0749 38.1725 16.9898 38.4202 16.9998 38.6604C17.0073 38.808 17.0048 42.6233 16.9998 44.8474C16.9998 44.8599 16.9998 44.875 16.9998 44.8875V44.9225H17.0023C17.0148 45.1326 17.0974 45.3378 17.2575 45.4979L26.1366 54.377C26.8746 55.1175 27.8428 55.4853 28.8135 55.4853C29.7842 55.4853 30.75 55.1175 31.488 54.377L40.3671 45.4979C40.5397 45.3253 40.6273 45.0976 40.6273 44.8699V38.6153C40.6273 38.3877 40.5422 38.16 40.3671 37.9874H40.3721ZM30.0945 52.8984C29.7792 53.2136 29.3664 53.4238 28.9211 53.4488C28.4132 53.4763 27.9354 53.2937 27.5801 52.9409L25.4035 50.7643H32.2286L30.092 52.9009L30.0945 52.8984ZM34.2651 48.7278H23.367L20.5274 45.8907H37.1021L34.2626 48.7278H34.2651ZM20.5274 43.8542L23.2794 41.1022H34.3526L37.1047 43.8542H20.5274ZM19.0588 39.0682L27.5801 30.5469C27.9354 30.1916 28.4132 30.009 28.9186 30.039C29.3664 30.064 29.7842 30.2817 30.102 30.5994L38.5682 39.0657H19.0588V39.0682ZM28.816 32.9286C30.117 32.9286 31.1703 33.9819 31.1703 35.2829C31.1703 36.5838 30.117 37.6371 28.816 37.6371C27.5151 37.6371 26.4618 36.5838 26.4618 35.2829C26.4618 33.9819 27.5151 32.9286 28.816 32.9286Z" fill="black"/>
<path d="M51.333 31.0423H61.1002C65.3734 31.0423 68.1354 33.9519 68.1354 37.9874C68.1354 41.6376 65.3734 44.9626 61.1002 44.9626H56.4993V52.4431H51.333V31.0423ZM62.8515 37.9874C62.8515 36.6514 61.9008 35.5832 60.1795 35.5832H56.4993V40.4217H60.1795C61.9008 40.4217 62.8515 39.3234 62.8515 37.9874ZM69.8817 31.0423H75.048V52.4431H69.8817V31.0423ZM77.0495 31.0423H91.9505V35.5531H82.2133V38.9081H89.9015V43.4189H82.2133V47.9298H92.2757V52.4406H77.047V31.0423H77.0495ZM93.7793 31.0423H103.547C107.82 31.0423 110.612 33.6542 110.612 37.7222C110.612 39.8288 109.453 41.9679 107.702 43.1537C108.948 43.8668 109.661 44.9651 110.016 46.5387L110.729 49.7161C110.967 50.7543 111.352 51.8827 111.68 52.4481H105.981C105.743 52.0328 105.475 51.2322 105.358 50.4892L104.883 47.5195C104.527 45.3228 103.279 44.3721 100.667 44.3721H98.9456V52.4456H93.7793V31.0423ZM105.325 37.7222C105.325 36.3562 104.345 35.5857 102.653 35.5857H98.9431V39.8613H102.653C104.345 39.8613 105.325 39.0607 105.325 37.7247V37.7222ZM120.462 35.5556H114.229V31.0423H131.862V35.5531H125.63V52.4431H120.464V35.5556H120.462ZM153.676 41.1373L155.843 31.0448H161.274L155.397 52.4456H149.55L147.116 42.5908C146.433 39.7712 146.018 37.4846 146.018 37.4846C146.018 37.4846 145.513 39.7712 144.799 42.5908L142.308 52.4456H136.578L130.642 31.0448H136.251L138.477 41.1373C139.1 43.9568 139.456 46.2735 139.456 46.2735C139.456 46.2735 139.871 43.9593 140.494 41.1373L142.72 31.0448H149.4L151.627 41.1373C152.25 43.9568 152.635 46.2735 152.635 46.2735C152.635 46.2735 153.081 43.9593 153.674 41.1373H153.676ZM160.856 41.7302C160.856 35.4681 165.575 30.8071 171.987 30.8071C178.399 30.8071 183 35.438 183 41.7302C183 48.0223 178.309 52.6833 171.987 52.6833C165.665 52.6833 160.856 48.0223 160.856 41.7302ZM177.716 41.7302C177.716 38.08 175.312 35.318 171.957 35.318C168.602 35.318 166.14 38.0775 166.14 41.7302C166.14 45.3829 168.545 48.1724 171.957 48.1724C175.37 48.1724 177.716 45.4129 177.716 41.7302Z" fill="black"/>
</g>
<defs>
<clipPath id="clip0_1272_19654">
<rect width="166" height="27.4878" fill="white" transform="translate(17 28)"/>
</clipPath>
</defs>
</svg>
