<svg width="200" height="84" viewBox="0 0 200 84" fill="none" xmlns="http://www.w3.org/2000/svg">
<path d="M83.0549 29.3513C83.9021 29.2084 84.7603 29.0739 84.9625 29.0525C85.1647 29.0312 85.4066 29.0107 85.5004 29.007L85.6711 29L85.6733 40.7371L85.9215 40.4798C86.0582 40.3381 86.347 40.031 86.5634 39.7973C86.78 39.5633 87.1107 39.207 87.2984 39.0051C88.0565 38.1903 88.3126 37.9074 88.4451 37.7381C88.5217 37.6407 88.6854 37.4506 88.8089 37.3159C89.316 36.7626 89.6495 36.3877 89.9229 36.0642L90.2117 35.7226L92.7441 35.722C94.1371 35.7217 95.2769 35.7345 95.2769 35.7504C95.2769 35.7807 94.7878 36.3361 94.5157 36.6144C94.4291 36.703 94.2401 36.9108 94.0959 37.0761C93.9513 37.241 93.7916 37.4106 93.7406 37.4528C93.6893 37.4946 93.5476 37.6486 93.4257 37.7943C93.0194 38.2801 91.6466 39.7047 90.486 40.8452L89.3393 41.9717L89.664 42.2708C90.0447 42.6218 91.0576 43.7205 91.5637 44.3315C91.7587 44.5671 92.0742 44.9465 92.2648 45.1747C92.4553 45.4029 92.6383 45.6345 92.6714 45.6889C92.7041 45.7436 92.8729 45.9724 93.0462 46.1979C93.4565 46.7323 94.122 47.6699 94.122 47.7139C94.122 47.7325 94.2492 47.9351 94.4045 48.1633C94.5601 48.3918 94.7875 48.7618 94.9103 48.9861C95.0331 49.21 95.1746 49.4508 95.2243 49.5207C95.43 49.8088 95.5008 49.9897 95.4262 50.0358C95.3216 50.1 90.7263 50.0926 90.6019 50.0279C90.5458 49.9992 90.5002 49.9509 90.5002 49.9209C90.5002 49.891 90.3468 49.6423 90.1591 49.368C89.9714 49.0936 89.818 48.8455 89.818 48.8165C89.818 48.7878 89.7868 48.7337 89.749 48.6967C89.664 48.6136 89.1358 47.8611 89.0407 47.6876C89.0023 47.6176 88.8306 47.3845 88.6593 47.1698C88.4883 46.955 88.3481 46.7668 88.3481 46.7512C88.3481 46.6143 86.6657 44.7152 86.0648 44.1742L85.6973 43.843L85.6837 46.9211C85.6733 49.3056 85.6557 50.008 85.605 50.0389C85.5294 50.0856 81.6263 50.096 81.5025 50.0499C81.4068 50.0141 81.3715 29.611 81.4669 29.611C81.4931 29.611 82.2077 29.494 83.0549 29.3513Z" fill="black"/>
<path d="M114.497 29.3513C115.344 29.2084 116.202 29.0739 116.404 29.0525C116.606 29.0312 116.848 29.0107 116.941 29.007L117.11 29L117.127 37.1091C117.143 45.0076 117.133 45.4929 117.346 45.8564C117.37 45.8982 117.397 45.9384 117.428 45.988C117.751 46.5117 118.478 46.8691 119.226 46.8722C119.297 46.8725 119.346 46.8639 119.375 46.8836C119.444 46.9304 119.397 47.1355 119.244 47.9901C119.146 48.5379 119.024 49.2494 118.974 49.5714C118.924 49.8934 118.87 50.1889 118.855 50.2277C118.799 50.3753 116.886 50.2204 115.984 49.9949C115.689 49.9209 114.954 49.6014 114.541 49.3673C113.642 48.8574 113.05 47.6607 112.915 46.0812C112.848 45.2985 112.842 29.611 112.909 29.611C112.935 29.611 113.649 29.494 114.497 29.3513Z" fill="black"/>
<path d="M56.2765 31.8254C56.4639 31.8065 56.901 31.7384 57.2474 31.6745C57.5939 31.6103 57.9658 31.5554 58.0742 31.552L58.271 31.5459V35.7214H63.3114L63.284 39.1585L58.2663 39.185L58.2978 45.065L58.4338 45.4521C58.8244 46.5633 59.328 46.8532 60.7902 46.8083C61.5637 46.7848 62.5785 46.6287 63.0213 46.4655C63.2676 46.3748 63.2959 46.3971 63.3312 46.7072C63.3495 46.8682 63.4736 47.5651 63.6071 48.2559C63.7836 49.1698 63.8627 49.4734 63.7409 49.6252C63.6644 49.7203 63.509 49.7558 63.249 49.8446C61.3052 50.5091 58.2745 50.5033 56.8245 49.8323C55.1742 49.0686 54.3909 47.8911 54.1002 45.7372C54.018 45.128 53.9704 32.1569 54.0504 32.1569C54.0678 32.1569 54.4989 32.0903 55.0085 32.0087C55.5181 31.9269 56.0888 31.8447 56.2765 31.8254Z" fill="black"/>
<path fill-rule="evenodd" clip-rule="evenodd" d="M66.3654 36.1057C66.3893 35.9429 67.6913 35.6258 69.084 35.444C69.9135 35.3355 73.0038 35.3664 73.5458 35.4886C74.188 35.6331 74.695 35.8152 75.4112 36.1586C76.2502 36.5606 77.0565 37.5967 77.3783 38.6867C77.4433 38.9064 77.4953 39.0798 77.5372 39.2555C77.7092 39.977 77.7099 40.7368 77.7292 44.893L77.7515 49.6096L76.5015 49.8403C74.6481 50.1822 73.7612 50.2588 71.6561 50.2588C68.6245 50.2588 67.3212 49.9167 66.1865 48.8229C65.4627 48.1251 65.0924 47.2813 64.9944 46.1069C64.7705 43.4214 66.2703 41.7361 69.3728 41.1868C70.3173 41.0197 72.7058 41.0585 73.5326 41.2546C73.645 41.2812 73.6507 41.2681 73.6507 40.9824C73.6507 40.1758 73.2107 39.4096 72.5641 39.09C71.7068 38.6663 69.1785 38.717 67.4948 39.1915C67.1836 39.2791 66.919 39.3409 66.9064 39.3289C66.8661 39.2898 66.3496 36.213 66.3654 36.1057ZM73.559 44.0018C73.5083 43.9875 73.2822 43.9514 73.0564 43.9221C71.2779 43.6902 69.722 44.0584 69.3526 44.7983C68.9218 45.6617 69.3759 46.618 70.3661 46.933C70.7529 47.0558 73.1244 47.1154 73.5064 47.0118L73.6507 46.9727V45.5004C73.6507 44.1421 73.6437 44.026 73.559 44.0018Z" fill="black"/>
<path fill-rule="evenodd" clip-rule="evenodd" d="M97.0101 38.5728C97.8932 37.0476 99.5995 35.8561 101.495 35.4409C102.113 35.3056 104.378 35.3667 105.014 35.5359C108.478 36.458 110.161 39.5052 109.677 43.9832L109.646 44.2759H104.955C100.521 44.2759 100.264 44.2808 100.265 44.3651C100.273 45.0033 101.055 45.9779 101.888 46.3876C103.186 47.0259 106.261 46.9321 108.149 46.1967C108.201 46.1766 108.236 46.1553 108.265 46.1617C108.343 46.1789 108.373 46.3972 108.546 47.3821C108.873 49.2525 108.896 49.4666 108.782 49.5488C108.659 49.6377 107.666 49.9549 107.297 50.023C105.847 50.2906 104.907 50.3862 103.72 50.3862C102.446 50.3862 101.69 50.2915 100.631 49.9989C99.4055 49.66 97.758 48.4972 97.1395 47.5349C96.856 47.0934 96.4381 46.2856 96.3836 46.0736C96.3565 45.9669 96.2753 45.6804 96.2035 45.4369C95.7603 43.9346 95.7588 41.931 96.1997 40.4817C96.2762 40.2299 96.3559 39.955 96.377 39.8706C96.4186 39.7026 96.754 39.0152 97.0101 38.5728ZM104.614 39.2605C104.51 39.1673 104.298 39.0277 104.142 38.9507C103.655 38.7091 102.305 38.7231 101.796 38.9752C101.131 39.3039 100.709 39.859 100.4 40.808C100.322 41.0462 100.233 41.1935 100.275 41.2843C100.355 41.4583 100.915 41.4245 102.958 41.4245H105.652L105.614 41.1492C105.528 40.537 105.189 39.7228 104.941 39.5339C104.865 39.4768 104.719 39.354 104.614 39.2605Z" fill="black"/>
<path d="M119.844 36.1381C119.818 36.0071 119.781 35.8595 119.762 35.8106C119.728 35.7266 119.855 35.7214 121.976 35.722L124.226 35.7226L124.556 36.8549C124.738 37.4778 125.006 38.354 125.152 38.8019C125.299 39.2501 125.466 39.7771 125.524 39.9733C125.582 40.1691 125.793 40.7994 125.993 41.3735C126.193 41.9475 126.395 42.532 126.441 42.6719C126.487 42.8119 126.651 43.2439 126.805 43.6316C126.96 44.0196 127.086 44.363 127.086 44.395C127.086 44.4812 127.265 44.8866 127.303 44.8866C127.342 44.8869 127.792 43.6563 128.02 42.9264C128.107 42.6466 128.274 42.1195 128.389 41.7554C128.792 40.4896 129.347 38.6489 129.345 38.5847C129.344 38.5493 129.507 37.9648 129.708 37.2863C129.908 36.6077 130.079 35.9835 130.088 35.8995L130.104 35.7468L134.501 35.7202L134.468 35.9371C134.41 36.3257 132.981 40.6228 132.39 42.1883C132.31 42.3982 132.204 42.6961 132.153 42.85C132.103 43.004 131.934 43.4424 131.779 43.824C131.623 44.2056 131.495 44.5386 131.495 44.5646C131.495 44.5903 131.364 44.9196 131.204 45.2966C131.043 45.6733 130.843 46.1594 130.76 46.3766C130.627 46.7249 130.452 47.1227 130.13 47.8147C130.078 47.9268 130.018 48.0759 129.998 48.1459C129.959 48.2785 129.749 48.7328 129.502 49.2198C129.422 49.3762 129.327 49.5937 129.291 49.7034C129.254 49.8128 129.07 50.2005 128.883 50.5644C128.695 50.9285 128.512 51.2839 128.477 51.3538C128.442 51.4238 128.309 51.649 128.183 51.854C128.056 52.059 127.893 52.3257 127.821 52.447C127.749 52.568 127.596 52.7757 127.481 52.9086C127.367 53.0418 127.213 53.2233 127.14 53.3122C126.954 53.5389 126.247 54.1499 126.089 54.2199C126.017 54.252 125.868 54.3314 125.758 54.3965C124.584 55.0952 122 55.2046 120.169 54.6336C119.693 54.4851 119.581 54.4325 119.602 54.3653C119.682 54.0968 119.843 53.3647 119.843 53.2654C119.843 53.1396 120.301 51.1974 120.34 51.1601C120.352 51.1476 120.582 51.1977 120.851 51.271C123.04 51.8705 124.34 51.3905 125.058 49.7184L125.202 49.3817L125.058 49.082C124.978 48.917 124.754 48.4615 124.56 48.0695C123.927 46.7906 123.464 45.8175 123.464 45.7641C123.464 45.7353 123.369 45.5123 123.251 45.2685C122.873 44.4812 122.771 44.2533 122.728 44.0978C122.705 44.0138 122.575 43.7043 122.439 43.4104C122.303 43.1161 122.116 42.6695 122.024 42.4174C121.932 42.1654 121.738 41.6497 121.592 41.2717C121.446 40.8935 121.274 40.4352 121.21 40.2531C120.503 38.2566 119.908 36.4617 119.844 36.1381Z" fill="black"/>
<path d="M44.6084 40.3008C45.4118 39.4728 45.6805 39.2385 45.9217 39.1551C46.2811 39.0305 46.5841 39.0864 47.3235 39.4133C47.545 39.5113 47.7465 39.5914 47.7711 39.5914C47.8322 39.5914 48.5525 39.9919 48.7266 40.1224C48.8035 40.1804 48.9641 40.2846 49.0831 40.354C49.5893 40.6488 50.2475 41.4178 50.632 42.1626C51.4282 43.7052 51.2374 46.8957 50.29 47.8819C50.2336 47.9406 50.1873 48.0148 50.1873 48.0469C50.1873 48.2779 49.0246 49.1785 48.2482 49.5485C46.6823 50.2949 43.4324 50.6282 41.2379 50.2677C40.9781 50.2252 40.5882 50.1629 40.3718 50.1293C39.5025 49.9949 38.136 49.5601 37.3105 49.1559L37 49.0041L37.0334 48.8027C37.0517 48.6922 37.1864 48.287 37.3332 47.9027C37.48 47.5184 37.6894 46.9403 37.7984 46.6183C37.9077 46.296 38.0318 45.9523 38.0743 45.8545C38.1168 45.7564 38.1662 45.6354 38.1845 45.586C38.2141 45.5041 38.251 45.512 38.5794 45.6724C38.9564 45.8566 39.3548 46.0039 40.2405 46.2865C40.9277 46.5056 40.9551 46.5111 41.7862 46.596C44.9634 46.9214 46.4937 46.3947 46.5576 44.9535C46.6048 43.8867 45.9646 43.283 43.9149 42.4636C43.131 42.1501 43.0668 41.9549 43.5543 41.3695C43.7168 41.1743 43.8815 40.9974 43.9199 40.9766C43.9584 40.9555 44.2683 40.6515 44.6084 40.3008Z" fill="black"/>
<path d="M141.764 33.2798C140.486 31.9801 141.086 29.818 142.873 29.2851C144.057 28.932 145.453 29.507 145.993 30.5695C146.193 30.9627 146.175 32.2588 145.964 32.7021C145.275 34.1481 142.934 34.4701 141.764 33.2798Z" fill="black"/>
<path d="M40.1214 31.7076C40.704 31.3599 42.0476 30.9606 43.0488 30.8372C45.0383 30.5922 47.8066 30.9676 49.4264 31.7021C49.5996 31.7806 49.8002 31.8591 49.8723 31.8762C50.3148 31.982 50.3092 32.0574 49.7618 33.3974C49.5917 33.8132 49.4525 34.1847 49.4525 34.2223C49.4525 34.3124 49.033 35.3759 48.9722 35.4401C48.9417 35.4722 48.8894 35.4682 48.8245 35.4291C48.7694 35.3955 48.5987 35.3234 48.4453 35.2687C48.292 35.2143 47.9899 35.0976 47.7739 35.0099C46.8164 34.6213 46.1031 34.5 44.781 34.5006C42.6734 34.5022 41.9238 34.922 41.9213 36.1034C41.9191 37.0111 42.5505 37.6178 44.0717 38.1699C44.9164 38.4763 44.6934 38.8702 42.5238 40.9022C41.5714 41.7943 40.2905 41.4597 38.7073 39.9056C36.4693 37.7089 37.0346 33.3378 39.7403 31.9199C39.8555 31.8594 40.0269 31.7641 40.1214 31.7076Z" fill="black"/>
<path fill-rule="evenodd" clip-rule="evenodd" d="M149.227 39.2597C150.016 37.4431 151.927 35.9531 154.093 35.4679C155.486 35.1554 157.526 35.3637 158.913 35.9604C159.398 36.1691 159.567 36.2656 160.227 36.712C160.534 36.9191 161.394 37.7743 161.505 37.9826C161.548 38.0639 161.624 38.172 161.672 38.2228C161.78 38.3355 162.255 39.1552 162.255 39.2294C162.255 39.2588 162.311 39.4039 162.381 39.5518C163.126 41.146 163.209 43.8189 162.572 45.7025C162.089 47.1295 161.381 48.157 160.306 48.9907C159.77 49.4066 158.638 49.9898 158.193 50.079C158.074 50.1028 157.753 50.1752 157.478 50.2403C156.736 50.416 154.809 50.416 154.067 50.2403C153.792 50.1752 153.463 50.1016 153.336 50.0759C153.125 50.0338 152.404 49.7099 151.804 49.3867C151.284 49.1071 149.867 47.7867 149.867 47.582C149.867 47.5566 149.767 47.3923 149.644 47.2166C148.261 45.2378 148.085 41.8908 149.227 39.2597ZM158.341 40.7754C157.972 39.8206 157.346 39.2081 156.485 38.9606C155.866 38.7828 154.972 38.8857 154.422 39.1986C152.113 40.5114 152.317 45.7578 154.712 46.6468C155.872 47.0776 157.448 46.6428 157.913 45.7642L158.173 45.2689C158.742 44.1859 158.823 42.0237 158.341 40.7754Z" fill="black"/>
<path d="M141.604 50.05C141.529 50.0219 141.521 49.3421 141.521 42.8703V35.7215H145.773V42.8703C145.773 49.3421 145.765 50.0219 145.69 50.05C145.581 50.0903 141.713 50.0903 141.604 50.05Z" fill="black"/>
<path d="M135.695 45.4217C135.853 45.374 136.007 45.3279 136.036 45.3187C136.954 45.0315 138.484 45.6762 138.934 46.5399C140.072 48.724 138.064 50.9787 135.669 50.2067C133.342 49.4567 133.36 46.1192 135.695 45.4217Z" fill="black"/>
</svg>
