<svg width="200" height="84" viewBox="0 0 200 84" fill="none" xmlns="http://www.w3.org/2000/svg">
<path d="M44.2474 36.3214V29.9313H56.1241V26H40V49.8312H44.2474V40.2527H54.8435V36.3214H44.2474Z" fill="black"/>
<path d="M59.2518 32.3544V49.8317H63.4317V32.3544H59.2518Z" fill="black"/>
<path fill-rule="evenodd" clip-rule="evenodd" d="M83.0054 52.1523C83.0054 53.2961 82.7545 54.2461 82.2493 55.0087C81.7441 55.7713 81.0973 56.3696 80.309 56.8068C79.5206 57.2439 78.6293 57.5529 77.6447 57.7304C76.6568 57.9112 75.6915 58 74.7488 58C73.6965 58 72.6475 57.9211 71.6082 57.7633C70.5657 57.6055 69.5971 57.2045 68.6961 56.5536C68.0397 56.0836 67.5281 55.5347 67.1677 54.9068C66.8073 54.279 66.6239 53.5526 66.6239 52.7209C66.6239 51.9583 66.8009 51.2582 67.1516 50.6205C67.5024 49.9828 68.0075 49.4963 68.6639 49.1578C68.117 48.8455 67.6922 48.4115 67.3962 47.8627C67.1001 47.3137 66.9521 46.7483 66.9521 46.1632C66.9521 44.6611 67.6311 43.4876 68.9922 42.6329C68.4644 42.0939 68.0493 41.4693 67.7437 40.7494C67.4347 40.0329 67.2835 39.2275 67.2835 38.3302C67.2835 37.298 67.4702 36.3809 67.8435 35.5723C68.2167 34.7637 68.7218 34.0932 69.359 33.5541C69.9961 33.0149 70.7362 32.6074 71.5792 32.328C72.4223 32.0486 73.3265 31.9072 74.2918 31.9072C74.9932 31.9072 75.6755 32.0026 76.3318 32.1932C76.9882 32.3839 77.6028 32.6469 78.1756 32.9821C78.5488 32.2195 79.0412 31.6673 79.6558 31.3189C80.2704 30.9704 80.9397 30.7995 81.6636 30.7995H82.2236C82.4649 30.7995 82.6515 30.8225 82.7834 30.8653V34.126L82.4553 34.0932C81.9726 34.0932 81.5382 34.172 81.1553 34.3298C80.7724 34.4876 80.5117 34.7801 80.383 35.2042C80.9751 36.1902 81.2711 37.2421 81.2711 38.3631C81.2711 39.3722 81.078 40.2695 80.6951 41.0519C80.3122 41.8374 79.8006 42.4982 79.1667 43.034C78.5295 43.573 77.7895 43.9872 76.9464 44.2765C76.1001 44.569 75.2185 44.7136 74.2982 44.7136C73.3329 44.7136 72.4126 44.5559 71.5341 44.2435C71.3379 44.3553 71.1448 44.5197 70.9583 44.7301C70.7716 44.9437 70.6782 45.1969 70.6782 45.4861C70.6782 46.0022 70.881 46.344 71.2864 46.5116C71.6919 46.6793 72.1134 46.7648 72.5542 46.7648H75.3827C75.7977 46.7648 76.2482 46.7713 76.7309 46.7812C77.2135 46.7943 77.7026 46.8371 78.195 46.9159C78.6873 46.9949 79.1699 47.1132 79.6429 47.2677C80.1159 47.4255 80.5471 47.649 80.9429 47.9383C81.6894 48.4543 82.2203 49.0723 82.5388 49.7856C82.8478 50.5153 83.0054 51.3009 83.0054 52.1523ZM79.1248 52.2542C79.1248 51.7151 78.9832 51.3009 78.6969 51.0116C78.4105 50.7191 78.0662 50.5087 77.6608 50.374C77.2554 50.2392 76.8146 50.1603 76.3447 50.1406C75.8717 50.1176 75.4406 50.1077 75.0447 50.1077H71.8206C71.3798 50.2424 71.0129 50.4956 70.7169 50.8638C70.4209 51.2351 70.2729 51.6987 70.2729 52.2575C70.2729 52.8163 70.4209 53.2535 70.7169 53.569C71.0129 53.8813 71.3798 54.1245 71.8206 54.2921C72.2582 54.4598 72.7312 54.565 73.2364 54.611C73.7415 54.657 74.1921 54.6767 74.5846 54.6767C74.9997 54.6767 75.4727 54.6603 76.0004 54.6274C76.5281 54.5946 77.0204 54.4992 77.4805 54.3414C77.9408 54.1836 78.3301 53.9437 78.6486 53.6183C78.964 53.2896 79.1248 52.836 79.1248 52.2542ZM77.3133 38.3367C77.3133 37.3966 77.043 36.6176 76.5056 35.9996C75.9682 35.3817 75.2282 35.0759 74.2853 35.0759C73.3426 35.0759 72.6024 35.385 72.0651 35.9996C71.5277 36.6143 71.2575 37.3933 71.2575 38.3367C71.2575 39.2768 71.5245 40.0526 72.0651 40.6574C72.6024 41.2622 73.3426 41.5646 74.2853 41.5646C75.2282 41.5646 75.9682 41.2622 76.5056 40.6574C77.0462 40.0526 77.3133 39.2801 77.3133 38.3367Z" fill="black"/>
<path d="M105.578 38.9739V49.8376H109.664V38.0403C109.664 36.2226 109.198 34.7533 108.265 33.6193C107.331 32.4853 105.945 31.9198 104.101 31.9198C102.939 31.9198 101.913 32.1664 101.025 32.6595C100.137 33.1525 99.4414 33.8592 98.9362 34.7763C98.4987 33.8823 97.8712 33.1788 97.0604 32.6759C96.2494 32.173 95.239 31.9198 94.0324 31.9198C92.8933 31.9198 91.9151 32.1762 91.1043 32.6923C90.2934 33.2084 89.6466 33.869 89.1639 34.6744L88.8358 32.3537H85.4153V49.8278H89.4954V40.2821C89.4954 39.743 89.5598 39.1974 89.6917 38.6353C89.8236 38.0765 90.0295 37.567 90.3159 37.1069C90.5991 36.6499 90.9531 36.2785 91.3681 35.9991C91.7832 35.7197 92.2884 35.5783 92.8804 35.5783C93.9101 35.5783 94.6084 35.8775 94.9688 36.4691C95.3324 37.0641 95.5126 37.899 95.5126 38.9739V49.8278H99.5927V40.2821C99.5927 39.743 99.6571 39.1974 99.789 38.6353C99.9209 38.0765 100.124 37.567 100.397 37.1069C100.671 36.6499 101.018 36.2785 101.433 35.9991C101.848 35.7197 102.354 35.5783 102.946 35.5783C103.975 35.5783 104.674 35.8775 105.034 36.4691C105.398 37.0641 105.578 37.899 105.578 38.9739Z" fill="black"/>
<path fill-rule="evenodd" clip-rule="evenodd" d="M128.347 41.2289C128.324 41.3867 128.315 41.5313 128.315 41.6661V42.4057H116.866C116.866 43.0796 116.969 43.7172 117.178 44.322C117.387 44.9269 117.702 45.4298 118.114 45.8341C118.423 46.1267 118.78 46.3764 119.186 46.5901C119.591 46.8038 120.077 46.909 120.65 46.909C121.242 46.909 121.731 46.8465 122.114 46.7248C122.497 46.6032 122.844 46.383 123.15 46.0708C123.543 45.6664 123.819 45.1734 123.974 44.5916H127.922C127.877 45.1076 127.706 45.673 127.41 46.291C127.114 46.909 126.802 47.4152 126.474 47.8195C125.75 48.6939 124.885 49.3217 123.874 49.703C122.864 50.0843 121.812 50.2749 120.717 50.2749C119.53 50.2749 118.507 50.0777 117.641 49.6866C116.772 49.2954 116 48.7727 115.321 48.1252C114.465 47.2738 113.812 46.2548 113.362 45.0683C112.911 43.8816 112.686 42.5701 112.686 41.1369C112.686 39.7268 112.889 38.4185 113.294 37.2219C113.7 36.0222 114.321 34.9999 115.151 34.1453C115.788 33.4747 116.56 32.9356 117.471 32.5314C118.381 32.1271 119.427 31.9265 120.614 31.9265C121.889 31.9265 123.07 32.1895 124.17 32.7154C125.264 33.2414 126.165 34.0532 126.87 35.1511C127.504 36.1142 127.909 37.0971 128.086 38.0931C128.257 39.0825 128.347 40.1311 128.347 41.2289ZM124.234 39.3455C124.209 38.0701 123.858 37.0477 123.179 36.2885C122.896 35.9762 122.539 35.7297 122.111 35.5488C121.683 35.3714 121.174 35.2793 120.579 35.2793C119.945 35.2793 119.385 35.4043 118.899 35.6508C118.42 35.8973 118.021 36.2227 117.715 36.6271C117.406 37.0084 117.188 37.4127 117.056 37.8366C116.927 38.2607 116.847 38.7669 116.827 39.3488H124.234V39.3455Z" fill="black"/>
<path d="M142.003 39.1093V49.8284H146.118V38.1659C146.118 37.2686 145.987 36.4337 145.723 35.6612C145.459 34.8887 145.079 34.228 144.587 33.6791C144.092 33.1301 143.486 32.6996 142.775 32.384C142.065 32.0717 141.247 31.9139 140.324 31.9139C139.339 31.9139 138.38 32.1341 137.447 32.5713C136.514 33.0085 135.797 33.6889 135.291 34.6061L134.994 32.3544H131.539V49.8317H135.652V42.7054C135.652 41.9657 135.674 41.167 135.719 40.3025C135.761 39.4413 135.925 38.6853 136.212 38.0345C136.498 37.3836 136.88 36.8511 137.363 36.4369C137.846 36.0227 138.451 35.8157 139.175 35.8157C140.272 35.8157 141.016 36.1082 141.411 36.69C141.803 37.2719 142.003 38.0804 142.003 39.1093Z" fill="black"/>
<path d="M160 49.598C158.816 49.9103 157.641 50.0681 156.479 50.0681C154.745 50.0681 153.451 49.5914 152.596 48.6382C151.74 47.685 151.312 46.3701 151.312 44.6905V35.8154H148.184V32.3541H151.312V27.9166L155.425 26.8746V32.3541H159.736V35.8154H155.425V44.319C155.425 44.9929 155.575 45.4793 155.885 45.7818C156.193 46.0842 156.676 46.2354 157.332 46.2354C157.769 46.2354 158.182 46.2256 158.565 46.2025C158.947 46.1795 159.424 46.1368 159.996 46.0678V49.598H160Z" fill="black"/>
<path d="M61.3345 26.0204C62.7375 26.0204 63.7735 27.1709 63.7735 28.4791C63.7735 29.8498 62.7375 30.8754 61.3345 30.8754C59.9026 30.8754 58.8954 29.8498 58.8954 28.4791C58.8954 27.1709 59.9026 26.0204 61.3345 26.0204Z" fill="black"/>
</svg>
