<svg width="200" height="84" viewBox="0 0 200 84" fill="none" xmlns="http://www.w3.org/2000/svg">
<path d="M35.6059 36.2208C35.5773 36.1679 35.5362 36.1231 35.4862 36.0903C35.4362 36.0576 35.379 36.0381 35.3196 36.0335C35.2603 36.0288 35.2008 36.0394 35.1464 36.064C35.0921 36.0886 35.0447 36.1266 35.0086 36.1745C34.5427 36.5943 34.0769 37.0026 33.5796 37.4137C33.1709 37.7698 33.1681 37.8393 33.5139 38.2504L40.3872 46.5889C40.6901 46.9479 40.6729 47.0174 40.3442 47.3157C39.022 48.4737 37.696 49.6318 36.3661 50.79C36.0431 51.0795 35.9174 51.0564 35.6373 50.7176C34.6828 49.5769 33.7339 48.4303 32.7794 47.2895C31.8249 46.1488 30.9103 45.0804 29.973 43.9802L28.4011 42.1272C28.3722 42.0923 28.3333 42.0671 28.2899 42.0552C28.2463 42.0434 28.2003 42.0453 28.1579 42.0607C28.1155 42.0762 28.0789 42.1045 28.0528 42.1417C28.0268 42.179 28.0128 42.2234 28.0124 42.2691L27.961 45.9229C27.9599 45.9774 27.9793 46.0302 28.0153 46.0706L28.0753 46.1459C30.5017 48.9891 32.8623 51.8381 35.2943 54.6928C35.6373 55.0866 35.7345 55.0953 36.126 54.7566C38.883 52.3708 41.6455 49.9899 44.4139 47.6138C44.6654 47.3909 44.6797 47.2114 44.4653 46.9595C42.0704 44.0961 38.0151 39.0755 35.6059 36.2208Z" fill="black"/>
<path d="M35.6917 48.0253C35.7218 48.0808 35.7652 48.1278 35.8178 48.1621C35.8703 48.1964 35.9305 48.2169 35.9929 48.2217C36.0553 48.2266 36.1178 48.2158 36.175 48.19C36.2321 48.1643 36.2821 48.1247 36.3204 48.0745C36.7862 47.6489 37.2835 47.2349 37.7493 46.8006C38.0837 46.511 38.0894 46.3981 37.8065 46.0594L30.9847 37.9844C30.6989 37.6427 30.6989 37.5009 31.0447 37.2084L34.9429 33.8238C35.3286 33.4938 35.4287 33.5024 35.7517 33.8875L40.5186 39.5797L41.2074 40.3991C41.2161 40.4255 41.2297 40.4501 41.2474 40.4714L42.8792 42.391C42.9084 42.4249 42.947 42.4491 42.99 42.4603C43.033 42.4716 43.0784 42.4694 43.1201 42.454C43.1618 42.4387 43.198 42.4109 43.2239 42.3743C43.2498 42.3377 43.2641 42.2941 43.2651 42.2492L43.3165 38.5953C43.3182 38.5404 43.2999 38.4868 43.2651 38.4447L42.9793 38.1031C40.6215 35.312 38.4267 32.631 36.0431 29.8399C35.7317 29.478 35.7202 29.4895 35.3716 29.7878L27.0836 36.916C26.7207 37.2287 26.7093 37.3126 27.0065 37.6717L31.9735 43.6099L35.6917 48.0253Z" fill="black"/>
<path d="M55.4307 38.1907C57.4892 38.1907 58.5884 39.11 58.7323 40.6908H61.0599C60.8091 38.101 58.7839 36.2661 55.464 36.2661C52.144 36.2661 50.1889 37.5778 50.1889 39.9359C50.1889 42.0773 51.5944 42.9966 54.7373 43.587C57.242 44.1477 58.1642 44.4877 58.2527 45.9265C58.2527 47.2046 57.1682 47.8175 55.4123 47.8175C53.14 47.8175 52.144 46.8982 51.9854 44.8838H49.6577C49.8533 48.1053 51.7899 49.7421 55.357 49.7421C58.3597 49.7421 60.5804 48.2473 60.5804 45.8182C60.4918 43.1573 59.0863 42.4734 55.3754 41.7073C53.3687 41.3336 52.5166 40.9337 52.5166 39.8724C52.5166 38.7475 53.4941 38.1907 55.4307 38.1907Z" fill="black"/>
<path d="M63.4546 49.4878H73.1304V47.5632H65.7269V43.6953H72.459V41.7707H65.7269V38.4596H73.1304V36.535H63.4546V49.4878Z" fill="black"/>
<path d="M84.5327 46.3224L78.8851 36.535H76.1479V49.4878H78.3355L78.3686 39.648L84.0347 49.4878H86.7497V36.535H84.5659L84.5327 46.3224Z" fill="black"/>
<path d="M94.9201 38.1907C96.9787 38.1907 98.0813 39.11 98.2218 40.6908H100.549C100.298 38.101 98.2768 36.2661 94.9529 36.2661C91.6296 36.2661 89.6818 37.5778 89.6818 39.9359C89.6818 42.0773 91.0836 42.9966 94.2267 43.587C96.7313 44.1477 97.6537 44.4877 97.7423 45.9265C97.7423 47.2046 96.6611 47.8175 94.9018 47.8175C92.6293 47.8175 91.6332 46.8982 91.4746 44.8838H89.147C89.3425 48.1053 91.2791 49.7421 94.8498 49.7421C97.8492 49.7421 100.07 48.2473 100.07 45.8182C99.9811 43.1573 98.5937 42.4734 94.8643 41.7073C92.8576 41.3336 92.0058 40.9337 92.0058 39.8724C92.0058 38.7475 92.9836 38.1907 94.9201 38.1907Z" fill="black"/>
<path d="M102.944 49.4878H112.623V47.5632H105.216V43.6953H111.948V41.7707H105.216V38.4596H112.623V36.535H102.944V49.4878Z" fill="black"/>
<path d="M117.913 36.535H115.641V49.4878H117.913V36.535Z" fill="black"/>
<path d="M134.321 48.191L127.519 36.535H125.903V49.4878H127.002L127.039 37.8131L133.841 49.4878H135.457V36.535H134.357L134.321 48.191Z" fill="black"/>
<path d="M144.015 36.2666C140.518 36.2143 137.995 39.1441 138.032 43.0494C137.976 46.8987 140.5 49.7763 144.015 49.7763C147.512 49.8099 150.072 46.9697 150.017 43.0494C150.091 39.1778 147.508 36.2143 144.015 36.2666ZM144.015 48.7523C141.138 48.7523 139.22 46.3792 139.22 43.0494C139.22 39.7197 141.138 37.2756 144.015 37.2756C146.893 37.2756 148.829 39.6486 148.829 43.0494C148.829 46.4502 146.911 48.7523 144.015 48.7523Z" fill="black"/>
<path d="M156.675 36.535H152.591V49.4878H156.549C160.264 49.4878 162.322 46.9689 162.322 43.0488C162.322 41.0531 161.843 39.4499 160.884 38.2802C159.925 37.1105 158.505 36.535 156.675 36.535ZM156.516 48.4937H153.709V37.544H156.66C159.659 37.544 161.153 39.5396 161.153 43.0488C161.134 46.4832 159.589 48.4825 156.516 48.4825V48.4937Z" fill="black"/>
<path d="M164.894 49.4878H173.702V48.4788H166.015V43.2094H172.958V42.2004H166.015V37.5402H173.702V36.535H164.894V49.4878Z" fill="black"/>
</svg>
