<svg width="200" height="84" viewBox="0 0 200 84" fill="none" xmlns="http://www.w3.org/2000/svg">
<path fill-rule="evenodd" clip-rule="evenodd" d="M76.3181 44.6815C75.3299 45.4234 74.3058 46.1699 73.2448 46.9159C73.2448 47.7669 73.2448 48.6219 73.2489 49.4729C73.2489 49.9123 73.1886 50.2268 72.7609 50.5094C69.3195 52.7838 65.8891 55.0758 62.4567 57.3692L62.4565 57.3693L62.4563 57.3694L62.4561 57.3695L62.4559 57.3697L62.4558 57.3698L62.4556 57.3699L62.4554 57.3701L62.4552 57.3702L62.455 57.3703L62.4548 57.3704L62.4547 57.3706L62.4438 57.3778L62.4411 57.3796L62.4383 57.3815L62.4275 57.3887C61.1953 58.212 59.9629 59.0354 58.7296 59.8582C58.6223 59.9288 58.5047 59.9877 58.389 60.0457C58.3265 60.077 58.2647 60.108 58.2053 60.1404C58.0002 59.9607 58.0168 59.7634 58.0323 59.5807C58.0362 59.5336 58.0401 59.4876 58.0401 59.443V56.3813C56.9674 56.9784 55.9226 57.5431 54.9023 58.0794V59.3985C54.9023 59.4525 54.9074 59.5109 54.9126 59.5704C54.9295 59.764 54.9474 59.9683 54.7933 60.0638C54.5871 60.1849 54.4197 60.0441 54.2584 59.9084C54.2053 59.8637 54.1527 59.8195 54.0997 59.7854L53.9443 59.682L53.944 59.6818C53.6327 59.4745 53.3217 59.2675 53.0108 59.0635C51.9135 59.6202 50.845 60.1487 49.8006 60.6405C51.5748 61.8264 53.3453 63.016 55.1079 64.2136C56.0961 64.8876 56.9108 64.8835 57.8666 64.1898C58.6618 63.6064 59.4908 63.0663 60.3203 62.5258L60.3204 62.5258L60.3205 62.5257L60.3205 62.5257L60.3206 62.5256L60.3207 62.5256L60.3207 62.5255L60.3208 62.5255L60.3209 62.5254L60.3209 62.5254L60.321 62.5254L60.3211 62.5253C60.7072 62.2738 61.0934 62.0221 61.4763 61.7661C62.7023 60.9484 63.9274 60.1289 65.1526 59.3093C68.4539 57.101 71.7562 54.892 75.0798 52.7155C75.9794 52.1226 76.3543 51.4651 76.3464 50.3845C76.3302 48.4809 76.3222 46.581 76.3181 44.6815ZM75.4394 31.2877L75.4394 31.2877L75.4205 31.2758C75.412 31.2704 75.4034 31.2648 75.3948 31.259C74.9359 30.9758 74.4633 30.701 73.9932 30.4277L73.7171 30.267C73.0272 29.8596 72.3493 29.4481 71.7285 28.9846C71.1888 28.5824 70.6274 28.2051 70.066 27.8278L69.8249 27.6656C69.2964 27.3148 68.7721 26.9599 68.2678 26.5766C68.1553 26.4923 68.0464 26.4076 67.9376 26.3228L67.9375 26.3228L67.9375 26.3227L67.9375 26.3227L67.9374 26.3227L67.9374 26.3226L67.9373 26.3226L67.9373 26.3226L67.9372 26.3225L67.9372 26.3225L67.9371 26.3225L67.9371 26.3224L67.937 26.3224C67.3849 25.883 66.8161 25.4394 66.1224 25.2214C65.9207 24.8703 65.5872 24.6787 65.2569 24.4888C65.1511 24.428 65.0456 24.3674 64.9449 24.3018C63.9889 23.6658 63.027 23.0372 62.0652 22.4086C60.783 21.5706 59.5011 20.7328 58.2336 19.8779C56.5355 18.7323 56.3982 18.712 54.7168 19.793C54.4915 19.935 54.2901 20.1127 54.0906 20.2887C53.8653 20.4875 53.6423 20.6843 53.3898 20.8253C52.0581 21.5719 50.8039 22.435 49.5502 23.2978C48.7043 23.8799 47.8586 24.4619 46.9894 25.0079C45.1656 26.1537 43.3806 27.3544 41.5947 28.5556L41.5946 28.5557L41.5946 28.5557L41.5945 28.5558L41.5944 28.5558L41.5943 28.5559L41.5943 28.5559L41.5942 28.556L41.5941 28.556L41.594 28.5561L41.594 28.5561L41.5939 28.5562C40.3188 29.4138 39.0434 30.2717 37.7533 31.11C36.9706 31.6181 36.6119 32.1948 36.6198 33.1427C36.636 37.22 36.6444 41.2936 36.6281 45.3668C36.6281 46.0567 36.624 46.7507 36.6198 47.4402C36.6119 48.4243 36.604 49.4079 36.5957 50.3924C36.5878 50.9891 36.7854 51.4934 37.0958 51.9249C37.4025 52.3564 37.8261 52.7192 38.2817 53.0342C38.3139 53.0565 38.3472 53.0786 38.3805 53.1008L38.3806 53.1008C38.4138 53.123 38.4471 53.1451 38.4794 53.1674C38.9659 53.4858 39.4594 53.7968 39.9535 54.1081L39.9535 54.1082L39.9537 54.1082L39.9537 54.1083C40.5978 54.5142 41.2429 54.9207 41.8751 55.3452C42.0627 55.4711 42.2489 55.5956 42.4353 55.7202L42.8272 55.9823C43.8957 55.5346 45.0171 55.0465 46.1826 54.5101C45.6258 54.1431 45.0695 53.7724 44.5128 53.3971C44.1137 53.1259 43.5769 52.8078 43.0057 52.4693L43.0056 52.4693C42.2261 52.0074 41.3827 51.5075 40.7379 51.0374C40.5361 50.8926 40.3589 50.7515 40.2053 50.6142L40.1854 50.5984C39.9112 50.3562 39.7659 50.082 39.7052 49.755C39.6769 49.6102 39.6652 49.457 39.6652 49.2873C39.6731 47.88 39.6769 46.4724 39.6769 45.0647C39.681 44.3994 39.681 43.7308 39.681 43.0617V43.0604C39.681 42.3422 39.6806 41.6244 39.6801 40.9069C39.6792 39.4728 39.6783 38.0398 39.681 36.6071C39.681 36.5447 39.6728 36.477 39.6643 36.4082C39.639 36.201 39.6123 35.9829 39.8059 35.8652C40.0204 35.7354 40.1827 35.8788 40.3387 36.0165C40.3912 36.0629 40.443 36.1087 40.4958 36.1431L40.9221 36.426L40.923 36.4266L40.924 36.4272L40.9249 36.4278L40.9258 36.4285L40.9268 36.4291L40.9277 36.4297L40.9286 36.4303C42.341 37.3673 43.7534 38.3043 45.1623 39.2447C45.4005 39.4022 45.6378 39.5608 45.875 39.7194L45.8753 39.7196L45.8756 39.7198L45.8759 39.72L45.8762 39.7202L45.8765 39.7204L45.8768 39.7206L45.8771 39.7208L45.8774 39.721L45.8777 39.7212L45.878 39.7214L45.8784 39.7217C46.1259 39.8871 46.3734 40.0525 46.622 40.2167C47.0838 40.5252 47.5456 40.8327 48.0074 41.1401C48.4693 41.4477 48.9313 41.7552 49.3932 42.0638C49.472 42.1141 49.5595 42.1503 49.649 42.1874L49.6491 42.1874C49.6966 42.2071 49.7446 42.227 49.7922 42.2494C49.8211 42.2696 49.8489 42.2904 49.8764 42.3109C49.9258 42.3477 49.9742 42.3837 50.0261 42.415C50.0361 42.423 50.047 42.4298 50.0579 42.4367L50.0579 42.4367C50.0692 42.4438 50.0804 42.4508 50.0906 42.4591C50.4133 42.6814 50.7341 42.9056 51.0554 43.1301L51.056 43.1306L51.0617 43.1345L51.069 43.1396C51.2213 43.2461 51.3737 43.3526 51.5265 43.459C52.4619 44.1089 53.3981 44.7539 54.3456 45.3834C54.7367 45.6414 54.9182 45.8915 54.9182 46.3717L54.9171 46.71C54.9137 47.8434 54.9102 48.9769 54.9102 50.1103C55.9305 49.5494 56.9712 48.9648 58.0277 48.3515C58.0277 47.7627 58.0239 47.1739 58.0197 46.581C58.0197 45.9843 58.1891 45.6214 58.7013 45.2823C62.2484 42.9468 65.7746 40.5896 69.3022 38.2314L69.9942 37.7688C70.5691 37.3857 71.1402 36.9963 71.7123 36.6061L71.713 36.6056C72.1764 36.2897 72.6405 35.9733 73.1079 35.6592C73.288 35.8458 73.2694 36.0538 73.2513 36.2555C73.246 36.3157 73.2406 36.3753 73.2406 36.4336C73.2406 36.6353 73.2411 36.8369 73.2416 37.0386V37.0398C73.2425 37.4428 73.2434 37.8457 73.2406 38.2486C74.3258 37.4139 75.3544 36.5867 76.3223 35.772C76.3244 35.2931 76.3255 34.8153 76.3265 34.338C76.3274 33.907 76.3284 33.4765 76.3302 33.0461C76.3302 32.2996 76.1042 31.7471 75.4996 31.3276C75.4806 31.3135 75.4603 31.3008 75.4394 31.2877ZM85.9813 33.8806C88.7725 30.5776 89.6193 28.0207 88.6352 26.0081C88.1109 24.9312 87.171 24.2496 85.7957 23.955C83.5859 23.4349 80.2017 23.9592 75.4911 25.52C74.2569 25.9273 72.9662 26.4034 71.6234 26.9318C71.9821 27.1735 72.3412 27.4278 72.6924 27.6899C73.2645 28.1214 73.9182 28.5126 74.5353 28.8796L74.8095 29.0368C74.8995 29.0894 74.9899 29.142 75.0805 29.1946L75.0808 29.1948C75.2823 29.3119 75.4845 29.4294 75.6846 29.5491C80.1414 27.9883 83.275 27.4116 84.8075 27.5892C84.8479 27.593 84.8882 27.5971 84.9244 27.605C84.9423 27.6089 84.9582 27.612 84.974 27.615C84.9906 27.6182 85.007 27.6214 85.0256 27.6254C85.2028 27.6658 85.3522 27.7182 85.4691 27.7865C85.4208 28.4322 84.7955 29.5249 83.5938 30.9688C83.0936 30.7632 82.5531 30.6704 81.9964 30.7229C79.9396 30.9043 78.4354 32.909 78.6372 35.2038C78.6572 35.4135 78.6934 35.6191 78.7421 35.8209L78.6366 35.9132L78.6365 35.9133L78.6364 35.9134L78.6363 35.9135C78.4071 36.1142 78.1722 36.3199 77.9311 36.5224V36.5266L77.3627 37.0064L77.2566 37.0949L77.256 37.0954L77.2553 37.096C77.0437 37.2727 76.8289 37.4521 76.6083 37.6318C76.3582 37.8415 76.1002 38.0508 75.8339 38.2609C75.3176 38.6762 74.7812 39.0993 74.2249 39.5271L73.5591 40.0393C73.3611 40.1917 73.1567 40.3441 72.9504 40.4979L72.95 40.4982C72.867 40.5601 72.7836 40.6222 72.7003 40.6847L72.7014 40.6859C72.7031 40.6877 72.7047 40.6896 72.706 40.6913C72.7073 40.6932 72.7082 40.695 72.7082 40.6967L72.7203 40.7088C72.5268 40.854 72.3292 40.9992 72.1273 41.1445L72.0429 41.2052C71.9898 41.2434 71.9372 41.2816 71.8845 41.3199C71.7932 41.3863 71.7017 41.4529 71.6072 41.5194C68.2718 43.9357 64.3355 46.5246 59.7821 49.1985C59.7679 49.2067 59.7542 49.2149 59.7405 49.2231L59.7405 49.2231C59.7074 49.2429 59.6753 49.2621 59.6411 49.2792L58.8384 49.7469C57.826 50.3357 56.7937 50.9169 55.6885 51.5257L55.0756 51.8602C54.4744 52.1873 53.8814 52.5056 53.2968 52.8123C51.9778 53.5063 50.7074 54.1513 49.4775 54.7484C49.2074 54.8811 48.9328 55.0147 48.6669 55.1391C46.5048 56.176 44.4926 57.0631 42.6493 57.8055C35.2124 60.818 30.4493 61.5882 29.2513 60.8746C29.352 59.6525 31.5461 56.7931 35.8735 52.9816L35.8641 52.9697L35.864 52.9696C35.8351 52.9333 35.8062 52.8969 35.7807 52.861C35.2402 52.1107 34.9702 51.2677 34.9823 50.3723L34.9943 48.7749C34.2562 49.3965 33.5505 50.0132 32.8851 50.6182C29.8239 53.4052 27.7588 55.7687 26.6457 57.793C25.573 59.7532 25.3958 61.391 26.0769 62.7741C27.4604 65.5811 31.6027 65.7305 39.1083 63.238C42.3389 62.1653 45.5291 60.8546 48.6544 59.3945C49.0497 59.209 49.445 59.0234 49.8361 58.8336C49.8886 58.8099 49.941 58.7854 49.9934 58.7575C50.3206 58.6013 50.6435 58.4421 50.9667 58.2827L50.9669 58.2826L51.002 58.2652C51.3485 58.0936 51.7064 57.9132 52.0811 57.7244L52.2803 57.624L52.6514 57.4343C52.8653 57.3253 53.075 57.2167 53.2889 57.1035C53.8332 56.821 54.3774 56.5351 54.9221 56.2447C55.4385 55.97 55.9544 55.6879 56.475 55.4017C56.7371 55.2602 56.9951 55.1191 57.2531 54.9702L58.2334 54.4255C58.9753 54.0098 59.7135 53.5866 60.4475 53.163C60.7783 52.9737 61.1049 52.784 61.4315 52.5905C65.0374 50.473 68.4736 48.2747 71.6314 46.0769L72.3171 45.5971C73.3253 44.8873 74.3456 44.1449 75.35 43.391L75.8381 43.024C77.7497 41.576 79.5081 40.14 81.0851 38.7527C81.5973 38.9704 82.1536 39.0752 82.7345 39.0228C84.7917 38.8414 86.2959 36.8329 86.0904 34.5422C86.07 34.3125 86.0296 34.0945 85.9813 33.8806ZM96.269 49.4952C97.3616 49.4952 98.6054 49.9321 99.4463 50.7555L100.623 49.5455C99.4126 48.3521 97.8327 47.7638 96.269 47.7638C92.2511 47.7638 90.0824 50.6548 90.0824 54.0506C90.0824 57.1776 91.9486 60.052 96.269 60.052C98.2525 60.052 99.7151 59.2955 100.892 58.0014V53.1764H95.8654V54.8574H99.1434V57.2446C98.2022 58.0347 97.2776 58.2873 96.269 58.2873C93.2094 58.2873 91.9316 56.2022 91.9316 54.0506C91.9149 51.5623 93.5119 49.4952 96.269 49.4952ZM167.574 32.4131C165.117 32.0661 164.204 31.5967 164.204 30.6822C164.204 29.3099 165.883 28.8226 167.314 28.8226C168.817 28.843 170.144 29.4272 170.776 30.3476L171.067 30.7704L173.819 28.925L173.551 28.4989C172.33 26.5532 170.27 25.6074 167.254 25.6074C165.047 25.6074 163.108 26.2848 161.936 27.4657C161.09 28.3166 160.666 29.3852 160.675 30.6376C160.675 34.8377 164.923 35.4182 167.207 35.7303C169.708 36.0623 170.775 36.6802 170.775 37.797C170.775 39.7306 168.131 39.8813 167.321 39.8813C166.172 39.8813 164.066 39.5792 162.876 37.5565L162.598 37.083L159.861 38.9076L160.087 39.3237C161.508 41.9434 163.8 43.1643 167.299 43.1643C170.679 43.1643 174.301 41.755 174.326 37.797C174.326 33.8786 170.912 32.8763 167.574 32.4131ZM120.841 38.8675C121.578 38.1685 121.968 37.0995 121.968 35.7767V26.0783H125.497V35.7767C125.497 38.0516 124.784 39.9427 123.433 41.2451C122.186 42.448 120.423 43.1017 118.44 43.1017C118.332 43.1017 118.224 43.1001 118.115 43.0959C113.872 42.9877 111.127 40.1142 111.127 35.7767V26.0783H114.657V35.7767C114.657 38.1785 115.964 39.6631 118.153 39.7472C119.243 39.8037 120.172 39.5004 120.841 38.8675ZM124.221 58.3377C127.146 58.3377 128.373 56.2696 128.373 54.0169C128.373 51.8482 127.129 49.5959 124.255 49.5455C121.532 49.5455 120.069 51.445 120.069 54.0169C120.103 56.1015 121.313 58.3377 124.221 58.3377ZM130.24 53.9836C130.24 57.1609 128.306 60.069 124.221 60.069C120.136 60.069 118.203 57.0935 118.203 54.0002C118.203 50.4197 120.708 47.8308 124.255 47.8308C128.272 47.8474 130.24 50.8059 130.24 53.9836ZM152.794 55.6309L155.282 50.0331L157.77 55.6309H152.794ZM152.088 57.3457H158.459L159.586 59.8169H161.586L156.307 48.0492H154.257L148.979 59.8169H150.978L152.088 57.3457ZM168.123 48.0493V58.0685H174.326V59.8166H166.24V48.0493H168.123ZM140.895 58.0685H137.364V54.6053H140.911C141.987 54.6053 143.383 55.1771 143.383 56.4378C143.383 57.7319 141.937 58.0685 140.895 58.0685ZM140.911 52.9243H137.364V49.747H140.895C142.307 49.747 143.03 50.6216 143.03 51.4447C143.03 52.3697 142.324 52.9243 140.911 52.9243ZM144.896 51.4114C144.896 49.0746 143.13 48.0493 140.895 48.0493H135.499V59.8166H140.895C143.215 59.8166 145.265 59.0268 145.265 56.4545C145.265 55.5632 144.677 54.168 143.266 53.7482C144.375 53.2942 144.896 52.4034 144.896 51.4114ZM108.202 48.0493V58.0685H114.405V59.8166H106.32V48.0493H108.202ZM154.354 42.8048H150.824V26.0565H154.354V42.8048ZM145.311 26.8738V26.0562H141.449L135.795 32.0471V26.0562H132.244V42.8045H135.795V36.3987L142.061 42.8045H145.94V41.9162L138.312 34.1572L145.311 26.8738ZM105.817 26.0562V26.8738L98.8169 34.1572L106.445 41.9162V42.8045H102.565L96.3007 36.3995V42.8045H92.7489V26.0562H96.3007V32.0471L101.954 26.0562H105.817Z" fill="black"/>
</svg>
