<svg width="200" height="84" viewBox="0 0 200 84" fill="none" xmlns="http://www.w3.org/2000/svg">
<path d="M52.3473 31.4614C55.1984 28.1145 59.3826 26 64.0475 26C72.6367 26 79.5999 33.1638 79.5999 41.9997C79.5999 50.8369 72.6373 58 64.0482 58C59.3853 58 55.2023 55.8882 52.3519 52.544C55.526 51.9702 58.4909 50.5264 60.9339 48.3648C62.6417 46.9256 64.1531 45.2562 65.4272 43.4017L66.1468 42.2892C66.2018 42.2037 66.2311 42.1035 66.2311 42.001C66.2311 41.8985 66.2018 41.7983 66.1468 41.7128L65.4226 40.6003C64.1457 38.7476 62.6342 37.0783 60.928 35.6366C58.4831 33.4795 55.5196 32.0375 52.3473 31.4614Z" fill="black"/>
<path fill-rule="evenodd" clip-rule="evenodd" d="M50.5115 34.5763C56.4192 34.9985 60.572 39.406 62.3629 41.7233C62.4243 41.8042 62.4576 41.9038 62.4576 42.0064C62.4576 42.109 62.4243 42.2087 62.3629 42.2896C60.5688 44.6068 56.4186 49.0036 50.5174 49.4157C50.4365 49.4217 50.3549 49.4264 50.2733 49.4311C50.8445 50.5491 51.5423 51.5944 52.3519 52.544C51.8063 52.6431 51.2565 52.7155 50.7043 52.7622C50.3415 52.7925 49.9735 52.8026 49.6121 52.8026C45.1848 52.705 40.9301 51.0184 37.5845 48.0349C36.4876 47.093 35.4747 46.0523 34.558 44.925C34.5443 44.9111 34.5278 44.9005 34.5097 44.8939C34.4916 44.8873 34.4723 44.8849 34.4532 44.8868C34.434 44.8888 34.4156 44.895 34.3991 44.9051C34.3825 44.9152 34.3684 44.9289 34.3576 44.9452C33.3169 46.8286 32.5008 48.8341 31.9269 50.9184L31.9151 50.9494L31.8961 50.9804C31.7538 51.203 31.561 51.3868 31.3344 51.5159C31.1078 51.6451 30.8541 51.7157 30.595 51.7218C30.3966 51.7157 30.2015 51.67 30.0201 51.5878C29.7233 51.4476 29.472 51.2227 29.2961 50.9397C29.1202 50.6567 29.0272 50.3277 29.0281 49.9918V49.9608L29.0346 49.9298C29.7772 47.205 30.8893 44.6014 32.3381 42.1957C32.3758 42.1341 32.3958 42.0627 32.3958 41.99C32.3958 41.9172 32.3758 41.8458 32.3381 41.7842C30.8883 39.3872 29.7783 36.7897 29.0418 34.0703L29.0353 34.0501C28.961 33.6794 29.0047 33.2941 29.1599 32.951C29.3151 32.6079 29.5735 32.3253 29.897 32.145C30.0682 32.0605 30.2547 32.0141 30.4445 32.0088C30.6343 32.0035 30.823 32.0393 30.9984 32.114C31.2077 32.1975 31.3979 32.3248 31.5569 32.488C31.7158 32.6511 31.84 32.8464 31.9217 33.0615L31.9282 33.0925C32.5003 35.1699 33.3142 37.1687 34.3523 39.0454C34.3631 39.0618 34.3773 39.0755 34.3938 39.0856C34.4103 39.0957 34.4288 39.1019 34.4479 39.1038C34.4671 39.1058 34.4864 39.1034 34.5045 39.0968C34.5226 39.0901 34.539 39.0795 34.5527 39.0656C35.4675 37.9417 36.4785 36.9043 37.5734 35.9659C41.1925 32.709 45.8949 31.0154 50.6991 31.2385C51.2517 31.286 51.8019 31.3597 52.3479 31.4594C51.5413 32.4061 50.8459 33.4472 50.2761 34.5612C45.1522 34.2999 40.1193 37.0777 36.4628 41.7633C36.4099 41.8302 36.381 41.9138 36.381 42.0001C36.381 42.0863 36.4099 42.1699 36.4628 42.2368C40.1165 46.9201 45.1451 49.6972 50.272 49.4302C49.1382 47.2095 48.496 44.6825 48.496 42C48.4923 39.4088 49.1035 36.8548 50.2761 34.5612L50.5115 34.5763ZM57.9295 42.8233C58.0312 42.6287 58.0941 42.4152 58.1145 42.1953C58.1546 41.7637 58.0287 41.3332 57.7639 40.9958C57.4991 40.6585 57.1163 40.4412 56.6977 40.3905C56.279 40.3398 55.8576 40.4597 55.5238 40.7245C55.1901 40.9894 54.9704 41.3781 54.9118 41.8074C54.882 42.0262 54.895 42.2489 54.95 42.4624C55.005 42.6759 55.1009 42.876 55.2321 43.0509C55.3633 43.2258 55.5272 43.372 55.714 43.4809C55.9009 43.5897 56.1071 43.6591 56.3204 43.685C56.5337 43.7108 56.7499 43.6926 56.9563 43.6313C57.1626 43.5701 57.355 43.467 57.5221 43.3283C57.6893 43.1895 57.8278 43.0178 57.9295 42.8233Z" fill="black"/>
<path d="M149.165 35.4737C149.618 35.4735 149.992 35.3388 150.278 35.0743C150.566 34.8063 150.713 34.4514 150.713 34.0191C150.713 33.5874 150.566 33.2352 150.276 32.9726C149.991 32.7153 149.617 32.5847 149.165 32.5847C148.699 32.5847 148.322 32.716 148.043 32.9739C147.76 33.2352 147.617 33.5867 147.617 34.0191C147.617 34.4507 147.76 34.8056 148.041 35.0736C148.32 35.339 148.698 35.4737 149.165 35.4737Z" fill="black"/>
<path d="M143.83 37.1703H149.28C150.274 37.1703 150.482 37.7454 150.482 38.229V45.8944C150.482 46.3133 150.355 46.6419 150.103 46.8709C149.856 47.0958 149.54 47.2103 149.165 47.2103C148.79 47.2103 148.471 47.0965 148.217 46.8722C147.959 46.6433 147.828 46.314 147.828 45.8938V39.2889H143.83V45.8938C143.83 46.314 143.702 46.6399 143.45 46.8628C143.203 47.0803 142.887 47.1908 142.512 47.1908C142.138 47.1908 141.82 47.0803 141.567 46.8635C141.307 46.6413 141.176 46.3146 141.176 45.8938V39.2889H140.343C139.349 39.2889 139.14 38.7125 139.14 38.2296C139.14 37.7461 139.349 37.1703 140.343 37.1703H141.176C141.181 35.9326 141.512 34.9339 142.159 34.2006C142.812 33.4619 143.74 33.0315 144.92 32.9231L145.362 32.8841C145.461 32.8679 145.561 32.8612 145.661 32.8639C146.607 32.8639 146.806 33.4188 146.806 33.8834C146.806 34.208 146.716 34.4646 146.538 34.6477C146.364 34.8269 146.125 34.9326 145.827 34.9622L145.404 35.0013C144.852 35.0511 144.448 35.2255 144.203 35.5191C143.955 35.8168 143.83 36.2626 143.83 36.8471V37.1703Z" fill="black"/>
<path d="M158.916 41.7853C159.423 42.0324 159.793 42.3482 160.016 42.724C160.238 43.0991 160.352 43.5806 160.352 44.1557C160.352 45.0911 159.969 45.8513 159.214 46.415C158.472 46.9692 157.474 47.25 156.25 47.25C154.837 47.25 153.677 46.9571 152.804 46.3813C152.356 46.1066 152.129 45.7106 152.129 45.2028C152.129 44.9072 152.21 44.6628 152.372 44.4742C152.537 44.2809 152.743 44.1826 152.985 44.1826C153.227 44.1826 153.541 44.291 153.948 44.5146C154.304 44.6895 154.671 44.838 155.048 44.9591C155.373 45.0601 155.797 45.1113 156.308 45.1113C156.819 45.1113 157.22 45.0244 157.5 44.8533C157.762 44.6924 157.889 44.4776 157.889 44.1954C157.889 44.0042 157.84 43.8594 157.742 43.7516C157.634 43.6358 157.431 43.524 157.139 43.4203C156.83 43.3099 156.354 43.1819 155.723 43.0385C154.57 42.7987 153.726 42.4499 153.22 42.0028C152.7 41.5448 152.436 40.9065 152.436 40.1058C152.432 39.5128 152.616 38.9347 152.96 38.4586C153.305 37.9737 153.785 37.5933 154.385 37.3286C154.98 37.066 155.666 36.9333 156.423 36.9333C156.959 36.9318 157.493 37.0029 158.011 37.1448C158.521 37.2862 158.984 37.4949 159.39 37.7643C159.836 38.0505 160.064 38.4404 160.064 38.9206C160.064 39.2142 159.982 39.4647 159.823 39.6653C159.658 39.8741 159.45 39.9798 159.206 39.9798C159.049 39.9798 158.893 39.9468 158.743 39.8808C158.605 39.8196 158.43 39.7273 158.223 39.6074C157.861 39.4148 157.543 39.268 157.283 39.1724C157.029 39.0788 156.707 39.0317 156.327 39.0317C155.882 39.0317 155.528 39.1233 155.276 39.3044C155.035 39.4775 154.917 39.7071 154.917 40.0074C154.917 40.2896 155.035 40.4984 155.278 40.6452C155.546 40.8088 156.082 40.9765 156.871 41.1435C157.734 41.3294 158.423 41.5455 158.916 41.7853Z" fill="black"/>
<path d="M167.57 36.9321C166.875 36.9321 166.246 37.0735 165.699 37.351C165.277 37.5634 164.904 37.8668 164.606 38.2406V34.0405C164.606 33.6607 164.481 33.3549 164.236 33.1327C163.995 32.9145 163.676 32.8041 163.288 32.8041C162.899 32.8041 162.576 32.9213 162.329 33.1543C162.078 33.39 161.951 33.7011 161.951 34.0802V45.8933C161.951 46.2973 162.071 46.6205 162.307 46.8562C162.542 47.0906 162.865 47.2091 163.269 47.2091C163.671 47.2091 163.998 47.0913 164.24 46.8576C164.482 46.6219 164.606 46.298 164.606 45.8933V41.4878C164.606 40.776 164.804 40.2016 165.194 39.7807C165.584 39.3618 166.111 39.1497 166.763 39.1497C167.311 39.1497 167.715 39.2978 167.964 39.5887C168.217 39.8857 168.345 40.3719 168.345 41.0339V45.8933C168.345 46.298 168.469 46.6226 168.712 46.8576C168.953 47.0913 169.279 47.2091 169.683 47.2091C170.086 47.2091 170.409 47.0906 170.644 46.8562C170.88 46.6205 171 46.2973 171 45.8933V41.0339C171 38.3126 169.846 36.9321 167.57 36.9321Z" fill="black"/>
<path d="M90.5641 41.7847C91.0709 42.0319 91.4415 42.3477 91.6648 42.7235C91.8868 43.0986 92.0001 43.5801 92.0001 44.1552C92.0001 45.0905 91.617 45.8508 90.8627 46.4145C90.1208 46.9687 89.1228 47.2495 87.8983 47.2495C86.4853 47.2495 85.3262 46.9566 84.4521 46.3808C84.0042 46.1061 83.7776 45.7101 83.7776 45.2023C83.7776 44.9067 83.8588 44.6623 84.0199 44.4737C84.1856 44.2804 84.3918 44.1821 84.6341 44.1821C84.8751 44.1821 85.1894 44.2905 85.5967 44.5141C85.9526 44.689 86.3202 44.8375 86.6968 44.9586C87.0215 45.0596 87.4452 45.1107 87.956 45.1107C88.4674 45.1107 88.8694 45.0239 89.1484 44.8528C89.4103 44.6919 89.5373 44.4771 89.5373 44.1949C89.5373 44.0037 89.4895 43.8589 89.39 43.7511C89.2826 43.6353 89.0796 43.5235 88.7876 43.4198C88.4792 43.3094 88.0031 43.1814 87.3719 43.038C86.2181 42.7982 85.3747 42.4494 84.8679 42.0023C84.3479 41.5443 84.0847 40.9059 84.0847 40.1053C84.0847 39.5005 84.2609 38.9456 84.6086 38.4581C84.9536 37.9732 85.433 37.5927 86.0334 37.3281C86.6293 37.0655 87.3142 36.9328 88.0712 36.9328C88.6072 36.9313 89.1411 37.0024 89.6591 37.1442C90.1477 37.2759 90.6134 37.4849 91.0395 37.7638C91.4847 38.05 91.712 38.4399 91.712 38.92C91.712 39.2137 91.6314 39.4642 91.4723 39.6648C91.3066 39.8736 91.0991 39.9793 90.8555 39.9793C90.6977 39.9793 90.5418 39.9463 90.3925 39.8803C90.2537 39.8191 90.0782 39.7268 89.8713 39.6069C89.5098 39.4143 89.1916 39.2675 88.931 39.1719C88.6769 39.0783 88.356 39.0312 87.9749 39.0312C87.5303 39.0312 87.1767 39.1227 86.9246 39.3039C86.6837 39.477 86.5658 39.7066 86.5658 40.0069C86.5658 40.2891 86.6837 40.4979 86.9259 40.6447C87.1944 40.8083 87.7307 40.976 88.5191 41.143C89.3834 41.3288 90.071 41.545 90.5641 41.7847Z" fill="black"/>
<path d="M98.3413 45.0717L98.8599 45.1107C99.7504 45.166 99.937 45.6953 99.937 46.1296C99.937 46.4919 99.7917 46.7721 99.5049 46.9613C99.2691 47.1162 98.9489 47.1943 98.5508 47.1943C98.4899 47.1943 98.4277 47.1923 98.3635 47.1896L97.8423 47.1492C95.6238 46.9862 94.4988 45.7458 94.4988 43.4629V39.2877H93.6659C93.2914 39.2877 92.996 39.1975 92.7885 39.0204C92.573 38.8372 92.4637 38.5705 92.4637 38.2284C92.4637 37.8864 92.5724 37.6197 92.7885 37.4358C92.9967 37.2587 93.292 37.1692 93.6659 37.1692H94.4988V35.4823C94.4988 35.091 94.6226 34.7732 94.8655 34.5375C95.1065 34.3045 95.4333 34.1859 95.836 34.1859C96.2256 34.1859 96.5458 34.3045 96.7867 34.5375C97.0303 34.7732 97.1534 35.0917 97.1534 35.4823V37.1698H98.6589C99.0321 37.1698 99.3281 37.2594 99.5363 37.4365C99.7517 37.6204 99.8611 37.887 99.8611 38.2291C99.8611 38.5712 99.7517 38.8379 99.5363 39.0211C99.3281 39.1982 99.0328 39.2884 98.6582 39.2884H97.1534V43.6414C97.1534 44.5437 97.5424 45.0111 98.3413 45.0717Z" fill="black"/>
<path fill-rule="evenodd" clip-rule="evenodd" d="M105.386 36.9321C106.721 36.9321 107.731 37.2816 108.385 37.9692C109.04 38.6567 109.373 39.7079 109.373 41.0932V45.9135C109.373 46.304 109.256 46.6178 109.026 46.8461C108.799 47.0744 108.484 47.1896 108.093 47.1896C107.728 47.1896 107.424 47.0711 107.188 46.8374C106.968 46.6172 106.849 46.331 106.835 45.9855C106.617 46.3152 106.332 46.5918 105.999 46.7956C105.513 47.0966 104.945 47.2488 104.311 47.2488C103.667 47.2488 103.072 47.1115 102.545 46.8401C102.015 46.568 101.592 46.1869 101.286 45.7087C100.98 45.2286 100.824 44.6858 100.824 44.0959C100.824 43.3552 101.012 42.7605 101.384 42.3295C101.752 41.9026 102.353 41.5901 103.169 41.4002C103.969 41.2144 105.083 41.1201 106.48 41.1201H106.834V40.7969C106.834 40.1888 106.709 39.7436 106.464 39.4736C106.222 39.2062 105.814 39.0709 105.251 39.0709C104.88 39.073 104.51 39.1278 104.153 39.2339C103.776 39.3436 103.321 39.5052 102.802 39.714C102.459 39.8911 102.201 39.9793 102.026 39.9793C101.758 39.9793 101.535 39.8783 101.365 39.6783C101.197 39.4844 101.112 39.2291 101.112 38.92C101.107 38.6871 101.172 38.4583 101.297 38.2641C101.416 38.0823 101.615 37.9133 101.888 37.7591C102.344 37.5039 102.895 37.2998 103.524 37.153C104.151 37.0062 104.777 36.9321 105.386 36.9321ZM106.834 42.97V42.6858H106.615C105.769 42.6858 105.104 42.7248 104.639 42.8023C104.192 42.877 103.872 43.0057 103.687 43.1834C103.508 43.3572 103.421 43.5908 103.421 43.8986C103.421 44.2851 103.548 44.5922 103.811 44.8387C104.077 45.0885 104.398 45.2097 104.791 45.2097C105.4 45.2097 105.882 45.0064 106.263 44.5889C106.642 44.1754 106.834 43.6299 106.834 42.97Z" fill="black"/>
<path d="M116.884 41.9605L120.121 44.9464C120.404 45.2239 120.547 45.5417 120.547 45.8933C120.547 46.2286 120.429 46.531 120.197 46.7923C119.962 47.0562 119.682 47.1896 119.364 47.1896C119.05 47.1896 118.756 47.0583 118.489 46.7983L114.211 42.8104V45.8933C114.211 46.3141 114.08 46.6407 113.82 46.863C113.567 47.0798 113.249 47.1896 112.874 47.1896C112.5 47.1896 112.184 47.0798 111.936 46.8623C111.685 46.6394 111.557 46.3135 111.557 45.8933V34.1004C111.557 33.6802 111.685 33.3536 111.938 33.1314C112.183 32.9139 112.499 32.8041 112.874 32.8041C113.249 32.8041 113.567 32.9139 113.82 33.1307C114.08 33.3529 114.211 33.6795 114.211 34.1004V41.2218L118.105 37.3833C118.357 37.124 118.652 36.9921 118.98 36.9921C119.14 36.9912 119.299 37.024 119.447 37.0884C119.594 37.1528 119.727 37.2474 119.838 37.3665C120.08 37.6143 120.201 37.9119 120.201 38.2486C120.201 38.586 120.067 38.8965 119.799 39.1706L116.884 41.9605Z" fill="black"/>
<path fill-rule="evenodd" clip-rule="evenodd" d="M128.568 44.5101C128.967 44.2905 129.263 44.1821 129.465 44.1821C129.586 44.179 129.705 44.2049 129.814 44.2579C129.923 44.3109 130.018 44.3894 130.092 44.4872C130.244 44.6825 130.322 44.9424 130.322 45.2616C130.322 45.7182 130.061 46.102 129.547 46.4024C129.071 46.6707 128.564 46.8772 128.038 47.0172C127.479 47.1714 126.938 47.2488 126.431 47.2488C124.893 47.2488 123.655 46.7842 122.751 45.8683C121.847 44.9511 121.389 43.6831 121.389 42.1006C121.389 41.0965 121.587 40.1921 121.979 39.413C122.354 38.6508 122.934 38.0155 123.65 37.5826C124.364 37.1517 125.184 36.9328 126.086 36.9328C126.949 36.9328 127.714 37.1315 128.358 37.5234C129.004 37.9173 129.511 38.4803 129.866 39.1968C130.219 39.91 130.398 40.7605 130.398 41.7255C130.398 42.5356 129.933 42.706 129.542 42.706H124.018C124.105 43.5067 124.339 44.1053 124.715 44.4865C125.111 44.8878 125.701 45.0912 126.469 45.0912C126.864 45.0912 127.216 45.0407 127.515 44.9397C127.822 44.836 128.176 44.6919 128.568 44.5101ZM124.02 41.1208H128.083C128.043 40.4184 127.862 39.8776 127.546 39.5113C127.209 39.1221 126.75 38.9322 126.143 38.9322C125.53 38.9322 125.034 39.1315 124.671 39.5248C124.326 39.8965 124.107 40.4332 124.02 41.1208Z" fill="black"/>
<path d="M136.425 40.975C136.16 40.6294 135.773 40.4062 135.348 40.3544C134.923 40.3026 134.496 40.4265 134.16 40.6988C133.824 40.9711 133.607 41.3694 133.556 41.8063C133.506 42.2432 133.626 42.6827 133.891 43.0282C134.156 43.3738 134.543 43.597 134.968 43.6488C135.393 43.7006 135.82 43.5767 136.156 43.3044C136.492 43.0321 136.709 42.6337 136.76 42.1969C136.81 41.76 136.69 41.3205 136.425 40.975Z" fill="black"/>
</svg>
