<svg width="200" height="84" viewBox="0 0 200 84" fill="none" xmlns="http://www.w3.org/2000/svg">
<path d="M37.7144 32.1208C37.7144 27.6429 41.365 24 45.8515 24C50.19 24 53.7461 27.4067 53.9761 31.6801C52.6007 31.7696 51.3697 32.0858 50.2446 32.6437V32.1208C50.2446 29.7035 48.2741 27.7365 45.8515 27.7365C43.429 27.7365 41.4588 29.7035 41.4588 32.1208C41.4588 33.1481 41.8025 34.1092 42.4539 34.9003L43.1746 35.7438L51.4217 45.8644L52.1237 46.6924C53.3384 48.1597 53.9997 49.9955 53.9997 51.8796C53.9997 56.3571 50.3495 60 45.8626 60C41.5134 60 37.9507 56.5771 37.7362 52.289C39.0215 52.1759 40.3057 51.8129 41.4695 51.2487V51.8796C41.4695 54.2969 43.4401 56.2635 45.8626 56.2635C48.2851 56.2635 50.2557 54.2969 50.2557 51.8796C50.2557 50.8474 49.9086 49.8827 49.2514 49.0886L48.5285 48.236L40.2839 38.1183L39.5768 37.2911C38.3757 35.8411 37.7144 34.0045 37.7144 32.1208Z" fill="black"/>
<path d="M69.7472 46.9833C69.7472 48.0387 69.6295 48.6249 69.1125 48.8829C70.0057 48.9529 73.8361 48.8361 73.8361 48.8361C73.8361 48.8361 73.1312 48.4606 73.1312 46.6078V35.7727C73.1312 34.7174 73.1312 34.0607 73.7656 33.756C71.7444 33.756 69.1125 33.7324 69.1125 33.7324C69.5589 34.0607 69.7472 34.6706 69.7472 35.3272V46.9833Z" fill="black"/>
<path d="M84.3642 48.883C84.8106 48.6951 84.9753 47.4758 84.9753 46.9131L84.9989 41.4956C84.9989 39.9943 84.1999 39.5252 82.7662 39.5252C81.6595 39.5252 81.3993 39.7421 80.6295 40.3837L80.5338 40.4634L80.5102 46.0921C80.5102 47.3114 80.5338 48.5783 81.2859 48.883C81.1331 48.883 80.7865 48.8904 80.3532 48.8995C79.0533 48.927 76.9736 48.9709 77.0087 48.883C77.5989 48.7016 77.5974 47.6893 77.5966 47.1552L77.5965 47.1003V39.7132C77.5965 38.5171 77.385 38.3295 76.8917 38.0712C77.9957 37.8836 80.5338 37.6493 80.5338 37.6493L80.5102 39.4552C81.7323 38.5171 83.495 37.5553 85.1163 37.5553C87.3254 37.5553 87.9129 39.2909 87.9129 41.3784C87.9129 42.0257 87.9069 42.6553 87.901 43.2821L87.901 43.2835V43.2849C87.8951 43.9059 87.8892 44.5243 87.8892 45.1543C87.8892 47.1242 87.983 48.5544 88.7351 48.8127C88.4303 48.8127 87.8395 48.8386 87.1884 48.8672C85.882 48.9245 84.3329 48.9925 84.3642 48.883Z" fill="black"/>
<path d="M95.1513 38.0477C95.1513 34.882 95.2687 32.9116 96.7963 32.9116C97.8774 32.9116 98.3943 33.6623 98.3943 33.6623L98.3474 31.9035C98.1358 31.8563 97.8774 31.8331 97.6189 31.8331C94.517 31.8331 92.0262 33.3571 92.3079 37.0395L92.3315 37.3442C92.2137 37.7901 91.5089 38.8454 90.7567 39.197C91.3209 39.2206 92.1905 39.2441 92.1905 39.2441L92.2137 46.2797C92.2137 46.2797 92.402 48.5544 91.5325 48.8831H96.4909C96.3234 48.7819 96.1732 48.7145 96.0397 48.6546C95.4621 48.3955 95.1982 48.2771 95.1982 46.1625L95.1746 39.2206L97.4546 39.2674L97.7596 38.0477H95.1513Z" fill="black"/>
<path d="M102.93 49.1643C101.567 49.1643 100.204 48.9532 98.9118 48.6013V45.0601C99.4054 46.4906 101.473 47.8275 103.377 47.8275C105.398 47.8275 106.385 47.0533 106.385 45.2477C106.385 43.394 104.91 42.9583 103.295 42.4808C101.354 41.9071 99.2087 41.2731 99.1702 38.0477C99.1466 34.8817 102.366 33.5448 105.116 33.5448C106.291 33.5448 108.006 33.8027 109.087 34.1314C109.087 34.1314 109.111 36.0074 109.111 37.016C108.664 36.0074 106.878 34.6941 105.045 34.6941C103.447 34.6941 102.272 35.5615 102.272 37.016C102.272 38.4403 103.55 38.8277 105.041 39.2796C107.109 39.9066 109.587 40.6576 109.628 44.4738C109.651 48.015 106.267 49.1643 102.93 49.1643Z" fill="black"/>
<path d="M112.872 46.0219C112.872 48.273 114.422 49.2115 116.843 49.2115C118.018 49.2115 118.793 48.5545 119.428 47.8511V47.194C119.17 47.5227 118.652 47.7807 118.041 47.8043C116.091 47.8979 115.762 46.9132 115.762 45.2713L115.786 39.5486H119.052L119.428 37.9777H115.738V35.5851H114.563C113.506 36.922 111.062 39.5254 111.062 39.5254L112.895 39.619L112.872 46.0219Z" fill="black"/>
<path fill-rule="evenodd" clip-rule="evenodd" d="M126.854 49.1644C122.718 49.1644 120.768 46.5846 120.768 43.301C120.768 39.9241 123.306 37.5083 127.395 37.5555C131.695 37.6259 133.646 39.9709 133.646 43.301C133.646 46.6314 130.92 49.1644 126.854 49.1644ZM126.854 38.5169C124.857 38.4701 123.94 40.2993 123.94 42.2692C123.94 44.6379 125.232 47.9447 127.7 48.0151C129.51 48.0622 130.591 46.3027 130.591 44.4503C130.591 42.152 129.51 38.5873 126.854 38.5169Z" fill="black"/>
<path d="M143.986 46.9131C143.986 47.4758 143.822 48.6951 143.375 48.883C143.344 48.9925 144.893 48.9245 146.2 48.8672C146.851 48.8386 147.442 48.8127 147.747 48.8127C146.995 48.5544 146.9 47.1242 146.9 45.1543C146.9 44.5243 146.906 43.906 146.912 43.285L146.912 43.2833C146.918 42.6561 146.924 42.0261 146.924 41.3784C146.924 39.2909 146.337 37.5553 144.127 37.5553C142.506 37.5553 140.743 38.5171 139.521 39.4552L139.545 37.6493C139.545 37.6493 137.007 37.8836 135.903 38.0712C136.396 38.3295 136.608 38.5171 136.608 39.7132V47.1003L136.608 47.1552C136.609 47.6893 136.61 48.7016 136.02 48.883C135.985 48.9709 138.064 48.927 139.364 48.8995C139.798 48.8904 140.144 48.883 140.297 48.883C139.545 48.5783 139.521 47.3114 139.521 46.0921L139.545 40.4634L139.642 40.3829C140.411 39.7419 140.671 39.5252 141.777 39.5252C143.211 39.5252 144.01 39.9943 144.01 41.4956L143.986 46.9131Z" fill="black"/>
<path fill-rule="evenodd" clip-rule="evenodd" d="M153.646 42.5039C153.727 42.585 153.707 42.6271 153.675 42.6932C153.652 42.7417 153.622 42.8032 153.622 42.9026C153.622 45.6699 154.421 47.7574 157.828 47.7335C159.285 47.7106 160.484 47.1 161.189 46.7017L161.048 48.2029C159.943 48.6952 158.393 49.2115 156.794 49.2115C152.517 49.2343 150.309 47.0068 150.309 43.3481C150.309 40.2992 152.377 37.3911 156.794 37.4615C160.86 37.5318 161.635 39.8537 161.565 42.5039H153.646ZM156.724 38.5168C154.844 38.5168 153.693 39.9709 153.693 41.6125L155.596 41.5657C155.698 41.5616 155.851 41.5639 156.036 41.5667C156.913 41.5798 158.492 41.6035 158.627 41.003L158.638 40.9524C158.667 40.8098 158.721 40.5431 158.721 40.44C158.721 39.3142 158.087 38.5168 156.724 38.5168Z" fill="black"/>
<path d="M163.304 48.8123C164.409 49.0706 165.701 49.2345 166.829 49.2345C169.273 49.2345 172.046 48.2028 171.999 45.3882C171.959 42.7477 170.092 42.2496 168.522 41.8306C167.373 41.524 166.383 41.2597 166.383 40.229C166.383 39.1737 167.182 38.4934 168.263 38.4934C169.509 38.4934 170.918 39.2673 171.341 40.3694C171.412 39.7131 171.341 37.9072 171.341 37.9072C170.59 37.7192 169.062 37.5085 168.263 37.5085C166.242 37.5085 163.563 38.1651 163.563 40.7681C163.563 43.3638 165.36 43.8681 166.904 44.3014C168.066 44.6276 169.085 44.9135 169.085 46.0217C169.085 47.3114 168.075 48.156 166.712 48.156C165.396 48.156 163.751 47.0774 163.304 45.7166C163.375 46.444 163.304 48.8123 163.304 48.8123Z" fill="black"/>
<path d="M36.9882 50.8557C39.2239 50.8277 41.5364 49.8851 43.0462 48.3784C43.8027 47.6237 44.4884 46.837 45.1334 46.0392L42.7139 43.0696C41.9894 44.0033 41.2399 44.8969 40.3988 45.7363C39.7076 46.4261 38.3536 47.1215 36.8863 47.1215C34.051 47.1215 31.744 44.8195 31.744 41.9899C31.744 39.1602 34.051 36.8579 36.8863 36.8579C37.202 36.8579 37.5103 36.8863 37.8101 36.9375C37.1119 35.7749 36.6736 34.4756 36.5266 33.1306C31.7931 33.32 28 37.2201 28 41.9899C28 46.8447 31.9301 50.7994 36.7818 50.8557H36.9882Z" fill="black"/>
<path d="M55.2339 33.1446V33.132C59.9409 33.3502 63.703 37.2392 63.703 41.9898C63.703 46.7566 59.915 50.6552 55.1856 50.849C55.0349 49.4989 54.5907 48.1948 53.8855 47.0311C54.1953 47.0897 54.5088 47.1214 54.8171 47.1214C57.6524 47.1214 59.959 44.8194 59.959 41.9898C59.959 39.1602 57.6524 36.8578 54.8171 36.8578C53.2685 36.8578 52.3166 37.2333 51.3042 38.2434C50.4627 39.0835 49.7128 39.9764 48.9891 40.9094L46.5696 37.9401C47.2142 37.1427 47.9003 36.3563 48.6572 35.6013C50.2124 34.0492 51.9179 33.2776 54.1115 33.1446H55.2339Z" fill="black"/>
</svg>
