<svg width="200" height="84" viewBox="0 0 200 84" fill="none" xmlns="http://www.w3.org/2000/svg">
<path fill-rule="evenodd" clip-rule="evenodd" d="M131.161 33.25H133.093V39.1355C133.528 38.5688 134.047 38.1381 134.65 37.8436C135.254 37.5417 135.909 37.3909 136.616 37.3909C138.088 37.3909 139.281 37.8989 140.194 38.9147C141.114 39.9232 141.574 41.414 141.574 43.3869C141.574 45.2566 141.121 46.81 140.216 48.0467C139.31 49.2835 138.055 49.9017 136.45 49.9017C135.552 49.9017 134.794 49.6846 134.176 49.2502C133.808 48.9926 133.414 48.5804 132.994 48.0136V49.5264H131.161V33.25ZM136.329 48.1461C137.404 48.1461 138.206 47.7191 138.736 46.8651C139.273 46.0112 139.542 44.8849 139.542 43.4862C139.542 42.2421 139.273 41.2115 138.736 40.3944C138.206 39.5772 137.422 39.1686 136.384 39.1686C135.479 39.1686 134.684 39.5036 133.999 40.1735C133.322 40.8434 132.983 41.9476 132.983 43.4862C132.983 44.5979 133.123 45.4996 133.403 46.1916C133.925 47.4946 134.901 48.1461 136.329 48.1461ZM71.7668 41.7414V50.0171C63.2951 50.0171 59.8634 47.7797 56.5686 45.6315C53.527 43.6484 50.602 41.7414 43.9361 41.7412V33.4655C52.3245 33.4655 55.7473 35.6909 59.043 37.8336C62.1029 39.8231 65.0533 41.7414 71.7668 41.7414ZM71.7668 41.7414V33.4655H78.7243V41.7414H71.7668ZM36.9785 41.7412C36.9785 41.7412 30.0499 41.7411 43.9361 41.7412V50.0171H36.9785V41.7412ZM157.674 45.8161C157.733 46.4786 157.899 46.9866 158.17 47.3399C158.671 47.9804 159.54 48.3006 160.776 48.3006C161.513 48.3006 162.16 48.1424 162.72 47.8257C163.28 47.5019 163.559 47.005 163.559 46.3351C163.559 45.8271 163.335 45.4406 162.885 45.1756C162.599 45.0136 162.031 44.826 161.185 44.6125L159.606 44.215C158.598 43.9646 157.854 43.6849 157.375 43.3757C156.521 42.8384 156.095 42.0949 156.095 41.1452C156.095 40.0262 156.496 39.1207 157.299 38.4287C158.108 37.7367 159.194 37.3907 160.556 37.3907C162.338 37.3907 163.621 37.9135 164.41 38.9589C164.903 39.6214 165.143 40.3354 165.128 41.101H163.25C163.214 40.652 163.055 40.2434 162.775 39.8754C162.319 39.3526 161.528 39.0914 160.401 39.0914C159.65 39.0914 159.08 39.2349 158.69 39.522C158.306 39.8091 158.115 40.1882 158.115 40.6594C158.115 41.1746 158.369 41.5869 158.878 41.8961C159.171 42.0801 159.606 42.242 160.18 42.3819L161.494 42.7021C162.923 43.0481 163.88 43.3831 164.365 43.707C165.139 44.215 165.525 45.0136 165.525 46.1032C165.525 47.1559 165.124 48.065 164.321 48.8306C163.526 49.5962 162.311 49.979 160.678 49.979C158.918 49.979 157.67 49.5815 156.934 48.7865C156.205 47.9841 155.815 46.9939 155.764 45.8161H157.674ZM145.892 45.551V37.7H143.86V45.7387C143.86 46.7472 144.025 47.5534 144.357 48.157C144.968 49.2834 146.116 49.8465 147.802 49.8465C148.884 49.8465 149.804 49.5372 150.562 48.919C150.945 48.6097 151.266 48.2306 151.523 47.7816L151.501 49.5262H153.378V37.7H151.391V43.5082C151.391 44.664 151.254 45.5731 150.982 46.2356C150.482 47.4724 149.539 48.0907 148.155 48.0907C147.191 48.0907 146.532 47.7374 146.179 47.0307C145.987 46.6479 145.892 46.1546 145.892 45.551ZM114.443 37.6997H112.477V49.5261H114.465V43.2541C114.465 41.7302 114.771 40.6775 115.382 40.096C116 39.5144 116.685 39.2236 117.435 39.2236C118.26 39.2236 118.823 39.4997 119.125 40.0519C119.316 40.4199 119.412 41.0051 119.412 41.8075V49.5261H121.433V42.6468C121.433 41.4248 121.713 40.5524 122.272 40.0297C122.839 39.5071 123.512 39.2457 124.293 39.2457C124.86 39.2457 125.338 39.393 125.728 39.6874C126.126 39.9819 126.325 40.523 126.325 41.3106V49.5261H128.389V41.653C128.389 40.6076 128.235 39.7758 127.926 39.1574C127.351 38.009 126.269 37.4347 124.679 37.4347C123.936 37.4347 123.266 37.5894 122.67 37.8986C122.073 38.2004 121.554 38.6679 121.113 39.301C120.848 38.7856 120.553 38.3955 120.229 38.1305C119.655 37.6666 118.897 37.4347 117.954 37.4347C117.123 37.4347 116.379 37.6594 115.724 38.1084C115.341 38.3734 114.914 38.7966 114.443 39.3782V37.6997ZM107.442 37.7554H109.463V49.5265H107.442V37.7554ZM107.442 33.3052H109.463V35.5579H107.442V33.3052ZM93.9595 33.3052H91.3645V49.5265H93.4625V36.3971L101.777 49.5265H104.24V33.3052H102.153V46.4456L93.9595 33.3052Z" fill="black"/>
</svg>
