<svg width="200" height="84" viewBox="0 0 200 84" fill="none" xmlns="http://www.w3.org/2000/svg">
<mask id="mask0_9325_440" style="mask-type:luminance" maskUnits="userSpaceOnUse" x="31" y="29" width="138" height="26">
<path d="M168.936 29.53H31.0637V54.47H168.936V29.53Z" fill="white"/>
</mask>
<g mask="url(#mask0_9325_440)">
<path d="M45.8208 34.8225C45.8208 31.7571 43.2307 29.53 39.7761 29.53H31.0027V49.0269H34.3451V41.4774H40.3336C41.7823 41.4774 42.2014 41.8967 42.2014 43.3452V49.0269H45.5438V42.5104C45.5438 40.6727 44.7092 39.7519 42.5908 39.7519C44.7092 39.0558 45.8208 37.3003 45.8208 34.8225ZM38.9413 38.528H34.3451V32.5094H38.9413C41.2545 32.5094 42.4784 33.4826 42.4784 35.4064C42.4784 37.3303 41.2545 38.528 38.9413 38.528Z" fill="black"/>
<path d="M54.7379 34.824C50.7554 34.824 47.9146 37.8334 47.9146 42.0665C47.9146 46.2997 50.7554 49.3091 54.7379 49.3091C58.7203 49.3091 61.5912 46.2997 61.5912 42.0665C61.5912 37.8334 58.7502 34.824 54.7379 34.824ZM54.8763 46.689H54.6255C52.5632 46.689 51.1147 44.9898 51.1147 42.0665C51.1147 39.1434 52.5632 37.444 54.6255 37.444H54.8763C56.9386 37.444 58.3572 39.1434 58.3572 42.0665C58.3572 44.9898 56.9349 46.689 54.8763 46.689Z" fill="black"/>
<path d="M69.5817 37.444H69.7766C71.3373 37.444 72.2842 38.4172 72.505 39.8657H75.7089C75.4319 36.5794 73.1188 34.824 69.6941 34.824C65.6817 34.824 63.0093 37.7772 63.0093 42.0665C63.0093 46.356 65.6817 49.3091 69.6941 49.3091C73.1188 49.3091 75.4319 47.5537 75.7089 44.2673H72.505C72.2805 45.716 71.3335 46.689 69.7766 46.689H69.5817C67.2424 46.689 66.2094 44.5444 66.2094 42.0665C66.2094 39.5887 67.2388 37.444 69.5817 37.444Z" fill="black"/>
<path d="M90.612 35.0995H86.5735L81.0565 40.6727V29.53H77.8562V49.0269H81.0565V44.6552L82.8119 42.8998L87.0451 49.0269H90.889L85.0689 40.6427L90.612 35.0995Z" fill="black"/>
<path d="M102.645 39.9481C102.645 36.8827 100.444 34.824 96.8809 34.824C93.5383 34.824 91.2815 36.7179 91.0605 39.308H94.2644C94.3768 38.2488 95.3799 37.4402 96.7985 37.4402H96.9669C98.5276 37.4402 99.5007 38.4697 99.5007 40.0304V40.4197L95.8516 40.7266C93.3175 40.9211 90.7837 42.1189 90.7837 45.2106C90.7837 47.6322 92.7898 49.3053 95.3538 49.3053C97.3298 49.3053 98.8907 48.3321 99.6168 47.1045C99.6431 47.5236 99.673 48.4969 99.7854 49.0246H102.795C102.656 48.0515 102.656 46.7975 102.656 45.9592V39.9443L102.645 39.9481ZM99.4971 43.6236C99.4971 45.379 97.7716 46.689 96.0985 46.689H95.9039C94.7622 46.689 93.9277 45.9928 93.9277 45.016C93.9277 43.8182 95.0693 43.2044 96.2968 43.0958L99.5007 42.8189V43.6274L99.4971 43.6236Z" fill="black"/>
<path d="M118.857 45.714L116.102 35.0991H112.704L110.084 45.7701L107.187 35.0991H103.927L108.19 49.0265H111.783L114.429 38.8046L117.132 49.0265H120.695L124.82 35.0991H121.646L118.857 45.714Z" fill="black"/>
<path d="M137.104 39.9481C137.104 36.8827 134.903 34.824 131.336 34.824C127.993 34.824 125.736 36.7179 125.516 39.308H128.719C128.832 38.2488 129.835 37.4402 131.253 37.4402H131.422C132.983 37.4402 133.956 38.4697 133.956 40.0304V40.4197L130.306 40.7266C127.772 40.9211 125.239 42.1189 125.239 45.2106C125.239 47.6322 127.245 49.3053 129.809 49.3053C131.785 49.3053 133.346 48.3321 134.072 47.1045C134.098 47.5236 134.128 48.4969 134.24 49.0246H137.25C137.111 48.0515 137.111 46.7975 137.111 45.9592V39.9443L137.104 39.9481ZM133.956 43.6236C133.956 45.379 132.23 46.689 130.557 46.689H130.362C129.221 46.689 128.386 45.9928 128.386 45.016C128.386 43.8182 129.528 43.2044 130.756 43.0958L133.959 42.8189V43.6274L133.956 43.6236Z" fill="black"/>
<path d="M149.558 35.0991L145.687 44.3479L141.705 35.0991H138.167L144.156 48.3304V50.3066C144.156 51.3659 143.879 51.6427 142.79 51.6427H139.002V54.4574H143.876C146.046 54.4574 147.192 53.3158 147.192 51.115V48.1919L153.042 35.0991H149.561H149.558Z" fill="black"/>
<path d="M162.836 40.1912H157.979L151.786 49.1661H155.477L160.335 42.1386L165.113 49.1661H168.938L162.836 40.1912Z" fill="black"/>
<path d="M157.901 38.5051H162.758L168.95 29.53H165.26L160.403 36.5576L155.625 29.53H151.8L157.901 38.5051Z" fill="black"/>
</g>
</svg>
