<svg width="200" height="84" viewBox="0 0 200 84" fill="none" xmlns="http://www.w3.org/2000/svg">
<g clip-path="url(#clip0_1270_18022)">
<path d="M79.0682 56C77.1126 56 75.3345 55.4214 73.9382 54.2141C73.834 54.1254 73.7337 54.0328 73.6373 53.9364C69.0589 56.5554 64.4612 56.702 61.5915 54.2141C59.4083 52.3241 58.5636 49.277 59.2116 45.6358C59.794 42.3496 61.5567 38.8858 64.1719 35.885C69.8997 29.3163 77.7375 27.0791 82.0189 30.7858L79.4809 33.698C76.7037 31.2911 70.7213 34.2496 67.0879 38.4153C64.924 40.8954 63.4776 43.6957 63.0147 46.307C62.7833 47.6107 62.6175 49.9983 64.1256 51.302C65.6916 52.6597 68.6153 52.3588 71.6779 50.6115C70.135 45.5896 73.105 39.6418 75.7665 36.5793C77.1743 34.9631 78.8792 34.2187 80.5686 34.481C82.6746 34.8088 84.2329 36.6834 84.3602 39.0324C84.4219 40.1703 84.1635 41.3583 83.5695 42.6658C82.5126 44.9994 81.0816 47.2288 79.4385 49.115C78.6477 50.0214 77.803 50.8623 76.912 51.6183C79.8435 53.4118 85.417 50.5383 88.8692 46.5808L91.7852 49.115C87.928 53.5391 83.1105 56 79.0682 56ZM79.9052 38.288C79.5927 38.288 79.1376 38.5927 78.6902 39.1095C76.8619 41.2078 74.968 44.9107 75.1339 48.0311C75.616 47.576 76.0789 47.0938 76.5225 46.5847C77.9265 44.9763 79.1453 43.0708 80.0479 41.0767C80.3796 40.3477 80.5262 39.746 80.4992 39.2407C80.4799 38.8781 80.3025 38.3458 79.9707 38.2957C79.9515 38.288 79.9283 38.288 79.9052 38.288Z" fill="black"/>
<path d="M123.8 45.3235H121.304V29.3857H117.447H114.944L109.143 45.3235V49.1806H117.447V55.6143H121.304V49.1806H123.8V45.3235ZM112.919 45.3235L117.447 32.8842V45.3235H112.919Z" fill="black"/>
<path d="M129.586 29.3857L124.186 33.8562L126.527 36.7143L129.586 33.9912V55.6143H133.443V29.3857H129.586Z" fill="black"/>
<path d="M104.903 55.6143H108.757L104.124 29.3857H97.9606L93.3281 55.6143H97.1814L98.273 49.1806H103.808L104.903 55.6143ZM98.9287 45.3235L101.042 32.8842L103.156 45.3235H98.9287Z" fill="black"/>
<path d="M138.144 31.9315C138.399 31.8196 138.553 31.5882 138.553 31.2758C138.553 30.8322 138.245 30.5429 137.762 30.5429H137.28H136.972H136.817V32.8572H137.28V32.0086H137.666L138.129 32.8572H138.669L138.144 31.9315ZM138.09 31.2758C138.09 31.4686 137.99 31.6229 137.685 31.6229H137.28V30.9286H137.685C137.99 30.9286 138.09 31.0829 138.09 31.2758Z" fill="black"/>
<path d="M137.685 29.3857C136.409 29.3857 135.371 30.4233 135.371 31.7C135.371 32.9767 136.409 34.0143 137.685 34.0143C138.962 34.0143 140 32.9767 140 31.7C140 30.4233 138.962 29.3857 137.685 29.3857ZM137.685 33.5515C136.663 33.5515 135.834 32.7222 135.834 31.7C135.834 30.6779 136.663 29.8486 137.685 29.8486C138.708 29.8486 139.537 30.6779 139.537 31.7C139.537 32.7222 138.708 33.5515 137.685 33.5515Z" fill="black"/>
</g>
<defs>
<clipPath id="clip0_1270_18022">
<rect width="81" height="27" fill="white" transform="translate(59 29)"/>
</clipPath>
</defs>
</svg>
