<svg width="200" height="84" viewBox="0 0 200 84" fill="none" xmlns="http://www.w3.org/2000/svg">
<g clip-path="url(#clip0_1270_18535)">
<path fill-rule="evenodd" clip-rule="evenodd" d="M67.8096 38.8089C68.9136 36.3193 70.0228 33.8319 71.1142 31.337C71.2347 31.0615 71.3725 30.9603 71.6797 30.9638C73.0667 30.9806 74.4541 30.9763 75.8412 30.9667C76.1013 30.9649 76.2693 31.0027 76.3867 31.2758C78.3077 35.7446 80.2409 40.2083 82.1693 44.6741C82.1908 44.724 82.1847 44.7854 82.1976 44.8922C81.3767 44.8922 80.5714 44.8748 79.7673 44.8998C79.3914 44.9115 79.3682 44.634 79.2761 44.4208C77.7583 40.9008 76.2354 37.3829 74.7494 33.8499C74.555 33.3878 74.3256 33.2241 73.8401 33.2666C73.3479 33.3098 72.887 33.1705 72.6283 33.8604C72.0012 35.5336 71.2509 37.1621 70.5502 38.8087C69.6367 38.8088 68.7231 38.8088 67.8096 38.8089Z" fill="black"/>
<path fill-rule="evenodd" clip-rule="evenodd" d="M110.776 38.8089C111.88 36.3193 112.99 33.8319 114.081 31.337C114.202 31.0615 114.339 30.9603 114.646 30.9638C116.034 30.9806 117.421 30.9763 118.808 30.9667C119.068 30.9649 119.236 31.0027 119.353 31.2758C121.275 35.7446 123.208 40.2083 125.136 44.6741C125.158 44.724 125.152 44.7854 125.164 44.8922C124.344 44.8922 123.538 44.8748 122.734 44.8998C122.358 44.9115 122.335 44.634 122.243 44.4208C120.725 40.9008 119.202 37.3829 117.716 33.8499C117.522 33.3878 117.292 33.2241 116.807 33.2666C116.315 33.3098 115.854 33.1705 115.595 33.8604C114.968 35.5336 114.218 37.1621 113.517 38.8087C112.603 38.8088 111.69 38.8088 110.776 38.8089Z" fill="black"/>
<path fill-rule="evenodd" clip-rule="evenodd" d="M55.6509 38.4526C56.4029 38.4526 56.9234 38.3853 57.2126 38.2509C57.5014 38.1165 57.6462 37.8701 57.6462 37.5118V33.6365C57.6462 33.278 57.5014 33.0318 57.2126 32.8974C56.9234 32.7629 56.4029 32.6957 55.6509 32.6957H51.4295V38.4526H55.6509ZM51.4295 44.8365H48.5381V30.8365H55.6222C56.9134 30.8365 57.9208 30.9859 58.6436 31.2846C59.3664 31.5835 59.887 32.0725 60.2053 32.7517C60.5232 33.4315 60.6821 34.3683 60.6821 35.563C60.6821 37.2357 60.325 38.4301 59.6123 39.1469C58.8991 39.8639 57.7136 40.2222 56.0558 40.2222H51.4295V44.8365Z" fill="black"/>
<path fill-rule="evenodd" clip-rule="evenodd" d="M91.0906 38.1165H95.4495C96.1999 38.1165 96.7196 38.0493 97.0083 37.9148C97.2968 37.7804 97.4411 37.5342 97.4411 37.1757V33.6365C97.4411 33.278 97.2968 33.0318 97.0083 32.8974C96.7196 32.7629 96.1999 32.6957 95.4495 32.6957H91.0906V38.1165ZM98.1918 44.8365L95.1896 39.8861H91.0906V44.8365H88.2041V30.8365H95.4206C96.7096 30.8365 97.7154 30.9859 98.4371 31.2846C99.1587 31.5835 99.6784 32.0725 99.996 32.7517C100.313 33.4315 100.472 34.3682 100.472 35.5629C100.472 36.7132 100.284 37.6125 99.9093 38.2621C99.534 38.9118 98.9229 39.3635 98.0764 39.6172L101.338 44.8365H98.1918Z" fill="black"/>
<path fill-rule="evenodd" clip-rule="evenodd" d="M140.969 39.0125H135.184V44.8365H132.292V30.8365H142.126L141.808 32.6958H135.184V37.2429H140.969V39.0125Z" fill="black"/>
<mask id="mask0_1270_18535" style="mask-type:luminance" maskUnits="userSpaceOnUse" x="73" y="24" width="122" height="42">
<path d="M194.38 66V24H73.0059V66H194.38Z" fill="#23496E"/>
</mask>
<g mask="url(#mask0_1270_18535)">
<path fill-rule="evenodd" clip-rule="evenodd" d="M149.782 44.8365H152.62V30.8365H149.782V44.8365Z" fill="black"/>
</g>
<mask id="mask1_1270_18535" style="mask-type:luminance" maskUnits="userSpaceOnUse" x="73" y="24" width="122" height="42">
<path d="M194.38 66V24H73.0059V66H194.38Z" fill="#23496E"/>
</mask>
<g mask="url(#mask1_1270_18535)">
<path fill-rule="evenodd" clip-rule="evenodd" d="M111.515 41.1459C110.857 41.1461 110.236 41.1463 109.707 41.1463C109.169 42.3576 108.63 43.5693 108.07 44.829C108.969 44.829 109.766 44.8161 110.561 44.8362C110.825 44.8428 110.953 44.7538 111.048 44.5286C111.524 43.3987 112.01 42.2728 112.492 41.1456C112.165 41.1458 111.837 41.1458 111.515 41.1459Z" fill="black"/>
</g>
<path fill-rule="evenodd" clip-rule="evenodd" d="M53.3146 58.6757C53.2565 58.6757 53.2081 58.657 53.1694 58.6197C53.1307 58.5824 53.1113 58.5357 53.1113 58.4797V53.141H50.9914C50.9333 53.141 50.8849 53.1224 50.8462 53.085C50.8074 53.0477 50.7881 53.001 50.7881 52.945C50.7881 52.889 50.8074 52.8424 50.8462 52.805C50.8849 52.7677 50.9333 52.749 50.9914 52.749H55.6378C55.6959 52.749 55.7443 52.7677 55.783 52.805C55.8217 52.8424 55.8411 52.889 55.8411 52.945C55.8411 53.001 55.8217 53.0477 55.783 53.085C55.7443 53.1224 55.6959 53.141 55.6378 53.141H53.5179V58.4797C53.5179 58.5357 53.4985 58.5824 53.4598 58.6197C53.4211 58.657 53.3727 58.6757 53.3146 58.6757ZM60.0307 58.6664C59.8952 58.6664 59.8275 58.601 59.8275 58.4704V52.9544C59.8275 52.8237 59.8952 52.7584 60.0307 52.7584H63.7092C63.8447 52.7584 63.9124 52.8237 63.9124 52.9544C63.9124 53.085 63.8447 53.1504 63.7092 53.1504H60.234V55.4744H62.5669C62.7024 55.4744 62.7702 55.5397 62.7702 55.6704C62.7702 55.801 62.7024 55.8664 62.5669 55.8664H60.234V58.2744H63.7092C63.8447 58.2744 63.9124 58.3397 63.9124 58.4704C63.9124 58.601 63.8447 58.6664 63.7092 58.6664H60.0307ZM69.7671 58.6664C69.0798 58.6664 68.5797 58.517 68.2667 58.2184C67.9569 57.9166 67.802 57.4344 67.802 56.7717V54.653C67.802 53.9841 67.9569 53.5019 68.2667 53.2064C68.5797 52.9077 69.0766 52.7584 69.7574 52.7584H70.9287C71.5192 52.7584 71.9548 52.8766 72.2355 53.113C72.5162 53.3495 72.6679 53.7321 72.6904 54.261C72.6969 54.3264 72.6824 54.3777 72.6469 54.415C72.6146 54.4492 72.5646 54.4664 72.4968 54.4664C72.3646 54.4664 72.2936 54.401 72.2839 54.2704C72.2645 53.8504 72.1516 53.5595 71.9451 53.3977C71.7418 53.2328 71.403 53.1504 70.9287 53.1504H69.7574C69.3767 53.1504 69.0733 53.1986 68.8475 53.295C68.6216 53.3915 68.4587 53.5501 68.3586 53.771C68.2586 53.9888 68.2086 54.2828 68.2086 54.653V56.7717C68.2086 57.1388 68.2586 57.4328 68.3586 57.6537C68.4619 57.8715 68.6265 58.0301 68.8523 58.1297C69.0814 58.2261 69.3863 58.2744 69.7671 58.2744H70.9287C71.403 58.2744 71.7418 58.1935 71.9451 58.0317C72.1516 57.8668 72.2645 57.5744 72.2839 57.1544C72.2936 57.0237 72.3646 56.9584 72.4968 56.9584C72.5646 56.9584 72.6146 56.977 72.6469 57.0144C72.6824 57.0486 72.6969 57.0984 72.6904 57.1637C72.6679 57.6895 72.5162 58.0721 72.2355 58.3117C71.9548 58.5481 71.5192 58.6664 70.9287 58.6664H69.7671ZM77.4125 58.6664C77.3448 58.6664 77.2931 58.6508 77.2577 58.6197C77.2254 58.5855 77.2093 58.5357 77.2093 58.4704V52.9544C77.2093 52.889 77.2254 52.8408 77.2577 52.8097C77.2931 52.7755 77.3448 52.7584 77.4125 52.7584C77.4803 52.7584 77.5303 52.7755 77.5626 52.8097C77.5981 52.8408 77.6158 52.889 77.6158 52.9544V55.4744H81.7105V52.9544C81.7105 52.889 81.7266 52.8408 81.7589 52.8097C81.7944 52.7755 81.846 52.7584 81.9137 52.7584C81.9815 52.7584 82.0315 52.7755 82.0638 52.8097C82.0993 52.8408 82.117 52.889 82.117 52.9544V58.4704C82.117 58.5357 82.0993 58.5855 82.0638 58.6197C82.0315 58.6508 81.9815 58.6664 81.9137 58.6664C81.846 58.6664 81.7944 58.6508 81.7589 58.6197C81.7266 58.5855 81.7105 58.5357 81.7105 58.4704V55.8664H77.6158V58.4704C77.6158 58.5357 77.5981 58.5855 77.5626 58.6197C77.5303 58.6508 77.4803 58.6664 77.4125 58.6664ZM87.0327 58.6664C86.8972 58.6664 86.8294 58.601 86.8294 58.4704V52.9544C86.8294 52.8237 86.8972 52.7584 87.0327 52.7584C87.1069 52.7584 87.1779 52.7957 87.2457 52.8704L91.4178 58.0317H91.3306V52.9544C91.3306 52.8237 91.3984 52.7584 91.5339 52.7584C91.6694 52.7584 91.7372 52.8237 91.7372 52.9544V58.4704C91.7372 58.601 91.6694 58.6664 91.5339 58.6664C91.4597 58.6664 91.3887 58.629 91.321 58.5544L87.1489 53.393H87.236V58.4704C87.236 58.601 87.1682 58.6664 87.0327 58.6664ZM98.3179 58.6664C97.6306 58.6664 97.1304 58.517 96.8175 58.2184C96.5077 57.9166 96.3528 57.4344 96.3528 56.7717V54.653C96.3528 53.9841 96.5077 53.5004 96.8175 53.2017C97.1304 52.8999 97.6273 52.7521 98.3082 52.7584H99.4795C100.167 52.7584 100.665 52.9092 100.975 53.211C101.288 53.5097 101.445 53.9904 101.445 54.653V56.7717C101.445 57.4344 101.288 57.9166 100.975 58.2184C100.665 58.517 100.167 58.6664 99.4795 58.6664H98.3179ZM98.3179 58.2744H99.4795C99.8602 58.2744 100.164 58.2261 100.389 58.1297C100.618 58.0301 100.783 57.8715 100.883 57.6537C100.986 57.4328 101.038 57.1388 101.038 56.7717V54.653C101.038 54.2859 100.986 53.9935 100.883 53.7757C100.783 53.5548 100.618 53.3961 100.389 53.2997C100.164 53.2001 99.8602 53.1504 99.4795 53.1504H98.3082C97.9274 53.1472 97.6241 53.1939 97.3983 53.2904C97.1724 53.3868 97.0094 53.5455 96.9094 53.7664C96.8094 53.9872 96.7594 54.2828 96.7594 54.653V56.7717C96.7594 57.1388 96.8094 57.4328 96.9094 57.6537C97.0127 57.8715 97.1772 58.0301 97.4031 58.1297C97.6322 58.2261 97.9371 58.2744 98.3179 58.2744ZM106.263 58.6664C106.128 58.6664 106.06 58.601 106.06 58.4704V52.9544C106.06 52.8237 106.128 52.7584 106.263 52.7584C106.399 52.7584 106.467 52.8237 106.467 52.9544V58.2744H109.497C109.632 58.2744 109.7 58.3397 109.7 58.4704C109.7 58.601 109.632 58.6664 109.497 58.6664H106.263ZM115.409 58.6664C114.722 58.6664 114.222 58.517 113.909 58.2184C113.599 57.9166 113.444 57.4344 113.444 56.7717V54.653C113.444 53.9841 113.599 53.5004 113.909 53.2017C114.222 52.8999 114.719 52.7521 115.4 52.7584H116.571C117.258 52.7584 117.757 52.9092 118.066 53.211C118.379 53.5097 118.536 53.9904 118.536 54.653V56.7717C118.536 57.4344 118.379 57.9166 118.066 58.2184C117.757 58.517 117.258 58.6664 116.571 58.6664H115.409ZM115.409 58.2744H116.571C116.952 58.2744 117.255 58.2261 117.481 58.1297C117.71 58.0301 117.874 57.8715 117.974 57.6537C118.078 57.4328 118.129 57.1388 118.129 56.7717V54.653C118.129 54.2859 118.078 53.9935 117.974 53.7757C117.874 53.5548 117.71 53.3961 117.481 53.2997C117.255 53.2001 116.952 53.1504 116.571 53.1504H115.4C115.019 53.1472 114.716 53.1939 114.49 53.2904C114.264 53.3868 114.101 53.5455 114.001 53.7664C113.901 53.9872 113.851 54.2828 113.851 54.653V56.7717C113.851 57.1388 113.901 57.4328 114.001 57.6537C114.104 57.8715 114.269 58.0301 114.494 58.1297C114.724 58.2261 115.028 58.2744 115.409 58.2744ZM125.02 58.6664C124.332 58.6664 123.832 58.517 123.519 58.2184C123.21 57.9166 123.055 57.4344 123.055 56.7717V54.653C123.055 53.9841 123.21 53.5019 123.519 53.2064C123.832 52.9077 124.329 52.7584 125.01 52.7584H126.181C126.772 52.7584 127.207 52.8766 127.488 53.113C127.769 53.3495 127.921 53.7321 127.943 54.261C127.95 54.3264 127.935 54.3777 127.9 54.415C127.867 54.4492 127.817 54.4664 127.75 54.4664C127.617 54.4664 127.546 54.401 127.537 54.2704C127.517 53.8504 127.404 53.5595 127.198 53.3977C126.994 53.2328 126.656 53.1504 126.181 53.1504H125.01C124.629 53.1504 124.326 53.1986 124.1 53.295C123.874 53.3915 123.711 53.5501 123.611 53.771C123.511 53.9888 123.461 54.2828 123.461 54.653V56.7717C123.461 57.1388 123.511 57.4328 123.611 57.6537C123.715 57.8715 123.879 58.0301 124.105 58.1297C124.334 58.2261 124.639 58.2744 125.02 58.2744H126.181C126.523 58.2744 126.793 58.2339 126.99 58.153C127.19 58.069 127.332 57.9321 127.416 57.7424C127.503 57.5495 127.546 57.2881 127.546 56.9584V56.3237L126.385 56.3144C126.249 56.3144 126.181 56.249 126.181 56.1184C126.181 55.9877 126.249 55.9224 126.385 55.9224L127.75 55.9317C127.885 55.9317 127.953 55.997 127.953 56.1277V56.9584C127.953 57.5588 127.814 57.9944 127.537 58.265C127.259 58.5326 126.807 58.6664 126.181 58.6664H125.02ZM132.675 58.6664C132.617 58.6664 132.568 58.6477 132.53 58.6104C132.491 58.573 132.472 58.5264 132.472 58.4704V52.945C132.472 52.889 132.491 52.8424 132.53 52.805C132.568 52.7677 132.617 52.749 132.675 52.749C132.733 52.749 132.781 52.7677 132.82 52.805C132.859 52.8424 132.878 52.889 132.878 52.945V58.4704C132.878 58.5264 132.859 58.573 132.82 58.6104C132.781 58.6477 132.733 58.6664 132.675 58.6664ZM137.794 58.6664C137.658 58.6664 137.591 58.601 137.591 58.4704V52.9544C137.591 52.8237 137.658 52.7584 137.794 52.7584H141.472C141.608 52.7584 141.676 52.8237 141.676 52.9544C141.676 53.085 141.608 53.1504 141.472 53.1504H137.997V55.4744H140.33C140.466 55.4744 140.533 55.5397 140.533 55.6704C140.533 55.801 140.466 55.8664 140.33 55.8664H137.997V58.2744H141.472C141.608 58.2744 141.676 58.3397 141.676 58.4704C141.676 58.601 141.608 58.6664 141.472 58.6664H137.794ZM147.443 58.657C146.859 58.657 146.432 58.5279 146.16 58.2697C145.893 58.0115 145.759 57.6024 145.759 57.0424C145.759 56.9864 145.778 56.9397 145.817 56.9024C145.856 56.865 145.904 56.8464 145.962 56.8464C146.02 56.8464 146.069 56.865 146.107 56.9024C146.146 56.9397 146.165 56.9864 146.165 57.0424C146.165 57.4935 146.259 57.8108 146.446 57.9944C146.636 58.1748 146.969 58.265 147.443 58.265H148.837C149.311 58.265 149.642 58.1748 149.829 57.9944C150.02 57.8108 150.115 57.4935 150.115 57.0424C150.115 56.5881 150.02 56.2708 149.829 56.0904C149.642 55.9099 149.311 55.8197 148.837 55.8197H147.472C146.917 55.8197 146.512 55.6984 146.257 55.4557C146.002 55.2099 145.875 54.821 145.875 54.289C145.875 53.757 146.001 53.3697 146.252 53.127C146.507 52.8812 146.911 52.7584 147.462 52.7584H148.885C149.437 52.7584 149.839 52.8797 150.091 53.1224C150.345 53.365 150.473 53.7508 150.473 54.2797C150.473 54.3357 150.454 54.3824 150.415 54.4197C150.376 54.457 150.328 54.4757 150.27 54.4757C150.212 54.4757 150.163 54.457 150.124 54.4197C150.086 54.3824 150.066 54.3357 150.066 54.2797C150.066 53.8628 149.978 53.5704 149.8 53.4024C149.626 53.2344 149.321 53.1504 148.885 53.1504H147.462C147.027 53.1504 146.72 53.2359 146.543 53.407C146.369 53.575 146.281 53.869 146.281 54.289C146.281 54.709 146.37 55.0046 146.548 55.1757C146.725 55.3437 147.033 55.4277 147.472 55.4277H148.837C149.424 55.4277 149.852 55.5568 150.12 55.815C150.387 56.0733 150.521 56.4824 150.521 57.0424C150.521 57.6024 150.387 58.0115 150.12 58.2697C149.852 58.5279 149.424 58.657 148.837 58.657H147.443Z" fill="black"/>
</g>
<defs>
<clipPath id="clip0_1270_18535">
<rect width="132" height="42" fill="white" transform="translate(34 24)"/>
</clipPath>
</defs>
</svg>
