<svg width="200" height="84" viewBox="0 0 200 84" fill="none" xmlns="http://www.w3.org/2000/svg">
<path fill-rule="evenodd" clip-rule="evenodd" d="M42.573 30.4369L48.1405 40.2081C48.4497 40.7537 48.6115 41.3723 48.6095 42.0015C48.6075 42.6308 48.4418 43.2484 48.1291 43.7919L42.5617 53.5631C42.3135 53.9991 41.9567 54.3613 41.5271 54.6135C41.0975 54.8657 40.6101 54.999 40.1137 55H28.9929C28.3756 54.9988 27.7695 54.8334 27.235 54.5202C26.7005 54.207 26.2564 53.7571 25.9471 53.2153L20.3796 43.4298C20.1309 42.9929 20 42.4973 20 41.9928C20 41.4883 20.1309 40.9928 20.3796 40.5559L25.9471 30.7847C26.2562 30.2433 26.6999 29.7937 27.2338 29.4805C27.7677 29.1674 28.3733 29.0017 28.9901 29H40.1137C40.612 28.999 41.1017 29.1313 41.5335 29.3836C41.9653 29.6359 42.3239 29.9992 42.573 30.4369ZM22.5896 40.9381L21.9606 42.0331C22.1538 41.6977 22.4307 41.4199 22.7635 41.2277C23.0963 41.0354 23.4731 40.9356 23.8561 40.9381H33.1409C33.3269 40.9379 33.5096 40.8881 33.6707 40.7938C33.8318 40.6995 33.9656 40.5639 34.0589 40.4007L39.3373 31.1267H28.1117C28.4835 31.1426 28.8464 31.2469 29.1712 31.4311C29.496 31.6153 29.7736 31.8743 29.9817 32.1871L32.492 36.6072C32.6165 36.8501 32.6438 37.1323 32.5683 37.3951C32.4928 37.658 32.3202 37.8811 32.0866 38.0181C31.8529 38.1552 31.5761 38.1955 31.3139 38.1307C31.0517 38.066 30.8241 37.9011 30.6787 37.6705L27.5621 32.1871L22.5896 40.9381ZM29.3782 52.8762H40.601C40.2334 52.8621 39.8742 52.7606 39.5523 52.5799C39.2305 52.3992 38.955 52.1443 38.748 51.8359L34.0589 43.5993C33.9654 43.4363 33.8315 43.3009 33.6704 43.2066C33.5094 43.1123 33.3268 43.0624 33.1409 43.0619H22.5839L27.0379 50.899C27.1803 51.2179 27.2461 51.5665 27.2298 51.9162C27.2136 52.266 27.1158 52.6068 26.9444 52.9107L27.5649 51.8129L30.6815 46.3238C30.7469 46.1963 30.837 46.0836 30.9464 45.9924C31.0559 45.9012 31.1824 45.8335 31.3184 45.7933C31.4543 45.7531 31.5969 45.7413 31.7375 45.7585C31.8781 45.7757 32.0138 45.8217 32.1364 45.8936C32.259 45.9655 32.366 46.0618 32.4509 46.1768C32.5358 46.2918 32.5968 46.4231 32.6303 46.5626C32.6638 46.7022 32.6691 46.8472 32.6458 46.9889C32.6225 47.1306 32.5712 47.2661 32.4949 47.3871L29.3782 52.8762ZM41.1535 51.8129L46.1317 43.0648L46.1288 43.0676L46.7607 41.967C46.5674 42.3023 46.2905 42.5801 45.9577 42.7724C45.625 42.9646 45.2481 43.0645 44.8652 43.0619H39.8785C39.6005 43.0619 39.3338 42.9499 39.1372 42.7505C38.9406 42.551 38.8302 42.2806 38.8302 41.9986C38.8302 41.7166 38.9406 41.4461 39.1372 41.2467C39.3338 41.0473 39.6005 40.9352 39.8785 40.9352H46.143C46.143 40.9352 42.0715 33.739 41.893 33.4861C41.6499 33.1403 41.5095 32.731 41.4884 32.3068C41.4673 31.8826 41.5664 31.4611 41.774 31.0922L41.1535 32.1871L35.8637 41.464C35.7712 41.6276 35.7226 41.8129 35.7226 42.0014C35.7226 42.19 35.7712 42.3753 35.8637 42.5389L41.1535 51.8129Z" fill="black"/>
<path d="M106.989 36.7226C107.547 36.3892 108.184 36.22 108.831 36.2341C109.222 36.2162 109.611 36.2944 109.965 36.462C110.319 36.6297 110.628 36.8818 110.865 37.1968C111.339 37.8205 111.602 38.8752 111.622 40.3322H109.296C109.306 39.9318 109.214 39.5355 109.027 39.1827C108.927 39.026 108.787 38.8992 108.623 38.8153C108.459 38.7315 108.275 38.6936 108.092 38.7056C107.512 38.6795 106.941 38.8605 106.479 39.2172C106.092 39.5376 105.756 39.9166 105.482 40.3409L105.451 40.3897V45.6317H110.466L109.814 47.3934C109.767 47.521 109.683 47.6311 109.573 47.7087C109.462 47.7863 109.331 47.8277 109.197 47.8273H99.9572L100.609 46.0656C100.656 45.9389 100.74 45.8298 100.85 45.7528C100.96 45.6758 101.09 45.6346 101.224 45.6346H102.824V39.7603C102.824 38.6855 104.131 38.6855 104.131 38.6855H99.96L100.612 36.9238C100.659 36.7971 100.743 36.688 100.853 36.611C100.963 36.534 101.093 36.4927 101.227 36.4927H104.83L105.176 38.0389H105.508L105.564 37.9699C105.971 37.4801 106.452 37.0591 106.989 36.7226Z" fill="black"/>
<path d="M122.985 41.9319C122.411 41.6533 121.811 41.4338 121.194 41.2766L119.367 40.7967C118.882 40.6714 118.409 40.5071 117.95 40.3053C117.5 40.1012 117.27 39.8138 117.27 39.4431C117.275 39.2281 117.345 39.0198 117.472 38.8477C117.599 38.6755 117.776 38.548 117.979 38.4832C118.504 38.2839 119.064 38.1911 119.625 38.2102C119.999 38.2111 120.372 38.2515 120.738 38.3309C121.101 38.4089 121.458 38.5136 121.806 38.6441C122.141 38.7706 122.467 38.9114 122.77 39.0609C123.008 39.1787 123.226 39.2936 123.419 39.4057L124.498 37.6325C124.309 37.5042 124.102 37.3643 123.878 37.213C123.547 37.0053 123.196 36.8347 122.829 36.7043C122.353 36.5352 121.864 36.4045 121.367 36.3134C120.723 36.1993 120.069 36.1455 119.415 36.1525C118.765 36.1483 118.117 36.2255 117.486 36.3824C116.948 36.5123 116.437 36.737 115.975 37.0463C115.575 37.3189 115.239 37.6781 114.992 38.0981C114.748 38.5356 114.625 39.0323 114.638 39.535C114.614 40.1144 114.799 40.6828 115.159 41.1329C115.535 41.5691 115.99 41.9273 116.5 42.1876C117.067 42.4793 117.666 42.7021 118.285 42.8515C118.942 43.0153 119.557 43.1763 120.115 43.3343C120.607 43.4666 121.085 43.6435 121.546 43.8631C121.736 43.9311 121.902 44.0553 122.022 44.2197C122.142 44.3841 122.211 44.5812 122.22 44.7856C122.229 45.0043 122.173 45.2206 122.058 45.4062C121.944 45.5919 121.777 45.7382 121.58 45.826C120.854 46.1766 119.795 46.1737 118.783 45.9208C118.322 45.8069 117.869 45.659 117.429 45.4782C117.029 45.3159 116.645 45.1188 116.279 44.8891C116.021 44.7253 115.805 44.5758 115.627 44.4379L114.443 46.3203C115.09 46.8472 115.813 47.2699 116.587 47.5733C117.661 47.9822 118.802 48.1774 119.948 48.1481C121.577 48.1481 122.815 47.8176 123.631 47.1681C124.026 46.8564 124.341 46.4529 124.549 45.9917C124.758 45.5305 124.854 45.0252 124.83 44.5184C124.853 43.9511 124.668 43.3952 124.311 42.9578C123.941 42.5295 123.49 42.1807 122.985 41.9319Z" fill="black"/>
<path d="M136.971 45.281C137.242 45.1255 137.499 44.9466 137.739 44.7465L138.189 44.3585L139.377 46.1662C139.124 46.438 138.838 46.6765 138.527 46.876C138.133 47.1333 137.717 47.3554 137.286 47.5399C136.837 47.7316 136.373 47.8807 135.897 47.9853C135.432 48.0903 134.957 48.1442 134.481 48.1463C132.817 48.1463 131.562 47.6778 130.726 46.7438C129.891 45.8098 129.468 44.2866 129.468 42.2203V39.8235C129.468 38.6941 130.885 38.6941 130.885 38.6941H127.188L127.839 36.9324C127.887 36.8057 127.971 36.6966 128.08 36.6196C128.19 36.5426 128.321 36.5013 128.454 36.5013H129.477V34.2855C129.477 34.1408 129.523 34 129.609 33.8843C129.695 33.7687 129.816 33.6846 129.953 33.6447L132.101 33.0239V36.4927H138.147L137.342 38.6855H132.098V42.2318C132.098 43.4762 132.339 44.3959 132.812 44.9706C133.06 45.2625 133.371 45.4931 133.721 45.6449C134.07 45.7968 134.449 45.866 134.829 45.8472C135.23 45.8515 135.63 45.7973 136.016 45.6862C136.349 45.5888 136.669 45.4528 136.971 45.281Z" fill="black"/>
<path fill-rule="evenodd" clip-rule="evenodd" d="M151.285 45.4554C151.27 45.2639 151.247 45.0569 151.217 44.8347C151.185 44.417 151.169 44.0405 151.169 43.7052C151.169 43.2627 151.197 42.7511 151.251 42.185C151.305 41.6188 151.33 40.9549 151.33 40.1733C151.337 39.6218 151.262 39.0724 151.107 38.5438C150.97 38.0893 150.728 37.6745 150.401 37.3339C150.038 36.9738 149.596 36.7051 149.112 36.5493C148.471 36.3451 147.801 36.248 147.129 36.2619C146.176 36.2431 145.225 36.3395 144.295 36.5493C143.629 36.7117 142.976 36.928 142.343 37.1959L142.944 39.2076C143.407 39.0081 143.88 38.8325 144.36 38.6817C145.063 38.4651 145.794 38.3594 146.528 38.3685C147.095 38.3313 147.658 38.4805 148.134 38.7938C148.52 39.0812 148.701 39.5697 148.701 40.2307V40.6676C148.702 40.8402 148.685 41.0125 148.653 41.182L148.63 41.3573H148.463C148.015 41.3266 147.638 41.295 147.33 41.2625C147.03 41.2308 146.743 41.2165 146.48 41.2165C145.78 41.2098 145.081 41.2831 144.397 41.4349C143.841 41.5552 143.31 41.7762 142.831 42.0873C142.418 42.3609 142.084 42.7395 141.862 43.1851C141.627 43.6885 141.513 44.2408 141.527 44.7973C141.507 45.2344 141.582 45.6705 141.746 46.0752C141.91 46.4799 142.159 46.8432 142.476 47.1395C143.111 47.7143 143.987 48.0276 145.083 48.0276C145.847 48.0662 146.607 47.8933 147.282 47.5275C147.782 47.2311 148.209 46.8232 148.531 46.3349L148.588 46.2458H148.965L149.268 47.8408H151.849C152.002 47.8408 152.151 47.7865 152.269 47.6873C152.386 47.5882 152.467 47.4503 152.495 47.2976L152.801 45.648H151.313L151.285 45.4554ZM148.684 44.4582L148.661 44.5013C148.449 44.8746 148.159 45.1963 147.811 45.4439C147.286 45.7768 146.67 45.9336 146.052 45.8923C145.417 45.8923 144.967 45.7572 144.675 45.4756C144.528 45.325 144.413 45.1451 144.338 44.9472C144.263 44.7494 144.229 44.5378 144.239 44.326C144.232 44.0417 144.318 43.7631 144.482 43.5328C144.645 43.315 144.855 43.1388 145.097 43.0184C145.358 42.8834 145.637 42.7866 145.924 42.731C146.556 42.6244 147.2 42.6157 147.834 42.7051C148.146 42.7454 148.375 42.7799 148.534 42.8115L148.687 42.8431V44.4553L148.684 44.4582Z" fill="black"/>
<path d="M166.399 36.4977L161.902 41.6448L165.081 45.6308H167.132L166.481 47.3925C166.434 47.5202 166.35 47.6303 166.239 47.7078C166.129 47.7854 165.997 47.8268 165.863 47.8265H163.664L159.698 42.9725H158.61V47.8265H155.986V34.9371C155.986 33.9945 157.258 33.9945 157.258 33.9945H154.091L154.742 32.2328C154.789 32.1061 154.874 31.997 154.983 31.92C155.093 31.843 155.224 31.8017 155.357 31.8017H158.61V41.1562H159.584L163.364 36.4977H166.399Z" fill="black"/>
<path d="M82.1331 36.4935C81.9939 36.4934 81.8582 36.5381 81.7457 36.6213C81.6332 36.7045 81.5496 36.8217 81.5069 36.9561L79.1241 43.6868H78.6935L75.5145 36.5021H73.2025C73.069 36.5021 72.9386 36.5433 72.8288 36.6204C72.719 36.6974 72.6348 36.8065 72.5877 36.9332L71.936 38.6948H75.1631C75.1631 38.6948 73.6218 38.6948 74.2083 40.1318L77.4695 47.828H80.2008L84.4706 36.4906L82.1331 36.4935Z" fill="black"/>
<path fill-rule="evenodd" clip-rule="evenodd" d="M67 36.3939C67.5967 36.5431 68.1595 36.8075 68.6575 37.1727C69.17 37.5634 69.5853 38.0702 69.8702 38.6528C70.2116 39.3856 70.3748 40.1907 70.3461 41.0007C70.3404 41.6675 70.274 42.3322 70.1478 42.9866H61.8065V43.1849C61.8081 43.6582 61.9238 44.1239 62.1437 44.5414C62.345 44.9042 62.6262 45.215 62.9653 45.4495C63.3145 45.6878 63.7033 45.8601 64.1128 45.9582C64.555 46.0616 65.0078 46.1108 65.4615 46.1047C67.0839 46.0976 68.6716 45.6276 70.043 44.7483L70.4085 46.622C68.428 48.059 65.844 48.1567 65.2773 48.1567C64.4001 48.17 63.5272 48.031 62.6962 47.7457C61.9882 47.5021 61.3432 47.1003 60.8087 46.5701C60.2741 46.0399 59.8638 45.3947 59.6079 44.6822C59.3202 43.8745 59.18 43.0204 59.1942 42.1618C59.1759 41.2612 59.3358 40.3661 59.6645 39.5293C59.9474 38.8204 60.3796 38.1829 60.931 37.6613C61.4845 37.158 62.1347 36.7763 62.8407 36.5405C64.1858 36.0949 65.6277 36.0441 67 36.3939ZM61.8603 41.1358H67.9435L67.9463 40.9461C67.9817 40.2192 67.7345 39.5072 67.2578 38.9632C66.7988 38.4717 66.1018 38.2217 65.1895 38.2217C64.7864 38.2193 64.3853 38.2784 63.9995 38.397C63.6338 38.5105 63.2898 38.6864 62.9824 38.9172C62.6753 39.1497 62.4179 39.443 62.2258 39.7793C62.0249 40.1306 61.9057 40.5238 61.8774 40.9289L61.8603 41.1358Z" fill="black"/>
<path fill-rule="evenodd" clip-rule="evenodd" d="M95.5589 37.1727C95.0608 36.8075 94.4981 36.5431 93.9014 36.3939C92.5291 36.0441 91.0872 36.0949 89.7421 36.5405C89.0361 36.7763 88.3859 37.158 87.8324 37.6613C87.2763 38.1806 86.8391 38.8172 86.5518 39.5264C86.223 40.3632 86.0631 41.2584 86.0814 42.1589C86.0673 43.0176 86.2074 43.8716 86.4951 44.6793C86.7522 45.393 87.1643 46.039 87.7008 46.5693C88.2374 47.0996 88.8847 47.5007 89.5947 47.7429C90.4257 48.0281 91.2987 48.1671 92.1759 48.1538C92.7426 48.1538 95.3265 48.0561 97.307 46.6192L96.9501 44.7512C95.5786 45.6304 93.991 46.1005 92.3686 46.1076C91.9134 46.1102 91.4597 46.0571 91.0171 45.9496C90.6075 45.8515 90.2187 45.6792 89.8696 45.4409C89.5281 45.2034 89.2458 44.8886 89.0451 44.5212C88.8252 44.1038 88.7095 43.6381 88.7079 43.1648V42.9665H97.0634C97.1895 42.3121 97.2559 41.6473 97.2617 40.9806C97.2872 40.173 97.1221 39.371 96.78 38.6413C96.4913 38.062 96.0732 37.5591 95.5589 37.1727ZM94.8449 41.1358H88.7617L88.7787 40.9289C88.8071 40.5238 88.9263 40.1306 89.1272 39.7793C89.3193 39.443 89.5767 39.1497 89.8837 38.9172C90.1912 38.6864 90.5352 38.5105 90.9009 38.397C91.2867 38.2784 91.6878 38.2193 92.0909 38.2217C93.0032 38.2217 93.7002 38.4717 94.1592 38.9632C94.6359 39.5072 94.8831 40.2192 94.8477 40.9461L94.8449 41.1358Z" fill="black"/>
<path fill-rule="evenodd" clip-rule="evenodd" d="M176.592 36.3939C177.188 36.5431 177.751 36.8075 178.249 37.1727C178.766 37.5581 179.188 38.0611 179.479 38.6413C179.82 39.3741 179.983 40.1792 179.955 40.9892C179.949 41.656 179.882 42.3207 179.756 42.9751H171.395V43.1734C171.397 43.6467 171.513 44.1124 171.732 44.5299C171.934 44.8927 172.215 45.2035 172.554 45.438C172.903 45.6763 173.292 45.8486 173.702 45.9467C174.144 46.0542 174.598 46.1073 175.053 46.1047C176.675 46.0976 178.263 45.6276 179.635 44.7483L180 46.622C178.02 48.059 175.436 48.1567 174.869 48.1567C173.992 48.17 173.119 48.031 172.288 47.7457C171.577 47.5036 170.929 47.1022 170.392 46.5714C169.855 46.0406 169.442 45.3939 169.185 44.6793C168.898 43.8716 168.757 43.0176 168.772 42.1589C168.753 41.2584 168.913 40.3632 169.242 39.5264C169.529 38.8172 169.966 38.1806 170.523 37.6613C171.076 37.158 171.726 36.7763 172.432 36.5405C173.777 36.0949 175.219 36.0441 176.592 36.3939ZM171.452 41.1358H177.529L177.538 40.9461C177.573 40.2192 177.326 39.5072 176.849 38.9632C176.39 38.4717 175.693 38.2217 174.781 38.2217C174.378 38.2193 173.977 38.2784 173.591 38.397C173.225 38.5105 172.881 38.6864 172.574 38.9172C172.267 39.1497 172.009 39.443 171.817 39.7793C171.616 40.1306 171.497 40.5238 171.469 40.9289L171.452 41.1358Z" fill="black"/>
</svg>
