<svg width="200" height="84" viewBox="0 0 200 84" fill="none" xmlns="http://www.w3.org/2000/svg">
<g clip-path="url(#clip0_1272_19652)">
<mask id="mask0_1272_19652" style="mask-type:luminance" maskUnits="userSpaceOnUse" x="28" y="20" width="145" height="45">
<path d="M172.797 20H28V64.7967H172.797V20Z" fill="white"/>
</mask>
<g mask="url(#mask0_1272_19652)">
<mask id="mask1_1272_19652" style="mask-type:luminance" maskUnits="userSpaceOnUse" x="28" y="20" width="145" height="45">
<path d="M172.797 20H28V64.7967H172.797V20Z" fill="white"/>
</mask>
<g mask="url(#mask1_1272_19652)">
<path d="M34.081 21.3372L28.1924 20.004C28.0938 19.9816 28 20.0566 28 20.1576V43.3903C28 43.49 28.0916 43.5647 28.1893 43.5446L34.0779 42.3326C34.1511 42.3175 34.2037 42.253 34.2037 42.1782V21.4909C34.2037 21.4173 34.1527 21.3535 34.081 21.3372Z" fill="black"/>
<path d="M44.1492 21.3372L50.0377 20.004C50.1363 19.9816 50.2301 20.0566 50.2301 20.1576V43.3903C50.2301 43.49 50.1385 43.5647 50.0408 43.5446L44.1522 42.3326C44.0789 42.3175 44.0264 42.253 44.0264 42.1782V21.4909C44.0264 21.4173 44.0773 21.3535 44.1492 21.3372Z" fill="black"/>
<mask id="mask2_1272_19652" style="mask-type:alpha" maskUnits="userSpaceOnUse" x="36" y="28" width="7" height="7">
<path d="M42.2174 34.6653C42.2174 34.7403 42.1565 34.8011 42.0816 34.8011H36.1494C36.0744 34.8011 36.0137 34.7403 36.0137 34.6653V28.7332C36.0137 28.6582 36.0744 28.5974 36.1494 28.5974H42.0816C42.1565 28.5974 42.2174 28.6582 42.2174 28.7332V34.6653Z" fill="#0072E5"/>
</mask>
<g mask="url(#mask2_1272_19652)">
<path d="M36.0137 28.5974H42.2174L36.0137 34.8011V28.5974Z" fill="black"/>
<path d="M42.2174 34.8011H36.0137L42.2174 28.5974V34.8011Z" fill="black"/>
</g>
<path d="M111.184 20.5514C111.097 20.5514 111.026 20.6219 111.026 20.709V29.2458C111.026 29.3328 110.956 29.4034 110.869 29.4034H102.108C102.021 29.4034 101.95 29.3328 101.95 29.2458V20.709C101.95 20.6219 101.879 20.5514 101.793 20.5514H97.1858C97.0989 20.5514 97.0283 20.6219 97.0283 20.709V42.7642C97.0283 42.8512 97.0989 42.9217 97.1858 42.9217H101.793C101.879 42.9217 101.95 42.8512 101.95 42.7642V34.0995C101.95 34.0125 102.021 33.9419 102.108 33.9419H110.869C110.956 33.9419 111.026 34.0125 111.026 34.0995V42.7642C111.026 42.8512 111.097 42.9217 111.184 42.9217H115.79C115.876 42.9217 115.947 42.8512 115.947 42.7642V20.709C115.947 20.6219 115.876 20.5514 115.79 20.5514H111.184Z" fill="black"/>
<path d="M64.1339 26.5179C64.166 26.4396 64.2768 26.4396 64.3089 26.5179L67.1396 33.4281C67.165 33.4903 67.1193 33.5585 67.0521 33.5585H61.3905C61.3232 33.5585 61.2774 33.4903 61.3029 33.4281L64.1339 26.5179ZM62.1206 20.3926C62.0574 20.3926 62.0003 20.4303 61.9756 20.4884L52.5225 42.7025C52.4783 42.8065 52.5546 42.9218 52.6675 42.9218H57.3407C57.4048 42.9218 57.4624 42.883 57.4866 42.8237L59.4516 38.0029C59.4759 37.9436 59.5336 37.9048 59.5976 37.9048H68.8449C68.9089 37.9048 68.9667 37.9436 68.9909 38.0029L70.9564 42.8237C70.9805 42.883 71.0382 42.9218 71.1022 42.9218H75.9039C76.0165 42.9218 76.093 42.8064 76.0487 42.7025L66.5949 20.4884C66.5702 20.4303 66.5131 20.3926 66.4499 20.3926H62.1206Z" fill="black"/>
<path d="M76.5755 39.7637C76.5117 39.7079 76.5045 39.611 76.5592 39.5458L79.2696 36.2989C79.3248 36.2323 79.4239 36.2234 79.4914 36.2781C81.4674 37.8826 83.5435 38.8959 86.0489 38.8959C88.0621 38.8959 89.2765 38.0974 89.2765 36.7866V36.7229C89.2765 35.4763 88.5095 34.8375 84.7701 33.879C80.2642 32.7283 77.3561 31.4817 77.3561 27.0403V26.9757C77.3561 22.9165 80.6158 20.2325 85.1855 20.2325C88.3901 20.2325 91.1326 21.2216 93.3801 22.9858C93.4449 23.0368 93.4584 23.1295 93.4114 23.1975L91.0281 26.6536C90.9783 26.7253 90.8801 26.7431 90.8082 26.694C88.8706 25.3735 86.9656 24.5785 85.1217 24.5785C83.2361 24.5785 82.2461 25.4408 82.2461 26.5285V26.5919C82.2461 28.0622 83.2046 28.5415 87.0719 29.5317C91.6091 30.7149 94.1662 32.3444 94.1662 36.2428V36.3061C94.1662 40.7488 90.7787 43.2418 85.953 43.2418C82.6141 43.2422 79.242 42.0927 76.5755 39.7637Z" fill="black"/>
<path d="M133.138 20.5514C133.051 20.5514 132.98 20.6219 132.98 20.709V42.7642C132.98 42.8512 133.051 42.9217 133.138 42.9217H149.856C149.943 42.9217 150.014 42.8512 150.014 42.7642V38.7009C150.014 38.6138 149.943 38.5433 149.856 38.5433H138.026C137.939 38.5433 137.869 38.4728 137.869 38.3857V34.0032C137.869 33.9162 137.939 33.8456 138.026 33.8456H148.259C148.346 33.8456 148.417 33.7751 148.417 33.6881V29.6251C148.417 29.5381 148.346 29.4676 148.259 29.4676H138.026C137.939 29.4676 137.869 29.397 137.869 29.31V25.0874C137.869 25.0004 137.939 24.9299 138.026 24.9299H149.697C149.784 24.9299 149.854 24.8593 149.854 24.7723V20.709C149.854 20.6219 149.784 20.5514 149.697 20.5514H133.138Z" fill="black"/>
<path d="M167.424 20.5514C167.369 20.5514 167.317 20.5802 167.289 20.6274L162.039 29.3065C161.977 29.4083 161.829 29.4077 161.768 29.3054L156.61 20.6285C156.582 20.5807 156.531 20.5514 156.476 20.5514H151.099C150.974 20.5514 150.9 20.6885 150.966 20.7934L159.384 34.0628C159.4 34.0881 159.408 34.1174 159.408 34.1472V42.7642C159.408 42.8512 159.479 42.9217 159.566 42.9217H164.173C164.26 42.9217 164.331 42.8512 164.331 42.7642V34.0521C164.331 34.022 164.339 33.9926 164.356 33.9672L172.773 20.7938C172.839 20.6889 172.764 20.5514 172.639 20.5514H167.424Z" fill="black"/>
<path d="M124.24 20.5526C124.199 20.5526 124.159 20.5692 124.129 20.5987L120.697 24.0298L117.33 27.3964C117.269 27.4579 117.269 27.5577 117.33 27.6192L120.586 30.874C120.647 30.9355 120.747 30.9355 120.809 30.874L124.175 27.5078L127.653 24.0298L130.969 20.714C131.029 20.6545 130.987 20.5526 130.902 20.5526H124.24Z" fill="black"/>
<mask id="mask3_1272_19652" style="mask-type:alpha" maskUnits="userSpaceOnUse" x="117" y="32" width="14" height="11">
<path d="M120.853 32.7316C120.792 32.67 120.692 32.67 120.631 32.7316L117.42 35.9423C117.359 36.0039 117.359 36.1037 117.42 36.1652L124.13 42.8751C124.16 42.9047 124.2 42.9213 124.242 42.9213L130.814 42.9218C130.899 42.9218 130.941 42.8199 130.881 42.7604L120.853 32.7316Z" fill="#66B3FF"/>
</mask>
<g mask="url(#mask3_1272_19652)">
<path d="M124.176 36.0543L120.742 32.621L117.309 36.0543H124.176Z" fill="black"/>
<path d="M117.309 36.0551L120.742 39.4888L124.176 36.0551H117.309Z" fill="black"/>
<path d="M127.61 39.4888L124.176 36.0551L120.742 39.4888H127.61Z" fill="black"/>
<path d="M120.742 39.4879L124.176 42.9217L127.61 39.4879H120.742Z" fill="black"/>
<path d="M124.176 42.9222H131.043L127.609 39.4879L124.176 42.9222Z" fill="black"/>
</g>
<path d="M96.7783 52.9795C96.7783 52.8588 96.924 52.7982 97.0095 52.8832L102.429 58.2669C102.483 58.3199 102.483 58.4058 102.43 58.459L97.0104 63.9151C96.9249 64.001 96.7783 63.9405 96.7783 63.8194V52.9795Z" fill="black"/>
<path d="M154.454 64.3126C154.325 64.3126 154.245 64.2325 154.245 64.1041V52.7526C154.245 52.6245 154.325 52.5442 154.454 52.5442H158.365C162.278 52.5442 164.314 54.7247 164.314 58.4284C164.314 62.1161 162.278 64.3126 158.365 64.3126H154.454ZM158.125 54.5804H156.41V62.2764H158.125C160.738 62.2764 162.069 60.8975 162.069 58.4284C162.069 55.9594 160.738 54.5804 158.125 54.5804Z" fill="black"/>
<path d="M146.791 64.5371C144.481 64.5371 142.028 63.2544 142.028 59.5187V52.7526C142.028 52.6245 142.108 52.5442 142.237 52.5442H143.984C144.112 52.5442 144.192 52.6245 144.192 52.7526V59.1339C144.192 61.4426 145.315 62.4207 146.791 62.4207C148.249 62.4207 149.403 61.4426 149.403 59.1339V52.7526C149.403 52.6245 149.483 52.5442 149.612 52.5442H151.36C151.487 52.5442 151.569 52.6245 151.569 52.7526V59.5187C151.569 63.2544 149.099 64.5371 146.791 64.5371Z" fill="black"/>
<path d="M133.48 64.5371C130.049 64.5371 127.548 62.116 127.548 58.4283C127.548 54.7407 130.049 52.3197 133.48 52.3197C136.911 52.3197 139.412 54.7407 139.412 58.4283C139.412 62.116 136.911 64.5371 133.48 64.5371ZM133.48 62.4207C135.741 62.4207 137.168 60.7532 137.168 58.4283C137.168 56.1035 135.741 54.4361 133.48 54.4361C131.219 54.4361 129.793 56.1035 129.793 58.4283C129.793 60.7532 131.219 62.4207 133.48 62.4207Z" fill="black"/>
<path d="M118.616 64.3126C118.488 64.3126 118.408 64.2325 118.408 64.1041V52.7526C118.408 52.6245 118.488 52.5442 118.616 52.5442H120.364C120.492 52.5442 120.572 52.6245 120.572 52.7526V62.2443H126.249C126.377 62.2443 126.457 62.3245 126.457 62.4528V64.1041C126.457 64.2325 126.377 64.3126 126.249 64.3126H118.616Z" fill="black"/>
<path fill-rule="evenodd" clip-rule="evenodd" d="M114.913 55.892C114.971 55.953 115.07 55.9502 115.122 55.8844L116.338 54.3573C116.381 54.3036 116.377 54.2262 116.328 54.1784C115.12 52.9993 113.429 52.3081 111.741 52.3081C108.148 52.3081 105.376 54.9397 105.376 58.3827C105.376 61.8588 108.113 64.5255 111.655 64.5255C113.403 64.5255 115.103 63.7341 116.341 62.5222C116.392 62.472 116.394 62.3904 116.346 62.337L115.117 60.9678C115.065 60.9101 114.977 60.9074 114.92 60.9601C114.072 61.7488 112.946 62.2828 111.775 62.2828C109.545 62.2828 107.806 60.5606 107.806 58.3485C107.806 56.1536 109.545 54.4311 111.775 54.4311C112.976 54.4311 114.1 55.0354 114.913 55.892Z" fill="black"/>
</g>
</g>
</g>
<defs>
<clipPath id="clip0_1272_19652">
<rect width="145" height="44.7967" fill="white" transform="translate(28 20)"/>
</clipPath>
</defs>
</svg>
