<svg width="200" height="84" viewBox="0 0 200 84" fill="none" xmlns="http://www.w3.org/2000/svg">
<g clip-path="url(#clip0_1275_367)">
<path d="M35.9877 49.2974C35.9188 49.3643 34.3361 51.0383 34.4049 50.9044C33.8544 51.507 32.7533 51.574 31.9963 50.9714L31.9275 50.9044C31.2394 50.3018 31.1705 49.2304 31.7899 48.5608C31.7899 48.5608 31.7899 48.4939 31.8587 48.4939H31.9963L33.0286 47.3556L33.3727 46.9538L31.5834 45.3468L27.5233 49.6991C26.147 51.7079 27.9362 55.1898 27.9362 55.3237C33.5791 57.1316 33.5791 55.1898 37.7769 50.9714L35.9877 49.2974Z" fill="black"/>
<path d="M33.2347 33.1602C33.2806 33.1602 33.2806 33.1602 33.2347 33.1602C33.3035 33.2272 36.6067 36.6421 36.4002 36.4412L33.7164 40.7266C33.7852 40.7936 41.9743 45.5477 41.9055 45.4807C55.944 37.3787 39.841 46.686 50.0946 40.7266L47.4108 36.4412C47.342 36.3743 46.3097 34.7003 46.3785 34.7673L41.9743 27.5357L37.4325 34.8342C37.3637 34.7673 34.5422 31.8211 34.6798 32.0219C34.7486 31.955 34.8175 31.8211 34.8863 31.7541C35.4368 30.6158 35.2992 29.2766 34.4046 28.2722L33.2347 27.067L32.8218 27.4687L30.9638 29.1427L29.1057 30.8167L30.2068 31.955C36.469 26.3304 29.7939 32.3567 33.9229 28.607L32.9594 27.6696L33.9229 28.674C34.611 29.4105 34.7486 30.348 34.4046 31.2184C34.1293 31.888 33.51 32.4906 32.753 32.6915C31.8584 32.9594 30.895 32.6915 30.2068 32.0219L29.1057 30.8167L28.624 31.2184L29.7939 32.4237C30.6885 33.3611 32.0648 33.629 33.2347 33.1602ZM40.8733 31.4863V36.3743C38.3271 37.5126 37.0196 38.0483 36.6755 38.2491C37.5701 36.776 39.9098 33.0263 40.8733 31.4863Z" fill="black"/>
<path d="M56.1506 49.6991L52.0904 45.3468L50.3012 46.9538L50.6453 47.3556L51.6775 48.4939L51.7463 48.5608L51.8151 48.6278C52.4345 49.3643 52.3657 50.3687 51.6775 50.9714L51.6087 51.0383C50.9205 51.641 49.9571 51.641 49.269 51.0383L49.2001 50.9714L49.0625 50.7705L47.6862 49.2974L45.897 50.9044L49.9571 55.1898C51.5399 56.3951 54.3613 55.5915 55.7377 55.2568C55.7377 55.2568 57.4581 51.7079 56.1506 49.6991Z" fill="black"/>
<path d="M51.9528 30.281L53.0538 29.0757L51.1958 27.4017L50.0947 28.607C50.1635 28.674 52.0904 30.3479 51.9528 30.281Z" fill="black"/>
<path d="M47.5487 36.5082C47.6175 36.4412 50.9207 32.9594 50.7142 33.1602C51.9529 33.629 53.3292 33.3611 54.2238 32.3567L55.3937 31.1515L54.912 30.7497L53.054 29.0757L51.9529 30.281C52.0217 30.348 53.9486 32.0889 53.8109 31.955C53.1228 32.6246 52.1594 32.8924 51.2647 32.6246C50.9207 32.4906 50.5766 32.3567 50.3013 32.0889C50.0261 31.8211 49.8196 31.4863 49.682 31.1515C49.3379 30.281 49.4755 29.3436 50.1637 28.607L51.2647 27.4018L50.783 27L49.6132 28.2053C48.7186 29.1427 48.5809 30.5488 49.1315 31.6871C49.2003 31.7541 49.2691 31.888 49.3379 31.955C49.2691 32.0219 46.3788 35.0351 46.5853 34.8342C46.5164 34.9012 47.6175 36.5752 47.5487 36.5082Z" fill="black"/>
<path d="M46.7226 47.0878C49.3376 49.8331 49.8882 50.4357 49.8193 50.4357C49.8882 50.5027 49.957 50.5027 50.0946 50.5696H50.4387C50.7139 50.5696 50.9204 50.4357 51.058 50.3018C51.8838 49.5652 50.7828 48.6278 50.9892 48.8957C50.9204 48.8287 47.686 45.4138 47.7549 45.4807C49.8193 42.6685 48.5807 44.4094 50.0946 42.2667C49.3376 42.6685 42.5937 46.5521 41.9055 46.9538C41.8367 46.8869 33.6476 42.1997 33.7164 42.2667C33.7852 42.3337 35.9873 45.4138 35.9873 45.3468C34.8863 46.4851 32.6842 48.8287 32.6153 48.8957V49.0296L32.5465 49.0965C32.2024 49.4983 32.2713 50.034 32.6153 50.3688C33.1659 50.7705 33.3723 50.5696 33.854 50.3688L33.9917 50.2348C34.0605 50.1679 37.1572 46.8199 37.0884 46.9538C38.6712 49.1635 40.5292 51.7079 41.9743 53.5828C43.8324 51.0383 45.8968 48.1591 46.7226 47.0878ZM40.8733 50.1009C40.8044 50.034 37.7077 45.7486 37.8454 45.9495C37.9142 46.0164 41.0797 47.8243 40.8733 47.6904V50.1009Z" fill="black"/>
<path d="M76.3823 49.0295H68.8125V36.9769H70.5329V47.6904H76.107L76.3823 49.0295ZM79.1349 46.552C79.1349 46.8868 79.2725 47.2216 79.479 47.4895C79.7542 47.7573 80.0983 47.8912 80.58 47.8912C81.0617 47.8912 81.4746 47.7573 81.8187 47.5564C82.2316 47.3556 82.5757 47.0877 82.851 46.7529V45.012H80.7177C80.1671 45.012 79.7542 45.1459 79.479 45.4807C79.2725 45.8155 79.1349 46.1503 79.1349 46.552ZM78.1027 40.9944C78.4467 40.7936 78.9285 40.5927 79.5478 40.4588C80.1671 40.3248 80.7177 40.2579 81.0617 40.2579C82.094 40.2579 82.9198 40.5257 83.6079 41.0614C84.2961 41.5971 84.6402 42.3336 84.6402 43.2041V49.0295H83.6768C83.6079 48.8956 83.5391 48.7617 83.4703 48.6278C83.4015 48.4939 83.3327 48.3599 83.2639 48.226C82.9886 48.4939 82.5757 48.6947 82.094 48.9626C81.6123 49.1635 81.1306 49.2974 80.6489 49.2974C79.6166 49.2974 78.8596 49.0295 78.3091 48.5608C77.8274 48.0251 77.5521 47.4225 77.5521 46.619C77.5521 45.7485 77.8274 45.0789 78.4467 44.6772C79.0661 44.2085 79.8231 44.0076 80.7865 44.0076H82.851C82.851 43.405 82.7133 42.9363 82.5069 42.4675C82.2316 42.0658 81.8187 41.798 81.1306 41.798C80.58 41.798 80.1671 41.8649 79.6854 41.9988C79.2725 42.1327 78.8596 42.2667 78.5844 42.4006L78.1027 40.9944ZM93.1734 48.1591C92.7605 48.4939 92.3476 48.8287 91.797 49.0295C91.2465 49.2304 90.7648 49.3643 90.2831 49.3643C89.182 49.3643 88.4251 49.0965 87.9433 48.4939C87.4616 47.8912 87.1864 47.0877 87.1864 46.2173V40.5257H88.9756V46.0833C88.9756 46.619 89.1132 47.0877 89.3885 47.4225C89.6637 47.7573 90.0766 47.9582 90.696 47.9582C91.0401 47.9582 91.3841 47.8912 91.797 47.6904C92.2099 47.4895 92.6228 47.2886 92.9669 46.9538V40.4588H94.6873V49.0295H93.6551L93.1734 48.1591ZM98.8163 41.5971C99.1604 41.1953 99.7109 40.8605 100.261 40.5927C100.881 40.3248 101.431 40.1909 101.913 40.1909C103.014 40.1909 103.771 40.5257 104.253 41.1284C104.734 41.731 105.01 42.4675 105.01 43.405V49.0295H103.289V43.5389C103.289 42.9363 103.152 42.4675 102.876 42.1327C102.601 41.798 102.188 41.5971 101.638 41.5971C101.294 41.5971 100.881 41.731 100.33 41.9319C99.8485 42.1327 99.4356 42.4675 99.0915 42.8023V49.0295H97.3711V40.4588H98.3346L98.8163 41.5971ZM111.41 41.664C110.584 41.664 109.964 41.9319 109.552 42.5345C109.139 43.1371 108.932 43.8067 108.932 44.6772C108.932 45.5477 109.139 46.3512 109.483 46.8868C109.896 47.4895 110.515 47.7573 111.341 47.7573C111.891 47.7573 112.304 47.6904 112.579 47.6234C112.924 47.4895 113.268 47.3556 113.612 47.2216L114.162 48.4269C113.749 48.6947 113.268 48.8956 112.717 49.0295C112.167 49.1635 111.685 49.2304 111.341 49.2304C109.964 49.2304 108.932 48.8287 108.244 47.9582C107.556 47.0877 107.143 46.0164 107.143 44.6772C107.143 43.338 107.556 42.2667 108.244 41.3962C109.001 40.5257 110.033 40.124 111.41 40.124C111.754 40.124 112.235 40.1909 112.786 40.3248C113.336 40.4588 113.818 40.6596 114.231 40.9275L113.749 42.1327C113.405 41.9988 113.061 41.8649 112.717 41.731C112.373 41.731 111.891 41.664 111.41 41.664ZM118.016 41.3962C118.36 41.0614 118.842 40.7266 119.392 40.5257C119.943 40.2579 120.424 40.1909 120.906 40.1909C122.007 40.1909 122.764 40.5257 123.246 41.1284C123.728 41.731 124.003 42.4675 124.003 43.405V49.0295H122.283V43.5389C122.283 42.9363 122.145 42.4675 121.87 42.1327C121.594 41.798 121.181 41.5971 120.562 41.5971C120.218 41.5971 119.805 41.731 119.323 41.9319C118.842 42.1327 118.429 42.4675 118.085 42.8023V49.0295H116.364V36.7091L118.085 36.5082V41.3962H118.016ZM128.132 41.5971C128.476 41.1953 129.026 40.8605 129.577 40.5927C130.196 40.3248 130.747 40.1909 131.229 40.1909C132.33 40.1909 133.087 40.5257 133.568 41.1284C134.05 41.731 134.325 42.4675 134.325 43.405V49.0295H132.605V43.5389C132.605 42.9363 132.467 42.4675 132.192 42.1327C131.917 41.798 131.504 41.5971 130.885 41.5971C130.54 41.5971 130.128 41.731 129.577 41.9319C129.026 42.1327 128.682 42.4675 128.338 42.8023V49.0295H126.618V40.4588H127.581L128.132 41.5971ZM140.45 49.2304C139.142 49.2304 138.11 48.7617 137.422 47.9582C136.734 47.0877 136.39 46.0164 136.39 44.6772C136.39 43.338 136.803 42.2667 137.491 41.4632C138.248 40.5927 139.28 40.1909 140.588 40.1909C141.964 40.1909 142.996 40.5927 143.684 41.4632C144.372 42.3336 144.785 43.405 144.785 44.7442C144.785 46.0833 144.372 47.1547 143.615 47.9582C142.927 48.8287 141.826 49.2304 140.45 49.2304ZM143.065 44.8111C143.065 43.8737 142.859 43.1371 142.514 42.5345C142.17 41.9319 141.551 41.664 140.725 41.664C139.899 41.664 139.28 41.9319 138.867 42.4675C138.454 43.0032 138.248 43.7398 138.248 44.6772C138.248 45.6146 138.454 46.4181 138.798 46.9538C139.142 47.4895 139.762 47.7573 140.588 47.7573C141.413 47.7573 142.033 47.4895 142.446 46.9538C142.859 46.4851 143.065 45.7485 143.065 44.8111ZM150.841 41.5971C149.947 41.5971 149.258 41.9319 148.914 42.5345C148.57 43.1371 148.364 43.8737 148.364 44.6772C148.364 45.5477 148.57 46.2842 148.914 46.8868C149.258 47.4895 149.947 47.7573 150.841 47.7573C151.185 47.7573 151.529 47.6904 151.873 47.5564C152.217 47.4225 152.562 47.2216 152.906 46.9538V42.4006C152.562 42.1327 152.217 41.9319 151.873 41.798C151.461 41.664 151.185 41.5971 150.841 41.5971ZM154.626 36.5751V49.0295H153.594L153.112 48.226C152.768 48.5608 152.286 48.8287 151.805 48.9626C151.323 49.1635 150.841 49.2304 150.428 49.2304C149.121 49.2304 148.157 48.8287 147.538 47.9582C146.85 47.0877 146.575 46.0164 146.575 44.7442C146.575 43.405 146.919 42.3336 147.607 41.4632C148.295 40.5927 149.258 40.124 150.566 40.124C150.91 40.124 151.323 40.1909 151.736 40.3248C152.149 40.4588 152.562 40.6596 152.906 40.8605V36.6421L154.626 36.5751ZM164.948 45.1459H158.686C158.755 45.9494 159.03 46.619 159.443 47.0877C159.925 47.6234 160.544 47.8243 161.439 47.8243C161.989 47.8243 162.402 47.7573 162.746 47.6904C163.09 47.5564 163.503 47.4225 163.847 47.2886L164.398 48.5608C163.985 48.8287 163.503 49.0295 162.884 49.0965C162.265 49.2304 161.783 49.2974 161.439 49.2974C159.925 49.2974 158.824 48.8956 157.998 48.0251C157.241 47.1547 156.828 46.0833 156.828 44.7442C156.828 43.405 157.172 42.3336 157.929 41.4632C158.686 40.5927 159.718 40.1909 161.026 40.1909C162.471 40.1909 163.434 40.6596 164.054 41.664C164.673 42.6684 164.948 43.8067 164.948 45.1459ZM163.297 43.9406C163.159 43.2041 162.953 42.6684 162.609 42.2667C162.265 41.8649 161.714 41.664 161.095 41.664C160.407 41.664 159.856 41.8649 159.512 42.3336C159.099 42.7354 158.893 43.2711 158.824 44.0076H163.297V43.9406ZM172.105 42.2667C171.761 42.1327 171.417 41.9988 171.004 41.8649C170.66 41.731 170.247 41.664 169.766 41.664C169.284 41.664 168.94 41.731 168.665 41.9319C168.389 42.1327 168.252 42.3336 168.252 42.6684C168.252 42.9363 168.389 43.1371 168.733 43.338C169.077 43.5389 169.49 43.7398 169.972 43.8737C170.729 44.1415 171.348 44.4763 172.036 44.945C172.656 45.4137 173 45.9494 173 46.686C173 47.4895 172.725 48.0921 172.105 48.5608C171.486 49.0295 170.591 49.2304 169.421 49.2304C169.077 49.2304 168.527 49.1635 167.976 49.0295C167.357 48.8956 166.875 48.6947 166.531 48.4269L167.082 47.1547C167.426 47.3556 167.839 47.4895 168.252 47.5564C168.664 47.6904 169.077 47.6904 169.421 47.6904C169.972 47.6904 170.454 47.6234 170.798 47.4225C171.142 47.2216 171.28 47.0208 171.28 46.686C171.28 46.3512 171.073 46.0833 170.729 45.8155C170.385 45.5477 169.903 45.3468 169.353 45.1459C168.665 44.945 167.976 44.6102 167.357 44.2085C166.738 43.8067 166.462 43.2711 166.462 42.5345C166.462 41.731 166.738 41.1284 167.357 40.7266C167.976 40.2579 168.802 40.057 169.834 40.057C170.178 40.057 170.66 40.124 171.28 40.2579C171.83 40.3918 172.312 40.5927 172.725 40.8605L172.105 42.2667Z" fill="black"/>
</g>
<defs>
<clipPath id="clip0_1275_367">
<rect width="146" height="29" fill="white" transform="translate(27 27)"/>
</clipPath>
</defs>
</svg>
