<svg width="200" height="84" viewBox="0 0 200 84" fill="none" xmlns="http://www.w3.org/2000/svg">
<g clip-path="url(#clip0_1272_19653)">
<path d="M88.9371 57.0568C84.9221 57.124 81.7511 55.4155 81.4473 51.663C81.4466 51.632 81.4522 51.6011 81.4638 51.5723C81.4755 51.5435 81.4928 51.5173 81.5149 51.4954C81.537 51.4735 81.5634 51.4562 81.5924 51.4448C81.6213 51.4333 81.6524 51.4278 81.6835 51.4286H84.2489C84.384 51.4286 84.4852 51.5289 84.5192 51.663C84.8226 53.8407 86.5768 54.8468 89.0059 54.8468C91.8399 54.8468 93.7964 53.1717 93.7964 49.2851V47.3422C92.683 49.2524 90.8277 50.3907 88.3994 50.3907C83.5413 50.3907 80.9775 46.7392 80.9775 41.8143C80.9775 36.9227 83.6089 32.9696 88.2983 32.9696C90.7273 32.9696 92.5827 34.0079 93.7301 35.9178L93.6285 33.4719C93.6278 33.4408 93.6334 33.4099 93.6451 33.3811C93.6567 33.3523 93.6741 33.3262 93.6962 33.3042C93.7183 33.2823 93.7446 33.2651 93.7736 33.2536C93.8026 33.2421 93.8336 33.2366 93.8648 33.2374H96.4633C96.4945 33.2366 96.5255 33.2421 96.5545 33.2536C96.5835 33.2651 96.6098 33.2823 96.6319 33.3042C96.654 33.3262 96.6714 33.3523 96.6831 33.3811C96.6947 33.4099 96.7003 33.4408 96.6996 33.4719L96.632 40.1388L96.6656 49.3189C96.6964 54.2773 93.896 57.0568 88.9371 57.0568ZM89.0718 48.2125C91.9059 48.2125 93.7612 46.202 93.7948 41.9472C93.8288 37.8265 92.2093 35.3475 89.3417 35.1461H88.7664C85.6629 35.2468 84.0774 37.7927 84.0774 41.7128C84.079 45.868 85.7657 48.2468 89.0718 48.2133V48.2125Z" fill="black"/>
<path d="M111.796 50.4902C111.765 50.4909 111.734 50.4854 111.705 50.4739C111.676 50.4624 111.65 50.4451 111.628 50.4232C111.606 50.4013 111.588 50.3752 111.577 50.3464C111.565 50.3176 111.56 50.2868 111.56 50.2558L111.628 47.7087C110.447 49.652 108.589 50.8249 106.061 50.8249C101.372 50.8249 98.875 46.9048 98.875 41.913C98.875 36.9211 101.54 32.9008 106.129 32.9008C108.591 32.9008 110.446 33.9395 111.594 35.849L111.526 33.4703C111.526 33.4392 111.531 33.4084 111.543 33.3795C111.555 33.3507 111.572 33.3246 111.594 33.3026C111.616 33.2807 111.642 33.2635 111.671 33.252C111.7 33.2405 111.731 33.235 111.763 33.2359H114.392C114.424 33.235 114.455 33.2405 114.484 33.252C114.513 33.2635 114.539 33.2807 114.561 33.3026C114.583 33.3246 114.6 33.3507 114.612 33.3795C114.624 33.4084 114.629 33.4392 114.629 33.4703L114.528 41.712L114.632 50.2569C114.633 50.2882 114.627 50.3192 114.615 50.3482C114.603 50.3771 114.585 50.4033 114.563 50.4251C114.54 50.447 114.514 50.464 114.484 50.4752C114.455 50.4864 114.424 50.4915 114.392 50.4902H111.796ZM106.839 48.5799C109.841 48.5799 111.663 46.3687 111.697 42.0132C111.731 37.8253 110.112 35.3463 107.244 35.145H106.67C103.499 35.2456 102.015 37.891 102.015 41.6781C102.013 45.8008 103.564 48.5799 106.837 48.5799H106.839Z" fill="black"/>
<path d="M117.793 50.4901C117.761 50.4909 117.73 50.4854 117.702 50.4739C117.673 50.4624 117.646 50.4451 117.624 50.4232C117.602 50.4013 117.585 50.3752 117.573 50.3464C117.562 50.3176 117.556 50.2867 117.557 50.2557L117.658 38.6304L117.557 27.2729C117.556 27.2419 117.562 27.2111 117.573 27.1823C117.585 27.1535 117.602 27.1274 117.624 27.1055C117.646 27.0836 117.673 27.0663 117.702 27.0548C117.73 27.0433 117.761 27.0378 117.793 27.0385H120.391C120.422 27.0377 120.453 27.0432 120.482 27.0547C120.511 27.0662 120.538 27.0834 120.56 27.1053C120.582 27.1272 120.599 27.1534 120.611 27.1822C120.622 27.211 120.628 27.2419 120.627 27.2729L120.526 38.597L120.627 50.2577C120.628 50.2888 120.622 50.3196 120.611 50.3484C120.599 50.3773 120.582 50.4034 120.56 50.4253C120.538 50.4473 120.511 50.4645 120.482 50.476C120.453 50.4874 120.422 50.4929 120.391 50.4921L117.793 50.4901Z" fill="black"/>
<path d="M135.747 50.4902C135.716 50.4909 135.685 50.4854 135.656 50.4739C135.627 50.4624 135.601 50.4452 135.579 50.4232C135.557 50.4013 135.539 50.3752 135.528 50.3464C135.516 50.3176 135.51 50.2868 135.511 50.2558L135.579 47.7087C134.398 49.652 132.542 50.8249 130.012 50.8249C125.323 50.8249 122.826 46.9048 122.826 41.913C122.826 36.9211 125.491 32.9008 130.08 32.9008C132.542 32.9008 134.397 33.9395 135.545 35.849L135.478 33.4703C135.477 33.4392 135.482 33.4084 135.494 33.3795C135.506 33.3507 135.523 33.3246 135.545 33.3026C135.567 33.2807 135.594 33.2635 135.623 33.252C135.652 33.2405 135.683 33.235 135.714 33.2359H138.345C138.376 33.235 138.407 33.2405 138.436 33.252C138.465 33.2635 138.492 33.2807 138.514 33.3026C138.536 33.3246 138.553 33.3507 138.565 33.3795C138.577 33.4084 138.582 33.4392 138.581 33.4703L138.48 41.712L138.581 50.2554C138.582 50.2864 138.576 50.3172 138.565 50.346C138.553 50.3748 138.536 50.4009 138.514 50.4228C138.492 50.4448 138.465 50.462 138.436 50.4735C138.407 50.485 138.376 50.4905 138.345 50.4898L135.747 50.4902ZM130.79 48.5799C133.792 48.5799 135.615 46.3687 135.648 42.0132C135.682 37.8253 134.063 35.3463 131.195 35.145H130.621C127.45 35.2456 125.966 37.891 125.966 41.6781C125.964 45.8008 127.516 48.5799 130.788 48.5799H130.79Z" fill="black"/>
<path d="M152.375 50.4902C152.24 50.4902 152.071 50.4229 152.004 50.2912L147.686 43.2557L143.367 50.2912C143.3 50.4249 143.131 50.4902 142.996 50.4902H140.263C140.24 50.4909 140.217 50.485 140.196 50.4731C140.176 50.4611 140.16 50.4437 140.149 50.4228C140.138 50.4019 140.134 50.3784 140.136 50.3551C140.139 50.3317 140.148 50.3096 140.162 50.2912L145.796 41.3458L140.634 33.4384C140.619 33.42 140.61 33.3977 140.607 33.374C140.604 33.3504 140.609 33.3265 140.619 33.3052C140.63 33.2839 140.647 33.2662 140.667 33.2542C140.688 33.2421 140.712 33.2363 140.736 33.2374H143.738C143.873 33.2374 144.042 33.3043 144.109 33.4384L148.023 39.7702L151.801 33.4384C151.843 33.3782 151.898 33.3286 151.963 33.2937C152.027 33.2587 152.099 33.2395 152.172 33.2374H154.804C154.828 33.2363 154.851 33.2421 154.872 33.2542C154.893 33.2662 154.909 33.2839 154.92 33.3052C154.931 33.3265 154.935 33.3504 154.932 33.374C154.93 33.3977 154.92 33.42 154.905 33.4384L149.912 41.4457L155.479 50.2912C155.493 50.3096 155.502 50.3317 155.504 50.3551C155.507 50.3784 155.502 50.4019 155.492 50.4228C155.481 50.4437 155.465 50.4611 155.444 50.4731C155.424 50.485 155.401 50.4909 155.377 50.4902H152.375Z" fill="black"/>
<path d="M164.057 55.952C164.038 56.0183 163.999 56.0769 163.944 56.1192C163.889 56.1614 163.822 56.1851 163.753 56.1868H161.291C161.263 56.1856 161.235 56.1781 161.211 56.1649C161.186 56.1517 161.165 56.133 161.149 56.1104C161.132 56.0877 161.122 56.0617 161.117 56.0343C161.112 56.0068 161.114 55.9787 161.122 55.952L163.011 50.5248L156.197 33.4718C156.129 33.3377 156.197 33.2374 156.331 33.2374H159.334C159.403 33.2391 159.47 33.2627 159.524 33.3049C159.579 33.3471 159.619 33.4056 159.637 33.4718L164.597 46.5378L168.78 33.4718C168.799 33.4056 168.838 33.3472 168.893 33.305C168.948 33.2628 169.014 33.2392 169.083 33.2374H171.783C171.917 33.2374 171.985 33.3377 171.951 33.4718L164.057 55.952Z" fill="black"/>
<path d="M34.1067 27.0393H63.3996V56.1983C67.1475 52.4673 69.4662 47.3135 69.4662 41.62C69.4662 30.2331 60.1926 21 48.7533 21C37.3141 21 28.04 30.2331 28.04 41.62C28.04 47.3111 30.3588 52.4625 34.1067 56.1931V27.0393Z" fill="black"/>
<path d="M34.1132 56.2003H34.1064V62.0323H63.3994V56.2003H63.3974H34.1132Z" fill="black"/>
</g>
<defs>
<clipPath id="clip0_1272_19653">
<rect width="144" height="41.0323" fill="white" transform="translate(28 21)"/>
</clipPath>
</defs>
</svg>
