<svg width="200" height="84" viewBox="0 0 200 84" fill="none" xmlns="http://www.w3.org/2000/svg">
<path d="M41.5332 54.7364C41.5332 55.1217 41.7387 55.4776 42.0723 55.6701L61.9092 67.1229C62.2428 67.3155 62.6538 67.3155 62.9874 67.1229L82.8253 55.6696C83.1589 55.4771 83.3644 55.121 83.3644 54.7357V43.0514C83.3644 42.6661 83.1589 42.3102 82.8253 42.1177L77.3662 38.9654L83.3641 35.5025V30.1248C83.3641 29.7395 83.1586 29.3836 82.825 29.1909L62.9884 17.7383C62.6548 17.5457 62.2438 17.5457 61.9102 17.7383L42.0723 29.1916C41.7387 29.3841 41.5332 29.7402 41.5332 30.1253V41.8096C41.5332 42.1949 41.7387 42.5507 42.0723 42.7433L47.5314 45.8955L41.5332 49.3587V54.7364ZM61.9085 54.1981C62.2421 54.3908 62.6533 54.3908 62.9869 54.1981L67.6441 51.5087V44.5785L62.9869 47.2674C62.6533 47.4599 62.2423 47.4599 61.9087 47.2674L48.0724 39.2792C47.7388 39.0866 47.5333 38.7305 47.5333 38.3452V33.5901C47.5333 33.2048 47.7388 32.8489 48.0724 32.6562L61.9102 24.6669C62.2438 24.4744 62.655 24.4744 62.9886 24.6669L76.8234 32.6562C77.157 32.8487 77.3625 33.2048 77.3625 33.5899V38.9627L62.9896 30.6629C62.656 30.4701 62.2448 30.4701 61.9112 30.6629L57.254 33.3523V40.2824L61.9112 37.5935C62.2448 37.401 62.6558 37.401 62.9894 37.5935L76.8256 45.5818C77.1592 45.7743 77.3647 46.1304 77.3647 46.5157V51.2709C77.3647 51.6561 77.1592 52.012 76.8256 52.2048L62.9879 60.194C62.6543 60.3865 62.243 60.3865 61.9094 60.194L48.0746 52.2048C47.741 52.012 47.5355 51.6561 47.5355 51.2711V45.8982L61.9085 54.1981Z" fill="black"/>
<path d="M90.2773 34.422H92.866C92.8864 35.4988 93.6939 36.2238 95.3095 36.2238C96.9251 36.2238 97.753 35.4988 97.753 34.422C97.753 33.2417 96.4898 33.0139 95.0193 32.7447C92.9694 32.372 90.5468 31.937 90.5468 28.7893C90.5468 26.2839 92.4516 24.5236 95.3303 24.5236C98.209 24.5236 100.011 26.2009 100.114 28.6857H97.6082C97.5879 27.6504 96.8215 26.9048 95.3509 26.9048C93.8803 26.9048 93.1147 27.7123 93.1147 28.7063C93.1147 29.8866 94.378 30.1144 95.8484 30.3836C97.8982 30.7564 100.342 31.1911 100.342 34.3388C100.342 36.9686 98.333 38.6048 95.3097 38.6048C92.2865 38.6048 90.3398 37.0103 90.2776 34.4218L90.2773 34.422Z" fill="black"/>
<path d="M102.021 25.145C102.021 24.1925 102.704 23.4883 103.656 23.4883C104.608 23.4883 105.292 24.1925 105.292 25.145C105.292 26.0976 104.609 26.7812 103.656 26.7812C102.703 26.7812 102.021 26.0978 102.021 25.145ZM102.414 28.1063H104.878V38.3359H102.414V28.1063Z" fill="black"/>
<path d="M107.259 32.4963C107.259 29.2867 109.122 27.8372 111.545 27.8372C113.078 27.8372 114.34 28.4791 115.086 29.68C115.811 28.4791 117.074 27.8372 118.627 27.8372C121.05 27.8372 122.914 29.2867 122.914 32.4963V38.336H120.449V32.4963C120.449 30.819 119.58 30.1356 118.379 30.1356C117.179 30.1356 116.329 30.8396 116.329 32.4963V38.336H113.864V32.4963C113.864 30.8396 112.974 30.1356 111.794 30.1356C110.613 30.1356 109.723 30.819 109.723 32.4963V38.336H107.259V32.4963Z" fill="black"/>
<path d="M124.945 33.3041C124.945 29.9909 127.181 27.8372 130.391 27.8372C133.6 27.8372 135.92 30.0736 135.92 33.3246C135.92 36.8243 133.311 38.6052 130.826 38.6052C129.355 38.6052 128.134 37.9838 127.409 36.8451V42.7053H124.944V33.3041H124.945ZM133.435 33.2213C133.435 31.4198 132.213 30.1359 130.412 30.1359C128.61 30.1359 127.409 31.4198 127.409 33.2213C127.409 35.0228 128.61 36.3067 130.412 36.3067C132.213 36.3067 133.435 35.023 133.435 33.2213Z" fill="black"/>
<path d="M137.887 23.6335H140.351V38.3362H137.887V23.6335Z" fill="black"/>
<path d="M142.815 39.4543H145.279C145.693 40.4069 146.501 40.8419 147.744 40.8419C149.421 40.8419 150.373 40.0343 150.373 38.0465V36.7625C149.752 37.8809 148.675 38.4812 147.33 38.4812C144.969 38.4812 142.732 36.9489 142.732 33.3043V28.1066H145.197V33.3043C145.197 35.2508 146.232 36.1828 147.785 36.1828C149.338 36.1828 150.374 35.2096 150.374 33.3043V28.1066H152.838V37.984C152.838 41.5458 150.581 42.9748 147.744 42.9748C145.362 42.9748 143.395 41.8772 142.815 39.4543H142.815Z" fill="black"/>
<path d="M90.2773 56.1548H92.866C92.8864 57.2316 93.6939 57.9563 95.3095 57.9563C96.9251 57.9563 97.753 57.2313 97.753 56.1548C97.753 54.9745 96.4898 54.7465 95.0193 54.4775C92.9694 54.1047 90.5468 53.67 90.5468 50.5224C90.5468 48.0167 92.4516 46.2563 95.3303 46.2563C98.209 46.2563 100.011 47.9337 100.114 50.4187H97.6082C97.5879 49.3832 96.8215 48.6378 95.3509 48.6378C93.8803 48.6378 93.1147 49.4454 93.1147 50.4393C93.1147 51.6197 94.378 51.8477 95.8484 52.1166C97.8982 52.4894 100.342 52.9242 100.342 56.0718C100.342 58.7017 98.333 60.3376 95.3097 60.3376C92.2865 60.3376 90.3398 58.7433 90.2776 56.1548H90.2773Z" fill="black"/>
<path d="M102.062 56.134V46.2147H104.526V49.839H109.806V52.0752H104.526V56.1343C104.526 57.501 105.23 58.0391 106.244 58.0391C107.259 58.0391 107.963 57.5213 107.963 56.1343V55.8648H110.427V56.1343C110.427 58.9713 108.729 60.3378 106.244 60.3378C103.759 60.3378 102.062 58.9713 102.062 56.1343V56.134Z" fill="black"/>
<path d="M111.587 55.0569C111.587 51.8059 113.865 49.5692 117.116 49.5692C120.367 49.5692 122.562 51.7435 122.562 55.0361V60.0683H120.305V58.0596C119.684 59.5713 118.296 60.3375 116.681 60.3375C114.196 60.3375 111.587 58.5566 111.587 55.0569ZM120.098 54.9536C120.098 53.1521 118.896 51.8682 117.095 51.8682C115.293 51.8682 114.072 53.1519 114.072 54.9536C114.072 56.7553 115.293 58.039 117.095 58.039C118.896 58.039 120.098 56.7553 120.098 54.9536Z" fill="black"/>
<path d="M124.943 45.3657H127.408V54.3114L131.466 49.8385H134.614L129.81 54.8498L134.801 60.0681H131.591L127.408 55.4504V60.0681H124.943V45.3655V45.3657Z" fill="black"/>
<path d="M136.064 46.8776C136.064 45.9248 136.748 45.2206 137.701 45.2206C138.653 45.2206 139.336 45.9248 139.336 46.8776C139.336 47.8303 138.653 48.5135 137.701 48.5135C136.748 48.5135 136.064 47.8301 136.064 46.8776ZM136.458 49.8388H138.922V60.0684H136.458V49.8388Z" fill="black"/>
<path d="M141.304 54.7464C141.304 51.3298 143.333 49.5692 146.357 49.5692C149.38 49.5692 151.409 51.3087 151.409 54.7464V60.0683H148.945V54.7464C148.945 52.7999 147.91 51.8682 146.357 51.8682C144.804 51.8682 143.768 52.7999 143.768 54.7464V60.0683H141.304V54.7464Z" fill="black"/>
<path d="M153.378 61.1864H155.862C156.277 62.1392 157.271 62.574 158.575 62.574C160.397 62.574 161.536 61.7248 161.536 59.3433V58.4529C160.832 59.5919 159.61 60.213 158.078 60.213C155.634 60.213 153.025 58.5771 153.025 54.9533C153.025 51.8473 155.303 49.5692 158.534 49.5692C161.764 49.5692 164 51.7229 164 55.0361V59.2607C164 63.1743 161.577 64.7068 158.575 64.7068C156.028 64.7068 154.019 63.6095 153.377 61.1864H153.378ZM161.536 54.9533C161.536 53.1519 160.335 51.8679 158.534 51.8679C156.732 51.8679 155.51 53.1516 155.51 54.9533C155.51 56.7551 156.732 57.9146 158.534 57.9146C160.335 57.9146 161.536 56.7548 161.536 54.9533Z" fill="black"/>
</svg>
