<svg width="200" height="84" viewBox="0 0 200 84" fill="none" xmlns="http://www.w3.org/2000/svg">
<path fill-rule="evenodd" clip-rule="evenodd" d="M21.9745 25.0785C21.8021 24.9771 21.5906 24.9737 21.4151 25.0695L9.3037 31.679C9.12113 31.7787 9.0052 31.9706 9.00017 32.1815L9 32.1958V46.4615C9 46.6735 9.11243 46.869 9.294 46.9728L30.2136 58.9222C30.3856 59.0228 30.5967 59.0261 30.7719 58.9305L42.6671 52.4368C42.854 52.3347 42.9707 52.1362 42.9707 51.9201V48.4444C42.9707 48.4343 42.9704 48.4243 42.9699 48.4143C42.9688 48.3914 42.9663 48.3687 42.9626 48.3463C42.9345 48.1769 42.8341 48.0265 42.6854 47.938L28.6439 39.5866L30.7648 38.4273L39.1949 43.2277C39.3686 43.3266 39.5805 43.3272 39.755 43.2284L42.6747 41.576C42.8574 41.4726 42.9707 41.2765 42.9707 41.0636V37.7588C42.9707 37.5764 42.8874 37.4056 42.7477 37.2954C42.7307 37.282 42.7128 37.2695 42.6942 37.2579L42.6789 37.2488L21.9745 25.0785ZM41.1972 37.7314L39.4858 38.6353L31.0512 33.8322C30.8792 33.7343 30.67 33.7328 30.4966 33.8283L30.474 33.8408L24.1828 37.2796L22.189 36.0681L27.8002 32.8766L27.8043 32.8743C27.9184 32.8102 28.0057 32.7098 28.0553 32.5917C28.0847 32.5218 28.1009 32.4457 28.1017 32.3672L27.8002 32.8766L28.1017 32.3657C28.1025 32.2696 28.0801 32.1767 28.0386 32.094C27.9891 31.9954 27.9122 31.9113 27.8148 31.8538L22.0294 28.4389C21.8562 28.3366 21.6432 28.3334 21.4671 28.4305L12.5894 33.3247L10.7494 32.2201L21.6765 26.2569L41.1972 37.7314ZM40.051 41.7197V39.6574L41.8198 38.7231V40.7187L40.051 41.7197ZM10.1509 33.2311V46.1181L29.9247 57.413V55.3365L12.3111 44.9285C12.1356 44.8231 12.0279 44.6311 12.0279 44.4235V34.3783L10.1509 33.2311ZM22.3164 32.0933V29.9633L26.3574 32.3485L24.4103 33.4428L22.3164 32.0933ZM21.1655 29.9326V32.0691L15.3544 35.3172C15.1702 35.4201 15.0557 35.6171 15.0557 35.8311V42.3704L13.1787 43.4289V34.3618L21.1655 29.9326ZM23.2826 34.1033L21.7202 33.0964L16.2066 36.1781V42.3788L30.516 50.86L31.6926 50.2385L20.7494 43.7738L20.4626 43.2667V36.0542L20.4627 36.0415C20.4661 35.8326 20.5785 35.6414 20.7575 35.5395L23.2826 34.1033ZM21.6135 42.929V37.0898L23.5445 38.2768L23.5445 41.3942C23.5446 41.6051 23.6559 41.8 23.8364 41.9041L35.13 48.42L32.8953 49.5938L21.6135 42.929ZM30.195 37.4082L24.6954 40.4144V38.3583L30.195 35.3275V37.4082ZM36.6033 48.9652L30.765 52.0491C30.5901 52.1415 30.381 52.1363 30.2107 52.0354L15.6242 43.39L13.7704 44.4354L30.5099 54.3269L41.2212 48.4247L27.4548 40.2369L25.3118 41.408L36.6231 47.9342C36.8068 48.0401 36.9188 48.2401 36.9149 48.4551C36.911 48.6701 36.7918 48.8656 36.6044 48.9646L36.6033 48.9652ZM38.9001 41.7169L31.3459 37.415V35.3433L38.9001 39.6451V41.7169ZM31.0755 57.4346L41.8198 51.5692V49.4279L31.0755 55.3482V57.4346Z" fill="black"/>
<path d="M173.64 32.9294C172.775 32.9294 172.116 33.169 171.664 33.6482C171.232 34.1274 171.015 34.8366 171.015 35.7758V37.5584H175.587V39.2835H171.072V52.6818H169.068V39.2835H166.415V37.5584H169.068V35.6896C169.068 34.3095 169.453 33.2169 170.225 32.4119C171.015 31.6068 172.125 31.2043 173.555 31.2043C174.12 31.2043 174.666 31.2906 175.192 31.4631C175.719 31.6164 176.161 31.8464 176.519 32.1531L175.842 33.6769C175.258 33.1786 174.524 32.9294 173.64 32.9294Z" fill="black"/>
<path d="M79.8521 37.4434C81.7149 37.4434 83.1919 37.9993 84.2832 39.111C85.3934 40.2036 85.9484 41.8041 85.9484 43.9125V52.6818H83.9446V44.1138C83.9446 42.542 83.5588 41.344 82.7874 40.5198C82.0159 39.6956 80.9152 39.2835 79.4852 39.2835C77.8858 39.2835 76.6157 39.7723 75.6749 40.7498C74.7529 41.7082 74.292 43.0404 74.292 44.7463V52.6818H72.2881V31.3481H74.292V40.2036C74.8376 39.3219 75.5903 38.6414 76.5499 38.1622C77.5095 37.683 78.6102 37.4434 79.8521 37.4434Z" fill="black"/>
<path d="M61.0055 52.8543C59.0487 52.8543 57.28 52.4134 55.6994 51.5317C54.1377 50.65 52.9053 49.4328 52.0021 47.8803C51.1177 46.3085 50.6756 44.5546 50.6756 42.6187C50.6756 40.6828 51.1177 38.9385 52.0021 37.3859C52.9053 35.8141 54.1471 34.5874 55.7277 33.7057C57.3082 32.824 59.0769 32.3831 61.0338 32.3831C62.5014 32.3831 63.8562 32.6323 65.098 33.1307C66.3399 33.629 67.3936 34.3574 68.2591 35.3158L66.9326 36.6671C65.3897 35.0762 63.4422 34.2807 61.0902 34.2807C59.5285 34.2807 58.1079 34.6449 56.8284 35.3733C55.5489 36.1017 54.5423 37.0984 53.8084 38.3635C53.0934 39.6285 52.7359 41.0469 52.7359 42.6187C52.7359 44.1905 53.0934 45.6089 53.8084 46.8739C54.5423 48.139 55.5489 49.1357 56.8284 49.8641C58.1079 50.5925 59.5285 50.9567 61.0902 50.9567C63.461 50.9567 65.4085 50.1516 66.9326 48.5415L68.2591 49.8929C67.3936 50.8513 66.3305 51.5892 65.0698 52.1067C63.8279 52.6051 62.4732 52.8543 61.0055 52.8543Z" fill="black"/>
<path fill-rule="evenodd" clip-rule="evenodd" d="M101.041 38.9385C100.007 37.9418 98.5201 37.4434 96.582 37.4434C95.4155 37.4434 94.3053 37.6255 93.2516 37.9897C92.1979 38.3347 91.2948 38.8331 90.5421 39.4848L91.4453 41.0086C92.0662 40.4527 92.8094 40.0215 93.675 39.7148C94.5405 39.3889 95.4437 39.226 96.3845 39.226C97.758 39.226 98.8023 39.571 99.5173 40.2611C100.232 40.9319 100.59 41.9191 100.59 43.2225V44.1425H95.8765C93.882 44.1425 92.4237 44.5355 91.5017 45.3214C90.5986 46.1072 90.147 47.1423 90.147 48.4265C90.147 49.7491 90.6362 50.8129 91.6146 51.618C92.5931 52.423 93.9102 52.8255 95.566 52.8255C96.7702 52.8255 97.8051 52.6051 98.6706 52.1642C99.555 51.7234 100.223 51.11 100.675 50.3241V52.6818H102.594V43.3087C102.594 41.3728 102.076 39.916 101.041 38.9385ZM98.7835 50.4391C97.9744 50.9567 97.0054 51.2154 95.8765 51.2154C94.691 51.2154 93.7691 50.9663 93.1105 50.4679C92.4519 49.9504 92.1227 49.2507 92.1227 48.369C92.1227 46.5673 93.3927 45.6664 95.9329 45.6664H100.59V48.139C100.195 49.1357 99.5926 49.9025 98.7835 50.4391Z" fill="black"/>
<path d="M108.037 37.5584H110.04V52.6818H108.037V37.5584Z" fill="black"/>
<path d="M109.053 34.252C108.639 34.252 108.291 34.1082 108.008 33.8207C107.726 33.5332 107.585 33.1882 107.585 32.7856C107.585 32.4023 107.726 32.0669 108.008 31.7793C108.291 31.4918 108.639 31.3481 109.053 31.3481C109.467 31.3481 109.815 31.4918 110.097 31.7793C110.379 32.0477 110.52 32.3735 110.52 32.7569C110.52 33.1786 110.379 33.5332 110.097 33.8207C109.815 34.1082 109.467 34.252 109.053 34.252Z" fill="black"/>
<path d="M127.611 39.111C126.52 37.9993 125.043 37.4434 123.18 37.4434C121.901 37.4434 120.772 37.7022 119.793 38.2197C118.834 38.7181 118.081 39.4273 117.535 40.3473V37.5584H115.616V52.6818H117.62V44.7463C117.62 43.0404 118.081 41.7082 119.003 40.7498C119.944 39.7723 121.214 39.2835 122.813 39.2835C124.243 39.2835 125.344 39.6956 126.116 40.5198C126.887 41.344 127.273 42.542 127.273 44.1138V52.6818H129.277V43.9125C129.277 41.8041 128.722 40.2036 127.611 39.111Z" fill="black"/>
<path d="M140.588 52.8543C139.12 52.8543 137.709 52.6147 136.354 52.1355C135.018 51.6563 133.983 51.0238 133.249 50.2379L134.068 48.599C134.783 49.3274 135.733 49.9216 136.918 50.3816C138.104 50.8225 139.327 51.0429 140.588 51.0429C142.356 51.0429 143.683 50.7171 144.567 50.0654C145.452 49.3945 145.894 48.532 145.894 47.4777C145.894 46.6727 145.649 46.0306 145.16 45.5514C144.689 45.0722 144.106 44.708 143.41 44.4588C142.714 44.1905 141.745 43.9029 140.503 43.5963C139.016 43.2129 137.831 42.8487 136.947 42.5037C136.062 42.1395 135.3 41.5932 134.661 40.8649C134.04 40.1365 133.729 39.1493 133.729 37.9034C133.729 36.8875 133.993 35.9675 134.519 35.1433C135.046 34.2999 135.855 33.629 136.947 33.1307C138.038 32.6323 139.393 32.3831 141.011 32.3831C142.14 32.3831 143.241 32.546 144.313 32.8719C145.404 33.1786 146.345 33.6099 147.136 34.1657L146.43 35.8621C145.602 35.3062 144.718 34.8941 143.777 34.6257C142.836 34.3382 141.914 34.1945 141.011 34.1945C139.28 34.1945 137.972 34.5395 137.088 35.2295C136.222 35.9004 135.79 36.7725 135.79 37.8459C135.79 38.651 136.025 39.3027 136.495 39.801C136.984 40.2802 137.586 40.654 138.301 40.9224C139.035 41.1715 140.014 41.4495 141.237 41.7562C142.686 42.1203 143.852 42.4845 144.737 42.8487C145.64 43.1937 146.402 43.7304 147.023 44.4588C147.644 45.168 147.954 46.136 147.954 47.3627C147.954 48.3786 147.681 49.3083 147.136 50.1516C146.609 50.9758 145.79 51.6371 144.68 52.1355C143.57 52.6147 142.206 52.8543 140.588 52.8543Z" fill="black"/>
<path fill-rule="evenodd" clip-rule="evenodd" d="M161.734 38.9385C160.699 37.9418 159.213 37.4434 157.275 37.4434C156.108 37.4434 154.998 37.6255 153.944 37.9897C152.89 38.3347 151.987 38.8331 151.235 39.4848L152.138 41.0086C152.759 40.4527 153.502 40.0215 154.367 39.7148C155.233 39.3889 156.136 39.226 157.077 39.226C158.451 39.226 159.495 39.571 160.21 40.2611C160.925 40.9319 161.282 41.9191 161.282 43.2225V44.1425H156.569C154.574 44.1425 153.116 44.5355 152.194 45.3214C151.291 46.1072 150.839 47.1423 150.839 48.4265C150.839 49.7491 151.329 50.8129 152.307 51.618C153.286 52.423 154.603 52.8255 156.258 52.8255C157.463 52.8255 158.498 52.6051 159.363 52.1642C160.247 51.7234 160.915 51.11 161.367 50.3241V52.6818H163.286V43.3087C163.286 41.3728 162.769 39.916 161.734 38.9385ZM159.476 50.4391C158.667 50.9567 157.698 51.2154 156.569 51.2154C155.384 51.2154 154.462 50.9663 153.803 50.4679C153.144 49.9504 152.815 49.2507 152.815 48.369C152.815 46.5673 154.085 45.6664 156.625 45.6664H161.282V48.139C160.887 49.1357 160.285 49.9025 159.476 50.4391Z" fill="black"/>
<path fill-rule="evenodd" clip-rule="evenodd" d="M178.553 45.7526H190.972L191 45.1201C191 43.625 190.69 42.3024 190.069 41.1524C189.448 39.9831 188.592 39.0727 187.5 38.421C186.409 37.7693 185.176 37.4434 183.803 37.4434C182.429 37.4434 181.187 37.7693 180.077 38.421C178.986 39.0727 178.12 39.9831 177.481 41.1524C176.86 42.3216 176.549 43.6442 176.549 45.1201C176.549 46.596 176.879 47.9186 177.537 49.0878C178.196 50.2571 179.108 51.1771 180.275 51.848C181.46 52.4997 182.815 52.8255 184.339 52.8255C185.525 52.8255 186.606 52.6147 187.585 52.193C188.582 51.7713 189.41 51.1579 190.069 50.3529L188.94 49.0303C188.375 49.682 187.707 50.1804 186.936 50.5254C186.164 50.8513 185.318 51.0142 184.396 51.0142C182.759 51.0142 181.404 50.535 180.331 49.5766C179.259 48.599 178.666 47.3244 178.553 45.7526ZM180.19 40.6061C181.169 39.6669 182.373 39.1973 183.803 39.1973C185.252 39.1973 186.456 39.6669 187.416 40.6061C188.394 41.5261 188.949 42.7337 189.081 44.2288H178.553C178.685 42.7337 179.231 41.5261 180.19 40.6061Z" fill="black"/>
</svg>
