<svg width="200" height="84" viewBox="0 0 200 84" fill="none" xmlns="http://www.w3.org/2000/svg">
<path d="M43.1425 24L26.2016 27.6604H43.1425V24Z" fill="black"/>
<path d="M26 29.4906C26.2357 31.2112 26.5129 32.8368 26.8255 34.3728H43.1425V29.4906H26Z" fill="black"/>
<path d="M27.222 36.203C27.6285 37.9527 28.0818 39.5771 28.5707 41.0848H43.1425V36.203H27.222Z" fill="black"/>
<path d="M29.2017 42.915C29.8633 44.7221 30.5758 46.3425 31.3165 47.7972H43.1425V42.915H29.2017Z" fill="black"/>
<path d="M32.3111 49.6274C33.4518 51.5923 34.6327 53.1984 35.7771 54.5093H43.1425V49.6274H32.3111Z" fill="black"/>
<path d="M37.5391 56.3395C40.661 59.2644 43.1425 59.9999 43.1425 59.9999V56.3395H37.5391Z" fill="black"/>
<path d="M45.0183 24V60C45.0183 60 59.1191 55.8271 62.383 27.7519L45.0183 24Z" fill="black"/>
<path fill-rule="evenodd" clip-rule="evenodd" d="M78.4621 42.3935L72.3499 26.2877L72.0748 26.1962C71.9322 26.1962 71.7998 26.2166 71.6775 26.2572C71.5757 26.2979 71.4738 26.3691 71.3719 26.4708C71.2904 26.5724 71.2191 26.6639 71.158 26.7453C71.0969 26.8266 71.0256 26.9588 70.9441 27.1418C70.8626 27.3045 70.8015 27.4469 70.7607 27.5689C70.72 27.6706 70.6588 27.8332 70.5774 28.0569C70.5162 28.2806 70.4653 28.4433 70.4245 28.545L65.1069 42.18C64.5772 43.5424 64.0984 44.4982 63.6706 45.0473C63.528 45.2303 63.2631 45.3726 62.876 45.4743C62.4889 45.576 62.1731 45.6268 61.9286 45.6268C61.8471 45.6268 61.8064 45.7692 61.8064 46.0539C61.8064 46.2776 61.8471 46.4301 61.9286 46.5114C62.275 46.4911 62.6315 46.4708 62.9982 46.4504C63.3853 46.4301 63.7317 46.4098 64.0373 46.3894C64.3429 46.3691 64.6995 46.3589 65.1069 46.3589C65.1681 46.3589 66.2173 46.4098 68.2547 46.5114C68.2955 46.4098 68.3057 46.2369 68.2853 45.9929C68.2853 45.7489 68.2547 45.6268 68.1936 45.6268C68.0102 45.6268 67.7148 45.5862 67.3073 45.5048C66.8999 45.4031 66.6044 45.2811 66.4211 45.1388C66.2581 45.0168 66.1766 44.8134 66.1766 44.5287C66.1766 44.1423 66.3498 43.4408 66.6961 42.424L68.0102 39.0686L68.163 38.9771C69.6911 38.8754 70.9848 38.8246 72.0443 38.8246C72.7981 38.8246 73.5723 38.8551 74.3669 38.9161C74.428 38.9161 74.4892 38.9568 74.5503 39.0381L75.9255 42.8205C75.9866 43.0239 76.0478 43.3086 76.1089 43.6746C76.1904 44.0203 76.2311 44.3254 76.2311 44.5897C76.2311 44.7524 76.2108 44.9151 76.17 45.0778C76.1089 45.2405 75.895 45.3726 75.5282 45.4743C75.1615 45.576 74.8559 45.6268 74.6114 45.6268C74.5299 45.6268 74.479 45.759 74.4586 46.0234C74.4586 46.2674 74.4993 46.4301 74.5808 46.5114C76.9238 46.4098 78.1055 46.3589 78.1259 46.3589C78.3297 46.3589 79.4502 46.4098 81.4876 46.5114C81.5284 46.3894 81.5487 46.2877 81.5487 46.2064C81.5487 45.82 81.508 45.6268 81.4265 45.6268C81.182 45.6268 80.8051 45.5353 80.2957 45.3523C79.7864 45.149 79.4706 44.8948 79.3484 44.5897C79.1242 44.0813 78.8288 43.3493 78.4621 42.3935ZM70.9747 37.3604C70.5875 37.3604 69.8643 37.3401 68.8048 37.2994C68.7641 37.2994 68.7437 37.2588 68.7437 37.1774L71.3719 30.3752L73.8474 37.1164L73.7557 37.2689C72.7981 37.3299 71.8711 37.3604 70.9747 37.3604Z" fill="black"/>
<path d="M84.5437 35.0117H82.7712C82.6693 35.0117 82.6184 34.7982 82.6184 34.3712C82.6184 34.2491 82.6286 34.178 82.6489 34.1576C83.2398 33.8933 83.8816 33.3544 84.5743 32.541C84.7984 32.2766 85.0123 31.9817 85.2161 31.6564C85.4402 31.3107 85.6235 31.0158 85.7662 30.7718C85.9088 30.5277 85.9801 30.3956 85.9801 30.3752C86.5913 30.3752 86.8969 30.4261 86.8969 30.5277V33.5476C87.4266 33.5476 88.2314 33.5577 89.3112 33.5781H91.0226C91.1856 33.5781 91.2671 33.6696 91.2671 33.8526C91.2671 34.2186 91.1653 34.605 90.9615 35.0117H86.8969V42.485C86.8969 43.2985 87.1006 43.9492 87.5081 44.4373C87.936 44.9253 88.4861 45.1693 89.1584 45.1693C89.7696 45.1693 90.4012 44.9761 91.0532 44.5898C91.1143 44.5491 91.206 44.6406 91.3282 44.8643C91.4505 45.0677 91.5014 45.1795 91.481 45.1998C91.1754 45.5252 90.7068 45.8506 90.0752 46.1759C89.4437 46.481 88.7917 46.6335 88.1193 46.6335C87.1006 46.6335 86.2449 46.298 85.5522 45.6269C84.8799 44.9558 84.5437 44 84.5437 42.7596V35.0117Z" fill="black"/>
<path d="M92.3673 35.0117H94.1399V42.7596C94.1399 44 94.476 44.9558 95.1484 45.6269C95.8411 46.298 96.6968 46.6335 97.7155 46.6335C98.3878 46.6335 99.0398 46.481 99.6714 46.1759C100.303 45.8506 100.772 45.5252 101.077 45.1998C101.098 45.1795 101.047 45.0677 100.924 44.8643C100.802 44.6406 100.71 44.5491 100.649 44.5898C99.9974 44.9761 99.3658 45.1693 98.7546 45.1693C98.0822 45.1693 97.5321 44.9253 97.1043 44.4373C96.6968 43.9492 96.493 43.2985 96.493 42.485V35.0117H100.558C100.761 34.605 100.863 34.2186 100.863 33.8526C100.863 33.6696 100.782 33.5781 100.619 33.5781H98.9074C97.8275 33.5577 97.0228 33.5476 96.4931 33.5476V30.5277C96.4931 30.4261 96.1874 30.3752 95.5762 30.3752C95.5762 30.3956 95.5049 30.5277 95.3623 30.7718C95.2197 31.0158 95.0363 31.3107 94.8122 31.6564C94.6085 31.9817 94.3945 32.2766 94.1704 32.541C93.4777 33.3544 92.8359 33.8933 92.2451 34.1576C92.2247 34.178 92.2145 34.2491 92.2145 34.3712C92.2145 34.7982 92.2654 35.0117 92.3673 35.0117Z" fill="black"/>
<path fill-rule="evenodd" clip-rule="evenodd" d="M108.473 33.1205C109.41 33.1205 110.235 33.3035 110.948 33.6696C111.661 34.0153 112.201 34.4728 112.568 35.0422C112.955 35.5913 113.23 36.1607 113.393 36.7504C113.577 37.3198 113.668 37.8892 113.668 38.4586C113.668 38.8653 113.607 39.1195 113.485 39.2212C113.363 39.3025 113.128 39.3432 112.782 39.3432H105.081C104.918 39.3432 104.836 39.394 104.836 39.4957C104.836 40.7768 105.223 41.9563 105.997 43.0341C106.772 44.1119 107.892 44.6508 109.359 44.6508C109.787 44.6508 110.195 44.6101 110.582 44.5287C110.969 44.4474 111.295 44.3559 111.56 44.2542C111.845 44.1322 112.079 44.0204 112.262 43.9187C112.466 43.7967 112.639 43.6848 112.782 43.5831L112.996 43.4306C113.118 43.4306 113.179 43.5628 113.179 43.8272C113.179 43.9899 113.118 44.1729 112.996 44.3762C112.588 44.9456 111.987 45.4642 111.193 45.9319C110.398 46.3793 109.532 46.603 108.595 46.603C106.904 46.603 105.447 45.9726 104.225 44.7118C103.023 43.4306 102.422 41.875 102.422 40.0448C102.422 37.9095 102.992 36.2217 104.133 34.9812C105.295 33.7407 106.741 33.1205 108.473 33.1205ZM108.167 34.2491C107.108 34.2491 106.293 34.7067 105.722 35.6218C105.172 36.5165 104.897 37.2588 104.897 37.8485C104.897 37.9909 104.958 38.062 105.081 38.062H111.04C111.142 38.062 111.193 37.9604 111.193 37.757C111.193 37.1063 110.918 36.364 110.368 35.5303C109.818 34.6762 109.084 34.2491 108.167 34.2491Z" fill="black"/>
<path d="M121.95 33.273C121.278 33.151 120.718 33.09 120.269 33.09C119.088 33.09 118.049 33.4357 117.152 34.1271C116.276 34.8185 115.838 35.7133 115.838 36.8114C115.838 38.0722 116.633 39.1602 118.222 40.0753C118.446 40.2176 118.792 40.4108 119.261 40.6548C119.73 40.8989 120.086 41.1022 120.331 41.2649C120.595 41.4073 120.87 41.6004 121.156 41.8445C121.461 42.0682 121.675 42.3325 121.798 42.6376C121.94 42.9223 122.011 43.2375 122.011 43.5832C122.011 44.2542 121.798 44.7728 121.37 45.1388C120.962 45.4845 120.432 45.6574 119.78 45.6574C119.027 45.6574 118.324 45.3727 117.672 44.8033C117.04 44.2136 116.663 43.6137 116.541 43.0036C116.521 42.8816 116.358 42.8206 116.052 42.8206C115.971 42.8206 115.848 42.8816 115.685 43.0036C115.685 43.4103 115.736 43.9594 115.838 44.6508C115.96 45.3422 116.083 45.8506 116.205 46.1759C116.47 46.2166 116.847 46.2979 117.336 46.42C117.825 46.542 118.242 46.6233 118.589 46.664C118.955 46.725 119.353 46.7555 119.78 46.7555C121.044 46.7555 122.144 46.359 123.081 45.5659C124.018 44.7525 124.487 43.7458 124.487 42.546C124.487 42.241 124.416 41.9461 124.273 41.6614C124.151 41.3564 124.018 41.1124 123.876 40.9294C123.733 40.726 123.499 40.5023 123.173 40.2583C122.867 40.0143 122.633 39.8414 122.47 39.7397C122.307 39.6381 122.022 39.4754 121.614 39.2517C121.227 39.0077 120.993 38.8653 120.911 38.8246C120.809 38.7636 120.545 38.6213 120.117 38.3976C119.709 38.1536 119.444 37.9909 119.322 37.9095L118.772 37.452C118.548 37.2283 118.395 37.0046 118.314 36.7809C118.232 36.5369 118.191 36.2624 118.191 35.9573C118.191 34.7575 118.925 34.1576 120.392 34.1576C121.003 34.1576 121.543 34.4118 122.011 34.9202C122.5 35.4286 122.796 35.9675 122.898 36.5369C122.918 36.6792 123.071 36.7504 123.356 36.7504C123.621 36.7504 123.753 36.6996 123.753 36.5979C123.713 35.4591 123.59 34.422 123.387 33.4866C123.122 33.4459 122.643 33.3747 121.95 33.273Z" fill="black"/>
<path d="M127.879 35.0117H126.107C126.005 35.0117 125.954 34.7982 125.954 34.3712C125.954 34.2491 125.964 34.178 125.984 34.1576C126.575 33.8933 127.217 33.3544 127.91 32.541C128.134 32.2766 128.348 31.9817 128.552 31.6564C128.776 31.3107 128.959 31.0158 129.102 30.7718C129.244 30.5277 129.316 30.3956 129.316 30.3752C129.927 30.3752 130.232 30.4261 130.232 30.5277V33.5476C130.762 33.5476 131.567 33.5577 132.647 33.5781H134.358C134.521 33.5781 134.603 33.6696 134.603 33.8526C134.603 34.2186 134.501 34.605 134.297 35.0117H130.232V42.485C130.232 43.2985 130.436 43.9492 130.844 44.4373C131.271 44.9253 131.822 45.1693 132.494 45.1693C133.105 45.1693 133.737 44.9761 134.389 44.5898C134.45 44.5491 134.541 44.6406 134.664 44.8643C134.786 45.0677 134.837 45.1795 134.816 45.1998C134.511 45.5252 134.042 45.8506 133.411 46.1759C132.779 46.481 132.127 46.6335 131.455 46.6335C130.436 46.6335 129.58 46.298 128.888 45.6269C128.215 44.9558 127.879 44 127.879 42.7596L127.879 35.0117Z" fill="black"/>
<path fill-rule="evenodd" clip-rule="evenodd" d="M144.596 33.9441C144.107 33.395 143.302 33.1205 142.182 33.1205C140.857 33.1205 139.553 33.5577 138.27 34.4322C136.986 35.2862 136.345 36.1505 136.345 37.0249C136.569 37.4113 136.966 37.6045 137.536 37.6045C138.372 37.6045 138.789 37.2486 138.789 36.5369C138.789 35.8658 138.993 35.3269 139.401 34.9202C139.808 34.4932 140.317 34.2796 140.929 34.2796C141.499 34.2796 141.988 34.4627 142.396 34.8287C142.803 35.1744 143.007 35.6726 143.007 36.3234V38.6111C143.007 38.8551 142.915 39.0077 142.732 39.0687C142.487 39.1703 142.059 39.3229 141.448 39.5262C140.837 39.7296 140.338 39.9024 139.951 40.0448C139.584 40.1668 139.136 40.36 138.606 40.6243C138.076 40.8887 137.659 41.153 137.353 41.4174C137.047 41.6614 136.783 41.9868 136.558 42.3935C136.334 42.7799 136.222 43.1968 136.222 43.6442C136.222 44.6406 136.528 45.393 137.139 45.9014C137.75 46.3895 138.525 46.6335 139.462 46.6335C139.869 46.6335 140.267 46.5725 140.654 46.4505C141.061 46.3284 141.407 46.1759 141.693 45.9929C141.998 45.8099 142.263 45.637 142.487 45.4744C142.711 45.2913 142.885 45.1388 143.007 45.0168C143.149 44.8745 143.231 44.8033 143.251 44.8033C143.414 45.2303 143.71 45.637 144.138 46.0234C144.565 46.4098 145.014 46.603 145.482 46.603C146.073 46.603 146.786 46.2471 147.622 45.5354C147.723 45.3727 147.774 45.1591 147.774 44.8948C147.774 44.7321 147.734 44.6508 147.652 44.6508C147.224 44.9355 146.868 45.0778 146.582 45.0778C146.195 45.0778 145.89 44.9355 145.666 44.6508C145.441 44.3661 145.329 44.0102 145.329 43.5831V36.5369C145.329 35.3371 145.085 34.4728 144.596 33.9441ZM140.654 44.8948C140.104 44.8948 139.655 44.7524 139.309 44.4677C138.963 44.1627 138.789 43.7357 138.789 43.1866C138.789 42.7189 138.952 42.3122 139.278 41.9665C139.625 41.6004 139.971 41.3462 140.317 41.2039C140.684 41.0412 141.183 40.8582 141.815 40.6548C142.447 40.4515 142.844 40.3091 143.007 40.2278V43.3696C143.007 43.7153 142.752 44.061 142.243 44.4067C141.733 44.7321 141.204 44.8948 140.654 44.8948Z" fill="black"/>
<path d="M157.829 33.0594C159.255 33.0594 160.253 33.5678 160.824 34.5846C161.394 35.6013 161.68 37.2485 161.68 39.5261V42.3019C161.68 43.4814 161.761 44.3863 161.924 45.0167C161.965 45.159 162.23 45.3014 162.719 45.4437C163.208 45.5657 163.554 45.6268 163.758 45.6268C163.819 45.6268 163.86 45.7488 163.88 45.9928C163.9 46.2368 163.89 46.4097 163.849 46.5113C161.812 46.4097 160.722 46.3588 160.579 46.3588C160.539 46.3588 159.469 46.4097 157.37 46.5113C157.289 46.43 157.248 46.2673 157.248 46.0233C157.248 45.7589 157.289 45.6268 157.37 45.6268C157.615 45.6268 157.951 45.5657 158.379 45.4437C158.827 45.3014 159.072 45.159 159.112 45.0167C159.255 44.427 159.326 43.7152 159.326 42.8815V39.8311C159.326 37.9399 159.082 36.6486 158.593 35.9572C158.104 35.2658 157.309 34.9201 156.209 34.9201C155.557 34.9201 154.926 35.1641 154.314 35.6522C153.723 36.1199 153.428 36.5469 153.428 36.9333V42.3019C153.428 43.4814 153.51 44.3863 153.673 45.0167C153.713 45.159 153.978 45.3014 154.467 45.4437C154.956 45.5657 155.302 45.6268 155.506 45.6268C155.567 45.6268 155.608 45.7488 155.628 45.9928C155.649 46.2368 155.639 46.4097 155.598 46.5113C153.56 46.4097 152.47 46.3588 152.328 46.3588C152.206 46.3588 151.095 46.4097 148.997 46.5113C148.915 46.43 148.874 46.2673 148.874 46.0233C148.874 45.7589 148.915 45.6268 148.997 45.6268C149.241 45.6268 149.598 45.5657 150.066 45.4437C150.555 45.3014 150.82 45.159 150.861 45.0167C151.004 44.427 151.075 43.7152 151.075 42.8815V37.1163C151.075 36.3232 150.932 35.7742 150.647 35.4692C150.443 35.2251 150.189 35.0624 149.883 34.9811C149.598 34.8794 149.353 34.8286 149.15 34.8286C148.966 34.8286 148.874 34.8082 148.874 34.7676C148.874 34.2795 148.936 34.0253 149.058 34.005C151.217 33.6796 152.623 33.4153 153.275 33.2119H153.367L153.428 33.1814C153.51 33.1814 153.56 33.2729 153.581 33.4559C153.601 33.6186 153.601 33.7406 153.581 33.822C153.499 34.3914 153.459 34.7981 153.459 35.0421C153.459 35.1234 153.479 35.1641 153.52 35.1641C153.54 35.1641 153.571 35.1438 153.611 35.1031C154.08 34.6151 154.712 34.1575 155.506 33.7305C156.321 33.2831 157.095 33.0594 157.829 33.0594Z" fill="black"/>
<path d="M165.286 35.0117H167.058L167.058 42.7596C167.058 44 167.394 44.9558 168.067 45.6269C168.76 46.298 169.615 46.6335 170.634 46.6335C171.306 46.6335 171.958 46.481 172.59 46.1759C173.221 45.8506 173.69 45.5252 173.996 45.1998C174.016 45.1795 173.965 45.0677 173.843 44.8643C173.721 44.6406 173.629 44.5491 173.568 44.5898C172.916 44.9761 172.284 45.1693 171.673 45.1693C171.001 45.1693 170.451 44.9253 170.023 44.4373C169.615 43.9492 169.411 43.2985 169.411 42.485V35.0117H173.476C173.68 34.605 173.782 34.2186 173.782 33.8526C173.782 33.6696 173.7 33.5781 173.537 33.5781H171.826C170.746 33.5577 169.941 33.5476 169.411 33.5476V30.5277C169.411 30.4261 169.106 30.3752 168.495 30.3752C168.495 30.3956 168.423 30.5277 168.281 30.7718C168.138 31.0158 167.955 31.3107 167.731 31.6564C167.527 31.9817 167.313 32.2766 167.089 32.541C166.396 33.3544 165.754 33.8933 165.164 34.1576C165.143 34.178 165.133 34.2491 165.133 34.3712C165.133 34.7982 165.184 35.0117 165.286 35.0117Z" fill="black"/>
<path d="M71.6377 54.6297L72.4285 50.5689C72.5278 50.0428 72.5775 49.6729 72.5775 49.4594C72.5775 49.406 72.566 49.3679 72.5431 49.345C72.5278 49.3145 72.4323 49.2878 72.2566 49.2649C72.0809 49.2344 71.8096 49.2192 71.4429 49.2192C71.038 49.2192 70.7514 49.284 70.5834 49.4136C70.4153 49.5356 70.2357 49.8102 70.0447 50.2372C70.0294 50.2753 69.9912 50.2944 69.9301 50.2944C69.8308 50.2944 69.7544 50.2677 69.7009 50.2143L70.2052 48.5786C70.4955 48.6625 70.7362 48.7044 70.9272 48.7044C71.2251 48.7044 71.611 48.7159 72.0847 48.7387C72.5584 48.7616 72.9442 48.7731 73.2422 48.7731C73.5401 48.7731 73.9336 48.7616 74.4226 48.7387C74.9116 48.7159 75.305 48.7044 75.603 48.7044C75.7711 48.7044 76.0232 48.6625 76.3594 48.5786L76.2448 50.2143C76.176 50.2677 76.0882 50.2944 75.9812 50.2944C75.9124 50.2944 75.878 50.2753 75.878 50.2372C75.878 49.8254 75.8016 49.5547 75.6488 49.4251C75.5037 49.2878 75.2515 49.2192 74.8925 49.2192C74.1361 49.2192 73.7311 49.2764 73.6777 49.3907C73.5707 49.6195 73.4637 50.0008 73.3568 50.5346L72.5545 54.664C72.4705 55.0834 72.4285 55.4266 72.4285 55.6935C72.4285 55.7545 72.4781 55.8117 72.5775 55.8651C72.6844 55.9108 72.7876 55.9413 72.8869 55.9566L73.0473 55.9795C73.0626 55.9795 73.0703 55.9947 73.0703 56.0252C73.0703 56.1091 73.0473 56.1968 73.0015 56.2883C72.2986 56.2502 71.9013 56.2311 71.8096 56.2311C71.7943 56.2311 71.3741 56.2502 70.549 56.2883C70.5337 56.2731 70.5261 56.2425 70.5261 56.1968C70.5261 56.0519 70.5528 55.9795 70.6063 55.9795C70.698 55.9795 70.8355 55.9566 71.0189 55.9108C71.2022 55.8574 71.3092 55.7964 71.3397 55.7278C71.4544 55.4685 71.5537 55.1025 71.6377 54.6297Z" fill="black"/>
<path d="M80.2101 52.0331C80.2101 51.5298 80.0191 51.2781 79.637 51.2781C79.4078 51.2781 79.1061 51.4535 78.7317 51.8043C78.365 52.1475 78.0517 52.4868 77.7919 52.8223C77.5398 53.1579 77.3755 53.3943 77.2991 53.5315L78.0899 49.4937C78.1892 48.9827 78.2389 48.6968 78.2389 48.6358C78.2389 48.5138 78.216 48.4413 78.1701 48.4184C77.7117 48.5862 77.2304 48.693 76.7261 48.7387C76.665 48.7997 76.6344 48.876 76.6344 48.9675C76.6344 49.0132 76.6459 49.0361 76.6688 49.0361C77.1349 49.0361 77.3679 49.1086 77.3679 49.2535C77.3679 49.3221 77.3335 49.5242 77.2648 49.8597L76.027 56.254C76.1493 56.2845 76.2792 56.2997 76.4167 56.2997C76.5542 56.2997 76.6726 56.2845 76.772 56.254L76.9668 55.3617C77.1196 54.5839 77.4596 53.8518 77.9868 53.1655C78.5216 52.4716 78.915 52.1246 79.1672 52.1246C79.3123 52.1246 79.3849 52.2885 79.3849 52.6164C79.3849 52.7766 79.3582 52.9825 79.3047 53.2341L78.9036 55.1215C78.8501 55.4037 78.8234 55.6058 78.8234 55.7278C78.8234 55.9032 78.8577 56.0481 78.9265 56.1625C78.9953 56.2692 79.0908 56.3226 79.213 56.3226C79.4499 56.3226 79.7249 56.1853 80.0382 55.9108C80.3514 55.6363 80.5577 55.4151 80.657 55.2474C80.657 55.2169 80.6341 55.1673 80.5883 55.0987C80.5501 55.0224 80.5233 54.9843 80.508 54.9843L80.4393 55.0643C80.3934 55.1101 80.3438 55.1635 80.2903 55.2245C80.2368 55.2779 80.1757 55.3351 80.1069 55.3961C80.0458 55.4571 79.9809 55.5104 79.9121 55.5562C79.851 55.5943 79.7975 55.6134 79.7516 55.6134C79.6752 55.6134 79.637 55.5181 79.637 55.3274C79.637 55.2283 79.6485 55.133 79.6714 55.0415L80.0496 53.2799C80.1566 52.7918 80.2101 52.3762 80.2101 52.0331Z" fill="black"/>
<path fill-rule="evenodd" clip-rule="evenodd" d="M83.9118 51.2781C84.2632 51.2781 84.5153 51.3697 84.6681 51.5527C84.8286 51.7281 84.9088 51.9225 84.9088 52.1361C84.9088 52.4716 84.7369 52.8033 84.3931 53.1312C84.0493 53.4591 83.6711 53.7146 83.2585 53.8976C82.8536 54.073 82.525 54.1607 82.2729 54.1607C82.2424 54.1607 82.2271 54.2942 82.2271 54.5611C82.2271 54.9042 82.292 55.1673 82.4219 55.3503C82.5594 55.5257 82.7428 55.6134 82.972 55.6134C83.0331 55.6134 83.0904 55.6058 83.1439 55.5906C83.205 55.5753 83.2623 55.5562 83.3158 55.5334L83.4763 55.4647C83.5297 55.4342 83.5794 55.3999 83.6252 55.3618C83.6711 55.3236 83.7131 55.2893 83.7513 55.2588C83.7971 55.2283 83.8353 55.1978 83.8659 55.1673C83.9041 55.1292 83.9309 55.0987 83.9461 55.0758L84.0378 54.9843C84.0531 54.9843 84.0798 55.0224 84.118 55.0987C84.1639 55.1673 84.1868 55.2169 84.1868 55.2474C84.0798 55.4304 83.8659 55.6554 83.545 55.9223C83.2241 56.1892 82.9071 56.3226 82.5938 56.3226C82.1965 56.3226 81.8909 56.1701 81.677 55.8651C81.4707 55.5524 81.3675 55.1254 81.3675 54.5839C81.3675 53.8519 81.6464 53.1198 82.2042 52.3877C82.7619 51.648 83.3311 51.2781 83.9118 51.2781ZM83.7971 51.7471C83.4381 51.7471 83.0981 52.0064 82.7772 52.525C82.4639 53.0359 82.3073 53.4324 82.3073 53.7146C82.3073 53.7451 82.3226 53.7604 82.3531 53.7604C82.6282 53.7604 82.9835 53.5773 83.419 53.2113C83.8621 52.8453 84.0837 52.4716 84.0837 52.0903C84.0837 51.8615 83.9882 51.7471 83.7971 51.7471Z" fill="black"/>
<path fill-rule="evenodd" clip-rule="evenodd" d="M91.8308 51.7242C91.6628 51.4268 91.4106 51.2781 91.0745 51.2781C90.9751 51.2781 90.8529 51.3086 90.7077 51.3696C90.5626 51.423 90.3563 51.5717 90.0889 51.8157C89.8215 52.0598 89.5655 52.3839 89.321 52.788L89.9972 49.4937C90.0965 49.0132 90.1462 48.7273 90.1462 48.6358C90.1462 48.5138 90.1233 48.4413 90.0774 48.4184C89.6114 48.5862 89.13 48.693 88.6334 48.7387C88.5723 48.7997 88.5417 48.876 88.5417 48.9675C88.5417 49.0132 88.5532 49.0361 88.5761 49.0361C89.0422 49.0361 89.2752 49.1086 89.2752 49.2535C89.2752 49.345 89.2408 49.5471 89.1721 49.8597L88.2208 54.6869C88.1979 54.8241 88.1865 54.9499 88.1865 55.0643C88.1865 55.4685 88.3011 55.7812 88.5303 56.0023C88.7671 56.2158 89.0307 56.3226 89.321 56.3226C89.9781 56.3226 90.6046 55.9756 91.2005 55.2817C91.7965 54.5877 92.0944 53.7527 92.0944 52.7766C92.0944 52.3724 92.0066 52.0216 91.8308 51.7242ZM90.1233 52.3419C90.3754 52.0521 90.5817 51.9072 90.7421 51.9072C90.8567 51.9072 90.9522 51.9454 91.0286 52.0216C91.105 52.0903 91.1547 52.1932 91.1776 52.3305C91.2082 52.4677 91.2273 52.5859 91.2349 52.6851C91.2426 52.7842 91.2464 52.9062 91.2464 53.0511C91.2464 53.4705 91.1738 53.8976 91.0286 54.3323C90.8911 54.7593 90.6925 55.1215 90.4327 55.4189C90.1806 55.7087 89.9093 55.8536 89.619 55.8536C89.3516 55.8536 89.1644 55.7278 89.0574 55.4761C88.9505 55.2245 88.939 54.8889 89.0231 54.4695C89.0842 54.1416 89.2217 53.7756 89.4356 53.3714C89.6496 52.9672 89.8788 52.6241 90.1233 52.3419Z" fill="black"/>
<path d="M93.9969 51.2781C94.1191 51.2781 94.2146 51.3353 94.2834 51.4497C94.3521 51.5565 94.3865 51.6976 94.3865 51.873C94.3865 52.0789 94.3636 52.2809 94.3177 52.4792L93.9166 54.3666C93.8632 54.5878 93.8364 54.7936 93.8364 54.9843C93.8364 55.3122 93.909 55.4762 94.0542 55.4762C94.1611 55.4762 94.3139 55.3885 94.5126 55.2131C94.7112 55.0301 94.9175 54.7975 95.1314 54.5153C95.353 54.2255 95.5593 53.8747 95.7503 53.4629C95.9489 53.0511 96.0865 52.6432 96.1629 52.239L96.3577 51.3468C96.457 51.3163 96.5754 51.301 96.713 51.301C96.8505 51.301 96.9804 51.3163 97.1026 51.3468L96.3921 55.0415C96.3692 55.133 96.3577 55.2283 96.3577 55.3275C96.3577 55.5181 96.3959 55.6134 96.4723 55.6134C96.5181 55.6134 96.5716 55.5944 96.6327 55.5562C96.7015 55.5105 96.7664 55.4571 96.8276 55.3961C96.8963 55.3351 96.9575 55.2779 97.0109 55.2245C97.0644 55.1635 97.1141 55.1101 97.1599 55.0644L97.2287 54.9843C97.244 54.9843 97.2707 55.0224 97.3089 55.0987C97.3547 55.1673 97.3777 55.2169 97.3777 55.2474C97.2783 55.4152 97.0721 55.6363 96.7588 55.9108C96.4456 56.1854 96.1705 56.3226 95.9337 56.3226C95.8114 56.3226 95.7159 56.2692 95.6472 56.1625C95.5784 56.0481 95.544 55.9032 95.544 55.7278C95.544 55.6058 95.5707 55.4037 95.6242 55.1216L95.8305 54.0692C95.7541 54.2141 95.5975 54.4505 95.3606 54.7784C95.1238 55.1063 94.8258 55.4457 94.4667 55.7964C94.1076 56.1472 93.8135 56.3226 93.5843 56.3226C93.2023 56.3226 93.0113 56.071 93.0113 55.5677C93.0113 55.2169 93.0648 54.8013 93.1717 54.3208L93.5155 52.7309C93.5537 52.4563 93.5728 52.3038 93.5728 52.2733C93.5728 52.0827 93.5346 51.9873 93.4582 51.9873C93.4277 51.9873 93.3857 52.0064 93.3322 52.0445C93.2787 52.075 93.2214 52.117 93.1603 52.1704L93.0113 52.3191C92.9654 52.3648 92.9234 52.4106 92.8852 52.4563L92.8279 52.525C92.8126 52.525 92.7821 52.4907 92.7362 52.422C92.698 52.3458 92.6789 52.2924 92.6789 52.2619C92.7706 52.1094 92.9616 51.9073 93.2519 51.6556C93.5499 51.404 93.7982 51.2781 93.9969 51.2781Z" fill="black"/>
<path d="M101.251 51.6785C100.999 51.3887 100.655 51.2438 100.22 51.2438C99.769 51.2438 99.3909 51.4001 99.0852 51.7128C98.7796 52.0178 98.6268 52.3305 98.6268 52.6508C98.6268 52.91 98.6994 53.1655 98.8446 53.4172C98.9974 53.6688 99.1616 53.8823 99.3374 54.0577C99.5131 54.2331 99.6735 54.4352 99.8187 54.664C99.9715 54.8851 100.048 55.0948 100.048 55.2931C100.048 55.4228 99.9944 55.5448 99.8875 55.6592C99.7881 55.7659 99.6544 55.8193 99.4864 55.8193C99.2801 55.8193 99.112 55.7621 98.9821 55.6477C98.8599 55.5333 98.7567 55.4228 98.6727 55.316C98.5886 55.2016 98.4931 55.1444 98.3862 55.1444C98.2716 55.1444 98.1761 55.1978 98.0997 55.3046C98.0309 55.4113 97.9965 55.5333 97.9965 55.6706C97.9965 55.7545 98.0156 55.8269 98.0538 55.8879C98.3059 56.1777 98.6497 56.3226 99.0852 56.3226C99.5666 56.3226 99.9601 56.193 100.266 55.9337C100.571 55.6744 100.724 55.3351 100.724 54.9156C100.724 54.6564 100.648 54.4009 100.495 54.1492C100.35 53.8976 100.189 53.6841 100.014 53.5087C99.8378 53.3333 99.6735 53.135 99.5207 52.9139C99.3756 52.6851 99.303 52.4716 99.303 52.2733C99.303 52.136 99.3488 52.014 99.4405 51.9073C99.5322 51.8005 99.6583 51.7471 99.8187 51.7471C100.025 51.7471 100.189 51.8043 100.312 51.9187C100.441 52.0331 100.548 52.1475 100.632 52.2619C100.716 52.3686 100.812 52.422 100.919 52.422C101.034 52.422 101.125 52.3724 101.194 52.2733C101.27 52.1742 101.309 52.056 101.309 51.9187C101.309 51.8501 101.289 51.77 101.251 51.6785Z" fill="black"/>
<path d="M103.28 51.2782C103.402 51.2782 103.498 51.3354 103.566 51.4498C103.635 51.5565 103.669 51.6976 103.669 51.873C103.669 52.0331 103.646 52.2352 103.601 52.4792L103.096 55.0415C103.073 55.133 103.062 55.2283 103.062 55.3275C103.062 55.5181 103.1 55.6135 103.177 55.6135C103.222 55.6135 103.276 55.5944 103.337 55.5563C103.406 55.5105 103.471 55.4571 103.532 55.3961C103.601 55.3351 103.662 55.2779 103.715 55.2245C103.769 55.1635 103.818 55.1101 103.864 55.0644L103.933 54.9843C103.948 54.9843 103.975 55.0224 104.013 55.0987C104.059 55.1673 104.082 55.2169 104.082 55.2474C103.983 55.4152 103.776 55.6363 103.463 55.9109C103.15 56.1854 102.875 56.3227 102.638 56.3227C102.516 56.3227 102.42 56.2693 102.351 56.1625C102.283 56.0481 102.248 55.9032 102.248 55.7278C102.248 55.6058 102.275 55.4037 102.328 55.1216L102.798 52.7309C102.837 52.4945 102.856 52.342 102.856 52.2733C102.856 52.0827 102.817 51.9874 102.741 51.9874C102.71 51.9874 102.668 52.0064 102.615 52.0446C102.562 52.0751 102.504 52.117 102.443 52.1704L102.294 52.3191C102.248 52.3649 102.206 52.4106 102.168 52.4564L102.111 52.525C102.095 52.525 102.065 52.4907 102.019 52.422C101.981 52.3458 101.962 52.2924 101.962 52.2619C102.053 52.1094 102.244 51.9073 102.535 51.6556C102.833 51.404 103.081 51.2782 103.28 51.2782Z" fill="black"/>
<path d="M103.612 48.8646C103.727 48.8646 103.822 48.9104 103.899 49.0019C103.983 49.0934 104.025 49.2001 104.025 49.3221C104.025 49.5052 103.964 49.6653 103.841 49.8026C103.727 49.9398 103.582 50.0085 103.406 50.0085C103.284 50.0085 103.188 49.9627 103.119 49.8712C103.051 49.7721 103.016 49.6539 103.016 49.5166C103.016 49.3412 103.073 49.1887 103.188 49.0591C103.303 48.9294 103.444 48.8646 103.612 48.8646Z" fill="black"/>
<path d="M106.615 51.4497C106.546 51.3353 106.45 51.2781 106.328 51.2781C106.13 51.2781 105.881 51.404 105.583 51.6556C105.293 51.9073 105.102 52.1094 105.01 52.2619C105.01 52.2924 105.029 52.3458 105.068 52.422C105.113 52.4907 105.144 52.525 105.159 52.525L105.216 52.4563C105.255 52.4106 105.297 52.3648 105.343 52.3191L105.492 52.1704C105.553 52.117 105.61 52.075 105.663 52.0445C105.717 52.0064 105.759 51.9873 105.789 51.9873C105.866 51.9873 105.904 52.0827 105.904 52.2733C105.904 52.3038 105.885 52.4563 105.847 52.7309L105.171 56.254C105.293 56.2845 105.423 56.2997 105.56 56.2997C105.698 56.2997 105.816 56.2845 105.916 56.254L106.11 55.3618C106.263 54.5839 106.603 53.8519 107.13 53.1655C107.665 52.4716 108.059 52.1246 108.311 52.1246C108.456 52.1246 108.529 52.2886 108.529 52.6165C108.529 52.7766 108.502 52.9825 108.448 53.2342L108.047 55.1216C107.994 55.4037 107.967 55.6058 107.967 55.7278C107.967 55.9032 108.001 56.0481 108.07 56.1625C108.139 56.2692 108.234 56.3226 108.357 56.3226C108.593 56.3226 108.869 56.1854 109.182 55.9108C109.495 55.6363 109.701 55.4152 109.801 55.2474C109.801 55.2169 109.778 55.1673 109.732 55.0987C109.694 55.0224 109.667 54.9843 109.652 54.9843L109.583 55.0644C109.537 55.1101 109.487 55.1635 109.434 55.2245C109.381 55.2779 109.319 55.3351 109.251 55.3961C109.189 55.4571 109.125 55.5105 109.056 55.5562C108.995 55.5944 108.941 55.6134 108.895 55.6134C108.819 55.6134 108.781 55.5181 108.781 55.3275C108.781 55.2283 108.792 55.133 108.815 55.0415L109.193 53.2799C109.3 52.7919 109.354 52.3763 109.354 52.0331C109.354 51.5298 109.163 51.2781 108.781 51.2781C108.552 51.2781 108.25 51.4535 107.875 51.8043C107.509 52.1475 107.195 52.4868 106.936 52.8224C106.684 53.1579 106.519 53.3943 106.443 53.5316L106.649 52.4792C106.695 52.2428 106.718 52.0407 106.718 51.873C106.718 51.6976 106.683 51.5565 106.615 51.4497Z" fill="black"/>
<path fill-rule="evenodd" clip-rule="evenodd" d="M113.021 51.2781C113.373 51.2781 113.625 51.3697 113.777 51.5527C113.938 51.7281 114.018 51.9225 114.018 52.1361C114.018 52.4716 113.846 52.8033 113.502 53.1312C113.159 53.4591 112.78 53.7146 112.368 53.8976C111.963 54.073 111.634 54.1607 111.382 54.1607C111.352 54.1607 111.336 54.2942 111.336 54.5611C111.336 54.9042 111.401 55.1673 111.531 55.3503C111.669 55.5257 111.852 55.6134 112.081 55.6134C112.142 55.6134 112.2 55.6058 112.253 55.5906C112.314 55.5753 112.372 55.5562 112.425 55.5334L112.586 55.4647C112.639 55.4342 112.689 55.3999 112.735 55.3618L112.786 55.319C112.812 55.2975 112.837 55.2775 112.861 55.2588C112.906 55.2283 112.945 55.1978 112.975 55.1673C113.013 55.1292 113.04 55.0987 113.055 55.0758L113.147 54.9843C113.162 54.9843 113.189 55.0224 113.227 55.0987C113.273 55.1673 113.296 55.2169 113.296 55.2474C113.189 55.4304 112.975 55.6554 112.654 55.9223C112.333 56.1892 112.016 56.3226 111.703 56.3226C111.306 56.3226 111 56.1701 110.786 55.8651C110.58 55.5524 110.477 55.1254 110.477 54.5839C110.477 53.8519 110.756 53.1198 111.313 52.3877C111.871 51.648 112.44 51.2781 113.021 51.2781ZM112.906 51.7471C112.547 51.7471 112.207 52.0064 111.886 52.525C111.573 53.0359 111.417 53.4324 111.417 53.7146C111.417 53.7451 111.432 53.7604 111.462 53.7604C111.737 53.7604 112.093 53.5773 112.528 53.2113C112.971 52.8453 113.193 52.4716 113.193 52.0903C113.193 51.8615 113.097 51.7471 112.906 51.7471Z" fill="black"/>
<path d="M117.823 51.6785C117.571 51.3887 117.227 51.2438 116.792 51.2438C116.341 51.2438 115.963 51.4001 115.657 51.7128C115.351 52.0178 115.199 52.3305 115.199 52.6508C115.199 52.91 115.271 53.1655 115.416 53.4172C115.569 53.6688 115.733 53.8823 115.909 54.0577C116.085 54.2331 116.245 54.4352 116.39 54.664C116.543 54.8851 116.62 55.0948 116.62 55.2931C116.62 55.4228 116.566 55.5448 116.459 55.6592C116.36 55.7659 116.226 55.8193 116.058 55.8193C115.852 55.8193 115.684 55.7621 115.554 55.6477C115.432 55.5333 115.328 55.4228 115.244 55.316C115.16 55.2016 115.065 55.1444 114.958 55.1444C114.843 55.1444 114.748 55.1978 114.671 55.3046C114.603 55.4113 114.568 55.5333 114.568 55.6706C114.568 55.7545 114.587 55.8269 114.625 55.8879C114.878 56.1777 115.221 56.3226 115.657 56.3226C116.138 56.3226 116.532 56.193 116.837 55.9337C117.143 55.6744 117.296 55.3351 117.296 54.9156C117.296 54.6564 117.219 54.4009 117.067 54.1492C116.921 53.8976 116.761 53.6841 116.585 53.5087C116.409 53.3333 116.245 53.135 116.092 52.9139C115.947 52.6851 115.875 52.4716 115.875 52.2733C115.875 52.136 115.921 52.014 116.012 51.9073C116.104 51.8005 116.23 51.7471 116.39 51.7471C116.597 51.7471 116.761 51.8043 116.883 51.9187C117.013 52.0331 117.12 52.1475 117.204 52.2619C117.288 52.3686 117.384 52.422 117.491 52.422C117.605 52.422 117.697 52.3724 117.766 52.2733C117.842 52.1742 117.88 52.056 117.88 51.9187C117.88 51.8501 117.861 51.77 117.823 51.6785Z" fill="black"/>
<path d="M120.459 51.2438C120.894 51.2438 121.238 51.3887 121.49 51.6785C121.528 51.77 121.548 51.8501 121.548 51.9187C121.548 52.056 121.509 52.1742 121.433 52.2733C121.364 52.3724 121.272 52.422 121.158 52.422C121.051 52.422 120.955 52.3686 120.871 52.2619C120.787 52.1475 120.68 52.0331 120.55 51.9187C120.428 51.8043 120.264 51.7471 120.058 51.7471C119.897 51.7471 119.771 51.8005 119.68 51.9073C119.588 52.014 119.542 52.136 119.542 52.2733C119.542 52.4716 119.615 52.6851 119.76 52.9139C119.913 53.135 120.077 53.3333 120.253 53.5087C120.428 53.6841 120.589 53.8976 120.734 54.1492C120.887 54.4009 120.963 54.6564 120.963 54.9156C120.963 55.3351 120.81 55.6744 120.505 55.9337C120.199 56.193 119.806 56.3226 119.324 56.3226C118.889 56.3226 118.545 56.1777 118.293 55.8879C118.255 55.8269 118.236 55.7545 118.236 55.6706C118.236 55.5333 118.27 55.4113 118.339 55.3046C118.415 55.1978 118.511 55.1444 118.625 55.1444C118.732 55.1444 118.828 55.2016 118.912 55.316C118.996 55.4228 119.099 55.5333 119.221 55.6477C119.351 55.7621 119.519 55.8193 119.725 55.8193C119.893 55.8193 120.027 55.7659 120.126 55.6592C120.233 55.5448 120.287 55.4228 120.287 55.2931C120.287 55.0948 120.211 54.8851 120.058 54.664C119.913 54.4352 119.752 54.2331 119.576 54.0577C119.401 53.8823 119.236 53.6688 119.084 53.4172C118.938 53.1655 118.866 52.91 118.866 52.6508C118.866 52.3305 119.019 52.0178 119.324 51.7128C119.63 51.4001 120.008 51.2438 120.459 51.2438Z" fill="black"/>
<path fill-rule="evenodd" clip-rule="evenodd" d="M128.091 51.7471C127.847 51.4345 127.499 51.2781 127.049 51.2781C126.468 51.2781 125.902 51.6327 125.352 52.3419C124.802 53.0511 124.527 53.8023 124.527 54.5954C124.527 55.1444 124.646 55.5677 124.883 55.8651C125.127 56.1625 125.478 56.3112 125.937 56.3112C126.518 56.3112 127.083 55.9642 127.633 55.2703C128.191 54.5687 128.47 53.8252 128.47 53.0397C128.47 52.4907 128.344 52.0598 128.091 51.7471ZM125.868 52.6508C126.181 52.0484 126.529 51.7471 126.911 51.7471C127.125 51.7471 127.293 51.8653 127.415 52.1017C127.538 52.3381 127.599 52.6813 127.599 53.1312C127.599 53.7413 127.45 54.3475 127.152 54.95C126.861 55.5448 126.525 55.8422 126.143 55.8422C125.929 55.8422 125.75 55.7202 125.605 55.4762C125.467 55.2321 125.398 54.889 125.398 54.4467C125.398 53.8442 125.555 53.2456 125.868 52.6508Z" fill="black"/>
<path d="M133.1 48.2583C133.589 48.2583 133.902 48.3879 134.039 48.6472C134.039 49.1429 133.902 49.3907 133.627 49.3907C133.52 49.3907 133.417 49.3335 133.317 49.2191C133.226 49.1047 133.126 48.9903 133.019 48.876C132.92 48.7539 132.809 48.6929 132.687 48.6929C132.443 48.6929 132.183 48.9446 131.908 49.4479C131.633 49.9436 131.419 50.6375 131.266 51.5297V51.5526C131.266 51.5831 131.277 51.5984 131.3 51.5984H132.618C132.656 51.5984 132.676 51.6441 132.676 51.7356C132.676 51.8576 132.634 51.9873 132.55 52.1246H131.209C131.17 52.1246 131.148 52.1551 131.14 52.2161L130.51 55.6362C130.326 56.6962 130.002 57.5046 129.535 58.0613C129.077 58.6179 128.577 58.8963 128.034 58.8963C127.767 58.8963 127.557 58.8467 127.404 58.7476C127.251 58.6561 127.152 58.5493 127.106 58.4273C127.098 58.2519 127.14 58.0956 127.232 57.9583C127.324 57.821 127.438 57.7524 127.576 57.7524C127.645 57.7524 127.709 57.7867 127.771 57.8554C127.832 57.9316 127.885 58.0117 127.931 58.0956C127.977 58.1871 128.046 58.2672 128.137 58.3358C128.221 58.412 128.317 58.4502 128.424 58.4502C128.569 58.4502 128.714 58.3587 128.859 58.1756C129.004 58.0003 129.127 57.7753 129.226 57.5008C129.333 57.2339 129.421 56.9784 129.49 56.7344C129.566 56.4903 129.62 56.273 129.65 56.0824L130.338 52.2046V52.1817C130.338 52.1436 130.326 52.1246 130.303 52.1246H129.558C129.543 52.1246 129.535 52.1131 129.535 52.0902C129.535 52.0216 129.597 51.9225 129.719 51.7928C129.841 51.6632 129.963 51.5984 130.086 51.5984H130.418C130.449 51.5984 130.471 51.5641 130.487 51.4954C130.639 50.5575 130.968 49.7834 131.472 49.1734C131.977 48.5633 132.519 48.2583 133.1 48.2583Z" fill="black"/>
<path d="M138.589 51.6785C138.337 51.3887 137.993 51.2438 137.558 51.2438C137.107 51.2438 136.729 51.4001 136.423 51.7128C136.117 52.0178 135.965 52.3305 135.965 52.6508C135.965 52.91 136.037 53.1655 136.182 53.4172C136.335 53.6688 136.499 53.8823 136.675 54.0577C136.851 54.2331 137.011 54.4352 137.157 54.664C137.309 54.8851 137.386 55.0948 137.386 55.2931C137.386 55.4228 137.332 55.5448 137.225 55.6592C137.126 55.7659 136.992 55.8193 136.824 55.8193C136.618 55.8193 136.45 55.7621 136.32 55.6477C136.198 55.5333 136.095 55.4228 136.011 55.316C135.926 55.2016 135.831 55.1444 135.724 55.1444C135.609 55.1444 135.514 55.1978 135.438 55.3046C135.369 55.4113 135.334 55.5333 135.334 55.6706C135.334 55.7545 135.353 55.8269 135.392 55.8879C135.644 56.1777 135.988 56.3226 136.423 56.3226C136.904 56.3226 137.298 56.193 137.603 55.9337C137.909 55.6744 138.062 55.3351 138.062 54.9156C138.062 54.6564 137.985 54.4009 137.833 54.1492C137.688 53.8976 137.527 53.6841 137.351 53.5087C137.176 53.3333 137.011 53.135 136.859 52.9139C136.713 52.6851 136.641 52.4716 136.641 52.2733C136.641 52.136 136.687 52.014 136.778 51.9073C136.87 51.8005 136.996 51.7471 137.157 51.7471C137.363 51.7471 137.527 51.8043 137.649 51.9187C137.779 52.0331 137.886 52.1475 137.97 52.2619C138.054 52.3686 138.15 52.422 138.257 52.422C138.371 52.422 138.463 52.3724 138.532 52.2733C138.608 52.1742 138.646 52.056 138.646 51.9187C138.646 51.8501 138.627 51.77 138.589 51.6785Z" fill="black"/>
<path d="M140.492 50.0542C140.514 49.9779 140.702 49.9398 141.053 49.9398C141.145 49.9398 141.214 49.9436 141.259 49.9512L140.973 51.4497H142.016C142.054 51.4497 142.073 51.4993 142.073 51.5984C142.073 51.6899 142.039 51.8005 141.97 51.9301H140.881L140.274 55.0415C140.251 55.133 140.239 55.2283 140.239 55.3274C140.239 55.5181 140.278 55.6134 140.354 55.6134C140.4 55.6134 140.453 55.5943 140.514 55.5562C140.583 55.5104 140.648 55.4571 140.709 55.3961C140.778 55.335 140.839 55.2779 140.893 55.2245C140.946 55.1635 140.996 55.1101 141.042 55.0643L141.11 54.9843C141.126 54.9843 141.152 55.0224 141.191 55.0986C141.236 55.1673 141.259 55.2168 141.259 55.2474C141.16 55.4151 140.954 55.6363 140.64 55.9108C140.327 56.1853 140.052 56.3226 139.815 56.3226C139.693 56.3226 139.598 56.2692 139.529 56.1624C139.46 56.0481 139.426 55.9032 139.426 55.7278C139.426 55.6058 139.452 55.4037 139.506 55.1215L140.125 51.9301H139.311C139.288 51.9301 139.277 51.8882 139.277 51.8043C139.277 51.7052 139.322 51.587 139.414 51.4497H140.216L140.492 50.0542Z" fill="black"/>
<path fill-rule="evenodd" clip-rule="evenodd" d="M146.107 51.4269C145.84 51.3277 145.561 51.2781 145.271 51.2781C144.759 51.2781 144.247 51.4535 143.735 51.8043C143.223 52.1475 142.803 52.5936 142.474 53.1427C142.153 53.6841 141.993 54.2255 141.993 54.767C141.993 55.194 142.088 55.56 142.279 55.8651C142.478 56.1625 142.745 56.3112 143.081 56.3112C143.234 56.3112 143.395 56.2578 143.563 56.151C143.739 56.0367 143.903 55.8918 144.056 55.7164C144.208 55.541 144.334 55.3847 144.434 55.2474C144.533 55.1025 144.621 54.9614 144.697 54.8242C144.697 54.8394 144.69 54.8737 144.674 54.9271C144.667 54.9729 144.655 55.0377 144.64 55.1216C144.587 55.3961 144.56 55.5982 144.56 55.7278C144.56 55.9032 144.594 56.0481 144.663 56.1625C144.732 56.2692 144.827 56.3226 144.95 56.3226C145.186 56.3226 145.461 56.1854 145.775 55.9108C146.088 55.6363 146.294 55.4152 146.394 55.2474C146.394 55.2169 146.371 55.1673 146.325 55.0987C146.287 55.0224 146.26 54.9843 146.245 54.9843L146.176 55.0644C146.13 55.1101 146.08 55.1635 146.027 55.2245C145.973 55.2779 145.912 55.3351 145.843 55.3961C145.782 55.4571 145.717 55.5105 145.649 55.5562C145.588 55.5944 145.534 55.6134 145.488 55.6134C145.412 55.6134 145.374 55.5181 145.374 55.3275C145.374 55.2283 145.385 55.133 145.408 55.0415L146.107 51.4269ZM143.471 52.6851C143.899 52.0979 144.338 51.8043 144.789 51.8043C145.011 51.8043 145.167 51.8539 145.259 51.953L145.03 53.1198C144.915 53.6917 144.686 54.256 144.342 54.8127C144.006 55.3694 143.7 55.6477 143.425 55.6477C143.036 55.6477 142.841 55.2741 142.841 54.5267C142.841 53.8786 143.051 53.2647 143.471 52.6851Z" fill="black"/>
<path fill-rule="evenodd" clip-rule="evenodd" d="M150.68 51.2781C150.909 51.2781 151.108 51.3544 151.276 51.5069C151.451 51.6518 151.539 51.8348 151.539 52.0559C151.539 52.5516 151.318 52.9596 150.875 53.2799C150.439 53.6002 149.878 53.8175 149.19 53.9319C149.648 54.6182 149.996 55.072 150.233 55.2931C150.477 55.5143 150.684 55.6248 150.852 55.6248C150.989 55.6248 151.119 55.5676 151.241 55.4533C151.371 55.3389 151.467 55.2283 151.528 55.1215C151.551 55.1215 151.585 55.152 151.631 55.213C151.684 55.274 151.711 55.3198 151.711 55.3503C151.673 55.4799 151.532 55.6706 151.287 55.9222C151.043 56.1739 150.81 56.2997 150.588 56.2997C150.489 56.2997 150.389 56.2845 150.29 56.254C150.198 56.2235 150.103 56.1739 150.004 56.1053C149.912 56.0366 149.824 55.9718 149.74 55.9108C149.664 55.8498 149.576 55.7583 149.476 55.6363C149.385 55.5143 149.308 55.4189 149.247 55.3503C149.186 55.274 149.106 55.1597 149.007 55.0071C148.915 54.8546 148.85 54.7479 148.812 54.6869C148.774 54.6259 148.709 54.5153 148.617 54.3551C148.525 54.195 148.468 54.0997 148.445 54.0692L148.021 56.254C147.883 56.2921 147.757 56.3112 147.643 56.3112C147.543 56.3112 147.417 56.2921 147.265 56.254L148.514 49.8597C148.583 49.5471 148.617 49.345 148.617 49.2535C148.617 49.1086 148.384 49.0361 147.918 49.0361C147.895 49.0361 147.883 49.0132 147.883 48.9675C147.883 48.876 147.914 48.7997 147.975 48.7387C148.472 48.693 148.953 48.5862 149.419 48.4184C149.465 48.4413 149.488 48.5138 149.488 48.6358C149.488 48.7273 149.438 49.0132 149.339 49.4937L148.743 52.5707L148.869 52.422C148.953 52.3229 149.052 52.2161 149.167 52.1017C149.289 51.9797 149.427 51.8539 149.58 51.7242C149.74 51.5946 149.916 51.4878 150.107 51.4039C150.305 51.3201 150.496 51.2781 150.68 51.2781ZM150.267 51.8157C150.023 51.8157 149.687 52.0712 149.259 52.5821C148.838 53.0931 148.628 53.4324 148.628 53.6002C148.628 53.6154 148.636 53.6231 148.651 53.6231C148.682 53.6231 148.72 53.6192 148.766 53.6116C148.819 53.604 148.915 53.5887 149.052 53.5659C149.198 53.5354 149.335 53.501 149.465 53.4629C149.602 53.4248 149.748 53.3714 149.9 53.3028C150.061 53.2265 150.198 53.1464 150.313 53.0626C150.428 52.971 150.523 52.8605 150.6 52.7308C150.684 52.6012 150.726 52.4601 150.726 52.3076C150.726 51.9797 150.573 51.8157 150.267 51.8157Z" fill="black"/>
<path d="M154.519 51.4498C154.45 51.3354 154.355 51.2782 154.232 51.2782C154.034 51.2782 153.785 51.404 153.488 51.6556C153.197 51.9073 153.006 52.1094 152.915 52.2619C152.915 52.2924 152.934 52.3458 152.972 52.422C153.018 52.4907 153.048 52.525 153.063 52.525L153.121 52.4564C153.159 52.4106 153.201 52.3649 153.247 52.3191L153.396 52.1704C153.457 52.117 153.514 52.0751 153.568 52.0446C153.621 52.0064 153.663 51.9874 153.694 51.9874C153.77 51.9874 153.808 52.0827 153.808 52.2733C153.808 52.342 153.789 52.4945 153.751 52.7309L153.281 55.1216C153.228 55.4037 153.201 55.6058 153.201 55.7278C153.201 55.9032 153.235 56.0481 153.304 56.1625C153.373 56.2693 153.468 56.3227 153.591 56.3227C153.828 56.3227 154.103 56.1854 154.416 55.9109C154.729 55.6363 154.935 55.4152 155.035 55.2474C155.035 55.2169 155.012 55.1673 154.966 55.0987C154.928 55.0224 154.901 54.9843 154.886 54.9843L154.817 55.0644C154.771 55.1101 154.721 55.1635 154.668 55.2245C154.615 55.2779 154.553 55.3351 154.485 55.3961C154.424 55.4571 154.359 55.5105 154.29 55.5563C154.229 55.5944 154.175 55.6135 154.129 55.6135C154.053 55.6135 154.015 55.5181 154.015 55.3275C154.015 55.2283 154.026 55.133 154.049 55.0415L154.553 52.4792C154.599 52.2352 154.622 52.0331 154.622 51.873C154.622 51.6976 154.588 51.5565 154.519 51.4498Z" fill="black"/>
<path d="M154.851 49.0019C154.775 48.9104 154.679 48.8646 154.565 48.8646C154.397 48.8646 154.255 48.9294 154.141 49.0591C154.026 49.1887 153.969 49.3412 153.969 49.5166C153.969 49.6539 154.003 49.7721 154.072 49.8712C154.141 49.9627 154.236 50.0085 154.359 50.0085C154.534 50.0085 154.679 49.9398 154.794 49.8026C154.916 49.6653 154.977 49.5052 154.977 49.3221C154.977 49.2001 154.935 49.0934 154.851 49.0019Z" fill="black"/>
<path d="M157.281 51.2781C157.403 51.2781 157.499 51.3353 157.567 51.4497C157.636 51.5565 157.671 51.6976 157.671 51.873C157.671 52.0407 157.648 52.2428 157.602 52.4792L157.396 53.5316C157.472 53.3943 157.636 53.1579 157.888 52.8224C158.148 52.4868 158.461 52.1475 158.828 51.8043C159.202 51.4535 159.504 51.2781 159.734 51.2781C160.116 51.2781 160.307 51.5298 160.307 52.0331C160.307 52.3763 160.253 52.7919 160.146 53.2799L159.768 55.0415C159.745 55.133 159.733 55.2283 159.733 55.3275C159.733 55.5181 159.772 55.6134 159.848 55.6134C159.894 55.6134 159.947 55.5944 160.009 55.5562C160.077 55.5105 160.142 55.4571 160.203 55.3961C160.272 55.3351 160.333 55.2779 160.387 55.2245C160.44 55.1635 160.49 55.1101 160.536 55.0644L160.604 54.9843C160.62 54.9843 160.646 55.0224 160.685 55.0987C160.73 55.1673 160.753 55.2169 160.753 55.2474C160.654 55.4152 160.448 55.6363 160.135 55.9108C159.821 56.1854 159.546 56.3226 159.309 56.3226C159.187 56.3226 159.092 56.2692 159.023 56.1625C158.954 56.0481 158.92 55.9032 158.92 55.7278C158.92 55.6058 158.946 55.4037 159 55.1216L159.401 53.2342C159.455 52.9825 159.481 52.7766 159.481 52.6165C159.481 52.2886 159.409 52.1246 159.264 52.1246C159.011 52.1246 158.618 52.4716 158.083 53.1655C157.556 53.8519 157.216 54.5839 157.063 55.3618L156.868 56.254C156.769 56.2845 156.651 56.2997 156.513 56.2997C156.376 56.2997 156.246 56.2845 156.123 56.254L156.8 52.7309C156.838 52.4563 156.857 52.3038 156.857 52.2733C156.857 52.0827 156.819 51.9873 156.742 51.9873C156.712 51.9873 156.67 52.0064 156.616 52.0445C156.563 52.075 156.505 52.117 156.444 52.1704L156.295 52.3191C156.249 52.3648 156.207 52.4106 156.169 52.4563L156.112 52.525C156.097 52.525 156.066 52.4907 156.02 52.422C155.982 52.3458 155.963 52.2924 155.963 52.2619C156.055 52.1094 156.246 51.9073 156.536 51.6556C156.834 51.404 157.082 51.2781 157.281 51.2781Z" fill="black"/>
<path fill-rule="evenodd" clip-rule="evenodd" d="M164.742 51.4269C164.467 51.3201 164.214 51.2667 163.985 51.2667C163.435 51.2667 162.935 51.4993 162.484 51.9645C162.041 52.4221 161.819 52.9711 161.819 53.6117C161.819 53.8862 161.903 54.1264 162.071 54.3323C162.247 54.5306 162.427 54.6679 162.61 54.7441C162.801 54.8204 162.969 54.8585 163.114 54.8585C162.893 54.9119 162.644 55.0225 162.369 55.1902C162.102 55.358 161.968 55.5067 161.968 55.6363C161.968 55.7812 162.064 55.9185 162.255 56.0481L162.461 56.1854C162.255 56.2769 162.071 56.3684 161.911 56.4599C161.75 56.5514 161.575 56.6658 161.384 56.8031C161.2 56.9404 161.059 57.0929 160.96 57.2606C160.86 57.436 160.811 57.6152 160.811 57.7983C160.811 58.1491 160.975 58.4236 161.303 58.6219C161.64 58.8201 162.071 58.9193 162.599 58.9193C163.416 58.9193 164.065 58.7591 164.547 58.4388C165.036 58.1185 165.28 57.6877 165.28 57.1463C165.28 56.9022 165.204 56.6849 165.051 56.4942C164.906 56.3036 164.726 56.1549 164.512 56.0481C164.298 55.9414 164.081 55.8537 163.859 55.785C163.645 55.7088 163.462 55.6402 163.309 55.5791C163.164 55.5105 163.091 55.4419 163.091 55.3732C163.091 55.297 163.156 55.2169 163.286 55.133C163.416 55.0415 163.596 54.9424 163.825 54.8356C164.062 54.7212 164.218 54.6412 164.295 54.5954C164.386 54.542 164.474 54.4772 164.558 54.401C164.65 54.3247 164.761 54.2103 164.891 54.0578C165.028 53.9053 165.135 53.7108 165.211 53.4744C165.296 53.2304 165.338 52.9673 165.338 52.6851C165.338 52.5631 165.315 52.3649 165.269 52.0903C165.269 52.0446 165.292 52.0217 165.338 52.0217H165.979C166.01 51.9912 166.037 51.9378 166.06 51.8616C166.09 51.7853 166.105 51.7205 166.105 51.6671C166.105 51.6061 166.082 51.5756 166.037 51.5756H165.544C165.284 51.5756 165.017 51.526 164.742 51.4269ZM164.398 57.1348C164.497 57.2797 164.547 57.436 164.547 57.6038C164.547 57.8402 164.409 58.0347 164.134 58.1872C163.859 58.3473 163.534 58.4274 163.16 58.4274C162.159 58.4274 161.659 58.1224 161.659 57.5123C161.659 57.3903 161.689 57.2721 161.75 57.1577C161.819 57.0433 161.888 56.9518 161.957 56.8832C162.033 56.8145 162.148 56.7383 162.301 56.6544C162.453 56.5705 162.56 56.5133 162.621 56.4828C162.69 56.4523 162.797 56.4066 162.942 56.3455C163.156 56.4142 163.336 56.4752 163.481 56.5286C163.634 56.5896 163.802 56.6696 163.985 56.7688C164.169 56.8755 164.306 56.9976 164.398 57.1348ZM162.988 52.2505C163.202 51.8844 163.473 51.7014 163.802 51.7014C164.016 51.7014 164.184 51.8234 164.306 52.0675C164.428 52.3115 164.49 52.586 164.49 52.891C164.49 53.2723 164.383 53.6307 164.169 53.9663C163.962 54.3018 163.699 54.4696 163.378 54.4696C163.156 54.4696 162.984 54.3705 162.862 54.1722C162.74 53.9739 162.679 53.7261 162.679 53.4287C162.679 53.0016 162.782 52.6089 162.988 52.2505Z" fill="black"/>
</svg>
