<svg width="200" height="84" viewBox="0 0 200 84" fill="none" xmlns="http://www.w3.org/2000/svg">
<path fill-rule="evenodd" clip-rule="evenodd" d="M30.5261 29.0134L26.2736 31.45L17 24V39.0526L17.006 39.0491V52.2534L30.5261 60L44.0461 52.2534V24.1542L34.8871 31.5122L30.5261 29.0134ZM19.3699 50.8989V40.3281L30.5151 47.0106L41.6823 40.493V50.8989L30.5261 57.2911L19.3699 50.8989ZM30.5314 44.2795L19.8196 37.8569L30.5261 31.7223L41.3857 37.9446L30.5314 44.2795ZM41.6823 35.1108L37.3233 32.5732L41.6823 29.0715V35.1108ZM23.7228 32.419L19.3639 34.9566V28.9173L23.7228 32.419Z" fill="black"/>
<path fill-rule="evenodd" clip-rule="evenodd" d="M61.7016 43.3335C61.7016 45.1265 60.1579 45.7166 58.5799 45.7166H55.1266V37.1602H58.3284C59.8606 37.1602 60.8897 37.7502 60.8897 39.3844C60.8897 40.156 60.6382 40.7802 59.9406 41.132V41.1547C61.1756 41.3135 61.7016 42.1419 61.7016 43.3335ZM57.5965 42.176H57.3678V44.0144H57.6537L57.7209 44.0145C58.3898 44.0156 59.4375 44.0173 59.4375 43.1066C59.4375 42.1568 58.4994 42.1669 57.7794 42.1747C57.7165 42.1753 57.6553 42.176 57.5965 42.176ZM57.5279 38.8624H57.3678V40.5192H57.6194C58.214 40.5192 58.8315 40.4171 58.8315 39.6908C58.8315 38.9077 58.1339 38.8624 57.5279 38.8624Z" fill="black"/>
<path d="M68.5409 37.1602H66.2997V45.7166H71.2281V43.8328H68.5409V37.1602Z" fill="black"/>
<path fill-rule="evenodd" clip-rule="evenodd" d="M74.9552 41.2796C74.9552 38.6922 77.2419 36.8766 79.7232 36.8766C82.2046 36.8766 84.4915 38.6922 84.4915 41.2796C84.4915 44.0485 82.4907 46.0004 79.7232 46.0004C76.9564 46.0004 74.9552 44.0485 74.9552 41.2796ZM82.159 41.2909C82.159 40.1108 81.0614 39.0327 79.7232 39.0327C78.3857 39.0327 77.288 40.1108 77.288 41.2909C77.288 42.7662 78.3857 43.8442 79.7232 43.8442C81.0614 43.8442 82.159 42.7662 82.159 41.2909Z" fill="black"/>
<path d="M95.1256 37.364C94.4623 37.0917 93.7991 36.9328 93.0786 36.9328C91.8666 36.9328 90.6428 37.4548 89.7968 38.3173C88.9736 39.157 88.5276 40.2805 88.5276 41.4493C88.5276 42.7203 88.962 43.8324 89.9113 44.6835C90.8028 45.4893 91.9466 45.9432 93.1469 45.9432C93.8258 45.9432 94.3532 45.782 95.0659 45.5642L95.1256 45.546V42.8792C94.6568 43.4353 93.9246 43.787 93.1931 43.787C91.7977 43.787 90.86 42.8111 90.86 41.4607C90.86 40.133 91.7866 39.0889 93.1586 39.0889C93.9246 39.0889 94.6678 39.4181 95.1256 40.0308V37.364Z" fill="black"/>
<path d="M102.18 40.6894H102.203L104.913 37.1602H107.692L104.261 41.2114L108 45.7166H105.096L102.203 42.0058H102.18V45.7166H99.9388V37.1602H102.18V40.6894Z" fill="black"/>
<path fill-rule="evenodd" clip-rule="evenodd" d="M112.038 45.7166H115.217C117.606 45.7166 119.596 43.8442 119.596 41.4384C119.596 39.0326 117.618 37.1602 115.217 37.1602H112.038V45.7166ZM114.279 39.044H114.805C116.246 39.044 117.264 39.9064 117.264 41.4384C117.264 43.1066 116.12 43.8328 114.782 43.8328H114.279V39.044Z" fill="black"/>
<path fill-rule="evenodd" clip-rule="evenodd" d="M129.909 45.7166L129.349 44.23H126.262L125.667 45.7166H123.289L126.605 37.1602H129.052L132.299 45.7166H129.909ZM126.879 42.5278H128.743L127.828 39.8043H127.805L126.879 42.5278Z" fill="black"/>
<path d="M141.334 39.044V37.1602H136.429V45.7166H141.334V43.8328H138.67V42.3576H141.197V40.4738H138.67V39.044H141.334Z" fill="black"/>
<path d="M147.862 45.7166H145.632L147.096 37.1602H149.303L151.052 41.7334L152.905 37.1602H155.134L156.438 45.7166H154.197L153.568 40.7915H153.545L151.475 45.7166H150.583L148.605 40.7915H148.582L147.862 45.7166Z" fill="black"/>
<path fill-rule="evenodd" clip-rule="evenodd" d="M165.151 36.8766C162.67 36.8766 160.383 38.6922 160.383 41.2796C160.383 44.0485 162.384 46.0004 165.151 46.0004C167.918 46.0004 169.92 44.0485 169.92 41.2796C169.92 38.6922 167.633 36.8766 165.151 36.8766ZM165.151 39.0327C166.489 39.0327 167.587 40.1108 167.587 41.2909C167.587 42.7662 166.489 43.8442 165.151 43.8442C163.813 43.8442 162.716 42.7662 162.716 41.2909C162.716 40.1108 163.813 39.0327 165.151 39.0327Z" fill="black"/>
<path d="M176.631 45.7166H174.39V37.1602H176.631L180.736 42.3916H180.759V37.1602H183V45.7166H180.759L176.654 40.4738H176.631V45.7166Z" fill="black"/>
</svg>
