
<svg width="200" height="84" viewBox="0 0 200 84" fill="none" xmlns="http://www.w3.org/2000/svg">
<path fill-rule="evenodd" clip-rule="evenodd" d="M45.4502 21.7738H49.4633V33.1444H45.4502V21.7738ZM23.3771 30.4691H23.3773V30.4697H31.403H31.4036H42.7735V37.1583H31.4036H31.403H23.3773V37.1577H23.3771C19.6831 37.1577 16.6886 40.1522 16.6886 43.8462C16.6886 47.5402 19.6831 50.5348 23.3771 50.5348C26.613 50.5348 29.3122 48.2369 29.9319 45.1839H30.0662V37.1586H36.7548V45.1849H36.6881C36.0166 51.9443 30.3133 57.2234 23.3771 57.2234C15.9892 57.2234 10 51.2342 10 43.8462C10 36.4582 15.9892 30.4691 23.3771 30.4691ZM72.1746 43.6854H68.7902V57.2231H72.1746V43.6854ZM69.2022 41.5076C69.5946 41.8804 70.0459 42.0667 70.556 42.0667C71.0661 42.0667 71.5075 41.8804 71.8803 41.5076C72.2727 41.1152 72.4689 40.6639 72.4689 40.1538C72.4689 39.6437 72.2727 39.2023 71.8803 38.8295C71.5075 38.4371 71.0661 38.2409 70.556 38.2409C70.0459 38.2409 69.5946 38.4371 69.2022 38.8295C68.8294 39.2023 68.643 39.6437 68.643 40.1538C68.643 40.6639 68.8294 41.1152 69.2022 41.5076ZM57.256 56.1636C58.1782 56.968 59.5221 57.3702 61.2879 57.3702C62.0531 57.3702 62.7398 57.2623 63.348 57.0465C63.9758 56.811 64.5056 56.5069 64.9372 56.1342C65.3688 55.7614 65.7024 55.3297 65.9378 54.8392C66.1732 54.3291 66.291 53.7994 66.291 53.25C66.291 52.4456 66.1144 51.7982 65.7612 51.3077C65.4277 50.7976 65.0059 50.3855 64.4958 50.0716C63.9856 49.7577 63.4265 49.5223 62.8183 49.3653C62.2297 49.1887 61.6803 49.0318 61.1702 48.8944C60.6601 48.7375 60.2284 48.5707 59.8753 48.3941C59.5418 48.2176 59.375 47.9723 59.375 47.6584C59.375 47.2856 59.5123 46.9717 59.787 46.7166C60.0813 46.4616 60.4835 46.3341 60.9936 46.3341C61.5037 46.3341 61.9256 46.4812 62.2591 46.7755C62.6123 47.0698 62.8281 47.3641 62.9066 47.6584H66.1438C65.9869 46.4812 65.4669 45.5002 64.584 44.7154C63.7208 43.9306 62.4749 43.5382 60.8465 43.5382C60.1009 43.5382 59.4338 43.656 58.8452 43.8914C58.2567 44.1072 57.7465 44.4015 57.3149 44.7743C56.8833 45.1471 56.5497 45.5885 56.3143 46.0986C56.0985 46.5891 55.9906 47.109 55.9906 47.6584C55.9906 48.4432 56.1573 49.0808 56.4909 49.5713C56.844 50.0422 57.2757 50.4346 57.7858 50.7485C58.2959 51.0428 58.8452 51.2684 59.4338 51.4254C60.0421 51.5824 60.6012 51.7393 61.1113 51.8963C61.6215 52.0336 62.0433 52.1906 62.3768 52.3672C62.73 52.5437 62.9066 52.789 62.9066 53.1029C62.9066 53.4757 62.73 53.819 62.3768 54.1329C62.0433 54.4272 61.5822 54.5744 60.9936 54.5744C60.405 54.5744 59.9342 54.4174 59.581 54.1035C59.2278 53.7896 59.012 53.407 58.9335 52.9557H55.6963C55.8336 54.2899 56.3535 55.3592 57.256 56.1636ZM81.2863 62.2261C80.0307 62.2261 79.0104 62.0005 78.2256 61.5492C77.4605 61.098 76.8522 60.5879 76.401 60.0189C75.8909 59.3714 75.5083 58.6357 75.2532 57.8116H78.6377C78.775 58.0667 78.9614 58.2923 79.1968 58.4885C79.4126 58.6455 79.6873 58.7926 80.0209 58.93C80.3544 59.0673 80.7762 59.136 81.2863 59.136C82.2477 59.136 83.0031 58.8711 83.5524 58.3414C84.1018 57.8313 84.3764 57.1642 84.3764 56.3402V55.3101C84.1018 55.5848 83.7879 55.83 83.4347 56.0459C83.1208 56.2421 82.748 56.4186 82.3164 56.5756C81.8847 56.7129 81.3942 56.7816 80.8449 56.7816C80.0012 56.7816 79.1968 56.6148 78.4316 56.2813C77.6861 55.9478 77.0288 55.4867 76.4599 54.8981C75.9105 54.3095 75.4691 53.613 75.1355 52.8086C74.8216 52.0042 74.6646 51.1213 74.6646 50.1599C74.6646 49.1986 74.8216 48.3157 75.1355 47.5112C75.4691 46.7068 75.9105 46.0103 76.4599 45.4217C77.0288 44.8331 77.6861 44.3721 78.4316 44.0385C79.1968 43.705 80.0012 43.5382 80.8449 43.5382C81.4335 43.5382 81.9632 43.6167 82.4341 43.7737C82.905 43.9306 83.3072 44.0974 83.6407 44.274C84.0135 44.4898 84.3568 44.735 84.6707 45.0097L85.2593 43.6854H87.7609V56.3402C87.7609 58.1059 87.1919 59.5284 86.0539 60.6075C84.9356 61.6866 83.3464 62.2261 81.2863 62.2261ZM81.2863 53.5443C81.718 53.5443 82.13 53.4561 82.5224 53.2795C82.9148 53.1029 83.2581 52.8675 83.5524 52.5732C83.8467 52.2592 84.0822 51.8963 84.2587 51.4843C84.4353 51.0722 84.5236 50.6308 84.5236 50.1599C84.5236 49.689 84.4353 49.2476 84.2587 48.8356C84.0822 48.4236 83.8467 48.0704 83.5524 47.7761C83.2581 47.4622 82.9148 47.2169 82.5224 47.0404C82.13 46.8638 81.718 46.7755 81.2863 46.7755C80.8351 46.7755 80.4132 46.8638 80.0209 47.0404C79.6285 47.2169 79.2851 47.4622 78.9908 47.7761C78.6965 48.0704 78.4611 48.4236 78.2845 48.8356C78.1275 49.2476 78.0491 49.689 78.0491 50.1599C78.0491 50.6308 78.1275 51.0722 78.2845 51.4843C78.4611 51.8963 78.6965 52.2592 78.9908 52.5732C79.2851 52.8675 79.6285 53.1029 80.0209 53.2795C80.4132 53.4561 80.8351 53.5443 81.2863 53.5443ZM93.5077 43.6854H91.0062V57.2231H94.3906V49.4242C94.3906 48.6001 94.6064 47.9527 95.0381 47.4818C95.4893 47.0109 96.0092 46.7755 96.5978 46.7755C97.1864 46.7755 97.6965 47.0109 98.1282 47.4818C98.5794 47.9527 98.8051 48.6001 98.8051 49.4242V57.2231H102.189V49.4242C102.189 48.6001 102.405 47.9527 102.837 47.4818C103.288 47.0109 103.808 46.7755 104.397 46.7755C104.985 46.7755 105.495 47.0109 105.927 47.4818C106.378 47.9527 106.604 48.6001 106.604 49.4242V57.2231H109.988V49.1299C109.988 47.2856 109.547 45.8926 108.664 44.9509C107.781 44.0091 106.604 43.5382 105.132 43.5382C104.544 43.5382 104.004 43.6363 103.514 43.8325C103.023 44.0091 102.601 44.2053 102.248 44.4211C101.836 44.6762 101.473 44.9705 101.159 45.304C100.944 44.9705 100.659 44.6762 100.306 44.4211C99.9921 44.2053 99.5899 44.0091 99.0994 43.8325C98.6089 43.6363 98.0203 43.5382 97.3336 43.5382C96.8431 43.5382 96.4016 43.6167 96.0092 43.7737C95.6168 43.9306 95.2833 44.0974 95.0086 44.274C94.6751 44.4898 94.371 44.735 94.0963 45.0097L93.5077 43.6854ZM117.051 57.3702C115.58 57.3702 114.452 57.017 113.667 56.3107C112.882 55.5848 112.49 54.6627 112.49 53.5443C112.49 52.8773 112.617 52.2691 112.872 51.7197C113.147 51.1507 113.598 50.67 114.226 50.2776C114.854 49.8656 115.678 49.5517 116.698 49.3359C117.738 49.1005 119.033 48.9827 120.583 48.9827C120.583 48.2372 120.377 47.6584 119.965 47.2464C119.573 46.8344 119.043 46.6284 118.376 46.6284C117.925 46.6284 117.562 46.7068 117.287 46.8638C117.032 47.0208 116.826 47.1875 116.669 47.3641C116.492 47.5799 116.375 47.8252 116.316 48.0998H112.931C113.01 47.472 113.186 46.8834 113.461 46.3341C113.755 45.7847 114.148 45.304 114.638 44.892C115.129 44.48 115.708 44.1563 116.375 43.9208C117.061 43.6658 117.826 43.5382 118.67 43.5382C119.435 43.5382 120.142 43.6756 120.789 43.9503C121.437 44.2053 121.996 44.5683 122.467 45.0392C122.937 45.51 123.3 46.0692 123.555 46.7166C123.83 47.3641 123.967 48.0704 123.967 48.8356V57.2231H121.466L120.877 55.8987C120.563 56.1734 120.22 56.4186 119.847 56.6345C119.514 56.8307 119.112 57.0072 118.641 57.1642C118.17 57.3015 117.64 57.3702 117.051 57.3702ZM117.64 54.7215C118.523 54.7215 119.229 54.4665 119.759 53.9564C120.308 53.4266 120.583 52.7497 120.583 51.9257V51.3371C119.582 51.3371 118.778 51.3862 118.17 51.4843C117.562 51.5627 117.081 51.6903 116.728 51.8668C116.394 52.0238 116.169 52.22 116.051 52.4554C115.933 52.6909 115.874 52.9557 115.874 53.25C115.874 53.6228 116.041 53.9662 116.375 54.2801C116.708 54.5744 117.13 54.7215 117.64 54.7215ZM128.959 43.9797H127.34V61.9318H129.548V55.6044C129.822 55.938 130.156 56.2323 130.548 56.4873C130.882 56.7031 131.294 56.9091 131.784 57.1053C132.275 57.2819 132.854 57.3702 133.521 57.3702C134.364 57.3702 135.159 57.2034 135.904 56.8699C136.67 56.5364 137.327 56.0753 137.876 55.4867C138.445 54.8785 138.887 54.1624 139.201 53.3383C139.534 52.5143 139.701 51.602 139.701 50.6014C139.701 49.6008 139.534 48.6884 139.201 47.8644C138.887 47.0404 138.445 46.3341 137.876 45.7455C137.327 45.1373 136.67 44.6664 135.904 44.3328C135.159 43.9993 134.364 43.8325 133.521 43.8325C132.854 43.8325 132.275 43.9208 131.784 44.0974C131.294 44.2544 130.882 44.4407 130.548 44.6566C130.156 44.892 129.822 45.1569 129.548 45.4512L128.959 43.9797ZM134.933 54.9864C134.443 55.2022 133.923 55.3101 133.373 55.3101C132.824 55.3101 132.294 55.2022 131.784 54.9864C131.294 54.751 130.862 54.4272 130.489 54.0152C130.117 53.6032 129.812 53.1127 129.577 52.5437C129.361 51.9551 129.253 51.3077 129.253 50.6014C129.253 49.8951 129.361 49.2574 129.577 48.6884C129.812 48.0998 130.117 47.5995 130.489 47.1875C130.862 46.7755 131.294 46.4616 131.784 46.2458C132.294 46.0103 132.824 45.8926 133.373 45.8926C133.923 45.8926 134.443 46.0103 134.933 46.2458C135.443 46.4616 135.885 46.7755 136.258 47.1875C136.63 47.5995 136.925 48.0998 137.14 48.6884C137.376 49.2574 137.494 49.8951 137.494 50.6014C137.494 51.3077 137.376 51.9551 137.14 52.5437C136.925 53.1127 136.63 53.6032 136.258 54.0152C135.885 54.4272 135.443 54.751 134.933 54.9864ZM142.63 43.9797H144.249L144.837 45.4512C145.112 45.1569 145.436 44.892 145.808 44.6566C146.142 44.4407 146.544 44.2544 147.015 44.0974C147.486 43.9208 148.035 43.8325 148.663 43.8325H148.957V46.0398H148.369C147.329 46.0398 146.476 46.3733 145.808 47.0404C145.161 47.7074 144.837 48.6001 144.837 49.7185V57.2231H142.63V43.9797ZM153.66 43.9797H151.453V57.2231H153.66V43.9797ZM151.542 41.2427C151.816 41.4978 152.15 41.6253 152.542 41.6253C152.954 41.6253 153.288 41.4978 153.543 41.2427C153.817 40.968 153.955 40.6345 153.955 40.2421C153.955 39.8301 153.817 39.4966 153.543 39.2415C153.288 38.9668 152.954 38.8295 152.542 38.8295C152.15 38.8295 151.816 38.9668 151.542 39.2415C151.286 39.4966 151.159 39.8301 151.159 40.2421C151.159 40.6345 151.286 40.968 151.542 41.2427ZM157.489 43.9797H159.107L159.696 45.4512C159.912 45.1569 160.177 44.892 160.49 44.6566C160.765 44.4407 161.099 44.2544 161.491 44.0974C161.883 43.9208 162.364 43.8325 162.933 43.8325C163.6 43.8325 164.159 43.9601 164.611 44.2151C165.081 44.4506 165.464 44.7154 165.758 45.0097C166.112 45.3629 166.396 45.7553 166.612 46.1869C166.867 45.7553 167.181 45.3629 167.554 45.0097C167.887 44.7154 168.299 44.4506 168.79 44.2151C169.28 43.9601 169.879 43.8325 170.585 43.8325C171.173 43.8325 171.733 43.9601 172.262 44.2151C172.792 44.4506 173.263 44.8037 173.675 45.2746C174.087 45.7455 174.411 46.3242 174.646 47.0109C174.882 47.678 174.999 48.4334 174.999 49.277V57.2231H172.792V49.277C172.792 48.1587 172.537 47.3151 172.027 46.7461C171.517 46.1771 170.889 45.8926 170.143 45.8926C169.398 45.8926 168.741 46.1967 168.172 46.8049C167.622 47.4131 167.348 48.2372 167.348 49.277V57.2231H165.14V49.277C165.14 48.1587 164.885 47.3151 164.375 46.7461C163.865 46.1771 163.237 45.8926 162.492 45.8926C162.138 45.8926 161.785 45.9809 161.432 46.1575C161.099 46.3144 160.804 46.5499 160.549 46.8638C160.294 47.1581 160.088 47.5112 159.931 47.9233C159.774 48.3353 159.696 48.7865 159.696 49.277V57.2231H157.489V43.9797ZM181.642 56.8699C182.408 57.2034 183.232 57.3702 184.114 57.3702C184.84 57.3702 185.498 57.2721 186.086 57.0759C186.694 56.8601 187.224 56.5854 187.675 56.2519C188.146 55.9183 188.549 55.5259 188.882 55.0747C189.216 54.6234 189.49 54.1624 189.706 53.6915H187.352C187.234 53.8484 187.077 54.025 186.881 54.2212C186.704 54.3978 186.479 54.5646 186.204 54.7215C185.949 54.8785 185.645 55.0158 185.292 55.1335C184.938 55.2513 184.546 55.3101 184.114 55.3101C183.604 55.3101 183.114 55.212 182.643 55.0158C182.172 54.8 181.76 54.5253 181.407 54.1918C181.054 53.8583 180.759 53.4659 180.524 53.0146C180.308 52.5633 180.181 52.1023 180.141 51.6314H189.853C189.873 51.5333 189.892 51.4254 189.912 51.3077C189.932 51.2096 189.951 51.0919 189.971 50.9545C189.991 50.8172 190 50.6504 190 50.4542C190 49.4536 189.834 48.5511 189.5 47.7467C189.186 46.9227 188.755 46.2262 188.205 45.6572C187.656 45.0686 187.008 44.6173 186.263 44.3034C185.537 43.9895 184.772 43.8325 183.967 43.8325C183.163 43.8325 182.388 43.9993 181.642 44.3328C180.897 44.6664 180.24 45.1373 179.671 45.7455C179.102 46.3341 178.641 47.0404 178.287 47.8644C177.954 48.6884 177.787 49.6008 177.787 50.6014C177.787 51.602 177.944 52.5143 178.258 53.3383C178.591 54.1624 179.043 54.8785 179.612 55.4867C180.2 56.0753 180.877 56.5364 181.642 56.8699ZM187.322 48.1881C187.558 48.659 187.715 49.1691 187.793 49.7185H180.141C180.22 49.1691 180.367 48.659 180.583 48.1881C180.818 47.7173 181.103 47.3151 181.436 46.9815C181.79 46.648 182.182 46.3831 182.614 46.1869C183.045 45.9907 183.496 45.8926 183.967 45.8926C184.438 45.8926 184.889 45.9907 185.321 46.1869C185.753 46.3831 186.135 46.648 186.469 46.9815C186.822 47.3151 187.106 47.7173 187.322 48.1881Z" fill="black"/>
</svg>
