<svg width="200" height="84" viewBox="0 0 200 84" fill="none" xmlns="http://www.w3.org/2000/svg">
<path opacity="0.3" d="M48.5143 41.8871L40.6123 46.6283L48.5143 51.5953L56.6421 46.6283L48.5143 41.8871Z" fill="black"/>
<path opacity="0.6" d="M48.5143 37.597L40.6123 42.3383L48.5143 47.3052L56.6421 42.3383L48.5143 37.597Z" fill="black"/>
<path opacity="0.8" d="M48.5143 33.3085L40.6123 38.0497L48.5143 43.0167L56.6421 38.0497L48.5143 33.3085Z" fill="black"/>
<path d="M32.2587 30.8242L48.5143 21.3418L64.9957 30.8242L57.9967 34.8881L48.5143 29.2438L38.8061 34.8881L32.2587 30.8242Z" fill="black"/>
<path d="M30.001 53.1757V33.985L36.9999 38.0489V49.3376L46.4823 54.7561V62.6581L30.001 53.1757Z" fill="black"/>
<path d="M67.2534 33.9851V53.1758L50.772 62.6582V54.7562L60.2544 49.3376V38.049L67.2534 33.9851Z" fill="black"/>
<path d="M111.349 40.0268V48.8525H113.409V40.0268H111.349Z" fill="black"/>
<path d="M111.382 37.8497C111.617 38.0506 111.94 38.1511 112.353 38.1511C112.767 38.1511 113.09 38.0395 113.325 37.8162C113.559 37.5929 113.676 37.3082 113.676 36.9621C113.676 36.5713 113.559 36.2754 113.325 36.0745C113.102 35.8623 112.778 35.7563 112.353 35.7563C111.952 35.7563 111.633 35.8679 111.399 36.0912C111.164 36.3145 111.047 36.6048 111.047 36.9621C111.047 37.3417 111.159 37.6375 111.382 37.8497Z" fill="black"/>
<path d="M90.7665 36.4597V48.8525H92.8264V43.5269C92.8264 43.259 92.8766 43.0133 92.9771 42.7901C93.0888 42.5668 93.2339 42.3714 93.4126 42.2039C93.6024 42.0253 93.8201 41.8913 94.0657 41.802C94.3225 41.7015 94.6016 41.6512 94.903 41.6512C95.2715 41.6401 95.5841 41.7071 95.8409 41.8522C96.0977 41.9862 96.2875 42.2039 96.4103 42.5054C96.5331 42.7956 96.5945 43.1641 96.5945 43.6107V48.8525H98.6544V43.4599C98.6544 42.6561 98.5372 41.9862 98.3027 41.4503C98.0794 40.9144 97.7389 40.5124 97.2811 40.2445C96.8345 39.9765 96.2763 39.8426 95.6064 39.8426C95.1375 39.8426 94.6797 39.943 94.2332 40.144C93.7866 40.345 93.4014 40.6129 93.0776 40.9479C92.9783 41.0472 92.889 41.1501 92.8097 41.2568V36.4597H90.7665Z" fill="black"/>
<path d="M82.6341 48.5845C83.3374 48.8748 84.1134 49.02 84.9619 49.02C85.509 49.02 86.056 48.953 86.6031 48.819C87.1614 48.6739 87.6638 48.4785 88.1104 48.2329C88.5569 47.9872 88.9142 47.7137 89.1822 47.4122L88.1104 45.6873C87.8647 45.9329 87.5912 46.1506 87.2898 46.3404C86.9995 46.5191 86.6813 46.6586 86.3352 46.7591C85.9891 46.8596 85.6318 46.9098 85.2634 46.9098C84.694 46.9098 84.1692 46.8205 83.6891 46.6419C83.2202 46.4521 82.8127 46.1841 82.4666 45.838C82.1316 45.4919 81.8693 45.0788 81.6795 44.5987C81.5008 44.1187 81.4115 43.5827 81.4115 42.991C81.4115 42.4105 81.5064 41.8857 81.6962 41.4168C81.886 40.9367 82.1428 40.5236 82.4666 40.1775C82.8015 39.8314 83.1923 39.5634 83.6389 39.3736C84.0966 39.1838 84.5823 39.0889 85.0959 39.0889C85.442 39.0889 85.7769 39.1448 86.1007 39.2564C86.4356 39.3569 86.7538 39.5132 87.0553 39.7253C87.3679 39.9263 87.6693 40.1775 87.9596 40.479L89.3496 38.955C89.0482 38.5642 88.6742 38.2237 88.2276 37.9334C87.781 37.632 87.2897 37.3975 86.7538 37.23C86.2179 37.0625 85.6653 36.9788 85.0959 36.9788C84.2585 36.9788 83.4826 37.1295 82.768 37.431C82.0535 37.7324 81.4283 38.1567 80.8924 38.7038C80.3565 39.2508 79.9378 39.8872 79.6363 40.6129C79.3349 41.3386 79.1842 42.1258 79.1842 42.9743C79.1842 43.8563 79.3237 44.6713 79.6028 45.4193C79.8931 46.1562 80.2951 46.7982 80.8086 47.3453C81.3222 47.8812 81.9307 48.2943 82.6341 48.5845Z" fill="black"/>
<path fill-rule="evenodd" clip-rule="evenodd" d="M104.003 49.02C103.277 49.02 102.619 48.819 102.027 48.4171C101.435 48.0151 100.961 47.4681 100.604 46.7759C100.246 46.0836 100.068 45.2965 100.068 44.4145C100.068 43.5325 100.246 42.7454 100.604 42.0532C100.961 41.361 101.446 40.8195 102.061 40.4287C102.675 40.0379 103.367 39.8426 104.137 39.8426C104.584 39.8426 104.991 39.9096 105.36 40.0435C105.728 40.1663 106.052 40.345 106.331 40.5794C106.576 40.7856 106.783 41.0175 106.951 41.2754V40.0268H109.027V48.8525H106.934V47.6139C106.741 47.8661 106.501 48.0947 106.214 48.2998C105.912 48.512 105.572 48.685 105.192 48.819C104.824 48.953 104.427 49.02 104.003 49.02ZM104.573 47.1945C105.053 47.1945 105.477 47.0773 105.845 46.8428C106.214 46.6084 106.498 46.2846 106.699 45.8715C106.912 45.4473 107.018 44.9616 107.018 44.4145C107.018 43.8786 106.912 43.4041 106.699 42.991C106.498 42.5779 106.214 42.2541 105.845 42.0197C105.477 41.7852 105.053 41.668 104.573 41.668C104.092 41.668 103.668 41.7852 103.3 42.0197C102.943 42.2541 102.663 42.5779 102.462 42.991C102.261 43.4041 102.161 43.8786 102.161 44.4145C102.161 44.9616 102.261 45.4473 102.462 45.8715C102.663 46.2846 102.943 46.6084 103.3 46.8428C103.668 47.0773 104.092 47.1945 104.573 47.1945Z" fill="black"/>
<path d="M115.719 48.8525V40.0268H117.729L117.752 41.2709C117.834 41.1592 117.927 41.0515 118.03 40.9479C118.354 40.6129 118.739 40.345 119.186 40.144C119.633 39.943 120.09 39.8426 120.559 39.8426C121.229 39.8426 121.787 39.9765 122.234 40.2445C122.692 40.5124 123.032 40.9144 123.255 41.4503C123.49 41.9862 123.607 42.6561 123.607 43.4599V48.8525H121.547V43.6107C121.547 43.1641 121.486 42.7956 121.363 42.5054C121.24 42.2039 121.05 41.9862 120.794 41.8522C120.537 41.7071 120.224 41.6401 119.856 41.6512C119.554 41.6512 119.275 41.7015 119.018 41.802C118.773 41.8913 118.555 42.0253 118.365 42.2039C118.187 42.3714 118.042 42.5668 117.93 42.7901C117.829 43.0133 117.779 43.259 117.779 43.5269V48.8525H115.719Z" fill="black"/>
<path d="M128.169 37.1295H125.992V48.8525H133.578V46.8428H128.169V37.1295Z" fill="black"/>
<path fill-rule="evenodd" clip-rule="evenodd" d="M138.402 49.02C137.676 49.02 137.018 48.819 136.426 48.4171C135.834 48.0151 135.36 47.4681 135.002 46.7759C134.645 46.0836 134.466 45.2965 134.466 44.4145C134.466 43.5325 134.645 42.7454 135.002 42.0532C135.36 41.361 135.845 40.8195 136.459 40.4287C137.073 40.0379 137.766 39.8426 138.536 39.8426C138.983 39.8426 139.39 39.9096 139.759 40.0435C140.127 40.1663 140.451 40.345 140.73 40.5794C140.975 40.7856 141.182 41.0176 141.349 41.2755V40.0268H143.426V48.8525H141.333V47.6139C141.14 47.8661 140.9 48.0947 140.613 48.2998C140.311 48.512 139.971 48.685 139.591 48.819C139.223 48.953 138.826 49.02 138.402 49.02ZM138.971 47.1945C139.451 47.1945 139.876 47.0773 140.244 46.8428C140.613 46.6084 140.897 46.2846 141.098 45.8715C141.31 45.4473 141.416 44.9616 141.416 44.4145C141.416 43.8786 141.31 43.4041 141.098 42.991C140.897 42.5779 140.613 42.2541 140.244 42.0197C139.876 41.7852 139.451 41.668 138.971 41.668C138.491 41.668 138.067 41.7852 137.699 42.0197C137.341 42.2541 137.062 42.5779 136.861 42.991C136.66 43.4041 136.56 43.8786 136.56 44.4145C136.56 44.9616 136.66 45.4473 136.861 45.8715C137.062 46.2846 137.341 46.6084 137.699 46.8428C138.067 47.0773 138.491 47.1945 138.971 47.1945Z" fill="black"/>
<path d="M148.238 49.0468L146.657 52.7043H148.8L150.307 48.8525L153.992 40.0268H151.597L149.52 45.7878C149.445 46.034 149.365 46.2751 149.28 46.5111L149.258 46.4435L149.236 46.3739C149.157 46.1283 149.079 45.9329 149.001 45.7878L146.573 40.0268H144.195L148.238 49.0468Z" fill="black"/>
<path fill-rule="evenodd" clip-rule="evenodd" d="M158.948 49.02C158.022 49.02 157.201 48.8246 156.487 48.4338C155.783 48.0431 155.231 47.5127 154.829 46.8428C154.438 46.1618 154.242 45.3859 154.242 44.515C154.242 43.8228 154.354 43.192 154.577 42.6226C154.801 42.0532 155.108 41.5619 155.499 41.1488C155.9 40.7246 156.375 40.4008 156.922 40.1775C157.48 39.943 158.089 39.8258 158.747 39.8258C159.328 39.8258 159.869 39.9375 160.372 40.1608C160.874 40.3841 161.31 40.6911 161.678 41.0818C162.047 41.4615 162.326 41.9192 162.516 42.4551C162.716 42.9799 162.811 43.5548 162.8 44.1801L162.783 44.9002H156.273C156.325 45.2512 156.429 45.5694 156.587 45.8548C156.833 46.279 157.173 46.6084 157.609 46.8428C158.055 47.0661 158.574 47.1778 159.166 47.1778C159.579 47.1778 159.959 47.1108 160.305 46.9768C160.651 46.8428 161.025 46.6028 161.427 46.2567L162.449 47.6802C162.147 47.9593 161.801 48.1994 161.41 48.4003C161.031 48.5901 160.629 48.7408 160.204 48.8525C159.78 48.9641 159.361 49.02 158.948 49.02ZM156.52 42.8905C156.433 43.0702 156.366 43.2712 156.318 43.4934H160.791V43.4097C160.757 43.0636 160.645 42.7621 160.456 42.5054C160.266 42.2374 160.02 42.0309 159.719 41.8857C159.428 41.7294 159.105 41.6512 158.747 41.6512C158.2 41.6512 157.737 41.7573 157.357 41.9694C156.989 42.1816 156.71 42.4886 156.52 42.8905Z" fill="black"/>
<path d="M164.323 40.0268V48.8525H166.4V44.1466C166.4 43.834 166.45 43.5548 166.551 43.3092C166.662 43.0524 166.813 42.8291 167.003 42.6393C167.193 42.4495 167.41 42.3044 167.656 42.2039C167.913 42.0923 168.181 42.0364 168.46 42.0364C168.639 42.0364 168.817 42.0588 168.996 42.1034C169.174 42.1481 169.325 42.2039 169.448 42.2709L170.001 40.01C169.889 39.9654 169.744 39.9263 169.565 39.8928C169.398 39.8593 169.219 39.8426 169.029 39.8426C168.594 39.8426 168.175 39.9486 167.773 40.1608C167.382 40.3617 167.036 40.6408 166.735 40.9981C166.593 41.1668 166.47 41.3454 166.368 41.534L166.35 40.0268H164.323Z" fill="black"/>
</svg>
