<svg width="200" height="84" viewBox="0 0 200 84" fill="none" xmlns="http://www.w3.org/2000/svg">
<path d="M59.1233 42C59.1233 34.268 52.8277 28 45.0616 28C37.2956 28 31 34.268 31 42C31 45.3335 32.1702 48.395 34.124 50.7993L38.0445 43.3096C38.4457 42.5431 39.2229 42.0488 40.0835 42.0034L40.2132 42H43.53C43.6284 42 43.7253 42.0236 43.8125 42.0689C44.0906 42.2132 44.2107 42.5404 44.1015 42.8252L44.0721 42.89L38.1536 54.1969C40.1939 55.3449 42.5509 56 45.0616 56C47.5523 56 49.8918 55.3553 51.9208 54.2243L42.1649 35.5856C42.0089 35.2875 42.1251 34.9199 42.4246 34.7646C42.5118 34.7193 42.6087 34.6957 42.7071 34.6957H46.0239C46.9355 34.6957 47.7713 35.2004 48.1926 36.0052L50.4487 40.3146L50.4832 40.3742C50.4944 40.3942 50.5054 40.4145 50.5161 40.4349L55.9637 50.8429C57.9388 48.4321 59.1233 45.3538 59.1233 42Z" fill="black"/>
<path d="M86.7345 50.8764H89.8962V33.1851H86.7345V50.8764Z" fill="black"/>
<path d="M93.401 50.8764H96.5627V33.1851H93.401V50.8764Z" fill="black"/>
<path d="M110.19 39.6759C109.332 38.7731 108.229 38.3338 106.881 38.3338C105.214 38.3338 103.989 38.8951 103.229 40.042V38.6755H100.068V50.8764H103.229V44.2879C103.229 42.2625 104.283 41.2621 105.925 41.2621C107.396 41.2621 108.352 42.1405 108.352 43.7754V50.8764H111.513V43.385C111.513 41.7989 111.072 40.5788 110.19 39.6759Z" fill="black"/>
<path fill-rule="evenodd" clip-rule="evenodd" d="M120.349 51.218C122.163 51.218 123.707 50.608 124.957 49.3635C126.207 48.119 126.844 46.5817 126.844 44.7759C126.844 42.9702 126.207 41.4573 124.957 40.2128C123.707 38.9683 122.163 38.3338 120.349 38.3338C118.535 38.3338 116.991 38.9683 115.741 40.2128C114.491 41.4573 113.878 42.9702 113.878 44.7759C113.878 46.5817 114.491 48.119 115.741 49.3635C116.991 50.608 118.535 51.218 120.349 51.218ZM120.349 48.1434C119.393 48.1434 118.609 47.8261 117.972 47.1917C117.359 46.5573 117.04 45.752 117.04 44.7759C117.04 43.7998 117.359 42.9946 117.972 42.3601C118.609 41.7257 119.393 41.4085 120.349 41.4085C121.305 41.4085 122.089 41.7257 122.726 42.3601C123.364 42.9946 123.682 43.7998 123.682 44.7759C123.682 45.752 123.364 46.5573 122.726 47.1917C122.089 47.8261 121.305 48.1434 120.349 48.1434Z" fill="black"/>
<path fill-rule="evenodd" clip-rule="evenodd" d="M138.976 33.1851V40.1152C138.045 38.9195 136.721 38.3338 135.005 38.3338C133.363 38.3338 131.942 38.9683 130.765 40.2128C129.613 41.4573 129.025 42.9702 129.025 44.7759C129.025 46.5817 129.613 48.119 130.765 49.3635C131.942 50.608 133.363 51.218 135.005 51.218C136.721 51.218 138.045 50.6324 138.976 49.4367V50.8764H142.138V33.1851H138.976ZM135.594 48.2166C134.613 48.2166 133.805 47.8994 133.143 47.2649C132.506 46.6061 132.187 45.7764 132.187 44.7759C132.187 43.7754 132.506 42.9458 133.143 42.3113C133.805 41.6525 134.613 41.3353 135.594 41.3353C136.574 41.3353 137.383 41.6525 138.02 42.3113C138.657 42.9458 138.976 43.7754 138.976 44.7759C138.976 45.7764 138.657 46.6061 138.02 47.2649C137.383 47.8994 136.574 48.2166 135.594 48.2166Z" fill="black"/>
<path fill-rule="evenodd" clip-rule="evenodd" d="M147.946 46.0692H157.186C157.26 45.6056 157.309 45.1908 157.309 44.7759C157.309 42.9458 156.721 41.4329 155.544 40.1884C154.392 38.9439 152.897 38.3338 151.108 38.3338C149.221 38.3338 147.652 38.9439 146.451 40.1884C145.25 41.4085 144.638 42.9458 144.638 44.7759C144.638 46.6305 145.25 48.1678 146.476 49.3879C147.701 50.608 149.319 51.218 151.353 51.218C153.706 51.218 155.495 50.3395 156.696 48.607L154.147 47.1429C153.534 47.9482 152.603 48.363 151.402 48.363C149.515 48.363 148.363 47.6065 147.946 46.0692ZM154.147 43.629H147.897C148.265 42.0673 149.417 41.1645 151.108 41.1645C152.554 41.1645 153.78 41.9697 154.147 43.629Z" fill="black"/>
<path d="M168.755 40.9204C167.799 39.2611 166.083 38.3338 164.098 38.3338C162.774 38.3338 161.672 38.6755 160.765 39.3831C159.882 40.0664 159.441 41.018 159.441 42.2137C159.441 44.7515 161.721 45.508 163.534 45.9716C164.784 46.2888 165.765 46.6549 165.765 47.3137C165.765 48.0214 165.201 48.363 164.073 48.363C162.823 48.363 162.039 47.8261 161.672 46.7769L158.926 48.3142C159.833 50.2419 161.549 51.218 164.073 51.218C165.47 51.218 166.647 50.8764 167.578 50.2175C168.534 49.5343 169 48.5582 169 47.3137C169.024 44.7027 166.696 43.8486 164.907 43.4826C163.657 43.1654 162.676 42.7994 162.676 42.1405C162.676 41.5305 163.289 41.14 164.098 41.14C165.005 41.14 165.667 41.5549 166.059 42.3845L168.755 40.9204Z" fill="black"/>
<path fill-rule="evenodd" clip-rule="evenodd" d="M84.5689 50.8764L78.3243 33.1851H73.9835L67.7643 50.8764H71.5466L72.6128 47.6919H79.6951L80.7612 50.8764H84.5689ZM73.7297 44.4317L76.1666 37.2035L78.6035 44.4317H73.7297Z" fill="black"/>
</svg>
