<svg width="200" height="84" viewBox="0 0 200 84" fill="none" xmlns="http://www.w3.org/2000/svg">
<path fill-rule="evenodd" clip-rule="evenodd" d="M56.3009 37.1076V41.6457C56.3009 50.8358 49.0172 58.2855 40.0318 58.2855C31.0464 58.2871 23.7627 50.8358 23.7627 41.6457C23.7627 32.4556 31.0464 25.0059 40.0318 25.0059H44.4688L36.3343 33.3258V45.4322H48.1648L56.3009 37.1076ZM56.3009 25.0059H44.4688V37.1076H56.3009V25.0059ZM62.4594 31.077C62.4594 27.1658 64.7892 24.8016 68.874 24.8016C72.6386 24.8016 74.5309 26.8181 74.8892 29.7936H72.1202C71.8412 28.0204 70.8059 27.0021 68.813 27.0021C66.3826 27.0021 65.1674 28.3666 65.1674 31.0568C65.1674 33.7672 66.5213 35.1114 68.813 35.1114C70.8852 35.1114 71.9403 34.0526 72.1995 32.2997H74.9883C74.63 35.3766 72.4785 37.3119 68.7932 37.3119C64.7907 37.3119 62.4594 34.8666 62.4594 31.077ZM88.4153 31.0162C88.4153 34.8869 86.0244 37.3119 82.1211 37.3119C78.4357 37.3119 75.8269 35.1317 75.8269 31.0973C75.8269 27.2266 78.2177 24.8016 82.1211 24.8016C85.8049 24.8016 88.4153 26.9818 88.4153 31.0162ZM85.7058 31.0973C85.7058 28.2855 84.271 27.0021 82.1196 27.0021C79.8492 27.0021 78.5349 28.2855 78.5349 31.0162C78.5349 33.828 79.9697 35.1114 82.1196 35.1114C84.3914 35.1114 85.7058 33.828 85.7058 31.0973ZM89.8683 25.0059H92.5382V28.2247C93.2152 26.0851 94.5493 24.8016 96.9798 24.8016C99.7289 24.8016 101.283 26.4719 101.283 29.3647V37.106H98.6128V29.753C98.6128 27.7974 97.637 26.9007 95.7249 26.9007C94.191 26.9007 93.235 27.5323 92.5382 28.8969V37.1076H89.8683V25.0059ZM102.397 33.4007H105.186C105.406 34.6031 106.322 35.1738 108.353 35.1738C110.445 35.1738 111.162 34.522 111.162 33.6455C111.162 32.9937 110.863 32.504 109.727 32.3621L106.302 31.9535C103.693 31.6478 102.716 30.5063 102.716 28.6115C102.716 26.4516 104.25 24.8016 108.034 24.8016C111.7 24.8016 113.273 26.3908 113.612 28.6926H110.843C110.683 27.6337 109.986 26.9397 107.955 26.9397C105.964 26.9397 105.285 27.5916 105.285 28.4477C105.285 29.1604 105.663 29.5893 106.72 29.7109L110.285 30.1382C112.874 30.4439 113.731 31.7071 113.731 33.541C113.731 35.7009 112.118 37.3103 108.292 37.3103C104.39 37.3119 102.696 35.8241 102.397 33.4007ZM120.923 37.3119C116.899 37.3119 114.748 34.6436 114.748 31.0973C114.748 27.3483 117.058 24.8016 120.943 24.8016C125.265 24.8016 127.059 27.512 127.039 31.7492H117.457C117.697 33.9091 118.991 35.1114 121.002 35.1114C122.815 35.1114 123.831 34.3988 124.229 33.1964H126.958C126.36 35.6822 124.29 37.3119 120.923 37.3119ZM117.497 29.8965H124.23C124.05 28.1031 123.035 26.9428 120.923 26.9428C119.07 26.9413 117.835 27.9596 117.497 29.8965ZM128.352 25.0059H131.021V28.2247C131.698 26.0851 133.033 24.8016 135.463 24.8016C138.212 24.8016 139.766 26.4719 139.766 29.3647V37.106H137.098V29.753C137.098 27.7974 136.122 26.9007 134.21 26.9007C132.676 26.9007 131.72 27.5323 131.023 28.8969V37.1076H128.353V25.0059H128.352ZM140.882 33.4007H143.671C143.89 34.6031 144.807 35.1738 146.838 35.1738C148.93 35.1738 149.646 34.522 149.646 33.6455C149.646 32.9937 149.347 32.504 148.211 32.3621L144.785 31.9535C142.177 31.6478 141.199 30.5063 141.199 28.6115C141.199 26.4516 142.733 24.8016 146.517 24.8016C150.183 24.8016 151.757 26.3908 152.095 28.6926H149.326C149.166 27.6337 148.469 26.9397 146.438 26.9397C144.447 26.9397 143.768 27.5916 143.768 28.4477C143.768 29.1604 144.146 29.5893 145.203 29.7109L148.768 30.1382C151.357 30.4439 152.214 31.7071 152.214 33.541C152.214 35.7009 150.601 37.3103 146.775 37.3103C142.873 37.3119 141.181 35.8241 140.882 33.4007ZM164.944 25.0059L159.984 40.0831H153.51V37.8421H158.011L158.668 35.7852H156.099L152.215 25.0059H155.163L158.729 35.5996L162.155 25.0059H164.944ZM164.903 33.4007H167.692C167.911 34.6031 168.828 35.1738 170.859 35.1738C172.951 35.1738 173.667 34.522 173.667 33.6455C173.667 32.9937 173.368 32.504 172.232 32.3621L168.808 31.9535C166.199 31.6478 165.222 30.5063 165.222 28.6115C165.222 26.4516 166.756 24.8016 170.54 24.8016C174.205 24.8016 175.779 26.3908 176.118 28.6926H173.349C173.188 27.6337 172.492 26.9397 170.461 26.9397C168.469 26.9397 167.791 27.5916 167.791 28.4477C167.791 29.1604 168.169 29.5893 169.226 29.7109L172.79 30.1382C175.38 30.4439 176.236 31.7071 176.236 33.541C176.236 35.7009 174.623 37.3103 170.798 37.3103C166.896 37.3119 165.202 35.8241 164.903 33.4007Z" fill="#121212"/>
</svg>
