<svg width="200" height="84" viewBox="0 0 200 84" fill="none" xmlns="http://www.w3.org/2000/svg">
<g clip-path="url(#clip0_1272_19655)">
<path d="M44.4212 57.332C35.4433 52.136 28.9247 48.3645 28.5218 48.1474C28.3584 48.0654 28.2218 47.9384 28.128 47.7815C28.0418 47.6162 28.0027 47.4305 28.0149 47.2445C28.0358 46.232 28.0219 45.2194 28.0219 44.2551L28.0142 43.9548L47.8763 55.4159L44.4212 57.332Z" fill="black"/>
<path d="M57.3346 50.1682C57.3346 51.2855 57.329 52.3867 57.3346 53.4879C57.3346 53.918 57.0057 54.0374 56.7201 54.2043L43.1984 62.0315C42.9983 62.1696 42.7614 62.2447 42.5183 62.2472C42.3561 62.2342 42.2003 62.1786 42.0665 62.0859C41.672 61.8331 40.5778 61.1782 39.0918 60.2906L57.3346 50.1682Z" fill="black"/>
<path d="M42.4631 58.4186L39.0911 60.2893C35.909 58.4668 32.7087 56.6763 29.5559 54.8056C29.0559 54.5642 28.6389 54.1797 28.3577 53.7009C28.1498 53.2025 28.0545 52.6644 28.0784 52.1249C28.0418 51.4503 28.0429 50.7743 28.0819 50.0999L42.4631 58.4186Z" fill="black"/>
<path d="M57.3375 56.0618C57.3375 57.3564 57.3172 58.3982 57.3466 59.4387C57.351 59.6244 57.2973 59.8069 57.193 59.9606C57.0888 60.1143 56.9391 60.2317 56.7649 60.2962C54.3272 61.6928 51.9069 63.1166 49.4531 64.4859C48.1626 65.2045 46.2242 64.7059 44.9268 63.7143C44.8053 63.6215 44.7082 63.537 44.6426 63.4769L57.3375 56.0618Z" fill="black"/>
<path d="M36.7325 32.1097C45.7153 26.9221 52.2345 23.1555 52.6256 22.9146C52.7784 22.8141 52.9567 22.7591 53.1395 22.7561C53.3255 22.7637 53.5057 22.8224 53.6604 22.9258C54.5263 23.4488 55.4104 23.9411 56.2483 24.4236L56.513 24.5668L36.6689 36.0599C36.689 34.743 36.7101 33.4262 36.7325 32.1097Z" fill="black"/>
<path d="M36.4959 46.8744C35.5274 46.3157 34.5763 45.7627 33.6176 45.2201C33.2433 45.0106 33.304 44.6615 33.3033 44.3305C33.2922 39.1217 33.281 33.9129 33.2698 28.7042C33.2497 28.4614 33.3027 28.2182 33.422 28.0059C33.5143 27.8719 33.6403 27.7647 33.7873 27.6951C34.2062 27.4793 35.3144 26.8572 36.8276 26.0129C36.7173 32.967 36.6067 39.9208 36.4959 46.8744Z" fill="black"/>
<path d="M36.7656 29.8703C36.7861 28.585 36.8066 27.2997 36.8271 26.0143C39.9945 24.1674 43.1431 22.2862 46.3378 20.4881C46.7962 20.1745 47.3375 20.0043 47.8929 19.9993C48.4282 20.0676 48.9418 20.2534 49.397 20.5433C49.9997 20.8478 50.5848 21.1858 51.1497 21.5558L36.7656 29.8703Z" fill="black"/>
<path d="M31.3885 43.9353C30.2663 43.2893 29.374 42.7481 28.4557 42.2593C28.2927 42.1704 28.1615 42.033 28.0802 41.866C27.999 41.699 27.9718 41.5109 28.0025 41.3278C28.0102 38.5193 27.983 35.7101 28.0228 32.9016C28.0437 31.4247 29.4431 29.9939 30.95 29.3647C31.0896 29.3068 31.2132 29.2642 31.2991 29.2369C31.328 34.1357 31.3578 39.0351 31.3885 43.9353Z" fill="black"/>
<path d="M62.3867 38.0549C62.4035 48.428 62.4153 55.9591 62.4307 56.4165C62.4417 56.599 62.4005 56.7809 62.312 56.9409C62.2126 57.0983 62.0717 57.2254 61.9049 57.3082C61.0195 57.797 60.1522 58.3186 59.3164 58.8039L59.0601 58.9618C59.0377 51.3178 59.0144 43.6739 58.9902 36.0299L62.3867 38.0549Z" fill="black"/>
<path d="M49.7061 30.4862C50.6718 29.9276 51.6271 29.3766 52.5753 28.8166C52.9454 28.5973 53.217 28.8243 53.5033 28.9877L67.0649 36.7506C67.2846 36.8544 67.4684 37.0214 67.5928 37.2303C67.6627 37.3773 67.6925 37.5401 67.6793 37.7023C67.6591 38.1709 67.6451 39.4446 67.6214 41.1763L49.7061 30.4862Z" fill="black"/>
<path d="M64.3105 39.2023L67.6218 41.1784C67.6434 44.8452 67.7035 48.5105 67.6693 52.1779C67.7122 52.7314 67.5895 53.2851 67.3167 53.7686C66.9905 54.1991 66.5732 54.5522 66.0947 54.8028C65.5297 55.1726 64.9446 55.5107 64.342 55.8153L64.3105 39.2023Z" fill="black"/>
<path d="M54.8018 27.5262C55.919 26.8761 56.8324 26.3705 57.7164 25.8224C57.8745 25.725 58.0591 25.6793 58.2443 25.6918C58.4296 25.7044 58.6063 25.7744 58.7499 25.8922C61.1799 27.2993 63.6295 28.6763 66.0435 30.1113C67.313 30.8661 67.8556 32.7927 67.6496 34.4127C67.63 34.565 67.6063 34.692 67.5867 34.7779L54.8018 27.5262Z" fill="black"/>
<path d="M164.261 36.0153L164.247 43.3585L161.856 43.3445C161.861 39.4807 161.866 35.6168 161.87 31.7529L164.148 31.7103L169.455 38.7568L169.385 31.7243H171.989L171.998 43.3026L169.694 43.3166L164.261 36.0153Z" fill="black"/>
<path d="M127.444 31.785L130.062 31.7271V36.3825H134.662V31.7738L137.323 31.7312C137.304 35.5798 137.285 39.4283 137.265 43.2768L134.69 43.2907C134.676 41.7578 134.662 40.2245 134.648 38.6911H130.017C130.021 40.238 130.026 41.785 130.031 43.3319L127.441 43.3033L127.444 31.785Z" fill="black"/>
<path d="M120.005 43.304C116.83 43.2949 114.724 41.7678 113.911 39.2225C113.516 38.0027 113.522 36.6885 113.928 35.4723C114.334 34.2562 115.119 33.2019 116.167 32.4637C117.256 31.7395 118.54 31.3627 119.848 31.3829C121.156 31.403 122.427 31.8194 123.493 32.5769C123.758 32.7742 124.001 32.9971 124.222 33.2424L122.666 35.0725C122.298 34.6712 121.852 34.3486 121.356 34.1244C120.86 33.9002 120.324 33.779 119.779 33.7682C119.07 33.7842 118.378 33.9971 117.783 34.3833C117.18 34.8305 116.729 35.4523 116.492 36.1643C116.255 36.8764 116.242 37.6442 116.456 38.3636C116.617 38.9379 116.913 39.4653 117.319 39.9019C117.725 40.3385 118.23 40.6716 118.791 40.8733C119.468 41.0732 120.189 41.0724 120.866 40.871C121.543 40.6696 122.147 40.2762 122.605 39.7385L124.204 41.323C124.04 41.5224 123.861 41.7091 123.668 41.8816C122.648 42.7646 121.353 43.2672 120.005 43.304Z" fill="black"/>
<path d="M90.4014 31.7417H99.0867V34.0342L93.0025 34.0628L93.0165 36.3972L98.5064 36.3686C98.4971 37.1372 98.4876 37.9053 98.4778 38.6729L93.0165 38.7309L93.0025 43.3305L90.4133 43.3019L90.4014 31.7417Z" fill="black"/>
<path d="M102.399 31.7417H111.088V34.0342L105.003 34.0628L105.017 36.3972L110.507 36.3686C110.498 37.1372 110.488 37.9053 110.479 38.6729L105.017 38.7309L105.003 43.3305L102.413 43.3019L102.399 31.7417Z" fill="black"/>
<path d="M157.807 43.3166L155.233 43.3305C155.228 39.4769 155.223 35.6235 155.219 31.7703L157.793 31.7417C157.799 35.6005 157.804 39.4588 157.807 43.3166Z" fill="black"/>
<path d="M140.474 56.4787C139.939 56.422 139.423 56.2456 138.964 55.9626C138.8 55.8654 138.643 55.7559 138.495 55.6351L139.071 54.5598C139.24 54.6922 139.423 54.806 139.617 54.8992C140.022 55.0888 140.463 55.1868 140.91 55.1861C141.443 55.2036 141.604 55.0933 141.674 55.0311C141.766 54.9469 141.835 54.8393 141.872 54.7197C141.902 54.6047 141.898 54.4838 141.863 54.3705C141.806 54.2624 141.727 54.1677 141.631 54.0928C141.535 54.018 141.423 53.9648 141.304 53.9369C140.565 53.6618 140.35 53.7365 139.862 53.5556C139.38 53.412 138.968 53.0974 138.701 52.6709C138.556 52.3896 138.491 52.0733 138.515 51.7575C138.524 51.3212 138.683 50.9013 138.965 50.5685C139.247 50.2357 139.636 50.0105 140.065 49.9308C140.863 49.7174 141.713 49.8189 142.439 50.2143C142.742 50.3886 143.013 50.6137 143.24 50.8798L142.438 51.8057C142.261 51.5823 142.035 51.4019 141.778 51.2778C141.561 51.1746 141.326 51.1157 141.086 51.1048C140.846 51.0939 140.606 51.1311 140.381 51.2143C140.292 51.2428 140.21 51.2891 140.139 51.3503C140.068 51.4115 140.01 51.4863 139.969 51.5704C139.945 51.6498 139.937 51.7331 139.945 51.8157C139.953 51.8983 139.977 51.9784 140.017 52.0515C140.237 52.4705 140.836 52.312 141.693 52.6102C142.02 52.6956 142.328 52.8466 142.595 53.054C142.863 53.2613 143.086 53.5208 143.251 53.8168C143.389 54.1705 143.411 54.5587 143.314 54.9257C143.034 56.1896 142.016 56.4605 140.474 56.4787Z" fill="black"/>
<path d="M103.479 56.6169C103.447 54.4978 103.416 52.3797 103.385 50.2625H104.856C104.862 51.91 104.868 53.5575 104.875 55.205L108.044 55.1861C108.032 55.6702 108.019 56.1544 108.007 56.6385L103.479 56.6169Z" fill="black"/>
<path d="M80.9924 31.3996C80.1855 31.384 79.3836 31.5292 78.6335 31.8268C77.8833 32.1244 77.1999 32.5683 76.6231 33.1328C76.0463 33.6972 75.5876 34.3708 75.2739 35.1144C74.9602 35.8579 74.7976 36.6565 74.7958 37.4635C74.7757 38.6857 75.1194 39.8862 75.7831 40.9126C76.4468 41.9389 77.4007 42.7449 78.5235 43.2279C79.6463 43.711 80.8873 43.8495 82.0889 43.6257C83.2906 43.4019 84.3986 42.826 85.2722 41.9711C86.1457 41.1162 86.7455 40.0209 86.9952 38.8244C87.245 37.6279 87.1335 36.3841 86.6748 35.2512C86.2161 34.1182 85.431 33.1471 84.4192 32.4613C83.4075 31.7756 82.2147 31.406 80.9924 31.3996ZM81.1006 40.9375C80.6319 40.9598 80.1636 40.8843 79.7256 40.716C79.2875 40.5477 78.8892 40.2902 78.556 39.9598C78.2227 39.6294 77.9617 39.2334 77.7896 38.7968C77.6175 38.3602 77.538 37.8927 77.5561 37.4237C77.5181 36.968 77.5743 36.5094 77.7212 36.0763C77.8681 35.6433 78.1025 35.2451 78.4099 34.9065C78.7173 34.568 79.091 34.2963 79.5079 34.1084C79.9248 33.9205 80.3759 33.8203 80.8332 33.8143C81.3018 33.7944 81.7696 33.8711 82.2074 34.0396C82.6452 34.2081 83.0436 34.4648 83.378 34.7938C83.7124 35.1229 83.9755 35.5171 84.1511 35.9521C84.3266 36.3871 84.4109 36.8536 84.3986 37.3225C84.4313 37.7791 84.3708 38.2375 84.2207 38.6699C84.0706 39.1024 83.8341 39.4997 83.5256 39.8379C83.2171 40.1761 82.843 40.4479 82.4261 40.637C82.0093 40.826 81.5583 40.9283 81.1006 40.9375Z" fill="black"/>
<path d="M147.388 31.4575L145.079 31.4631L139.882 43.3236L142.761 43.3166L143.862 40.7036L148.548 40.7203L149.673 43.2879L152.588 43.3166L147.388 31.4575ZM144.778 38.4062L146.211 34.4867L147.699 38.4062H144.778Z" fill="black"/>
<path d="M132.231 54.013C132.064 53.6469 131.779 53.3479 131.421 53.1645C131.655 52.9822 131.837 52.7414 131.949 52.4662C132.041 52.1917 132.069 51.8995 132.031 51.6124C131.992 51.3253 131.888 51.0509 131.726 50.8106C131.55 50.5638 131.321 50.3592 131.056 50.2117C130.791 50.0641 130.497 49.9772 130.194 49.9573H126.835C126.847 52.1834 126.86 54.4096 126.873 56.6357L128.703 56.6169L130.759 56.6357C131.088 56.5537 131.394 56.397 131.652 56.1778C131.91 55.9586 132.115 55.6828 132.249 55.3718C132.42 54.9336 132.413 54.4462 132.231 54.013ZM128.325 51.1269L129.967 51.1458C130.106 51.2097 130.223 51.3121 130.306 51.4408C130.388 51.5695 130.432 51.7191 130.432 51.872C130.432 52.0248 130.388 52.1745 130.306 52.3032C130.223 52.4319 130.106 52.5343 129.967 52.5982H128.306C128.313 52.1085 128.319 51.6181 128.325 51.1269ZM130.308 55.4424L128.344 55.4472L128.326 53.7518L130.082 53.7378C130.217 53.7353 130.352 53.7617 130.476 53.8155C130.601 53.8692 130.712 53.9489 130.803 54.0493C130.937 54.2213 131.005 54.4357 130.994 54.6536C130.984 54.8714 130.895 55.0782 130.745 55.2363C130.624 55.3481 130.472 55.42 130.308 55.4424Z" fill="black"/>
<path d="M117.895 50.0901H116.622L113.759 56.6275L115.346 56.6233L115.954 55.1834L118.537 55.1925L119.157 56.6079L120.763 56.6233C119.806 54.4465 118.85 52.2688 117.895 50.0901ZM116.456 53.9202L117.247 51.7597L118.067 53.9202H116.456Z" fill="black"/>
</g>
<defs>
<clipPath id="clip0_1272_19655">
<rect width="144" height="44.8232" fill="white" transform="translate(28 20)"/>
</clipPath>
</defs>
</svg>
