<svg width="200" height="84" viewBox="0 0 200 84" fill="none" xmlns="http://www.w3.org/2000/svg">
<g clip-path="url(#clip0_1270_19088)">
<path d="M59.7275 48.4414V35.4468H70.7472C71.5741 35.4468 72.2372 35.5142 72.7436 35.6465C73.2476 35.7789 73.6367 35.9738 73.9082 36.2313C74.1798 36.4888 74.3633 36.8088 74.4538 37.1914C74.5468 37.5741 74.5908 38.0144 74.5908 38.5101C74.5908 38.8711 74.559 39.1912 74.4954 39.4655C74.4318 39.7422 74.3486 39.9805 74.2459 40.185C74.1431 40.3896 74.0257 40.558 73.8935 40.6976C73.7614 40.8372 73.6269 40.9503 73.4899 41.0393C73.1693 41.2535 72.8024 41.3738 72.3889 41.4027C72.9051 41.4315 73.3626 41.5543 73.7639 41.7757C73.9351 41.8719 74.104 41.9922 74.2679 42.1342C74.4318 42.2762 74.5786 42.4567 74.7058 42.666C74.8331 42.8754 74.9407 43.1257 75.019 43.4096C75.0997 43.6936 75.1389 44.0232 75.1389 44.3962C75.1389 44.8486 75.1169 45.2601 75.0753 45.6355C75.0312 46.0109 74.9456 46.3478 74.8135 46.6462C74.6814 46.9446 74.493 47.2069 74.2459 47.4331C73.9988 47.6593 73.6709 47.847 73.2599 47.9962C72.8488 48.1454 72.3473 48.2561 71.7552 48.3307C71.1607 48.4029 70.4511 48.4414 69.6266 48.4414H59.7275ZM69.0761 40.8612C69.6389 40.8612 70.1233 40.8492 70.5294 40.8275C70.9356 40.8059 71.283 40.7626 71.5692 40.7C71.8555 40.6374 72.0879 40.5508 72.2665 40.4425C72.4451 40.3342 72.5822 40.1898 72.6849 40.0142C72.7852 39.8385 72.8537 39.6291 72.888 39.3837C72.9222 39.1382 72.9394 38.847 72.9394 38.5077C72.9394 38.1468 72.9002 37.8532 72.8195 37.627C72.7387 37.4008 72.5968 37.2275 72.3889 37.1072C72.1834 36.9869 71.902 36.9051 71.5497 36.8618C71.1974 36.8184 70.7447 36.7992 70.1942 36.7992H61.3766V40.8612H69.0737H69.0761ZM69.0761 47.089C69.7171 47.089 70.275 47.0794 70.7447 47.0601C71.2145 47.0409 71.6133 46.9976 71.9411 46.9326C72.269 46.8676 72.5308 46.7738 72.7314 46.6535C72.932 46.5331 73.0886 46.3719 73.2011 46.1722C73.3137 45.9724 73.3895 45.727 73.4287 45.4406C73.4678 45.1543 73.4899 44.8053 73.4899 44.4011C73.4899 44.0858 73.4703 43.8091 73.4287 43.5757C73.3895 43.3422 73.3137 43.1449 73.2011 42.9837C73.0886 42.8224 72.932 42.6925 72.7314 42.5938C72.5308 42.4952 72.2665 42.4182 71.9411 42.3604C71.6133 42.3051 71.2169 42.2666 70.7447 42.2473C70.275 42.2281 69.7171 42.2184 69.0761 42.2184H61.379V47.0914H69.0761V47.089Z" fill="black"/>
<path d="M82.5177 38.6954V44.0569C82.5177 44.6537 82.5642 45.159 82.6547 45.5681C82.7477 45.9796 82.9312 46.3093 83.2052 46.5596C83.4817 46.8098 83.8707 46.9927 84.3771 47.1034C84.8811 47.2141 85.5491 47.2719 86.376 47.2719C87.2715 47.2719 88.0055 47.2069 88.5755 47.0794C89.1456 46.9518 89.5958 46.7689 89.9236 46.5355C90.2515 46.3021 90.4766 46.0181 90.5989 45.6884C90.7212 45.3588 90.7849 44.993 90.7849 44.5911V38.693H92.4363V48.439H90.7849V46.7352C90.7041 46.9181 90.5696 47.1203 90.3812 47.3392C90.1928 47.5582 89.9065 47.7652 89.5297 47.9529C89.1505 48.1406 88.6612 48.2994 88.0617 48.4294C87.4623 48.5593 86.7161 48.6243 85.828 48.6243C85.0891 48.6243 84.4554 48.581 83.9245 48.4943C83.3936 48.4077 82.9458 48.2778 82.5764 48.1045C82.207 47.9336 81.9109 47.7195 81.6883 47.4668C81.4656 47.2141 81.2919 46.9181 81.172 46.5836C81.0521 46.2491 80.9714 45.8737 80.9323 45.4622C80.8931 45.0507 80.8711 44.5983 80.8711 44.1098L80.8809 38.6954H82.5226H82.5177Z" fill="black"/>
<path d="M108.068 48.4414V43.027C108.068 42.423 108.022 41.9152 107.931 41.4989C107.838 41.085 107.657 40.7505 107.381 40.4954C107.104 40.2403 106.715 40.0575 106.211 39.9444C105.707 39.8313 105.042 39.7759 104.215 39.7759C103.319 39.7759 102.588 39.8409 102.018 39.9708C101.447 40.1008 100.997 40.2837 100.672 40.5219C100.346 40.7601 100.119 41.0441 99.9966 41.3762C99.8743 41.7083 99.8107 42.0788 99.8107 42.4855V48.4414H98.1592V38.6954H99.8107V40.3198C99.9305 40.043 100.104 39.8048 100.327 39.605C100.55 39.4053 100.804 39.2345 101.083 39.0925C101.364 38.9529 101.668 38.8374 101.996 38.7508C102.323 38.6641 102.649 38.5968 102.977 38.5486C103.304 38.5005 103.62 38.4692 103.926 38.4524C104.232 38.4355 104.513 38.4259 104.765 38.4259C105.499 38.4259 106.13 38.4716 106.661 38.5607C107.192 38.6521 107.642 38.7845 108.012 38.9577C108.381 39.1334 108.677 39.35 108.902 39.6099C109.125 39.8698 109.299 40.1706 109.423 40.5099C109.546 40.8516 109.629 41.2318 109.668 41.6529C109.707 42.074 109.729 42.5313 109.729 43.027L109.72 48.4414H108.068Z" fill="black"/>
<path d="M115.455 35.4468H117.106V42.5529H117.647L123.712 38.6954H126.188L119.169 43.2291L126.462 48.4414H123.986L117.654 43.7706H117.104V48.4414H115.452V35.4468H115.455Z" fill="black"/>
<path d="M136.043 48.6268C134.942 48.6268 134.007 48.5522 133.239 48.403C132.471 48.2538 131.844 47.9963 131.365 47.6281C130.883 47.2623 130.533 46.7714 130.315 46.1554C130.097 45.5417 129.987 44.7669 129.987 43.838C129.987 42.7719 130.097 41.8912 130.315 41.1933C130.533 40.4979 130.883 39.942 131.365 39.5305C131.847 39.119 132.471 38.8302 133.239 38.6666C134.007 38.503 134.942 38.4211 136.043 38.4211C136.828 38.4211 137.508 38.4765 138.086 38.5896C138.663 38.7027 139.155 38.8663 139.566 39.0805C139.977 39.2947 140.31 39.5546 140.564 39.8578C140.819 40.161 141.019 40.4834 141.166 40.8179C141.313 41.1524 141.413 41.5471 141.467 41.9971C141.521 42.4495 141.548 42.926 141.548 43.4265L141.411 43.9679H131.639C131.639 44.6947 131.712 45.2891 131.861 45.7535C132.011 46.2179 132.258 46.5572 132.6 46.7714C132.945 46.9856 133.398 47.1227 133.958 47.1805C134.521 47.2383 135.213 47.2671 136.04 47.2671C136.796 47.2671 137.423 47.2479 137.919 47.207C138.416 47.1661 138.81 47.0915 139.101 46.9784C139.392 46.8653 139.598 46.7088 139.715 46.5091C139.833 46.3094 139.891 46.0471 139.891 45.727H141.543C141.543 46.2516 141.45 46.6992 141.264 47.0674C141.078 47.438 140.77 47.7364 140.339 47.965C139.908 48.1936 139.343 48.3596 138.641 48.4631C137.939 48.5666 137.07 48.6195 136.04 48.6195L136.043 48.6268ZM136.043 39.7784C135.492 39.7784 135 39.7904 134.567 39.8121C134.134 39.8337 133.755 39.8842 133.432 39.9612C133.109 40.0383 132.83 40.1465 132.603 40.2909C132.375 40.4353 132.189 40.6038 132.047 40.7987C131.905 40.9936 131.803 41.2679 131.737 41.6193C131.671 41.9706 131.639 42.3965 131.639 42.8923H139.896C139.896 42.2329 139.825 41.7155 139.681 41.3401C139.537 40.9647 139.311 40.6567 139.001 40.4137C138.69 40.1706 138.294 40.0046 137.804 39.9155C137.317 39.8265 136.73 39.7808 136.04 39.7808L136.043 39.7784Z" fill="black"/>
<path d="M155.805 41.8672C155.805 41.4605 155.775 41.1236 155.714 40.8565C155.653 40.5894 155.511 40.3752 155.289 40.214C155.066 40.0527 154.733 39.9396 154.295 39.8747C153.857 39.8097 153.258 39.7784 152.502 39.7784C151.746 39.7784 151.161 39.841 150.696 39.9685C150.231 40.096 149.867 40.2741 149.605 40.5051C149.341 40.7362 149.162 41.0129 149.067 41.3354C148.971 41.6578 148.925 42.0164 148.925 42.4086V48.4415H147.273V38.6955H148.925V40.2428C148.981 40.0672 149.089 39.8747 149.243 39.6629C149.397 39.4511 149.632 39.2538 149.948 39.0709C150.263 38.888 150.672 38.734 151.173 38.6089C151.675 38.4862 152.301 38.4236 153.052 38.4236C153.914 38.4236 154.613 38.4982 155.152 38.6474C155.69 38.7966 156.111 39.018 156.412 39.3067C156.713 39.5979 156.916 39.9565 157.023 40.3848C157.128 40.8132 157.182 41.3065 157.182 41.8648H155.807L155.805 41.8672Z" fill="black"/>
<path d="M53.1368 35.6417H38.9463V37.3262H53.1368V35.6417Z" fill="black"/>
<path d="M49.711 40.9358H39.1904V42.6203H49.711V40.9358Z" fill="black"/>
<path d="M53.1368 46.7112H38.9463V48.3957H53.1368V46.7112Z" fill="black"/>
</g>
<defs>
<clipPath id="clip0_1270_19088">
<rect width="149" height="45" fill="white" transform="translate(25 20)"/>
</clipPath>
</defs>
</svg>
