<svg xmlns="http://www.w3.org/2000/svg" width="39" height="38" fill="none" opt="1"><g fill="#2DB1FF" clip-path="url(#a)"><path d="m16.016 26.149 3.038-3.82a.78.78 0 0 1 1.232 0l3.038 3.82a.83.83 0 0 1 0 1.02l-3.038 3.82a.78.78 0 0 1-1.232 0l-3.038-3.82a.83.83 0 0 1 0-1.02" opacity=".62"/><path d="M25.001 12.98a.78.78 0 0 0-1.232 0l-3.038 3.82a.83.83 0 0 0 0 1.02l3.038 3.82a.78.78 0 0 0 1.232 0l3.039-3.82a.83.83 0 0 0 0-1.02zm-9.44 0a.78.78 0 0 0-1.232 0l-3.038 3.82a.83.83 0 0 0 0 1.02l3.038 3.82a.78.78 0 0 0 1.232 0l3.039-3.82a.83.83 0 0 0 0-1.02zm7.763-2.15-3.038-3.82a.78.78 0 0 0-1.232 0l-3.038 3.82a.83.83 0 0 0 0 1.021l3.038 3.82a.78.78 0 0 0 1.232 0l3.038-3.82a.83.83 0 0 0 0-1.02"/><g filter="url(#b)" opacity=".4"><path d="m16.016 24.19 3.038-3.82a.78.78 0 0 1 1.232 0l3.038 3.82a.83.83 0 0 1 0 1.02l-3.038 3.82a.78.78 0 0 1-1.232 0l-3.038-3.82a.83.83 0 0 1 0-1.02" opacity=".62"/><path d="M25.001 11.021a.78.78 0 0 0-1.232 0l-3.038 3.82a.83.83 0 0 0 0 1.021l3.038 3.82a.78.78 0 0 0 1.232 0l3.039-3.82a.83.83 0 0 0 0-1.02zm-9.44 0a.78.78 0 0 0-1.232 0l-3.038 3.82a.83.83 0 0 0 0 1.021l3.038 3.82a.78.78 0 0 0 1.232 0l3.039-3.82a.83.83 0 0 0 0-1.02zm7.763-2.15-3.038-3.82a.78.78 0 0 0-1.232 0l-3.038 3.82a.83.83 0 0 0 0 1.021l3.038 3.82a.78.78 0 0 0 1.232 0l3.038-3.82a.83.83 0 0 0 0-1.02"/></g></g><defs><clipPath id="a"><path fill="#fff" d="M.667 0h38v38h-38z"/></clipPath><filter id="b" width="45.1" height="52.582" x="-2.885" y="-9.25" color-interpolation-filters="sRGB" filterUnits="userSpaceOnUse"><feFlood flood-opacity="0" result="BackgroundImageFix"/><feBlend in="SourceGraphic" in2="BackgroundImageFix" result="shape"/><feGaussianBlur result="effect1_foregroundBlur_14086_68535" stdDeviation="7"/></filter></defs></svg>