<svg xmlns="http://www.w3.org/2000/svg" width="199" height="42" fill="none" opt="1"><g fill="#000" clip-path="url(#a)"><path d="M4.837 25.578a3.4 3.4 0 0 0 1.226 2.155c.77.547 1.7.817 2.641.768a4.5 4.5 0 0 0 1.723-.306 2.9 2.9 0 0 0 1.184-.844 1.88 1.88 0 0 0 .434-1.21 1.68 1.68 0 0 0-.534-1.283 4.1 4.1 0 0 0-1.343-.803c-.537-.202-1.291-.431-2.252-.695a27.4 27.4 0 0 1-3.479-1.116 5.86 5.86 0 0 1-2.356-1.794Q1.1 19.226 1.1 17.158a5.2 5.2 0 0 1 .991-3.08 6.6 6.6 0 0 1 2.69-2.173 8.8 8.8 0 0 1 3.751-.786 9.1 9.1 0 0 1 3.74.73 6.7 6.7 0 0 1 2.628 2.01q.383.487.662 1.043c.409.855.61 1.797.585 2.746H11.97a3.44 3.44 0 0 0-1.17-2.128 3.62 3.62 0 0 0-2.412-.785 4.2 4.2 0 0 0-1.574.274 2.5 2.5 0 0 0-1.053.772 1.86 1.86 0 0 0-.376 1.137 1.56 1.56 0 0 0 .506 1.196c.38.336.822.589 1.302.744q.783.275 2.167.657a24 24 0 0 1 3.55 1.15 6.2 6.2 0 0 1 2.412 1.881q1.033 1.282 1.033 3.477a5.07 5.07 0 0 1-1.033 3.104 6.96 6.96 0 0 1-2.787 2.187 9.4 9.4 0 0 1-3.926.803q-3.266 0-5.4-1.547a5.95 5.95 0 0 1-1.767-1.891 6.05 6.05 0 0 1-.793-3.101zM23.226 31.54V15.223h-6.262V11.59h16.754v3.62h-6.283v16.316zM59.282 31.54V15.212h-6.261V11.59h16.753v3.609h-6.282v16.327zM71.988 31.54V11.59h13.613v3.609h-9.435v4.554h9.142v3.602h-9.142v4.562H85.6v3.623zM92.435 11.59h-4.189v19.95h4.189zM96.18 31.54l-3.743-19.95h3.856l3.713 19.95h-.396l3.743-19.95h3.744l-3.771 19.95z"/><path d="M111.283 11.59h-4.188v19.95h4.188zM114.576 31.54V11.59h4.189v19.95zM122.062 31.54V11.59h8.385l6.279 19.95V11.59h4.184v19.95h-8.355l-6.309-19.95v19.95zM144.382 31.539V11.59h8.239a11.25 11.25 0 0 1 5.422 1.312 9.8 9.8 0 0 1 3.807 3.59 9.6 9.6 0 0 1 1.379 5.07 9.6 9.6 0 0 1-1.379 5.075 9.8 9.8 0 0 1-3.807 3.59 11.25 11.25 0 0 1-5.422 1.312zm7.882-3.62a7.1 7.1 0 0 0 3.422-.812 5.8 5.8 0 0 0 2.336-2.264 6.5 6.5 0 0 0 .831-3.28 6.5 6.5 0 0 0-.831-3.277 5.8 5.8 0 0 0-2.326-2.263 7.03 7.03 0 0 0-3.422-.813h-3.654V27.92zM43.524 11.59h-4.38L32.48 23.563l2.18 3.914z"/><path d="M43.406 11.59h4.38l6.664 11.973-2.18 3.914z"/><path d="m34.658 27.475 2.013 4.031h13.59l2.013-4.03z"/></g><defs><clipPath id="a"><path fill="#fff" d="M.647 11.118h163.258v21H.647z"/></clipPath></defs></svg>