<svg xmlns="http://www.w3.org/2000/svg" width="121" height="122" fill="none" opt="1"><g filter="url(#a)"><ellipse cx="65.498" cy="55" fill="url(#b)" rx="54.582" ry="55"/><path stroke="#131217" stroke-dasharray="2 2" stroke-opacity=".32" d="M120.004 52.066q.05.972.067 1.952l-.5.009a53 53 0 0 1 0 1.946l.5.009a57 57 0 0 1-.067 1.952l-.5-.026a56 56 0 0 1-.135 1.936l.498.043q-.086.978-.204 1.946l-.497-.06a55 55 0 0 1-.27 1.917l.494.079a58 58 0 0 1-.341 1.926l-.491-.096a56 56 0 0 1-.406 1.896l.487.114a54 54 0 0 1-.477 1.896l-.483-.13a55 55 0 0 1-.539 1.86l.478.147a58 58 0 0 1-.612 1.86l-.472-.165a54 54 0 0 1-.671 1.82l.466.18a54 54 0 0 1-.742 1.81l-.459-.198a53 53 0 0 1-.799 1.766l.452.214q-.419.886-.869 1.753l-.444-.23a56 56 0 0 1-.922 1.705l.435.245q-.48.853-.991 1.686l-.426-.26a56 56 0 0 1-1.041 1.635l.417.275q-.541.817-1.109 1.613l-.407-.291a55 55 0 0 1-1.154 1.557l.396.305a55 55 0 0 1-1.219 1.529l-.386-.319q-.618.749-1.262 1.472l.374.332a55 55 0 0 1-1.325 1.44l-.362-.346q-.669.702-1.362 1.378l.349.358a55 55 0 0 1-1.424 1.341l-.336-.37q-.717.652-1.457 1.279l.323.382q-.747.63-1.516 1.236l-.31-.393q-.761.6-1.543 1.172l.294.403q-.79.577-1.6 1.126l-.28-.414q-.802.543-1.624 1.058l.266.424a58 58 0 0 1-1.677 1.008l-.25-.433q-.838.483-1.695.938l.234.442q-.863.457-1.745.885l-.218-.45q-.87.423-1.759.814l.202.457a54 54 0 0 1-1.803.757l-.185-.465q-.9.358-1.814.685l.168.471q-.92.329-1.855.624l-.15-.477q-.922.292-1.857.551l.133.482q-.94.26-1.894.487l-.115-.486q-.942.224-1.895.415l.098.49a53 53 0 0 1-1.924.349l-.08-.493a55 55 0 0 1-1.917.276l.062.496q-.967.122-1.945.21l-.045-.498q-.963.085-1.935.138l.027.499q-.972.052-1.952.069l-.01-.5a53 53 0 0 1-1.945 0l-.009.5a55 55 0 0 1-1.952-.069l.027-.499a56 56 0 0 1-1.935-.138l-.045.498q-.978-.088-1.945-.21l.062-.496a55 55 0 0 1-1.917-.276l-.08.493a53 53 0 0 1-1.925-.349l.099-.49a54 54 0 0 1-1.895-.415l-.116.486a54 54 0 0 1-1.894-.487l.134-.482a53 53 0 0 1-1.857-.551l-.15.477a53 53 0 0 1-1.855-.624l.168-.471a54 54 0 0 1-1.814-.685l-.185.465a54 54 0 0 1-1.803-.757l.201-.457a53 53 0 0 1-1.758-.814l-.218.45q-.882-.427-1.745-.885l.234-.442a56 56 0 0 1-1.696-.938l-.25.433a58 58 0 0 1-1.676-1.008l.266-.424a54 54 0 0 1-1.624-1.058l-.28.414a55 55 0 0 1-1.6-1.126l.294-.403a54 54 0 0 1-1.544-1.172l-.31.393a55 55 0 0 1-1.515-1.236l.323-.382a55 55 0 0 1-1.457-1.278l-.336.37a55 55 0 0 1-1.424-1.342l.35-.358q-.694-.676-1.364-1.378l-.361.345q-.675-.707-1.325-1.439l.373-.332q-.644-.725-1.261-1.472l-.386.319a55 55 0 0 1-1.22-1.529l.397-.305a55 55 0 0 1-1.154-1.557l-.407.29a55 55 0 0 1-1.109-1.612l.417-.275a55 55 0 0 1-1.04-1.636l-.427.261q-.51-.832-.991-1.686l.435-.245a54 54 0 0 1-.922-1.705l-.444.23q-.45-.868-.87-1.753l.452-.214a55 55 0 0 1-.798-1.766l-.46.198q-.386-.897-.741-1.81l.466-.181a54 54 0 0 1-.671-1.819l-.472.165a55 55 0 0 1-.612-1.86l.478-.147q-.285-.924-.54-1.86l-.482.13q-.255-.942-.477-1.896l.487-.114a54 54 0 0 1-.406-1.896l-.49.096a55 55 0 0 1-.342-1.926l.494-.079a55 55 0 0 1-.27-1.918l-.497.061a56 56 0 0 1-.204-1.946l.498-.043a55 55 0 0 1-.135-1.936l-.5.026a56 56 0 0 1-.068-1.952l.5-.009a55 55 0 0 1 0-1.946l-.5-.009q.018-.98.068-1.952l.5.026q.05-.973.135-1.936l-.498-.043q.085-.978.204-1.946l.496.06q.12-.963.27-1.917l-.493-.079q.154-.968.341-1.926l.491.096q.187-.954.406-1.896l-.487-.114q.222-.954.477-1.896l.483.13q.254-.936.539-1.86l-.478-.147q.29-.937.612-1.86l.472.165q.32-.917.67-1.82l-.465-.18q.355-.913.742-1.81l.459.198q.384-.891.798-1.766l-.451-.214q.42-.885.869-1.753l.444.23q.446-.861.922-1.705l-.435-.245q.48-.853.99-1.686l.427.26q.507-.827 1.041-1.634l-.417-.276q.54-.817 1.109-1.612l.407.29a55 55 0 0 1 1.154-1.557l-.396-.305q.596-.776 1.22-1.529l.385.319q.618-.748 1.261-1.472l-.373-.332q.65-.731 1.325-1.44l.361.346q.67-.702 1.363-1.378l-.349-.358q.7-.684 1.424-1.341l.336.37q.717-.652 1.457-1.279l-.323-.381a55 55 0 0 1 1.516-1.237l.309.393q.761-.6 1.544-1.171l-.295-.404q.79-.577 1.6-1.126l.28.414a54 54 0 0 1 1.625-1.058l-.266-.424q.829-.518 1.676-1.008l.25.433q.84-.483 1.696-.938l-.234-.442q.864-.457 1.745-.885l.218.45q.87-.423 1.758-.814l-.201-.457a54 54 0 0 1 1.803-.757l.185.465q.9-.359 1.814-.685l-.168-.47a54 54 0 0 1 1.854-.625l.151.477a53 53 0 0 1 1.857-.551L51 1.961a54 54 0 0 1 1.894-.487l.116.486q.942-.225 1.895-.415l-.099-.49a54 54 0 0 1 1.925-.35l.08.494a54 54 0 0 1 1.917-.276l-.062-.496a54 54 0 0 1 1.945-.21l.045.498A54 54 0 0 1 62.59.577l-.027-.499a55 55 0 0 1 1.952-.07l.01.5a55 55 0 0 1 1.945 0l.009-.5q.98.018 1.952.07l-.027.5q.972.051 1.935.137l.045-.498q.978.089 1.945.21l-.062.496q.963.12 1.917.276l.08-.493q.968.157 1.924.349l-.098.49q.954.191 1.895.415l.115-.486a54 54 0 0 1 1.894.487l-.133.482q.936.26 1.857.55l.15-.476q.936.296 1.855.624l-.168.471q.915.327 1.814.685l.185-.465a54 54 0 0 1 1.803.757l-.202.457q.888.391 1.759.814l.218-.45q.882.428 1.745.885l-.234.442q.856.455 1.696.938l.25-.433q.847.49 1.676 1.008L94 8.674q.823.515 1.624 1.058l.28-.414q.81.549 1.6 1.126l-.294.403q.782.572 1.544 1.172l.31-.393q.768.604 1.515 1.237l-.323.381q.74.627 1.457 1.279l.336-.37q.724.657 1.424 1.34l-.349.359q.693.676 1.362 1.378l.362-.345q.675.708 1.325 1.439l-.374.332q.644.725 1.262 1.472l.386-.319q.623.753 1.219 1.529l-.396.305a55 55 0 0 1 1.154 1.557l.407-.29q.568.795 1.109 1.611l-.417.276q.534.808 1.041 1.636l.426-.261q.51.832.991 1.686l-.435.245q.475.843.922 1.705l.444-.23q.45.868.869 1.753l-.452.214q.415.875.799 1.766l.459-.198q.387.897.742 1.81l-.466.181q.351.901.671 1.819l.472-.165q.321.923.612 1.86l-.478.147q.285.924.539 1.86l.483-.13q.255.942.477 1.896l-.487.114q.219.942.406 1.896l.491-.096q.186.957.341 1.926l-.494.079q.151.954.27 1.918l.497-.061q.118.968.204 1.946l-.498.043a56 56 0 0 1 .135 1.936z"/><ellipse cx="54.582" cy="67" fill="url(#c)" rx="54.582" ry="55"/><path stroke="#131217" stroke-opacity=".32" d="M108.664 67c0 30.103-24.217 54.5-54.082 54.5S.5 97.103.5 67s24.217-54.5 54.082-54.5 54.082 24.397 54.082 54.5Z"/></g><defs><radialGradient id="b" cx="0" cy="0" r="1" gradientTransform="matrix(70.4603 -17.00006 15.19135 62.9637 46.146 39)" gradientUnits="userSpaceOnUse"><stop stop-color="#FF74BF"/><stop offset=".944" stop-color="#FF74BF" stop-opacity="0"/></radialGradient><radialGradient id="c" cx="0" cy="0" r="1" gradientTransform="matrix(69.46802 94.00034 -83.24552 61.52 7.94 58.5)" gradientUnits="userSpaceOnUse"><stop stop-color="#E08CEE"/><stop offset=".944" stop-color="#E08CEE" stop-opacity="0"/></radialGradient><filter id="a" width="128.08" height="130" x="-4" y="-4" color-interpolation-filters="sRGB" filterUnits="userSpaceOnUse"><feFlood flood-opacity="0" result="BackgroundImageFix"/><feGaussianBlur in="BackgroundImageFix" stdDeviation="2"/><feComposite in2="SourceAlpha" operator="in" result="effect1_backgroundBlur_10724_317513"/><feBlend in="SourceGraphic" in2="effect1_backgroundBlur_10724_317513" result="shape"/></filter></defs></svg>