<svg width="62" height="62" viewBox="0 0 62 62" fill="none" xmlns="http://www.w3.org/2000/svg">
<g clip-path="url(#clip0_1682_45872)">
<path fill-rule="evenodd" clip-rule="evenodd" d="M14.6152 19.6499L21.857 41.9321H26.5146L32.7555 22.7292H43.1004L36.2902 28.7485L37.8066 31.3016C38.1264 31.1366 38.4668 31.0025 38.8279 30.8993C39.1993 30.7962 39.5603 30.7446 39.911 30.7446C41.1489 30.7446 42.1496 31.1469 42.913 31.9515C43.6866 32.7562 44.0735 33.7774 44.0735 35.0153C44.0735 35.8406 43.8981 36.573 43.5474 37.2126C43.1966 37.8419 42.7118 38.3422 42.0928 38.7136C41.4739 39.0849 40.7569 39.2758 39.942 39.2861C39.0342 39.2964 38.2089 39.0488 37.4662 38.5434C36.7235 38.0276 36.2025 37.29 35.9033 36.3306L32.7776 37.1971C33.0974 38.2494 33.6081 39.1623 34.3095 39.936C35.0213 40.7097 35.8621 41.308 36.8318 41.731C37.8015 42.1436 38.8382 42.3499 39.942 42.3499C41.3346 42.3499 42.588 42.0353 43.7021 41.406C44.8265 40.7767 45.7189 39.9102 46.3791 38.8064C47.0496 37.7026 47.3849 36.4389 47.3849 35.0153C47.3849 33.6949 47.1012 32.5034 46.5338 31.4409C45.9768 30.3681 45.1824 29.5222 44.1509 28.9032C43.3879 28.4378 42.5233 28.1445 41.5572 28.0233L47.0599 22.7292V19.6499H33.7563H31.2575H30.3985L24.1471 38.6671L17.973 19.6499H14.6152Z" fill="url(#paint0_radial_1682_45872)"/>
<path fill-rule="evenodd" clip-rule="evenodd" d="M14.6152 19.6499L21.857 41.9321H26.5146L32.7555 22.7292H43.1004L36.2902 28.7485L37.8066 31.3016C38.1264 31.1366 38.4668 31.0025 38.8279 30.8993C39.1993 30.7962 39.5603 30.7446 39.911 30.7446C41.1489 30.7446 42.1496 31.1469 42.913 31.9515C43.6866 32.7562 44.0735 33.7774 44.0735 35.0153C44.0735 35.8406 43.8981 36.573 43.5474 37.2126C43.1966 37.8419 42.7118 38.3422 42.0928 38.7136C41.4739 39.0849 40.7569 39.2758 39.942 39.2861C39.0342 39.2964 38.2089 39.0488 37.4662 38.5434C36.7235 38.0276 36.2025 37.29 35.9033 36.3306L32.7776 37.1971C33.0974 38.2494 33.6081 39.1623 34.3095 39.936C35.0213 40.7097 35.8621 41.308 36.8318 41.731C37.8015 42.1436 38.8382 42.3499 39.942 42.3499C41.3346 42.3499 42.588 42.0353 43.7021 41.406C44.8265 40.7767 45.7189 39.9102 46.3791 38.8064C47.0496 37.7026 47.3849 36.4389 47.3849 35.0153C47.3849 33.6949 47.1012 32.5034 46.5338 31.4409C45.9768 30.3681 45.1824 29.5222 44.1509 28.9032C43.3879 28.4378 42.5233 28.1445 41.5572 28.0233L47.0599 22.7292V19.6499H33.7563H31.2575H30.3985L24.1471 38.6671L17.973 19.6499H14.6152Z" fill="url(#paint1_radial_1682_45872)"/>
<g filter="url(#filter0_f_1682_45872)">
<path fill-rule="evenodd" clip-rule="evenodd" d="M17 22L24.2417 44.2822H28.8993L35.1403 25.0793H45.4852L38.675 31.0986L40.1914 33.6517C40.5112 33.4867 40.8516 33.3526 41.2127 33.2494C41.584 33.1463 41.9451 33.0947 42.2958 33.0947C43.5337 33.0947 44.5343 33.497 45.2977 34.3016C46.0714 35.1063 46.4583 36.1275 46.4583 37.3654C46.4583 38.1907 46.2829 38.9231 45.9321 39.5627C45.5814 40.192 45.0966 40.6923 44.4776 41.0637C43.8587 41.435 43.1417 41.6259 42.3268 41.6362C41.419 41.6465 40.5937 41.3989 39.851 40.8935C39.1082 40.3777 38.5873 39.6401 38.2881 38.6807L35.1624 39.5472C35.4822 40.5995 35.9928 41.5124 36.6943 42.2861C37.4061 43.0598 38.2468 43.6581 39.2165 44.0811C40.1862 44.4937 41.223 44.7 42.3268 44.7C43.7194 44.7 44.9728 44.3854 46.0869 43.7561C47.2113 43.1268 48.1036 42.2603 48.7638 41.1565C49.4344 40.0527 49.7696 38.789 49.7696 37.3654C49.7696 36.045 49.486 34.8535 48.9186 33.791C48.3615 32.7182 47.5672 31.8723 46.5356 31.2533C45.7726 30.7879 44.9081 30.4946 43.9419 30.3734L49.4447 25.0793V22H36.141H33.6423H32.7832L26.5318 41.0172L20.3578 22H17Z" fill="url(#paint2_radial_1682_45872)"/>
<path fill-rule="evenodd" clip-rule="evenodd" d="M17 22L24.2417 44.2822H28.8993L35.1403 25.0793H45.4852L38.675 31.0986L40.1914 33.6517C40.5112 33.4867 40.8516 33.3526 41.2127 33.2494C41.584 33.1463 41.9451 33.0947 42.2958 33.0947C43.5337 33.0947 44.5343 33.497 45.2977 34.3016C46.0714 35.1063 46.4583 36.1275 46.4583 37.3654C46.4583 38.1907 46.2829 38.9231 45.9321 39.5627C45.5814 40.192 45.0966 40.6923 44.4776 41.0637C43.8587 41.435 43.1417 41.6259 42.3268 41.6362C41.419 41.6465 40.5937 41.3989 39.851 40.8935C39.1082 40.3777 38.5873 39.6401 38.2881 38.6807L35.1624 39.5472C35.4822 40.5995 35.9928 41.5124 36.6943 42.2861C37.4061 43.0598 38.2468 43.6581 39.2165 44.0811C40.1862 44.4937 41.223 44.7 42.3268 44.7C43.7194 44.7 44.9728 44.3854 46.0869 43.7561C47.2113 43.1268 48.1036 42.2603 48.7638 41.1565C49.4344 40.0527 49.7696 38.789 49.7696 37.3654C49.7696 36.045 49.486 34.8535 48.9186 33.791C48.3615 32.7182 47.5672 31.8723 46.5356 31.2533C45.7726 30.7879 44.9081 30.4946 43.9419 30.3734L49.4447 25.0793V22H36.141H33.6423H32.7832L26.5318 41.0172L20.3578 22H17Z" fill="url(#paint3_radial_1682_45872)"/>
</g>
</g>
<defs>
<filter id="filter0_f_1682_45872" x="3" y="8" width="60.7695" height="50.7002" filterUnits="userSpaceOnUse" color-interpolation-filters="sRGB">
<feFlood flood-opacity="0" result="BackgroundImageFix"/>
<feBlend mode="normal" in="SourceGraphic" in2="BackgroundImageFix" result="shape"/>
<feGaussianBlur stdDeviation="7" result="effect1_foregroundBlur_1682_45872"/>
</filter>
<radialGradient id="paint0_radial_1682_45872" cx="0" cy="0" r="1" gradientUnits="userSpaceOnUse" gradientTransform="translate(49.2764 41.9321) rotate(-158.412) scale(65.6065 86.4718)">
<stop stop-color="#00A3FF"/>
<stop offset="0.943718" stop-color="#00A3FF" stop-opacity="0"/>
</radialGradient>
<radialGradient id="paint1_radial_1682_45872" cx="0" cy="0" r="1" gradientUnits="userSpaceOnUse" gradientTransform="translate(14.4605 17.0194) rotate(43.6432) scale(30.4917 114.749)">
<stop stop-color="#FF7272"/>
<stop offset="0.265477" stop-color="#FF72A7"/>
<stop offset="1" stop-color="#7A51FF" stop-opacity="0"/>
</radialGradient>
<radialGradient id="paint2_radial_1682_45872" cx="0" cy="0" r="1" gradientUnits="userSpaceOnUse" gradientTransform="translate(51.6612 44.2822) rotate(-158.412) scale(65.6065 86.4718)">
<stop stop-color="#00A3FF"/>
<stop offset="0.943718" stop-color="#00A3FF" stop-opacity="0"/>
</radialGradient>
<radialGradient id="paint3_radial_1682_45872" cx="0" cy="0" r="1" gradientUnits="userSpaceOnUse" gradientTransform="translate(16.8453 19.3695) rotate(43.6432) scale(30.4917 114.749)">
<stop stop-color="#FF7272"/>
<stop offset="0.265477" stop-color="#FF72A7"/>
<stop offset="1" stop-color="#7A51FF" stop-opacity="0"/>
</radialGradient>
<clipPath id="clip0_1682_45872">
<rect x="1" y="1" width="60" height="60" rx="30" fill="white"/>
</clipPath>
</defs>
</svg>
